  0
SECTION
  2
HEADER
  9
$ACADVER
  1
AC1009
  9
$INSBASE
 10
0
 20
0
 30
0
  9
$EXTMIN
 10
0
 20
0
  9
$EXTMAX
 10
297
 20
210
  9
$LIMMIN
 10
0
 20
0
  9
$LIMMAX
 10
297
 20
210
  9
$LTSCALE
 40
1
  0
ENDSEC
  0
SECTION
  2
TABLES
  0
TABLE
  2
LTYPE
 70
     9
  0
LTYPE
  2
CONTINUOUS
 70
    64
  3
実線
 72
    65
 73
     0
 40
0.0
  0
LTYPE
  2
DASHED1
 70
    64
  3
--  --  --  --  --  --  --  --  
 72
    65
 73
     2
 40
2.5
 49
1.25
 49
-1.25
  0
LTYPE
  2
DASHED2
 70
    64
  3
----    ----    ----    ----    
 72
    65
 73
     2
 40
5.0
 49
2.5
 49
-2.5
  0
LTYPE
  2
DASHED3
 70
    64
  3
------  ------  ------  ------  
 72
    65
 73
     2
 40
5.0
 49
3.75
 49
-1.25
  0
LTYPE
  2
CENTER1
 70
    64
  3
----- - ----- - ----- - ----- - 
 72
    65
 73
     4
 40
10.0
 49
6.25
 49
-1.25
 49
1.25
 49
-1.25
  0
LTYPE
  2
CENTER2
 70
    64
  3
----------  --  ----------  --  
 72
    65
 73
     4
 40
20.0
 49
12.5
 49
-2.5
 49
2.5
 49
-2.5
  0
LTYPE
  2
PHANTOM1
 70
    64
  3
--- - - --- - - --- - - --- - - 
 72
    65
 73
     6
 40
10.0
 49
3.25
 49
-1.25
 49
1.25
 49
-1.25
 49
1.25
 49
-1.25
  0
LTYPE
  2
PHANTOM2
 70
    64
  3
--------  -  -  --------  -  -  
 72
    65
 73
     6
 40
20.0
 49
10.0
 49
-2.5
 49
1.25
 49
-2.5
 49
1.25
 49
-2.5
  0
LTYPE
  2
DOT
 70
    64
  3
-   -   -   -   -   -   -   -   
 72
    65
 73
     2
 40
2.5
 49
0.625
 49
-1.875
  0
LTYPE
  2
DUMMY
 70
    64
  3
ダミー
 72
    65
 73
     0
 40
0.0
  0
LTYPE
  2
RAND1
 70
    64
  3
ランダム線1
 72
    65
 73
     4
 40
10.0
 49
1.0
 49
-2.0
 49
3.0
 49
-4.0
  0
LTYPE
  2
RAND2
 70
    64
  3
ランダム線2
 72
    65
 73
     4
 40
14.0
 49
2.0
 49
-3.0
 49
4.0
 49
-5.0
  0
LTYPE
  2
RAND3
 70
    64
  3
ランダム線3
 72
    65
 73
     4
 40
18.0
 49
3.0
 49
-4.0
 49
5.0
 49
-6.0
  0
LTYPE
  2
RAND4
 70
    64
  3
ランダム線4
 72
    65
 73
     4
 40
22.0
 49
4.0
 49
-5.0
 49
6.0
 49
-7.0
  0
LTYPE
  2
RAND5
 70
    64
  3
ランダム線5
 72
    65
 73
     4
 40
26.0
 49
5.0
 49
-6.0
 49
7.0
 49
-8.0
  0
LTYPE
  2
LONG1
 70
    64
  3
----------  --  ----------  --  
 72
    65
 73
     4
 40
40.0
 49
32.5
 49
-2.5
 49
2.5
 49
-2.5
  0
LTYPE
  2
LONG2
 70
    64
  3
--------  -  -  --------  -  -  
 72
    65
 73
     6
 40
40.0
 49
30.0
 49
-2.5
 49
1.25
 49
-2.5
 49
1.25
 49
-2.5
  0
LTYPE
  2
LONG3
 70
    64
  3
+++++++++++++++..+++++++++++++++
 72
    65
 73
     2
 40
40.0
 49
37.5
 49
-2.5
  0
LTYPE
  2
LONG4
 70
    64
  3
+++++++++++++++..+++++++++++++++
 72
    65
 73
     2
 40
80.0
 49
75.0
 49
-5.0
  0
LTYPE
  2
LONG5
 70
    64
  3
----------  --  ----------  --  
 72
    65
 73
     4
 40
60.0
 49
37.5
 49
-7.5
 49
7.5
 49
-7.5
  0
LTYPE
  2
dashed
 70
   64
  3
-------   -------------   ------
 72
   65
 73
    2
 40
7.5
 49
6
 49
-1.5
  0
LTYPE
  2
dashed_spaced
 70
   64
  3
----        --------        ----
 72
   65
 73
    2
 40
12
 49
6
 49
-6
  0
LTYPE
  2
long_dashed_dotted
 70
   64
  3
------------- --- --------------
 72
   65
 73
    4
 40
15.25
 49
12
 49
-1.5
 49
0.25
 49
-1.5
  0
LTYPE
  2
long_dashed_double-dotted
 70
   64
  3
----------- --- --- ------------
 72
   65
 73
    6
 40
17
 49
12
 49
-1.5
 49
0.25
 49
-1.5
 49
0.25
 49
-1.5
  0
LTYPE
  2
long_dashed_triplicate-dotted
 70
   64
  3
--------- --- --- --- ----------
 72
   65
 73
    8
 40
18.75
 49
12
 49
-1.5
 49
0.25
 49
-1.5
 49
0.25
 49
-1.5
 49
0.25
 49
-1.5
  0
LTYPE
  2
dotted
 70
   64
  3
   -       -       -       -    
 72
   65
 73
    2
 40
1.75
 49
0.25
 49
-1.5
  0
LTYPE
  2
chain
 70
   64
  3
-------------- -- --------------
 72
   65
 73
    4
 40
18.5
 49
12
 49
-1.5
 49
3.5
 49
-1.5
  0
LTYPE
  2
chain_double_dash
 70
   64
  3
------------ -- -- -------------
 72
   65
 73
    6
 40
23.5
 49
12
 49
-1.5
 49
3.5
 49
-1.5
 49
3.5
 49
-1.5
  0
LTYPE
  2
dashed_dotted
 70
   64
  3
-----------     -     ----------
 72
   65
 73
    4
 40
9.25
 49
6
 49
-1.5
 49
0.25
 49
-1.5
  0
LTYPE
  2
double-dashed_dotted
 70
   64
  3
------   -----------   -   -----
 72
   65
 73
    6
 40
16.75
 49
6
 49
-1.5
 49
6
 49
-1.5
 49
0.25
 49
-1.5
  0
LTYPE
  2
dashed_double-dotted
 70
   64
  3
---------    -    -    ---------
 72
   65
 73
    6
 40
11
 49
6
 49
-1.5
 49
0.25
 49
-1.5
 49
0.25
 49
-1.5
  0
LTYPE
  2
double-dashed_double-dotted
 70
   64
  3
-----   ---------   -   -   ----
 72
   65
 73
    8
 40
18.5
 49
6
 49
-1.5
 49
6
 49
-1.5
 49
0.25
 49
-1.5
 49
0.25
 49
-1.5
  0
LTYPE
  2
dashed_triplicate-dotted
 70
   64
  3
-------    -    -    -    ------
 72
   65
 73
    8
 40
12.75
 49
6
 49
-1.5
 49
0.25
 49
-1.5
 49
0.25
 49
-1.5
 49
0.25
 49
-1.5
  0
LTYPE
  2
double-dashed_triplicate-dotted
 70
   64
  3
-----  ---------  -  -  -  -----
 72
   65
 73
   10
 40
20.25
 49
6
 49
-1.5
 49
6
 49
-1.5
 49
0.25
 49
-1.5
 49
0.25
 49
-1.5
 49
0.25
 49
-1.5
  0
LTYPE
  2
undefined
 70
   64
  3
--------------------------------
 72
   65
 73
    0
 40
0
  0
LTYPE
  2
CENTER
 70
   64
  3
----------    ----    ----------
 72
   65
 73
    4
 40
2
 49
1.25
 49
-0.25
 49
0.25
 49
-0.25
  0
LTYPE
  2
CENTERX4
 70
   64
  3
---------     -----     --------
 72
   65
 73
    4
 40
10.5
 49
6
 49
-1.5
 49
1.5
 49
-1.5
  0
ENDTAB
  0
TABLE
  2
STYLE
  5
3
100
AcDbSymbolTable
 70
     1
  0
STYLE
  5
10
100
AcDbSymbolTableRecord
100
AcDbTextStyleTableRecord
  2
STANDARD
 70
     0
 40
0.0
 41
1.0
 50
0.0
 71
     0
 42
0.2
  3
txt
  4
bigfont.shx
  0
STYLE
  5
26
100
AcDbSymbolTableRecord
100
AcDbTextStyleTableRecord
  2
TATEGAKI
 70
    68
 40
0.0
 41
1.0
 50
0.0
 71
     0
 42
1.0
  3
txt
  4
bigfont.shx
  0
ENDTAB
  0
TABLE
  2
LAYER
 70
    7
  0
LAYER
  2
_0-0_0
 70
   64
 62
    7
  6
CONTINUOUS
  0
LAYER
  2
_0-1_DEFPOINTS
 70
   64
 62
    7
  6
CONTINUOUS
  0
LAYER
  2
_0-2_GAIKEI
 70
   64
 62
    7
  6
CONTINUOUS
  0
LAYER
  2
_0-4_DIM
 70
   64
 62
    7
  6
CONTINUOUS
  0
LAYER
  2
_0-5_CENTER
 70
   64
 62
    7
  6
CONTINUOUS
  0
LAYER
  2
_0-6_FILE
 70
   64
 62
    7
  6
CONTINUOUS
  0
LAYER
  2
ADD_LINE
 70
   64
 62
    7
  6
CONTINUOUS
  0
ENDTAB
  0
ENDSEC
  0
SECTION
  2
BLOCKS
  0
BLOCK
  2
-000-_D2
 70
   64
 10
0
 20
0
 30
0
  0
LINE
  8
_0-0_0
  6
CONTINUOUS
 62
    7
 10
349.46618799999982
 20
282.65405799999962
 11
349.46618799999982
 21
261.6327
  0
LINE
  8
_0-0_0
  6
CONTINUOUS
 62
    7
 10
289.46618799999999
 20
282.65405799999962
 11
289.46618799999999
 21
261.6327
  0
LINE
  8
_0-0_0
  6
CONTINUOUS
 62
    7
 10
345.46618799999982
 20
263.6327
 11
293.46618799999982
 21
263.6327
  0
SOLID
  8
_0-0_0
  6
CONTINUOUS
 62
    7
 10
345.46618799999982
 20
264.29936600000002
 11
345.46618799999982
 21
262.96603399999998
 12
349.46618799999982
 22
263.6327
 13
349.46618799999982
 23
263.6327
  0
SOLID
  8
_0-0_0
  6
CONTINUOUS
 62
    7
 10
293.46618799999982
 20
264.29936600000002
 11
293.46618799999982
 21
262.96603399999998
 12
289.46618799999999
 22
263.6327
 13
289.46618799999999
 23
263.6327
  0
TEXT
  8
_0-0_0
 62
    7
 10
316.766188
 20
265.6327
 40
5
 41
0.7199999999999999
 50
0
  1
30
  0
POINT
  8
_0-1_DEFPOINTS
 62
    7
 10
349.46618799999982
 20
284.65405800000002
  0
POINT
  8
_0-1_DEFPOINTS
 62
    7
 10
289.46618799999999
 20
284.65405800000002
  0
POINT
  8
_0-1_DEFPOINTS
 62
    7
 10
289.46618799999999
 20
263.6327
  0
ENDBLK
  0
BLOCK
  2
-001-_D3
 70
   64
 10
0
 20
0
 30
0
  0
LINE
  8
_0-0_0
  6
CONTINUOUS
 62
    7
 10
232.66581400000001
 20
282.85405800000001
 11
268.52868799999999
 21
282.85405800000001
  0
LINE
  8
_0-0_0
  6
CONTINUOUS
 62
    7
 10
232.66581400000001
 20
350.45405799999997
 11
268.52868799999999
 21
350.45405799999997
  0
LINE
  8
_0-0_0
  6
CONTINUOUS
 62
    7
 10
266.52868799999999
 20
286.85405800000001
 11
266.52868799999999
 21
346.4540579999998
  0
SOLID
  8
_0-0_0
  6
CONTINUOUS
 62
    7
 10
265.86202200000002
 20
286.85405800000001
 11
267.19535599999961
 21
286.85405800000001
 12
266.52868799999999
 22
282.85405800000001
 13
266.52868799999999
 23
282.85405800000001
  0
SOLID
  8
_0-0_0
  6
CONTINUOUS
 62
    7
 10
265.86202200000002
 20
346.4540579999998
 11
267.19535599999961
 21
346.4540579999998
 12
266.52868799999999
 22
350.45405799999997
 13
266.52868799999999
 23
350.45405799999997
  0
TEXT
  8
_0-0_0
 62
    7
 10
264.52868799999999
 20
311.25405799999999
 40
5
 41
0.7199999999999999
 50
90
  1
33.8
  0
POINT
  8
_0-1_DEFPOINTS
 62
    7
 10
230.66581400000001
 20
282.85405800000001
  0
POINT
  8
_0-1_DEFPOINTS
 62
    7
 10
230.66581400000001
 20
350.45405799999997
  0
POINT
  8
_0-1_DEFPOINTS
 62
    7
 10
266.52868799999999
 20
350.45405799999997
  0
ENDBLK
  0
BLOCK
  2
-002-_D4
 70
   64
 10
0
 20
0
 30
0
  0
LINE
  8
_0-0_0
  6
CONTINUOUS
 62
    7
 10
173.86618799999997
 20
304.15405800000002
 11
173.86618799999997
 21
262.00449400000002
  0
LINE
  8
_0-0_0
  6
CONTINUOUS
 62
    7
 10
138.86618799999999
 20
314.65405800000002
 11
138.86618799999999
 21
262.00449400000002
  0
LINE
  8
_0-0_0
  6
CONTINUOUS
 62
    7
 10
169.86618799999999
 20
264.00449400000002
 11
142.86618799999999
 21
264.00449400000002
  0
SOLID
  8
_0-0_0
  6
CONTINUOUS
 62
    7
 10
169.86618799999999
 20
264.67115999999982
 11
169.86618799999999
 21
263.33782599999961
 12
173.86618799999997
 22
264.00449400000002
 13
173.86618799999997
 23
264.00449400000002
  0
SOLID
  8
_0-0_0
  6
CONTINUOUS
 62
    7
 10
142.86618799999999
 20
264.67115999999982
 11
142.86618799999999
 21
263.33782599999961
 12
138.86618799999999
 22
264.00449400000002
 13
138.86618799999999
 23
264.00449400000002
  0
TEXT
  8
_0-0_0
 62
    7
 10
151.56618799999995
 20
266.00449400000002
 40
5
 41
0.7199999999999999
 50
0
  1
17.5
  0
POINT
  8
_0-1_DEFPOINTS
 62
    7
 10
173.86618799999997
 20
306.15405800000002
  0
POINT
  8
_0-1_DEFPOINTS
 62
    7
 10
138.86618799999999
 20
316.65405800000002
  0
POINT
  8
_0-1_DEFPOINTS
 62
    7
 10
138.86618799999999
 20
264.00449400000002
  0
ENDBLK
  0
BLOCK
  2
-003-_D5
 70
   64
 10
0
 20
0
 30
0
  0
LINE
  8
_0-0_0
  6
CONTINUOUS
 62
    7
 10
197.86618799999999
 20
302.65405800000002
 11
197.86618799999999
 21
262.06699400000002
  0
LINE
  8
_0-0_0
  6
CONTINUOUS
 62
    7
 10
173.86618799999997
 20
304.15405800000002
 11
173.86618799999997
 21
262.06699400000002
  0
LINE
  8
_0-0_0
  6
CONTINUOUS
 62
    7
 10
193.86618799999999
 20
264.06699400000002
 11
177.86618799999994
 21
264.06699400000002
  0
SOLID
  8
_0-0_0
  6
CONTINUOUS
 62
    7
 10
193.86618799999999
 20
264.73365999999999
 11
193.86618799999999
 21
263.40032599999961
 12
197.86618799999999
 22
264.06699400000002
 13
197.86618799999999
 23
264.06699400000002
  0
SOLID
  8
_0-0_0
  6
CONTINUOUS
 62
    7
 10
177.86618799999994
 20
264.73365999999999
 11
177.86618799999994
 21
263.40032599999961
 12
173.86618799999997
 22
264.06699400000002
 13
173.86618799999997
 23
264.06699400000002
  0
TEXT
  8
_0-0_0
 62
    7
 10
183.46618799999999
 20
266.06699400000002
 40
5
 41
0.7199999999999999
 50
0
  1
12
  0
POINT
  8
_0-1_DEFPOINTS
 62
    7
 10
197.86618799999999
 20
304.65405800000002
  0
POINT
  8
_0-1_DEFPOINTS
 62
    7
 10
173.86618799999997
 20
306.15405800000002
  0
POINT
  8
_0-1_DEFPOINTS
 62
    7
 10
173.86618799999997
 20
264.06699400000002
  0
ENDBLK
  0
BLOCK
  2
-004-_D6
 70
   64
 10
0
 20
0
 30
0
  0
LINE
  8
_0-0_0
  6
CONTINUOUS
 62
    7
 10
197.86618799999999
 20
302.67094800000001
 11
197.86618799999999
 21
262.00449400000002
  0
LINE
  8
_0-0_0
  6
CONTINUOUS
 62
    7
 10
252.46618799999999
 20
337.15405800000002
 11
252.46618799999999
 21
262.00449400000002
  0
LINE
  8
_0-0_0
  6
CONTINUOUS
 62
    7
 10
201.8661879999998
 20
264.00449400000002
 11
248.46618799999959
 21
264.00449400000002
  0
SOLID
  8
_0-0_0
  6
CONTINUOUS
 62
    7
 10
201.8661879999998
 20
264.67115999999982
 11
201.8661879999998
 21
263.33782599999961
 12
197.86618799999999
 22
264.00449400000002
 13
197.86618799999999
 23
264.00449400000002
  0
SOLID
  8
_0-0_0
  6
CONTINUOUS
 62
    7
 10
248.46618799999959
 20
264.67115999999982
 11
248.46618799999959
 21
263.33782599999961
 12
252.46618799999999
 22
264.00449400000002
 13
252.46618799999999
 23
264.00449400000002
  0
TEXT
  8
_0-0_0
 62
    7
 10
219.766188
 20
266.00449400000002
 40
5
 41
0.7199999999999999
 50
0
  1
27.3
  0
POINT
  8
_0-1_DEFPOINTS
 62
    7
 10
197.86618799999999
 20
304.67094800000001
  0
POINT
  8
_0-1_DEFPOINTS
 62
    7
 10
252.46618799999999
 20
339.15405800000002
  0
POINT
  8
_0-1_DEFPOINTS
 62
    7
 10
252.46618799999999
 20
264.00449400000002
  0
ENDBLK
  0
BLOCK
  2
-005-_D7
 70
   64
 10
0
 20
0
 30
0
  0
LINE
  8
_0-0_0
  6
CONTINUOUS
 62
    7
 10
252.46618799999999
 20
292.15405800000002
 11
252.46618799999999
 21
271.62144999999981
  0
LINE
  8
_0-0_0
  6
CONTINUOUS
 62
    7
 10
242.46618799999959
 20
295.82682799999998
 11
242.46618799999959
 21
271.62144999999981
  0
LINE
  8
_0-0_0
  6
CONTINUOUS
 62
    7
 10
256.46618799999999
 20
273.62144999999981
 11
260.46618799999999
 21
273.62144999999981
  0
LINE
  8
_0-0_0
  6
CONTINUOUS
 62
    7
 10
238.46618799999959
 20
273.62144999999981
 11
234.46618799999959
 21
273.62144999999981
  0
LINE
  8
_0-0_0
  6
CONTINUOUS
 62
    7
 10
252.46618799999999
 20
273.62144999999981
 11
242.46618799999959
 21
273.62144999999981
  0
SOLID
  8
_0-0_0
  6
CONTINUOUS
 62
    7
 10
256.46618799999999
 20
274.288116
 11
256.46618799999999
 21
272.95478399999979
 12
252.46618799999999
 22
273.62144999999981
 13
252.46618799999999
 23
273.62144999999981
  0
SOLID
  8
_0-0_0
  6
CONTINUOUS
 62
    7
 10
238.46618799999959
 20
274.288116
 11
238.46618799999959
 21
272.95478399999979
 12
242.46618799999959
 22
273.62144999999981
 13
242.46618799999959
 23
273.62144999999981
  0
TEXT
  8
_0-0_0
 62
    7
 10
246.266188
 20
275.62144999999998
 40
5
 41
0.7199999999999999
 50
0
  1
5
  0
POINT
  8
_0-1_DEFPOINTS
 62
    7
 10
252.46618799999999
 20
294.15405800000002
  0
POINT
  8
_0-1_DEFPOINTS
 62
    7
 10
242.46618799999959
 20
297.82682799999981
  0
POINT
  8
_0-1_DEFPOINTS
 62
    7
 10
242.46618799999959
 20
273.62144999999981
  0
ENDBLK
  0
BLOCK
  2
-006-_D8
 70
   64
 10
0
 20
0
 30
0
  0
LINE
  8
_0-0_0
  6
CONTINUOUS
 62
    7
 10
167.18967000000001
 20
93.446860000000001
 11
184.67214000000001
 21
93.446860000000001
  0
LINE
  8
_0-0_0
  6
CONTINUOUS
 62
    7
 10
167.18967000000001
 20
90.688370000000006
 11
184.67214000000001
 21
90.688370000000006
  0
LINE
  8
_0-0_0
  6
CONTINUOUS
 62
    7
 10
182.67214000000001
 20
86.688369999999978
 11
182.67214000000001
 21
82.688369999999964
  0
LINE
  8
_0-0_0
  6
CONTINUOUS
 62
    7
 10
182.67214000000001
 20
97.446860000000001
 11
182.67214000000001
 21
106.64686
  0
LINE
  8
_0-0_0
  6
CONTINUOUS
 62
    7
 10
182.67214000000001
 20
90.688370000000006
 11
182.67214000000001
 21
93.446860000000001
  0
SOLID
  8
_0-0_0
  6
CONTINUOUS
 62
    7
 10
182.00547199999997
 20
86.688369999999978
 11
183.33880600000001
 21
86.688369999999978
 12
182.67214000000001
 22
90.688370000000006
 13
182.67214000000001
 23
90.688370000000006
  0
SOLID
  8
_0-0_0
  6
CONTINUOUS
 62
    7
 10
182.00547199999997
 20
97.446860000000001
 11
183.33880600000001
 21
97.446860000000001
 12
182.67214000000001
 22
93.446860000000001
 13
182.67214000000001
 23
93.446860000000001
  0
TEXT
  8
_0-0_0
 62
    7
 10
180.67214000000001
 20
103.44686
 40
5
 41
0.7199999999999999
 50
90
  1
1
  0
POINT
  8
_0-1_DEFPOINTS
 62
    7
 10
165.18966999999998
 20
93.446860000000001
  0
POINT
  8
_0-1_DEFPOINTS
 62
    7
 10
165.18966999999998
 20
90.688370000000006
  0
POINT
  8
_0-1_DEFPOINTS
 62
    7
 10
182.67214000000001
 20
90.688370000000006
  0
ENDBLK
  0
BLOCK
  2
-007-_D9
 70
   64
 10
0
 20
0
 30
0
  0
LINE
  8
_0-0_0
  6
CONTINUOUS
 62
    7
 10
154.56752399999996
 20
136.69371799999999
 11
193.62222600000001
 21
136.69371799999999
  0
LINE
  8
_0-0_0
  6
CONTINUOUS
 62
    7
 10
154.56752399999996
 20
168.29371800000001
 11
193.62222600000001
 21
168.29371800000001
  0
LINE
  8
_0-0_0
  6
CONTINUOUS
 62
    7
 10
191.62222600000001
 20
140.69371799999999
 11
191.62222600000001
 21
164.29371799999993
  0
SOLID
  8
_0-0_0
  6
CONTINUOUS
 62
    7
 10
190.95555799999997
 20
140.69371799999999
 11
192.288892
 21
140.69371799999999
 12
191.62222600000001
 22
136.69371799999999
 13
191.62222600000001
 23
136.69371799999999
  0
SOLID
  8
_0-0_0
  6
CONTINUOUS
 62
    7
 10
190.95555799999997
 20
164.29371799999993
 11
192.288892
 21
164.29371799999993
 12
191.62222600000001
 22
168.29371800000001
 13
191.62222600000001
 23
168.29371800000001
  0
TEXT
  8
_0-0_0
 62
    7
 10
189.62222600000001
 20
147.69371799999996
 40
5
 41
0.7199999999999999
 50
90
  1
15.8
  0
POINT
  8
_0-1_DEFPOINTS
 62
    7
 10
152.56752399999996
 20
136.69371799999999
  0
POINT
  8
_0-1_DEFPOINTS
 62
    7
 10
152.56752399999996
 20
168.29371800000001
  0
POINT
  8
_0-1_DEFPOINTS
 62
    7
 10
191.62222600000001
 20
168.29371800000001
  0
ENDBLK
  0
BLOCK
  2
-008-_D10
 70
   64
 10
0
 20
0
 30
0
  0
LINE
  8
_0-0_0
  6
CONTINUOUS
 62
    7
 10
45.331159999999983
 20
91.604031999999961
 11
40.494728000000002
 21
91.604031999999961
  0
LINE
  8
_0-0_0
  6
CONTINUOUS
 62
    7
 10
60.731159999999981
 20
97.204031999999984
 11
40.494728000000002
 21
97.204031999999984
  0
LINE
  8
_0-0_0
  6
CONTINUOUS
 62
    7
 10
42.494728000000002
 20
87.604031999999961
 11
42.494728000000002
 21
83.604031999999975
  0
LINE
  8
_0-0_0
  6
CONTINUOUS
 62
    7
 10
42.494728000000002
 20
101.204032
 11
42.494728000000002
 21
105.20403200000003
  0
TEXT
  8
_0-0_0
 62
    7
 10
37.494728000000002
 20
90.804031999999964
 40
5
 41
0.7199999999999999
 50
90
  1
2.8
  0
LINE
  8
_0-0_0
  6
CONTINUOUS
 62
    7
 10
42.494728000000002
 20
91.604031999999961
 11
42.494728000000002
 21
97.204031999999984
  0
LINE
  8
_0-0_0
  6
CONTINUOUS
 62
    7
 10
42.494728000000002
 20
91.604031999999961
 11
42.494728000000002
 21
97.204031999999984
  0
SOLID
  8
_0-0_0
  6
CONTINUOUS
 62
    7
 10
41.828060000000001
 20
87.604031999999961
 11
43.16139399999998
 21
87.604031999999961
 12
42.494728000000002
 22
91.604031999999961
 13
42.494728000000002
 23
91.604031999999961
  0
SOLID
  8
_0-0_0
  6
CONTINUOUS
 62
    7
 10
41.828060000000001
 20
101.204032
 11
43.16139399999998
 21
101.204032
 12
42.494728000000002
 22
97.204031999999984
 13
42.494728000000002
 23
97.204031999999984
  0
POINT
  8
_0-1_DEFPOINTS
 62
    7
 10
47.331159999999983
 20
91.604031999999961
  0
POINT
  8
_0-1_DEFPOINTS
 62
    7
 10
62.731159999999981
 20
97.204031999999984
  0
POINT
  8
_0-1_DEFPOINTS
 62
    7
 10
42.494728000000002
 20
97.204031999999984
  0
ENDBLK
  0
BLOCK
  2
-009-_D11
 70
   64
 10
0
 20
0
 30
0
  0
LINE
  8
_0-0_0
  6
CONTINUOUS
 62
    7
 10
254.99429599999999
 20
91.604031999999961
 11
267.98794600000002
 21
91.604031999999961
  0
LINE
  8
_0-0_0
  6
CONTINUOUS
 62
    7
 10
252.82848999999999
 20
96.404032000000001
 11
267.98794600000002
 21
96.404032000000001
  0
LINE
  8
_0-0_0
  6
CONTINUOUS
 62
    7
 10
265.98794600000002
 20
87.604031999999961
 11
265.98794600000002
 21
83.604031999999975
  0
LINE
  8
_0-0_0
  6
CONTINUOUS
 62
    7
 10
265.98794600000002
 20
100.404032
 11
265.98794600000002
 21
115.604032
  0
LINE
  8
_0-0_0
  6
CONTINUOUS
 62
    7
 10
265.98794600000002
 20
91.604031999999961
 11
265.98794600000002
 21
96.404032000000001
  0
SOLID
  8
_0-0_0
  6
CONTINUOUS
 62
    7
 10
265.32127800000001
 20
87.604031999999961
 11
266.65461199999999
 21
87.604031999999961
 12
265.98794600000002
 22
91.604031999999961
 13
265.98794600000002
 23
91.604031999999961
  0
SOLID
  8
_0-0_0
  6
CONTINUOUS
 62
    7
 10
265.32127800000001
 20
100.404032
 11
266.65461199999999
 21
100.404032
 12
265.98794600000002
 22
96.404032000000001
 13
265.98794600000002
 23
96.404032000000001
  0
TEXT
  8
_0-0_0
 62
    7
 10
263.98794600000002
 20
106.404032
 40
5
 41
0.7199999999999999
 50
90
  1
2.4
  0
POINT
  8
_0-1_DEFPOINTS
 62
    7
 10
252.99429599999999
 20
91.604031999999961
  0
POINT
  8
_0-1_DEFPOINTS
 62
    7
 10
250.82848999999999
 20
96.404032000000001
  0
POINT
  8
_0-1_DEFPOINTS
 62
    7
 10
265.98794600000002
 20
96.404032000000001
  0
ENDBLK
  0
BLOCK
  2
-010-_D12
 70
   64
 10
0
 20
0
 30
0
  0
LINE
  8
_0-0_0
  6
CONTINUOUS
 62
    7
 10
154.56752399999996
 20
140.39371800000001
 11
184.660034
 21
140.39371800000001
  0
LINE
  8
_0-0_0
  6
CONTINUOUS
 62
    7
 10
154.56752399999996
 20
164.59371799999994
 11
184.660034
 21
164.59371799999994
  0
LINE
  8
_0-0_0
  6
CONTINUOUS
 62
    7
 10
182.66003399999997
 20
144.39371800000001
 11
182.66003399999997
 21
160.593718
  0
SOLID
  8
_0-0_0
  6
CONTINUOUS
 62
    7
 10
181.99336600000001
 20
144.39371800000001
 11
183.32669999999999
 21
144.39371800000001
 12
182.66003399999997
 22
140.39371800000001
 13
182.66003399999997
 23
140.39371800000001
  0
SOLID
  8
_0-0_0
  6
CONTINUOUS
 62
    7
 10
181.99336600000001
 20
160.593718
 11
183.32669999999999
 21
160.593718
 12
182.66003399999997
 22
164.59371799999994
 13
182.66003399999997
 23
164.59371799999994
  0
TEXT
  8
_0-0_0
 62
    7
 10
180.66003399999997
 20
146.493718
 40
5
 41
0.7199999999999999
 50
90
  1
φ12.1
  0
POINT
  8
_0-1_DEFPOINTS
 62
    7
 10
152.56752399999996
 20
140.39371800000001
  0
POINT
  8
_0-1_DEFPOINTS
 62
    7
 10
152.56752399999996
 20
164.59371799999994
  0
POINT
  8
_0-1_DEFPOINTS
 62
    7
 10
182.66003399999997
 20
164.59371799999994
  0
ENDBLK
  0
BLOCK
  2
-011-_D13
 70
   64
 10
0
 20
0
 30
0
  0
LINE
  8
_0-0_0
  6
CONTINUOUS
 62
    7
 10
68.331159999999997
 20
99.204031999999998
 11
68.331159999999997
 21
106.733352
  0
LINE
  8
_0-0_0
  6
CONTINUOUS
 62
    7
 10
62.731159999999981
 20
99.204031999999998
 11
62.731159999999981
 21
106.733352
  0
LINE
  8
_0-0_0
  6
CONTINUOUS
 62
    7
 10
72.331159999999983
 20
104.733352
 11
76.331159999999997
 21
104.733352
  0
LINE
  8
_0-0_0
  6
CONTINUOUS
 62
    7
 10
58.731159999999981
 20
104.733352
 11
54.731160000000003
 21
104.733352
  0
TEXT
  8
_0-0_0
 62
    7
 10
61.931159999999977
 20
109.733352
 40
5
 41
0.7199999999999999
 50
0
  1
2.8
  0
LINE
  8
_0-0_0
  6
CONTINUOUS
 62
    7
 10
68.331159999999997
 20
104.733352
 11
62.731159999999981
 21
104.733352
  0
LINE
  8
_0-0_0
  6
CONTINUOUS
 62
    7
 10
68.331159999999997
 20
104.733352
 11
62.731159999999981
 21
104.733352
  0
SOLID
  8
_0-0_0
  6
CONTINUOUS
 62
    7
 10
72.331159999999983
 20
105.40001799999997
 11
72.331159999999983
 21
104.066686
 12
68.331159999999997
 22
104.733352
 13
68.331159999999997
 23
104.733352
  0
SOLID
  8
_0-0_0
  6
CONTINUOUS
 62
    7
 10
58.731159999999981
 20
105.40001799999997
 11
58.731159999999981
 21
104.066686
 12
62.731159999999981
 22
104.733352
 13
62.731159999999981
 23
104.733352
  0
POINT
  8
_0-1_DEFPOINTS
 62
    7
 10
68.331159999999997
 20
97.204031999999984
  0
POINT
  8
_0-1_DEFPOINTS
 62
    7
 10
62.731159999999981
 20
97.204031999999984
  0
POINT
  8
_0-1_DEFPOINTS
 62
    7
 10
62.731159999999981
 20
104.733352
  0
ENDBLK
  0
BLOCK
  2
-012-_D14
 70
   64
 10
0
 20
0
 30
0
  0
LINE
  8
_0-0_0
  6
CONTINUOUS
 62
    7
 10
246.91140799999999
 20
138.493718
 11
265.65147200000001
 21
138.493718
  0
LINE
  8
_0-0_0
  6
CONTINUOUS
 62
    7
 10
246.91140799999999
 20
166.493718
 11
265.65147200000001
 21
166.493718
  0
LINE
  8
_0-0_0
  6
CONTINUOUS
 62
    7
 10
263.65147200000001
 20
142.493718
 11
263.65147200000001
 21
162.49371800000003
  0
SOLID
  8
_0-0_0
  6
CONTINUOUS
 62
    7
 10
262.98480599999999
 20
142.493718
 11
264.3181399999998
 21
142.493718
 12
263.65147200000001
 22
138.493718
 13
263.65147200000001
 23
138.493718
  0
SOLID
  8
_0-0_0
  6
CONTINUOUS
 62
    7
 10
262.98480599999999
 20
162.49371800000003
 11
264.3181399999998
 21
162.49371800000003
 12
263.65147200000001
 22
166.493718
 13
263.65147200000001
 23
166.493718
  0
TEXT
  8
_0-0_0
 62
    7
 10
261.65147200000001
 20
150.093718
 40
5
 41
0.7199999999999999
 50
90
  1
14
  0
POINT
  8
_0-1_DEFPOINTS
 62
    7
 10
244.91140799999999
 20
138.493718
  0
POINT
  8
_0-1_DEFPOINTS
 62
    7
 10
244.91140799999999
 20
166.493718
  0
POINT
  8
_0-1_DEFPOINTS
 62
    7
 10
263.65147200000001
 20
166.493718
  0
ENDBLK
  0
BLOCK
  2
-013-_D15
 70
   64
 10
0
 20
0
 30
0
  0
LINE
  8
_0-0_0
  6
CONTINUOUS
 62
    7
 10
320.61140799999981
 20
138.493718
 11
339.74071800000002
 21
138.493718
  0
LINE
  8
_0-0_0
  6
CONTINUOUS
 62
    7
 10
320.61140799999981
 20
166.493718
 11
339.74071800000002
 21
166.493718
  0
LINE
  8
_0-0_0
  6
CONTINUOUS
 62
    7
 10
337.74071800000002
 20
142.493718
 11
337.74071800000002
 21
162.49371800000003
  0
SOLID
  8
_0-0_0
  6
CONTINUOUS
 62
    7
 10
337.07405199999999
 20
142.493718
 11
338.4073859999998
 21
142.493718
 12
337.74071800000002
 22
138.493718
 13
337.74071800000002
 23
138.493718
  0
SOLID
  8
_0-0_0
  6
CONTINUOUS
 62
    7
 10
337.07405199999999
 20
162.49371800000003
 11
338.4073859999998
 21
162.49371800000003
 12
337.74071800000002
 22
166.493718
 13
337.74071800000002
 23
166.493718
  0
TEXT
  8
_0-0_0
 62
    7
 10
335.74071800000002
 20
150.093718
 40
5
 41
0.7199999999999999
 50
90
  1
14
  0
POINT
  8
_0-1_DEFPOINTS
 62
    7
 10
318.61140799999959
 20
138.493718
  0
POINT
  8
_0-1_DEFPOINTS
 62
    7
 10
318.61140799999959
 20
166.493718
  0
POINT
  8
_0-1_DEFPOINTS
 62
    7
 10
337.74071800000002
 20
166.493718
  0
ENDBLK
  0
BLOCK
  2
-014-_D16
 70
   64
 10
0
 20
0
 30
0
  0
LINE
  8
_0-0_0
  6
CONTINUOUS
 62
    7
 10
326.52848999999958
 20
90.336504000000005
 11
342.6055919999996
 21
90.336504000000005
  0
LINE
  8
_0-0_0
  6
CONTINUOUS
 62
    7
 10
326.52848999999958
 20
94.336504000000005
 11
342.6055919999996
 21
94.336504000000005
  0
LINE
  8
_0-0_0
  6
CONTINUOUS
 62
    7
 10
340.605592
 20
86.336504000000005
 11
340.605592
 21
82.336504000000005
  0
LINE
  8
_0-0_0
  6
CONTINUOUS
 62
    7
 10
340.605592
 20
98.336504000000005
 11
340.605592
 21
108.73650400000002
  0
LINE
  8
_0-0_0
  6
CONTINUOUS
 62
    7
 10
340.605592
 20
90.336504000000005
 11
340.605592
 21
94.336504000000005
  0
SOLID
  8
_0-0_0
  6
CONTINUOUS
 62
    7
 10
339.93892599999981
 20
86.336504000000005
 11
341.27225800000002
 21
86.336504000000005
 12
340.605592
 22
90.336504000000005
 13
340.605592
 23
90.336504000000005
  0
SOLID
  8
_0-0_0
  6
CONTINUOUS
 62
    7
 10
339.93892599999981
 20
98.336504000000005
 11
341.27225800000002
 21
98.336504000000005
 12
340.605592
 22
94.336504000000005
 13
340.605592
 23
94.336504000000005
  0
TEXT
  8
_0-0_0
 62
    7
 10
338.605592
 20
104.33650400000001
 40
5
 41
0.7199999999999999
 50
90
  1
2
  0
POINT
  8
_0-1_DEFPOINTS
 62
    7
 10
324.52848999999958
 20
90.336504000000005
  0
POINT
  8
_0-1_DEFPOINTS
 62
    7
 10
324.52848999999958
 20
94.336504000000005
  0
POINT
  8
_0-1_DEFPOINTS
 62
    7
 10
340.605592
 20
94.336504000000005
  0
ENDBLK
  0
BLOCK
  2
-015-_D17
 70
   64
 10
0
 20
0
 30
0
  0
LINE
  8
_0-0_0
  6
CONTINUOUS
 62
    7
 10
70.331159999999983
 20
133.406792
 11
115.178804
 21
133.406792
  0
LINE
  8
_0-0_0
  6
CONTINUOUS
 62
    7
 10
88.570048
 20
152.406792
 11
115.178804
 21
152.406792
  0
LINE
  8
_0-0_0
  6
CONTINUOUS
 62
    7
 10
113.17880399999999
 20
137.406792
 11
113.17880399999999
 21
148.406792
  0
SOLID
  8
_0-0_0
  6
CONTINUOUS
 62
    7
 10
112.51213599999998
 20
137.406792
 11
113.84546999999996
 21
137.406792
 12
113.17880399999999
 22
133.406792
 13
113.17880399999999
 23
133.406792
  0
SOLID
  8
_0-0_0
  6
CONTINUOUS
 62
    7
 10
112.51213599999998
 20
148.406792
 11
113.84546999999996
 21
148.406792
 12
113.17880399999999
 22
152.406792
 13
113.17880399999999
 23
152.406792
  0
TEXT
  8
_0-0_0
 62
    7
 10
111.178804
 20
139.306792
 40
5
 41
0.7199999999999999
 50
90
  1
9.5
  0
POINT
  8
_0-1_DEFPOINTS
 62
    7
 10
68.331159999999997
 20
133.406792
  0
POINT
  8
_0-1_DEFPOINTS
 62
    7
 10
86.570048
 20
152.406792
  0
POINT
  8
_0-1_DEFPOINTS
 62
    7
 10
113.17880399999999
 20
152.406792
  0
ENDBLK
  0
BLOCK
  2
-016-_D18
 70
   64
 10
0
 20
0
 30
0
  0
LINE
  8
_0-0_0
  6
CONTINUOUS
 62
    7
 10
134.66752399999999
 20
92.567614000000006
 11
123.30987399999997
 21
92.567614000000006
  0
LINE
  8
_0-0_0
  6
CONTINUOUS
 62
    7
 10
134.66752399999999
 20
91.567614000000006
 11
123.30987399999997
 21
91.567614000000006
  0
LINE
  8
_0-0_0
  6
CONTINUOUS
 62
    7
 10
125.30987399999999
 20
87.567614000000006
 11
125.30987399999999
 21
83.567614000000006
  0
LINE
  8
_0-0_0
  6
CONTINUOUS
 62
    7
 10
125.30987399999999
 20
96.567614000000006
 11
125.30987399999999
 21
111.16761399999999
  0
LINE
  8
_0-0_0
  6
CONTINUOUS
 62
    7
 10
125.30987399999999
 20
91.567614000000006
 11
125.30987399999999
 21
92.567614000000006
  0
SOLID
  8
_0-0_0
  6
CONTINUOUS
 62
    7
 10
124.643208
 20
87.567614000000006
 11
125.97654199999999
 21
87.567614000000006
 12
125.30987399999999
 22
91.567614000000006
 13
125.30987399999999
 23
91.567614000000006
  0
SOLID
  8
_0-0_0
  6
CONTINUOUS
 62
    7
 10
124.643208
 20
96.567614000000006
 11
125.97654199999999
 21
96.567614000000006
 12
125.30987399999999
 22
92.567614000000006
 13
125.30987399999999
 23
92.567614000000006
  0
TEXT
  8
_0-0_0
 62
    7
 10
123.30987399999997
 20
102.56761400000002
 40
5
 41
0.7199999999999999
 50
90
  1
0.5
  0
POINT
  8
_0-1_DEFPOINTS
 62
    7
 10
136.66752399999999
 20
92.567614000000006
  0
POINT
  8
_0-1_DEFPOINTS
 62
    7
 10
136.66752399999999
 20
91.567614000000006
  0
POINT
  8
_0-1_DEFPOINTS
 62
    7
 10
125.30987399999999
 20
91.567614000000006
  0
ENDBLK
  0
BLOCK
  2
-017-_D20
 70
   64
 10
0
 20
0
 30
0
  0
LINE
  8
_0-0_0
  6
CONTINUOUS
 62
    7
 10
85.731160000000003
 20
91.604031999999961
 11
100.115516
 21
91.604031999999961
  0
LINE
  8
_0-0_0
  6
CONTINUOUS
 62
    7
 10
85.731160000000003
 20
93.604031999999975
 11
100.115516
 21
93.604031999999975
  0
LINE
  8
_0-0_0
  6
CONTINUOUS
 62
    7
 10
98.115516
 20
87.604031999999961
 11
98.115516
 21
83.604031999999975
  0
LINE
  8
_0-0_0
  6
CONTINUOUS
 62
    7
 10
98.115516
 20
97.604031999999975
 11
98.115516
 21
106.80403200000001
  0
LINE
  8
_0-0_0
  6
CONTINUOUS
 62
    7
 10
98.115516
 20
91.604031999999961
 11
98.115516
 21
93.604031999999975
  0
SOLID
  8
_0-0_0
  6
CONTINUOUS
 62
    7
 10
97.448849999999993
 20
87.604031999999961
 11
98.782184000000001
 21
87.604031999999961
 12
98.115516
 22
91.604031999999961
 13
98.115516
 23
91.604031999999961
  0
SOLID
  8
_0-0_0
  6
CONTINUOUS
 62
    7
 10
97.448849999999993
 20
97.604031999999975
 11
98.782184000000001
 21
97.604031999999975
 12
98.115516
 22
93.604031999999975
 13
98.115516
 23
93.604031999999975
  0
TEXT
  8
_0-0_0
 62
    7
 10
96.115516
 20
103.604032
 40
5
 41
0.7199999999999999
 50
90
  1
1
  0
POINT
  8
_0-1_DEFPOINTS
 62
    7
 10
83.731160000000003
 20
91.604031999999961
  0
POINT
  8
_0-1_DEFPOINTS
 62
    7
 10
83.731160000000003
 20
93.604031999999975
  0
POINT
  8
_0-1_DEFPOINTS
 62
    7
 10
98.115516
 20
93.604031999999975
  0
ENDBLK
  0
BLOCK
  2
-018-_D21
 70
   64
 10
0
 20
0
 30
0
  0
LINE
  8
_0-0_0
  6
CONTINUOUS
 62
    7
 10
69.554192
 20
164.59369599999997
 11
105.54281
 21
164.59369599999997
  0
LINE
  8
_0-0_0
  6
CONTINUOUS
 62
    7
 10
69.13115999999998
 20
141.593718
 11
105.54281
 21
141.593718
  0
LINE
  8
_0-0_0
  6
CONTINUOUS
 62
    7
 10
103.54281
 20
145.593718
 11
103.54281
 21
160.59369599999997
  0
LINE
  8
_0-0_0
  6
CONTINUOUS
 62
    7
 10
103.54281
 20
164.59369599999997
 11
103.54281
 21
180.99369599999997
  0
SOLID
  8
_0-0_0
  6
CONTINUOUS
 62
    7
 10
102.876144
 20
145.593718
 11
104.20947599999998
 21
145.593718
 12
103.54281
 22
141.593718
 13
103.54281
 23
141.593718
  0
SOLID
  8
_0-0_0
  6
CONTINUOUS
 62
    7
 10
102.876144
 20
160.59369599999997
 11
104.20947599999998
 21
160.59369599999997
 12
103.54281
 22
164.59369599999997
 13
103.54281
 23
164.59369599999997
  0
TEXT
  8
_0-0_0
 62
    7
 10
101.54281
 20
170.59369599999997
 40
5
 41
0.7199999999999999
 50
90
  1
11.5
  0
POINT
  8
_0-1_DEFPOINTS
 62
    7
 10
67.554192
 20
164.59369599999997
  0
POINT
  8
_0-1_DEFPOINTS
 62
    7
 10
67.13115999999998
 20
141.593718
  0
POINT
  8
_0-1_DEFPOINTS
 62
    7
 10
103.54281
 20
141.593718
  0
ENDBLK
  0
ENDSEC
  0
SECTION
  2
ENTITIES
  0
TEXT
  8
_0-6_FILE
 62
    7
 10
66.756108108471253
 20
174.81438712145285
 40
4
 41
0.7199999999999999
 50
0
  1
S-32,S-33,S-35,S-38,S-39
  0
TEXT
  8
_0-6_FILE
 62
    7
 10
209.71913849999981
 20
53.023287878546952
 40
2.5
 41
0.7199999999999999
 50
0
  1
M12P1
  0
SOLID
  8
_0-6_FILE
  6
CONTINUOUS
 62
    4
 10
212.1741705
 20
69.966239878546958
 11
211.67562549999991
 21
70.135857878546929
 12
212.56908849999991
 22
71.944463878546941
 13
212.56908849999991
 23
71.944463878546941
  0
SOLID
  8
_0-6_FILE
  6
CONTINUOUS
 62
    4
 10
209.09886449999993
 20
62.562199878546934
 11
209.59741050000002
 21
62.392580878546951
 12
208.70394750000003
 22
60.583975878546951
 13
208.70394750000003
 23
60.583975878546951
  0
LINE
  8
_0-6_FILE
  6
CONTINUOUS
 62
    4
 10
205.96148650000003
 20
52.523287878546952
 11
219.72052049999991
 21
52.523287878546952
  0
LINE
  8
_0-6_FILE
  6
CONTINUOUS
 62
    4
 10
212.56908849999991
 20
71.944463878546941
 11
205.96148650000003
 21
52.523287878546952
  0
TEXT
  8
_0-6_FILE
 62
    7
 10
95.562402500000019
 20
51.351181878546946
 40
2.5
 41
0.7199999999999999
 50
0
  1
18.2
  0
SOLID
  8
_0-6_FILE
  6
CONTINUOUS
 62
    4
 10
85.783805500000014
 20
72.920269878546932
 11
85.294080500000007
 21
72.726654878546938
 12
84.803613500000012
 22
74.683378878546947
 13
84.803613500000012
 23
74.683378878546947
  0
SOLID
  8
_0-6_FILE
  6
CONTINUOUS
 62
    4
 10
90.51491750000001
 20
59.521243878546954
 11
91.004642500000017
 21
59.714859878546946
 12
91.495109500000012
 22
57.758134878546954
 13
91.495109500000012
 23
57.758134878546954
  0
LINE
  8
_0-6_FILE
  6
CONTINUOUS
 62
    4
 10
94.251998500000013
 20
50.78495287854696
 11
102.73750450000001
 21
50.78495287854696
  0
LINE
  8
_0-6_FILE
  6
CONTINUOUS
 62
    4
 10
84.803613500000012
 20
74.683378878546947
 11
94.251998500000013
 21
50.78495287854696
  0
TEXT
  8
_0-6_FILE
 62
    7
 10
76.802194500000013
 20
51.489571878546954
 40
2.5
 41
0.7199999999999999
 50
0
  1
12.1
  0
SOLID
  8
_0-6_FILE
  6
CONTINUOUS
 62
    4
 10
89.879054499999995
 20
69.930282878546933
 11
89.38971650000002
 21
70.124873878546936
 12
90.373417500000002
 22
71.886026878546957
 13
90.373417500000002
 23
71.886026878546957
  0
SOLID
  8
_0-6_FILE
  6
CONTINUOUS
 62
    4
 10
86.3966365
 20
62.598156878546931
 11
86.885974500000003
 21
62.403565878546956
 12
85.902273500000007
 22
60.642412878546949
 13
85.902273500000007
 23
60.642412878546949
  0
LINE
  8
_0-6_FILE
  6
CONTINUOUS
 62
    4
 10
81.982348500000015
 20
50.78495287854696
 11
76.802194500000013
 21
50.78495287854696
  0
LINE
  8
_0-6_FILE
  6
CONTINUOUS
 62
    4
 10
90.373417500000002
 20
71.886026878546957
 11
81.982348500000015
 21
50.78495287854696
  0
SOLID
  8
_0-6_FILE
  6
CONTINUOUS
 62
    4
 10
181.53359550000002
 20
135.14478387854686
 11
181.15507150000002
 21
134.77867187854676
 12
179.95388750000001
 22
136.39931587854696
 13
179.95388750000001
 23
136.39931587854696
  0
SOLID
  8
_0-6_FILE
  6
CONTINUOUS
 62
    4
 10
71.805359500000009
 20
148.08108487854696
 11
71.805359500000009
 21
148.60769487854697
 12
73.805359500000009
 22
148.34438987854696
 13
73.805359500000009
 23
148.34438987854696
  0
LINE
  8
_0-6_FILE
  6
CONTINUOUS
 62
    4
 10
73.805359500000009
 20
148.34438987854696
 11
68.805359500000009
 21
148.34438987854696
  0
LINE
  8
_0-6_FILE
  6
CONTINUOUS
 62
    4
 10
179.95388750000001
 20
136.39931587854696
 11
189.08988549999981
 21
126.95356787854686
  0
LINE
  8
_0-6_FILE
  6
CONTINUOUS
 62
    4
 10
189.08988549999981
 20
126.95356787854686
 11
198.72037549999993
 21
126.95356787854686
  0
TEXT
  8
_0-6_FILE
 62
    7
 10
65.394640500000008
 20
141.55288687854676
 40
2.5
 41
0.7199999999999999
 50
0
  1
側
  0
TEXT
  8
_0-6_FILE
 62
    7
 10
65.394640500000008
 20
145.03288687854686
 40
2.5
 41
0.7199999999999999
 50
0
  1
示
  0
TEXT
  8
_0-6_FILE
 62
    7
 10
65.394640500000008
 20
148.39288687854696
 40
2.5
 41
0.7199999999999999
 50
0
  1
表
  0
TEXT
  8
_0-6_FILE
 62
    7
 10
65.394640500000008
 20
151.87288687854686
 40
2.5
 41
0.7199999999999999
 50
0
  1
名
  0
TEXT
  8
_0-6_FILE
 62
    7
 10
65.394640500000008
 20
155.38717287854695
 40
2.5
 41
0.7199999999999999
 50
0
  1
形
  0
TEXT
  8
_0-6_FILE
 62
    7
 10
189.7107724999999
 20
127.55467887854687
 40
2.5
 41
0.7199999999999999
 50
0
  1
穴φ2.4
  0
TEXT
  8
_0-6_FILE
 62
    7
 10
66.729782499999999
 20
73.568975878546937
 40
3
 41
0.712
 50
0
  1
取付リング
  0
TEXT
  8
_0-6_FILE
 62
    7
 10
115.28932750000001
 20
73.568975878546937
 40
3
 41
0.712
 50
0
  1
内歯座金
  0
TEXT
  8
_0-6_FILE
 62
    7
 10
191.28760249999999
 20
73.568975878546937
 40
3
 41
0.712
 50
0
  1
六角ナット
  0
INSERT
  2
-000-_D2
  8
_0-6_FILE
 10
55.372265500000012
 20
-9.9826391214530474
 41
0.5
 42
0.5
 50
0
  0
INSERT
  2
-001-_D3
  8
_0-6_FILE
 10
55.372265500000012
 20
-9.9826391214530474
 41
0.5
 42
0.5
 50
0
  0
INSERT
  2
-004-_D6
  8
_0-6_FILE
 10
55.372265500000012
 20
-9.9826391214530474
 41
0.5
 42
0.5
 50
0
  0
INSERT
  2
-005-_D7
  8
_0-6_FILE
 10
55.372265500000012
 20
-9.9826391214530474
 41
0.5
 42
0.5
 50
0
  0
INSERT
  2
-006-_D8
  8
_0-6_FILE
 10
55.372265500000012
 20
-9.9826391214530474
 41
0.5
 42
0.5
 50
0
  0
INSERT
  2
-007-_D9
  8
_0-6_FILE
 10
55.372265500000012
 20
-9.9826391214530474
 41
0.5
 42
0.5
 50
0
  0
INSERT
  2
-008-_D10
  8
_0-6_FILE
 10
55.372265500000012
 20
-9.9826391214530474
 41
0.5
 42
0.5
 50
0
  0
INSERT
  2
-010-_D12
  8
_0-6_FILE
 10
55.372265500000012
 20
-9.9826391214530474
 41
0.5
 42
0.5
 50
0
  0
INSERT
  2
-011-_D13
  8
_0-6_FILE
 10
55.372265500000012
 20
-9.9826391214530474
 41
0.5
 42
0.5
 50
0
  0
INSERT
  2
-013-_D15
  8
_0-6_FILE
 10
55.372265500000012
 20
-9.9826391214530474
 41
0.5
 42
0.5
 50
0
  0
INSERT
  2
-014-_D16
  8
_0-6_FILE
 10
55.372265500000012
 20
-9.9826391214530474
 41
0.5
 42
0.5
 50
0
  0
INSERT
  2
-015-_D17
  8
_0-6_FILE
 10
55.372265500000012
 20
-9.9826391214530474
 41
0.5
 42
0.5
 50
0
  0
INSERT
  2
-016-_D18
  8
_0-6_FILE
 10
55.372265500000012
 20
-9.9826391214530474
 41
0.5
 42
0.5
 50
0
  0
INSERT
  2
-017-_D20
  8
_0-6_FILE
 10
55.372265500000012
 20
-9.9826391214530474
 41
0.5
 42
0.5
 50
0
  0
INSERT
  2
-018-_D21
  8
_0-6_FILE
 10
55.372265500000012
 20
-9.9826391214530474
 41
0.5
 42
0.5
 50
0
  0
LINE
  8
_0-4_DIM
  6
CONTINUOUS
 62
    3
 10
177.60535949999979
 20
153.69974487854697
 11
177.60535949999979
 21
150.74438987854685
  0
LINE
  8
_0-4_DIM
  6
CONTINUOUS
 62
    3
 10
176.60535949999979
 20
153.69974487854697
 11
176.60535949999979
 21
150.74439087854697
  0
LINE
  8
_0-4_DIM
  6
CONTINUOUS
 62
    3
 10
176.60535949999979
 20
142.98903487854696
 11
176.60535949999979
 21
138.93077487854686
  0
LINE
  8
_0-4_DIM
  6
CONTINUOUS
 62
    3
 10
177.60535949999979
 20
142.98903487854696
 11
177.60535949999979
 21
139.51921587854696
  0
LINE
  8
_0-4_DIM
  6
CONTINUOUS
 62
    3
 10
181.60535950000002
 20
144.34438987854696
 11
177.60535949999979
 21
144.34438987854696
  0
LINE
  8
_0-4_DIM
  6
CONTINUOUS
 62
    3
 10
181.60535950000002
 20
145.14438987854686
 11
181.60535950000002
 21
144.34438987854696
  0
LINE
  8
_0-4_DIM
  6
CONTINUOUS
 62
    3
 10
177.60535949999979
 20
145.14438987854686
 11
181.60535950000002
 21
145.14438987854686
  0
LINE
  8
_0-4_DIM
  6
CONTINUOUS
 62
    3
 10
176.30473149999992
 20
150.74438987854685
 11
179.80535949999989
 21
150.74438987854685
  0
LINE
  8
_0-4_DIM
  6
CONTINUOUS
 62
    3
 10
176.30535950000001
 20
145.94438987854696
 11
179.80535949999989
 21
145.94438987854696
  0
LINE
  8
_0-4_DIM
  6
CONTINUOUS
 62
    3
 10
227.65535950000003
 20
146.14438987854686
 11
227.45535949999993
 21
146.14438987854686
  0
LINE
  8
_0-4_DIM
  6
CONTINUOUS
 62
    3
 10
226.95535949999999
 20
145.94438987854696
 11
227.2553595
 21
145.94438987854696
  0
LINE
  8
_0-4_DIM
  6
CONTINUOUS
 62
    3
 10
227.7553595
 20
145.94438987854696
 11
226.95535949999999
 21
145.94438987854696
  0
LINE
  8
_0-4_DIM
  6
CONTINUOUS
 62
    3
 10
227.65535950000003
 20
150.54438987854687
 11
227.45535949999993
 21
150.54438987854687
  0
LINE
  8
_0-4_DIM
  6
CONTINUOUS
 62
    3
 10
226.95535949999999
 20
150.74438987854685
 11
227.2553595
 21
150.74438987854685
  0
LINE
  8
_0-4_DIM
  6
CONTINUOUS
 62
    3
 10
227.7553595
 20
150.74438987854685
 11
226.95535949999999
 21
150.74438987854685
  0
LINE
  8
_0-4_DIM
  6
CONTINUOUS
 62
    3
 10
227.65535950000003
 20
145.94438987854696
 11
227.65535950000003
 21
150.74438987854685
  0
LINE
  8
_0-4_DIM
  6
CONTINUOUS
 62
    3
 10
228.45535949999993
 20
145.94438987854696
 11
228.45535949999993
 21
150.74438987854685
  0
LINE
  8
_0-4_DIM
  6
CONTINUOUS
 62
    3
 10
201.7553595
 20
150.74438987854685
 11
201.7553595
 21
145.94438987854696
  0
LINE
  8
_0-4_DIM
  6
CONTINUOUS
 62
    3
 10
202.55535949999984
 20
150.74438987854685
 11
202.55535949999984
 21
145.94438987854696
  0
LINE
  8
_0-4_DIM
  6
CONTINUOUS
 62
    3
 10
203.25535949999983
 20
145.94438987854696
 11
204.25535949999983
 21
145.94438987854696
  0
LINE
  8
_0-4_DIM
  6
CONTINUOUS
 62
    3
 10
202.7553595
 20
146.14438987854686
 11
202.55535949999984
 21
146.14438987854686
  0
LINE
  8
_0-4_DIM
  6
CONTINUOUS
 62
    3
 10
202.95535949999993
 20
145.94438987854696
 11
203.25535949999983
 21
145.94438987854696
  0
LINE
  8
_0-4_DIM
  6
CONTINUOUS
 62
    3
 10
203.25535949999983
 20
145.94438987854696
 11
202.45535949999993
 21
145.94438987854696
  0
LINE
  8
_0-4_DIM
  6
CONTINUOUS
 62
    3
 10
202.7553595
 20
150.54438987854687
 11
202.55535949999984
 21
150.54438987854687
  0
LINE
  8
_0-4_DIM
  6
CONTINUOUS
 62
    3
 10
202.95535949999993
 20
150.74438987854685
 11
203.25535949999983
 21
150.74438987854685
  0
LINE
  8
_0-4_DIM
  6
CONTINUOUS
 62
    3
 10
203.25535949999983
 20
150.74438987854685
 11
202.45535949999993
 21
150.74438987854685
  0
LINE
  8
_0-4_DIM
  6
CONTINUOUS
 62
    3
 10
212.70535949999993
 20
144.34438987854696
 11
217.50535949999983
 21
144.34438987854696
  0
LINE
  8
_0-4_DIM
  6
CONTINUOUS
 62
    3
 10
212.90535950000003
 20
145.34438987854696
 11
212.90535950000003
 21
145.14438987854686
  0
LINE
  8
_0-4_DIM
  6
CONTINUOUS
 62
    3
 10
217.30535949999989
 20
145.34438987854696
 11
217.30535949999989
 21
145.14438987854686
  0
LINE
  8
_0-4_DIM
  6
CONTINUOUS
 62
    3
 10
212.70535949999993
 20
145.14438987854686
 11
217.50535949999983
 21
145.14438987854686
  0
LINE
  8
_0-4_DIM
  6
CONTINUOUS
 62
    3
 10
76.805359500000009
 20
164.44438987854696
 11
76.805359500000009
 21
132.24438987854685
  0
LINE
  8
_0-4_DIM
  6
CONTINUOUS
 62
    3
 10
78.005359500000012
 20
131.44438987854696
 11
105.60535950000002
 21
131.44438987854696
  0
LINE
  8
_0-4_DIM
  6
CONTINUOUS
 62
    3
 10
106.80535950000001
 20
164.44438987854696
 11
106.80535950000001
 21
132.24438987854685
  0
LINE
  8
_0-4_DIM
  6
CONTINUOUS
 62
    3
 10
78.005359500000012
 20
165.24438987854694
 11
105.60535950000002
 21
165.24438987854694
  0
LINE
  8
_0-4_DIM
  6
CONTINUOUS
 62
    3
 10
230.10535949999991
 20
164.34438987854696
 11
230.10535949999991
 21
132.34438987854696
  0
LINE
  8
_0-4_DIM
  6
CONTINUOUS
 62
    3
 10
200.10535950000002
 20
164.34438987854696
 11
200.10535950000002
 21
132.34438987854696
  0
LINE
  8
_0-4_DIM
  6
CONTINUOUS
 62
    3
 10
201.30535949999989
 20
131.44438987854696
 11
228.90535950000003
 21
131.44438987854696
  0
LINE
  8
_0-4_DIM
  6
CONTINUOUS
 62
    3
 10
159.10535949999979
 20
164.24438987854685
 11
159.10535949999979
 21
132.44438987854696
  0
LINE
  8
_0-4_DIM
  6
CONTINUOUS
 62
    3
 10
203.5053595
 20
152.89438987854695
 11
208.25535949999983
 21
152.89438987854695
  0
LINE
  8
_0-4_DIM
  6
CONTINUOUS
 62
    3
 10
203.5053595
 20
143.79438987854695
 11
208.25535949999983
 21
143.79438987854695
  0
LINE
  8
_0-4_DIM
  6
CONTINUOUS
 62
    3
 10
203.5053595
 20
154.69438987854696
 11
208.25535949999983
 21
154.69438987854696
  0
LINE
  8
_0-4_DIM
  6
CONTINUOUS
 62
    3
 10
203.5053595
 20
141.99438987854685
 11
208.25535949999983
 21
141.99438987854685
  0
LINE
  8
_0-4_DIM
  6
CONTINUOUS
 62
    3
 10
211.05535949999989
 20
154.69438987854696
 11
219.15535950000003
 21
154.69438987854696
  0
LINE
  8
_0-4_DIM
  6
CONTINUOUS
 62
    3
 10
208.7553595
 20
158.59438987854696
 11
208.23574450000001
 21
159.49438987854685
  0
LINE
  8
_0-4_DIM
  6
CONTINUOUS
 62
    3
 10
210.55535949999984
 20
155.19438987854676
 11
210.55535949999984
 21
158.59438987854696
  0
LINE
  8
_0-4_DIM
  6
CONTINUOUS
 62
    3
 10
211.05535949999989
 20
152.89438987854695
 11
219.15535950000003
 21
152.89438987854695
  0
LINE
  8
_0-4_DIM
  6
CONTINUOUS
 62
    3
 10
208.7553595
 20
144.29438987854687
 11
208.7553595
 21
152.39438987854686
  0
LINE
  8
_0-4_DIM
  6
CONTINUOUS
 62
    3
 10
211.05535949999989
 20
143.79438987854695
 11
219.15535950000003
 21
143.79438987854695
  0
LINE
  8
_0-4_DIM
  6
CONTINUOUS
 62
    3
 10
210.55535949999984
 20
144.29438987854687
 11
210.55535949999984
 21
152.39438987854686
  0
LINE
  8
_0-4_DIM
  6
CONTINUOUS
 62
    3
 10
211.05535949999989
 20
141.99438987854685
 11
219.15535950000003
 21
141.99438987854685
  0
LINE
  8
_0-4_DIM
  6
CONTINUOUS
 62
    3
 10
221.95535949999999
 20
141.99438987854685
 11
226.70535949999982
 21
141.99438987854685
  0
LINE
  8
_0-4_DIM
  6
CONTINUOUS
 62
    3
 10
219.65535950000003
 20
144.29438987854687
 11
219.65535950000003
 21
152.39438987854686
  0
LINE
  8
_0-4_DIM
  6
CONTINUOUS
 62
    3
 10
221.95535949999999
 20
143.79438987854695
 11
226.70535949999982
 21
143.79438987854695
  0
LINE
  8
_0-4_DIM
  6
CONTINUOUS
 62
    3
 10
221.45535949999982
 20
144.29438987854687
 11
221.45535949999982
 21
152.39438987854686
  0
LINE
  8
_0-4_DIM
  6
CONTINUOUS
 62
    3
 10
221.95535949999999
 20
154.69438987854696
 11
226.70535949999982
 21
154.69438987854696
  0
LINE
  8
_0-4_DIM
  6
CONTINUOUS
 62
    3
 10
221.95535949999999
 20
152.89438987854695
 11
226.70535949999982
 21
152.89438987854695
  0
LINE
  8
_0-4_DIM
  6
CONTINUOUS
 62
    3
 10
208.7553595
 20
158.59438987854696
 11
208.7553595
 21
155.19438987854676
  0
LINE
  8
_0-4_DIM
  6
CONTINUOUS
 62
    3
 10
210.31420549999979
 20
159.49438987854685
 11
209.7945894999998
 21
160.39438987854695
  0
LINE
  8
_0-4_DIM
  6
CONTINUOUS
 62
    3
 10
221.45535949999982
 20
158.59438987854696
 11
221.97497450000003
 21
159.49438987854685
  0
LINE
  8
_0-4_DIM
  6
CONTINUOUS
 62
    3
 10
219.89651350000003
 20
159.49438987854685
 11
220.41612850000001
 21
160.39438987854695
  0
LINE
  8
_0-4_DIM
  6
CONTINUOUS
 62
    3
 10
219.65535950000003
 20
155.19438987854676
 11
219.65535950000003
 21
158.59438987854696
  0
LINE
  8
_0-4_DIM
  6
CONTINUOUS
 62
    3
 10
221.45535949999982
 20
158.59438987854696
 11
221.45535949999982
 21
155.19438987854676
  0
LINE
  8
_0-4_DIM
  6
CONTINUOUS
 62
    3
 10
208.7553595
 20
138.09438987854696
 11
208.23574450000001
 21
137.19438987854696
  0
LINE
  8
_0-4_DIM
  6
CONTINUOUS
 62
    3
 10
210.55535949999984
 20
141.49438987854685
 11
210.55535949999984
 21
138.09438987854696
  0
LINE
  8
_0-4_DIM
  6
CONTINUOUS
 62
    3
 10
210.31420549999979
 20
137.19438987854696
 11
209.7945894999998
 21
136.29438987854687
  0
LINE
  8
_0-4_DIM
  6
CONTINUOUS
 62
    3
 10
208.7553595
 20
138.09438987854696
 11
208.7553595
 21
141.49438987854685
  0
LINE
  8
_0-4_DIM
  6
CONTINUOUS
 62
    3
 10
219.65535950000003
 20
141.49438987854685
 11
219.65535950000003
 21
138.09438987854696
  0
LINE
  8
_0-4_DIM
  6
CONTINUOUS
 62
    3
 10
221.45535949999982
 20
138.09438987854696
 11
221.45535949999982
 21
141.49438987854685
  0
LINE
  8
_0-4_DIM
  6
CONTINUOUS
 62
    3
 10
219.89651350000003
 20
137.19438987854696
 11
220.41612850000001
 21
136.29438987854687
  0
LINE
  8
_0-4_DIM
  6
CONTINUOUS
 62
    3
 10
221.45535949999982
 20
138.09438987854696
 11
221.97497450000003
 21
137.19438987854696
  0
LINE
  8
_0-4_DIM
  6
CONTINUOUS
 62
    3
 10
212.70535949999993
 20
143.79438987854695
 11
212.70535949999993
 21
149.48660987854686
  0
LINE
  8
_0-4_DIM
  6
CONTINUOUS
 62
    3
 10
217.50535949999983
 20
143.79438987854695
 11
217.50535949999983
 21
149.48660987854686
  0
LINE
  8
_0-4_DIM
  6
CONTINUOUS
 62
    3
 10
200.5053595
 20
145.94438987854696
 11
206.99757950000003
 21
145.94438987854696
  0
LINE
  8
_0-4_DIM
  6
CONTINUOUS
 62
    3
 10
200.5053595
 20
150.74438987854685
 11
206.99757950000003
 21
150.74438987854685
  0
LINE
  8
_0-4_DIM
  6
CONTINUOUS
 62
    3
 10
200.10535950000002
 20
134.84438987854696
 11
203.84814349999994
 21
134.84438987854696
  0
LINE
  8
_0-4_DIM
  6
CONTINUOUS
 62
    3
 10
212.70535949999993
 20
135.24438987854685
 11
212.70535949999993
 21
135.89438987854686
  0
LINE
  8
_0-4_DIM
  6
CONTINUOUS
 62
    3
 10
217.50535949999983
 20
135.24438987854685
 11
217.50535949999983
 21
135.89438987854686
  0
LINE
  8
_0-4_DIM
  6
CONTINUOUS
 62
    3
 10
229.70535949999993
 20
145.94438987854696
 11
223.2131384999999
 21
145.94438987854696
  0
LINE
  8
_0-4_DIM
  6
CONTINUOUS
 62
    3
 10
229.70535949999993
 20
150.74438987854685
 11
223.2131384999999
 21
150.74438987854685
  0
LINE
  8
_0-4_DIM
  6
CONTINUOUS
 62
    3
 10
200.10535950000002
 20
161.84438987854696
 11
203.84814349999994
 21
161.84438987854696
  0
LINE
  8
_0-4_DIM
  6
CONTINUOUS
 62
    3
 10
212.6761694999999
 20
135.09438987854696
 11
217.53454950000003
 21
135.09438987854696
  0
LINE
  8
_0-4_DIM
  6
CONTINUOUS
 62
    3
 10
212.70535949999993
 20
135.89438987854686
 11
217.50535949999983
 21
135.89438987854686
  0
LINE
  8
_0-4_DIM
  6
CONTINUOUS
 62
    3
 10
212.90535950000003
 20
136.09438987854696
 11
212.90535950000003
 21
135.89438987854686
  0
LINE
  8
_0-4_DIM
  6
CONTINUOUS
 62
    3
 10
217.30535949999989
 20
136.09438987854696
 11
217.30535949999989
 21
135.89438987854686
  0
LINE
  8
_0-4_DIM
  6
CONTINUOUS
 62
    3
 10
212.70535949999993
 20
136.29438987854687
 11
212.70535949999993
 21
139.79438987854695
  0
LINE
  8
_0-4_DIM
  6
CONTINUOUS
 62
    3
 10
217.50535949999983
 20
136.29438987854687
 11
217.50535949999983
 21
139.79438987854695
  0
LINE
  8
_0-4_DIM
  6
CONTINUOUS
 62
    3
 10
212.70535949999993
 20
144.49438987854685
 11
212.70535949999993
 21
145.14438987854686
  0
LINE
  8
_0-4_DIM
  6
CONTINUOUS
 62
    3
 10
217.50535949999983
 20
144.49438987854685
 11
217.50535949999983
 21
145.14438987854686
  0
LINE
  8
_0-4_DIM
  6
CONTINUOUS
 62
    3
 10
212.6761694999999
 20
161.59438987854696
 11
217.53454950000003
 21
161.59438987854696
  0
LINE
  8
_0-4_DIM
  6
CONTINUOUS
 62
    3
 10
212.70535949999993
 20
160.79438987854695
 11
217.50535949999983
 21
160.79438987854695
  0
LINE
  8
_0-4_DIM
  6
CONTINUOUS
 62
    3
 10
212.70535949999993
 20
160.39438987854695
 11
212.70535949999993
 21
156.89438987854686
  0
LINE
  8
_0-4_DIM
  6
CONTINUOUS
 62
    3
 10
212.70535949999993
 20
161.44438987854676
 11
212.70535949999993
 21
160.79438987854695
  0
LINE
  8
_0-4_DIM
  6
CONTINUOUS
 62
    3
 10
212.90535950000003
 20
160.59438987854696
 11
212.90535950000003
 21
160.79438987854695
  0
LINE
  8
_0-4_DIM
  6
CONTINUOUS
 62
    3
 10
217.50535949999983
 20
160.39438987854695
 11
217.50535949999983
 21
156.89438987854686
  0
LINE
  8
_0-4_DIM
  6
CONTINUOUS
 62
    3
 10
217.30535949999989
 20
160.59438987854696
 11
217.30535949999989
 21
160.79438987854695
  0
LINE
  8
_0-4_DIM
  6
CONTINUOUS
 62
    3
 10
217.50535949999983
 20
161.44438987854676
 11
217.50535949999983
 21
160.79438987854695
  0
LINE
  8
_0-4_DIM
  6
CONTINUOUS
 62
    3
 10
201.75748950000002
 20
157.46386887854695
 11
204.51065649999981
 21
161.39579887854674
  0
LINE
  8
_0-4_DIM
  6
CONTINUOUS
 62
    3
 10
201.10216750000001
 20
157.92273087854696
 11
203.87207749999999
 21
161.87857087854695
  0
LINE
  8
_0-4_DIM
  6
CONTINUOUS
 62
    3
 10
202.0360354999998
 20
157.51298487854694
 11
201.87220449999984
 21
157.62769987854685
  0
LINE
  8
_0-4_DIM
  6
CONTINUOUS
 62
    3
 10
200.73478950000003
 20
158.17997087854695
 11
201.75748950000002
 21
157.46386887854695
  0
LINE
  8
_0-4_DIM
  6
CONTINUOUS
 62
    3
 10
204.55977150000001
 20
161.11725387854676
 11
204.39594149999994
 21
161.23196887854695
  0
LINE
  8
_0-4_DIM
  6
CONTINUOUS
 62
    3
 10
204.90921050000003
 20
161.11672887854695
 11
207.70534950000001
 21
159.15885087854696
  0
LINE
  8
_0-4_DIM
  6
CONTINUOUS
 62
    3
 10
202.08515049999983
 20
157.23443887854685
 11
204.95218249999994
 21
155.22692087854696
  0
LINE
  8
_0-4_DIM
  6
CONTINUOUS
 62
    3
 10
204.51065649999981
 20
161.39579887854674
 11
203.87207749999999
 21
161.87857087854695
  0
LINE
  8
_0-4_DIM
  6
CONTINUOUS
 62
    3
 10
201.10216750000001
 20
138.76604887854674
 11
203.87207749999999
 21
134.81020787854686
  0
LINE
  8
_0-4_DIM
  6
CONTINUOUS
 62
    3
 10
201.75748950000002
 20
139.22490987854675
 11
204.51065649999981
 21
135.29297987854696
  0
LINE
  8
_0-4_DIM
  6
CONTINUOUS
 62
    3
 10
200.73478950000003
 20
138.50880787854686
 11
201.75748950000002
 21
139.22490987854675
  0
LINE
  8
_0-4_DIM
  6
CONTINUOUS
 62
    3
 10
202.0360354999998
 20
139.17579487854675
 11
201.87220449999984
 21
139.06107987854685
  0
LINE
  8
_0-4_DIM
  6
CONTINUOUS
 62
    3
 10
204.51065649999981
 20
135.29297987854696
 11
203.87207749999999
 21
134.81020787854686
  0
LINE
  8
_0-4_DIM
  6
CONTINUOUS
 62
    3
 10
204.55977150000001
 20
135.57152587854677
 11
204.39594149999994
 21
135.45681087854695
  0
LINE
  8
_0-4_DIM
  6
CONTINUOUS
 62
    3
 10
204.90921050000003
 20
135.57205087854686
 11
207.70534950000001
 21
137.52992787854686
  0
LINE
  8
_0-4_DIM
  6
CONTINUOUS
 62
    3
 10
202.08515049999983
 20
139.45434087854696
 11
204.95218249999994
 21
141.46185787854685
  0
LINE
  8
_0-4_DIM
  6
CONTINUOUS
 62
    3
 10
229.10855150000003
 20
157.92273087854696
 11
226.33864149999994
 21
161.87857087854695
  0
LINE
  8
_0-4_DIM
  6
CONTINUOUS
 62
    3
 10
228.45322949999991
 20
157.46386887854695
 11
225.7000625
 21
161.39579887854674
  0
LINE
  8
_0-4_DIM
  6
CONTINUOUS
 62
    3
 10
229.4759284999999
 20
158.17997087854695
 11
228.45322949999991
 21
157.46386887854695
  0
LINE
  8
_0-4_DIM
  6
CONTINUOUS
 62
    3
 10
228.17468350000001
 20
157.51298487854694
 11
228.33851450000003
 21
157.62769987854685
  0
LINE
  8
_0-4_DIM
  6
CONTINUOUS
 62
    3
 10
225.7000625
 20
161.39579887854674
 11
226.33864149999994
 21
161.87857087854695
  0
LINE
  8
_0-4_DIM
  6
CONTINUOUS
 62
    3
 10
225.65094750000003
 20
161.11725387854676
 11
225.81477749999993
 21
161.23196887854695
  0
LINE
  8
_0-4_DIM
  6
CONTINUOUS
 62
    3
 10
225.30150849999978
 20
161.11672887854695
 11
222.50536950000003
 21
159.15885087854696
  0
LINE
  8
_0-4_DIM
  6
CONTINUOUS
 62
    3
 10
228.12556849999999
 20
157.23443887854685
 11
225.25853649999999
 21
155.22692087854696
  0
LINE
  8
_0-4_DIM
  6
CONTINUOUS
 62
    3
 10
228.12556849999999
 20
139.45434087854696
 11
225.25853649999999
 21
141.46185787854685
  0
LINE
  8
_0-4_DIM
  6
CONTINUOUS
 62
    3
 10
228.45322949999991
 20
139.22490987854675
 11
225.7000625
 21
135.29297987854696
  0
LINE
  8
_0-4_DIM
  6
CONTINUOUS
 62
    3
 10
229.10855150000003
 20
138.76604887854674
 11
226.33864149999994
 21
134.81020787854686
  0
LINE
  8
_0-4_DIM
  6
CONTINUOUS
 62
    3
 10
229.4759284999999
 20
138.50880787854686
 11
228.45322949999991
 21
139.22490987854675
  0
LINE
  8
_0-4_DIM
  6
CONTINUOUS
 62
    3
 10
228.17468350000001
 20
139.17579487854675
 11
228.33851450000003
 21
139.06107987854685
  0
LINE
  8
_0-4_DIM
  6
CONTINUOUS
 62
    3
 10
225.30150849999978
 20
135.57205087854686
 11
222.50536950000003
 21
137.52992787854686
  0
LINE
  8
_0-4_DIM
  6
CONTINUOUS
 62
    3
 10
225.7000625
 20
135.29297987854696
 11
226.33864149999994
 21
134.81020787854686
  0
LINE
  8
_0-4_DIM
  6
CONTINUOUS
 62
    3
 10
225.65094750000003
 20
135.57152587854677
 11
225.81477749999993
 21
135.45681087854695
  0
LINE
  8
_0-4_DIM
  6
CONTINUOUS
 62
    3
 10
78.005359500000012
 20
165.24438987854694
 11
78.005359500000012
 21
131.44438987854696
  0
LINE
  8
_0-4_DIM
  6
CONTINUOUS
 62
    3
 10
105.60535950000002
 20
165.24438987854694
 11
105.60535950000002
 21
131.44438987854696
  0
LINE
  8
_0-4_DIM
  6
CONTINUOUS
 62
    3
 10
76.805359500000009
 20
164.44438987854696
 11
78.005359500000012
 21
164.44438987854696
  0
LINE
  8
_0-4_DIM
  6
CONTINUOUS
 62
    3
 10
76.805359500000009
 20
132.24438987854685
 11
78.005359500000012
 21
132.24438987854685
  0
LINE
  8
_0-4_DIM
  6
CONTINUOUS
 62
    3
 10
105.60535950000002
 20
164.44438987854696
 11
106.80535950000001
 21
164.44438987854696
  0
LINE
  8
_0-4_DIM
  6
CONTINUOUS
 62
    3
 10
105.60535950000002
 20
132.24438987854685
 11
106.80535950000001
 21
132.24438987854685
  0
LINE
  8
_0-4_DIM
  6
CONTINUOUS
 62
    3
 10
79.805359500000009
 20
158.34438987854696
 11
103.80535949999999
 21
158.34438987854696
  0
LINE
  8
_0-4_DIM
  6
CONTINUOUS
 62
    3
 10
79.805359500000009
 20
138.34438987854696
 11
103.80535949999999
 21
138.34438987854696
  0
LINE
  8
_0-4_DIM
  6
CONTINUOUS
 62
    3
 10
78.805359500000009
 20
157.34438987854696
 11
78.805359500000009
 21
139.34438987854696
  0
LINE
  8
_0-4_DIM
  6
CONTINUOUS
 62
    3
 10
104.80535950000001
 20
157.34438987854696
 11
104.80535950000001
 21
139.34438987854696
  0
LINE
  8
_0-4_DIM
  6
CONTINUOUS
 62
    3
 10
81.805359500000009
 20
153.84438987854696
 11
81.805359500000009
 21
142.84438987854696
  0
LINE
  8
_0-4_DIM
  6
CONTINUOUS
 62
    3
 10
101.80535949999999
 20
153.84438987854696
 11
101.80535949999999
 21
142.84438987854696
  0
LINE
  8
_0-4_DIM
  6
CONTINUOUS
 62
    3
 10
82.805359500000009
 20
154.84438987854696
 11
85.43668550000001
 21
154.84438987854696
  0
LINE
  8
_0-4_DIM
  6
CONTINUOUS
 62
    3
 10
82.805359500000009
 20
141.84438987854696
 11
85.43668550000001
 21
141.84438987854696
  0
LINE
  8
_0-4_DIM
  6
CONTINUOUS
 62
    3
 10
201.30535949999989
 20
132.24438987854685
 11
203.9933595
 21
132.24438987854685
  0
LINE
  8
_0-4_DIM
  6
CONTINUOUS
 62
    3
 10
201.30535949999989
 20
132.24438987854685
 11
201.30535949999989
 21
131.44438987854696
  0
LINE
  8
_0-4_DIM
  6
CONTINUOUS
 62
    3
 10
228.90535950000003
 20
132.24438987854685
 11
228.90535950000003
 21
131.44438987854696
  0
LINE
  8
_0-4_DIM
  6
CONTINUOUS
 62
    3
 10
79.349521500000009
 20
157.70953287854687
 11
81.805359500000009
 21
154.84438987854696
  0
LINE
  8
_0-4_DIM
  6
CONTINUOUS
 62
    3
 10
104.26119650000001
 20
157.70953287854687
 11
101.80535949999999
 21
154.84438987854696
  0
LINE
  8
_0-4_DIM
  6
CONTINUOUS
 62
    3
 10
79.349521500000009
 20
138.97924587854695
 11
81.805359500000009
 21
141.84438987854696
  0
LINE
  8
_0-4_DIM
  6
CONTINUOUS
 62
    3
 10
104.26119650000001
 20
138.97924587854695
 11
101.80535949999999
 21
141.84438987854696
  0
LINE
  8
_0-4_DIM
  6
CONTINUOUS
 62
    3
 10
160.10535949999979
 20
165.24438987854694
 11
170.7051725
 21
165.24438987854694
  0
LINE
  8
_0-4_DIM
  6
CONTINUOUS
 62
    3
 10
169.80535949999989
 20
161.84438987854696
 11
175.10535950000002
 21
161.84438987854696
  0
LINE
  8
_0-4_DIM
  6
CONTINUOUS
 62
    3
 10
159.12556349999991
 20
164.44438987854696
 11
170.2537375
 21
164.44438987854696
  0
LINE
  8
_0-4_DIM
  6
CONTINUOUS
 62
    3
 10
154.30535950000001
 20
154.33594387854694
 11
154.30535950000001
 21
142.35283487854696
  0
LINE
  8
_0-4_DIM
  6
CONTINUOUS
 62
    3
 10
159.10535949999979
 20
158.34438987854696
 11
154.71618750000002
 21
155.14395187854694
  0
LINE
  8
_0-4_DIM
  6
CONTINUOUS
 62
    3
 10
154.71618750000002
 20
141.54482787854695
 11
159.10535949999979
 21
138.34438987854696
  0
LINE
  8
_0-4_DIM
  6
CONTINUOUS
 62
    3
 10
90.405359500000003
 20
138.84438987854696
 11
93.205359500000014
 21
138.84438987854696
  0
LINE
  8
_0-4_DIM
  6
CONTINUOUS
 62
    3
 10
90.405359500000003
 20
139.84438987854696
 11
93.205359500000014
 21
139.84438987854696
  0
LINE
  8
_0-4_DIM
  6
CONTINUOUS
 62
    3
 10
90.405359500000003
 20
139.84438987854696
 11
90.405359500000003
 21
138.84438987854696
  0
LINE
  8
_0-4_DIM
  6
CONTINUOUS
 62
    3
 10
93.205359500000014
 20
139.84438987854696
 11
93.205359500000014
 21
138.84438987854696
  0
LINE
  8
_0-4_DIM
  6
CONTINUOUS
 62
    3
 10
226.1104335
 20
133.94438987854696
 11
224.10028549999998
 21
133.94438987854696
  0
LINE
  8
_0-4_DIM
  6
CONTINUOUS
 62
    3
 10
214.10028549999993
 20
133.94438987854696
 11
216.1104335
 21
133.94438987854696
  0
LINE
  8
_0-4_DIM
  6
CONTINUOUS
 62
    3
 10
204.10028549999981
 20
133.94438987854696
 11
206.11043349999983
 21
133.94438987854696
  0
LINE
  8
_0-4_DIM
  6
CONTINUOUS
 62
    3
 10
206.21735949999993
 20
132.24438987854685
 11
213.99335949999994
 21
132.24438987854685
  0
LINE
  8
_0-4_DIM
  6
CONTINUOUS
 62
    3
 10
203.80318249999993
 20
133.60279487854686
 11
204.10535949999991
 21
131.44438987854696
  0
LINE
  8
_0-4_DIM
  6
CONTINUOUS
 62
    3
 10
206.10535949999991
 20
131.44438987854696
 11
206.40753649999999
 21
133.60279487854686
  0
LINE
  8
_0-4_DIM
  6
CONTINUOUS
 62
    3
 10
213.80318249999999
 20
133.60279487854686
 11
214.10535950000002
 21
131.44438987854696
  0
LINE
  8
_0-4_DIM
  6
CONTINUOUS
 62
    3
 10
216.21735949999993
 20
132.24438987854685
 11
223.9933595
 21
132.24438987854685
  0
LINE
  8
_0-4_DIM
  6
CONTINUOUS
 62
    3
 10
216.10535949999991
 20
131.44438987854696
 11
216.40753649999994
 21
133.60279487854686
  0
LINE
  8
_0-4_DIM
  6
CONTINUOUS
 62
    3
 10
224.10535950000002
 20
131.44438987854696
 11
223.80318249999982
 21
133.60279487854686
  0
LINE
  8
_0-4_DIM
  6
CONTINUOUS
 62
    3
 10
226.40753649999994
 20
133.60279487854686
 11
226.10535950000002
 21
131.44438987854696
  0
LINE
  8
_0-4_DIM
  6
CONTINUOUS
 62
    3
 10
206.21735949999993
 20
132.24438987854685
 11
213.99335949999994
 21
132.24438987854685
  0
LINE
  8
_0-4_DIM
  6
CONTINUOUS
 62
    3
 10
216.21735949999993
 20
132.24438987854685
 11
223.9933595
 21
132.24438987854685
  0
LINE
  8
_0-4_DIM
  6
CONTINUOUS
 62
    3
 10
226.21735949999982
 20
132.24438987854685
 11
228.90535950000003
 21
132.24438987854685
  0
LINE
  8
_0-4_DIM
  6
CONTINUOUS
 62
    3
 10
169.80535949999989
 20
134.84438987854696
 11
175.10535950000002
 21
134.84438987854696
  0
LINE
  8
_0-4_DIM
  6
CONTINUOUS
 62
    3
 10
203.91729050000004
 20
161.84438987854696
 11
226.29342849999983
 21
161.84438987854696
  0
LINE
  8
_0-4_DIM
  6
CONTINUOUS
 62
    3
 10
226.36257549999999
 20
161.84438987854696
 11
230.10535949999991
 21
161.84438987854696
  0
LINE
  8
_0-4_DIM
  6
CONTINUOUS
 62
    3
 10
203.91729050000004
 20
134.84438987854696
 11
226.29342849999983
 21
134.84438987854696
  0
LINE
  8
_0-4_DIM
  6
CONTINUOUS
 62
    3
 10
226.36257549999999
 20
134.84438987854696
 11
230.10535949999991
 21
134.84438987854696
  0
LINE
  8
_0-4_DIM
  6
CONTINUOUS
 62
    3
 10
169.80535949999989
 20
161.84438987854696
 11
170.5815715
 21
163.69200187854676
  0
LINE
  8
_0-4_DIM
  6
CONTINUOUS
 62
    3
 10
170.32991349999992
 20
163.09298187854685
 11
170.62251549999979
 21
163.78946087854695
  0
LINE
  8
_0-4_DIM
  6
CONTINUOUS
 62
    3
 10
171.06746850000002
 20
162.78312187854695
 11
170.32991349999992
 21
163.09298187854685
  0
LINE
  8
_0-4_DIM
  6
CONTINUOUS
 62
    3
 10
171.06746850000002
 20
162.78312187854695
 11
171.53492249999999
 21
163.89579787854686
  0
LINE
  8
_0-4_DIM
  6
CONTINUOUS
 62
    3
 10
159.12556349999991
 20
132.24438987854685
 11
170.2537375
 21
132.24438987854685
  0
LINE
  8
_0-4_DIM
  6
CONTINUOUS
 62
    3
 10
160.10535949999979
 20
131.44438987854696
 11
170.7051725
 21
131.44438987854696
  0
LINE
  8
_0-4_DIM
  6
CONTINUOUS
 62
    3
 10
169.80535949999989
 20
134.84438987854696
 11
170.5815715
 21
132.99677787854685
  0
LINE
  8
_0-4_DIM
  6
CONTINUOUS
 62
    3
 10
170.32991349999992
 20
133.59579887854676
 11
170.62251549999979
 21
132.89931987854686
  0
LINE
  8
_0-4_DIM
  6
CONTINUOUS
 62
    3
 10
171.06746850000002
 20
133.90565787854686
 11
171.53492249999999
 21
132.79298087854696
  0
LINE
  8
_0-4_DIM
  6
CONTINUOUS
 62
    3
 10
171.06746850000002
 20
133.90565787854686
 11
170.32991349999992
 21
133.59579887854676
  0
LINE
  8
_0-4_DIM
  6
CONTINUOUS
 62
    3
 10
200.10535950000002
 20
132.34438987854696
 11
203.97935949999993
 21
132.34438987854696
  0
LINE
  8
_0-4_DIM
  6
CONTINUOUS
 62
    3
 10
206.23135949999994
 20
132.34438987854696
 11
213.97935949999993
 21
132.34438987854696
  0
LINE
  8
_0-4_DIM
  6
CONTINUOUS
 62
    3
 10
216.2313595
 20
132.34438987854696
 11
223.97935949999999
 21
132.34438987854696
  0
LINE
  8
_0-4_DIM
  6
CONTINUOUS
 62
    3
 10
226.2313595
 20
132.34438987854696
 11
230.10535949999991
 21
132.34438987854696
  0
LINE
  8
_0-4_DIM
  6
CONTINUOUS
 62
    3
 10
200.10535950000002
 20
164.34438987854696
 11
203.97935949999993
 21
164.34438987854696
  0
LINE
  8
_0-4_DIM
  6
CONTINUOUS
 62
    3
 10
201.30535949999989
 20
164.44438987854696
 11
203.9933595
 21
164.44438987854696
  0
LINE
  8
_0-4_DIM
  6
CONTINUOUS
 62
    3
 10
201.30535949999989
 20
165.24438987854694
 11
228.90535950000003
 21
165.24438987854694
  0
LINE
  8
_0-4_DIM
  6
CONTINUOUS
 62
    3
 10
201.30535949999989
 20
164.44438987854696
 11
201.30535949999989
 21
165.24438987854694
  0
LINE
  8
_0-4_DIM
  6
CONTINUOUS
 62
    3
 10
226.1104335
 20
162.74438987854685
 11
224.10028549999998
 21
162.74438987854685
  0
LINE
  8
_0-4_DIM
  6
CONTINUOUS
 62
    3
 10
214.10028549999993
 20
162.74438987854685
 11
216.1104335
 21
162.74438987854685
  0
LINE
  8
_0-4_DIM
  6
CONTINUOUS
 62
    3
 10
206.23135949999994
 20
164.34438987854696
 11
213.97935949999993
 21
164.34438987854696
  0
LINE
  8
_0-4_DIM
  6
CONTINUOUS
 62
    3
 10
206.21735949999993
 20
164.44438987854696
 11
213.99335949999994
 21
164.44438987854696
  0
LINE
  8
_0-4_DIM
  6
CONTINUOUS
 62
    3
 10
206.21735949999993
 20
164.44438987854696
 11
213.99335949999994
 21
164.44438987854696
  0
LINE
  8
_0-4_DIM
  6
CONTINUOUS
 62
    3
 10
204.10028549999981
 20
162.74438987854685
 11
206.11043349999983
 21
162.74438987854685
  0
LINE
  8
_0-4_DIM
  6
CONTINUOUS
 62
    3
 10
203.80318249999993
 20
163.08598387854695
 11
204.10535949999991
 21
165.24438987854694
  0
LINE
  8
_0-4_DIM
  6
CONTINUOUS
 62
    3
 10
206.10535949999991
 20
165.24438987854694
 11
206.40753649999999
 21
163.08598387854695
  0
LINE
  8
_0-4_DIM
  6
CONTINUOUS
 62
    3
 10
213.80318249999999
 20
163.08598387854695
 11
214.10535950000002
 21
165.24438987854694
  0
LINE
  8
_0-4_DIM
  6
CONTINUOUS
 62
    3
 10
216.2313595
 20
164.34438987854696
 11
223.97935949999999
 21
164.34438987854696
  0
LINE
  8
_0-4_DIM
  6
CONTINUOUS
 62
    3
 10
216.21735949999993
 20
164.44438987854696
 11
223.9933595
 21
164.44438987854696
  0
LINE
  8
_0-4_DIM
  6
CONTINUOUS
 62
    3
 10
216.21735949999993
 20
164.44438987854696
 11
223.9933595
 21
164.44438987854696
  0
LINE
  8
_0-4_DIM
  6
CONTINUOUS
 62
    3
 10
216.10535949999991
 20
165.24438987854694
 11
216.40753649999994
 21
163.08598387854695
  0
LINE
  8
_0-4_DIM
  6
CONTINUOUS
 62
    3
 10
224.10535950000002
 20
165.24438987854694
 11
223.80318249999982
 21
163.08598387854695
  0
LINE
  8
_0-4_DIM
  6
CONTINUOUS
 62
    3
 10
226.2313595
 20
164.34438987854696
 11
230.10535949999991
 21
164.34438987854696
  0
LINE
  8
_0-4_DIM
  6
CONTINUOUS
 62
    3
 10
226.21735949999982
 20
164.44438987854696
 11
228.90535950000003
 21
164.44438987854696
  0
LINE
  8
_0-4_DIM
  6
CONTINUOUS
 62
    3
 10
228.90535950000003
 20
164.44438987854696
 11
228.90535950000003
 21
165.24438987854694
  0
LINE
  8
_0-4_DIM
  6
CONTINUOUS
 62
    3
 10
226.40753649999994
 20
163.08598387854695
 11
226.10535950000002
 21
165.24438987854694
  0
LINE
  8
_0-4_DIM
  6
CONTINUOUS
 62
    3
 10
154.30535950000001
 20
142.94438987854696
 11
152.30535950000001
 21
142.94438987854696
  0
LINE
  8
_0-4_DIM
  6
CONTINUOUS
 62
    3
 10
154.30535950000001
 20
142.34438987854696
 11
152.30535950000001
 21
142.34438987854696
  0
LINE
  8
_0-4_DIM
  6
CONTINUOUS
 62
    3
 10
149.28945449999998
 20
154.34438987854696
 11
149.43354750000003
 21
154.34438987854696
  0
LINE
  8
_0-4_DIM
  6
CONTINUOUS
 62
    3
 10
150.16126550000001
 20
154.34438987854696
 11
150.30623750000001
 21
154.34438987854696
  0
LINE
  8
_0-4_DIM
  6
CONTINUOUS
 62
    3
 10
152.30535950000001
 20
154.34438987854696
 11
154.30535950000001
 21
154.34438987854696
  0
LINE
  8
_0-4_DIM
  6
CONTINUOUS
 62
    3
 10
152.30535950000001
 20
153.74438987854694
 11
154.30535950000001
 21
153.74438987854694
  0
LINE
  8
_0-4_DIM
  6
CONTINUOUS
 62
    3
 10
150.2154385
 20
153.74438987854694
 11
150.30535950000001
 21
153.74438987854694
  0
LINE
  8
_0-4_DIM
  6
CONTINUOUS
 62
    3
 10
149.28945449999998
 20
153.74438987854694
 11
149.37937449999998
 21
153.74438987854694
  0
LINE
  8
_0-4_DIM
  6
CONTINUOUS
 62
    3
 10
149.37937449999998
 20
142.94438987854696
 11
149.28945449999998
 21
142.94438987854696
  0
LINE
  8
_0-4_DIM
  6
CONTINUOUS
 62
    3
 10
150.30535950000001
 20
142.94438987854696
 11
150.2154385
 21
142.94438987854696
  0
LINE
  8
_0-4_DIM
  6
CONTINUOUS
 62
    3
 10
149.43354750000003
 20
142.34438987854696
 11
149.28945449999998
 21
142.34438987854696
  0
LINE
  8
_0-4_DIM
  6
CONTINUOUS
 62
    3
 10
150.30623750000001
 20
142.34438987854696
 11
150.16126550000001
 21
142.34438987854696
  0
LINE
  8
_0-4_DIM
  6
CONTINUOUS
 62
    3
 10
150.04740650000002
 20
148.34438987854696
 11
150.04740650000002
 21
140.39438987854695
  0
LINE
  8
_0-4_DIM
  6
CONTINUOUS
 62
    3
 10
149.54740650000002
 20
148.39783087854676
 11
149.54740650000002
 21
140.39438987854695
  0
LINE
  8
_0-4_DIM
  6
CONTINUOUS
 62
    3
 10
150.29509050000001
 20
145.80529287854696
 11
150.04740650000002
 21
144.90602187854697
  0
LINE
  8
_0-4_DIM
  6
CONTINUOUS
 62
    3
 10
149.29972249999997
 20
145.80529287854696
 11
149.54740650000002
 21
145.87351187854696
  0
LINE
  8
_0-4_DIM
  6
CONTINUOUS
 62
    3
 10
149.29972249999997
 20
144.07434987854685
 11
149.54740650000002
 21
144.97362087854685
  0
LINE
  8
_0-4_DIM
  6
CONTINUOUS
 62
    3
 10
150.29509050000001
 20
144.07434987854685
 11
150.05075350000001
 21
144.00705287854686
  0
LINE
  8
_0-4_DIM
  6
CONTINUOUS
 62
    3
 10
149.30778450000003
 20
143.12146787854695
 11
149.54740650000002
 21
143.21834487854696
  0
LINE
  8
_0-4_DIM
  6
CONTINUOUS
 62
    3
 10
150.28702950000002
 20
143.12146787854695
 11
150.04740650000002
 21
142.52876787854686
  0
LINE
  8
_0-4_DIM
  6
CONTINUOUS
 62
    3
 10
150.28702950000002
 20
142.03331787854685
 11
150.04883649999999
 21
141.93701887854695
  0
LINE
  8
_0-4_DIM
  6
CONTINUOUS
 62
    3
 10
149.30778450000003
 20
142.03331787854685
 11
149.54740650000002
 21
142.62601687854686
  0
LINE
  8
_0-4_DIM
  6
CONTINUOUS
 62
    3
 10
150.28702950000002
 20
142.03331787854685
 11
150.04740650000002
 21
141.53525187854686
  0
LINE
  8
_0-4_DIM
  6
CONTINUOUS
 62
    3
 10
150.04946950000001
 20
142.62091487854696
 11
150.28702950000002
 21
142.03331787854685
  0
LINE
  8
_0-4_DIM
  6
CONTINUOUS
 62
    3
 10
149.54740650000002
 20
142.52876787854686
 11
149.30778450000003
 21
143.12146787854695
  0
LINE
  8
_0-4_DIM
  6
CONTINUOUS
 62
    3
 10
150.04740650000002
 20
144.97362087854685
 11
150.29509050000001
 21
144.07434987854685
  0
LINE
  8
_0-4_DIM
  6
CONTINUOUS
 62
    3
 10
149.54740650000002
 20
144.90602187854697
 11
149.29972249999997
 21
145.80529287854696
  0
LINE
  8
_0-4_DIM
  6
CONTINUOUS
 62
    3
 10
149.54740650000002
 20
141.53525187854686
 11
149.30778450000003
 21
142.03331787854685
  0
LINE
  8
_0-4_DIM
  6
CONTINUOUS
 62
    3
 10
150.04740650000002
 20
143.21834487854696
 11
150.28702950000002
 21
143.12146787854695
  0
LINE
  8
_0-4_DIM
  6
CONTINUOUS
 62
    3
 10
149.54740650000002
 20
141.93644087854696
 11
149.30778450000003
 21
142.03331787854685
  0
LINE
  8
_0-4_DIM
  6
CONTINUOUS
 62
    3
 10
150.04740650000002
 20
145.87351187854696
 11
150.29509050000001
 21
145.80529287854696
  0
LINE
  8
_0-4_DIM
  6
CONTINUOUS
 62
    3
 10
149.54740650000002
 20
144.00613087854686
 11
149.29972249999997
 21
144.07434987854685
  0
LINE
  8
_0-4_DIM
  6
CONTINUOUS
 62
    3
 10
150.04740650000002
 20
140.39438987854695
 11
149.54740650000002
 21
140.39438987854695
  0
LINE
  8
_0-4_DIM
  6
CONTINUOUS
 62
    3
 10
149.54740650000002
 20
147.25655587854695
 11
149.28945449999998
 21
147.31963387854685
  0
LINE
  8
_0-4_DIM
  6
CONTINUOUS
 62
    3
 10
149.54740650000002
 20
148.31426787854696
 11
149.28945449999998
 21
149.36914587854696
  0
LINE
  8
_0-4_DIM
  6
CONTINUOUS
 62
    3
 10
150.04740650000002
 20
156.29438987854695
 11
150.04740650000002
 21
148.34438987854696
  0
LINE
  8
_0-4_DIM
  6
CONTINUOUS
 62
    3
 10
150.04740650000002
 20
151.78275887854696
 11
150.29509050000001
 21
150.88348787854676
  0
LINE
  8
_0-4_DIM
  6
CONTINUOUS
 62
    3
 10
149.54740650000002
 20
150.81526887854676
 11
149.29972249999997
 21
150.88348787854676
  0
LINE
  8
_0-4_DIM
  6
CONTINUOUS
 62
    3
 10
149.54740650000002
 20
151.71515987854696
 11
149.29972249999997
 21
152.61443087854695
  0
LINE
  8
_0-4_DIM
  6
CONTINUOUS
 62
    3
 10
150.05075350000001
 20
152.68172787854687
 11
150.29509050000001
 21
152.61443087854695
  0
LINE
  8
_0-4_DIM
  6
CONTINUOUS
 62
    3
 10
149.54740650000002
 20
153.47043587854697
 11
149.30778450000003
 21
153.56731287854686
  0
LINE
  8
_0-4_DIM
  6
CONTINUOUS
 62
    3
 10
150.04740650000002
 20
154.16001187854695
 11
150.28702950000002
 21
153.56731287854686
  0
LINE
  8
_0-4_DIM
  6
CONTINUOUS
 62
    3
 10
150.04883649999999
 20
154.75176187854686
 11
150.28702950000002
 21
154.65546287854676
  0
LINE
  8
_0-4_DIM
  6
CONTINUOUS
 62
    3
 10
149.54740650000002
 20
154.06276287854686
 11
149.30778450000003
 21
154.65546287854676
  0
LINE
  8
_0-4_DIM
  6
CONTINUOUS
 62
    3
 10
149.54740650000002
 20
156.29438987854695
 11
149.54740650000002
 21
148.29094987854685
  0
LINE
  8
_0-4_DIM
  6
CONTINUOUS
 62
    3
 10
150.04740650000002
 20
155.15352787854695
 11
150.28702950000002
 21
154.65546287854676
  0
LINE
  8
_0-4_DIM
  6
CONTINUOUS
 62
    3
 10
150.28702950000002
 20
154.65546287854676
 11
150.04946950000001
 21
154.06786587854685
  0
LINE
  8
_0-4_DIM
  6
CONTINUOUS
 62
    3
 10
149.30778450000003
 20
153.56731287854686
 11
149.54740650000002
 21
154.16001187854695
  0
LINE
  8
_0-4_DIM
  6
CONTINUOUS
 62
    3
 10
150.29509050000001
 20
152.61443087854695
 11
150.04740650000002
 21
151.71515987854696
  0
LINE
  8
_0-4_DIM
  6
CONTINUOUS
 62
    3
 10
149.29972249999997
 20
150.88348787854676
 11
149.54740650000002
 21
151.78275887854696
  0
LINE
  8
_0-4_DIM
  6
CONTINUOUS
 62
    3
 10
149.28945449999998
 20
147.31963387854685
 11
149.54740650000002
 21
148.37451287854697
  0
LINE
  8
_0-4_DIM
  6
CONTINUOUS
 62
    3
 10
149.30778450000003
 20
154.65546287854676
 11
149.54740650000002
 21
155.15352787854695
  0
LINE
  8
_0-4_DIM
  6
CONTINUOUS
 62
    3
 10
150.28702950000002
 20
153.56731287854686
 11
150.04740650000002
 21
153.47043587854697
  0
LINE
  8
_0-4_DIM
  6
CONTINUOUS
 62
    3
 10
149.30778450000003
 20
154.65546287854676
 11
149.54740650000002
 21
154.75233987854676
  0
LINE
  8
_0-4_DIM
  6
CONTINUOUS
 62
    3
 10
150.29509050000001
 20
150.88348787854676
 11
150.04740650000002
 21
150.81526887854676
  0
LINE
  8
_0-4_DIM
  6
CONTINUOUS
 62
    3
 10
149.29972249999997
 20
152.61443087854695
 11
149.54740650000002
 21
152.68264987854695
  0
LINE
  8
_0-4_DIM
  6
CONTINUOUS
 62
    3
 10
149.28945449999998
 20
149.36914587854696
 11
149.54740650000002
 21
149.43222387854695
  0
LINE
  8
_0-4_DIM
  6
CONTINUOUS
 62
    3
 10
149.54740650000002
 20
156.29438987854695
 11
150.04740650000002
 21
156.29438987854695
  0
LINE
  8
_0-4_DIM
  6
CONTINUOUS
 62
    3
 10
150.93057350000001
 20
140.26149487854696
 11
151.68014450000004
 21
140.26149487854696
  0
LINE
  8
_0-4_DIM
  6
CONTINUOUS
 62
    3
 10
150.93057350000001
 20
144.30294287854676
 11
151.68014450000004
 21
144.30294287854676
  0
LINE
  8
_0-4_DIM
  6
CONTINUOUS
 62
    3
 10
150.93057350000001
 20
152.38583787854697
 11
151.68014450000004
 21
152.38583787854697
  0
LINE
  8
_0-4_DIM
  6
CONTINUOUS
 62
    3
 10
150.93057350000001
 20
156.42728587854685
 11
151.68014450000004
 21
156.42728587854685
  0
LINE
  8
_0-4_DIM
  6
CONTINUOUS
 62
    3
 10
151.68014450000004
 20
156.42728587854685
 11
152.30535950000001
 21
155.34438287854695
  0
LINE
  8
_0-4_DIM
  6
CONTINUOUS
 62
    3
 10
152.30535950000001
 20
141.34439687854686
 11
151.68014450000004
 21
140.26149487854696
  0
LINE
  8
_0-4_DIM
  6
CONTINUOUS
 62
    3
 10
150.30535950000001
 20
155.34438287854695
 11
150.93057350000001
 21
156.42728587854685
  0
LINE
  8
_0-4_DIM
  6
CONTINUOUS
 62
    3
 10
150.93057350000001
 20
140.26149487854696
 11
150.30535950000001
 21
141.34439687854686
  0
LINE
  8
_0-4_DIM
  6
CONTINUOUS
 62
    3
 10
148.28945450000001
 20
139.84438987854696
 11
149.28945449999998
 21
139.84438987854696
  0
LINE
  8
_0-4_DIM
  6
CONTINUOUS
 62
    3
 10
149.28945449999998
 20
157.44438987854696
 11
148.28945450000001
 21
157.44438987854696
  0
LINE
  8
_0-4_DIM
  6
CONTINUOUS
 62
    3
 10
148.28945450000001
 20
139.84438987854696
 11
146.48945450000002
 21
139.84438987854696
  0
LINE
  8
_0-4_DIM
  6
CONTINUOUS
 62
    3
 10
146.48945450000002
 20
139.84438987854696
 11
146.48945450000002
 21
138.84438987854696
  0
LINE
  8
_0-4_DIM
  6
CONTINUOUS
 62
    3
 10
146.48945450000002
 20
138.84438987854696
 11
148.28945450000001
 21
138.84438987854696
  0
LINE
  8
_0-4_DIM
  6
CONTINUOUS
 62
    3
 10
150.04740650000002
 20
148.31426787854696
 11
150.30535950000001
 21
149.36914587854696
  0
LINE
  8
_0-4_DIM
  6
CONTINUOUS
 62
    3
 10
150.30535950000001
 20
149.36914587854696
 11
150.04740650000002
 21
149.43222387854695
  0
LINE
  8
_0-4_DIM
  6
CONTINUOUS
 62
    3
 10
150.30535950000001
 20
147.31963387854685
 11
150.04740650000002
 21
148.37451287854697
  0
LINE
  8
_0-4_DIM
  6
CONTINUOUS
 62
    3
 10
150.04740650000002
 20
147.25655587854695
 11
150.30535950000001
 21
147.31963387854685
  0
LINE
  8
_0-4_DIM
  6
CONTINUOUS
 62
    3
 10
154.30535950000001
 20
142.34438987854696
 11
154.30535950000001
 21
154.34438987854696
  0
LINE
  8
_0-4_DIM
  6
CONTINUOUS
 62
    3
 10
152.30535950000001
 20
141.34439687854686
 11
152.30535950000001
 21
155.34438287854695
  0
LINE
  8
_0-4_DIM
  6
CONTINUOUS
 62
    3
 10
148.28945450000001
 20
157.44438987854696
 11
148.28945450000001
 21
139.84438987854696
  0
LINE
  8
_0-4_DIM
  6
CONTINUOUS
 62
    3
 10
149.28945449999998
 20
139.84438987854696
 11
149.28945449999998
 21
157.44438987854696
  0
LINE
  8
_0-4_DIM
  6
CONTINUOUS
 62
    3
 10
150.30535950000001
 20
141.34439687854686
 11
150.30535950000001
 21
155.34438287854695
  0
LINE
  8
_0-4_DIM
  6
CONTINUOUS
 62
    3
 10
176.10535950000002
 20
150.54438987854687
 11
175.10535950000002
 21
150.54438987854687
  0
LINE
  8
_0-4_DIM
  6
CONTINUOUS
 62
    3
 10
175.10535950000002
 20
145.94438987854696
 11
176.60535949999979
 21
145.94438987854696
  0
LINE
  8
_0-4_DIM
  6
CONTINUOUS
 62
    3
 10
175.10535950000002
 20
150.74438987854685
 11
176.60535949999979
 21
150.74439087854697
  0
LINE
  8
_0-4_DIM
  6
CONTINUOUS
 62
    3
 10
181.60535950000002
 20
144.34439087854696
 11
181.60535950000002
 21
145.14438987854686
  0
LINE
  8
_0-4_DIM
  6
CONTINUOUS
 62
    3
 10
177.60535949999979
 20
144.34439087854696
 11
177.60535949999979
 21
142.98903487854696
  0
LINE
  8
_0-4_DIM
  6
CONTINUOUS
 62
    3
 10
177.60535949999979
 20
144.34439087854696
 11
181.60535950000002
 21
144.34439087854696
  0
LINE
  8
_0-4_DIM
  6
CONTINUOUS
 62
    3
 10
177.60535949999979
 20
145.94438987854696
 11
177.60535949999979
 21
145.14438987854686
  0
LINE
  8
_0-4_DIM
  6
CONTINUOUS
 62
    3
 10
177.60535949999979
 20
139.51921587854696
 11
176.60535949999979
 21
139.51921587854696
  0
LINE
  8
_0-4_DIM
  6
CONTINUOUS
 62
    3
 10
177.60535949999979
 20
152.89438987854695
 11
176.60535949999979
 21
152.89438987854695
  0
LINE
  8
_0-4_DIM
  6
CONTINUOUS
 62
    3
 10
177.60535949999979
 20
154.69438987854696
 11
176.60535949999979
 21
154.69438987854696
  0
LINE
  8
_0-4_DIM
  6
CONTINUOUS
 62
    3
 10
178.10535949999979
 20
161.55008387854676
 11
179.10535949999979
 21
161.55008387854676
  0
LINE
  8
_0-4_DIM
  6
CONTINUOUS
 62
    3
 10
179.10535949999979
 20
157.62842487854695
 11
176.60535949999979
 21
157.62842487854695
  0
LINE
  8
_0-4_DIM
  6
CONTINUOUS
 62
    3
 10
179.10535949999979
 20
157.16956387854694
 11
176.60535949999979
 21
157.16956387854694
  0
LINE
  8
_0-4_DIM
  6
CONTINUOUS
 62
    3
 10
176.60535949999979
 20
157.75800487854696
 11
176.60535949999979
 21
153.69974487854697
  0
LINE
  8
_0-4_DIM
  6
CONTINUOUS
 62
    3
 10
175.10535950000002
 20
161.84438987854696
 11
175.10535950000002
 21
157.95800487854686
  0
LINE
  8
_0-4_DIM
  6
CONTINUOUS
 62
    3
 10
176.30535950000001
 20
161.55008387854676
 11
178.10535949999979
 21
161.55008387854676
  0
LINE
  8
_0-4_DIM
  6
CONTINUOUS
 62
    3
 10
176.10535950000002
 20
161.42032587854695
 11
175.10535950000002
 21
161.42032587854695
  0
LINE
  8
_0-4_DIM
  6
CONTINUOUS
 62
    3
 10
176.40535949999992
 20
157.95800487854686
 11
175.10535950000002
 21
157.95800487854686
  0
LINE
  8
_0-4_DIM
  6
CONTINUOUS
 62
    3
 10
177.60535949999979
 20
157.16956387854694
 11
177.60535949999979
 21
153.69974487854697
  0
LINE
  8
_0-4_DIM
  6
CONTINUOUS
 62
    3
 10
181.60535950000002
 20
159.59438987854696
 11
181.60535950000002
 21
159.12525787854696
  0
LINE
  8
_0-4_DIM
  6
CONTINUOUS
 62
    3
 10
177.60535949999979
 20
143.79438987854695
 11
176.60535949999979
 21
143.79438987854695
  0
LINE
  8
_0-4_DIM
  6
CONTINUOUS
 62
    3
 10
177.60535949999979
 20
141.99438987854685
 11
176.60535949999979
 21
141.99438987854685
  0
LINE
  8
_0-4_DIM
  6
CONTINUOUS
 62
    3
 10
176.10535950000002
 20
135.26845287854675
 11
175.10535950000002
 21
135.26845287854675
  0
LINE
  8
_0-4_DIM
  6
CONTINUOUS
 62
    3
 10
176.40535949999992
 20
138.73077487854695
 11
175.10535950000002
 21
138.73077487854695
  0
LINE
  8
_0-4_DIM
  6
CONTINUOUS
 62
    3
 10
175.10535950000002
 20
134.84438987854696
 11
175.10535950000002
 21
138.73077487854695
  0
LINE
  8
_0-4_DIM
  6
CONTINUOUS
 62
    3
 10
179.10535949999979
 20
139.06035487854695
 11
176.60535949999979
 21
139.06035487854695
  0
LINE
  8
_0-4_DIM
  6
CONTINUOUS
 62
    3
 10
179.10535949999979
 20
139.51921587854696
 11
177.60535949999979
 21
139.51921587854696
  0
LINE
  8
_0-4_DIM
  6
CONTINUOUS
 62
    3
 10
178.10535949999979
 20
135.13869487854686
 11
179.10535949999979
 21
135.13869487854686
  0
LINE
  8
_0-4_DIM
  6
CONTINUOUS
 62
    3
 10
176.30535950000001
 20
135.13869487854686
 11
178.10535949999979
 21
135.13869487854686
  0
LINE
  8
_0-4_DIM
  6
CONTINUOUS
 62
    3
 10
181.60535950000002
 20
137.09438987854696
 11
181.60535950000002
 21
137.56352187854696
  0
LINE
  8
_0-4_DIM
  6
CONTINUOUS
 62
    3
 10
175.10535950000002
 20
150.74438987854685
 11
175.10535950000002
 21
145.94438987854696
  0
LINE
  8
_0-4_DIM
  6
CONTINUOUS
 62
    3
 10
176.60535949999979
 20
145.94438987854696
 11
176.60535949999979
 21
142.98903487854696
  0
LINE
  8
_0-4_DIM
  6
CONTINUOUS
 62
    3
 10
176.30535950000001
 20
145.94438987854696
 11
179.80535949999989
 21
145.94438987854696
  0
LINE
  8
_0-4_DIM
  6
CONTINUOUS
 62
    3
 10
176.30473149999992
 20
150.74438987854685
 11
179.80535949999989
 21
150.74438987854685
  0
LINE
  8
_0-4_DIM
  6
CONTINUOUS
 62
    3
 10
177.60535949999979
 20
145.14438987854686
 11
177.60535949999979
 21
144.34439087854696
  0
LINE
  8
_0-4_DIM
  6
CONTINUOUS
 62
    3
 10
181.60535950000002
 20
144.36232387854676
 11
181.60535950000002
 21
145.14438987854686
  0
LINE
  8
_0-4_DIM
  6
CONTINUOUS
 62
    3
 10
181.60535950000002
 20
145.14438987854686
 11
177.60535949999979
 21
145.14438987854686
  0
LINE
  8
_0-4_DIM
  6
CONTINUOUS
 62
    3
 10
176.10535950000002
 20
146.14438987854686
 11
175.10535950000002
 21
146.14438987854686
  0
LINE
  8
_0-4_DIM
  6
CONTINUOUS
 62
    3
 10
202.5536224999999
 20
36.560398878546948
 11
202.5536224999999
 21
35.810826878546948
  0
LINE
  8
_0-4_DIM
  6
CONTINUOUS
 62
    3
 10
206.59506950000002
 20
36.560398878546948
 11
206.59506950000002
 21
35.810826878546948
  0
LINE
  8
_0-4_DIM
  6
CONTINUOUS
 62
    3
 10
214.6779654999998
 20
36.560398878546948
 11
214.6779654999998
 21
35.810826878546948
  0
LINE
  8
_0-4_DIM
  6
CONTINUOUS
 62
    3
 10
218.71941350000003
 20
36.560398878546948
 11
218.71941350000003
 21
35.810826878546948
  0
LINE
  8
_0-4_DIM
  6
CONTINUOUS
 62
    3
 10
218.71941350000003
 20
35.810826878546948
 11
217.63651049999982
 21
35.185612878546948
  0
LINE
  8
_0-4_DIM
  6
CONTINUOUS
 62
    3
 10
217.63651049999982
 20
35.185612878546948
 11
203.63652450000001
 21
35.185612878546948
  0
LINE
  8
_0-4_DIM
  6
CONTINUOUS
 62
    3
 10
203.63652450000001
 20
35.185612878546948
 11
202.5536224999999
 21
35.810826878546948
  0
LINE
  8
_0-4_DIM
  6
CONTINUOUS
 62
    3
 10
217.63651049999982
 20
37.185612878546948
 11
218.71941350000003
 21
36.560398878546948
  0
LINE
  8
_0-4_DIM
  6
CONTINUOUS
 62
    3
 10
203.63652450000001
 20
37.185612878546948
 11
217.63651049999982
 21
37.185612878546948
  0
LINE
  8
_0-4_DIM
  6
CONTINUOUS
 62
    3
 10
202.5536224999999
 20
36.560398878546948
 11
203.63652450000001
 21
37.185612878546948
  0
LINE
  8
_0-4_DIM
  6
CONTINUOUS
 62
    3
 10
214.67796949999979
 20
59.264219878546953
 11
218.71942150000001
 21
66.264219878546953
  0
LINE
  8
_0-4_DIM
  6
CONTINUOUS
 62
    3
 10
206.59506550000003
 20
59.264219878546953
 11
214.67796949999979
 21
59.264219878546953
  0
LINE
  8
_0-4_DIM
  6
CONTINUOUS
 62
    3
 10
202.55361450000004
 20
66.264219878546953
 11
206.59506550000003
 21
59.264219878546953
  0
LINE
  8
_0-4_DIM
  6
CONTINUOUS
 62
    3
 10
206.59506550000003
 20
73.264219878546953
 11
202.55361450000004
 21
66.264219878546953
  0
LINE
  8
_0-4_DIM
  6
CONTINUOUS
 62
    3
 10
214.67796949999979
 20
73.264219878546953
 11
206.59506550000003
 21
73.264219878546953
  0
LINE
  8
_0-4_DIM
  6
CONTINUOUS
 62
    3
 10
218.71942150000001
 20
66.264219878546953
 11
214.67796949999979
 21
73.264219878546953
  0
LINE
  8
_0-4_DIM
  6
CONTINUOUS
 62
    3
 10
131.65602749999999
 20
35.801167878546948
 11
123.7060275
 21
35.801167878546948
  0
LINE
  8
_0-4_DIM
  6
CONTINUOUS
 62
    3
 10
131.70946850000001
 20
36.301167878546948
 11
123.7060275
 21
36.301167878546948
  0
LINE
  8
_0-4_DIM
  6
CONTINUOUS
 62
    3
 10
129.11693050000002
 20
35.353483878546953
 11
128.2176595
 21
35.801167878546948
  0
LINE
  8
_0-4_DIM
  6
CONTINUOUS
 62
    3
 10
129.11693050000002
 20
36.74885187854693
 11
129.18514949999999
 21
36.301167878546948
  0
LINE
  8
_0-4_DIM
  6
CONTINUOUS
 62
    3
 10
127.38598750000001
 20
36.74885187854693
 11
128.2852585
 21
36.301167878546948
  0
LINE
  8
_0-4_DIM
  6
CONTINUOUS
 62
    3
 10
127.38598750000001
 20
35.353483878546953
 11
127.31869050000003
 21
35.797820878546943
  0
LINE
  8
_0-4_DIM
  6
CONTINUOUS
 62
    3
 10
126.43310550000001
 20
36.74079087854696
 11
126.52998250000003
 21
36.301167878546948
  0
LINE
  8
_0-4_DIM
  6
CONTINUOUS
 62
    3
 10
126.43310550000001
 20
35.361545878546963
 11
125.84040550000003
 21
35.801167878546948
  0
LINE
  8
_0-4_DIM
  6
CONTINUOUS
 62
    3
 10
125.34495550000001
 20
35.361545878546963
 11
125.2486565
 21
35.799738878546947
  0
LINE
  8
_0-4_DIM
  6
CONTINUOUS
 62
    3
 10
125.34495550000001
 20
36.74079087854696
 11
125.93765450000001
 21
36.301167878546948
  0
LINE
  8
_0-4_DIM
  6
CONTINUOUS
 62
    3
 10
125.34495550000001
 20
35.361545878546963
 11
124.84688950000002
 21
35.801167878546948
  0
LINE
  8
_0-4_DIM
  6
CONTINUOUS
 62
    3
 10
125.93255250000001
 20
35.799104878546956
 11
125.34495550000001
 21
35.361545878546963
  0
LINE
  8
_0-4_DIM
  6
CONTINUOUS
 62
    3
 10
125.84040550000003
 20
36.301167878546948
 11
126.43310550000001
 21
36.74079087854696
  0
LINE
  8
_0-4_DIM
  6
CONTINUOUS
 62
    3
 10
128.2852585
 20
35.801167878546948
 11
127.38598750000001
 21
35.353483878546953
  0
LINE
  8
_0-4_DIM
  6
CONTINUOUS
 62
    3
 10
128.2176595
 20
36.301167878546948
 11
129.11693050000002
 21
36.74885187854693
  0
LINE
  8
_0-4_DIM
  6
CONTINUOUS
 62
    3
 10
124.84688950000002
 20
36.301167878546948
 11
125.34495550000001
 21
36.74079087854696
  0
LINE
  8
_0-4_DIM
  6
CONTINUOUS
 62
    3
 10
126.52998250000003
 20
35.801167878546948
 11
126.43310550000001
 21
35.361545878546963
  0
LINE
  8
_0-4_DIM
  6
CONTINUOUS
 62
    3
 10
125.24807850000001
 20
36.301167878546948
 11
125.34495550000001
 21
36.74079087854696
  0
LINE
  8
_0-4_DIM
  6
CONTINUOUS
 62
    3
 10
129.18514949999999
 20
35.801167878546948
 11
129.11693050000002
 21
35.353483878546953
  0
LINE
  8
_0-4_DIM
  6
CONTINUOUS
 62
    3
 10
127.31776850000001
 20
36.301167878546948
 11
127.38598750000001
 21
36.74885187854693
  0
LINE
  8
_0-4_DIM
  6
CONTINUOUS
 62
    3
 10
123.7060275
 20
35.801167878546948
 11
123.7060275
 21
36.301167878546948
  0
LINE
  8
_0-4_DIM
  6
CONTINUOUS
 62
    3
 10
130.5681945
 20
36.301167878546948
 11
130.6312715
 21
36.759120878546952
  0
LINE
  8
_0-4_DIM
  6
CONTINUOUS
 62
    3
 10
131.62590550000002
 20
36.301167878546948
 11
132.68078350000002
 21
36.759120878546952
  0
LINE
  8
_0-4_DIM
  6
CONTINUOUS
 62
    3
 10
132.74386149999998
 20
35.801167878546948
 11
132.68078350000002
 21
35.343215878546943
  0
LINE
  8
_0-4_DIM
  6
CONTINUOUS
 62
    3
 10
139.60602749999998
 20
35.801167878546948
 11
131.65602749999999
 21
35.801167878546948
  0
LINE
  8
_0-4_DIM
  6
CONTINUOUS
 62
    3
 10
135.09439650000002
 20
35.801167878546948
 11
134.19512549999996
 21
35.353483878546953
  0
LINE
  8
_0-4_DIM
  6
CONTINUOUS
 62
    3
 10
134.12690650000002
 20
36.301167878546948
 11
134.19512549999996
 21
36.74885187854693
  0
LINE
  8
_0-4_DIM
  6
CONTINUOUS
 62
    3
 10
135.02679749999999
 20
36.301167878546948
 11
135.92606850000004
 21
36.74885187854693
  0
LINE
  8
_0-4_DIM
  6
CONTINUOUS
 62
    3
 10
135.99336550000001
 20
35.797820878546943
 11
135.92606850000004
 21
35.353483878546953
  0
LINE
  8
_0-4_DIM
  6
CONTINUOUS
 62
    3
 10
136.7820735
 20
36.301167878546948
 11
136.87895050000003
 21
36.74079087854696
  0
LINE
  8
_0-4_DIM
  6
CONTINUOUS
 62
    3
 10
137.47164950000001
 20
35.801167878546948
 11
136.87895050000003
 21
35.361545878546963
  0
LINE
  8
_0-4_DIM
  6
CONTINUOUS
 62
    3
 10
138.0633995
 20
35.799738878546947
 11
137.96710050000002
 21
35.361545878546963
  0
LINE
  8
_0-4_DIM
  6
CONTINUOUS
 62
    3
 10
137.37440149999998
 20
36.301167878546948
 11
137.96710050000002
 21
36.74079087854696
  0
LINE
  8
_0-4_DIM
  6
CONTINUOUS
 62
    3
 10
131.65602749999999
 20
35.793801878546944
 11
130.6312715
 21
35.343215878546943
  0
LINE
  8
_0-4_DIM
  6
CONTINUOUS
 62
    3
 10
139.60602749999998
 20
36.301167878546948
 11
131.60258750000003
 21
36.301167878546948
  0
LINE
  8
_0-4_DIM
  6
CONTINUOUS
 62
    3
 10
138.46516550000001
 20
35.801167878546948
 11
137.96710050000002
 21
35.361545878546963
  0
LINE
  8
_0-4_DIM
  6
CONTINUOUS
 62
    3
 10
137.96710050000002
 20
35.361545878546963
 11
137.3795035
 21
35.799104878546956
  0
LINE
  8
_0-4_DIM
  6
CONTINUOUS
 62
    3
 10
136.87895050000003
 20
36.74079087854696
 11
137.47164950000001
 21
36.301167878546948
  0
LINE
  8
_0-4_DIM
  6
CONTINUOUS
 62
    3
 10
135.92606850000004
 20
35.353483878546953
 11
135.02679749999999
 21
35.801167878546948
  0
LINE
  8
_0-4_DIM
  6
CONTINUOUS
 62
    3
 10
134.19512549999996
 20
36.74885187854693
 11
135.09439650000002
 21
36.301167878546948
  0
LINE
  8
_0-4_DIM
  6
CONTINUOUS
 62
    3
 10
132.68078350000002
 20
35.343215878546943
 11
131.65602749999999
 21
35.793801878546944
  0
LINE
  8
_0-4_DIM
  6
CONTINUOUS
 62
    3
 10
130.6312715
 20
36.759120878546952
 11
131.6861505
 21
36.301167878546948
  0
LINE
  8
_0-4_DIM
  6
CONTINUOUS
 62
    3
 10
137.96710050000002
 20
36.74079087854696
 11
138.46516550000001
 21
36.301167878546948
  0
LINE
  8
_0-4_DIM
  6
CONTINUOUS
 62
    3
 10
136.87895050000003
 20
35.361545878546963
 11
136.7820735
 21
35.801167878546948
  0
LINE
  8
_0-4_DIM
  6
CONTINUOUS
 62
    3
 10
137.96710050000002
 20
36.74079087854696
 11
138.06397749999999
 21
36.301167878546948
  0
LINE
  8
_0-4_DIM
  6
CONTINUOUS
 62
    3
 10
134.19512549999996
 20
35.353483878546953
 11
134.12690650000002
 21
35.801167878546948
  0
LINE
  8
_0-4_DIM
  6
CONTINUOUS
 62
    3
 10
135.92606850000004
 20
36.74885187854693
 11
135.99428749999998
 21
36.301167878546948
  0
LINE
  8
_0-4_DIM
  6
CONTINUOUS
 62
    3
 10
130.6312715
 20
35.343215878546943
 11
130.5681945
 21
35.801167878546948
  0
LINE
  8
_0-4_DIM
  6
CONTINUOUS
 62
    3
 10
132.68078350000002
 20
36.759120878546952
 11
132.74386149999998
 21
36.301167878546948
  0
LINE
  8
_0-4_DIM
  6
CONTINUOUS
 62
    3
 10
139.60602749999998
 20
36.301167878546948
 11
139.60602749999998
 21
35.801167878546948
  0
LINE
  8
_0-4_DIM
  6
CONTINUOUS
 62
    3
 10
89.537845500000003
 20
36.819376878546933
 11
89.537845500000003
 21
35.819376878546933
  0
LINE
  8
_0-4_DIM
  6
CONTINUOUS
 62
    3
 10
97.23784550000002
 20
36.819376878546933
 11
89.537845500000003
 21
36.819376878546933
  0
LINE
  8
_0-4_DIM
  6
CONTINUOUS
 62
    3
 10
97.23784550000002
 20
35.819376878546933
 11
97.23784550000002
 21
36.819376878546933
  0
LINE
  8
_0-4_DIM
  6
CONTINUOUS
 62
    3
 10
79.037845500000003
 20
35.819376878546933
 11
97.23784550000002
 21
35.819376878546933
  0
LINE
  8
_0-4_DIM
  6
CONTINUOUS
 62
    3
 10
79.037845500000003
 20
36.819376878546933
 11
79.037845500000003
 21
35.819376878546933
  0
LINE
  8
_0-4_DIM
  6
CONTINUOUS
 62
    3
 10
86.737845500000006
 20
36.819376878546933
 11
86.737845500000006
 21
38.619376878546944
  0
LINE
  8
_0-4_DIM
  6
CONTINUOUS
 62
    3
 10
86.737845500000006
 20
36.819376878546933
 11
79.037845500000003
 21
36.819376878546933
  0
LINE
  8
_0-4_DIM
  6
CONTINUOUS
 62
    3
 10
89.537845500000003
 20
38.619376878546944
 11
89.537845500000003
 21
36.819376878546933
  0
LINE
  8
_0-4_DIM
  6
CONTINUOUS
 62
    3
 10
86.737845500000006
 20
38.619376878546944
 11
89.537845500000003
 21
38.619376878546944
  0
LINE
  8
_0-4_DIM
  6
CONTINUOUS
 62
    3
 10
86.737845500000006
 20
35.819376878546933
 11
86.737845500000006
 21
36.819376878546933
  0
LINE
  8
_0-4_DIM
  6
CONTINUOUS
 62
    3
 10
86.737845500000006
 20
57.321318878546947
 11
86.737845500000006
 21
56.72075687854695
  0
LINE
  8
_0-4_DIM
  6
CONTINUOUS
 62
    3
 10
89.537845500000003
 20
57.321318878546947
 11
89.537845500000003
 21
57.720756878546936
  0
LINE
  8
_0-4_DIM
  6
CONTINUOUS
 62
    3
 10
87.337845500000014
 20
60.267345878546948
 11
87.337845500000014
 21
60.81421987854695
  0
LINE
  8
_0-4_DIM
  6
CONTINUOUS
 62
    3
 10
88.937845500000009
 20
60.81421987854695
 11
88.937845500000009
 21
60.267345878546948
  0
LINE
  8
_0-4_DIM
  6
CONTINUOUS
 62
    3
 10
87.337845500000014
 20
60.81421987854695
 11
88.937845500000009
 21
60.81421987854695
  0
LINE
  8
_0-4_DIM
  6
CONTINUOUS
 62
    3
 10
86.737845500000006
 20
57.720756878546936
 11
86.737845500000006
 21
57.321318878546947
  0
LINE
  8
_0-4_DIM
  6
CONTINUOUS
 62
    3
 10
89.537845500000003
 20
57.720756878546936
 11
86.737845500000006
 21
57.720756878546936
  0
LINE
  8
_0-4_DIM
  6
CONTINUOUS
 62
    3
 10
89.537845500000003
 20
56.72075687854695
 11
89.537845500000003
 21
57.321318878546947
  0
LINE
  8
_0-4_DIM
  6
CONTINUOUS
 62
    3
 10
86.737845500000006
 20
56.72075687854695
 11
89.537845500000003
 21
56.72075687854695
  0
ARC
  8
_0-4_DIM
  6
CONTINUOUS
 62
    3
 10
179.10535949999979
 20
148.34438987854696
 40
2.5
 50
286.26020499999998
 51
73.739795000000072
  0
ARC
  8
_0-4_DIM
  6
CONTINUOUS
 62
    3
 10
227.45535949999993
 20
145.94438987854696
 40
0.2
 50
90
 51
180
  0
ARC
  8
_0-4_DIM
  6
CONTINUOUS
 62
    3
 10
227.45535949999993
 20
150.74438987854685
 40
0.2
 50
180
 51
270
  0
ARC
  8
_0-4_DIM
  6
CONTINUOUS
 62
    3
 10
202.7553595
 20
145.94438987854696
 40
0.2
 50
0
 51
90
  0
ARC
  8
_0-4_DIM
  6
CONTINUOUS
 62
    3
 10
202.7553595
 20
150.74438987854685
 40
0.2
 50
270
 51
0
  0
ARC
  8
_0-4_DIM
  6
CONTINUOUS
 62
    3
 10
212.70535949999993
 20
145.34438987854696
 40
0.2
 50
0
 51
90
  0
ARC
  8
_0-4_DIM
  6
CONTINUOUS
 62
    3
 10
217.50535949999983
 20
145.34438987854696
 40
0.2
 50
90
 51
180
  0
ARC
  8
_0-4_DIM
  6
CONTINUOUS
 62
    3
 10
203.5053595
 20
153.79438987854687
 40
0.9
 50
90
 51
270
  0
ARC
  8
_0-4_DIM
  6
CONTINUOUS
 62
    3
 10
226.70535949999982
 20
153.79438987854687
 40
0.9
 50
270
 51
90
  0
ARC
  8
_0-4_DIM
  6
CONTINUOUS
 62
    3
 10
203.5053595
 20
142.89438987854686
 40
0.9
 50
90
 51
270
  0
ARC
  8
_0-4_DIM
  6
CONTINUOUS
 62
    3
 10
226.70535949999982
 20
142.89438987854686
 40
0.9
 50
270
 51
90
  0
ARC
  8
_0-4_DIM
  6
CONTINUOUS
 62
    3
 10
208.25535949999983
 20
155.19438987854676
 40
0.5
 50
270
 51
0
  0
ARC
  8
_0-4_DIM
  6
CONTINUOUS
 62
    3
 10
208.25535949999983
 20
152.39438987854686
 40
0.5
 50
0
 51
90
  0
ARC
  8
_0-4_DIM
  6
CONTINUOUS
 62
    3
 10
211.05535949999989
 20
152.39438987854686
 40
0.5
 50
90
 51
180
  0
ARC
  8
_0-4_DIM
  6
CONTINUOUS
 62
    3
 10
211.05535949999989
 20
155.19438987854676
 40
0.5
 50
180
 51
270
  0
ARC
  8
_0-4_DIM
  6
CONTINUOUS
 62
    3
 10
219.15535950000003
 20
155.19438987854676
 40
0.5
 50
270
 51
0
  0
ARC
  8
_0-4_DIM
  6
CONTINUOUS
 62
    3
 10
221.95535949999999
 20
155.19438987854676
 40
0.5
 50
180
 51
270
  0
ARC
  8
_0-4_DIM
  6
CONTINUOUS
 62
    3
 10
219.15535950000003
 20
152.39438987854686
 40
0.5
 50
0
 51
90
  0
ARC
  8
_0-4_DIM
  6
CONTINUOUS
 62
    3
 10
221.95535949999999
 20
152.39438987854686
 40
0.5
 50
90
 51
180
  0
ARC
  8
_0-4_DIM
  6
CONTINUOUS
 62
    3
 10
208.25535949999983
 20
144.29438987854687
 40
0.5
 50
270
 51
0
  0
ARC
  8
_0-4_DIM
  6
CONTINUOUS
 62
    3
 10
208.25535949999983
 20
141.49438987854685
 40
0.5
 50
0
 51
90
  0
ARC
  8
_0-4_DIM
  6
CONTINUOUS
 62
    3
 10
211.05535949999989
 20
141.49438987854685
 40
0.5
 50
90
 51
180
  0
ARC
  8
_0-4_DIM
  6
CONTINUOUS
 62
    3
 10
211.05535949999989
 20
144.29438987854687
 40
0.5
 50
180
 51
270
  0
ARC
  8
_0-4_DIM
  6
CONTINUOUS
 62
    3
 10
211.05535949999989
 20
144.29438987854687
 40
0.5
 50
180
 51
270
  0
ARC
  8
_0-4_DIM
  6
CONTINUOUS
 62
    3
 10
219.15535950000003
 20
144.29438987854687
 40
0.5
 50
270
 51
0
  0
ARC
  8
_0-4_DIM
  6
CONTINUOUS
 62
    3
 10
219.15535950000003
 20
141.49438987854685
 40
0.5
 50
0
 51
90
  0
ARC
  8
_0-4_DIM
  6
CONTINUOUS
 62
    3
 10
221.95535949999999
 20
141.49438987854685
 40
0.5
 50
90
 51
180
  0
ARC
  8
_0-4_DIM
  6
CONTINUOUS
 62
    3
 10
221.95535949999999
 20
144.29438987854687
 40
0.5
 50
180
 51
270
  0
ARC
  8
_0-4_DIM
  6
CONTINUOUS
 62
    3
 10
209.0151674999999
 20
159.94438987854696
 40
0.9
 50
29.999999999999996
 51
210
  0
ARC
  8
_0-4_DIM
  6
CONTINUOUS
 62
    3
 10
221.19555150000002
 20
159.94438987854696
 40
0.9
 50
330
 51
149.99999999999997
  0
ARC
  8
_0-4_DIM
  6
CONTINUOUS
 62
    3
 10
209.0151674999999
 20
136.74438987854685
 40
0.9
 50
150
 51
330.00000000000006
  0
ARC
  8
_0-4_DIM
  6
CONTINUOUS
 62
    3
 10
221.19555150000002
 20
136.74438987854685
 40
0.9
 50
210.00000000000003
 51
30.000000000000018
  0
ARC
  8
_0-4_DIM
  6
CONTINUOUS
 62
    3
 10
215.10535949999991
 20
148.04438987854695
 40
2.799999999999998
 50
31.002718999999999
 51
148.9972809999999
  0
ARC
  8
_0-4_DIM
  6
CONTINUOUS
 62
    3
 10
205.55535949999984
 20
148.34438987854696
 40
2.799999999999998
 50
301.00271900000007
 51
58.997281000000008
  0
ARC
  8
_0-4_DIM
  6
CONTINUOUS
 62
    3
 10
217.90535950000003
 20
135.24438987854685
 40
0.4
 50
180
 51
270
  0
ARC
  8
_0-4_DIM
  6
CONTINUOUS
 62
    3
 10
212.30535949999989
 20
135.24438987854685
 40
0.4
 50
270
 51
0
  0
ARC
  8
_0-4_DIM
  6
CONTINUOUS
 62
    3
 10
217.90535950000003
 20
135.24438987854685
 40
0.4
 50
180
 51
270
  0
ARC
  8
_0-4_DIM
  6
CONTINUOUS
 62
    3
 10
224.65535950000003
 20
148.34438987854696
 40
2.799999999999998
 50
121.00271899999981
 51
238.99728100000002
  0
ARC
  8
_0-4_DIM
  6
CONTINUOUS
 62
    3
 10
212.70535949999993
 20
136.09438987854696
 40
0.2
 50
0
 51
90
  0
ARC
  8
_0-4_DIM
  6
CONTINUOUS
 62
    3
 10
217.50535949999983
 20
136.09438987854696
 40
0.2
 50
90
 51
180
  0
ARC
  8
_0-4_DIM
  6
CONTINUOUS
 62
    3
 10
212.70535949999993
 20
160.59438987854696
 40
0.2
 50
270
 51
0
  0
ARC
  8
_0-4_DIM
  6
CONTINUOUS
 62
    3
 10
212.30535949999989
 20
161.44438987854676
 40
0.4
 50
0
 51
90
  0
ARC
  8
_0-4_DIM
  6
CONTINUOUS
 62
    3
 10
217.50535949999983
 20
160.59438987854696
 40
0.2
 50
180
 51
270
  0
ARC
  8
_0-4_DIM
  6
CONTINUOUS
 62
    3
 10
217.90535950000003
 20
161.44438987854676
 40
0.4
 50
90
 51
180
  0
ARC
  8
_0-4_DIM
  6
CONTINUOUS
 62
    3
 10
217.90535950000003
 20
161.44438987854676
 40
0.4
 50
90
 51
180
  0
ARC
  8
_0-4_DIM
  6
CONTINUOUS
 62
    3
 10
201.92131950000004
 20
157.34915387854696
 40
0.2
 50
325
 51
54.999999999999986
  0
ARC
  8
_0-4_DIM
  6
CONTINUOUS
 62
    3
 10
204.6744865
 20
161.28108387854695
 40
0.2
 50
235
 51
325
  0
ARC
  8
_0-4_DIM
  6
CONTINUOUS
 62
    3
 10
200.5053595
 20
157.85230987854686
 40
0.4
 50
55.000000000000007
 51
180
  0
ARC
  8
_0-4_DIM
  6
CONTINUOUS
 62
    3
 10
205.13864050000001
 20
161.44438987854676
 40
0.4
 50
90
 51
235.00000000000003
  0
ARC
  8
_0-4_DIM
  6
CONTINUOUS
 62
    3
 10
200.5053595
 20
138.83646887854675
 40
0.4
 50
180
 51
304.99999999999994
  0
ARC
  8
_0-4_DIM
  6
CONTINUOUS
 62
    3
 10
201.92131950000004
 20
139.33962487854686
 40
0.2
 50
305
 51
35.000000000000014
  0
ARC
  8
_0-4_DIM
  6
CONTINUOUS
 62
    3
 10
205.13864050000001
 20
135.24438987854685
 40
0.4
 50
124.99999999999999
 51
270
  0
ARC
  8
_0-4_DIM
  6
CONTINUOUS
 62
    3
 10
204.6744865
 20
135.40769587854695
 40
0.2
 50
35
 51
125.00000000000001
  0
ARC
  8
_0-4_DIM
  6
CONTINUOUS
 62
    3
 10
200.5053595
 20
151.14438987854695
 40
0.4
 50
180
 51
270
  0
ARC
  8
_0-4_DIM
  6
CONTINUOUS
 62
    3
 10
200.5053595
 20
145.54438987854687
 40
0.4
 50
90
 51
180
  0
ARC
  8
_0-4_DIM
  6
CONTINUOUS
 62
    3
 10
229.70535949999993
 20
157.85230987854686
 40
0.4
 50
0
 51
124.99999999999999
  0
ARC
  8
_0-4_DIM
  6
CONTINUOUS
 62
    3
 10
228.28939849999983
 20
157.34915387854696
 40
0.2
 50
124.99999999999999
 51
214.99999999999989
  0
ARC
  8
_0-4_DIM
  6
CONTINUOUS
 62
    3
 10
225.0720784999998
 20
161.44438987854676
 40
0.4
 50
305
 51
90.000000000000028
  0
ARC
  8
_0-4_DIM
  6
CONTINUOUS
 62
    3
 10
225.53623249999981
 20
161.28108387854695
 40
0.2
 50
214.99999999999989
 51
305
  0
ARC
  8
_0-4_DIM
  6
CONTINUOUS
 62
    3
 10
228.28939849999983
 20
139.33962487854686
 40
0.2
 50
145
 51
235.00000000000003
  0
ARC
  8
_0-4_DIM
  6
CONTINUOUS
 62
    3
 10
229.70535949999993
 20
138.83646887854675
 40
0.4
 50
235
 51
0
  0
ARC
  8
_0-4_DIM
  6
CONTINUOUS
 62
    3
 10
225.53623249999981
 20
135.40769587854695
 40
0.2
 50
55.000000000000007
 51
145
  0
ARC
  8
_0-4_DIM
  6
CONTINUOUS
 62
    3
 10
225.0720784999998
 20
135.24438987854685
 40
0.4
 50
270
 51
55.000000000000014
  0
ARC
  8
_0-4_DIM
  6
CONTINUOUS
 62
    3
 10
229.70535949999993
 20
151.14438987854695
 40
0.4
 50
270
 51
0
  0
ARC
  8
_0-4_DIM
  6
CONTINUOUS
 62
    3
 10
229.70535949999993
 20
145.54438987854687
 40
0.4
 50
0
 51
90
  0
ARC
  8
_0-4_DIM
  6
CONTINUOUS
 62
    3
 10
82.805359500000009
 20
142.84438987854696
 40
1
 50
180
 51
270
  0
ARC
  8
_0-4_DIM
  6
CONTINUOUS
 62
    3
 10
100.80535950000001
 20
142.84438987854696
 40
1
 50
270
 51
0
  0
ARC
  8
_0-4_DIM
  6
CONTINUOUS
 62
    3
 10
100.80535950000001
 20
153.84438987854696
 40
1
 50
0
 51
90
  0
ARC
  8
_0-4_DIM
  6
CONTINUOUS
 62
    3
 10
103.80535949999999
 20
157.34438987854696
 40
1
 50
0
 51
90
  0
ARC
  8
_0-4_DIM
  6
CONTINUOUS
 62
    3
 10
103.80535949999999
 20
139.34438987854696
 40
1
 50
270
 51
0
  0
ARC
  8
_0-4_DIM
  6
CONTINUOUS
 62
    3
 10
79.805359500000009
 20
139.34438987854696
 40
1
 50
180
 51
270
  0
ARC
  8
_0-4_DIM
  6
CONTINUOUS
 62
    3
 10
79.805359500000009
 20
157.34438987854696
 40
1
 50
90
 51
180
  0
ARC
  8
_0-4_DIM
  6
CONTINUOUS
 62
    3
 10
82.805359500000009
 20
153.84438987854696
 40
1
 50
90
 51
180
  0
ARC
  8
_0-4_DIM
  6
CONTINUOUS
 62
    3
 10
160.10535949999979
 20
164.24438987854685
 40
1
 50
90
 51
180
  0
ARC
  8
_0-4_DIM
  6
CONTINUOUS
 62
    3
 10
155.30535950000001
 20
154.33594387854694
 40
1
 50
126.09828400000001
 51
180
  0
ARC
  8
_0-4_DIM
  6
CONTINUOUS
 62
    3
 10
155.30535950000001
 20
142.35283487854696
 40
1
 50
180
 51
233.90171599999996
  0
ARC
  8
_0-4_DIM
  6
CONTINUOUS
 62
    3
 10
91.805359500000009
 20
148.34438987854696
 40
9.0999999999999996
 50
278.84988299999992
 51
261.15011699999997
  0
ARC
  8
_0-4_DIM
  6
CONTINUOUS
 62
    3
 10
214.10028549999993
 20
133.64438987854686
 40
0.2999999999999999
 50
90
 51
187.9696099999999
  0
ARC
  8
_0-4_DIM
  6
CONTINUOUS
 62
    3
 10
216.1104335
 20
133.64438987854686
 40
0.2999999999999999
 50
352.03039000000001
 51
89.999999999999986
  0
ARC
  8
_0-4_DIM
  6
CONTINUOUS
 62
    3
 10
224.10028549999998
 20
133.64438987854686
 40
0.2999999999999999
 50
90
 51
187.9696099999999
  0
ARC
  8
_0-4_DIM
  6
CONTINUOUS
 62
    3
 10
206.11043349999983
 20
133.64438987854686
 40
0.2999999999999999
 50
352.03039000000001
 51
89.999999999999986
  0
ARC
  8
_0-4_DIM
  6
CONTINUOUS
 62
    3
 10
204.10028549999981
 20
133.64438987854686
 40
0.2999999999999999
 50
90
 51
187.9696099999999
  0
ARC
  8
_0-4_DIM
  6
CONTINUOUS
 62
    3
 10
226.1104335
 20
133.64438987854686
 40
0.2999999999999999
 50
352.03039000000001
 51
89.999999999999986
  0
ARC
  8
_0-4_DIM
  6
CONTINUOUS
 62
    3
 10
208.7553595
 20
158.59438987854696
 40
1.8
 50
0
 51
29.999999999999996
  0
ARC
  8
_0-4_DIM
  6
CONTINUOUS
 62
    3
 10
221.45535949999982
 20
158.59438987854696
 40
1.8
 50
150
 51
180
  0
ARC
  8
_0-4_DIM
  6
CONTINUOUS
 62
    3
 10
208.7553595
 20
138.09438987854696
 40
1.8
 50
330
 51
0
  0
ARC
  8
_0-4_DIM
  6
CONTINUOUS
 62
    3
 10
221.45535949999982
 20
138.09438987854696
 40
1.8
 50
180
 51
210
  0
ARC
  8
_0-4_DIM
  6
CONTINUOUS
 62
    3
 10
215.10535949999991
 20
157.59438987854696
 40
2.5
 50
196.26020500000001
 51
343.73979500000002
  0
ARC
  8
_0-4_DIM
  6
CONTINUOUS
 62
    3
 10
205.7553595
 20
157.59438987854696
 40
2.5
 50
251.26020499999993
 51
38.739795000000008
  0
ARC
  8
_0-4_DIM
  6
CONTINUOUS
 62
    3
 10
205.7553595
 20
139.09438987854696
 40
2.5
 50
321.26020499999998
 51
108.73979500000002
  0
ARC
  8
_0-4_DIM
  6
CONTINUOUS
 62
    3
 10
215.10535949999991
 20
139.09438987854696
 40
2.5
 50
16.260204999999999
 51
163.73979499999993
  0
ARC
  8
_0-4_DIM
  6
CONTINUOUS
 62
    3
 10
224.45535949999982
 20
139.09438987854696
 40
2.5
 50
71.260204999999999
 51
218.7397949999999
  0
ARC
  8
_0-4_DIM
  6
CONTINUOUS
 62
    3
 10
224.45535949999982
 20
157.59438987854696
 40
2.5
 50
141.26020500000001
 51
288.73979500000002
  0
ARC
  8
_0-4_DIM
  6
CONTINUOUS
 62
    3
 10
170.22051049999993
 20
163.99438987854685
 40
0.4512249999999999
 50
332.98894599999988
 51
85.777018000000027
  0
ARC
  8
_0-4_DIM
  6
CONTINUOUS
 62
    3
 10
170.67194549999999
 20
164.29438987854687
 40
0.9505809999999997
 50
335.208755
 51
87.996827000000025
  0
ARC
  8
_0-4_DIM
  6
CONTINUOUS
 62
    3
 10
160.10535949999979
 20
132.44438987854696
 40
1
 50
180
 51
270
  0
ARC
  8
_0-4_DIM
  6
CONTINUOUS
 62
    3
 10
170.67194549999999
 20
132.39438987854695
 40
0.9505809999999997
 50
272.00317300000006
 51
24.791245000000046
  0
ARC
  8
_0-4_DIM
  6
CONTINUOUS
 62
    3
 10
170.22051049999993
 20
132.69438987854696
 40
0.4512249999999999
 50
274.22298199999994
 51
27.011054000000044
  0
ARC
  8
_0-4_DIM
  6
CONTINUOUS
 62
    3
 10
204.10028549999981
 20
163.04438987854687
 40
0.2999999999999999
 50
172.03038999999987
 51
270
  0
ARC
  8
_0-4_DIM
  6
CONTINUOUS
 62
    3
 10
206.11043349999983
 20
163.04438987854687
 40
0.2999999999999999
 50
270
 51
7.9696099999999852
  0
ARC
  8
_0-4_DIM
  6
CONTINUOUS
 62
    3
 10
214.10028549999993
 20
163.04438987854687
 40
0.2999999999999999
 50
172.03038999999987
 51
270
  0
ARC
  8
_0-4_DIM
  6
CONTINUOUS
 62
    3
 10
216.1104335
 20
163.04438987854687
 40
0.2999999999999999
 50
270
 51
7.9696099999999852
  0
ARC
  8
_0-4_DIM
  6
CONTINUOUS
 62
    3
 10
224.10028549999998
 20
163.04438987854687
 40
0.2999999999999999
 50
172.03038999999987
 51
270
  0
ARC
  8
_0-4_DIM
  6
CONTINUOUS
 62
    3
 10
226.1104335
 20
163.04438987854687
 40
0.2999999999999999
 50
270
 51
7.9696099999999852
  0
ARC
  8
_0-4_DIM
  6
CONTINUOUS
 62
    3
 10
138.9305875
 20
148.34438987854696
 40
13.374772
 50
342.41204599999992
 51
17.587954000000028
  0
ARC
  8
_0-4_DIM
  6
CONTINUOUS
 62
    3
 10
163.68013050000002
 20
148.34438987854696
 40
13.374772
 50
162.412046
 51
197.58795399999991
  0
ARC
  8
_0-4_DIM
  6
CONTINUOUS
 62
    3
 10
125.44096950000001
 20
164.64559087854695
 40
28.961972999999979
 50
334.95656700000001
 51
335.83593899999988
  0
ARC
  8
_0-4_DIM
  6
CONTINUOUS
 62
    3
 10
143.33352350000001
 20
156.61783687854685
 40
9.3510489999999997
 50
335.83598100000006
 51
338.52280099999996
  0
ARC
  8
_0-4_DIM
  6
CONTINUOUS
 62
    3
 10
147.21173450000001
 20
155.09195987854696
 40
5.183456999999998
 50
338.52270600000003
 51
343.25191599999999
  0
ARC
  8
_0-4_DIM
  6
CONTINUOUS
 62
    3
 10
148.93378449999997
 20
154.57375287854674
 40
3.3851260000000001
 50
343.25178899999992
 51
350.28321199999999
  0
ARC
  8
_0-4_DIM
  6
CONTINUOUS
 62
    3
 10
149.86388549999998
 20
154.41448387854695
 40
2.4414869999999991
 50
350.28329300000001
 51
359.81410399999987
  0
ARC
  8
_0-4_DIM
  6
CONTINUOUS
 62
    3
 10
150.04017950000002
 20
154.41391387854696
 40
2.2651919999999981
 50
359.814054
 51
10.088549000000013
  0
ARC
  8
_0-4_DIM
  6
CONTINUOUS
 62
    3
 10
148.54379349999999
 20
154.14766887854697
 40
3.7850799999999989
 50
10.088635
 51
16.376300000000001
  0
ARC
  8
_0-4_DIM
  6
CONTINUOUS
 62
    3
 10
147.87742450000002
 20
153.95184187854696
 40
4.479626999999998
 50
16.376349000000001
 51
21.849118000000001
  0
ARC
  8
_0-4_DIM
  6
CONTINUOUS
 62
    3
 10
140.03503750000002
 20
150.80733487854695
 40
12.928943999999991
 50
21.849010999999983
 51
23.792207999999999
  0
ARC
  8
_0-4_DIM
  6
CONTINUOUS
 62
    3
 10
137.5067655
 20
149.69264087854685
 40
15.69204
 50
23.792222999999979
 51
25.41527099999999
  0
ARC
  8
_0-4_DIM
  6
CONTINUOUS
 62
    3
 10
125.4410345
 20
152.52124687854695
 40
28.961914
 50
334.95651400000014
 51
335.83588500000008
  0
ARC
  8
_0-4_DIM
  6
CONTINUOUS
 62
    3
 10
143.33352350000001
 20
144.49349287854696
 40
9.3510489999999997
 50
335.83598100000006
 51
338.52280099999996
  0
ARC
  8
_0-4_DIM
  6
CONTINUOUS
 62
    3
 10
147.21173450000001
 20
142.96761587854695
 40
5.183456999999998
 50
338.52270600000003
 51
343.25191599999999
  0
ARC
  8
_0-4_DIM
  6
CONTINUOUS
 62
    3
 10
148.93377650000002
 20
142.44940887854696
 40
3.3851339999999981
 50
343.25182100000001
 51
350.28324399999991
  0
ARC
  8
_0-4_DIM
  6
CONTINUOUS
 62
    3
 10
149.86388549999998
 20
142.29014087854696
 40
2.4414869999999991
 50
350.28329300000001
 51
359.81410399999987
  0
ARC
  8
_0-4_DIM
  6
CONTINUOUS
 62
    3
 10
150.04018550000001
 20
142.28956987854696
 40
2.2651870000000001
 50
359.81406600000003
 51
10.088561000000011
  0
ARC
  8
_0-4_DIM
  6
CONTINUOUS
 62
    3
 10
148.54379349999999
 20
142.02332487854676
 40
3.7850799999999989
 50
10.088635
 51
16.376300000000001
  0
ARC
  8
_0-4_DIM
  6
CONTINUOUS
 62
    3
 10
147.87741350000002
 20
141.82749787854695
 40
4.4796370000000003
 50
16.376305000000002
 51
21.849073999999991
  0
ARC
  8
_0-4_DIM
  6
CONTINUOUS
 62
    3
 10
140.03503750000002
 20
138.68299187854686
 40
12.928943999999991
 50
21.849010999999983
 51
23.792207999999999
  0
ARC
  8
_0-4_DIM
  6
CONTINUOUS
 62
    3
 10
137.5067655
 20
137.56829787854696
 40
15.69204
 50
23.792222999999979
 51
25.41527099999999
  0
ARC
  8
_0-4_DIM
  6
CONTINUOUS
 62
    3
 10
177.16974950000002
 20
164.64559087854695
 40
28.961972999999979
 50
204.1640609999998
 51
205.04343299999991
  0
ARC
  8
_0-4_DIM
  6
CONTINUOUS
 62
    3
 10
159.2006884999999
 20
156.58564387854696
 40
9.2680679999999995
 50
201.465169
 51
204.17605
  0
ARC
  8
_0-4_DIM
  6
CONTINUOUS
 62
    3
 10
155.38007250000001
 20
155.08540687854696
 40
5.1634589999999987
 50
196.73892100000003
 51
201.48645800000003
  0
ARC
  8
_0-4_DIM
  6
CONTINUOUS
 62
    3
 10
153.6665515
 20
154.57130287854696
 40
3.374479
 50
189.70554799999991
 51
196.75918100000001
  0
ARC
  8
_0-4_DIM
  6
CONTINUOUS
 62
    3
 10
152.75569350000004
 20
154.41525087854694
 40
2.4503490000000001
 50
180.2031689999998
 51
189.699434
  0
ARC
  8
_0-4_DIM
  6
CONTINUOUS
 62
    3
 10
152.75569350000004
 20
154.39787287854696
 40
2.4503490000000001
 50
170.300566
 51
179.79683099999991
  0
ARC
  8
_0-4_DIM
  6
CONTINUOUS
 62
    3
 10
153.6665605
 20
154.24182187854686
 40
3.3744869999999989
 50
163.24084999999991
 51
170.29448300000001
  0
ARC
  8
_0-4_DIM
  6
CONTINUOUS
 62
    3
 10
155.38006050000001
 20
153.72771787854685
 40
5.1634479999999989
 50
158.513499
 51
163.26103499999999
  0
ARC
  8
_0-4_DIM
  6
CONTINUOUS
 62
    3
 10
159.2006884999999
 20
152.22748087854686
 40
9.2680679999999995
 50
155.82394999999991
 51
158.534831
  0
ARC
  8
_0-4_DIM
  6
CONTINUOUS
 62
    3
 10
177.16974950000002
 20
144.16753287854695
 40
28.961972999999979
 50
154.95656699999981
 51
155.83593899999991
  0
ARC
  8
_0-4_DIM
  6
CONTINUOUS
 62
    3
 10
177.1696844999999
 20
152.52124687854695
 40
28.961914
 50
204.1641149999999
 51
205.0434859999998
  0
ARC
  8
_0-4_DIM
  6
CONTINUOUS
 62
    3
 10
159.2006884999999
 20
144.46129987854675
 40
9.2680679999999995
 50
201.465169
 51
204.17605
  0
ARC
  8
_0-4_DIM
  6
CONTINUOUS
 62
    3
 10
155.38007250000001
 20
142.96106287854695
 40
5.1634589999999987
 50
196.73892100000003
 51
201.48645800000003
  0
ARC
  8
_0-4_DIM
  6
CONTINUOUS
 62
    3
 10
153.6665605
 20
142.44695987854686
 40
3.3744869999999989
 50
189.7055169999999
 51
196.75914999999986
  0
ARC
  8
_0-4_DIM
  6
CONTINUOUS
 62
    3
 10
152.75569350000004
 20
142.29090787854696
 40
2.4503490000000001
 50
180.2031689999998
 51
189.699434
  0
ARC
  8
_0-4_DIM
  6
CONTINUOUS
 62
    3
 10
152.75568650000002
 20
142.27352987854695
 40
2.4503430000000002
 50
170.30055400000003
 51
179.79681899999991
  0
ARC
  8
_0-4_DIM
  6
CONTINUOUS
 62
    3
 10
153.6665605
 20
142.11747787854685
 40
3.3744869999999989
 50
163.24084999999991
 51
170.29448300000001
  0
ARC
  8
_0-4_DIM
  6
CONTINUOUS
 62
    3
 10
155.38007250000001
 20
141.60337487854676
 40
5.1634589999999987
 50
158.513542
 51
163.261079
  0
ARC
  8
_0-4_DIM
  6
CONTINUOUS
 62
    3
 10
159.2006884999999
 20
140.10313787854696
 40
9.2680679999999995
 50
155.82394999999991
 51
158.534831
  0
ARC
  8
_0-4_DIM
  6
CONTINUOUS
 62
    3
 10
177.16974950000002
 20
132.04318987854685
 40
28.961972999999979
 50
154.95656699999981
 51
155.83593899999991
  0
ARC
  8
_0-4_DIM
  6
CONTINUOUS
 62
    3
 10
148.28945450000001
 20
139.84438987854696
 40
1
 50
270
 51
0
  0
ARC
  8
_0-4_DIM
  6
CONTINUOUS
 62
    3
 10
179.10535949999979
 20
148.34438987854696
 40
2.5
 50
0
 51
73.739795000000015
  0
ARC
  8
_0-4_DIM
  6
CONTINUOUS
 62
    3
 10
179.10535949999979
 20
148.34438987854696
 40
2.5
 50
286.26020499999998
 51
0.0000000000000508
  0
ARC
  8
_0-4_DIM
  6
CONTINUOUS
 62
    3
 10
178.71611749999991
 20
159.59439087854696
 40
0.8107579999999999
 50
180.00002900000004
 51
206.82399099999992
  0
ARC
  8
_0-4_DIM
  6
CONTINUOUS
 62
    3
 10
178.90404750000002
 20
159.68941987854686
 40
1.021347999999999
 50
206.82397800000001
 51
230.67725399999981
  0
ARC
  8
_0-4_DIM
  6
CONTINUOUS
 62
    3
 10
179.02597550000002
 20
159.83826987854675
 40
1.2137610000000001
 50
230.6774209999999
 51
251.25779999999992
  0
ARC
  8
_0-4_DIM
  6
CONTINUOUS
 62
    3
 10
179.10536350000001
 20
160.07223487854696
 40
1.460828
 50
251.25768500000004
 51
269.99986999999999
  0
ARC
  8
_0-4_DIM
  6
CONTINUOUS
 62
    3
 10
179.1053564999998
 20
160.07223787854696
 40
1.4608309999999991
 50
270.000111
 51
288.74229600000001
  0
ARC
  8
_0-4_DIM
  6
CONTINUOUS
 62
    3
 10
179.18474450000002
 20
159.83826787854696
 40
1.213759
 50
288.74226399999998
 51
309.32264300000008
  0
ARC
  8
_0-4_DIM
  6
CONTINUOUS
 62
    3
 10
179.30667249999999
 20
159.68942187854697
 40
1.0213499999999991
 50
309.32264099999992
 51
333.17591599999992
  0
ARC
  8
_0-4_DIM
  6
CONTINUOUS
 62
    3
 10
179.49460250000001
 20
159.59438787854685
 40
0.8107569999999999
 50
333.17615699999982
 51
0.0001189999999998
  0
ARC
  8
_0-4_DIM
  6
CONTINUOUS
 62
    3
 10
179.49460450000001
 20
159.59439087854696
 40
0.8107549999999998
 50
359.99991599999998
 51
26.823878000000025
  0
ARC
  8
_0-4_DIM
  6
CONTINUOUS
 62
    3
 10
179.30667249999999
 20
159.49935687854696
 40
1.0213499999999991
 50
26.824084000000003
 51
50.677359000000003
  0
ARC
  8
_0-4_DIM
  6
CONTINUOUS
 62
    3
 10
179.18474249999991
 20
159.35051187854685
 40
1.2137599999999991
 50
50.677240999999988
 51
71.257621
  0
ARC
  8
_0-4_DIM
  6
CONTINUOUS
 62
    3
 10
179.10535949999979
 20
159.11654087854686
 40
1.4608309999999991
 50
71.257823000000016
 51
90.000007999999994
  0
ARC
  8
_0-4_DIM
  6
CONTINUOUS
 62
    3
 10
179.10536050000002
 20
159.11654387854696
 40
1.460828
 50
90.000011999999984
 51
108.74219599999979
  0
ARC
  8
_0-4_DIM
  6
CONTINUOUS
 62
    3
 10
179.02597750000001
 20
159.35050887854686
 40
1.213762999999999
 50
108.742315
 51
129.3226949999999
  0
ARC
  8
_0-4_DIM
  6
CONTINUOUS
 62
    3
 10
178.90404750000002
 20
159.49935987854695
 40
1.021347999999999
 50
129.32274599999991
 51
153.1760219999999
  0
ARC
  8
_0-4_DIM
  6
CONTINUOUS
 62
    3
 10
178.7161155
 20
159.59438887854697
 40
0.8107559999999999
 50
153.175974
 51
179.99993599999991
  0
ARC
  8
_0-4_DIM
  6
CONTINUOUS
 62
    3
 10
180.06117149999992
 20
159.59438787854685
 40
1.544189
 50
0.000069
 51
27.901046000000001
  0
ARC
  8
_0-4_DIM
  6
CONTINUOUS
 62
    3
 10
179.60051549999991
 20
159.35047087854676
 40
2.065436
 50
27.901088000000001
 51
51.96473000000001
  0
ARC
  8
_0-4_DIM
  6
CONTINUOUS
 62
    3
 10
179.30081250000001
 20
158.96736187854685
 40
2.5518469999999991
 50
51.964638000000001
 51
72.046137000000002
  0
ARC
  8
_0-4_DIM
  6
CONTINUOUS
 62
    3
 10
179.10535849999991
 20
158.36416187854695
 40
3.1859220000000001
 50
72.046156999999994
 51
89.999984999999981
  0
ARC
  8
_0-4_DIM
  6
CONTINUOUS
 62
    3
 10
179.10535549999992
 20
160.82461787854675
 40
3.1859229999999981
 50
270.00007199999988
 51
287.95389999999992
  0
ARC
  8
_0-4_DIM
  6
CONTINUOUS
 62
    3
 10
179.3008155
 20
160.22141787854696
 40
2.5518450000000001
 50
287.95380699999993
 51
308.03530499999982
  0
ARC
  8
_0-4_DIM
  6
CONTINUOUS
 62
    3
 10
179.60051349999981
 20
159.83830787854686
 40
2.0654379999999981
 50
308.03531299999992
 51
332.09895399999982
  0
ARC
  8
_0-4_DIM
  6
CONTINUOUS
 62
    3
 10
180.06117149999992
 20
159.59439187854696
 40
1.544189
 50
332.09895399999982
 51
359.999931
  0
ARC
  8
_0-4_DIM
  6
CONTINUOUS
 62
    3
 10
179.49460549999981
 20
159.13553387854677
 40
0.8107529999999998
 50
16.437998
 51
26.823650000000004
  0
ARC
  8
_0-4_DIM
  6
CONTINUOUS
 62
    3
 10
179.30667249999999
 20
159.04049587854686
 40
1.0213499999999991
 50
26.824084000000003
 51
50.677359000000003
  0
ARC
  8
_0-4_DIM
  6
CONTINUOUS
 62
    3
 10
179.18474249999991
 20
158.89165087854695
 40
1.2137599999999991
 50
50.677240999999988
 51
71.257621
  0
ARC
  8
_0-4_DIM
  6
CONTINUOUS
 62
    3
 10
179.10535949999979
 20
158.65767987854696
 40
1.4608309999999991
 50
71.257823000000016
 51
90.000007999999994
  0
ARC
  8
_0-4_DIM
  6
CONTINUOUS
 62
    3
 10
179.10536050000002
 20
158.65768287854695
 40
1.460828
 50
90.000011999999984
 51
108.74219599999979
  0
ARC
  8
_0-4_DIM
  6
CONTINUOUS
 62
    3
 10
179.02597750000001
 20
158.89164787854696
 40
1.213762999999999
 50
108.742315
 51
129.3226949999999
  0
ARC
  8
_0-4_DIM
  6
CONTINUOUS
 62
    3
 10
178.90404750000002
 20
159.04049887854686
 40
1.021347999999999
 50
129.32274599999991
 51
153.1760219999999
  0
ARC
  8
_0-4_DIM
  6
CONTINUOUS
 62
    3
 10
178.7161145
 20
159.13552887854686
 40
0.8107549999999998
 50
153.17598699999994
 51
163.56163899999993
  0
ARC
  8
_0-4_DIM
  6
CONTINUOUS
 62
    3
 10
179.10535849999991
 20
160.35548587854686
 40
3.1859220000000001
 50
270.00001500000002
 51
287.95384300000001
  0
ARC
  8
_0-4_DIM
  6
CONTINUOUS
 62
    3
 10
179.3008155
 20
159.75228587854696
 40
2.5518450000000001
 50
287.95380699999993
 51
308.03530499999982
  0
ARC
  8
_0-4_DIM
  6
CONTINUOUS
 62
    3
 10
179.60051349999981
 20
159.36917587854686
 40
2.0654379999999981
 50
308.03531299999992
 51
332.09895399999982
  0
ARC
  8
_0-4_DIM
  6
CONTINUOUS
 62
    3
 10
180.06117149999992
 20
159.12525987854696
 40
1.544189
 50
332.09895399999982
 51
359.999931
  0
ARC
  8
_0-4_DIM
  6
CONTINUOUS
 62
    3
 10
176.10535950000002
 20
161.63933887854697
 40
0.219012
 50
270
 51
335.95007399999992
  0
ARC
  8
_0-4_DIM
  6
CONTINUOUS
 62
    3
 10
176.40535949999992
 20
157.75800487854696
 40
0.2
 50
0
 51
90
  0
ARC
  8
_0-4_DIM
  6
CONTINUOUS
 62
    3
 10
180.06117149999992
 20
137.09439187854676
 40
1.544189
 50
332.09895399999982
 51
359.999931
  0
ARC
  8
_0-4_DIM
  6
CONTINUOUS
 62
    3
 10
179.60051349999981
 20
137.33830787854694
 40
2.0654379999999981
 50
308.03531299999992
 51
332.09895399999982
  0
ARC
  8
_0-4_DIM
  6
CONTINUOUS
 62
    3
 10
179.3008155
 20
137.72141787854676
 40
2.5518450000000001
 50
287.95380699999993
 51
308.03530499999982
  0
ARC
  8
_0-4_DIM
  6
CONTINUOUS
 62
    3
 10
179.10535549999992
 20
138.32461787854695
 40
3.1859229999999981
 50
270.00007199999988
 51
287.95389999999992
  0
ARC
  8
_0-4_DIM
  6
CONTINUOUS
 62
    3
 10
179.10535849999991
 20
135.86416187854687
 40
3.1859220000000001
 50
72.046156999999994
 51
89.999984999999981
  0
ARC
  8
_0-4_DIM
  6
CONTINUOUS
 62
    3
 10
179.30081250000001
 20
136.46736187854685
 40
2.5518469999999991
 50
51.964638000000001
 51
72.046137000000002
  0
ARC
  8
_0-4_DIM
  6
CONTINUOUS
 62
    3
 10
179.60051549999991
 20
136.85047087854696
 40
2.065436
 50
27.901088000000001
 51
51.96473000000001
  0
ARC
  8
_0-4_DIM
  6
CONTINUOUS
 62
    3
 10
180.06117149999992
 20
137.09438787854685
 40
1.544189
 50
0.000069
 51
27.901046000000001
  0
ARC
  8
_0-4_DIM
  6
CONTINUOUS
 62
    3
 10
179.10535849999991
 20
136.33329387854695
 40
3.1859220000000001
 50
72.046156999999994
 51
89.999984999999981
  0
ARC
  8
_0-4_DIM
  6
CONTINUOUS
 62
    3
 10
179.30081250000001
 20
136.93649387854686
 40
2.5518469999999991
 50
51.964638000000001
 51
72.046137000000002
  0
ARC
  8
_0-4_DIM
  6
CONTINUOUS
 62
    3
 10
179.60051549999991
 20
137.31960287854676
 40
2.065436
 50
27.901088000000001
 51
51.96473000000001
  0
ARC
  8
_0-4_DIM
  6
CONTINUOUS
 62
    3
 10
180.06117149999992
 20
137.56351987854686
 40
1.544189
 50
0.000069
 51
27.901046000000001
  0
ARC
  8
_0-4_DIM
  6
CONTINUOUS
 62
    3
 10
178.7161155
 20
137.09438887854697
 40
0.8107559999999999
 50
153.175974
 51
179.99993599999991
  0
ARC
  8
_0-4_DIM
  6
CONTINUOUS
 62
    3
 10
178.90404750000002
 20
136.99935987854676
 40
1.021347999999999
 50
129.32274599999991
 51
153.1760219999999
  0
ARC
  8
_0-4_DIM
  6
CONTINUOUS
 62
    3
 10
179.02597750000001
 20
136.85050887854686
 40
1.213762999999999
 50
108.742315
 51
129.3226949999999
  0
ARC
  8
_0-4_DIM
  6
CONTINUOUS
 62
    3
 10
179.10536050000002
 20
136.61654387854696
 40
1.460828
 50
90.000011999999984
 51
108.74219599999979
  0
ARC
  8
_0-4_DIM
  6
CONTINUOUS
 62
    3
 10
179.10535949999979
 20
136.61654087854686
 40
1.4608309999999991
 50
71.257823000000016
 51
90.000007999999994
  0
ARC
  8
_0-4_DIM
  6
CONTINUOUS
 62
    3
 10
179.18474249999991
 20
136.85051187854685
 40
1.2137599999999991
 50
50.677240999999988
 51
71.257621
  0
ARC
  8
_0-4_DIM
  6
CONTINUOUS
 62
    3
 10
179.30667249999999
 20
136.99935687854696
 40
1.0213499999999991
 50
26.824084000000003
 51
50.677359000000003
  0
ARC
  8
_0-4_DIM
  6
CONTINUOUS
 62
    3
 10
179.49460450000001
 20
137.09439087854696
 40
0.8107549999999998
 50
359.99991599999998
 51
26.823878000000025
  0
ARC
  8
_0-4_DIM
  6
CONTINUOUS
 62
    3
 10
179.49460250000001
 20
137.09438787854685
 40
0.8107569999999999
 50
333.17615699999982
 51
0.0001189999999998
  0
ARC
  8
_0-4_DIM
  6
CONTINUOUS
 62
    3
 10
179.30667249999999
 20
137.18942187854697
 40
1.0213499999999991
 50
309.32264099999992
 51
333.17591599999992
  0
ARC
  8
_0-4_DIM
  6
CONTINUOUS
 62
    3
 10
179.18474450000002
 20
137.33826787854696
 40
1.213759
 50
288.74226399999998
 51
309.32264300000008
  0
ARC
  8
_0-4_DIM
  6
CONTINUOUS
 62
    3
 10
179.1053564999998
 20
137.57223787854696
 40
1.4608309999999991
 50
270.000111
 51
288.74229600000001
  0
ARC
  8
_0-4_DIM
  6
CONTINUOUS
 62
    3
 10
179.10536350000001
 20
137.57223487854696
 40
1.460828
 50
251.25768500000004
 51
269.99986999999999
  0
ARC
  8
_0-4_DIM
  6
CONTINUOUS
 62
    3
 10
179.02597550000002
 20
137.33826987854695
 40
1.2137610000000001
 50
230.6774209999999
 51
251.25779999999992
  0
ARC
  8
_0-4_DIM
  6
CONTINUOUS
 62
    3
 10
178.90404750000002
 20
137.18941987854686
 40
1.021347999999999
 50
206.82397800000001
 51
230.67725399999981
  0
ARC
  8
_0-4_DIM
  6
CONTINUOUS
 62
    3
 10
178.71611749999991
 20
137.09439087854696
 40
0.8107579999999999
 50
180.00002900000004
 51
206.82399099999992
  0
ARC
  8
_0-4_DIM
  6
CONTINUOUS
 62
    3
 10
176.40535949999992
 20
138.93077487854686
 40
0.2
 50
270
 51
0
  0
ARC
  8
_0-4_DIM
  6
CONTINUOUS
 62
    3
 10
179.49460549999981
 20
137.55324487854696
 40
0.8107529999999998
 50
333.17635000000001
 51
343.56200199999989
  0
ARC
  8
_0-4_DIM
  6
CONTINUOUS
 62
    3
 10
179.30667249999999
 20
137.64828287854695
 40
1.0213499999999991
 50
309.32264099999992
 51
333.17591599999992
  0
ARC
  8
_0-4_DIM
  6
CONTINUOUS
 62
    3
 10
179.18474450000002
 20
137.79712887854686
 40
1.213759
 50
288.74226399999998
 51
309.32264300000008
  0
ARC
  8
_0-4_DIM
  6
CONTINUOUS
 62
    3
 10
179.1053564999998
 20
138.03109887854686
 40
1.4608309999999991
 50
270.000111
 51
288.74229600000001
  0
ARC
  8
_0-4_DIM
  6
CONTINUOUS
 62
    3
 10
179.10536350000001
 20
138.03109587854686
 40
1.460828
 50
251.25768500000004
 51
269.99986999999999
  0
ARC
  8
_0-4_DIM
  6
CONTINUOUS
 62
    3
 10
179.02597550000002
 20
137.79713087854685
 40
1.2137610000000001
 50
230.6774209999999
 51
251.25779999999992
  0
ARC
  8
_0-4_DIM
  6
CONTINUOUS
 62
    3
 10
178.90404750000002
 20
137.64828087854696
 40
1.021347999999999
 50
206.82397800000001
 51
230.67725399999981
  0
ARC
  8
_0-4_DIM
  6
CONTINUOUS
 62
    3
 10
178.7161145
 20
137.55324987854695
 40
0.8107549999999998
 50
196.43836099999993
 51
206.82401299999992
  0
ARC
  8
_0-4_DIM
  6
CONTINUOUS
 62
    3
 10
176.10535950000002
 20
135.04944087854696
 40
0.219012
 50
24.049925999999989
 51
90.000000000000014
  0
ARC
  8
_0-4_DIM
  6
CONTINUOUS
 62
    3
 10
176.10535950000002
 20
145.94438987854696
 40
0.2
 50
0
 51
90
  0
ARC
  8
_0-4_DIM
  6
CONTINUOUS
 62
    3
 10
176.10535950000002
 20
150.74438987854685
 40
0.2
 50
270
 51
0
  0
ARC
  8
_0-4_DIM
  6
CONTINUOUS
 62
    3
 10
88.149361500000012
 20
66.22075687854695
 40
9.0999999999999996
 50
180
 51
261.07672800000006
  0
ARC
  8
_0-4_DIM
  6
CONTINUOUS
 62
    3
 10
88.149361500000012
 20
66.22075687854695
 40
9.0999999999999996
 50
278.77650899999992
 51
180
  0
ARC
  8
_0-4_DIM
  6
CONTINUOUS
 62
    3
 10
131.65602749999999
 20
59.014219878546953
 40
1.1999999999999991
 50
21.554437
 51
89.999999999999986
  0
ARC
  8
_0-4_DIM
  6
CONTINUOUS
 62
    3
 10
131.65602749999999
 20
73.514219878546953
 40
1.1999999999999991
 50
201.55443700000004
 51
270
  0
ARC
  8
_0-4_DIM
  6
CONTINUOUS
 62
    3
 10
210.63651750000002
 20
48.560384878546955
 40
13.374772
 50
252.41204600000003
 51
287.58795400000008
  0
ARC
  8
_0-4_DIM
  6
CONTINUOUS
 62
    3
 10
210.63651750000002
 20
23.810840878546941
 40
13.374772
 50
72.412046000000018
 51
107.587954
  0
ARC
  8
_0-4_DIM
  6
CONTINUOUS
 62
    3
 10
131.65602749999999
 20
66.264219878546953
 40
6.9000000000000004
 50
159.30855199999991
 51
170.69144800000001
  0
ARC
  8
_0-4_DIM
  6
CONTINUOUS
 62
    3
 10
131.65602749999999
 20
66.264219878546953
 40
6.9000000000000004
 50
129.30855199999991
 51
140.69144800000004
  0
ARC
  8
_0-4_DIM
  6
CONTINUOUS
 62
    3
 10
131.65602749999999
 20
66.264219878546953
 40
6.9000000000000004
 50
99.308551999999992
 51
110.6914479999998
  0
ARC
  8
_0-4_DIM
  6
CONTINUOUS
 62
    3
 10
131.65602749999999
 20
66.264219878546953
 40
6.9000000000000004
 50
69.30855200000002
 51
80.691447999999994
  0
ARC
  8
_0-4_DIM
  6
CONTINUOUS
 62
    3
 10
131.65602749999999
 20
66.264219878546953
 40
6.9000000000000004
 50
39.308551999999999
 51
50.691448000000001
  0
ARC
  8
_0-4_DIM
  6
CONTINUOUS
 62
    3
 10
131.65602749999999
 20
66.264219878546953
 40
6.9000000000000004
 50
9.3085520000000006
 51
20.691448000000001
  0
ARC
  8
_0-4_DIM
  6
CONTINUOUS
 62
    3
 10
131.65602749999999
 20
66.264219878546953
 40
6.9000000000000004
 50
339.30855200000002
 51
350.69144799999992
  0
ARC
  8
_0-4_DIM
  6
CONTINUOUS
 62
    3
 10
131.65602749999999
 20
66.264219878546953
 40
6.9000000000000004
 50
309.30855200000002
 51
320.69144799999998
  0
ARC
  8
_0-4_DIM
  6
CONTINUOUS
 62
    3
 10
131.65602749999999
 20
66.264219878546953
 40
6.9000000000000004
 50
279.30855200000008
 51
290.69144800000004
  0
ARC
  8
_0-4_DIM
  6
CONTINUOUS
 62
    3
 10
131.65602749999999
 20
66.264219878546953
 40
6.9000000000000004
 50
249.30855199999999
 51
260.69144799999992
  0
ARC
  8
_0-4_DIM
  6
CONTINUOUS
 62
    3
 10
131.65602749999999
 20
66.264219878546953
 40
6.9000000000000004
 50
219.30855199999993
 51
230.69144800000004
  0
ARC
  8
_0-4_DIM
  6
CONTINUOUS
 62
    3
 10
131.65602749999999
 20
66.264219878546953
 40
6.9000000000000004
 50
189.30855199999991
 51
200.69144799999981
  0
ARC
  8
_0-4_DIM
  6
CONTINUOUS
 62
    3
 10
125.37734350000001
 20
69.889219878546953
 40
1.1999999999999991
 50
261.55443700000001
 51
38.445563000000014
  0
ARC
  8
_0-4_DIM
  6
CONTINUOUS
 62
    3
 10
128.03102749999999
 20
72.542903878546937
 40
1.1999999999999991
 50
231.55443700000001
 51
8.4455629999999964
  0
ARC
  8
_0-4_DIM
  6
CONTINUOUS
 62
    3
 10
131.65602749999999
 20
73.514219878546953
 40
1.1999999999999991
 50
270
 51
338.44556299999999
  0
ARC
  8
_0-4_DIM
  6
CONTINUOUS
 62
    3
 10
135.28102749999999
 20
72.542903878546937
 40
1.1999999999999991
 50
171.55443700000004
 51
308.44556299999988
  0
ARC
  8
_0-4_DIM
  6
CONTINUOUS
 62
    3
 10
137.93471249999999
 20
69.889219878546953
 40
1.1999999999999991
 50
141.55443700000001
 51
278.44556299999999
  0
ARC
  8
_0-4_DIM
  6
CONTINUOUS
 62
    3
 10
138.90602749999999
 20
66.264219878546953
 40
1.1999999999999991
 50
111.55443699999999
 51
248.44556299999996
  0
ARC
  8
_0-4_DIM
  6
CONTINUOUS
 62
    3
 10
137.93471249999999
 20
62.639219878546953
 40
1.1999999999999991
 50
81.554436999999979
 51
218.44556300000002
  0
ARC
  8
_0-4_DIM
  6
CONTINUOUS
 62
    3
 10
135.28102749999999
 20
59.985535878546955
 40
1.1999999999999991
 50
51.554437000000007
 51
188.44556299999991
  0
ARC
  8
_0-4_DIM
  6
CONTINUOUS
 62
    3
 10
131.65602749999999
 20
59.014219878546953
 40
1.1999999999999991
 50
90
 51
158.44556299999991
  0
ARC
  8
_0-4_DIM
  6
CONTINUOUS
 62
    3
 10
128.03102749999999
 20
59.985535878546955
 40
1.1999999999999991
 50
351.55443700000001
 51
128.44556299999994
  0
ARC
  8
_0-4_DIM
  6
CONTINUOUS
 62
    3
 10
125.37734350000001
 20
62.639219878546953
 40
1.1999999999999991
 50
321.55443699999989
 51
98.445563000000021
  0
ARC
  8
_0-4_DIM
  6
CONTINUOUS
 62
    3
 10
124.40602750000001
 20
66.264219878546953
 40
1.1999999999999991
 50
291.55443700000001
 51
68.445562999999979
  0
ARC
  8
_0-4_DIM
  6
CONTINUOUS
 62
    3
 10
88.137845500000012
 20
66.264219878546953
 40
6.049999999999998
 50
277.59855599999992
 51
262.40144399999997
  0
ARC
  8
_0-4_DIM
  6
CONTINUOUS
 62
    3
 10
131.65602749999999
 20
66.264219878546953
 40
7.9000000000000004
 50
0
 51
90
  0
ARC
  8
_0-4_DIM
  6
CONTINUOUS
 62
    3
 10
131.65602749999999
 20
66.264219878546953
 40
7.9000000000000004
 50
270
 51
0
  0
ARC
  8
_0-4_DIM
  6
CONTINUOUS
 62
    3
 10
131.65602749999999
 20
66.264219878546953
 40
7.9000000000000004
 50
90
 51
270
  0
CIRCLE
  8
_0-4_DIM
  6
CONTINUOUS
 62
    3
 10
179.10535949999979
 20
148.34438987854696
 40
1.1999999999999991
  0
CIRCLE
  8
_0-4_DIM
  6
CONTINUOUS
 62
    3
 10
205.7553595
 20
139.09438987854696
 40
2
  0
CIRCLE
  8
_0-4_DIM
  6
CONTINUOUS
 62
    3
 10
205.7553595
 20
148.34438987854696
 40
2
  0
CIRCLE
  8
_0-4_DIM
  6
CONTINUOUS
 62
    3
 10
205.7553595
 20
157.59438887854697
 40
2
  0
CIRCLE
  8
_0-4_DIM
  6
CONTINUOUS
 62
    3
 10
215.10535949999991
 20
157.59438987854696
 40
2
  0
CIRCLE
  8
_0-4_DIM
  6
CONTINUOUS
 62
    3
 10
215.10535949999991
 20
148.34438987854696
 40
2
  0
CIRCLE
  8
_0-4_DIM
  6
CONTINUOUS
 62
    3
 10
215.10535949999991
 20
139.09438987854696
 40
2
  0
CIRCLE
  8
_0-4_DIM
  6
CONTINUOUS
 62
    3
 10
224.45535949999982
 20
139.09438887854697
 40
2
  0
CIRCLE
  8
_0-4_DIM
  6
CONTINUOUS
 62
    3
 10
224.45535949999982
 20
148.34438987854696
 40
2
  0
CIRCLE
  8
_0-4_DIM
  6
CONTINUOUS
 62
    3
 10
224.45535949999982
 20
157.59438987854696
 40
2
  0
CIRCLE
  8
_0-4_DIM
  6
CONTINUOUS
 62
    3
 10
91.805359500000009
 20
134.54438987854695
 40
0.5
  0
CIRCLE
  8
_0-4_DIM
  6
CONTINUOUS
 62
    3
 10
179.10535949999979
 20
148.34438987854696
 40
1.1999999999999991
  0
CIRCLE
  8
_0-4_DIM
  6
CONTINUOUS
 62
    3
 10
210.63651750000002
 20
66.264219878546953
 40
5.0999999999999979
  0
CIRCLE
  8
_0-4_DIM
  6
CONTINUOUS
 62
    3
 10
210.63651750000002
 20
66.264219878546953
 40
6
  0
CIRCLE
  8
_0-4_DIM
  6
CONTINUOUS
 62
    3
 10
210.63651750000002
 20
66.264219878546953
 40
7
  0
TEXT
  8
_0-4_DIM
 62
    7
 10
201.03831650000001
 20
140.11233387854696
 40
2.5
 41
0.7199999999999999
 50
0
  1
3
  0
TEXT
  8
_0-4_DIM
 62
    7
 10
200.91726750000004
 20
151.20845487854695
 40
2.5
 41
0.7199999999999999
 50
0
  1
2
  0
TEXT
  8
_0-4_DIM
 62
    7
 10
200.87691849999993
 20
154.67851387854697
 40
2.5
 41
0.7199999999999999
 50
0
  1
1
  0
TEXT
  8
_0-4_DIM
 62
    7
 10
211.16604849999999
 20
136.60192487854675
 40
2.5
 41
0.7199999999999999
 50
0
  1
6
  0
TEXT
  8
_0-4_DIM
 62
    7
 10
211.20639850000003
 20
149.47342487854695
 40
2.5
 41
0.7199999999999999
 50
0
  1
5
  0
TEXT
  8
_0-4_DIM
 62
    7
 10
211.16604849999999
 20
158.30997187854686
 40
2.5
 41
0.7199999999999999
 50
0
  1
4
  0
TEXT
  8
_0-4_DIM
 62
    7
 10
228.11285150000003
 20
154.67851387854697
 40
2.5
 41
0.7199999999999999
 50
0
  1
7
  0
TEXT
  8
_0-4_DIM
 62
    7
 10
228.2742495
 20
140.11233387854696
 40
2.5
 41
0.7199999999999999
 50
0
  1
9
  0
TEXT
  8
_0-4_DIM
 62
    7
 10
228.15320050000003
 20
151.20845487854695
 40
2.5
 41
0.7199999999999999
 50
0
  1
8
  0
ARC
  8
_0-4_DIM
  6
CONTINUOUS
 62
    3
 10
203.7413884999998
 20
30.369234878546962
 40
6.8171850000000003
 50
65.253698999999997
 51
90.881376000000003
  0
ARC
  8
_0-4_DIM
  6
CONTINUOUS
 62
    3
 10
203.3853454999998
 20
43.686803878546961
 40
8.5049010000000003
 50
271.692387
 51
292.17253899999992
  0
ARC
  8
_0-4_DIM
  6
CONTINUOUS
 62
    3
 10
217.24293349999999
 20
31.735437878546946
 40
5.4643670000000002
 50
85.869635000000002
 51
117.9952909999999
  0
ARC
  8
_0-4_DIM
  6
CONTINUOUS
 62
    3
 10
217.59957450000002
 20
42.323427878546951
 40
7.1379099999999989
 50
245.83858499999991
 51
270.29648900000001
  0
LINE
  8
_0-0_0
  6
CONTINUOUS
 62
    3
 10
177.82796549999981
 20
35.819376878546933
 11
181.86941350000001
 21
35.819376878546933
  0
LINE
  8
_0-0_0
  6
CONTINUOUS
 62
    3
 10
177.82796549999981
 20
35.819376878546933
 11
177.82796549999981
 21
37.594162878546953
  0
LINE
  8
_0-0_0
  6
CONTINUOUS
 62
    3
 10
169.7450695
 20
35.819376878546933
 11
177.82796549999981
 21
35.819376878546933
  0
LINE
  8
_0-0_0
  6
CONTINUOUS
 62
    3
 10
169.7450695
 20
35.819376878546933
 11
169.7450695
 21
37.594162878546953
  0
LINE
  8
_0-0_0
  6
CONTINUOUS
 62
    3
 10
181.86941350000001
 20
37.594162878546953
 11
181.86941350000001
 21
35.819376878546933
  0
LINE
  8
_0-0_0
  6
CONTINUOUS
 62
    3
 10
180.78651050000002
 20
38.219376878546953
 11
181.86941350000001
 21
37.594162878546953
  0
LINE
  8
_0-0_0
  6
CONTINUOUS
 62
    3
 10
166.78652450000001
 20
38.219376878546953
 11
180.78651050000002
 21
38.219376878546953
  0
LINE
  8
_0-0_0
  6
CONTINUOUS
 62
    3
 10
165.70362249999999
 20
37.594162878546953
 11
166.78652450000001
 21
38.219376878546953
  0
LINE
  8
_0-0_0
  6
CONTINUOUS
 62
    3
 10
165.70362249999999
 20
35.819376878546933
 11
165.70362249999999
 21
37.594162878546953
  0
LINE
  8
_0-0_0
  6
CONTINUOUS
 62
    3
 10
165.70362249999999
 20
35.819376878546933
 11
169.7450695
 21
35.819376878546933
  0
LINE
  8
_0-0_0
  6
CONTINUOUS
 62
    3
 10
177.82796949999999
 20
59.264219878546953
 11
181.86942149999993
 21
66.264219878546953
  0
LINE
  8
_0-0_0
  6
CONTINUOUS
 62
    3
 10
169.74506550000001
 20
59.264219878546953
 11
177.82796949999999
 21
59.264219878546953
  0
LINE
  8
_0-0_0
  6
CONTINUOUS
 62
    3
 10
165.70361450000001
 20
66.264219878546953
 11
169.74506550000001
 21
59.264219878546953
  0
LINE
  8
_0-0_0
  6
CONTINUOUS
 62
    3
 10
169.74506550000001
 20
73.264219878546953
 11
165.70361450000001
 21
66.264219878546953
  0
LINE
  8
_0-0_0
  6
CONTINUOUS
 62
    3
 10
177.82796949999999
 20
73.264219878546953
 11
169.74506550000001
 21
73.264219878546953
  0
LINE
  8
_0-0_0
  6
CONTINUOUS
 62
    3
 10
181.86942149999993
 20
66.264219878546953
 11
177.82796949999999
 21
73.264219878546953
  0
ARC
  8
_0-0_0
  6
CONTINUOUS
 62
    3
 10
173.78651749999992
 20
24.84460487854696
 40
13.374772
 50
72.412046000000018
 51
107.587954
  0
CIRCLE
  8
_0-0_0
  6
CONTINUOUS
 62
    3
 10
173.78651749999992
 20
66.264219878546953
 40
5.0999999999999979
  0
CIRCLE
  8
_0-0_0
  6
CONTINUOUS
 62
    3
 10
173.78651749999992
 20
66.264219878546953
 40
6
  0
CIRCLE
  8
_0-0_0
  6
CONTINUOUS
 62
    3
 10
173.78651749999992
 20
66.264219878546953
 40
7
  0
ARC
  8
_0-0_0
  6
CONTINUOUS
 62
    3
 10
181.0985574999998
 20
29.430157878546936
 40
8.7947570000000006
 50
92.033334999999994
 51
111.83159000000001
  0
ARC
  8
_0-0_0
  6
CONTINUOUS
 62
    3
 10
166.91584650000001
 20
31.518733878546939
 40
6.7018909999999989
 50
65.029409999999984
 51
91.105665000000016
  0
LINE
  8
_0-0_0
  6
CONTINUOUS
 62
    3
 10
98.805359499999994
 20
152.38584187854696
 11
91.805359500000009
 21
156.42729287854695
  0
LINE
  8
_0-0_0
  6
CONTINUOUS
 62
    3
 10
91.805359500000009
 20
156.42729287854695
 11
84.805359500000009
 21
152.38584187854696
  0
LINE
  8
_0-0_0
  6
CONTINUOUS
 62
    3
 10
84.805359500000009
 20
152.38584187854696
 11
84.805359500000009
 21
144.30293787854686
  0
LINE
  8
_0-0_0
  6
CONTINUOUS
 62
    3
 10
84.805359500000009
 20
144.30293787854686
 11
91.805359500000009
 21
140.26148587854686
  0
LINE
  8
_0-0_0
  6
CONTINUOUS
 62
    3
 10
91.805359500000009
 20
140.26148587854686
 11
98.805359499999994
 21
144.30293787854686
  0
LINE
  8
_0-0_0
  6
CONTINUOUS
 62
    3
 10
98.805359499999994
 20
144.30293787854686
 11
98.805359499999994
 21
152.38584187854696
  0
LINE
  8
_0-0_0
  6
CONTINUOUS
 62
    3
 10
90.880359500000012
 20
143.44438987854696
 11
90.880359500000012
 21
142.41612087854696
  0
LINE
  8
_0-0_0
  6
CONTINUOUS
 62
    3
 10
92.73035950000002
 20
143.44438987854696
 11
92.73035950000002
 21
142.41612087854696
  0
LINE
  8
_0-0_0
  6
CONTINUOUS
 62
    3
 10
90.880359500000012
 20
143.44438987854696
 11
92.73035950000002
 21
143.44438987854696
  0
LINE
  8
_0-0_0
  6
CONTINUOUS
 62
    3
 10
89.594385500000016
 20
147.92714287854696
 11
88.808261500000015
 21
152.09278687854695
  0
LINE
  8
_0-0_0
  6
CONTINUOUS
 62
    3
 10
94.016332500000004
 20
147.92714287854696
 11
94.802456500000005
 21
152.09278687854695
  0
ARC
  8
_0-0_0
  6
CONTINUOUS
 62
    3
 10
91.805359500000009
 20
148.34438987854696
 40
7
 50
105.109381
 51
74.890619000000072
  0
ARC
  8
_0-0_0
  6
CONTINUOUS
 62
    3
 10
91.805359500000009
 20
152.65838687854696
 40
3.049999999999998
 50
349.31304700000004
 51
190.68695299999993
  0
ARC
  8
_0-0_0
  6
CONTINUOUS
 62
    3
 10
91.805359500000009
 20
148.34438987854696
 40
2.25
 50
190.6869529999999
 51
349.31304699999998
  0
ARC
  8
_0-0_0
  6
CONTINUOUS
 62
    3
 10
91.805359500000009
 20
148.34438987854696
 40
6
 50
118.92963600000002
 51
61.070363999999984
  0
ARC
  8
_0-0_0
  6
CONTINUOUS
 62
    3
 10
91.805359500000009
 20
148.34438987854696
 40
5
 50
127.31891400000002
 51
259.33886799999988
  0
ARC
  8
_0-0_0
  6
CONTINUOUS
 62
    3
 10
91.805359500000009
 20
148.34438987854696
 40
4.8499999999999979
 50
128.31988200000004
 51
51.68011800000005
  0
ARC
  8
_0-0_0
  6
CONTINUOUS
 62
    3
 10
91.805359500000009
 20
148.34438987854696
 40
4
 50
134.915819
 51
45.084181000000001
  0
ARC
  8
_0-0_0
  6
CONTINUOUS
 62
    3
 10
91.805359500000009
 20
148.34438987854696
 40
3.5
 50
140.69215399999993
 51
39.307845999999984
  0
ARC
  8
_0-0_0
  6
CONTINUOUS
 62
    3
 10
91.805359500000009
 20
148.34438987854696
 40
5
 50
280.66113200000007
 51
52.681086000000022
  0
LINE
  8
_0-4_DIM
  6
CONTINUOUS
 62
    3
 10
98.17403250000001
 20
154.84438987854696
 11
100.80535950000001
 21
154.84438987854696
  0
LINE
  8
_0-4_DIM
  6
CONTINUOUS
 62
    3
 10
98.17403250000001
 20
141.84438987854696
 11
100.80535950000001
 21
141.84438987854696
  0
LINE
  8
_0-0_0
  6
CONTINUOUS
 62
    3
 10
127.01523650000001
 20
149.75000987854696
 11
142.30535950000001
 21
147.16769187854686
  0
LINE
  8
_0-0_0
  6
CONTINUOUS
 62
    3
 10
142.30535950000001
 20
151.79019687854696
 11
128.32222250000001
 21
155.64544087854696
  0
LINE
  8
_0-0_0
  6
CONTINUOUS
 62
    3
 10
143.05535949999998
 20
148.34438987854696
 11
143.05535949999998
 21
142.34438987854696
  0
LINE
  8
_0-0_0
  6
CONTINUOUS
 62
    3
 10
142.30535950000001
 20
143.09438987854696
 11
143.05535949999998
 21
142.34438987854696
  0
LINE
  8
_0-0_0
  6
CONTINUOUS
 62
    3
 10
142.45535950000001
 20
153.74438987854694
 11
145.8894545
 21
153.74438987854694
  0
LINE
  8
_0-0_0
  6
CONTINUOUS
 62
    3
 10
143.05535949999998
 20
154.34438987854696
 11
143.05535949999998
 21
148.34438987854696
  0
LINE
  8
_0-0_0
  6
CONTINUOUS
 62
    3
 10
143.05535949999998
 20
154.34438987854696
 11
142.30535950000001
 21
153.59438987854696
  0
LINE
  8
_0-0_0
  6
CONTINUOUS
 62
    3
 10
143.05535949999998
 20
154.34438987854696
 11
145.8903325
 21
154.34438987854696
  0
LINE
  8
_0-0_0
  6
CONTINUOUS
 62
    3
 10
145.8894545
 20
142.94438987854696
 11
142.45535950000001
 21
142.94438987854696
  0
LINE
  8
_0-0_0
  6
CONTINUOUS
 62
    3
 10
145.8894545
 20
142.34438987854696
 11
143.05535949999998
 21
142.34438987854696
  0
LINE
  8
_0-0_0
  6
CONTINUOUS
 62
    3
 10
148.28945450000001
 20
152.38583787854697
 11
146.51466850000003
 21
152.38583787854697
  0
LINE
  8
_0-0_0
  6
CONTINUOUS
 62
    3
 10
148.28945450000001
 20
144.30294287854676
 11
146.51466850000003
 21
144.30294287854676
  0
LINE
  8
_0-0_0
  6
CONTINUOUS
 62
    3
 10
146.51466850000003
 20
156.42728587854685
 11
148.28945450000001
 21
156.42728587854685
  0
LINE
  8
_0-0_0
  6
CONTINUOUS
 62
    3
 10
148.28945450000001
 20
140.26149487854696
 11
146.51466850000003
 21
140.26149487854696
  0
LINE
  8
_0-0_0
  6
CONTINUOUS
 62
    3
 10
142.30535950000001
 20
143.09438987854696
 11
142.30535950000001
 21
153.59438987854696
  0
LINE
  8
_0-0_0
  6
CONTINUOUS
 62
    3
 10
145.8894545
 20
142.34438987854696
 11
145.8903325
 21
154.34438987854696
  0
ARC
  8
_0-0_0
  6
CONTINUOUS
 62
    3
 10
128.75573549999999
 20
152.45674187854686
 40
3.5
 50
120.89800699999999
 51
214.10199299999999
  0
ARC
  8
_0-0_0
  6
CONTINUOUS
 62
    3
 10
127.85709050000001
 20
153.95838687854695
 40
1.75
 50
74.586111000000002
 51
120.89800700000002
  0
ARC
  8
_0-0_0
  6
CONTINUOUS
 62
    3
 10
127.30666350000001
 20
151.47557387854695
 40
1.75
 50
214.10199299999999
 51
260.4138890000001
  0
ARC
  8
_0-0_0
  6
CONTINUOUS
 62
    3
 10
159.26422649999989
 20
148.34438987854696
 40
13.374772
 50
162.412046
 51
197.58795399999991
  0
ARC
  8
_0-0_0
  6
CONTINUOUS
 62
    3
 10
172.75384550000001
 20
164.64552587854695
 40
28.961946000000001
 50
204.1639439999999
 51
205.04331599999986
  0
ARC
  8
_0-0_0
  6
CONTINUOUS
 62
    3
 10
154.7847835
 20
156.58566487854696
 40
9.2680760000000006
 50
201.4652889999999
 51
204.17616999999993
  0
ARC
  8
_0-0_0
  6
CONTINUOUS
 62
    3
 10
150.96416750000003
 20
155.08540687854696
 40
5.1634589999999987
 50
196.73892100000003
 51
201.48645800000003
  0
ARC
  8
_0-0_0
  6
CONTINUOUS
 62
    3
 10
149.25064650000002
 20
154.57130287854696
 40
3.374479
 50
189.70554799999991
 51
196.75918100000001
  0
ARC
  8
_0-0_0
  6
CONTINUOUS
 62
    3
 10
148.3397885
 20
154.41525087854694
 40
2.4503490000000001
 50
180.2031689999998
 51
189.699434
  0
ARC
  8
_0-0_0
  6
CONTINUOUS
 62
    3
 10
148.3397885
 20
154.39787287854696
 40
2.4503490000000001
 50
170.300566
 51
179.79683099999991
  0
ARC
  8
_0-0_0
  6
CONTINUOUS
 62
    3
 10
149.25065549999999
 20
154.24182187854686
 40
3.3744869999999989
 50
163.24084999999991
 51
170.29448300000001
  0
ARC
  8
_0-0_0
  6
CONTINUOUS
 62
    3
 10
150.9641555
 20
153.72771787854685
 40
5.1634479999999989
 50
158.513499
 51
163.26103499999999
  0
ARC
  8
_0-0_0
  6
CONTINUOUS
 62
    3
 10
154.7847835
 20
152.22745987854674
 40
9.2680760000000006
 50
155.82382999999999
 51
158.53471099999987
  0
ARC
  8
_0-0_0
  6
CONTINUOUS
 62
    3
 10
172.75384550000001
 20
144.16759887854695
 40
28.961946000000001
 50
154.95668399999991
 51
155.83605600000004
  0
ARC
  8
_0-0_0
  6
CONTINUOUS
 62
    3
 10
172.75377950000001
 20
152.52118187854686
 40
28.961887000000001
 50
204.16399799999999
 51
205.0433689999999
  0
ARC
  8
_0-0_0
  6
CONTINUOUS
 62
    3
 10
154.7847835
 20
144.46132087854696
 40
9.2680760000000006
 50
201.4652889999999
 51
204.17616999999993
  0
ARC
  8
_0-0_0
  6
CONTINUOUS
 62
    3
 10
150.96416750000003
 20
142.96106287854695
 40
5.1634589999999987
 50
196.73892100000003
 51
201.48645800000003
  0
ARC
  8
_0-0_0
  6
CONTINUOUS
 62
    3
 10
149.25065549999999
 20
142.44695987854686
 40
3.3744869999999989
 50
189.7055169999999
 51
196.75914999999986
  0
ARC
  8
_0-0_0
  6
CONTINUOUS
 62
    3
 10
148.3397885
 20
142.29090787854696
 40
2.4503490000000001
 50
180.2031689999998
 51
189.699434
  0
ARC
  8
_0-0_0
  6
CONTINUOUS
 62
    3
 10
148.33978150000002
 20
142.27352987854695
 40
2.4503430000000002
 50
170.30055400000003
 51
179.79681899999991
  0
ARC
  8
_0-0_0
  6
CONTINUOUS
 62
    3
 10
149.25065549999999
 20
142.11747787854685
 40
3.3744869999999989
 50
163.24084999999991
 51
170.29448300000001
  0
ARC
  8
_0-0_0
  6
CONTINUOUS
 62
    3
 10
150.96416750000003
 20
141.60337487854676
 40
5.1634589999999987
 50
158.513542
 51
163.261079
  0
ARC
  8
_0-0_0
  6
CONTINUOUS
 62
    3
 10
154.7847835
 20
140.10311687854696
 40
9.2680760000000006
 50
155.82382999999999
 51
158.53471099999987
  0
ARC
  8
_0-0_0
  6
CONTINUOUS
 62
    3
 10
172.75384550000001
 20
132.04325587854694
 40
28.961946000000001
 50
154.95668399999991
 51
155.83605600000004
  0
LINE
  8
_0-5_CENTER
  6
CENTER1
 62
    4
 10
207.7553595
 20
148.34438987854696
 11
217.10535949999991
 21
148.34438987854696
  0
LINE
  8
_0-5_CENTER
  6
CENTER1
 62
    4
 10
217.10535949999991
 20
157.59438987854696
 11
212.40535950000003
 21
157.59438987854696
  0
LINE
  8
_0-5_CENTER
  6
CENTER1
 62
    4
 10
217.10535949999991
 20
148.34438987854696
 11
226.45535949999993
 21
148.34438987854696
  0
LINE
  8
_0-5_CENTER
  6
CENTER1
 62
    4
 10
217.10535949999991
 20
139.09438987854696
 11
212.40535950000003
 21
139.09438987854696
  0
LINE
  8
_0-5_CENTER
  6
CENTER1
 62
    4
 10
226.45535949999993
 20
148.34438987854696
 11
231.60535950000002
 21
148.34438987854696
  0
LINE
  8
_0-5_CENTER
  6
CENTER1
 62
    4
 10
224.45535949999982
 20
145.64438987854695
 11
224.45535949999982
 21
151.04438987854695
  0
LINE
  8
_0-5_CENTER
  6
CENTER1
 62
    4
 10
205.7553595
 20
157.59438887854697
 11
207.96706950000004
 21
156.04573287854686
  0
LINE
  8
_0-5_CENTER
  6
CENTER1
 62
    4
 10
205.7553595
 20
157.59438887854697
 11
204.20670349999983
 21
155.38267887854695
  0
LINE
  8
_0-5_CENTER
  6
CENTER1
 62
    4
 10
205.7553595
 20
151.04438987854695
 11
205.7553595
 21
145.64438987854695
  0
LINE
  8
_0-5_CENTER
  6
CENTER1
 62
    4
 10
179.10535949999979
 20
145.64438987854695
 11
179.10535949999979
 21
151.04438987854695
  0
LINE
  8
_0-5_CENTER
  6
CENTER1
 62
    4
 10
215.10535949999991
 20
166.74438987854685
 11
215.10535949999991
 21
129.94438987854696
  0
LINE
  8
_0-5_CENTER
  6
CENTER1
 62
    4
 10
198.60535949999991
 20
148.34438987854696
 11
207.7553595
 21
148.34438987854696
  0
LINE
  8
_0-5_CENTER
  6
CENTER1
 62
    4
 10
203.5436484999999
 20
159.14304587854696
 11
205.7553595
 21
157.59438887854697
  0
LINE
  8
_0-5_CENTER
  6
CENTER1
 62
    4
 10
207.30401549999993
 20
159.80609987854686
 11
205.7553595
 21
157.59438887854697
  0
LINE
  8
_0-5_CENTER
  6
CENTER1
 62
    4
 10
217.80535949999989
 20
139.09438987854696
 11
217.10535949999991
 21
139.09438987854696
  0
LINE
  8
_0-5_CENTER
  6
CENTER1
 62
    4
 10
217.80535949999989
 20
157.59438987854696
 11
217.10535949999991
 21
157.59438987854696
  0
LINE
  8
_0-5_CENTER
  6
CENTER1
 62
    4
 10
226.66706950000003
 20
159.14304587854696
 11
222.24364850000001
 21
156.04573287854686
  0
LINE
  8
_0-5_CENTER
  6
CENTER1
 62
    4
 10
222.90670349999999
 20
159.80609987854686
 11
226.00401550000004
 21
155.38267887854695
  0
LINE
  8
_0-5_CENTER
  6
CENTER1
 62
    4
 10
226.66706950000003
 20
137.54573287854694
 11
222.24364850000001
 21
140.64304587854676
  0
LINE
  8
_0-5_CENTER
  6
CENTER1
 62
    4
 10
222.90670349999999
 20
136.88267887854695
 11
226.00401550000004
 21
141.30609987854686
  0
LINE
  8
_0-5_CENTER
  6
CENTER1
 62
    4
 10
207.30401549999993
 20
136.88267887854695
 11
204.20670349999983
 21
141.30609987854686
  0
LINE
  8
_0-5_CENTER
  6
CENTER1
 62
    4
 10
203.5436484999999
 20
137.54573287854694
 11
207.96706950000004
 21
140.64304587854676
  0
LINE
  8
_0-5_CENTER
  6
CENTER1
 62
    4
 10
179.10535949999979
 20
145.64439087854686
 11
179.10535949999979
 21
151.04439087854686
  0
LINE
  8
_0-5_CENTER
  6
CENTER1
 62
    4
 10
179.10535949999979
 20
157.62842487854695
 11
179.10535949999979
 21
157.11140687854686
  0
LINE
  8
_0-5_CENTER
  6
CENTER1
 62
    4
 10
176.40535949999992
 20
159.59438987854696
 11
181.80535950000001
 21
159.59438987854696
  0
LINE
  8
_0-5_CENTER
  6
CENTER1
 62
    4
 10
179.10535949999979
 20
162.07737187854696
 11
179.10535949999979
 21
157.62842487854695
  0
LINE
  8
_0-5_CENTER
  6
CENTER1
 62
    4
 10
176.40535949999992
 20
137.09438987854696
 11
181.80535950000001
 21
137.09438987854696
  0
LINE
  8
_0-5_CENTER
  6
CENTER1
 62
    4
 10
179.10535949999979
 20
134.61140687854686
 11
179.10535949999979
 21
139.57737187854676
  0
LINE
  8
_0-5_CENTER
  6
CENTER1
 62
    4
 10
210.63651750000002
 20
66.264219878546953
 11
210.63651750000002
 21
57.462385878546954
  0
LINE
  8
_0-5_CENTER
  6
CENTER1
 62
    4
 10
210.63651750000002
 20
66.264219878546953
 11
210.63651750000002
 21
74.715388878546946
  0
LINE
  8
_0-5_CENTER
  6
CENTER1
 62
    4
 10
210.63651750000002
 20
66.264219878546953
 11
201.0104235
 21
66.264219878546953
  0
LINE
  8
_0-5_CENTER
  6
CENTER1
 62
    4
 10
210.63651750000002
 20
66.264219878546953
 11
220.55367549999983
 21
66.264219878546953
  0
LINE
  8
_0-5_CENTER
  6
CENTER1
 62
    4
 10
131.65602749999999
 20
66.264219878546953
 11
140.62269449999999
 21
66.264219878546953
  0
LINE
  8
_0-5_CENTER
  6
CENTER1
 62
    4
 10
131.65602749999999
 20
66.264219878546953
 11
122.25023650000001
 21
66.264219878546953
  0
LINE
  8
_0-5_CENTER
  6
CENTER1
 62
    4
 10
131.65602749999999
 20
66.264219878546953
 11
131.65602749999999
 21
57.063859878546936
  0
LINE
  8
_0-5_CENTER
  6
CENTER1
 62
    4
 10
131.65602749999999
 20
66.264219878546953
 11
131.65602749999999
 21
75.166135878546953
  0
LINE
  8
_0-5_CENTER
  6
CENTER1
 62
    4
 10
88.149361500000012
 20
66.22075687854695
 11
77.673059500000008
 21
66.22075687854695
  0
LINE
  8
_0-5_CENTER
  6
CENTER1
 62
    4
 10
88.149361500000012
 20
66.22075687854695
 11
98.657289500000019
 21
66.22075687854695
  0
LINE
  8
_0-5_CENTER
  6
CENTER1
 62
    4
 10
88.149361500000012
 20
72.314208878546935
 11
88.149361500000012
 21
77.169479878546937
  0
LINE
  8
_0-5_CENTER
  6
CENTER1
 62
    4
 10
88.149361500000012
 20
66.22075687854695
 11
88.149361500000012
 21
55.402066878546961
  0
LINE
  8
_0-5_CENTER
  6
CENTER1
 62
    4
 10
88.149361500000012
 20
66.22075687854695
 11
88.149361500000012
 21
72.314208878546935
  0
LINE
  8
_0-5_CENTER
  6
CENTER1
 62
    4
 10
210.63651750000002
 20
32.841169878546935
 11
210.63651750000002
 21
39.130054878546957
  0
LINE
  8
_0-5_CENTER
  6
CENTER1
 62
    4
 10
131.65602749999999
 20
37.340621878546926
 11
131.65602749999999
 21
34.774766878546956
  0
LINE
  8
_0-5_CENTER
  6
CENTER1
 62
    4
 10
88.137845500000012
 20
39.704886878546944
 11
88.137845500000012
 21
33.892856878546951
  0
LINE
  8
_0-1_DEFPOINTS
  6
CENTER1
 62
    4
 10
91.805359500000009
 20
166.74438987854685
 11
91.805359500000009
 21
129.94438987854696
  0
LINE
  8
_0-1_DEFPOINTS
  6
CENTER1
 62
    4
 10
75.305359500000009
 20
148.34438987854696
 11
108.30535950000001
 21
148.34438987854696
  0
LINE
  8
_0-1_DEFPOINTS
  6
CENTER1
 62
    4
 10
173.78651749999992
 20
66.264219878546953
 11
173.78651749999992
 21
75.352349878546946
  0
LINE
  8
_0-1_DEFPOINTS
  6
CENTER1
 62
    4
 10
173.78651749999992
 20
66.264219878546953
 11
173.78651749999992
 21
57.610318878546948
  0
LINE
  8
_0-1_DEFPOINTS
  6
CENTER1
 62
    4
 10
173.78651749999992
 20
66.264219878546953
 11
163.77986550000003
 21
66.264219878546953
  0
LINE
  8
_0-1_DEFPOINTS
  6
CENTER1
 62
    4
 10
173.78651749999992
 20
66.264219878546953
 11
181.86942149999993
 21
66.264219878546953
  0
LINE
  8
_0-1_DEFPOINTS
  6
CENTER1
 62
    4
 10
173.78651749999992
 20
33.874934878546952
 11
173.78651749999992
 21
40.163819878546946
  0
LINE
  8
_0-1_DEFPOINTS
  6
CENTER1
 62
    4
 10
181.86942149999993
 20
66.264219878546953
 11
183.77342350000004
 21
66.264219878546953
  0
LINE
  8
_0-1_DEFPOINTS
  6
CENTER1
 62
    4
 10
117.80535950000001
 20
154.88438287854686
 11
148.30535950000001
 21
148.12269487854687
  0
LINE
  8
_0-1_DEFPOINTS
  6
CENTER1
 62
    4
 10
148.30535950000001
 20
148.56608487854686
 11
117.80535950000001
 21
141.80439687854695
  0
LINE
  8
_0-1_DEFPOINTS
  6
CENTER1
 62
    4
 10
124.80535950000001
 20
148.34438987854696
 11
123.30535950000001
 21
148.34438987854696
  0
LINE
  8
_0-5_CENTER
  6
CENTER1
 62
    4
 10
181.80535950000001
 20
148.34438987854696
 11
141.97558115017659
 21
148.34438987854696
  0
LINE
  8
_0-0_0
  6
CONTINUOUS
 62
    3
 10
148.28945450000001
 20
156.42728587854685
 11
148.28945450000001
 21
140.26149487854696
  0
LINE
  8
_0-1_DEFPOINTS
  6
CENTER1
 62
    4
 10
148.28945450000001
 20
159.98854474603601
 11
148.28945450000001
 21
135.73463114754099
  0
LINE
  8
_0-1_DEFPOINTS
  6
CENTER1
 62
    4
 10
151.88447325987639
 20
148.34438987854696
 11
124.80535950000001
 21
148.34438987854696
  0
LINE
  8
_0-1_DEFPOINTS
  6
CENTER1
 62
    4
 10
154.30535950000001
 20
138.52097938959463
 11
154.30535950000001
 21
159.48887776079278
  0
SOLID
  8
_0-2_GAIKEI
  6
CONTINUOUS
 62
    4
 10
142.35624250000001
 20
140.45215187854686
 11
141.89031749999998
 21
140.69757287854696
 12
143.05535949999998
 22
142.34438987854696
 13
143.05535949999998
 23
142.34438987854696
  0
SOLID
  8
_0-2_GAIKEI
  6
CONTINUOUS
 62
    4
 10
141.42656450000001
 20
155.53449787854686
 11
141.7900875
 21
155.91550887854694
 12
143.05535949999998
 22
154.34438987854696
 13
143.05535949999998
 23
154.34438987854696
  0
ARC
  8
_0-2_GAIKEI
  6
CONTINUOUS
 62
    4
 10
147.30535850000001
 20
148.34438987854696
 40
22.499998999999999
 50
155.8330599999999
 51
180
  0
ARC
  8
_0-2_GAIKEI
  6
CONTINUOUS
 62
    4
 10
147.30535850000001
 20
148.34438987854696
 40
22.499998999999999
 50
180
 51
196.32255499999991
  0
LINE
  8
_0-2_GAIKEI
  6
CONTINUOUS
 62
    4
 10
143.05535949999998
 20
154.34438987854696
 11
134.34094850000002
 21
162.65880187854685
  0
LINE
  8
_0-2_GAIKEI
  6
CONTINUOUS
 62
    4
 10
134.34094850000002
 20
162.65880187854685
 11
144.3847715
 21
162.65880187854685
  0
LINE
  8
_0-2_GAIKEI
  6
CONTINUOUS
 62
    4
 10
143.05535949999998
 20
142.34438987854696
 11
138.86778049999998
 21
134.39438987854686
  0
LINE
  8
_0-2_GAIKEI
  6
CONTINUOUS
 62
    4
 10
138.86778049999998
 20
134.39438987854686
 11
129.89298450000001
 21
134.39438987854686
  0
TEXT
  8
_0-2_GAIKEI
 62
    7
 10
130.2255935
 20
134.88055587854694
 40
2.5
 41
0.7199999999999999
 50
0
  1
キーミゾ
  0
TEXT
  8
_0-2_GAIKEI
 62
    7
 10
135.22467750000001
 20
163.42757187854696
 40
2.5
 41
0.7199999999999999
 50
0
  1
M12P1
  0
LINE
  8
_0-2_GAIKEI
  6
CONTINUOUS
 62
    4
 10
116.8290635
 20
155.10082287854686
 11
114.45124150000001
 21
155.62797287854696
  0
LINE
  8
_0-2_GAIKEI
  6
CONTINUOUS
 62
    4
 10
116.8290635
 20
141.58795787854686
 11
114.45124150000001
 21
141.06080687854686
  0
ARC
  8
_0-2_GAIKEI
  6
CONTINUOUS
 62
    4
 10
147.30535850000001
 20
148.34438987854696
 40
32.65179899999999
 50
171.01005000000001
 51
188.98994999999999
  0
SOLID
  8
_0-2_GAIKEI
  6
CONTINUOUS
 62
    4
 10
114.72717249999999
 20
153.50874587854696
 11
115.38215050000001
 21
153.38445387854685
 12
115.4275375
 22
155.41153387854686
 13
115.4275375
 23
155.41153387854686
  0
SOLID
  8
_0-2_GAIKEI
  6
CONTINUOUS
 62
    4
 10
115.38215050000001
 20
143.30432587854676
 11
114.72717249999999
 21
143.18003387854696
 12
115.4275375
 22
141.27724687854686
 13
115.4275375
 23
141.27724687854686
  0
TEXT
  8
_0-2_GAIKEI
 62
    7
 10
113.6535585
 20
147.62438987854696
 40
2.5
 41
0.7199999999999999
 50
90
  1
α
  0
INSERT
  2
-003-_D5
  8
_0-2_GAIKEI
 10
55.372265500000012
 20
-9.9826391214530474
 41
0.5
 42
0.5
 50
0
  0
INSERT
  2
-002-_D4
  8
_0-2_GAIKEI
 10
55.372265500000012
 20
-9.9826391214530474
 41
0.5
 42
0.5
 50
0
  0
TEXT
  8
_0-2_GAIKEI
 62
    7
 10
172.69291349999992
 20
53.236672878546955
 40
2.5
 41
0.7199999999999999
 50
0
  1
M12P1
  0
SOLID
  8
_0-2_GAIKEI
  6
CONTINUOUS
 62
    4
 10
175.55846649999989
 20
69.859984878546953
 11
175.07182750000001
 21
70.061232878546932
 12
176.07946149999992
 22
71.808803878546954
 13
176.07946149999992
 23
71.808803878546954
  0
SOLID
  8
_0-2_GAIKEI
  6
CONTINUOUS
 62
    4
 10
172.01456949999999
 20
62.668454878546953
 11
172.50120849999979
 21
62.467206878546932
 12
171.49357450000002
 22
60.719635878546953
 13
171.49357450000002
 23
60.719635878546953
  0
LINE
  8
_0-2_GAIKEI
  6
CONTINUOUS
 62
    4
 10
168.19224750000001
 20
52.736672878546955
 11
181.4163074999999
 21
52.736672878546955
  0
LINE
  8
_0-2_GAIKEI
  6
CONTINUOUS
 62
    4
 10
176.07946149999992
 20
71.808803878546954
 11
168.19224750000001
 21
52.736672878546955
  0
TEXT
  8
_0-2_GAIKEI
 62
    7
 10
154.91657050000001
 20
73.335858878546929
 40
3
 41
0.712
 50
0
  1
六角ナット
  0
INSERT
  2
-009-_D11
  8
_0-2_GAIKEI
 10
55.372265500000012
 20
-9.9826391214530474
 41
0.5
 42
0.5
 50
0
  0
INSERT
  2
-012-_D14
  8
_0-2_GAIKEI
 10
55.372265500000012
 20
-9.9826391214530474
 41
0.5
 42
0.5
 50
0
  0
ENDSEC
  0
EOF
