  0
SECTION
  2
HEADER
  9
$ACADVER
  1
AC1009
  9
$INSBASE
 10
0.0
 20
0.0
 30
0.0
  9
$EXTMIN
 10
10.016014999999991
 20
34.707386999999997
 30
0.0
  9
$EXTMAX
 10
170.0634509999999
 20
182.08976423851041
 30
0.001526
  9
$LIMMIN
 10
0.0
 20
0.0
  9
$LIMMAX
 10
200.0
 20
200.0
  9
$ORTHOMODE
 70
     0
  9
$REGENMODE
 70
     1
  9
$FILLMODE
 70
     1
  9
$QTEXTMODE
 70
     0
  9
$MIRRTEXT
 70
     1
  9
$DRAGMODE
 70
     2
  9
$LTSCALE
 40
0.2
  9
$OSMODE
 70
    37
  9
$ATTMODE
 70
     1
  9
$TEXTSIZE
 40
2.0
  9
$TRACEWID
 40
1.0
  9
$TEXTSTYLE
  7
STANDARD
  9
$CLAYER
  8
0
  9
$CELTYPE
  6
BYLAYER
  9
$CECOLOR
 62
   256
  9
$DIMSCALE
 40
2.0
  9
$DIMASZ
 40
1.0
  9
$DIMEXO
 40
0.5
  9
$DIMDLI
 40
0.5
  9
$DIMRND
 40
0.0
  9
$DIMDLE
 40
0.0
  9
$DIMEXE
 40
0.5
  9
$DIMTP
 40
0.0
  9
$DIMTM
 40
0.0
  9
$DIMTXT
 40
1.25
  9
$DIMCEN
 40
0.09
  9
$DIMTSZ
 40
0.0
  9
$DIMTOL
 70
     0
  9
$DIMLIM
 70
     0
  9
$DIMTIH
 70
     0
  9
$DIMTOH
 70
     0
  9
$DIMSE1
 70
     0
  9
$DIMSE2
 70
     0
  9
$DIMTAD
 70
     3
  9
$DIMZIN
 70
     8
  9
$DIMBLK
  1

  9
$DIMASO
 70
     1
  9
$DIMSHO
 70
     1
  9
$DIMPOST
  1

  9
$DIMAPOST
  1

  9
$DIMALT
 70
     0
  9
$DIMALTD
 70
     4
  9
$DIMALTF
 40
0.0394
  9
$DIMLFAC
 40
1.0
  9
$DIMTOFL
 70
     1
  9
$DIMTVP
 40
0.0
  9
$DIMTIX
 70
     0
  9
$DIMSOXD
 70
     0
  9
$DIMSAH
 70
     0
  9
$DIMBLK1
  1

  9
$DIMBLK2
  1

  9
$DIMSTYLE
  2
STANDARD
  9
$DIMCLRD
 70
   256
  9
$DIMCLRE
 70
   256
  9
$DIMCLRT
 70
     0
  9
$DIMTFAC
 40
0.8
  9
$DIMGAP
 40
0.5
  9
$LUNITS
 70
     2
  9
$LUPREC
 70
     4
  9
$SKETCHINC
 40
1.0
  9
$FILLETRAD
 40
10.0
  9
$AUNITS
 70
     0
  9
$AUPREC
 70
     0
  9
$MENU
  1
acad
  9
$ELEVATION
 40
0.0
  9
$PELEVATION
 40
0.0
  9
$THICKNESS
 40
0.0
  9
$LIMCHECK
 70
     0
  9
$BLIPMODE
 70
     0
  9
$CHAMFERA
 40
10.0
  9
$CHAMFERB
 40
10.0
  9
$SKPOLY
 70
     0
  9
$TDCREATE
 40
2452237.8300900459
  9
$TDUPDATE
 40
2453094.5914720711
  9
$TDINDWG
 40
0.0272792708
  9
$TDUSRTIMER
 40
0.0272792708
  9
$USRTIMER
 70
     1
  9
$ANGBASE
 50
0.0
  9
$ANGDIR
 70
     0
  9
$PDMODE
 70
     0
  9
$PDSIZE
 40
0.0
  9
$PLINEWID
 40
0.0
  9
$COORDS
 70
     1
  9
$SPLFRAME
 70
     0
  9
$SPLINETYPE
 70
     6
  9
$SPLINESEGS
 70
     8
  9
$ATTDIA
 70
     0
  9
$ATTREQ
 70
     1
  9
$HANDLING
 70
-16383
  9
$HANDSEED
  5
18F2
  9
$SURFTAB1
 70
     6
  9
$SURFTAB2
 70
     6
  9
$SURFTYPE
 70
     6
  9
$SURFU
 70
     6
  9
$SURFV
 70
     6
  9
$UCSNAME
  2

  9
$UCSORG
 10
0.0
 20
0.0
 30
0.0
  9
$UCSXDIR
 10
1.0
 20
0.0
 30
0.0
  9
$UCSYDIR
 10
0.0
 20
1.0
 30
0.0
  9
$PUCSNAME
  2

  9
$PUCSORG
 10
0.0
 20
0.0
 30
0.0
  9
$PUCSXDIR
 10
1.0
 20
0.0
 30
0.0
  9
$PUCSYDIR
 10
0.0
 20
1.0
 30
0.0
  9
$USERI1
 70
     0
  9
$USERI2
 70
     0
  9
$USERI3
 70
     0
  9
$USERI4
 70
     0
  9
$USERI5
 70
     0
  9
$USERR1
 40
0.0
  9
$USERR2
 40
0.0
  9
$USERR3
 40
0.0
  9
$USERR4
 40
0.0
  9
$USERR5
 40
0.0
  9
$WORLDVIEW
 70
     1
  9
$SHADEDGE
 70
     3
  9
$SHADEDIF
 70
    70
  9
$TILEMODE
 70
     1
  9
$MAXACTVP
 70
    16
  9
$PLIMCHECK
 70
     0
  9
$PEXTMIN
 10
1.0000000000000000E+020
 20
1.0000000000000000E+020
 30
1.0000000000000000E+020
  9
$PEXTMAX
 10
-1.0000000000000000E+020
 20
-1.0000000000000000E+020
 30
-1.0000000000000000E+020
  9
$PLIMMIN
 10
0.0
 20
0.0
  9
$PLIMMAX
 10
420.0
 20
297.0
  9
$UNITMODE
 70
     0
  9
$VISRETAIN
 70
     1
  9
$PLINEGEN
 70
     0
  9
$PSLTSCALE
 70
     1
  0
ENDSEC
  0
SECTION
  2
TABLES
  0
TABLE
  2
VPORT
 70
     2
  0
VPORT
  2
*ACTIVE
 70
     0
 10
0.0
 20
0.0
 11
1.0
 21
1.0
 12
90.036011196249149
 22
108.7156000088176
 13
0.0
 23
0.0
 14
10.0
 24
10.0
 15
10.0
 25
10.0
 16
0.0
 26
0.0
 36
1.0
 17
0.0
 27
0.0
 37
0.0
 40
149.2991237682084
 41
1.701818181818181
 42
50.0
 43
0.0
 44
0.0
 50
0.0
 51
0.0
 71
     0
 72
   100
 73
     1
 74
     1
 75
     0
 76
     0
 77
     0
 78
     0
  0
ENDTAB
  0
TABLE
  2
LTYPE
 70
     3
  0
LTYPE
  2
CONTINUOUS
 70
     0
  3
Solid line
 72
    65
 73
     0
 40
0.0
  0
LTYPE
  2
CENTER
 70
     0
  3
Center ____ _ ____ _ ____ _ ____ _ ____ _ ____
 72
    65
 73
     4
 40
2.0
 49
1.25
 49
-0.25
 49
0.25
 49
-0.25
  0
LTYPE
  2
CENTERX4
 70
     0
  3
________  __  ________  __  ________  __  _____
 72
    65
 73
     4
 40
10.5
 49
6.0
 49
-1.5
 49
1.5
 49
-1.5
  0
ENDTAB
  0
TABLE
  2
LAYER
 70
     8
  0
LAYER
  2
0
 70
     0
 62
     7
  6
CONTINUOUS
  0
LAYER
  2
DEFPOINTS
 70
     0
 62
     7
  6
CONTINUOUS
  0
LAYER
  2
GAIKEI
 70
     0
 62
     7
  6
CONTINUOUS
  0
LAYER
  2
MOUNT
 70
     0
 62
     7
  6
CONTINUOUS
  0
LAYER
  2
DIM
 70
     0
 62
     4
  6
CONTINUOUS
  0
LAYER
  2
CENTER
 70
     0
 62
     2
  6
CENTERX4
  0
LAYER
  2
FILE
 70
     0
 62
     7
  6
CONTINUOUS
  0
LAYER
  2
MOUNT2
 70
     0
 62
     3
  6
CONTINUOUS
  0
ENDTAB
  0
TABLE
  2
STYLE
 70
     1
  0
STYLE
  2
STANDARD
 70
     0
 40
0.0
 41
0.72
 50
0.0
 71
     0
 42
2.0
  3
txt.shx
  4
extfont.shx
  0
ENDTAB
  0
TABLE
  2
VIEW
 70
     0
  0
ENDTAB
  0
TABLE
  2
UCS
 70
     0
  0
ENDTAB
  0
TABLE
  2
APPID
 70
     1
  0
APPID
  2
ACAD
 70
     0
  0
ENDTAB
  0
TABLE
  2
DIMSTYLE
 70
     2
  0
DIMSTYLE
  2
STANDARD
 70
     0
  3

  4

  5

  6

  7

 40
2.0
 41
1.0
 42
0.5
 43
0.5
 44
0.5
 45
0.0
 46
0.0
 47
0.0
 48
0.0
140
1.25
141
0.09
142
0.0
143
0.0394
144
1.0
145
0.0
146
0.8
147
0.5
 71
     0
 72
     0
 73
     0
 74
     0
 75
     0
 76
     0
 77
     3
 78
     8
170
     0
171
     4
172
     1
173
     0
174
     0
175
     0
176
   256
177
   256
178
     0
  0
DIMSTYLE
  2
STANDARD-S
 70
     0
  3

  4

  5

  6

  7

 40
2.0
 41
1.0
 42
0.5
 43
0.5
 44
0.5
 45
0.0
 46
0.0
 47
0.0
 48
0.0
140
1.25
141
0.09
142
0.0
143
0.0394
144
1.0
145
0.0
146
0.8
147
0.5
 71
     0
 72
     0
 73
     0
 74
     0
 75
     0
 76
     0
 77
     3
 78
     8
170
     0
171
     4
172
     1
173
     0
174
     0
175
     0
176
   256
177
   256
178
     0
  0
ENDTAB
  0
ENDSEC
  0
SECTION
  2
BLOCKS
  0
BLOCK
  8
0
  2
$MODEL_SPACE
 70
     0
 10
0.0
 20
0.0
 30
0.0
  3
$MODEL_SPACE
  1

  0
ENDBLK
  5
14B9
  8
0
  0
BLOCK
 67
     1
  8
0
  2
$PAPER_SPACE
 70
     0
 10
0.0
 20
0.0
 30
0.0
  3
$PAPER_SPACE
  1

  0
ENDBLK
  5
14B5
 67
     1
  8
0
  0
BLOCK
  8
0
  2
*D2
 70
     1
 10
0.0
 20
0.0
 30
0.0
  3
*D2
  1

  0
LINE
  5
14D1
  8
0
  6
BYBLOCK
 10
75.942261000000002
 20
61.885993999999997
 30
0.0
 11
95.469611
 21
61.885993999999997
 31
0.0
  0
LINE
  5
14D2
  8
0
  6
BYBLOCK
 10
75.942261000000002
 20
77.68599399999998
 30
0.0
 11
95.469611
 21
77.68599399999998
 31
0.0
  0
LINE
  5
14D3
  8
0
  6
BYBLOCK
 10
94.469611000000015
 20
63.885993999999997
 30
0.0
 11
94.469611000000015
 21
75.68599399999998
 31
0.0
  0
SOLID
  5
14D4
  8
0
  6
BYBLOCK
 10
94.136278000000004
 20
63.885993999999997
 30
0.0
 11
94.802943999999997
 21
63.885993999999997
 31
0.0
 12
94.469611000000015
 22
61.885993999999997
 32
0.0
 13
94.469611000000015
 23
61.885993999999997
 33
0.0
  0
SOLID
  5
14D5
  8
0
  6
BYBLOCK
 10
94.136278000000004
 20
75.68599399999998
 30
0.0
 11
94.802943999999997
 21
75.68599399999998
 31
0.0
 12
94.469611000000015
 22
77.68599399999998
 32
0.0
 13
94.469611000000015
 23
77.68599399999998
 33
0.0
  0
TEXT
  5
14D6
  8
0
  6
BYBLOCK
 62
     0
 10
93.469610999999986
 20
67.385993999999997
 30
0.0
 40
2.5
  1
15.8
 50
90.0
 41
0.72
  0
POINT
  5
14D7
  8
DEFPOINTS
  6
BYBLOCK
 62
     0
 10
74.942261000000002
 20
61.885993999999997
 30
0.0
  0
POINT
  5
14D8
  8
DEFPOINTS
  6
BYBLOCK
 62
     0
 10
74.942261000000002
 20
77.68599399999998
 30
0.0
  0
POINT
  5
14D9
  8
DEFPOINTS
  6
BYBLOCK
 62
     0
 10
94.469611000000015
 20
77.68599399999998
 30
0.0
  0
ENDBLK
  5
14DA
  8
0
  0
BLOCK
  8
0
  2
*D3
 70
     1
 10
0.0
 20
0.0
 30
0.0
  3
*D3
  1

  0
LINE
  5
14DD
  8
0
  6
BYBLOCK
 10
21.324078
 20
39.341152000000001
 30
0.0
 11
18.905861999999981
 21
39.341152000000001
 31
0.0
  0
LINE
  5
14DE
  8
0
  6
BYBLOCK
 10
29.024077999999999
 20
42.141152000000012
 30
0.0
 11
18.905861999999981
 21
42.141152000000012
 31
0.0
  0
LINE
  5
14DF
  8
0
  6
BYBLOCK
 10
19.905861999999999
 20
37.341152000000001
 30
0.0
 11
19.905861999999999
 21
35.341152000000001
 31
0.0
  0
LINE
  5
14E0
  8
0
  6
BYBLOCK
 10
19.905861999999999
 20
44.141151999999998
 30
0.0
 11
19.905861999999999
 21
46.141151999999991
 31
0.0
  0
TEXT
  5
14E1
  8
0
  6
BYBLOCK
 62
     0
 10
17.405861999999999
 20
38.941152000000002
 30
0.0
 40
2.5
  1
2.8
 50
90.0
 41
0.72
  0
LINE
  5
14E2
  8
0
  6
BYBLOCK
 10
19.905861999999999
 20
39.341152000000001
 30
0.0
 11
19.905861999999999
 21
42.141152000000012
 31
0.0
  0
LINE
  5
14E3
  8
0
  6
BYBLOCK
 10
19.905861999999999
 20
39.341152000000001
 30
0.0
 11
19.905861999999999
 21
42.141152000000012
 31
0.0
  0
SOLID
  5
14E4
  8
0
  6
BYBLOCK
 10
19.572528999999999
 20
37.341152000000001
 30
0.0
 11
20.239194999999992
 21
37.341152000000001
 31
0.0
 12
19.905861999999999
 22
39.341152000000001
 32
0.0
 13
19.905861999999999
 23
39.341152000000001
 33
0.0
  0
SOLID
  5
14E5
  8
0
  6
BYBLOCK
 10
19.572528999999999
 20
44.141151999999998
 30
0.0
 11
20.239194999999992
 21
44.141151999999998
 31
0.0
 12
19.905861999999999
 22
42.141152000000012
 32
0.0
 13
19.905861999999999
 23
42.141152000000012
 33
0.0
  0
POINT
  5
14E6
  8
DEFPOINTS
  6
BYBLOCK
 62
     0
 10
22.324078
 20
39.341152000000001
 30
0.0
  0
POINT
  5
14E7
  8
DEFPOINTS
  6
BYBLOCK
 62
     0
 10
30.024077999999999
 20
42.141152000000012
 30
0.0
  0
POINT
  5
14E8
  8
DEFPOINTS
  6
BYBLOCK
 62
     0
 10
19.905861999999999
 20
42.141152000000012
 30
0.0
  0
ENDBLK
  5
14E9
  8
0
  0
BLOCK
  8
0
  2
*D4
 70
     1
 10
0.0
 20
0.0
 30
0.0
  3
*D4
  1

  0
LINE
  5
14EC
  8
0
  6
BYBLOCK
 10
126.1556459999999
 20
39.341152000000001
 30
0.0
 11
131.36631199999991
 21
39.341152000000001
 31
0.0
  0
LINE
  5
14ED
  8
0
  6
BYBLOCK
 10
125.072744
 20
41.741152
 30
0.0
 11
131.36631199999991
 21
41.741152
 31
0.0
  0
LINE
  5
14EE
  8
0
  6
BYBLOCK
 10
130.36631199999991
 20
37.341152000000001
 30
0.0
 11
130.36631199999991
 21
35.341152000000001
 31
0.0
  0
LINE
  5
14EF
  8
0
  6
BYBLOCK
 10
130.36631199999991
 20
43.741152
 30
0.0
 11
130.36631199999991
 21
51.341152000000001
 31
0.0
  0
LINE
  5
14F0
  8
0
  6
BYBLOCK
 10
130.36631199999991
 20
39.341152000000001
 30
0.0
 11
130.36631199999991
 21
41.741152
 31
0.0
  0
SOLID
  5
14F1
  8
0
  6
BYBLOCK
 10
130.03297900000001
 20
37.341152000000001
 30
0.0
 11
130.6996449999998
 21
37.341152000000001
 31
0.0
 12
130.36631199999991
 22
39.341152000000001
 32
0.0
 13
130.36631199999991
 23
39.341152000000001
 33
0.0
  0
SOLID
  5
14F2
  8
0
  6
BYBLOCK
 10
130.03297900000001
 20
43.741152
 30
0.0
 11
130.6996449999998
 21
43.741152
 31
0.0
 12
130.36631199999991
 22
41.741152
 32
0.0
 13
130.36631199999991
 23
41.741152
 33
0.0
  0
TEXT
  5
14F3
  8
0
  6
BYBLOCK
 62
     0
 10
129.36631199999991
 20
46.741152
 30
0.0
 40
2.5
  1
2.4
 50
90.0
 41
0.72
  0
POINT
  5
14F4
  8
DEFPOINTS
  6
BYBLOCK
 62
     0
 10
125.1556459999999
 20
39.341152000000001
 30
0.0
  0
POINT
  5
14F5
  8
DEFPOINTS
  6
BYBLOCK
 62
     0
 10
124.072744
 20
41.741152
 30
0.0
  0
POINT
  5
14F6
  8
DEFPOINTS
  6
BYBLOCK
 62
     0
 10
130.36631199999991
 20
41.741152
 30
0.0
  0
ENDBLK
  5
14F7
  8
0
  0
BLOCK
  8
0
  2
*D5
 70
     1
 10
0.0
 20
0.0
 30
0.0
  3
*D5
  1

  0
LINE
  5
14FA
  8
0
  6
BYBLOCK
 10
75.942261000000002
 20
63.735993999999991
 30
0.0
 11
90.988515000000007
 21
63.735993999999991
 31
0.0
  0
LINE
  5
14FB
  8
0
  6
BYBLOCK
 10
75.942261000000002
 20
75.835993999999999
 30
0.0
 11
90.988515000000007
 21
75.835993999999999
 31
0.0
  0
LINE
  5
14FC
  8
0
  6
BYBLOCK
 10
89.988515000000007
 20
65.735993999999991
 30
0.0
 11
89.988515000000007
 21
73.835993999999999
 31
0.0
  0
SOLID
  5
14FD
  8
0
  6
BYBLOCK
 10
89.655181999999982
 20
65.735993999999991
 30
0.0
 11
90.321848000000017
 21
65.735993999999991
 31
0.0
 12
89.988515000000007
 22
63.735993999999991
 32
0.0
 13
89.988515000000007
 23
63.735993999999991
 33
0.0
  0
SOLID
  5
14FE
  8
0
  6
BYBLOCK
 10
89.655181999999982
 20
73.835993999999999
 30
0.0
 11
90.321848000000017
 21
73.835993999999999
 31
0.0
 12
89.988515000000007
 22
75.835993999999999
 32
0.0
 13
89.988515000000007
 23
75.835993999999999
 33
0.0
  0
TEXT
  5
14FF
  8
0
  6
BYBLOCK
 62
     0
 10
88.988515000000007
 20
66.785993999999988
 30
0.0
 40
2.5
  1
ƒÓ12.1
 50
90.0
 41
0.72
  0
POINT
  5
1500
  8
DEFPOINTS
  6
BYBLOCK
 62
     0
 10
74.942261000000002
 20
63.735993999999991
 30
0.0
  0
POINT
  5
1501
  8
DEFPOINTS
  6
BYBLOCK
 62
     0
 10
74.942261000000002
 20
75.835993999999999
 30
0.0
  0
POINT
  5
1502
  8
DEFPOINTS
  6
BYBLOCK
 62
     0
 10
89.988515000000007
 20
75.835993999999999
 30
0.0
  0
ENDBLK
  5
1503
  8
0
  0
BLOCK
  8
0
  2
*D6
 70
     1
 10
0.0
 20
0.0
 30
0.0
  3
*D6
  1

  0
LINE
  5
1506
  8
0
  6
BYBLOCK
 10
32.824078
 20
43.141151999999991
 30
0.0
 11
32.824078
 21
46.90581199999999
 31
0.0
  0
LINE
  5
1507
  8
0
  6
BYBLOCK
 10
30.024077999999999
 20
43.141151999999991
 30
0.0
 11
30.024077999999999
 21
46.90581199999999
 31
0.0
  0
LINE
  5
1508
  8
0
  6
BYBLOCK
 10
34.824078
 20
45.90581199999999
 30
0.0
 11
36.824078
 21
45.90581199999999
 31
0.0
  0
LINE
  5
1509
  8
0
  6
BYBLOCK
 10
28.024077999999999
 20
45.90581199999999
 30
0.0
 11
26.024077999999989
 21
45.90581199999999
 31
0.0
  0
TEXT
  5
150A
  8
0
  6
BYBLOCK
 62
     0
 10
29.624078000000001
 20
48.40581199999999
 30
0.0
 40
2.5
  1
2.8
 41
0.72
  0
LINE
  5
150B
  8
0
  6
BYBLOCK
 10
32.824078
 20
45.90581199999999
 30
0.0
 11
30.024077999999999
 21
45.90581199999999
 31
0.0
  0
LINE
  5
150C
  8
0
  6
BYBLOCK
 10
32.824078
 20
45.90581199999999
 30
0.0
 11
30.024077999999999
 21
45.90581199999999
 31
0.0
  0
SOLID
  5
150D
  8
0
  6
BYBLOCK
 10
34.824078
 20
46.239145000000001
 30
0.0
 11
34.824078
 21
45.57247799999999
 31
0.0
 12
32.824078
 22
45.90581199999999
 32
0.0
 13
32.824078
 23
45.90581199999999
 33
0.0
  0
SOLID
  5
150E
  8
0
  6
BYBLOCK
 10
28.024077999999999
 20
46.239145000000001
 30
0.0
 11
28.024077999999999
 21
45.57247799999999
 31
0.0
 12
30.024077999999999
 22
45.90581199999999
 32
0.0
 13
30.024077999999999
 23
45.90581199999999
 33
0.0
  0
POINT
  5
150F
  8
DEFPOINTS
  6
BYBLOCK
 62
     0
 10
32.824078
 20
42.141152000000012
 30
0.0
  0
POINT
  5
1510
  8
DEFPOINTS
  6
BYBLOCK
 62
     0
 10
30.024077999999999
 20
42.141152000000012
 30
0.0
  0
POINT
  5
1511
  8
DEFPOINTS
  6
BYBLOCK
 62
     0
 10
30.024077999999999
 20
45.90581199999999
 30
0.0
  0
ENDBLK
  5
1512
  8
0
  0
BLOCK
  8
0
  2
*D7
 70
     1
 10
0.0
 20
0.0
 30
0.0
  3
*D7
  1

  0
LINE
  5
1515
  8
0
  6
BYBLOCK
 10
122.1142029999999
 20
62.785994000000002
 30
0.0
 11
131.48423500000001
 21
62.785994000000002
 31
0.0
  0
LINE
  5
1516
  8
0
  6
BYBLOCK
 10
122.1142029999999
 20
76.785994000000002
 30
0.0
 11
131.48423500000001
 21
76.785994000000002
 31
0.0
  0
LINE
  5
1517
  8
0
  6
BYBLOCK
 10
130.48423500000001
 20
64.785993999999988
 30
0.0
 11
130.48423500000001
 21
74.785994000000002
 31
0.0
  0
SOLID
  5
1518
  8
0
  6
BYBLOCK
 10
130.15090099999981
 20
64.785993999999988
 30
0.0
 11
130.81756799999991
 21
64.785993999999988
 31
0.0
 12
130.48423500000001
 22
62.785994000000002
 32
0.0
 13
130.48423500000001
 23
62.785994000000002
 33
0.0
  0
SOLID
  5
1519
  8
0
  6
BYBLOCK
 10
130.15090099999981
 20
74.785994000000002
 30
0.0
 11
130.81756799999991
 21
74.785994000000002
 31
0.0
 12
130.48423500000001
 22
76.785994000000002
 32
0.0
 13
130.48423500000001
 23
76.785994000000002
 33
0.0
  0
TEXT
  5
151A
  8
0
  6
BYBLOCK
 62
     0
 10
129.48423500000001
 20
68.585993999999999
 30
0.0
 40
2.5
  1
14
 50
90.0
 41
0.72
  0
POINT
  5
151B
  8
DEFPOINTS
  6
BYBLOCK
 62
     0
 10
121.1142029999999
 20
62.785994000000002
 30
0.0
  0
POINT
  5
151C
  8
DEFPOINTS
  6
BYBLOCK
 62
     0
 10
121.1142029999999
 20
76.785994000000002
 30
0.0
  0
POINT
  5
151D
  8
DEFPOINTS
  6
BYBLOCK
 62
     0
 10
130.48423500000001
 20
76.785994000000002
 30
0.0
  0
ENDBLK
  5
151E
  8
0
  0
BLOCK
  8
0
  2
*D8
 70
     1
 10
0.0
 20
0.0
 30
0.0
  3
*D8
  1

  0
LINE
  5
1521
  8
0
  6
BYBLOCK
 10
158.964203
 20
62.785994000000002
 30
0.0
 11
168.52885800000001
 21
62.785994000000002
 31
0.0
  0
LINE
  5
1522
  8
0
  6
BYBLOCK
 10
158.964203
 20
76.785994000000002
 30
0.0
 11
168.52885800000001
 21
76.785994000000002
 31
0.0
  0
LINE
  5
1523
  8
0
  6
BYBLOCK
 10
167.52885800000001
 20
64.785993999999988
 30
0.0
 11
167.52885800000001
 21
74.785994000000002
 31
0.0
  0
SOLID
  5
1524
  8
0
  6
BYBLOCK
 10
167.195525
 20
64.785993999999988
 30
0.0
 11
167.86219099999991
 21
64.785993999999988
 31
0.0
 12
167.52885800000001
 22
62.785994000000002
 32
0.0
 13
167.52885800000001
 23
62.785994000000002
 33
0.0
  0
SOLID
  5
1525
  8
0
  6
BYBLOCK
 10
167.195525
 20
74.785994000000002
 30
0.0
 11
167.86219099999991
 21
74.785994000000002
 31
0.0
 12
167.52885800000001
 22
76.785994000000002
 32
0.0
 13
167.52885800000001
 23
76.785994000000002
 33
0.0
  0
TEXT
  5
1526
  8
0
  6
BYBLOCK
 62
     0
 10
166.52885800000001
 20
68.585993999999999
 30
0.0
 40
2.5
  1
14
 50
90.0
 41
0.72
  0
POINT
  5
1527
  8
DEFPOINTS
  6
BYBLOCK
 62
     0
 10
157.964203
 20
62.785994000000002
 30
0.0
  0
POINT
  5
1528
  8
DEFPOINTS
  6
BYBLOCK
 62
     0
 10
157.964203
 20
76.785994000000002
 30
0.0
  0
POINT
  5
1529
  8
DEFPOINTS
  6
BYBLOCK
 62
     0
 10
167.52885800000001
 20
76.785994000000002
 30
0.0
  0
ENDBLK
  5
152A
  8
0
  0
BLOCK
  8
0
  2
*D9
 70
     1
 10
0.0
 20
0.0
 30
0.0
  3
*D9
  1

  0
LINE
  5
152D
  8
0
  6
BYBLOCK
 10
33.824078
 20
60.242531999999997
 30
0.0
 11
56.247900000000001
 21
60.242531999999997
 31
0.0
  0
LINE
  5
152E
  8
0
  6
BYBLOCK
 10
42.94352199999998
 20
69.742531999999997
 30
0.0
 11
56.247900000000001
 21
69.742531999999997
 31
0.0
  0
LINE
  5
152F
  8
0
  6
BYBLOCK
 10
55.247900000000001
 20
62.24253199999999
 30
0.0
 11
55.247900000000001
 21
67.742531999999997
 31
0.0
  0
SOLID
  5
1530
  8
0
  6
BYBLOCK
 10
54.914566999999998
 20
62.24253199999999
 30
0.0
 11
55.581232999999997
 21
62.24253199999999
 31
0.0
 12
55.247900000000001
 22
60.242531999999997
 32
0.0
 13
55.247900000000001
 23
60.242531999999997
 33
0.0
  0
SOLID
  5
1531
  8
0
  6
BYBLOCK
 10
54.914566999999998
 20
67.742531999999997
 30
0.0
 11
55.581232999999997
 21
67.742531999999997
 31
0.0
 12
55.247900000000001
 22
69.742531999999997
 32
0.0
 13
55.247900000000001
 23
69.742531999999997
 33
0.0
  0
TEXT
  5
1532
  8
0
  6
BYBLOCK
 62
     0
 10
54.247900000000001
 20
63.192531999999993
 30
0.0
 40
2.5
  1
9.5
 50
90.0
 41
0.72
  0
POINT
  5
1533
  8
DEFPOINTS
  6
BYBLOCK
 62
     0
 10
32.824078
 20
60.242531999999997
 30
0.0
  0
POINT
  5
1534
  8
DEFPOINTS
  6
BYBLOCK
 62
     0
 10
41.943521999999987
 20
69.742531999999997
 30
0.0
  0
POINT
  5
1535
  8
DEFPOINTS
  6
BYBLOCK
 62
     0
 10
55.247900000000001
 20
69.742531999999997
 30
0.0
  0
ENDBLK
  5
1536
  8
0
  0
BLOCK
  8
0
  2
*D10
 70
     1
 10
0.0
 20
0.0
 30
0.0
  3
*D10
  1

  0
LINE
  5
1539
  8
0
  6
BYBLOCK
 10
95.517617000000001
 20
135.16098700000001
 30
0.0
 11
95.517617000000001
 21
119.51859399999999
 31
0.0
  0
LINE
  5
153A
  8
0
  6
BYBLOCK
 10
83.517617000000001
 20
145.36098699999999
 30
0.0
 11
83.517617000000001
 21
119.51859399999999
 31
0.0
  0
LINE
  5
153B
  8
0
  6
BYBLOCK
 10
93.517617000000001
 20
120.51859399999999
 30
0.0
 11
85.517617000000001
 21
120.51859399999999
 31
0.0
  0
SOLID
  5
153C
  8
0
  6
BYBLOCK
 10
93.517617000000001
 20
120.8519279999999
 30
0.0
 11
93.517617000000001
 21
120.185261
 31
0.0
 12
95.517617000000001
 22
120.51859399999999
 32
0.0
 13
95.517617000000001
 23
120.51859399999999
 33
0.0
  0
SOLID
  5
153D
  8
0
  6
BYBLOCK
 10
85.517617000000001
 20
120.8519279999999
 30
0.0
 11
85.517617000000001
 21
120.185261
 31
0.0
 12
83.517617000000001
 22
120.51859399999999
 32
0.0
 13
83.517617000000001
 23
120.51859399999999
 33
0.0
  0
TEXT
  5
153E
  8
0
  6
BYBLOCK
 62
     0
 10
88.317616999999984
 20
121.51859399999999
 30
0.0
 40
2.5
  1
12
 41
0.72
  0
POINT
  5
153F
  8
DEFPOINTS
  6
BYBLOCK
 62
     0
 10
95.517617000000001
 20
136.16098700000001
 30
0.0
  0
POINT
  5
1540
  8
DEFPOINTS
  6
BYBLOCK
 62
     0
 10
83.517617000000001
 20
146.36098699999991
 30
0.0
  0
POINT
  5
1541
  8
DEFPOINTS
  6
BYBLOCK
 62
     0
 10
83.517617000000001
 20
120.51859399999999
 30
0.0
  0
ENDBLK
  5
1542
  8
0
  0
BLOCK
  8
0
  2
*D11
 70
     1
 10
0.0
 20
0.0
 30
0.0
  3
*D11
  1

  0
LINE
  5
1545
  8
0
  6
BYBLOCK
 10
83.517617000000001
 20
145.36098699999999
 30
0.0
 11
83.517617000000001
 21
119.51859399999999
 31
0.0
  0
LINE
  5
1546
  8
0
  6
BYBLOCK
 10
66.017617000000001
 20
151.06098700000001
 30
0.0
 11
66.017617000000001
 21
119.51859399999999
 31
0.0
  0
LINE
  5
1547
  8
0
  6
BYBLOCK
 10
81.517616999999987
 20
120.51859399999999
 30
0.0
 11
68.017617000000001
 21
120.51859399999999
 31
0.0
  0
SOLID
  5
1548
  8
0
  6
BYBLOCK
 10
81.517616999999987
 20
120.8519279999999
 30
0.0
 11
81.517616999999987
 21
120.185261
 31
0.0
 12
83.517617000000001
 22
120.51859399999999
 32
0.0
 13
83.517617000000001
 23
120.51859399999999
 33
0.0
  0
SOLID
  5
1549
  8
0
  6
BYBLOCK
 10
68.017617000000001
 20
120.8519279999999
 30
0.0
 11
68.017617000000001
 21
120.185261
 31
0.0
 12
66.017617000000001
 22
120.51859399999999
 32
0.0
 13
66.017617000000001
 23
120.51859399999999
 33
0.0
  0
TEXT
  5
154A
  8
0
  6
BYBLOCK
 62
     0
 10
72.367617000000024
 20
121.51859399999999
 30
0.0
 40
2.5
  1
17.5
 41
0.72
  0
POINT
  5
154B
  8
DEFPOINTS
  6
BYBLOCK
 62
     0
 10
83.517617000000001
 20
146.36098699999991
 30
0.0
  0
POINT
  5
154C
  8
DEFPOINTS
  6
BYBLOCK
 62
     0
 10
66.017617000000001
 20
152.06098700000001
 30
0.0
  0
POINT
  5
154D
  8
DEFPOINTS
  6
BYBLOCK
 62
     0
 10
66.017617000000001
 20
120.51859399999999
 30
0.0
  0
ENDBLK
  5
154E
  8
0
  0
BLOCK
  8
0
  2
*D12
 70
     1
 10
0.0
 20
0.0
 30
0.0
  3
*D12
  1

  0
LINE
  5
1551
  8
0
  6
BYBLOCK
 10
112.4514519999999
 20
135.4609869999999
 30
0.0
 11
128.617617
 21
135.4609869999999
 31
0.0
  0
LINE
  5
1552
  8
0
  6
BYBLOCK
 10
112.4514519999999
 20
168.66098700000001
 30
0.0
 11
128.617617
 21
168.66098700000001
 31
0.0
  0
LINE
  5
1553
  8
0
  6
BYBLOCK
 10
127.617617
 20
137.46098699999999
 30
0.0
 11
127.617617
 21
166.66098700000001
 31
0.0
  0
SOLID
  5
1554
  8
0
  6
BYBLOCK
 10
127.284283
 20
137.46098699999999
 30
0.0
 11
127.95095000000001
 21
137.46098699999999
 31
0.0
 12
127.617617
 22
135.4609869999999
 32
0.0
 13
127.617617
 23
135.4609869999999
 33
0.0
  0
SOLID
  5
1555
  8
0
  6
BYBLOCK
 10
127.284283
 20
166.66098700000001
 30
0.0
 11
127.95095000000001
 21
166.66098700000001
 31
0.0
 12
127.617617
 22
168.66098700000001
 32
0.0
 13
127.617617
 23
168.66098700000001
 33
0.0
  0
TEXT
  5
1556
  8
0
  6
BYBLOCK
 62
     0
 10
126.617617
 20
149.36098699999999
 30
0.0
 40
2.5
  1
33.2
 50
90.0
 41
0.72
  0
POINT
  5
1557
  8
DEFPOINTS
  6
BYBLOCK
 62
     0
 10
111.4514519999999
 20
135.4609869999999
 30
0.0
  0
POINT
  5
1558
  8
DEFPOINTS
  6
BYBLOCK
 62
     0
 10
111.4514519999999
 20
168.66098700000001
 30
0.0
  0
POINT
  5
1559
  8
DEFPOINTS
  6
BYBLOCK
 62
     0
 10
127.617617
 20
168.66098700000001
 30
0.0
  0
ENDBLK
  5
155A
  8
0
  0
BLOCK
  8
0
  2
*D13
 70
     1
 10
0.0
 20
0.0
 30
0.0
  3
*D13
  1

  0
LINE
  5
155D
  8
0
  6
BYBLOCK
 10
158.11761699999991
 20
134.4609869999999
 30
0.0
 11
158.11761699999991
 21
119.51859399999999
 31
0.0
  0
LINE
  5
155E
  8
0
  6
BYBLOCK
 10
139.117617
 20
134.4609869999999
 30
0.0
 11
139.117617
 21
119.51859399999999
 31
0.0
  0
LINE
  5
155F
  8
0
  6
BYBLOCK
 10
156.11761699999991
 20
120.51859399999999
 30
0.0
 11
141.117617
 21
120.51859399999999
 31
0.0
  0
SOLID
  5
1560
  8
0
  6
BYBLOCK
 10
156.11761699999991
 20
120.8519279999999
 30
0.0
 11
156.11761699999991
 21
120.185261
 31
0.0
 12
158.11761699999991
 22
120.51859399999999
 32
0.0
 13
158.11761699999991
 23
120.51859399999999
 33
0.0
  0
SOLID
  5
1561
  8
0
  6
BYBLOCK
 10
141.117617
 20
120.8519279999999
 30
0.0
 11
141.117617
 21
120.185261
 31
0.0
 12
139.117617
 22
120.51859399999999
 32
0.0
 13
139.117617
 23
120.51859399999999
 33
0.0
  0
TEXT
  5
1562
  8
0
  6
BYBLOCK
 62
     0
 10
147.41761699999981
 20
121.51859399999999
 30
0.0
 40
2.5
  1
19
 41
0.72
  0
POINT
  5
1563
  8
DEFPOINTS
  6
BYBLOCK
 62
     0
 10
158.11761699999991
 20
135.4609869999999
 30
0.0
  0
POINT
  5
1564
  8
DEFPOINTS
  6
BYBLOCK
 62
     0
 10
139.117617
 20
135.4609869999999
 30
0.0
  0
POINT
  5
1565
  8
DEFPOINTS
  6
BYBLOCK
 62
     0
 10
139.117617
 20
120.51859399999999
 30
0.0
  0
ENDBLK
  5
1566
  8
0
  0
BLOCK
  8
0
  2
*D14
 70
     1
 10
0.0
 20
0.0
 30
0.0
  3
*D14
  1

  0
LINE
  5
1569
  8
0
  6
BYBLOCK
 10
115.6176169999999
 20
141.40306599999991
 30
0.0
 11
115.6176169999999
 21
124.460987
 31
0.0
  0
LINE
  5
156A
  8
0
  6
BYBLOCK
 10
120.6176169999999
 20
162.55529199999981
 30
0.0
 11
120.6176169999999
 21
124.460987
 31
0.0
  0
LINE
  5
156B
  8
0
  6
BYBLOCK
 10
113.6176169999999
 20
125.460987
 30
0.0
 11
111.6176169999999
 21
125.460987
 31
0.0
  0
LINE
  5
156C
  8
0
  6
BYBLOCK
 10
122.617617
 20
125.460987
 30
0.0
 11
124.617617
 21
125.460987
 31
0.0
  0
LINE
  5
156D
  8
0
  6
BYBLOCK
 10
115.6176169999999
 20
125.460987
 30
0.0
 11
120.6176169999999
 21
125.460987
 31
0.0
  0
SOLID
  5
156E
  8
0
  6
BYBLOCK
 10
113.6176169999999
 20
125.7943199999999
 30
0.0
 11
113.6176169999999
 21
125.12765400000001
 31
0.0
 12
115.6176169999999
 22
125.460987
 32
0.0
 13
115.6176169999999
 23
125.460987
 33
0.0
  0
SOLID
  5
156F
  8
0
  6
BYBLOCK
 10
122.617617
 20
125.7943199999999
 30
0.0
 11
122.617617
 21
125.12765400000001
 31
0.0
 12
120.6176169999999
 22
125.460987
 32
0.0
 13
120.6176169999999
 23
125.460987
 33
0.0
  0
TEXT
  5
1570
  8
0
  6
BYBLOCK
 62
     0
 10
117.5176169999998
 20
126.460987
 30
0.0
 40
2.5
  1
5
 41
0.72
  0
POINT
  5
1571
  8
DEFPOINTS
  6
BYBLOCK
 62
     0
 10
115.6176169999999
 20
142.40306599999991
 30
0.0
  0
POINT
  5
1572
  8
DEFPOINTS
  6
BYBLOCK
 62
     0
 10
120.6176169999999
 20
163.55529199999981
 30
0.0
  0
POINT
  5
1573
  8
DEFPOINTS
  6
BYBLOCK
 62
     0
 10
120.6176169999999
 20
125.460987
 30
0.0
  0
ENDBLK
  5
1574
  8
0
  0
BLOCK
  8
0
  2
*D15
 70
     1
 10
0.0
 20
0.0
 30
0.0
  3
*D15
  1

  0
LINE
  5
1577
  8
0
  6
BYBLOCK
 10
120.6176169999999
 20
139.5666809999999
 30
0.0
 11
120.6176169999999
 21
119.51859399999999
 31
0.0
  0
LINE
  5
1578
  8
0
  6
BYBLOCK
 10
95.517617000000001
 20
135.16098700000001
 30
0.0
 11
95.517617000000001
 21
119.51859399999999
 31
0.0
  0
LINE
  5
1579
  8
0
  6
BYBLOCK
 10
118.6176169999999
 20
120.51859399999999
 30
0.0
 11
97.517617000000016
 21
120.51859399999999
 31
0.0
  0
SOLID
  5
157A
  8
0
  6
BYBLOCK
 10
118.6176169999999
 20
120.8519279999999
 30
0.0
 11
118.6176169999999
 21
120.185261
 31
0.0
 12
120.6176169999999
 22
120.51859399999999
 32
0.0
 13
120.6176169999999
 23
120.51859399999999
 33
0.0
  0
SOLID
  5
157B
  8
0
  6
BYBLOCK
 10
97.517617000000016
 20
120.8519279999999
 30
0.0
 11
97.517617000000016
 21
120.185261
 31
0.0
 12
95.517617000000001
 22
120.51859399999999
 32
0.0
 13
95.517617000000001
 23
120.51859399999999
 33
0.0
  0
TEXT
  5
157C
  8
0
  6
BYBLOCK
 62
     0
 10
105.66761700000001
 20
121.51859399999999
 30
0.0
 40
2.5
  1
25.1
 41
0.72
  0
POINT
  5
157D
  8
DEFPOINTS
  6
BYBLOCK
 62
     0
 10
120.6176169999999
 20
140.5666809999999
 30
0.0
  0
POINT
  5
157E
  8
DEFPOINTS
  6
BYBLOCK
 62
     0
 10
95.517617000000001
 20
136.16098700000001
 30
0.0
  0
POINT
  5
157F
  8
DEFPOINTS
  6
BYBLOCK
 62
     0
 10
95.517617000000001
 20
120.51859399999999
 30
0.0
  0
ENDBLK
  5
1580
  8
0
  0
BLOCK
  8
0
  2
*D16
 70
     1
 10
0.0
 20
0.0
 30
0.0
  3
*D16
  1

  0
LINE
  5
1583
  8
0
  6
BYBLOCK
 10
58.740589
 20
158.662395
 30
0.0
 11
56.366534000000001
 21
159.18871100000001
 31
0.0
  0
LINE
  5
1584
  8
0
  6
BYBLOCK
 10
58.740589
 20
145.45957899999991
 30
0.0
 11
56.366534000000001
 21
144.93326299999981
 31
0.0
  0
ARC
  5
1585
  8
0
  6
BYBLOCK
 10
88.517615000000006
 20
152.06098700000001
 30
0.0
 40
31.931694
 50
171.08923200000001
 51
188.9107679999999
  0
SOLID
  5
1586
  8
0
  6
BYBLOCK
 10
56.643780000000007
 20
157.0689999999999
 30
0.0
 11
57.298843999999988
 21
156.94516100000001
 31
0.0
 12
57.342830000000021
 22
158.97227100000001
 32
0.0
 13
57.342830000000021
 23
158.97227100000001
 33
0.0
  0
SOLID
  5
1587
  8
0
  6
BYBLOCK
 10
57.298843999999988
 20
147.17681299999981
 30
0.0
 11
56.643780000000007
 21
147.05297400000001
 31
0.0
 12
57.342830000000021
 22
145.1497029999999
 32
0.0
 13
57.342830000000021
 23
145.1497029999999
 33
0.0
  0
TEXT
  5
1588
  8
0
  6
BYBLOCK
 62
     0
 10
55.585920999999999
 20
151.34098700000001
 30
0.0
 40
2.5
  1
ƒ¿
 50
90.0
 41
0.72
  0
POINT
  5
1589
  8
DEFPOINTS
  6
BYBLOCK
 62
     0
 10
56.670318999999992
 20
154.381079
 30
-0.001526
  0
POINT
  5
158A
  8
DEFPOINTS
  6
BYBLOCK
 62
     0
 10
89.517617000000001
 20
152.2826819999998
 30
0.0
  0
POINT
  5
158B
  8
DEFPOINTS
  6
BYBLOCK
 62
     0
 10
59.716884999999991
 20
158.44595599999991
 30
0.0
  0
POINT
  5
158C
  8
DEFPOINTS
  6
BYBLOCK
 62
     0
 10
89.517617000000001
 20
151.839292
 30
0.0
  0
POINT
  5
158D
  8
DEFPOINTS
  6
BYBLOCK
 62
     0
 10
59.716884999999991
 20
145.676018
 30
0.0
  0
ENDBLK
  5
158E
  8
0
  0
BLOCK
  8
0
  2
*D17
 70
     1
 10
0.0
 20
0.0
 30
0.0
  3
*D17
  1

  0
LINE
  5
1591
  8
0
  6
BYBLOCK
 10
41.524078000000003
 20
39.341152000000001
 30
0.0
 11
48.716256999999999
 21
39.341152000000001
 31
0.0
  0
LINE
  5
1592
  8
0
  6
BYBLOCK
 10
41.524078000000003
 20
40.341152000000001
 30
0.0
 11
48.716256999999999
 21
40.341152000000001
 31
0.0
  0
LINE
  5
1593
  8
0
  6
BYBLOCK
 10
47.716256999999999
 20
37.341152000000001
 30
0.0
 11
47.716256999999999
 21
35.341152000000001
 31
0.0
  0
LINE
  5
1594
  8
0
  6
BYBLOCK
 10
47.716256999999999
 20
42.341152000000001
 30
0.0
 11
47.716256999999999
 21
46.941152000000002
 31
0.0
  0
LINE
  5
1595
  8
0
  6
BYBLOCK
 10
47.716256999999999
 20
39.341152000000001
 30
0.0
 11
47.716256999999999
 21
40.341152000000001
 31
0.0
  0
SOLID
  5
1596
  8
0
  6
BYBLOCK
 10
47.382922999999998
 20
37.341152000000001
 30
0.0
 11
48.049590000000002
 21
37.341152000000001
 31
0.0
 12
47.716256999999999
 22
39.341152000000001
 32
0.0
 13
47.716256999999999
 23
39.341152000000001
 33
0.0
  0
SOLID
  5
1597
  8
0
  6
BYBLOCK
 10
47.382922999999998
 20
42.341152000000001
 30
0.0
 11
48.049590000000002
 21
42.341152000000001
 31
0.0
 12
47.716256999999999
 22
40.341152000000001
 32
0.0
 13
47.716256999999999
 23
40.341152000000001
 33
0.0
  0
TEXT
  5
1598
  8
0
  6
BYBLOCK
 62
     0
 10
46.716256999999977
 20
45.341152000000001
 30
0.0
 40
2.5
  1
1
 50
90.0
 41
0.72
  0
POINT
  5
1599
  8
DEFPOINTS
  6
BYBLOCK
 62
     0
 10
40.524078000000003
 20
39.341152000000001
 30
0.001526
  0
POINT
  5
159A
  8
DEFPOINTS
  6
BYBLOCK
 62
     0
 10
40.524078000000003
 20
40.341152000000001
 30
0.001526
  0
POINT
  5
159B
  8
DEFPOINTS
  6
BYBLOCK
 62
     0
 10
47.716256999999999
 20
40.341152000000001
 30
0.0
  0
ENDBLK
  5
159C
  8
0
  0
BLOCK
  8
0
  2
*D18
 70
     1
 10
0.0
 20
0.0
 30
0.0
  3
*D18
  1

  0
LINE
  5
159F
  8
0
  6
BYBLOCK
 10
65.992260999999999
 20
39.322943000000002
 30
0.0
 11
61.689692000000001
 21
39.322943000000002
 31
0.0
  0
LINE
  5
15A0
  8
0
  6
BYBLOCK
 10
65.992260999999999
 20
39.822943000000002
 30
0.0
 11
61.689692000000001
 21
39.822943000000002
 31
0.0
  0
LINE
  5
15A1
  8
0
  6
BYBLOCK
 10
62.689692000000001
 20
37.322943000000002
 30
0.0
 11
62.689692000000001
 21
35.322943000000002
 31
0.0
  0
LINE
  5
15A2
  8
0
  6
BYBLOCK
 10
62.689692000000001
 20
41.822943000000002
 30
0.0
 11
62.689692000000001
 21
49.122942999999999
 31
0.0
  0
LINE
  5
15A3
  8
0
  6
BYBLOCK
 10
62.689692000000001
 20
39.322943000000002
 30
0.0
 11
62.689692000000001
 21
39.822943000000002
 31
0.0
  0
SOLID
  5
15A4
  8
0
  6
BYBLOCK
 10
62.356358999999998
 20
37.322943000000002
 30
0.0
 11
63.02302499999999
 21
37.322943000000002
 31
0.0
 12
62.689692000000001
 22
39.322943000000002
 32
0.0
 13
62.689692000000001
 23
39.322943000000002
 33
0.0
  0
SOLID
  5
15A5
  8
0
  6
BYBLOCK
 10
62.356358999999998
 20
41.822943000000002
 30
0.0
 11
63.02302499999999
 21
41.822943000000002
 31
0.0
 12
62.689692000000001
 22
39.822943000000002
 32
0.0
 13
62.689692000000001
 23
39.822943000000002
 33
0.0
  0
TEXT
  5
15A6
  8
0
  6
BYBLOCK
 62
     0
 10
61.689692000000001
 20
44.822943000000002
 30
0.0
 40
2.5
  1
0.5
 50
90.0
 41
0.72
  0
POINT
  5
15A7
  8
DEFPOINTS
  6
BYBLOCK
 62
     0
 10
66.992260999999999
 20
39.322943000000002
 30
0.001526
  0
POINT
  5
15A8
  8
DEFPOINTS
  6
BYBLOCK
 62
     0
 10
66.992260999999999
 20
39.822943000000002
 30
0.001526
  0
POINT
  5
15A9
  8
DEFPOINTS
  6
BYBLOCK
 62
     0
 10
62.689692000000001
 20
39.822943000000002
 30
0.0
  0
ENDBLK
  5
15AA
  8
0
  0
BLOCK
  8
0
  2
*D19
 70
     1
 10
0.0
 20
0.0
 30
0.0
  3
*D19
  1

  0
LINE
  5
15AD
  8
0
  6
BYBLOCK
 10
82.253333999999981
 20
38.883319999999998
 30
0.0
 11
91.185207000000005
 21
38.883319999999998
 31
0.0
  0
LINE
  5
15AE
  8
0
  6
BYBLOCK
 10
82.253333999999981
 20
40.262565000000002
 30
0.0
 11
91.185207000000005
 21
40.262565000000002
 31
0.0
  0
LINE
  5
15AF
  8
0
  6
BYBLOCK
 10
90.185207000000005
 20
36.883319999999991
 30
0.0
 11
90.185207000000005
 21
34.883319999999991
 31
0.0
  0
LINE
  5
15B0
  8
0
  6
BYBLOCK
 10
90.185207000000005
 20
42.262565000000002
 30
0.0
 11
90.185207000000005
 21
46.862564999999989
 31
0.0
  0
LINE
  5
15B1
  8
0
  6
BYBLOCK
 10
90.185207000000005
 20
38.883319999999998
 30
0.0
 11
90.185207000000005
 21
40.262565000000002
 31
0.0
  0
SOLID
  5
15B2
  8
0
  6
BYBLOCK
 10
89.851873999999995
 20
36.883319999999991
 30
0.0
 11
90.518540999999985
 21
36.883319999999991
 31
0.0
 12
90.185207000000005
 22
38.883319999999998
 32
0.0
 13
90.185207000000005
 23
38.883319999999998
 33
0.0
  0
SOLID
  5
15B3
  8
0
  6
BYBLOCK
 10
89.851873999999995
 20
42.262565000000002
 30
0.0
 11
90.518540999999985
 21
42.262565000000002
 31
0.0
 12
90.185207000000005
 22
40.262565000000002
 32
0.0
 13
90.185207000000005
 23
40.262565000000002
 33
0.0
  0
TEXT
  5
15B4
  8
0
  6
BYBLOCK
 62
     0
 10
89.185207000000005
 20
45.262565000000002
 30
0.0
 40
2.5
  1
1
 50
90.0
 41
0.72
  0
POINT
  5
15B5
  8
DEFPOINTS
  6
BYBLOCK
 62
     0
 10
81.253333999999981
 20
38.883319999999998
 30
0.001526
  0
POINT
  5
15B6
  8
DEFPOINTS
  6
BYBLOCK
 62
     0
 10
81.253333999999981
 20
40.262565000000002
 30
0.001526
  0
POINT
  5
15B7
  8
DEFPOINTS
  6
BYBLOCK
 62
     0
 10
90.185207000000005
 20
40.262565000000002
 30
0.0
  0
ENDBLK
  5
15B8
  8
0
  0
BLOCK
  8
0
  2
*D20
 70
     1
 10
0.0
 20
0.0
 30
0.0
  3
*D20
  1

  0
LINE
  5
15BB
  8
0
  6
BYBLOCK
 10
161.92274399999991
 20
38.707386999999997
 30
0.0
 11
170.0634509999999
 21
38.707386999999997
 31
0.0
  0
LINE
  5
15BC
  8
0
  6
BYBLOCK
 10
161.92274399999991
 20
40.707386999999983
 30
0.0
 11
170.0634509999999
 21
40.707386999999983
 31
0.0
  0
LINE
  5
15BD
  8
0
  6
BYBLOCK
 10
169.0634509999999
 20
36.70738699999999
 30
0.0
 11
169.0634509999999
 21
34.707386999999997
 31
0.0
  0
LINE
  5
15BE
  8
0
  6
BYBLOCK
 10
169.0634509999999
 20
42.707386999999983
 30
0.0
 11
169.0634509999999
 21
47.907387
 31
0.0
  0
LINE
  5
15BF
  8
0
  6
BYBLOCK
 10
169.0634509999999
 20
38.707386999999997
 30
0.0
 11
169.0634509999999
 21
40.707386999999983
 31
0.0
  0
SOLID
  5
15C0
  8
0
  6
BYBLOCK
 10
168.73011699999981
 20
36.70738699999999
 30
0.0
 11
169.396784
 21
36.70738699999999
 31
0.0
 12
169.0634509999999
 22
38.707386999999997
 32
0.0
 13
169.0634509999999
 23
38.707386999999997
 33
0.0
  0
SOLID
  5
15C1
  8
0
  6
BYBLOCK
 10
168.73011699999981
 20
42.707386999999983
 30
0.0
 11
169.396784
 21
42.707386999999983
 31
0.0
 12
169.0634509999999
 22
40.707386999999983
 32
0.0
 13
169.0634509999999
 23
40.707386999999983
 33
0.0
  0
TEXT
  5
15C2
  8
0
  6
BYBLOCK
 62
     0
 10
168.0634509999999
 20
45.707386999999983
 30
0.0
 40
2.5
  1
2
 50
90.0
 41
0.72
  0
POINT
  5
15C3
  8
DEFPOINTS
  6
BYBLOCK
 62
     0
 10
160.92274399999991
 20
38.707386999999997
 30
0.001526
  0
POINT
  5
15C4
  8
DEFPOINTS
  6
BYBLOCK
 62
     0
 10
160.92274399999991
 20
40.707386999999983
 30
0.001526
  0
POINT
  5
15C5
  8
DEFPOINTS
  6
BYBLOCK
 62
     0
 10
169.0634509999999
 20
40.707386999999983
 30
0.0
  0
ENDBLK
  5
15C6
  8
0
  0
BLOCK
  8
0
  2
*D21
 70
     1
 10
0.0
 20
0.0
 30
0.0
  3
*D21
  1

  0
LINE
  5
15C9
  8
0
  6
BYBLOCK
 10
33.435594000000002
 20
75.835982999999999
 30
0.0
 11
51.560727
 21
75.835982999999999
 31
0.0
  0
LINE
  5
15CA
  8
0
  6
BYBLOCK
 10
33.224077999999999
 20
64.335993999999999
 30
0.0
 11
51.560727
 21
64.335993999999999
 31
0.0
  0
LINE
  5
15CB
  8
0
  6
BYBLOCK
 10
50.560727
 20
66.335993999999999
 30
0.0
 11
50.560727
 21
73.835982999999999
 31
0.0
  0
LINE
  5
15CC
  8
0
  6
BYBLOCK
 10
50.560727
 20
75.835982999999999
 30
0.0
 11
50.560727
 21
84.035983000000002
 31
0.0
  0
SOLID
  5
15CD
  8
0
  6
BYBLOCK
 10
50.227393999999983
 20
66.335993999999999
 30
0.0
 11
50.894060000000003
 21
66.335993999999999
 31
0.0
 12
50.560727
 22
64.335993999999999
 32
0.0
 13
50.560727
 23
64.335993999999999
 33
0.0
  0
SOLID
  5
15CE
  8
0
  6
BYBLOCK
 10
50.227393999999983
 20
73.835982999999999
 30
0.0
 11
50.894060000000003
 21
73.835982999999999
 31
0.0
 12
50.560727
 22
75.835982999999999
 32
0.0
 13
50.560727
 23
75.835982999999999
 33
0.0
  0
TEXT
  5
15CF
  8
0
  6
BYBLOCK
 62
     0
 10
49.560726999999993
 20
78.835982999999999
 30
0.0
 40
2.5
  1
11.5
 50
90.0
 41
0.72
  0
POINT
  5
15D0
  8
DEFPOINTS
  6
BYBLOCK
 62
     0
 10
32.435594000000002
 20
75.835982999999999
 30
0.001526
  0
POINT
  5
15D1
  8
DEFPOINTS
  6
BYBLOCK
 62
     0
 10
32.224077999999999
 20
64.335993999999999
 30
0.001526
  0
POINT
  5
15D2
  8
DEFPOINTS
  6
BYBLOCK
 62
     0
 10
50.560727
 20
64.335993999999999
 30
0.0
  0
ENDBLK
  5
15D3
  8
0
  0
ENDSEC
  0
SECTION
  2
ENTITIES
  0
TEXT
  5
15D4
  8
DIM
 10
18.552037999999989
 20
55.011347000000001
 30
0.001526
 40
2.5
  1
12.1
 41
0.72
  0
SOLID
  5
15D5
  8
DIM
 10
33.16528799999999
 20
73.45205799999998
 30
0.001526
 11
32.675948999999981
 21
73.646647999999985
 31
0.001526
 12
33.65965099999999
 22
75.407802000000004
 32
0.001526
 13
33.65965099999999
 23
75.407802000000004
 33
0.001526
  0
SOLID
  5
15D6
  8
DIM
 10
29.682869
 20
66.119931000000008
 30
0.001526
 11
30.172208000000001
 21
65.925340000000006
 31
0.001526
 12
29.188506
 22
64.164186999999998
 32
0.001526
 13
29.188506
 23
64.164186999999998
 33
0.001526
  0
LINE
  5
15D7
  8
DIM
 10
25.268581999999991
 20
54.306727999999993
 30
0.001526
 11
18.552037999999989
 21
54.306727999999993
 31
0.001526
  0
LINE
  5
15D8
  8
DIM
 10
33.65965099999999
 20
75.407802000000004
 30
0.001526
 11
25.268581999999991
 21
54.306727999999993
 31
0.001526
  0
TEXT
  5
15D9
  8
DIM
 10
38.84863499999998
 20
54.872956999999992
 30
0.001526
 40
2.5
  1
18.2
 41
0.72
  0
SOLID
  5
15DA
  8
DIM
 10
29.070039000000001
 20
76.442044999999979
 30
0.001526
 11
28.580313
 21
76.248429000000002
 31
0.001526
 12
28.089846999999988
 22
78.205153999999993
 32
0.001526
 13
28.089846999999988
 23
78.205153999999993
 33
0.001526
  0
SOLID
  5
15DB
  8
DIM
 10
33.801149999999993
 20
63.043018999999987
 30
0.001526
 11
34.29087599999999
 21
63.236635
 31
0.001526
 12
34.781341999999988
 22
61.279910000000001
 32
0.001526
 13
34.781341999999988
 23
61.279910000000001
 33
0.001526
  0
LINE
  5
15DC
  8
DIM
 10
37.538231000000003
 20
54.306727999999993
 30
0.001526
 11
44.971120999999989
 21
54.306727999999993
 31
0.001526
  0
LINE
  5
15DD
  8
DIM
 10
28.089846999999988
 20
78.205153999999993
 30
0.001526
 11
37.538231000000003
 21
54.306727999999993
 31
0.001526
  0
TEXT
  5
15DE
  8
DIM
 10
114.93735099999979
 20
56.758448000000001
 30
0.001526
 40
2.5
  1
M12P1
 41
0.72
  0
SOLID
  5
15DF
  8
DIM
 10
118.84469900000001
 20
73.38176
 30
0.001526
 11
118.3580599999999
 21
73.583007999999978
 31
0.001526
 12
119.36569399999991
 22
75.330578000000003
 32
0.001526
 13
119.36569399999991
 23
75.330578000000003
 33
0.001526
  0
SOLID
  5
15E0
  8
DIM
 10
115.300802
 20
66.190229000000002
 30
0.001526
 11
115.7874409999999
 21
65.98898100000001
 31
0.001526
 12
114.77980700000001
 22
64.241410999999985
 32
0.001526
 13
114.77980700000001
 23
64.241410999999985
 33
0.001526
  0
LINE
  5
15E1
  8
DIM
 10
111.47848
 20
56.258448000000001
 30
0.001526
 11
124.04142400000001
 21
56.258448000000001
 31
0.001526
  0
LINE
  5
15E2
  8
DIM
 10
119.36569399999991
 20
75.330578000000003
 30
0.001526
 11
111.47848
 21
56.258448000000001
 31
0.001526
  0
TEXT
  5
15E3
  8
DIM
 10
152.6511219999999
 20
56.545062000000001
 30
0.001526
 40
2.5
  1
M12P1
 41
0.72
  0
SOLID
  5
15E4
  8
DIM
 10
155.46040400000001
 20
73.488014000000007
 30
0.001526
 11
154.96185800000001
 21
73.657632999999976
 31
0.001526
 12
155.855321
 22
75.466238000000004
 32
0.001526
 13
155.855321
 23
75.466238000000004
 33
0.001526
  0
SOLID
  5
15E5
  8
DIM
 10
152.38509799999991
 20
66.083973999999998
 30
0.001526
 11
152.88364300000001
 21
65.914356000000012
 31
0.001526
 12
151.99018000000001
 22
64.10575
 32
0.001526
 13
151.99018000000001
 23
64.10575
 33
0.001526
  0
LINE
  5
15E6
  8
DIM
 10
149.2477189999999
 20
56.045062000000001
 30
0.001526
 11
162.72199599999979
 21
56.045062000000001
 31
0.001526
  0
LINE
  5
15E7
  8
DIM
 10
155.855321
 20
75.466238000000004
 30
0.001526
 11
149.2477189999999
 21
56.045062000000001
 31
0.001526
  0
SOLID
  5
15E8
  8
DIM
 10
24.017617000000001
 20
151.79768200000001
 30
0.001526
 11
24.017617000000001
 21
152.3242919999999
 31
0.001526
 12
26.017617000000001
 22
152.06098700000001
 32
0.001526
 13
26.017617000000001
 23
152.06098700000001
 33
0.001526
  0
SOLID
  5
15E9
  8
DIM
 10
82.638821999999976
 20
159.25109499999991
 30
0.001526
 11
83.002343999999994
 21
159.63210599999999
 31
0.001526
 12
84.267617000000001
 22
158.06098700000001
 32
0.001526
 13
84.267617000000001
 23
158.06098700000001
 33
0.001526
  0
SOLID
  5
15EA
  8
DIM
 10
83.568499000000003
 20
144.16874899999991
 30
0.001526
 11
83.102574000000004
 21
144.41416999999981
 31
0.001526
 12
84.267617000000001
 22
146.06098700000001
 32
0.001526
 13
84.267617000000001
 23
146.06098700000001
 33
0.001526
  0
SOLID
  5
15EB
  8
DIM
 10
120.511875
 20
138.59164099999981
 30
0.001526
 11
120.13335099999991
 21
138.22552999999991
 31
0.001526
 12
118.93216699999979
 22
139.84617299999991
 32
0.001526
 13
118.93216699999979
 23
139.84617299999991
 33
0.001526
  0
LINE
  5
15EC
  8
GAIKEI
  6
CONTINUOUS
 10
115.6176169999999
 20
165.5109869999998
 30
0.001526
 11
117.117617
 21
165.5109869999998
 31
0.001526
  0
LINE
  5
15ED
  8
GAIKEI
  6
CONTINUOUS
 10
115.6176169999999
 20
165.56098700000001
 30
0.001526
 11
115.6176169999999
 21
165.5109869999998
 31
0.001526
  0
LINE
  5
15EE
  8
GAIKEI
  6
CONTINUOUS
 10
115.6176169999999
 20
138.61098699999999
 30
0.001526
 11
117.117617
 21
138.61098699999999
 31
0.001526
  0
LINE
  5
15EF
  8
GAIKEI
  6
CONTINUOUS
 10
115.6176169999999
 20
138.56098700000001
 30
0.001526
 11
115.6176169999999
 21
138.61098699999999
 31
0.001526
  0
LINE
  5
15F0
  8
GAIKEI
  6
CONTINUOUS
 10
114.117617
 20
165.56098700000001
 30
0.001526
 11
115.6176169999999
 21
165.56098700000001
 31
0.001526
  0
LINE
  5
15F1
  8
GAIKEI
  6
CONTINUOUS
 10
114.117617
 20
138.56098700000001
 30
0.001526
 11
115.6176169999999
 21
138.56098700000001
 31
0.001526
  0
LINE
  5
15F2
  8
CENTER
 10
154.81761699999981
 20
161.260987
 30
0.001526
 11
150.11761699999991
 21
161.260987
 31
0.001526
  0
LINE
  5
15F3
  8
GAIKEI
  6
CONTINUOUS
 10
114.9176159999999
 20
149.86098699999991
 30
0.001526
 11
114.117616
 21
149.86098699999991
 31
0.001526
  0
LINE
  5
15F4
  8
GAIKEI
  6
CONTINUOUS
 10
114.9176159999999
 20
149.7895629999999
 30
0.001526
 11
114.9176159999999
 21
149.86098699999991
 31
0.001526
  0
LINE
  5
15F5
  8
GAIKEI
  6
CONTINUOUS
 10
114.9176159999999
 20
149.66098700000001
 30
0.001526
 11
115.58974499999979
 21
149.66098700000001
 31
0.001526
  0
LINE
  5
15F6
  8
GAIKEI
  6
CONTINUOUS
 10
114.9176159999999
 20
149.66098700000001
 30
0.001526
 11
114.9176159999999
 21
149.7895629999999
 31
0.001526
  0
LINE
  5
15F7
  8
GAIKEI
  6
CONTINUOUS
 10
114.91761700000001
 20
154.2609869999998
 30
0.001526
 11
114.117617
 21
154.2609869999998
 31
0.001526
  0
LINE
  5
15F8
  8
GAIKEI
  6
CONTINUOUS
 10
114.91761700000001
 20
154.4609869999999
 30
0.001526
 11
114.117617
 21
154.4609869999999
 31
0.001526
  0
LINE
  5
15F9
  8
GAIKEI
  6
CONTINUOUS
 10
114.91761700000001
 20
154.2609869999998
 30
0.001526
 11
114.91761700000001
 21
154.4609869999999
 31
0.001526
  0
LINE
  5
15FA
  8
GAIKEI
  6
CONTINUOUS
 10
115.6176169999999
 20
149.66098700000001
 30
0.001526
 11
115.6176169999999
 21
149.4609869999999
 31
0.001526
  0
LINE
  5
15FB
  8
CENTER
 10
153.92275100000001
 20
69.785993999999988
 30
0.001526
 11
153.92275100000001
 21
60.984161
 31
0.001526
  0
LINE
  5
15FC
  8
CENTER
 10
153.92275100000001
 20
69.785993999999988
 30
0.001526
 11
153.92275100000001
 21
78.237162999999981
 31
0.001526
  0
LINE
  5
15FD
  8
CENTER
 10
153.92275100000001
 20
69.785993999999988
 30
0.001526
 11
144.29665600000001
 21
69.785993999999988
 31
0.001526
  0
LINE
  5
15FE
  8
CENTER
 10
153.92275100000001
 20
69.785993999999988
 30
0.001526
 11
163.83990900000001
 21
69.785993999999988
 31
0.001526
  0
LINE
  5
15FF
  8
CENTER
 10
117.072751
 20
69.785993999999988
 30
0.001526
 11
107.0660979999999
 21
69.785993999999988
 31
0.001526
  0
LINE
  5
1600
  8
CENTER
 10
117.072751
 20
69.785993999999988
 30
0.001526
 11
125.1556539999999
 21
69.785993999999988
 31
0.001526
  0
LINE
  5
1601
  8
CENTER
 10
117.072751
 20
69.785993999999988
 30
0.001526
 11
117.072751
 21
61.132093999999981
 31
0.001526
  0
LINE
  5
1602
  8
CENTER
 10
117.072751
 20
69.785993999999988
 30
0.001526
 11
117.072751
 21
78.874125000000006
 31
0.001526
  0
LINE
  5
1603
  8
CENTER
 10
74.942261000000002
 20
69.785993999999988
 30
0.001526
 11
83.908927000000006
 21
69.785993999999988
 31
0.001526
  0
LINE
  5
1604
  8
CENTER
 10
74.942261000000002
 20
69.785993999999988
 30
0.001526
 11
65.536468999999997
 21
69.785993999999988
 31
0.001526
  0
LINE
  5
1605
  8
CENTER
 10
74.942261000000002
 20
69.785993999999988
 30
0.001526
 11
74.942261000000002
 21
60.585634999999989
 31
0.001526
  0
LINE
  5
1606
  8
CENTER
 10
74.942261000000002
 20
69.785993999999988
 30
0.001526
 11
74.942261000000002
 21
78.687910000000002
 31
0.001526
  0
LINE
  5
1607
  8
CENTER
 10
31.435593999999998
 20
69.742531999999997
 30
0.001526
 11
20.959292999999992
 21
69.742531999999997
 31
0.001526
  0
LINE
  5
1608
  8
CENTER
 10
31.435593999999998
 20
69.742531999999997
 30
0.001526
 11
41.943521999999987
 21
69.742531999999997
 31
0.001526
  0
LINE
  5
1609
  8
CENTER
 10
31.435593999999998
 20
75.835982999999999
 30
0.001526
 11
31.435593999999998
 21
80.691254999999998
 31
0.001526
  0
LINE
  5
160A
  8
CENTER
 10
31.435593999999998
 20
69.742531999999997
 30
0.001526
 11
31.435593999999998
 21
58.92384100000001
 31
0.001526
  0
LINE
  5
160B
  8
CENTER
 10
31.435593999999998
 20
69.742531999999997
 30
0.001526
 11
31.435593999999998
 21
75.835982999999999
 31
0.001526
  0
LINE
  5
160C
  8
GAIKEI
  6
CONTINUOUS
 10
145.839855
 20
40.082172999999997
 30
0.001526
 11
145.839855
 21
39.332602000000001
 31
0.001526
  0
LINE
  5
160D
  8
GAIKEI
  6
CONTINUOUS
 10
149.8813029999998
 20
40.082172999999997
 30
0.001526
 11
149.8813029999998
 21
39.332602000000001
 31
0.001526
  0
LINE
  5
160E
  8
GAIKEI
  6
CONTINUOUS
 10
157.96419900000001
 20
40.082172999999997
 30
0.001526
 11
157.96419900000001
 21
39.332602000000001
 31
0.001526
  0
LINE
  5
160F
  8
GAIKEI
  6
CONTINUOUS
 10
162.00564599999981
 20
40.082172999999997
 30
0.001526
 11
162.00564599999981
 21
39.332602000000001
 31
0.001526
  0
LINE
  5
1610
  8
GAIKEI
  6
CONTINUOUS
 10
162.00564599999981
 20
39.332602000000001
 30
0.001526
 11
160.92274399999991
 21
38.707386999999997
 31
0.001526
  0
LINE
  5
1611
  8
GAIKEI
  6
CONTINUOUS
 10
160.92274399999991
 20
38.707386999999997
 30
0.001526
 11
146.9227579999999
 21
38.707386999999997
 31
0.001526
  0
LINE
  5
1612
  8
GAIKEI
  6
CONTINUOUS
 10
146.9227579999999
 20
38.707386999999997
 30
0.001526
 11
145.839855
 21
39.332602000000001
 31
0.001526
  0
LINE
  5
1613
  8
CENTER
 10
153.92275100000001
 20
36.362945000000003
 30
0.001526
 11
153.92275100000001
 21
42.65182999999999
 31
0.001526
  0
LINE
  5
1614
  8
GAIKEI
  6
CONTINUOUS
 10
160.92274399999991
 20
40.707386999999983
 30
0.001526
 11
162.00564599999981
 21
40.082172999999997
 31
0.001526
  0
LINE
  5
1615
  8
GAIKEI
  6
CONTINUOUS
 10
146.9227579999999
 20
40.707386999999983
 30
0.001526
 11
160.92274399999991
 21
40.707386999999983
 31
0.001526
  0
LINE
  5
1616
  8
GAIKEI
  6
CONTINUOUS
 10
145.839855
 20
40.082172999999997
 30
0.001526
 11
146.9227579999999
 21
40.707386999999983
 31
0.001526
  0
LINE
  5
1617
  8
GAIKEI
  6
CONTINUOUS
 10
157.964203
 20
62.785994000000002
 30
0.001526
 11
162.00565399999999
 21
69.785993999999988
 31
0.001526
  0
LINE
  5
1618
  8
GAIKEI
  6
CONTINUOUS
 10
149.88129900000001
 20
62.785994000000002
 30
0.001526
 11
157.964203
 21
62.785994000000002
 31
0.001526
  0
LINE
  5
1619
  8
GAIKEI
  6
CONTINUOUS
 10
145.83984699999979
 20
69.785993999999988
 30
0.001526
 11
149.88129900000001
 21
62.785994000000002
 31
0.001526
  0
LINE
  5
161A
  8
GAIKEI
  6
CONTINUOUS
 10
149.88129900000001
 20
76.785994000000002
 30
0.001526
 11
145.83984699999979
 21
69.785993999999988
 31
0.001526
  0
LINE
  5
161B
  8
GAIKEI
  6
CONTINUOUS
 10
157.964203
 20
76.785994000000002
 30
0.001526
 11
149.88129900000001
 21
76.785994000000002
 31
0.001526
  0
LINE
  5
161C
  8
GAIKEI
  6
CONTINUOUS
 10
162.00565399999999
 20
69.785993999999988
 30
0.001526
 11
157.964203
 21
76.785994000000002
 31
0.001526
  0
LINE
  5
161D
  8
CENTER
 10
74.942261000000002
 20
40.862396999999987
 30
0.001526
 11
74.942261000000002
 21
38.296541999999981
 31
0.001526
  0
LINE
  5
161E
  8
GAIKEI
  6
CONTINUOUS
 10
74.942261000000002
 20
39.322943000000002
 30
0.001526
 11
66.992260999999999
 21
39.322943000000002
 31
0.001526
  0
LINE
  5
161F
  8
GAIKEI
  6
CONTINUOUS
 10
74.995700999999983
 20
39.822943000000002
 30
0.001526
 11
66.992260999999999
 21
39.822943000000002
 31
0.001526
  0
LINE
  5
1620
  8
GAIKEI
  6
CONTINUOUS
 10
72.403163000000006
 20
38.875258999999993
 30
0.001526
 11
71.503893000000019
 21
39.322943000000002
 31
0.001526
  0
LINE
  5
1621
  8
GAIKEI
  6
CONTINUOUS
 10
72.403163000000006
 20
40.270626999999998
 30
0.001526
 11
72.471381999999977
 21
39.822943000000002
 31
0.001526
  0
LINE
  5
1622
  8
GAIKEI
  6
CONTINUOUS
 10
70.672219999999996
 20
40.270626999999998
 30
0.001526
 11
71.571491000000023
 21
39.822943000000002
 31
0.001526
  0
LINE
  5
1623
  8
GAIKEI
  6
CONTINUOUS
 10
70.672219999999996
 20
38.875258999999993
 30
0.001526
 11
70.604922999999985
 21
39.31959599999999
 31
0.001526
  0
LINE
  5
1624
  8
GAIKEI
  6
CONTINUOUS
 10
69.719337999999993
 20
40.262565000000002
 30
0.001526
 11
69.816215
 21
39.822943000000002
 31
0.001526
  0
LINE
  5
1625
  8
GAIKEI
  6
CONTINUOUS
 10
69.719337999999993
 20
38.883319999999998
 30
0.001526
 11
69.126638999999997
 21
39.322943000000002
 31
0.001526
  0
LINE
  5
1626
  8
GAIKEI
  6
CONTINUOUS
 10
68.631187999999995
 20
38.883319999999998
 30
0.001526
 11
68.534889000000007
 21
39.321514000000001
 31
0.001526
  0
LINE
  5
1627
  8
GAIKEI
  6
CONTINUOUS
 10
68.631187999999995
 20
40.262565000000002
 30
0.001526
 11
69.223888000000002
 21
39.822943000000002
 31
0.001526
  0
LINE
  5
1628
  8
GAIKEI
  6
CONTINUOUS
 10
68.631187999999995
 20
38.883319999999998
 30
0.001526
 11
68.133122999999983
 21
39.322943000000002
 31
0.001526
  0
LINE
  5
1629
  8
GAIKEI
  6
CONTINUOUS
 10
69.218784999999997
 20
39.320879999999981
 30
0.001526
 11
68.631187999999995
 21
38.883319999999998
 31
0.001526
  0
LINE
  5
162A
  8
GAIKEI
  6
CONTINUOUS
 10
69.126638999999997
 20
39.822943000000002
 30
0.001526
 11
69.719337999999993
 21
40.262565000000002
 31
0.001526
  0
LINE
  5
162B
  8
GAIKEI
  6
CONTINUOUS
 10
71.571491000000023
 20
39.322943000000002
 30
0.001526
 11
70.672219999999996
 21
38.875258999999993
 31
0.001526
  0
LINE
  5
162C
  8
GAIKEI
  6
CONTINUOUS
 10
71.503893000000019
 20
39.822943000000002
 30
0.001526
 11
72.403163000000006
 21
40.270626999999998
 31
0.001526
  0
LINE
  5
162D
  8
GAIKEI
  6
CONTINUOUS
 10
68.133122999999983
 20
39.822943000000002
 30
0.001526
 11
68.631187999999995
 21
40.262565000000002
 31
0.001526
  0
LINE
  5
162E
  8
GAIKEI
  6
CONTINUOUS
 10
69.816215
 20
39.322943000000002
 30
0.001526
 11
69.719337999999993
 21
38.883319999999998
 31
0.001526
  0
LINE
  5
162F
  8
GAIKEI
  6
CONTINUOUS
 10
68.534311000000002
 20
39.822943000000002
 30
0.001526
 11
68.631187999999995
 21
40.262565000000002
 31
0.001526
  0
LINE
  5
1630
  8
GAIKEI
  6
CONTINUOUS
 10
72.471381999999977
 20
39.322943000000002
 30
0.001526
 11
72.403163000000006
 21
38.875258999999993
 31
0.001526
  0
LINE
  5
1631
  8
GAIKEI
  6
CONTINUOUS
 10
70.604000999999997
 20
39.822943000000002
 30
0.001526
 11
70.672219999999996
 21
40.270626999999998
 31
0.001526
  0
LINE
  5
1632
  8
GAIKEI
  6
CONTINUOUS
 10
66.992260999999999
 20
39.322943000000002
 30
0.001526
 11
66.992260999999999
 21
39.822943000000002
 31
0.001526
  0
LINE
  5
1633
  8
GAIKEI
  6
CONTINUOUS
 10
73.854427000000001
 20
39.822943000000002
 30
0.001526
 11
73.917505000000006
 21
40.280895000000001
 31
0.001526
  0
LINE
  5
1634
  8
GAIKEI
  6
CONTINUOUS
 10
74.912137999999999
 20
39.822943000000002
 30
0.001526
 11
75.967016999999998
 21
40.280895000000001
 31
0.001526
  0
LINE
  5
1635
  8
GAIKEI
  6
CONTINUOUS
 10
76.030094999999974
 20
39.322943000000002
 30
0.001526
 11
75.967016999999998
 21
38.864990999999989
 31
0.001526
  0
LINE
  5
1636
  8
GAIKEI
  6
CONTINUOUS
 10
82.892261000000005
 20
39.322943000000002
 30
0.001526
 11
74.942261000000002
 21
39.322943000000002
 31
0.001526
  0
LINE
  5
1637
  8
GAIKEI
  6
CONTINUOUS
 10
78.380628999999999
 20
39.322943000000002
 30
0.001526
 11
77.481358
 21
38.875258999999993
 31
0.001526
  0
LINE
  5
1638
  8
GAIKEI
  6
CONTINUOUS
 10
77.413139000000001
 20
39.822943000000002
 30
0.001526
 11
77.481358
 21
40.270626999999998
 31
0.001526
  0
LINE
  5
1639
  8
GAIKEI
  6
CONTINUOUS
 10
78.313031000000024
 20
39.822943000000002
 30
0.001526
 11
79.212300999999982
 21
40.270626999999998
 31
0.001526
  0
LINE
  5
163A
  8
GAIKEI
  6
CONTINUOUS
 10
79.279597999999979
 20
39.31959599999999
 30
0.001526
 11
79.212300999999982
 21
38.875258999999993
 31
0.001526
  0
LINE
  5
163B
  8
GAIKEI
  6
CONTINUOUS
 10
80.068306000000007
 20
39.822943000000002
 30
0.001526
 11
80.165182999999985
 21
40.262565000000002
 31
0.001526
  0
LINE
  5
163C
  8
GAIKEI
  6
CONTINUOUS
 10
80.757882999999964
 20
39.322943000000002
 30
0.001526
 11
80.165182999999985
 21
38.883319999999998
 31
0.001526
  0
LINE
  5
163D
  8
GAIKEI
  6
CONTINUOUS
 10
81.349632999999983
 20
39.321514000000001
 30
0.001526
 11
81.253333999999981
 21
38.883319999999998
 31
0.001526
  0
LINE
  5
163E
  8
GAIKEI
  6
CONTINUOUS
 10
80.660634000000002
 20
39.822943000000002
 30
0.001526
 11
81.253333999999981
 21
40.262565000000002
 31
0.001526
  0
LINE
  5
163F
  8
GAIKEI
  6
CONTINUOUS
 10
74.942261000000002
 20
39.31557699999999
 30
0.001526
 11
73.917505000000006
 21
38.864990999999989
 31
0.001526
  0
LINE
  5
1640
  8
GAIKEI
  6
CONTINUOUS
 10
82.892261000000005
 20
39.822943000000002
 30
0.001526
 11
74.888819999999981
 21
39.822943000000002
 31
0.001526
  0
LINE
  5
1641
  8
GAIKEI
  6
CONTINUOUS
 10
81.751398999999964
 20
39.322943000000002
 30
0.001526
 11
81.253333999999981
 21
38.883319999999998
 31
0.001526
  0
LINE
  5
1642
  8
GAIKEI
  6
CONTINUOUS
 10
81.253333999999981
 20
38.883319999999998
 30
0.001526
 11
80.665736999999964
 21
39.320879999999981
 31
0.001526
  0
LINE
  5
1643
  8
GAIKEI
  6
CONTINUOUS
 10
80.165182999999985
 20
40.262565000000002
 30
0.001526
 11
80.757882999999964
 21
39.822943000000002
 31
0.001526
  0
LINE
  5
1644
  8
GAIKEI
  6
CONTINUOUS
 10
79.212300999999982
 20
38.875258999999993
 30
0.001526
 11
78.313031000000024
 21
39.322943000000002
 31
0.001526
  0
LINE
  5
1645
  8
GAIKEI
  6
CONTINUOUS
 10
77.481358
 20
40.270626999999998
 30
0.001526
 11
78.380628999999999
 21
39.822943000000002
 31
0.001526
  0
LINE
  5
1646
  8
GAIKEI
  6
CONTINUOUS
 10
75.967016999999998
 20
38.864990999999989
 30
0.001526
 11
74.942261000000002
 21
39.31557699999999
 31
0.001526
  0
LINE
  5
1647
  8
GAIKEI
  6
CONTINUOUS
 10
73.917505000000006
 20
40.280895000000001
 30
0.001526
 11
74.972383999999977
 21
39.822943000000002
 31
0.001526
  0
LINE
  5
1648
  8
GAIKEI
  6
CONTINUOUS
 10
81.253333999999981
 20
40.262565000000002
 30
0.001526
 11
81.751398999999964
 21
39.822943000000002
 31
0.001526
  0
LINE
  5
1649
  8
GAIKEI
  6
CONTINUOUS
 10
80.165182999999985
 20
38.883319999999998
 30
0.001526
 11
80.068306000000007
 21
39.322943000000002
 31
0.001526
  0
LINE
  5
164A
  8
GAIKEI
  6
CONTINUOUS
 10
81.253333999999981
 20
40.262565000000002
 30
0.001526
 11
81.350210000000004
 21
39.822943000000002
 31
0.001526
  0
LINE
  5
164B
  8
GAIKEI
  6
CONTINUOUS
 10
77.481358
 20
38.875258999999993
 30
0.001526
 11
77.413139000000001
 21
39.322943000000002
 31
0.001526
  0
LINE
  5
164C
  8
GAIKEI
  6
CONTINUOUS
 10
79.212300999999982
 20
40.270626999999998
 30
0.001526
 11
79.280519999999981
 21
39.822943000000002
 31
0.001526
  0
LINE
  5
164D
  8
GAIKEI
  6
CONTINUOUS
 10
73.917505000000006
 20
38.864990999999989
 30
0.001526
 11
73.854427000000001
 21
39.322943000000002
 31
0.001526
  0
LINE
  5
164E
  8
GAIKEI
  6
CONTINUOUS
 10
75.967016999999998
 20
40.280895000000001
 30
0.001526
 11
76.030094999999974
 21
39.822943000000002
 31
0.001526
  0
LINE
  5
164F
  8
GAIKEI
  6
CONTINUOUS
 10
82.892261000000005
 20
39.822943000000002
 30
0.001526
 11
82.892261000000005
 21
39.322943000000002
 31
0.001526
  0
LINE
  5
1650
  8
CENTER
 10
31.424078000000002
 20
43.22666199999999
 30
0.001526
 11
31.424078000000002
 21
37.414631999999997
 31
0.001526
  0
LINE
  5
1651
  8
GAIKEI
  6
CONTINUOUS
 10
32.824078
 20
40.341152000000001
 30
0.001526
 11
32.824078
 21
39.341152000000001
 31
0.001526
  0
LINE
  5
1652
  8
GAIKEI
  6
CONTINUOUS
 10
40.524078000000003
 20
40.341152000000001
 30
0.001526
 11
32.824078
 21
40.341152000000001
 31
0.001526
  0
LINE
  5
1653
  8
GAIKEI
  6
CONTINUOUS
 10
40.524078000000003
 20
39.341152000000001
 30
0.001526
 11
40.524078000000003
 21
40.341152000000001
 31
0.001526
  0
LINE
  5
1654
  8
GAIKEI
  6
CONTINUOUS
 10
22.324078
 20
39.341152000000001
 30
0.001526
 11
40.524078000000003
 21
39.341152000000001
 31
0.001526
  0
LINE
  5
1655
  8
GAIKEI
  6
CONTINUOUS
 10
22.324078
 20
40.341152000000001
 30
0.001526
 11
22.324078
 21
39.341152000000001
 31
0.001526
  0
LINE
  5
1656
  8
GAIKEI
  6
CONTINUOUS
 10
30.024077999999999
 20
40.341152000000001
 30
0.001526
 11
30.024077999999999
 21
42.141152000000012
 31
0.001526
  0
LINE
  5
1657
  8
GAIKEI
  6
CONTINUOUS
 10
30.024077999999999
 20
40.341152000000001
 30
0.001526
 11
22.324078
 21
40.341152000000001
 31
0.001526
  0
LINE
  5
1658
  8
GAIKEI
  6
CONTINUOUS
 10
32.824078
 20
42.141152000000012
 30
0.001526
 11
32.824078
 21
40.341152000000001
 31
0.001526
  0
LINE
  5
1659
  8
GAIKEI
  6
CONTINUOUS
 10
30.024077999999999
 20
42.141152000000012
 30
0.001526
 11
32.824078
 21
42.141152000000012
 31
0.001526
  0
LINE
  5
165A
  8
GAIKEI
  6
CONTINUOUS
 10
30.024077999999999
 20
39.341152000000001
 30
0.001526
 11
30.024077999999999
 21
40.341152000000001
 31
0.001526
  0
LINE
  5
165B
  8
GAIKEI
  6
CONTINUOUS
 10
30.024077999999999
 20
60.843093999999986
 30
0.001526
 11
30.024077999999999
 21
60.242531999999997
 31
0.001526
  0
LINE
  5
165C
  8
GAIKEI
  6
CONTINUOUS
 10
32.824078
 20
60.843093999999986
 30
0.001526
 11
32.824078
 21
61.242531999999997
 31
0.001526
  0
LINE
  5
165D
  8
GAIKEI
  6
CONTINUOUS
 10
30.624078000000001
 20
63.78911999999999
 30
0.001526
 11
30.624078000000001
 21
64.335993999999999
 31
0.001526
  0
LINE
  5
165E
  8
GAIKEI
  6
CONTINUOUS
 10
32.224077999999999
 20
64.335993999999999
 30
0.001526
 11
32.224077999999999
 21
63.78911999999999
 31
0.001526
  0
LINE
  5
165F
  8
GAIKEI
  6
CONTINUOUS
 10
30.624078000000001
 20
64.335993999999999
 30
0.001526
 11
32.224077999999999
 21
64.335993999999999
 31
0.001526
  0
LINE
  5
1660
  8
GAIKEI
  6
CONTINUOUS
 10
30.024077999999999
 20
61.242531999999997
 30
0.001526
 11
30.024077999999999
 21
60.843093999999986
 31
0.001526
  0
LINE
  5
1661
  8
GAIKEI
  6
CONTINUOUS
 10
32.824078
 20
61.242531999999997
 30
0.001526
 11
30.024077999999999
 21
61.242531999999997
 31
0.001526
  0
LINE
  5
1662
  8
GAIKEI
  6
CONTINUOUS
 10
32.824078
 20
60.242531999999997
 30
0.001526
 11
32.824078
 21
60.843093999999986
 31
0.001526
  0
LINE
  5
1663
  8
GAIKEI
  6
CONTINUOUS
 10
30.024077999999999
 20
60.242531999999997
 30
0.001526
 11
32.824078
 21
60.242531999999997
 31
0.001526
  0
LINE
  5
1664
  8
CENTER
 10
117.072751
 20
37.396709000000001
 30
0.001526
 11
117.072751
 21
43.685594000000002
 31
0.001526
  0
LINE
  5
1665
  8
GAIKEI
  6
CONTINUOUS
 10
121.114199
 20
39.341152000000001
 30
0.001526
 11
125.1556459999999
 21
39.341152000000001
 31
0.001526
  0
LINE
  5
1666
  8
GAIKEI
  6
CONTINUOUS
 10
121.114199
 20
39.341152000000001
 30
0.001526
 11
121.114199
 21
41.115938
 31
0.001526
  0
LINE
  5
1667
  8
GAIKEI
  6
CONTINUOUS
 10
113.03130299999989
 20
39.341152000000001
 30
0.001526
 11
121.114199
 21
39.341152000000001
 31
0.001526
  0
LINE
  5
1668
  8
GAIKEI
  6
CONTINUOUS
 10
113.03130299999989
 20
39.341152000000001
 30
0.001526
 11
113.03130299999989
 21
41.115938
 31
0.001526
  0
LINE
  5
1669
  8
GAIKEI
  6
CONTINUOUS
 10
125.1556459999999
 20
41.115938
 30
0.001526
 11
125.1556459999999
 21
39.341152000000001
 31
0.001526
  0
LINE
  5
166A
  8
GAIKEI
  6
CONTINUOUS
 10
124.072744
 20
41.741152
 30
0.001526
 11
125.1556459999999
 21
41.115938
 31
0.001526
  0
LINE
  5
166B
  8
GAIKEI
  6
CONTINUOUS
 10
110.07275799999999
 20
41.741152
 30
0.001526
 11
124.072744
 21
41.741152
 31
0.001526
  0
LINE
  5
166C
  8
GAIKEI
  6
CONTINUOUS
 10
108.98985500000001
 20
41.115938
 30
0.001526
 11
110.07275799999999
 21
41.741152
 31
0.001526
  0
LINE
  5
166D
  8
GAIKEI
  6
CONTINUOUS
 10
108.98985500000001
 20
39.341152000000001
 30
0.001526
 11
108.98985500000001
 21
41.115938
 31
0.001526
  0
LINE
  5
166E
  8
GAIKEI
  6
CONTINUOUS
 10
108.98985500000001
 20
39.341152000000001
 30
0.001526
 11
113.03130299999989
 21
39.341152000000001
 31
0.001526
  0
LINE
  5
166F
  8
GAIKEI
  6
CONTINUOUS
 10
121.1142029999999
 20
62.785994000000002
 30
0.001526
 11
125.1556539999999
 21
69.785993999999988
 31
0.001526
  0
LINE
  5
1670
  8
GAIKEI
  6
CONTINUOUS
 10
113.0312989999999
 20
62.785994000000002
 30
0.001526
 11
121.1142029999999
 21
62.785994000000002
 31
0.001526
  0
LINE
  5
1671
  8
GAIKEI
  6
CONTINUOUS
 10
108.989847
 20
69.785993999999988
 30
0.001526
 11
113.0312989999999
 21
62.785994000000002
 31
0.001526
  0
LINE
  5
1672
  8
GAIKEI
  6
CONTINUOUS
 10
113.0312989999999
 20
76.785994000000002
 30
0.001526
 11
108.989847
 21
69.785993999999988
 31
0.001526
  0
LINE
  5
1673
  8
GAIKEI
  6
CONTINUOUS
 10
121.1142029999999
 20
76.785994000000002
 30
0.001526
 11
113.0312989999999
 21
76.785994000000002
 31
0.001526
  0
LINE
  5
1674
  8
GAIKEI
  6
CONTINUOUS
 10
125.1556539999999
 20
69.785993999999988
 30
0.001526
 11
121.1142029999999
 21
76.785994000000002
 31
0.001526
  0
LINE
  5
1675
  8
CENTER
 10
125.1556539999999
 20
69.785993999999988
 30
0.001526
 11
127.0596559999999
 21
69.785993999999988
 31
0.001526
  0
LINE
  5
1676
  8
GAIKEI
  6
CONTINUOUS
 10
114.117616
 20
149.86098699999991
 30
0.001526
 11
114.117617
 21
154.2609869999998
 31
0.001526
  0
LINE
  5
1677
  8
GAIKEI
  6
CONTINUOUS
 10
115.0922929999999
 20
149.86098699999991
 30
0.001526
 11
114.9176159999999
 21
149.86098699999991
 31
0.001526
  0
LINE
  5
1678
  8
GAIKEI
  6
CONTINUOUS
 10
114.117617
 20
154.2609869999998
 30
0.001526
 11
114.117617
 21
154.4609869999999
 31
0.001526
  0
LINE
  5
1679
  8
GAIKEI
  6
CONTINUOUS
 10
115.0922929999999
 20
154.2609869999998
 30
0.001526
 11
114.91761700000001
 21
154.2609869999998
 31
0.001526
  0
LINE
  5
167A
  8
GAIKEI
  6
CONTINUOUS
 10
118.7922929999998
 20
154.4609869999999
 30
0.001526
 11
114.91761700000001
 21
154.4609869999999
 31
0.001526
  0
LINE
  5
167B
  8
CENTER
 10
89.517617000000001
 20
152.2826819999998
 30
0.001526
 11
59.716884999999991
 21
145.676018
 31
0.001526
  0
LINE
  5
167C
  8
CENTER
 10
59.716884999999991
 20
158.44595599999991
 30
0.001526
 11
89.517617000000001
 21
151.839292
 31
0.001526
  0
LINE
  5
167D
  8
CENTER
 10
66.017617000000001
 20
152.06098700000001
 30
0.001526
 11
64.517617000000001
 21
152.06098700000001
 31
0.001526
  0
LINE
  5
167E
  8
GAIKEI
  6
CONTINUOUS
 10
83.517617000000001
 20
146.36098699999991
 30
0.001526
 11
83.817616999999998
 21
146.06098700000001
 31
0.001526
  0
LINE
  5
167F
  8
GAIKEI
  6
CONTINUOUS
 10
83.517617000000001
 20
157.760987
 30
0.001526
 11
83.817616999999998
 21
158.06098700000001
 31
0.001526
  0
LINE
  5
1680
  8
GAIKEI
  6
CONTINUOUS
 10
83.817616999999998
 20
146.06098700000001
 30
0.001526
 11
83.817616999999998
 21
158.06098700000001
 31
0.001526
  0
LINE
  5
1681
  8
GAIKEI
  6
CONTINUOUS
 10
90.759664999999984
 20
147.06098700000001
 30
0.001526
 11
90.501711999999984
 21
147.06098700000001
 31
0.001526
  0
LINE
  5
1682
  8
GAIKEI
  6
CONTINUOUS
 10
87.101786000000004
 20
147.06098700000001
 30
0.001526
 11
83.517617000000001
 21
147.06098700000001
 31
0.001526
  0
LINE
  5
1683
  8
GAIKEI
  6
CONTINUOUS
 10
91.517616999999987
 20
147.06098700000001
 30
0.001526
 11
91.259664999999998
 21
147.06098700000001
 31
0.001526
  0
LINE
  5
1684
  8
GAIKEI
  6
CONTINUOUS
 10
91.259664999999998
 20
157.06098700000001
 30
0.001526
 11
91.517616999999987
 21
157.06098700000001
 31
0.001526
  0
LINE
  5
1685
  8
GAIKEI
  6
CONTINUOUS
 10
93.517617000000001
 20
157.06098700000001
 30
0.001526
 11
95.517617000000001
 21
157.06098700000001
 31
0.001526
  0
LINE
  5
1686
  8
GAIKEI
  6
CONTINUOUS
 10
90.501711999999984
 20
157.06098700000001
 30
0.001526
 11
90.759664999999984
 21
157.06098700000001
 31
0.001526
  0
LINE
  5
1687
  8
GAIKEI
  6
CONTINUOUS
 10
83.517617000000001
 20
157.06098700000001
 30
0.001526
 11
87.102517999999989
 21
157.06098700000001
 31
0.001526
  0
LINE
  5
1688
  8
GAIKEI
  6
CONTINUOUS
 10
95.517617000000001
 20
147.06098700000001
 30
0.001526
 11
93.517617000000001
 21
147.06098700000001
 31
0.001526
  0
LINE
  5
1689
  8
GAIKEI
  6
CONTINUOUS
 10
91.517616999999987
 20
145.06099399999991
 30
0.001526
 11
91.517616999999987
 21
159.06098
 31
0.001526
  0
LINE
  5
168A
  8
GAIKEI
  6
CONTINUOUS
 10
90.501711999999984
 20
143.56098700000001
 30
0.001526
 11
90.501711999999984
 21
161.16098700000001
 31
0.001526
  0
LINE
  5
168B
  8
GAIKEI
  6
CONTINUOUS
 10
89.501711999999969
 20
161.16098700000001
 30
0.001526
 11
89.501711999999969
 21
143.56098700000001
 31
0.001526
  0
LINE
  5
168C
  8
GAIKEI
  6
CONTINUOUS
 10
93.517617000000001
 20
145.06099399999991
 30
0.001526
 11
93.517617000000001
 21
159.06098
 31
0.001526
  0
LINE
  5
168D
  8
GAIKEI
  6
CONTINUOUS
 10
87.101712000000006
 20
146.06098700000001
 30
0.001526
 11
87.102591000000004
 21
158.06098700000001
 31
0.001526
  0
LINE
  5
168E
  8
GAIKEI
  6
CONTINUOUS
 10
83.517617000000001
 20
146.36098699999991
 30
0.001526
 11
83.517617000000001
 21
157.760987
 31
0.001526
  0
LINE
  5
168F
  8
GAIKEI
  6
CONTINUOUS
 10
91.259664999999998
 20
150.97315299999991
 30
0.001526
 11
91.517616999999987
 21
151.0362309999999
 31
0.001526
  0
LINE
  5
1690
  8
GAIKEI
  6
CONTINUOUS
 10
91.517616999999987
 20
151.0362309999999
 30
0.001526
 11
91.259664999999998
 21
152.09110999999999
 31
0.001526
  0
LINE
  5
1691
  8
GAIKEI
  6
CONTINUOUS
 10
91.517616999999987
 20
153.08574299999981
 30
0.001526
 11
91.259664999999998
 21
153.148821
 31
0.001526
  0
LINE
  5
1692
  8
GAIKEI
  6
CONTINUOUS
 10
91.259664999999998
 20
152.03086399999981
 30
0.001526
 11
91.517616999999987
 21
153.08574299999981
 31
0.001526
  0
LINE
  5
1693
  8
GAIKEI
  6
CONTINUOUS
 10
87.701712000000001
 20
142.56098700000001
 30
0.001526
 11
89.501711999999969
 21
142.56098700000001
 31
0.001526
  0
LINE
  5
1694
  8
GAIKEI
  6
CONTINUOUS
 10
87.701712000000001
 20
143.56098700000001
 30
0.001526
 11
87.701712000000001
 21
142.56098700000001
 31
0.001526
  0
LINE
  5
1695
  8
GAIKEI
  6
CONTINUOUS
 10
89.501711999999969
 20
143.56098700000001
 30
0.001526
 11
87.701712000000001
 21
143.56098700000001
 31
0.001526
  0
LINE
  5
1696
  8
GAIKEI
  6
CONTINUOUS
 10
90.501711999999984
 20
161.16098700000001
 30
0.001526
 11
89.501711999999969
 21
161.16098700000001
 31
0.001526
  0
LINE
  5
1697
  8
GAIKEI
  6
CONTINUOUS
 10
89.501711999999969
 20
143.56098700000001
 30
0.001526
 11
90.501711999999984
 21
143.56098700000001
 31
0.001526
  0
LINE
  5
1698
  8
GAIKEI
  6
CONTINUOUS
 10
89.501711999999969
 20
143.97809099999981
 30
0.001526
 11
87.726926000000006
 21
143.97809099999981
 31
0.001526
  0
LINE
  5
1699
  8
GAIKEI
  6
CONTINUOUS
 10
87.726926000000006
 20
160.14388199999999
 30
0.001526
 11
89.501711999999969
 21
160.14388199999999
 31
0.001526
  0
LINE
  5
169A
  8
GAIKEI
  6
CONTINUOUS
 10
89.501711999999969
 20
148.01953899999981
 30
0.001526
 11
87.726926000000006
 21
148.01953899999981
 31
0.001526
  0
LINE
  5
169B
  8
GAIKEI
  6
CONTINUOUS
 10
89.501711999999969
 20
156.10243500000001
 30
0.001526
 11
87.726926000000006
 21
156.10243500000001
 31
0.001526
  0
LINE
  5
169C
  8
GAIKEI
  6
CONTINUOUS
 10
92.142831000000015
 20
143.97809099999981
 30
0.001526
 11
91.517616999999987
 21
145.06099399999991
 31
0.001526
  0
LINE
  5
169D
  8
GAIKEI
  6
CONTINUOUS
 10
91.517616999999987
 20
159.06098
 30
0.001526
 11
92.142831000000015
 21
160.14388199999999
 31
0.001526
  0
LINE
  5
169E
  8
GAIKEI
  6
CONTINUOUS
 10
93.517617000000001
 20
145.06099399999991
 30
0.001526
 11
92.892403000000016
 21
143.97809099999981
 31
0.001526
  0
LINE
  5
169F
  8
GAIKEI
  6
CONTINUOUS
 10
92.892403000000016
 20
160.14388199999999
 30
0.001526
 11
93.517617000000001
 21
159.06098
 31
0.001526
  0
LINE
  5
16A0
  8
GAIKEI
  6
CONTINUOUS
 10
92.142831000000015
 20
160.14388199999999
 30
0.001526
 11
92.892403000000016
 21
160.14388199999999
 31
0.001526
  0
LINE
  5
16A1
  8
GAIKEI
  6
CONTINUOUS
 10
92.142831000000015
 20
156.10243500000001
 30
0.001526
 11
92.892403000000016
 21
156.10243500000001
 31
0.001526
  0
LINE
  5
16A2
  8
GAIKEI
  6
CONTINUOUS
 10
92.142831000000015
 20
148.01953899999981
 30
0.001526
 11
92.892403000000016
 21
148.01953899999981
 31
0.001526
  0
LINE
  5
16A3
  8
GAIKEI
  6
CONTINUOUS
 10
92.142831000000015
 20
143.97809099999981
 30
0.001526
 11
92.892403000000016
 21
143.97809099999981
 31
0.001526
  0
LINE
  5
16A4
  8
GAIKEI
  6
CONTINUOUS
 10
90.759664999999984
 20
160.010987
 30
0.001526
 11
91.259664999999998
 21
160.010987
 31
0.001526
  0
LINE
  5
16A5
  8
GAIKEI
  6
CONTINUOUS
 10
90.501711999999984
 20
153.08574299999981
 30
0.001526
 11
90.759664999999984
 21
153.148821
 31
0.001526
  0
LINE
  5
16A6
  8
GAIKEI
  6
CONTINUOUS
 10
90.511981000000006
 20
156.33102700000001
 30
0.001526
 11
90.759664999999984
 21
156.39924600000001
 31
0.001526
  0
LINE
  5
16A7
  8
GAIKEI
  6
CONTINUOUS
 10
91.507349000000005
 20
154.60008400000001
 30
0.001526
 11
91.259664999999998
 21
154.53186499999981
 31
0.001526
  0
LINE
  5
16A8
  8
GAIKEI
  6
CONTINUOUS
 10
90.520042000000004
 20
158.37205900000001
 30
0.001526
 11
90.759664999999984
 21
158.46893600000001
 31
0.001526
  0
LINE
  5
16A9
  8
GAIKEI
  6
CONTINUOUS
 10
91.499286999999995
 20
157.28390899999991
 30
0.001526
 11
91.259664999999998
 21
157.1870319999999
 31
0.001526
  0
LINE
  5
16AA
  8
GAIKEI
  6
CONTINUOUS
 10
90.520042000000004
 20
158.37205900000001
 30
0.001526
 11
90.759664999999984
 21
158.8701249999998
 31
0.001526
  0
LINE
  5
16AB
  8
GAIKEI
  6
CONTINUOUS
 10
90.501711999999984
 20
151.0362309999999
 30
0.001526
 11
90.759664999999984
 21
152.09110999999999
 31
0.001526
  0
LINE
  5
16AC
  8
GAIKEI
  6
CONTINUOUS
 10
90.511981000000006
 20
154.60008400000001
 30
0.001526
 11
90.759664999999984
 21
155.49935500000001
 31
0.001526
  0
LINE
  5
16AD
  8
GAIKEI
  6
CONTINUOUS
 10
91.507349000000005
 20
156.33102700000001
 30
0.001526
 11
91.259664999999998
 21
155.431757
 31
0.001526
  0
LINE
  5
16AE
  8
GAIKEI
  6
CONTINUOUS
 10
90.520042000000004
 20
157.28390899999991
 30
0.001526
 11
90.759664999999984
 21
157.876609
 31
0.001526
  0
LINE
  5
16AF
  8
GAIKEI
  6
CONTINUOUS
 10
91.499286999999995
 20
158.37205900000001
 30
0.001526
 11
91.261728000000005
 21
157.7844629999999
 31
0.001526
  0
LINE
  5
16B0
  8
GAIKEI
  6
CONTINUOUS
 10
91.259664999999998
 20
158.8701249999998
 30
0.001526
 11
91.499286999999995
 21
158.37205900000001
 31
0.001526
  0
LINE
  5
16B1
  8
GAIKEI
  6
CONTINUOUS
 10
90.759664999999984
 20
160.010987
 30
0.001526
 11
90.759664999999984
 21
152.00754599999991
 31
0.001526
  0
LINE
  5
16B2
  8
GAIKEI
  6
CONTINUOUS
 10
90.759664999999984
 20
157.77935999999991
 30
0.001526
 11
90.520042000000004
 21
158.37205900000001
 31
0.001526
  0
LINE
  5
16B3
  8
GAIKEI
  6
CONTINUOUS
 10
91.261094
 20
158.46835899999999
 30
0.001526
 11
91.499286999999995
 21
158.37205900000001
 31
0.001526
  0
LINE
  5
16B4
  8
GAIKEI
  6
CONTINUOUS
 10
91.259664999999998
 20
157.876609
 30
0.001526
 11
91.499286999999995
 21
157.28390899999991
 31
0.001526
  0
LINE
  5
16B5
  8
GAIKEI
  6
CONTINUOUS
 10
90.759664999999984
 20
157.1870319999999
 30
0.001526
 11
90.520042000000004
 21
157.28390899999991
 31
0.001526
  0
LINE
  5
16B6
  8
GAIKEI
  6
CONTINUOUS
 10
91.263012000000003
 20
156.3983239999998
 30
0.001526
 11
91.507349000000005
 21
156.33102700000001
 31
0.001526
  0
LINE
  5
16B7
  8
GAIKEI
  6
CONTINUOUS
 10
90.759664999999984
 20
155.431757
 30
0.001526
 11
90.511981000000006
 21
156.33102700000001
 31
0.001526
  0
LINE
  5
16B8
  8
GAIKEI
  6
CONTINUOUS
 10
90.759664999999984
 20
154.53186499999981
 30
0.001526
 11
90.511981000000006
 21
154.60008400000001
 31
0.001526
  0
LINE
  5
16B9
  8
GAIKEI
  6
CONTINUOUS
 10
91.259664999999998
 20
155.49935500000001
 30
0.001526
 11
91.507349000000005
 21
154.60008400000001
 31
0.001526
  0
LINE
  5
16BA
  8
GAIKEI
  6
CONTINUOUS
 10
91.259664999999998
 20
160.010987
 30
0.001526
 11
91.259664999999998
 21
152.06098700000001
 31
0.001526
  0
LINE
  5
16BB
  8
GAIKEI
  6
CONTINUOUS
 10
90.759664999999984
 20
152.03086399999981
 30
0.001526
 11
90.501711999999984
 21
153.08574299999981
 31
0.001526
  0
LINE
  5
16BC
  8
GAIKEI
  6
CONTINUOUS
 10
90.759664999999984
 20
150.97315299999991
 30
0.001526
 11
90.501711999999984
 21
151.0362309999999
 31
0.001526
  0
LINE
  5
16BD
  8
GAIKEI
  6
CONTINUOUS
 10
91.259664999999998
 20
144.11098699999999
 30
0.001526
 11
90.759664999999984
 21
144.11098699999999
 31
0.001526
  0
LINE
  5
16BE
  8
GAIKEI
  6
CONTINUOUS
 10
90.759664999999984
 20
147.72272699999999
 30
0.001526
 11
90.511981000000006
 21
147.79094599999999
 31
0.001526
  0
LINE
  5
16BF
  8
GAIKEI
  6
CONTINUOUS
 10
91.259664999999998
 20
149.5901079999999
 30
0.001526
 11
91.507349000000005
 21
149.52188899999979
 31
0.001526
  0
LINE
  5
16C0
  8
GAIKEI
  6
CONTINUOUS
 10
90.759664999999984
 20
145.65303700000001
 30
0.001526
 11
90.520042000000004
 21
145.7499139999999
 31
0.001526
  0
LINE
  5
16C1
  8
GAIKEI
  6
CONTINUOUS
 10
91.259664999999998
 20
146.9349409999999
 30
0.001526
 11
91.499286999999995
 21
146.838064
 31
0.001526
  0
LINE
  5
16C2
  8
GAIKEI
  6
CONTINUOUS
 10
90.759664999999984
 20
145.25184899999991
 30
0.001526
 11
90.520042000000004
 21
145.7499139999999
 31
0.001526
  0
LINE
  5
16C3
  8
GAIKEI
  6
CONTINUOUS
 10
90.759664999999984
 20
148.6226189999999
 30
0.001526
 11
90.511981000000006
 21
149.52188899999979
 31
0.001526
  0
LINE
  5
16C4
  8
GAIKEI
  6
CONTINUOUS
 10
91.259664999999998
 20
148.69021699999999
 30
0.001526
 11
91.507349000000005
 21
147.79094599999999
 31
0.001526
  0
LINE
  5
16C5
  8
GAIKEI
  6
CONTINUOUS
 10
90.759664999999984
 20
146.24536499999999
 30
0.001526
 11
90.520042000000004
 21
146.838064
 31
0.001526
  0
LINE
  5
16C6
  8
GAIKEI
  6
CONTINUOUS
 10
91.261728000000005
 20
146.33751100000001
 30
0.001526
 11
91.499286999999995
 21
145.7499139999999
 31
0.001526
  0
LINE
  5
16C7
  8
GAIKEI
  6
CONTINUOUS
 10
91.499286999999995
 20
145.7499139999999
 30
0.001526
 11
91.259664999999998
 21
145.25184899999991
 31
0.001526
  0
LINE
  5
16C8
  8
GAIKEI
  6
CONTINUOUS
 10
90.520042000000004
 20
145.7499139999999
 30
0.001526
 11
90.759664999999984
 21
146.34261399999991
 31
0.001526
  0
LINE
  5
16C9
  8
GAIKEI
  6
CONTINUOUS
 10
91.499286999999995
 20
145.7499139999999
 30
0.001526
 11
91.261094
 21
145.6536149999998
 31
0.001526
  0
LINE
  5
16CA
  8
GAIKEI
  6
CONTINUOUS
 10
91.499286999999995
 20
146.838064
 30
0.001526
 11
91.259664999999998
 21
146.24536499999999
 31
0.001526
  0
LINE
  5
16CB
  8
GAIKEI
  6
CONTINUOUS
 10
90.520042000000004
 20
146.838064
 30
0.001526
 11
90.759664999999984
 21
146.9349409999999
 31
0.001526
  0
LINE
  5
16CC
  8
GAIKEI
  6
CONTINUOUS
 10
91.507349000000005
 20
147.79094599999999
 30
0.001526
 11
91.263012000000003
 21
147.72364899999991
 31
0.001526
  0
LINE
  5
16CD
  8
GAIKEI
  6
CONTINUOUS
 10
90.511981000000006
 20
147.79094599999999
 30
0.001526
 11
90.759664999999984
 21
148.69021699999999
 31
0.001526
  0
LINE
  5
16CE
  8
GAIKEI
  6
CONTINUOUS
 10
90.511981000000006
 20
149.52188899999979
 30
0.001526
 11
90.759664999999984
 21
149.5901079999999
 31
0.001526
  0
LINE
  5
16CF
  8
GAIKEI
  6
CONTINUOUS
 10
91.507349000000005
 20
149.52188899999979
 30
0.001526
 11
91.259664999999998
 21
148.6226189999999
 31
0.001526
  0
LINE
  5
16D0
  8
GAIKEI
  6
CONTINUOUS
 10
90.759664999999984
 20
152.11442700000001
 30
0.001526
 11
90.759664999999984
 21
144.11098699999999
 31
0.001526
  0
LINE
  5
16D1
  8
GAIKEI
  6
CONTINUOUS
 10
91.259664999999998
 20
152.06098700000001
 30
0.001526
 11
91.259664999999998
 21
144.11098699999999
 31
0.001526
  0
LINE
  5
16D2
  8
GAIKEI
  6
CONTINUOUS
 10
91.518496000000013
 20
146.06098700000001
 30
0.001526
 11
91.373524000000003
 21
146.06098700000001
 31
0.001526
  0
LINE
  5
16D3
  8
GAIKEI
  6
CONTINUOUS
 10
90.645805999999993
 20
146.06098700000001
 30
0.001526
 11
90.501711999999984
 21
146.06098700000001
 31
0.001526
  0
LINE
  5
16D4
  8
GAIKEI
  6
CONTINUOUS
 10
87.101712000000006
 20
146.06098700000001
 30
0.001526
 11
83.817616999999998
 21
146.06098700000001
 31
0.001526
  0
LINE
  5
16D5
  8
GAIKEI
  6
CONTINUOUS
 10
93.517617000000001
 20
158.06098700000001
 30
0.001526
 11
95.517617000000001
 21
158.06098700000001
 31
0.001526
  0
LINE
  5
16D6
  8
GAIKEI
  6
CONTINUOUS
 10
91.373524000000003
 20
158.06098700000001
 30
0.001526
 11
91.518496000000013
 21
158.06098700000001
 31
0.001526
  0
LINE
  5
16D7
  8
GAIKEI
  6
CONTINUOUS
 10
90.501711999999984
 20
158.06098700000001
 30
0.001526
 11
90.645805999999993
 21
158.06098700000001
 31
0.001526
  0
LINE
  5
16D8
  8
GAIKEI
  6
CONTINUOUS
 10
83.817616999999998
 20
158.06098700000001
 30
0.001526
 11
87.102591000000004
 21
158.06098700000001
 31
0.001526
  0
LINE
  5
16D9
  8
GAIKEI
  6
CONTINUOUS
 10
95.517617000000001
 20
146.06098700000001
 30
0.001526
 11
93.517617000000001
 21
146.06098700000001
 31
0.001526
  0
LINE
  5
16DA
  8
GAIKEI
  6
CONTINUOUS
 10
120.6176169999999
 20
140.5666809999999
 30
0.001526
 11
120.6176169999999
 21
141.03581299999979
 31
0.001526
  0
LINE
  5
16DB
  8
GAIKEI
  6
CONTINUOUS
 10
115.317617
 20
138.61098699999999
 30
0.001526
 11
115.6176169999999
 21
138.61098699999999
 31
0.001526
  0
LINE
  5
16DC
  8
CENTER
 10
115.41761699999979
 20
140.5666809999999
 30
0.001526
 11
120.8176169999999
 21
140.5666809999999
 31
0.001526
  0
LINE
  5
16DD
  8
GAIKEI
  6
CONTINUOUS
 10
117.117617
 20
138.61098699999999
 30
0.001526
 11
118.117617
 21
138.61098699999999
 31
0.001526
  0
LINE
  5
16DE
  8
GAIKEI
  6
CONTINUOUS
 10
118.117617
 20
142.99150700000001
 30
0.001526
 11
116.6176169999999
 21
142.99150700000001
 31
0.001526
  0
LINE
  5
16DF
  8
GAIKEI
  6
CONTINUOUS
 10
118.117617
 20
142.5326459999998
 30
0.001526
 11
115.6176169999999
 21
142.5326459999998
 31
0.001526
  0
LINE
  5
16E0
  8
CENTER
 10
118.117617
 20
138.08369899999991
 30
0.001526
 11
118.117617
 21
143.0496629999999
 31
0.001526
  0
LINE
  5
16E1
  8
GAIKEI
  6
CONTINUOUS
 10
114.117617
 20
138.56098700000001
 30
0.001526
 11
114.117617
 21
142.20306599999981
 31
0.001526
  0
LINE
  5
16E2
  8
GAIKEI
  6
CONTINUOUS
 10
115.117617
 20
138.74074400000001
 30
0.001526
 11
114.117617
 21
138.74074400000001
 31
0.001526
  0
LINE
  5
16E3
  8
GAIKEI
  6
CONTINUOUS
 10
115.41761699999979
 20
142.20306599999981
 30
0.001526
 11
114.117617
 21
142.20306599999981
 31
0.001526
  0
LINE
  5
16E4
  8
CENTER
 10
118.117617
 20
166.038275
 30
0.001526
 11
118.117617
 21
161.0723099999999
 31
0.001526
  0
LINE
  5
16E5
  8
CENTER
 10
115.41761699999979
 20
163.55529199999981
 30
0.001526
 11
120.8176169999999
 21
163.55529199999981
 31
0.001526
  0
LINE
  5
16E6
  8
GAIKEI
  6
CONTINUOUS
 10
115.6176169999999
 20
161.718907
 30
0.001526
 11
115.6176169999999
 21
154.4609869999999
 31
0.001526
  0
LINE
  5
16E7
  8
GAIKEI
  6
CONTINUOUS
 10
116.6176169999999
 20
146.31098700000001
 30
0.001526
 11
115.6176169999999
 21
146.31098700000001
 31
0.001526
  0
LINE
  5
16E8
  8
GAIKEI
  6
CONTINUOUS
 10
116.6176169999999
 20
148.31098700000001
 30
0.001526
 11
115.6176169999999
 21
148.31098700000001
 31
0.001526
  0
LINE
  5
16E9
  8
GAIKEI
  6
CONTINUOUS
 10
116.6176169999999
 20
155.81098700000001
 30
0.001526
 11
115.6176169999999
 21
155.81098700000001
 31
0.001526
  0
LINE
  5
16EA
  8
GAIKEI
  6
CONTINUOUS
 10
116.6176169999999
 20
157.81098700000001
 30
0.001526
 11
115.6176169999999
 21
157.81098700000001
 31
0.001526
  0
LINE
  5
16EB
  8
GAIKEI
  6
CONTINUOUS
 10
110.6176169999999
 20
138.56098700000001
 30
0.001526
 11
114.117617
 21
138.56098700000001
 31
0.001526
  0
LINE
  5
16EC
  8
GAIKEI
  6
CONTINUOUS
 10
109.1176169999999
 20
135.4609869999999
 30
0.001526
 11
109.1176169999999
 21
136.46098699999999
 31
0.001526
  0
LINE
  5
16ED
  8
GAIKEI
  6
CONTINUOUS
 10
111.00954899999979
 20
136.260987
 30
0.001526
 11
109.1176169999999
 21
136.260987
 31
0.001526
  0
LINE
  5
16EE
  8
GAIKEI
  6
CONTINUOUS
 10
110.717617
 20
136.46098699999999
 30
0.001526
 11
109.1176169999999
 21
136.46098699999999
 31
0.001526
  0
LINE
  5
16EF
  8
GAIKEI
  6
CONTINUOUS
 10
111.971508
 20
137.86098699999999
 30
0.001526
 11
111.227977
 21
137.56575699999991
 31
0.001526
  0
LINE
  5
16F0
  8
GAIKEI
  6
CONTINUOUS
 10
110.6176169999999
 20
138.56098700000001
 30
0.001526
 11
111.198379
 21
137.09834699999979
 31
0.001526
  0
LINE
  5
16F1
  8
GAIKEI
  6
CONTINUOUS
 10
111.227977
 20
137.56575699999991
 30
0.001526
 11
111.474256
 21
136.945505
 31
0.001526
  0
LINE
  5
16F2
  8
GAIKEI
  6
CONTINUOUS
 10
111.971508
 20
137.86098699999999
 30
0.001526
 11
112.38086699999999
 21
136.83002400000001
 31
0.001526
  0
LINE
  5
16F3
  8
GAIKEI
  6
CONTINUOUS
 10
111.4514519999999
 20
135.4609869999999
 30
0.001526
 11
96.517617000000016
 21
135.4609869999999
 31
0.001526
  0
LINE
  5
16F4
  8
GAIKEI
  6
CONTINUOUS
 10
109.1176169999999
 20
168.66098700000001
 30
0.001526
 11
109.1176169999999
 21
167.66098700000001
 31
0.001526
  0
LINE
  5
16F5
  8
GAIKEI
  6
CONTINUOUS
 10
111.971508
 20
166.260987
 30
0.001526
 11
112.38086699999999
 21
167.2919489999999
 31
0.001526
  0
LINE
  5
16F6
  8
GAIKEI
  6
CONTINUOUS
 10
111.971508
 20
166.260987
 30
0.001526
 11
111.227977
 21
166.556217
 31
0.001526
  0
LINE
  5
16F7
  8
GAIKEI
  6
CONTINUOUS
 10
111.227977
 20
166.556217
 30
0.001526
 11
111.474256
 21
167.176468
 31
0.001526
  0
LINE
  5
16F8
  8
GAIKEI
  6
CONTINUOUS
 10
96.217617000000004
 20
168.614926
 30
0.001526
 11
96.217617000000004
 21
135.50704799999991
 31
0.001526
  0
LINE
  5
16F9
  8
GAIKEI
  6
CONTINUOUS
 10
111.00954899999979
 20
167.86098699999999
 30
0.001526
 11
109.1176169999999
 21
167.86098699999999
 31
0.001526
  0
LINE
  5
16FA
  8
GAIKEI
  6
CONTINUOUS
 10
110.6176169999999
 20
165.56098700000001
 30
0.001526
 11
111.198379
 21
167.02362600000001
 31
0.001526
  0
LINE
  5
16FB
  8
GAIKEI
  6
CONTINUOUS
 10
110.717617
 20
167.66098700000001
 30
0.001526
 11
109.1176169999999
 21
167.66098700000001
 31
0.001526
  0
LINE
  5
16FC
  8
GAIKEI
  6
CONTINUOUS
 10
111.4514519999999
 20
168.66098700000001
 30
0.001526
 11
96.517617000000016
 21
168.66098700000001
 31
0.001526
  0
LINE
  5
16FD
  8
GAIKEI
  6
CONTINUOUS
 10
139.117617
 20
168.66098700000001
 30
0.001526
 11
158.11761699999991
 21
168.66098700000001
 31
0.001526
  0
LINE
  5
16FE
  8
GAIKEI
  6
CONTINUOUS
 10
144.5342829999999
 20
167.86098699999999
 30
0.001526
 11
152.70095000000001
 21
167.86098699999999
 31
0.001526
  0
LINE
  5
16FF
  8
GAIKEI
  6
CONTINUOUS
 10
139.117617
 20
165.56098700000001
 30
0.001526
 11
158.11761699999991
 21
165.56098700000001
 31
0.001526
  0
LINE
  5
1700
  8
GAIKEI
  6
CONTINUOUS
 10
157.48818600000001
 20
161.601496
 30
0.001526
 11
156.81548699999991
 21
161.13046599999981
 31
0.001526
  0
LINE
  5
1701
  8
GAIKEI
  6
CONTINUOUS
 10
156.5369409999999
 20
161.17958200000001
 30
0.001526
 11
156.700771
 21
161.2942969999998
 31
0.001526
  0
LINE
  5
1702
  8
GAIKEI
  6
CONTINUOUS
 10
156.9676169999999
 20
167.86098699999999
 30
0.001526
 11
156.9676169999999
 21
168.66098700000001
 31
0.001526
  0
LINE
  5
1703
  8
GAIKEI
  6
CONTINUOUS
 10
154.71764099999979
 20
165.52125699999991
 30
0.001526
 11
154.0623199999998
 21
165.06239600000001
 31
0.001526
  0
LINE
  5
1704
  8
GAIKEI
  6
CONTINUOUS
 10
154.01320499999991
 20
164.78385099999991
 30
0.001526
 11
154.17703499999999
 21
164.8985659999999
 31
0.001526
  0
LINE
  5
1705
  8
GAIKEI
  6
CONTINUOUS
 10
153.735173
 20
164.833326
 30
0.001526
 11
150.867627
 21
162.82544799999999
 31
0.001526
  0
LINE
  5
1706
  8
GAIKEI
  6
CONTINUOUS
 10
154.66130200000001
 20
166.260987
 30
0.001526
 11
152.97393199999999
 21
166.260987
 31
0.001526
  0
LINE
  5
1707
  8
GAIKEI
  6
CONTINUOUS
 10
154.96123600000001
 20
166.56723500000001
 30
0.001526
 11
154.91761699999981
 21
168.66098700000001
 31
0.001526
  0
LINE
  5
1708
  8
GAIKEI
  6
CONTINUOUS
 10
152.7176169999999
 20
168.66098700000001
 30
0.001526
 11
152.6739969999999
 21
166.56723500000001
 31
0.001526
  0
LINE
  5
1709
  8
CENTER
 10
152.81761699999981
 20
163.9609869999999
 30
0.001526
 11
152.81761699999981
 21
158.56098700000001
 31
0.001526
  0
LINE
  5
170A
  8
GAIKEI
  6
CONTINUOUS
 10
156.48782600000001
 20
160.901036
 30
0.001526
 11
153.6207939999999
 21
158.893518
 31
0.001526
  0
LINE
  5
170B
  8
GAIKEI
  6
CONTINUOUS
 10
157.487551
 20
161.565416
 30
0.001526
 11
154.71764099999979
 21
165.52125699999991
 31
0.001526
  0
LINE
  5
170C
  8
GAIKEI
  6
CONTINUOUS
 10
156.81548699999991
 20
161.13046599999981
 30
0.001526
 11
154.0623199999998
 21
165.06239600000001
 31
0.001526
  0
LINE
  5
170D
  8
GAIKEI
  6
CONTINUOUS
 10
154.93428299999999
 20
167.86098699999999
 30
0.001526
 11
156.9676169999999
 21
167.86098699999999
 31
0.001526
  0
LINE
  5
170E
  8
CENTER
 10
155.517617
 20
161.260987
 30
0.001526
 11
154.81761699999981
 21
161.260987
 31
0.001526
  0
LINE
  5
170F
  8
GAIKEI
  6
CONTINUOUS
 10
144.517617
 20
168.66098700000001
 30
0.001526
 11
144.56123600000001
 21
166.56723500000001
 31
0.001526
  0
LINE
  5
1710
  8
CENTER
 10
144.41761699999981
 20
163.9609869999999
 30
0.001526
 11
144.41761699999981
 21
158.56098700000001
 31
0.001526
  0
LINE
  5
1711
  8
GAIKEI
  6
CONTINUOUS
 10
140.6982919999999
 20
161.17958200000001
 30
0.001526
 11
140.53446199999991
 21
161.2942969999998
 31
0.001526
  0
LINE
  5
1712
  8
GAIKEI
  6
CONTINUOUS
 10
139.74704700000001
 20
161.601496
 30
0.001526
 11
140.4197469999998
 21
161.13046599999981
 31
0.001526
  0
LINE
  5
1713
  8
GAIKEI
  6
CONTINUOUS
 10
140.74740700000001
 20
160.901036
 30
0.001526
 11
143.61444
 21
158.893518
 31
0.001526
  0
LINE
  5
1714
  8
GAIKEI
  6
CONTINUOUS
 10
143.22202899999991
 20
164.78385099999991
 30
0.001526
 11
143.058198
 21
164.8985659999999
 31
0.001526
  0
LINE
  5
1715
  8
GAIKEI
  6
CONTINUOUS
 10
142.51759199999981
 20
165.52125699999991
 30
0.001526
 11
143.17291399999991
 21
165.06239600000001
 31
0.001526
  0
LINE
  5
1716
  8
GAIKEI
  6
CONTINUOUS
 10
142.27399700000001
 20
166.56723500000001
 30
0.001526
 11
142.31761699999981
 21
168.66098700000001
 31
0.001526
  0
LINE
  5
1717
  8
GAIKEI
  6
CONTINUOUS
 10
140.267617
 20
167.86098699999999
 30
0.001526
 11
140.267617
 21
168.66098700000001
 31
0.001526
  0
LINE
  5
1718
  8
GAIKEI
  6
CONTINUOUS
 10
140.267617
 20
167.86098699999999
 30
0.001526
 11
142.30095
 21
167.86098699999999
 31
0.001526
  0
LINE
  5
1719
  8
GAIKEI
  6
CONTINUOUS
 10
140.4197469999998
 20
161.13046599999981
 30
0.001526
 11
143.17291399999991
 21
165.06239600000001
 31
0.001526
  0
LINE
  5
171A
  8
GAIKEI
  6
CONTINUOUS
 10
139.7644249999999
 20
161.58932799999991
 30
0.001526
 11
142.51759199999981
 21
165.52125699999991
 31
0.001526
  0
LINE
  5
171B
  8
GAIKEI
  6
CONTINUOUS
 10
143.50005999999991
 20
164.833326
 30
0.001526
 11
146.36760699999991
 21
162.82544799999999
 31
0.001526
  0
LINE
  5
171C
  8
GAIKEI
  6
CONTINUOUS
 10
142.57393200000001
 20
166.260987
 30
0.001526
 11
144.261302
 21
166.260987
 31
0.001526
  0
LINE
  5
171D
  8
CENTER
 10
141.7176169999999
 20
161.260987
 30
0.001526
 11
147.11761699999991
 21
161.260987
 31
0.001526
  0
LINE
  5
171E
  8
CENTER
 10
152.81761699999981
 20
140.16098700000001
 30
0.001526
 11
152.81761699999981
 21
145.56098700000001
 31
0.001526
  0
LINE
  5
171F
  8
CENTER
 10
155.517617
 20
142.86098699999999
 30
0.001526
 11
150.11761699999991
 21
142.86098699999999
 31
0.001526
  0
LINE
  5
1720
  8
CENTER
 10
144.41761699999981
 20
140.16098700000001
 30
0.001526
 11
144.41761699999981
 21
145.56098700000001
 31
0.001526
  0
LINE
  5
1721
  8
GAIKEI
  6
CONTINUOUS
 10
154.93428299999999
 20
136.260987
 30
0.001526
 11
156.9676169999999
 21
136.260987
 31
0.001526
  0
LINE
  5
1722
  8
GAIKEI
  6
CONTINUOUS
 10
152.7176169999999
 20
135.4609869999999
 30
0.001526
 11
152.6739969999999
 21
137.5547379999999
 31
0.001526
  0
LINE
  5
1723
  8
GAIKEI
  6
CONTINUOUS
 10
154.96123600000001
 20
137.5547379999999
 30
0.001526
 11
154.91761699999981
 21
135.4609869999999
 31
0.001526
  0
LINE
  5
1724
  8
GAIKEI
  6
CONTINUOUS
 10
154.66130200000001
 20
137.86098699999999
 30
0.001526
 11
152.97393199999999
 21
137.86098699999999
 31
0.001526
  0
LINE
  5
1725
  8
GAIKEI
  6
CONTINUOUS
 10
144.5342829999999
 20
136.260987
 30
0.001526
 11
152.70095000000001
 21
136.260987
 31
0.001526
  0
LINE
  5
1726
  8
GAIKEI
  6
CONTINUOUS
 10
144.517617
 20
135.4609869999999
 30
0.001526
 11
144.56123600000001
 21
137.5547379999999
 31
0.001526
  0
LINE
  5
1727
  8
GAIKEI
  6
CONTINUOUS
 10
142.27399700000001
 20
137.5547379999999
 30
0.001526
 11
142.31761699999981
 21
135.4609869999999
 31
0.001526
  0
LINE
  5
1728
  8
GAIKEI
  6
CONTINUOUS
 10
142.57393200000001
 20
137.86098699999999
 30
0.001526
 11
144.261302
 21
137.86098699999999
 31
0.001526
  0
LINE
  5
1729
  8
GAIKEI
  6
CONTINUOUS
 10
154.01320499999991
 20
139.33812299999991
 30
0.001526
 11
154.17703499999999
 21
139.22340800000001
 31
0.001526
  0
LINE
  5
172A
  8
GAIKEI
  6
CONTINUOUS
 10
154.71764099999979
 20
138.60071600000001
 30
0.001526
 11
154.0623199999998
 21
139.05957699999999
 31
0.001526
  0
LINE
  5
172B
  8
GAIKEI
  6
CONTINUOUS
 10
156.81548699999991
 20
142.99150700000001
 30
0.001526
 11
154.0623199999998
 21
139.05957699999999
 31
0.001526
  0
LINE
  5
172C
  8
GAIKEI
  6
CONTINUOUS
 10
157.487551
 20
142.556557
 30
0.001526
 11
154.71764099999979
 21
138.60071600000001
 31
0.001526
  0
LINE
  5
172D
  8
GAIKEI
  6
CONTINUOUS
 10
153.735173
 20
139.28864799999999
 30
0.001526
 11
150.867627
 21
141.296525
 31
0.001526
  0
LINE
  5
172E
  8
GAIKEI
  6
CONTINUOUS
 10
156.5369409999999
 20
142.94239199999981
 30
0.001526
 11
156.700771
 21
142.82767699999991
 31
0.001526
  0
LINE
  5
172F
  8
GAIKEI
  6
CONTINUOUS
 10
157.48818600000001
 20
142.520478
 30
0.001526
 11
156.81548699999991
 21
142.99150700000001
 31
0.001526
  0
LINE
  5
1730
  8
GAIKEI
  6
CONTINUOUS
 10
156.48782600000001
 20
143.2209379999999
 30
0.001526
 11
153.6207939999999
 21
145.22845499999991
 31
0.001526
  0
LINE
  5
1731
  8
GAIKEI
  6
CONTINUOUS
 10
156.9676169999999
 20
136.260987
 30
0.001526
 11
156.9676169999999
 21
135.4609869999999
 31
0.001526
  0
LINE
  5
1732
  8
GAIKEI
  6
CONTINUOUS
 10
140.267617
 20
136.260987
 30
0.001526
 11
140.267617
 21
135.4609869999999
 31
0.001526
  0
LINE
  5
1733
  8
GAIKEI
  6
CONTINUOUS
 10
139.117617
 20
138.56098700000001
 30
0.001526
 11
158.11761699999991
 21
138.56098700000001
 31
0.001526
  0
LINE
  5
1734
  8
GAIKEI
  6
CONTINUOUS
 10
140.267617
 20
136.260987
 30
0.001526
 11
142.30095
 21
136.260987
 31
0.001526
  0
LINE
  5
1735
  8
GAIKEI
  6
CONTINUOUS
 10
139.517617
 20
149.66098700000001
 30
0.001526
 11
145.11761699999991
 21
149.66098700000001
 31
0.001526
  0
LINE
  5
1736
  8
GAIKEI
  6
CONTINUOUS
 10
139.517617
 20
154.4609869999999
 30
0.001526
 11
145.11761699999991
 21
154.4609869999999
 31
0.001526
  0
LINE
  5
1737
  8
GAIKEI
  6
CONTINUOUS
 10
143.22202899999991
 20
139.33812299999991
 30
0.001526
 11
143.058198
 21
139.22340800000001
 31
0.001526
  0
LINE
  5
1738
  8
GAIKEI
  6
CONTINUOUS
 10
142.51759199999981
 20
138.60071600000001
 30
0.001526
 11
143.17291399999991
 21
139.05957699999999
 31
0.001526
  0
LINE
  5
1739
  8
GAIKEI
  6
CONTINUOUS
 10
140.6982919999999
 20
142.94239199999981
 30
0.001526
 11
140.53446199999991
 21
142.82767699999991
 31
0.001526
  0
LINE
  5
173A
  8
GAIKEI
  6
CONTINUOUS
 10
139.74704700000001
 20
142.520478
 30
0.001526
 11
140.4197469999998
 21
142.99150700000001
 31
0.001526
  0
LINE
  5
173B
  8
GAIKEI
  6
CONTINUOUS
 10
140.4197469999998
 20
142.99150700000001
 30
0.001526
 11
143.17291399999991
 21
139.05957699999999
 31
0.001526
  0
LINE
  5
173C
  8
GAIKEI
  6
CONTINUOUS
 10
139.7644249999999
 20
142.5326459999998
 30
0.001526
 11
142.51759199999981
 21
138.60071600000001
 31
0.001526
  0
LINE
  5
173D
  8
GAIKEI
  6
CONTINUOUS
 10
140.74740700000001
 20
143.2209379999999
 30
0.001526
 11
143.61444
 21
145.22845499999991
 31
0.001526
  0
LINE
  5
173E
  8
GAIKEI
  6
CONTINUOUS
 10
143.50005999999991
 20
139.28864799999999
 30
0.001526
 11
146.36760699999991
 21
141.296525
 31
0.001526
  0
LINE
  5
173F
  8
CENTER
 10
141.7176169999999
 20
142.86098699999999
 30
0.001526
 11
147.11761699999991
 21
142.86098699999999
 31
0.001526
  0
LINE
  5
1740
  8
GAIKEI
  6
CONTINUOUS
 10
149.617617
 20
146.31098700000001
 30
0.001526
 11
154.617617
 21
146.31098700000001
 31
0.001526
  0
LINE
  5
1741
  8
GAIKEI
  6
CONTINUOUS
 10
149.617617
 20
146.31098700000001
 30
0.001526
 11
149.617617
 21
142.06098700000001
 31
0.001526
  0
LINE
  5
1742
  8
GAIKEI
  6
CONTINUOUS
 10
147.617617
 20
146.31098700000001
 30
0.001526
 11
147.617617
 21
142.06098700000001
 31
0.001526
  0
LINE
  5
1743
  8
GAIKEI
  6
CONTINUOUS
 10
149.617617
 20
148.31098700000001
 30
0.001526
 11
154.617617
 21
148.31098700000001
 31
0.001526
  0
LINE
  5
1744
  8
GAIKEI
  6
CONTINUOUS
 10
147.617617
 20
155.81098700000001
 30
0.001526
 11
147.617617
 21
148.31098700000001
 31
0.001526
  0
LINE
  5
1745
  8
GAIKEI
  6
CONTINUOUS
 10
149.617617
 20
155.81098700000001
 30
0.001526
 11
149.617617
 21
148.31098700000001
 31
0.001526
  0
LINE
  5
1746
  8
GAIKEI
  6
CONTINUOUS
 10
149.617617
 20
155.81098700000001
 30
0.001526
 11
154.617617
 21
155.81098700000001
 31
0.001526
  0
LINE
  5
1747
  8
GAIKEI
  6
CONTINUOUS
 10
149.617617
 20
157.81098700000001
 30
0.001526
 11
154.617617
 21
157.81098700000001
 31
0.001526
  0
LINE
  5
1748
  8
GAIKEI
  6
CONTINUOUS
 10
142.61761699999991
 20
157.81098700000001
 30
0.001526
 11
147.617617
 21
157.81098700000001
 31
0.001526
  0
LINE
  5
1749
  8
GAIKEI
  6
CONTINUOUS
 10
142.61761699999991
 20
155.81098700000001
 30
0.001526
 11
147.617617
 21
155.81098700000001
 31
0.001526
  0
LINE
  5
174A
  8
GAIKEI
  6
CONTINUOUS
 10
149.617617
 20
162.06098700000001
 30
0.001526
 11
149.617617
 21
157.81098700000001
 31
0.001526
  0
LINE
  5
174B
  8
GAIKEI
  6
CONTINUOUS
 10
147.617617
 20
162.06098700000001
 30
0.001526
 11
147.617617
 21
157.81098700000001
 31
0.001526
  0
LINE
  5
174C
  8
GAIKEI
  6
CONTINUOUS
 10
142.61761699999991
 20
146.31098700000001
 30
0.001526
 11
147.617617
 21
146.31098700000001
 31
0.001526
  0
LINE
  5
174D
  8
GAIKEI
  6
CONTINUOUS
 10
142.61761699999991
 20
148.31098700000001
 30
0.001526
 11
147.617617
 21
148.31098700000001
 31
0.001526
  0
LINE
  5
174E
  8
CENTER
 10
137.61761699999991
 20
152.06098700000001
 30
0.001526
 11
159.61761699999991
 21
152.06098700000001
 31
0.001526
  0
LINE
  5
174F
  8
GAIKEI
  6
CONTINUOUS
 10
139.117617
 20
135.4609869999999
 30
0.001526
 11
158.11761699999991
 21
135.4609869999999
 31
0.001526
  0
LINE
  5
1750
  8
GAIKEI
  6
CONTINUOUS
 10
158.11761699999991
 20
168.66098700000001
 30
0.001526
 11
158.11761699999991
 21
135.4609869999999
 31
0.001526
  0
LINE
  5
1751
  8
GAIKEI
  6
CONTINUOUS
 10
139.117617
 20
168.66098700000001
 30
0.001526
 11
139.117617
 21
135.4609869999999
 31
0.001526
  0
LINE
  5
1752
  8
CENTER
 10
148.617617
 20
170.16098700000001
 30
0.001526
 11
148.617617
 21
133.9609869999999
 31
0.001526
  0
LINE
  5
1753
  8
GAIKEI
  6
CONTINUOUS
 10
40.728589999999997
 20
151.64373999999981
 30
0.001526
 11
41.514713999999998
 21
155.80938399999991
 31
0.001526
  0
LINE
  5
1754
  8
GAIKEI
  6
CONTINUOUS
 10
35.520519
 20
155.80938399999991
 30
0.001526
 11
36.306643000000001
 21
151.64373999999981
 31
0.001526
  0
LINE
  5
1755
  8
GAIKEI
  6
CONTINUOUS
 10
44.217616999999997
 20
144.96732800000001
 30
0.001526
 11
44.217616999999997
 21
137.06098700000001
 31
0.001526
  0
LINE
  5
1756
  8
GAIKEI
  6
CONTINUOUS
 10
41.21761699999999
 20
143.37076200000001
 30
0.001526
 11
41.21761699999999
 21
137.06098700000001
 31
0.001526
  0
LINE
  5
1757
  8
GAIKEI
  6
CONTINUOUS
 10
32.817616999999998
 20
144.96732800000001
 30
0.001526
 11
32.817616999999998
 21
137.06098700000001
 31
0.001526
  0
LINE
  5
1758
  8
GAIKEI
  6
CONTINUOUS
 10
35.817616999999991
 20
143.37076200000001
 30
0.001526
 11
35.817616999999991
 21
137.06098700000001
 31
0.001526
  0
LINE
  5
1759
  8
GAIKEI
  6
CONTINUOUS
 10
35.817616999999991
 20
167.06098700000001
 30
0.001526
 11
35.817616999999991
 21
160.75121100000001
 31
0.001526
  0
LINE
  5
175A
  8
GAIKEI
  6
CONTINUOUS
 10
32.817616999999998
 20
167.06098700000001
 30
0.001526
 11
32.817616999999998
 21
159.1546459999999
 31
0.001526
  0
LINE
  5
175B
  8
GAIKEI
  6
CONTINUOUS
 10
44.217616999999997
 20
167.06098700000001
 30
0.001526
 11
44.217616999999997
 21
159.1546459999999
 31
0.001526
  0
LINE
  5
175C
  8
GAIKEI
  6
CONTINUOUS
 10
41.21761699999999
 20
167.06098700000001
 30
0.001526
 11
41.21761699999999
 21
160.75121100000001
 31
0.001526
  0
LINE
  5
175D
  8
GAIKEI
  6
CONTINUOUS
 10
46.867616999999989
 20
148.44332199999991
 30
0.001526
 11
46.867616999999989
 21
135.4609869999999
 31
0.001526
  0
LINE
  5
175E
  8
GAIKEI
  6
CONTINUOUS
 10
30.167616999999989
 20
148.44332199999991
 30
0.001526
 11
30.167616999999989
 21
135.4609869999999
 31
0.001526
  0
LINE
  5
175F
  8
GAIKEI
  6
CONTINUOUS
 10
48.017617000000001
 20
168.66098700000001
 30
0.001526
 11
48.017617000000001
 21
135.4609869999999
 31
0.001526
  0
LINE
  5
1760
  8
GAIKEI
  6
CONTINUOUS
 10
29.017616999999991
 20
168.66098700000001
 30
0.001526
 11
29.017616999999991
 21
135.4609869999999
 31
0.001526
  0
LINE
  5
1761
  8
GAIKEI
  6
CONTINUOUS
 10
29.017616999999991
 20
135.4609869999999
 30
0.001526
 11
48.017617000000001
 21
135.4609869999999
 31
0.001526
  0
LINE
  5
1762
  8
GAIKEI
  6
CONTINUOUS
 10
29.017616999999991
 20
168.66098700000001
 30
0.001526
 11
48.017617000000001
 21
168.66098700000001
 31
0.001526
  0
LINE
  5
1763
  8
GAIKEI
  6
CONTINUOUS
 10
46.867616999999989
 20
168.66098700000001
 30
0.001526
 11
46.867616999999989
 21
155.6786519999998
 31
0.001526
  0
LINE
  5
1764
  8
GAIKEI
  6
CONTINUOUS
 10
30.167616999999989
 20
168.66098700000001
 30
0.001526
 11
30.167616999999989
 21
155.6786519999998
 31
0.001526
  0
LINE
  5
1765
  8
GAIKEI
  6
CONTINUOUS
 10
120.6176169999999
 20
163.55529199999981
 30
0.001526
 11
120.6176169999999
 21
163.086161
 31
0.001526
  0
LINE
  5
1766
  8
GAIKEI
  6
CONTINUOUS
 10
116.6176169999999
 20
161.13046599999981
 30
0.001526
 11
116.6176169999999
 21
154.4609869999999
 31
0.001526
  0
LINE
  5
1767
  8
GAIKEI
  6
CONTINUOUS
 10
115.41761699999979
 20
161.91890699999999
 30
0.001526
 11
114.117617
 21
161.91890699999999
 31
0.001526
  0
LINE
  5
1768
  8
GAIKEI
  6
CONTINUOUS
 10
115.117617
 20
165.38122899999991
 30
0.001526
 11
114.117617
 21
165.38122899999991
 31
0.001526
  0
LINE
  5
1769
  8
GAIKEI
  6
CONTINUOUS
 10
115.317617
 20
165.5109869999998
 30
0.001526
 11
115.6176169999999
 21
165.5109869999998
 31
0.001526
  0
LINE
  5
176A
  8
GAIKEI
  6
CONTINUOUS
 10
114.117617
 20
165.56098700000001
 30
0.001526
 11
114.117617
 21
161.91890699999999
 31
0.001526
  0
LINE
  5
176B
  8
GAIKEI
  6
CONTINUOUS
 10
118.117617
 20
161.13046599999981
 30
0.001526
 11
115.6176169999999
 21
161.13046599999981
 31
0.001526
  0
LINE
  5
176C
  8
GAIKEI
  6
CONTINUOUS
 10
118.117617
 20
161.58932799999991
 30
0.001526
 11
115.6176169999999
 21
161.58932799999991
 31
0.001526
  0
LINE
  5
176D
  8
GAIKEI
  6
CONTINUOUS
 10
117.117617
 20
165.5109869999998
 30
0.001526
 11
118.117617
 21
165.5109869999998
 31
0.001526
  0
LINE
  5
176E
  8
CENTER
 10
121.8201649999999
 20
152.06098700000001
 30
0.001526
 11
66.017617000000001
 21
152.06098700000001
 31
0.001526
  0
LINE
  5
176F
  8
GAIKEI
  6
CONTINUOUS
 10
37.59261699999999
 20
147.16098699999981
 30
0.001526
 11
39.442616999999998
 21
147.16098699999981
 31
0.001526
  0
LINE
  5
1770
  8
GAIKEI
  6
CONTINUOUS
 10
39.442616999999998
 20
147.16098699999981
 30
0.001526
 11
39.442616999999998
 21
146.13271799999981
 31
0.001526
  0
LINE
  5
1771
  8
GAIKEI
  6
CONTINUOUS
 10
37.59261699999999
 20
147.16098699999981
 30
0.001526
 11
37.59261699999999
 21
146.13271799999981
 31
0.001526
  0
LINE
  5
1772
  8
GAIKEI
  6
CONTINUOUS
 10
45.517617000000001
 20
148.01953499999991
 30
0.001526
 11
45.517617000000001
 21
156.102439
 31
0.001526
  0
LINE
  5
1773
  8
GAIKEI
  6
CONTINUOUS
 10
38.517617000000001
 20
143.97808299999991
 30
0.001526
 11
45.517617000000001
 21
148.01953499999991
 31
0.001526
  0
LINE
  5
1774
  8
GAIKEI
  6
CONTINUOUS
 10
31.517616999999991
 20
148.01953499999991
 30
0.001526
 11
38.517617000000001
 21
143.97808299999991
 31
0.001526
  0
LINE
  5
1775
  8
GAIKEI
  6
CONTINUOUS
 10
31.517616999999991
 20
156.102439
 30
0.001526
 11
31.517616999999991
 21
148.01953499999991
 31
0.001526
  0
LINE
  5
1776
  8
GAIKEI
  6
CONTINUOUS
 10
38.517617000000001
 20
160.14388999999991
 30
0.001526
 11
31.517616999999991
 21
156.102439
 31
0.001526
  0
LINE
  5
1777
  8
GAIKEI
  6
CONTINUOUS
 10
45.517617000000001
 20
156.102439
 30
0.001526
 11
38.517617000000001
 21
160.14388999999991
 31
0.001526
  0
LINE
  5
1778
  8
GAIKEI
  6
CONTINUOUS
 10
39.917616999999993
 20
143.56098700000001
 30
0.001526
 11
39.917616999999993
 21
142.56098700000001
 31
0.001526
  0
LINE
  5
1779
  8
GAIKEI
  6
CONTINUOUS
 10
37.117616999999981
 20
143.56098700000001
 30
0.001526
 11
37.117616999999981
 21
142.56098700000001
 31
0.001526
  0
LINE
  5
177A
  8
GAIKEI
  6
CONTINUOUS
 10
37.117616999999981
 20
143.56098700000001
 30
0.001526
 11
39.917616999999993
 21
143.56098700000001
 31
0.001526
  0
LINE
  5
177B
  8
GAIKEI
  6
CONTINUOUS
 10
37.117616999999981
 20
142.56098700000001
 30
0.001526
 11
39.917616999999993
 21
142.56098700000001
 31
0.001526
  0
LINE
  5
177C
  8
GAIKEI
  6
CONTINUOUS
 10
83.517617000000001
 20
155.50679399999979
 30
0.001526
 11
69.534480000000002
 21
159.3620379999999
 31
0.001526
  0
LINE
  5
177D
  8
GAIKEI
  6
CONTINUOUS
 10
68.227493999999993
 20
153.46660700000001
 30
0.001526
 11
83.517617000000001
 21
150.88428899999991
 31
0.001526
  0
LINE
  5
177E
  8
GAIKEI
  6
CONTINUOUS
 10
110.6176169999999
 20
165.56098700000001
 30
0.001526
 11
114.117617
 21
165.56098700000001
 31
0.001526
  0
LINE
  5
177F
  8
CENTER
 10
27.517616999999991
 20
152.06098700000001
 30
0.001526
 11
49.517617000000001
 21
152.06098700000001
 31
0.001526
  0
LINE
  5
1780
  8
CENTER
 10
38.517617000000001
 20
170.16098700000001
 30
0.001526
 11
38.517617000000001
 21
133.9609869999999
 31
0.001526
  0
LINE
  5
1781
  8
GAIKEI
  6
CONTINUOUS
 10
95.517617000000001
 20
167.66098700000001
 30
0.001526
 11
95.517617000000001
 21
136.16098700000001
 31
0.001526
  0
LINE
  5
1782
  8
GAIKEI
  6
CONTINUOUS
 10
114.117616
 20
149.66098700000001
 30
0.001526
 11
114.9176159999999
 21
149.66098700000001
 31
0.001526
  0
LINE
  5
1783
  8
CENTER
 10
144.41761699999981
 20
154.760987
 30
0.001526
 11
144.41761699999981
 21
149.36098699999999
 31
0.001526
  0
LINE
  5
1784
  8
GAIKEI
  6
CONTINUOUS
 10
141.2176169999999
 20
149.66098700000001
 30
0.001526
 11
141.2176169999999
 21
154.4609869999999
 31
0.001526
  0
LINE
  5
1785
  8
GAIKEI
  6
CONTINUOUS
 10
140.41761599999981
 20
149.66098700000001
 30
0.001526
 11
140.41761599999981
 21
154.4609869999999
 31
0.001526
  0
LINE
  5
1786
  8
GAIKEI
  6
CONTINUOUS
 10
141.41761599999981
 20
149.86098699999991
 30
0.001526
 11
141.21761599999999
 21
149.86098699999991
 31
0.001526
  0
LINE
  5
1787
  8
GAIKEI
  6
CONTINUOUS
 10
141.217615
 20
154.2609869999998
 30
0.001526
 11
141.41761499999981
 21
154.2609869999998
 31
0.001526
  0
LINE
  5
1788
  8
GAIKEI
  6
CONTINUOUS
 10
152.11761699999991
 20
149.66098700000001
 30
0.001526
 11
157.7176169999999
 21
149.66098700000001
 31
0.001526
  0
LINE
  5
1789
  8
GAIKEI
  6
CONTINUOUS
 10
152.11761699999991
 20
154.4609869999999
 30
0.001526
 11
157.7176169999999
 21
154.4609869999999
 31
0.001526
  0
LINE
  5
178A
  8
GAIKEI
  6
CONTINUOUS
 10
156.017617
 20
154.4609869999999
 30
0.001526
 11
156.017617
 21
149.66098700000001
 31
0.001526
  0
LINE
  5
178B
  8
GAIKEI
  6
CONTINUOUS
 10
156.8176169999999
 20
154.4609869999999
 30
0.001526
 11
156.8176169999999
 21
149.66098700000001
 31
0.001526
  0
LINE
  5
178C
  8
GAIKEI
  6
CONTINUOUS
 10
156.017617
 20
149.86098699999991
 30
0.001526
 11
155.81761799999981
 21
149.86098699999991
 31
0.001526
  0
LINE
  5
178D
  8
GAIKEI
  6
CONTINUOUS
 10
155.81761799999981
 20
154.2609869999998
 30
0.001526
 11
156.017618
 21
154.2609869999998
 31
0.001526
  0
LINE
  5
178E
  8
CENTER
 10
152.81761699999981
 20
149.36098699999999
 30
0.001526
 11
152.81761699999981
 21
154.760987
 31
0.001526
  0
LINE
  5
178F
  8
GAIKEI
  6
CONTINUOUS
 10
114.117616
 20
149.66098700000001
 30
0.001526
 11
114.117616
 21
149.86098699999991
 31
0.001526
  0
LINE
  5
1790
  8
GAIKEI
  6
CONTINUOUS
 10
115.6176169999999
 20
142.40306599999991
 30
0.001526
 11
115.6176169999999
 21
149.66098700000001
 31
0.001526
  0
LINE
  5
1791
  8
GAIKEI
  6
CONTINUOUS
 10
116.6176169999999
 20
148.31098700000001
 30
0.001526
 11
116.6176169999999
 21
149.66098700000001
 31
0.001526
  0
LINE
  5
1792
  8
GAIKEI
  6
CONTINUOUS
 10
115.58974499999979
 20
149.66098700000001
 30
0.001526
 11
118.7922939999999
 21
149.66098700000001
 31
0.001526
  0
LINE
  5
1793
  8
GAIKEI
  6
CONTINUOUS
 10
116.6176169999999
 20
148.31098700000001
 30
0.001526
 11
116.6176169999999
 21
142.99150700000001
 31
0.001526
  0
LINE
  5
1794
  8
GAIKEI
  6
CONTINUOUS
 10
116.6176169999999
 20
142.99150700000001
 30
0.001526
 11
115.6176169999999
 21
142.99150700000001
 31
0.001526
  0
LINE
  5
1795
  8
CENTER
 10
118.092294
 20
154.760987
 30
0.001526
 11
118.092294
 21
149.36098699999999
 31
0.001526
  0
ARC
  5
1796
  8
GAIKEI
  6
CONTINUOUS
 10
31.435593999999998
 20
69.742531999999997
 30
0.001526
 40
9.0999999999999996
 50
180.0
 51
261.076728
  0
ARC
  5
1797
  8
GAIKEI
  6
CONTINUOUS
 10
31.435593999999998
 20
69.742531999999997
 30
0.001526
 40
9.0999999999999996
 50
278.77650899999992
 51
180.0
  0
ARC
  5
1798
  8
GAIKEI
  6
CONTINUOUS
 10
74.942261000000002
 20
62.535993999999981
 30
0.001526
 40
1.1999999999999991
 50
21.554437
 51
90.0
  0
ARC
  5
1799
  8
GAIKEI
  6
CONTINUOUS
 10
74.942261000000002
 20
77.035993999999974
 30
0.001526
 40
1.1999999999999991
 50
201.55443700000001
 51
270.0
  0
ARC
  5
179A
  8
GAIKEI
  6
CONTINUOUS
 10
153.92275100000001
 20
52.08215899999999
 30
0.001526
 40
13.374772
 50
252.412046
 51
287.58795400000002
  0
ARC
  5
179B
  8
GAIKEI
  6
CONTINUOUS
 10
153.92275100000001
 20
27.332616000000002
 30
0.001526
 40
13.374772
 50
72.412046000000018
 51
107.587954
  0
ARC
  5
179C
  8
GAIKEI
  6
CONTINUOUS
 10
74.942261000000002
 20
69.785993999999988
 30
0.001526
 40
6.9000000000000004
 50
159.30855199999991
 51
170.69144800000001
  0
ARC
  5
179D
  8
GAIKEI
  6
CONTINUOUS
 10
74.942261000000002
 20
69.785993999999988
 30
0.001526
 40
6.9000000000000004
 50
129.30855199999991
 51
140.69144800000001
  0
ARC
  5
179E
  8
GAIKEI
  6
CONTINUOUS
 10
74.942261000000002
 20
69.785993999999988
 30
0.001526
 40
6.9000000000000004
 50
99.308551999999992
 51
110.6914479999998
  0
ARC
  5
179F
  8
GAIKEI
  6
CONTINUOUS
 10
74.942261000000002
 20
69.785993999999988
 30
0.001526
 40
6.9000000000000004
 50
69.308552000000006
 51
80.69144799999998
  0
ARC
  5
17A0
  8
GAIKEI
  6
CONTINUOUS
 10
74.942261000000002
 20
69.785993999999988
 30
0.001526
 40
6.9000000000000004
 50
39.308551999999992
 51
50.691448000000001
  0
ARC
  5
17A1
  8
GAIKEI
  6
CONTINUOUS
 10
74.942261000000002
 20
69.785993999999988
 30
0.001526
 40
6.9000000000000004
 50
9.3085520000000006
 51
20.691448000000001
  0
ARC
  5
17A2
  8
GAIKEI
  6
CONTINUOUS
 10
74.942261000000002
 20
69.785993999999988
 30
0.001526
 40
6.9000000000000004
 50
339.30855200000002
 51
350.69144799999992
  0
ARC
  5
17A3
  8
GAIKEI
  6
CONTINUOUS
 10
74.942261000000002
 20
69.785993999999988
 30
0.001526
 40
6.9000000000000004
 50
309.30855200000002
 51
320.69144799999998
  0
ARC
  5
17A4
  8
GAIKEI
  6
CONTINUOUS
 10
74.942261000000002
 20
69.785993999999988
 30
0.001526
 40
6.9000000000000004
 50
279.30855200000002
 51
290.69144799999998
  0
ARC
  5
17A5
  8
GAIKEI
  6
CONTINUOUS
 10
74.942261000000002
 20
69.785993999999988
 30
0.001526
 40
6.9000000000000004
 50
249.30855199999999
 51
260.69144799999992
  0
ARC
  5
17A6
  8
GAIKEI
  6
CONTINUOUS
 10
74.942261000000002
 20
69.785993999999988
 30
0.001526
 40
6.9000000000000004
 50
219.30855199999991
 51
230.69144800000001
  0
ARC
  5
17A7
  8
GAIKEI
  6
CONTINUOUS
 10
74.942261000000002
 20
69.785993999999988
 30
0.001526
 40
6.9000000000000004
 50
189.30855199999991
 51
200.69144799999981
  0
ARC
  5
17A8
  8
GAIKEI
  6
CONTINUOUS
 10
68.663577000000004
 20
73.410994000000002
 30
0.001526
 40
1.1999999999999991
 50
261.55443700000001
 51
38.445563
  0
ARC
  5
17A9
  8
GAIKEI
  6
CONTINUOUS
 10
71.317261000000002
 20
76.064678999999998
 30
0.001526
 40
1.1999999999999991
 50
231.55443700000001
 51
8.4455629999999982
  0
ARC
  5
17AA
  8
GAIKEI
  6
CONTINUOUS
 10
74.942261000000002
 20
77.035993999999974
 30
0.001526
 40
1.1999999999999991
 50
270.0
 51
338.44556299999999
  0
ARC
  5
17AB
  8
GAIKEI
  6
CONTINUOUS
 10
78.567261000000002
 20
76.064678999999998
 30
0.001526
 40
1.1999999999999991
 50
171.55443700000001
 51
308.44556299999988
  0
ARC
  5
17AC
  8
GAIKEI
  6
CONTINUOUS
 10
81.220945000000015
 20
73.410994000000002
 30
0.001526
 40
1.1999999999999991
 50
141.55443700000001
 51
278.44556299999999
  0
ARC
  5
17AD
  8
GAIKEI
  6
CONTINUOUS
 10
82.192261000000002
 20
69.785993999999988
 30
0.001526
 40
1.1999999999999991
 50
111.55443699999999
 51
248.44556299999991
  0
ARC
  5
17AE
  8
GAIKEI
  6
CONTINUOUS
 10
81.220945000000015
 20
66.160993999999988
 30
0.001526
 40
1.1999999999999991
 50
81.554436999999965
 51
218.44556299999999
  0
ARC
  5
17AF
  8
GAIKEI
  6
CONTINUOUS
 10
78.567261000000002
 20
63.50730999999999
 30
0.001526
 40
1.1999999999999991
 50
51.554437
 51
188.44556299999991
  0
ARC
  5
17B0
  8
GAIKEI
  6
CONTINUOUS
 10
74.942261000000002
 20
62.535993999999981
 30
0.001526
 40
1.1999999999999991
 50
90.0
 51
158.44556299999991
  0
ARC
  5
17B1
  8
GAIKEI
  6
CONTINUOUS
 10
71.317261000000002
 20
63.50730999999999
 30
0.001526
 40
1.1999999999999991
 50
351.55443700000001
 51
128.44556299999991
  0
ARC
  5
17B2
  8
GAIKEI
  6
CONTINUOUS
 10
68.663577000000004
 20
66.160993999999988
 30
0.001526
 40
1.1999999999999991
 50
321.55443699999989
 51
98.445563000000007
  0
ARC
  5
17B3
  8
GAIKEI
  6
CONTINUOUS
 10
67.692261000000002
 20
69.785993999999988
 30
0.001526
 40
1.1999999999999991
 50
291.55443700000001
 51
68.445563000000007
  0
ARC
  5
17B4
  8
GAIKEI
  6
CONTINUOUS
 10
31.424078000000002
 20
69.785993999999988
 30
0.001526
 40
6.049999999999998
 50
277.59855599999992
 51
262.40144399999991
  0
ARC
  5
17B5
  8
GAIKEI
  6
CONTINUOUS
 10
117.072751
 20
28.366379999999999
 30
0.001526
 40
13.374772
 50
72.412046000000018
 51
107.587954
  0
ARC
  5
17B6
  8
GAIKEI
  6
CONTINUOUS
 10
74.942261000000002
 20
69.785993999999988
 30
0.001526
 40
7.9000000000000004
 50
0.0
 51
90.0
  0
ARC
  5
17B7
  8
GAIKEI
  6
CONTINUOUS
 10
74.942261000000002
 20
69.785993999999988
 30
0.001526
 40
7.9000000000000004
 50
270.0
 51
0.0
  0
ARC
  5
17B8
  8
GAIKEI
  6
CONTINUOUS
 10
74.942261000000002
 20
69.785993999999988
 30
0.001526
 40
7.9000000000000004
 50
90.0
 51
270.0
  0
ARC
  5
17B9
  8
DIM
 10
88.517615000000006
 20
152.06098700000001
 30
0.001526
 40
22.499998999999999
 50
180.0
 51
196.32255499999991
  0
ARC
  5
17BA
  8
DIM
 10
88.517615000000006
 20
152.06098700000001
 30
0.001526
 40
22.499998999999999
 50
155.6553549999999
 51
180.0
  0
ARC
  5
17BB
  8
GAIKEI
  6
CONTINUOUS
 10
38.517617000000001
 20
152.06098700000001
 30
0.001526
 40
5.0
 50
280.66113200000001
 51
52.681086000000001
  0
ARC
  5
17BC
  8
GAIKEI
  6
CONTINUOUS
 10
38.517617000000001
 20
152.06098700000001
 30
0.001526
 40
4.0
 50
134.915819
 51
45.084181000000001
  0
ARC
  5
17BD
  8
GAIKEI
  6
CONTINUOUS
 10
38.517617000000001
 20
152.06098700000001
 30
0.001526
 40
6.0
 50
118.929636
 51
61.070363999999991
  0
ARC
  5
17BE
  8
GAIKEI
  6
CONTINUOUS
 10
38.517617000000001
 20
152.06098700000001
 30
0.001526
 40
5.0
 50
127.31891400000001
 51
259.33886799999988
  0
ARC
  5
17BF
  8
GAIKEI
  6
CONTINUOUS
 10
89.501711999999969
 20
143.56098700000001
 30
0.001526
 40
1.0
 50
270.0
 51
0.0
  0
ARC
  5
17C0
  8
GAIKEI
  6
CONTINUOUS
 10
113.96610200000001
 20
135.759852
 30
0.001526
 40
28.961946000000001
 50
154.95668399999991
 51
155.83605600000001
  0
ARC
  5
17C1
  8
GAIKEI
  6
CONTINUOUS
 10
95.997041000000024
 20
143.81973400000001
 30
0.001526
 40
9.2680679999999995
 50
155.82394999999991
 51
158.534831
  0
ARC
  5
17C2
  8
GAIKEI
  6
CONTINUOUS
 10
92.176412999999997
 20
145.31997099999981
 30
0.001526
 40
5.1634479999999989
 50
158.513499
 51
163.26103499999999
  0
ARC
  5
17C3
  8
GAIKEI
  6
CONTINUOUS
 10
90.462912000000003
 20
145.834067
 30
0.001526
 40
3.3744879999999982
 50
163.24071599999991
 51
170.29434900000001
  0
ARC
  5
17C4
  8
GAIKEI
  6
CONTINUOUS
 10
89.552044999999964
 20
145.990126
 30
0.001526
 40
2.4503490000000001
 50
170.300566
 51
179.79683099999991
  0
ARC
  5
17C5
  8
GAIKEI
  6
CONTINUOUS
 10
89.552044999999964
 20
146.00750400000001
 30
0.001526
 40
2.4503490000000001
 50
180.2031689999998
 51
189.699434
  0
ARC
  5
17C6
  8
GAIKEI
  6
CONTINUOUS
 10
90.462912000000003
 20
146.16356399999981
 30
0.001526
 40
3.3744879999999982
 50
189.7056509999999
 51
196.75928400000001
  0
ARC
  5
17C7
  8
GAIKEI
  6
CONTINUOUS
 10
92.176412999999997
 20
146.67765900000001
 30
0.001526
 40
5.1634479999999989
 50
196.73896499999981
 51
201.486501
  0
ARC
  5
17C8
  8
GAIKEI
  6
CONTINUOUS
 10
95.997041000000024
 20
148.17789599999981
 30
0.001526
 40
9.2680679999999995
 50
201.465169
 51
204.17605
  0
ARC
  5
17C9
  8
GAIKEI
  6
CONTINUOUS
 10
113.96610200000001
 20
156.23777899999999
 30
0.001526
 40
28.961946000000001
 50
204.1639439999999
 51
205.04331599999989
  0
ARC
  5
17CA
  8
GAIKEI
  6
CONTINUOUS
 10
113.966037
 20
147.88419500000001
 30
0.001526
 40
28.961887000000001
 50
154.9566309999999
 51
155.83600200000001
  0
ARC
  5
17CB
  8
GAIKEI
  6
CONTINUOUS
 10
95.997041000000024
 20
155.94407799999991
 30
0.001526
 40
9.2680679999999995
 50
155.82394999999991
 51
158.534831
  0
ARC
  5
17CC
  8
GAIKEI
  6
CONTINUOUS
 10
92.176424999999995
 20
157.44431399999991
 30
0.001526
 40
5.1634589999999987
 50
158.513542
 51
163.261079
  0
ARC
  5
17CD
  8
GAIKEI
  6
CONTINUOUS
 10
90.462912000000003
 20
157.9584099999999
 30
0.001526
 40
3.3744879999999982
 50
163.24071599999991
 51
170.29434900000001
  0
ARC
  5
17CE
  8
GAIKEI
  6
CONTINUOUS
 10
89.552044999999964
 20
158.1144689999999
 30
0.001526
 40
2.4503490000000001
 50
170.300566
 51
179.79683099999991
  0
ARC
  5
17CF
  8
GAIKEI
  6
CONTINUOUS
 10
89.552038999999979
 20
158.13184699999999
 30
0.001526
 40
2.4503430000000002
 50
180.203181
 51
189.69944599999991
  0
ARC
  5
17D0
  8
GAIKEI
  6
CONTINUOUS
 10
90.462912000000003
 20
158.2879079999999
 30
0.001526
 40
3.3744879999999982
 50
189.7056509999999
 51
196.75928400000001
  0
ARC
  5
17D1
  8
GAIKEI
  6
CONTINUOUS
 10
92.176424999999995
 20
158.80200300000001
 30
0.001526
 40
5.1634589999999987
 50
196.738921
 51
201.486458
  0
ARC
  5
17D2
  8
GAIKEI
  6
CONTINUOUS
 10
95.997041000000024
 20
160.3022389999999
 30
0.001526
 40
9.2680679999999995
 50
201.465169
 51
204.17605
  0
ARC
  5
17D3
  8
GAIKEI
  6
CONTINUOUS
 10
113.966037
 20
168.362122
 30
0.001526
 40
28.961887000000001
 50
204.16399799999999
 51
205.0433689999999
  0
ARC
  5
17D4
  8
GAIKEI
  6
CONTINUOUS
 10
118.382007
 20
135.759852
 30
0.001526
 40
28.961946000000001
 50
154.95668399999991
 51
155.83605600000001
  0
ARC
  5
17D5
  8
GAIKEI
  6
CONTINUOUS
 10
100.41294599999991
 20
143.81973400000001
 30
0.001526
 40
9.2680679999999995
 50
155.82394999999991
 51
158.534831
  0
ARC
  5
17D6
  8
GAIKEI
  6
CONTINUOUS
 10
96.592318000000006
 20
145.31997099999981
 30
0.001526
 40
5.1634479999999989
 50
158.513499
 51
163.26103499999999
  0
ARC
  5
17D7
  8
GAIKEI
  6
CONTINUOUS
 10
94.878816999999998
 20
145.834067
 30
0.001526
 40
3.3744879999999982
 50
163.24071599999991
 51
170.29434900000001
  0
ARC
  5
17D8
  8
GAIKEI
  6
CONTINUOUS
 10
93.967950000000002
 20
145.990126
 30
0.001526
 40
2.4503490000000001
 50
170.300566
 51
179.79683099999991
  0
ARC
  5
17D9
  8
GAIKEI
  6
CONTINUOUS
 10
93.967950000000002
 20
146.00750400000001
 30
0.001526
 40
2.4503490000000001
 50
180.2031689999998
 51
189.699434
  0
ARC
  5
17DA
  8
GAIKEI
  6
CONTINUOUS
 10
94.878816999999998
 20
146.16356399999981
 30
0.001526
 40
3.3744879999999982
 50
189.7056509999999
 51
196.75928400000001
  0
ARC
  5
17DB
  8
GAIKEI
  6
CONTINUOUS
 10
96.592318000000006
 20
146.67765900000001
 30
0.001526
 40
5.1634479999999989
 50
196.73896499999981
 51
201.486501
  0
ARC
  5
17DC
  8
GAIKEI
  6
CONTINUOUS
 10
100.41294599999991
 20
148.17789599999981
 30
0.001526
 40
9.2680679999999995
 50
201.465169
 51
204.17605
  0
ARC
  5
17DD
  8
GAIKEI
  6
CONTINUOUS
 10
118.382007
 20
156.23777899999999
 30
0.001526
 40
28.961946000000001
 50
204.1639439999999
 51
205.04331599999989
  0
ARC
  5
17DE
  8
GAIKEI
  6
CONTINUOUS
 10
118.381942
 20
147.88419500000001
 30
0.001526
 40
28.961887000000001
 50
154.9566309999999
 51
155.83600200000001
  0
ARC
  5
17DF
  8
GAIKEI
  6
CONTINUOUS
 10
100.41294599999991
 20
155.94407799999991
 30
0.001526
 40
9.2680679999999995
 50
155.82394999999991
 51
158.534831
  0
ARC
  5
17E0
  8
GAIKEI
  6
CONTINUOUS
 10
96.592330000000004
 20
157.44431399999991
 30
0.001526
 40
5.1634589999999987
 50
158.513542
 51
163.261079
  0
ARC
  5
17E1
  8
GAIKEI
  6
CONTINUOUS
 10
94.878816999999998
 20
157.9584099999999
 30
0.001526
 40
3.3744879999999982
 50
163.24071599999991
 51
170.29434900000001
  0
ARC
  5
17E2
  8
GAIKEI
  6
CONTINUOUS
 10
93.967950000000002
 20
158.1144689999999
 30
0.001526
 40
2.4503490000000001
 50
170.300566
 51
179.79683099999991
  0
ARC
  5
17E3
  8
GAIKEI
  6
CONTINUOUS
 10
93.967944000000003
 20
158.13184699999999
 30
0.001526
 40
2.4503430000000002
 50
180.203181
 51
189.69944599999991
  0
ARC
  5
17E4
  8
GAIKEI
  6
CONTINUOUS
 10
94.878816999999998
 20
158.2879079999999
 30
0.001526
 40
3.3744879999999982
 50
189.7056509999999
 51
196.75928400000001
  0
ARC
  5
17E5
  8
GAIKEI
  6
CONTINUOUS
 10
96.592330000000004
 20
158.80200300000001
 30
0.001526
 40
5.1634589999999987
 50
196.738921
 51
201.486458
  0
ARC
  5
17E6
  8
GAIKEI
  6
CONTINUOUS
 10
100.41294599999991
 20
160.3022389999999
 30
0.001526
 40
9.2680679999999995
 50
201.465169
 51
204.17605
  0
ARC
  5
17E7
  8
GAIKEI
  6
CONTINUOUS
 10
118.381942
 20
168.362122
 30
0.001526
 40
28.961887000000001
 50
204.16399799999999
 51
205.0433689999999
  0
ARC
  5
17E8
  8
GAIKEI
  6
CONTINUOUS
 10
78.719022999999979
 20
141.28492900000001
 30
0.001526
 40
15.692024999999999
 50
23.792105999999979
 51
25.41515399999999
  0
ARC
  5
17E9
  8
GAIKEI
  6
CONTINUOUS
 10
81.247293999999968
 20
142.39955900000001
 30
0.001526
 40
12.928955
 50
21.849131
 51
23.792328000000001
  0
ARC
  5
17EA
  8
GAIKEI
  6
CONTINUOUS
 10
89.089681999999982
 20
145.544095
 30
0.001526
 40
4.479626999999998
 50
16.376349000000001
 51
21.849118000000001
  0
ARC
  5
17EB
  8
GAIKEI
  6
CONTINUOUS
 10
89.756051000000014
 20
145.73993100000001
 30
0.001526
 40
3.7850779999999991
 50
10.08850099999998
 51
16.376166000000001
  0
ARC
  5
17EC
  8
GAIKEI
  6
CONTINUOUS
 10
91.252436000000003
 20
146.00616599999981
 30
0.001526
 40
2.2651919999999981
 50
359.814054
 51
10.08854899999999
  0
ARC
  5
17ED
  8
GAIKEI
  6
CONTINUOUS
 10
91.076142000000004
 20
146.0067359999999
 30
0.001526
 40
2.4414869999999991
 50
350.28329300000001
 51
359.81410399999987
  0
ARC
  5
17EE
  8
GAIKEI
  6
CONTINUOUS
 10
90.146034
 20
146.165997
 30
0.001526
 40
3.385132
 50
343.25195500000001
 51
350.28337799999991
  0
ARC
  5
17EF
  8
GAIKEI
  6
CONTINUOUS
 10
88.424003999999982
 20
146.684213
 30
0.001526
 40
5.1834459999999991
 50
338.52266200000003
 51
343.25187199999999
  0
ARC
  5
17F0
  8
GAIKEI
  6
CONTINUOUS
 10
84.545779999999993
 20
148.21011100000001
 30
0.001526
 40
9.3510580000000001
 50
335.83586000000003
 51
338.52267999999992
  0
ARC
  5
17F1
  8
GAIKEI
  6
CONTINUOUS
 10
66.653226000000004
 20
156.23777899999999
 30
0.001526
 40
28.961946000000001
 50
334.956684
 51
335.83605599999993
  0
ARC
  5
17F2
  8
GAIKEI
  6
CONTINUOUS
 10
78.719057999999976
 20
153.4092729999999
 30
0.001526
 40
15.691993
 50
23.792159999999988
 51
25.415206999999992
  0
ARC
  5
17F3
  8
GAIKEI
  6
CONTINUOUS
 10
81.247293999999968
 20
154.5239029999999
 30
0.001526
 40
12.928955
 50
21.849131
 51
23.792328000000001
  0
ARC
  5
17F4
  8
GAIKEI
  6
CONTINUOUS
 10
89.089671999999965
 20
157.66843799999981
 30
0.001526
 40
4.4796370000000003
 50
16.376304999999999
 51
21.849073999999991
  0
ARC
  5
17F5
  8
GAIKEI
  6
CONTINUOUS
 10
89.756051000000014
 20
157.86427399999999
 30
0.001526
 40
3.7850779999999991
 50
10.08850099999998
 51
16.376166000000001
  0
ARC
  5
17F6
  8
GAIKEI
  6
CONTINUOUS
 10
91.252436000000003
 20
158.1305089999999
 30
0.001526
 40
2.2651919999999981
 50
359.814054
 51
10.08854899999999
  0
ARC
  5
17F7
  8
GAIKEI
  6
CONTINUOUS
 10
91.076148000000003
 20
158.13107999999991
 30
0.001526
 40
2.441481
 50
350.28327999999999
 51
359.81409200000002
  0
ARC
  5
17F8
  8
GAIKEI
  6
CONTINUOUS
 10
90.146034
 20
158.2903409999999
 30
0.001526
 40
3.385132
 50
343.25195500000001
 51
350.28337799999991
  0
ARC
  5
17F9
  8
GAIKEI
  6
CONTINUOUS
 10
88.423991999999998
 20
158.80855600000001
 30
0.001526
 40
5.183456999999998
 50
338.52270600000003
 51
343.25191599999999
  0
ARC
  5
17FA
  8
GAIKEI
  6
CONTINUOUS
 10
84.545779999999993
 20
160.33445399999991
 30
0.001526
 40
9.3510580000000001
 50
335.83586000000003
 51
338.52267999999992
  0
ARC
  5
17FB
  8
GAIKEI
  6
CONTINUOUS
 10
66.653292000000008
 20
168.362122
 30
0.001526
 40
28.961887000000001
 50
334.95663100000002
 51
335.83600200000001
  0
ARC
  5
17FC
  8
GAIKEI
  6
CONTINUOUS
 10
100.4764839999999
 20
152.06098700000001
 30
0.001526
 40
13.374772
 50
162.412046
 51
197.58795399999991
  0
ARC
  5
17FD
  8
GAIKEI
  6
CONTINUOUS
 10
104.8923889999998
 20
152.06098700000001
 30
0.001526
 40
13.374772
 50
162.412046
 51
197.58795399999991
  0
ARC
  5
17FE
  8
GAIKEI
  6
CONTINUOUS
 10
80.14284499999998
 20
152.06098700000001
 30
0.001526
 40
13.374772
 50
342.41204599999992
 51
17.587954
  0
ARC
  5
17FF
  8
GAIKEI
  6
CONTINUOUS
 10
118.1176159999999
 20
141.79690899999991
 30
0.001526
 40
3.1859220000000001
 50
270.00001500000002
 51
287.95384300000001
  0
ARC
  5
1800
  8
GAIKEI
  6
CONTINUOUS
 10
118.31307199999991
 20
141.19370900000001
 30
0.001526
 40
2.5518450000000001
 50
287.95380699999993
 51
308.03530499999982
  0
ARC
  5
1801
  8
GAIKEI
  6
CONTINUOUS
 10
118.6127699999999
 20
140.81059899999991
 30
0.001526
 40
2.0654379999999981
 50
308.03531299999992
 51
332.09895399999982
  0
ARC
  5
1802
  8
GAIKEI
  6
CONTINUOUS
 10
119.07342800000001
 20
140.56668300000001
 30
0.001526
 40
1.544189
 50
332.09895399999982
 51
359.999931
  0
ARC
  5
1803
  8
GAIKEI
  6
CONTINUOUS
 10
115.117617
 20
138.5217319999999
 30
0.001526
 40
0.219012
 50
24.049925999999989
 51
90.0
  0
ARC
  5
1804
  8
GAIKEI
  6
CONTINUOUS
 10
117.7283709999999
 20
141.025542
 30
0.001526
 40
0.8107549999999999
 50
196.4383609999999
 51
206.82401299999989
  0
ARC
  5
1805
  8
GAIKEI
  6
CONTINUOUS
 10
117.91630499999989
 20
141.12057300000001
 30
0.001526
 40
1.021347999999999
 50
206.82397800000001
 51
230.67725399999981
  0
ARC
  5
1806
  8
GAIKEI
  6
CONTINUOUS
 10
118.0382339999999
 20
141.26941999999991
 30
0.001526
 40
1.2137599999999991
 50
230.67724100000001
 51
251.257621
  0
ARC
  5
1807
  8
GAIKEI
  6
CONTINUOUS
 10
118.1176159999999
 20
141.50339099999999
 30
0.001526
 40
1.4608309999999991
 50
251.25782299999989
 51
270.00000799999992
  0
ARC
  5
1808
  8
GAIKEI
  6
CONTINUOUS
 10
118.117617
 20
141.50339099999999
 30
0.001526
 40
1.4608309999999991
 50
269.99999200000002
 51
288.74217700000003
  0
ARC
  5
1809
  8
GAIKEI
  6
CONTINUOUS
 10
118.19699900000001
 20
141.26941999999991
 30
0.001526
 40
1.2137599999999991
 50
288.74237900000008
 51
309.32275899999991
  0
ARC
  5
180A
  8
GAIKEI
  6
CONTINUOUS
 10
118.318928
 20
141.12057300000001
 30
0.001526
 40
1.021347999999999
 50
309.322746
 51
333.17602199999999
  0
ARC
  5
180B
  8
GAIKEI
  6
CONTINUOUS
 10
118.506862
 20
141.025542
 30
0.001526
 40
0.8107549999999999
 50
333.17598700000002
 51
343.56163900000001
  0
ARC
  5
180C
  8
GAIKEI
  6
CONTINUOUS
 10
115.41761699999979
 20
142.40306599999991
 30
0.001526
 40
0.2
 50
270.0
 51
0.0
  0
ARC
  5
180D
  8
GAIKEI
  6
CONTINUOUS
 10
119.07342800000001
 20
141.035811
 30
0.001526
 40
1.544189
 50
0.000069
 51
27.901046000000001
  0
ARC
  5
180E
  8
GAIKEI
  6
CONTINUOUS
 10
118.61277199999979
 20
140.79189399999979
 30
0.001526
 40
2.065436
 50
27.901088000000001
 51
51.96473000000001
  0
ARC
  5
180F
  8
GAIKEI
  6
CONTINUOUS
 10
118.313069
 20
140.408784
 30
0.001526
 40
2.5518469999999991
 50
51.964638000000001
 51
72.046137000000002
  0
ARC
  5
1810
  8
GAIKEI
  6
CONTINUOUS
 10
118.1176159999999
 20
139.80558500000001
 30
0.001526
 40
3.1859220000000001
 50
72.046156999999994
 51
89.999984999999981
  0
ARC
  5
1811
  8
GAIKEI
  6
CONTINUOUS
 10
119.07342800000001
 20
140.56667899999991
 30
0.001526
 40
1.544189
 50
0.000069
 51
27.901046000000001
  0
ARC
  5
1812
  8
GAIKEI
  6
CONTINUOUS
 10
118.6127699999999
 20
140.3227629999999
 30
0.001526
 40
2.0654379999999981
 50
27.901046000000001
 51
51.964686999999998
  0
ARC
  5
1813
  8
GAIKEI
  6
CONTINUOUS
 10
118.31307199999991
 20
139.93965299999991
 30
0.001526
 40
2.5518450000000001
 50
51.964694999999999
 51
72.046193000000002
  0
ARC
  5
1814
  8
GAIKEI
  6
CONTINUOUS
 10
118.1176159999999
 20
139.33645300000001
 30
0.001526
 40
3.1859220000000001
 50
72.046156999999994
 51
89.999984999999981
  0
ARC
  5
1815
  8
GAIKEI
  6
CONTINUOUS
 10
117.728374
 20
140.5666809999999
 30
0.001526
 40
0.810758
 50
180.00002900000001
 51
206.82399099999989
  0
ARC
  5
1816
  8
GAIKEI
  6
CONTINUOUS
 10
117.91630499999989
 20
140.661711
 30
0.001526
 40
1.021347999999999
 50
206.82397800000001
 51
230.67725399999981
  0
ARC
  5
1817
  8
GAIKEI
  6
CONTINUOUS
 10
118.038231
 20
140.81055900000001
 30
0.001526
 40
1.213759
 50
230.67735699999989
 51
251.25773599999991
  0
ARC
  5
1818
  8
GAIKEI
  6
CONTINUOUS
 10
118.1176159999999
 20
141.04453000000001
 30
0.001526
 40
1.4608309999999991
 50
251.25782299999989
 51
270.00000799999992
  0
ARC
  5
1819
  8
GAIKEI
  6
CONTINUOUS
 10
118.117617
 20
141.04453000000001
 30
0.001526
 40
1.4608309999999991
 50
269.99999200000002
 51
288.74217700000003
  0
ARC
  5
181A
  8
GAIKEI
  6
CONTINUOUS
 10
118.197002
 20
140.81055900000001
 30
0.001526
 40
1.213759
 50
288.74226399999998
 51
309.32264300000003
  0
ARC
  5
181B
  8
GAIKEI
  6
CONTINUOUS
 10
118.318928
 20
140.661711
 30
0.001526
 40
1.021347999999999
 50
309.322746
 51
333.17602199999999
  0
ARC
  5
181C
  8
GAIKEI
  6
CONTINUOUS
 10
118.50685899999991
 20
140.5666809999999
 30
0.001526
 40
0.810758
 50
333.17600899999991
 51
359.99997100000002
  0
ARC
  5
181D
  8
GAIKEI
  6
CONTINUOUS
 10
118.50685899999991
 20
140.5666809999999
 30
0.001526
 40
0.810758
 50
0.000029
 51
26.823990999999989
  0
ARC
  5
181E
  8
GAIKEI
  6
CONTINUOUS
 10
118.318928
 20
140.47165200000001
 30
0.001526
 40
1.021347999999999
 50
26.823978
 51
50.677253999999991
  0
ARC
  5
181F
  8
GAIKEI
  6
CONTINUOUS
 10
118.197002
 20
140.32280299999999
 30
0.001526
 40
1.213759
 50
50.677357000000001
 51
71.257735999999994
  0
ARC
  5
1820
  8
GAIKEI
  6
CONTINUOUS
 10
118.117617
 20
140.08883199999991
 30
0.001526
 40
1.4608309999999991
 50
71.257823000000002
 51
90.00000799999998
  0
ARC
  5
1821
  8
GAIKEI
  6
CONTINUOUS
 10
118.1176159999999
 20
140.08883199999991
 30
0.001526
 40
1.4608309999999991
 50
89.999992000000006
 51
108.7421769999999
  0
ARC
  5
1822
  8
GAIKEI
  6
CONTINUOUS
 10
118.038231
 20
140.32280299999999
 30
0.001526
 40
1.213759
 50
108.74226399999991
 51
129.322643
  0
ARC
  5
1823
  8
GAIKEI
  6
CONTINUOUS
 10
117.91630499999989
 20
140.47165200000001
 30
0.001526
 40
1.021347999999999
 50
129.32274599999991
 51
153.1760219999999
  0
ARC
  5
1824
  8
GAIKEI
  6
CONTINUOUS
 10
117.728374
 20
140.5666809999999
 30
0.001526
 40
0.810758
 50
153.17600899999999
 51
179.9999709999999
  0
ARC
  5
1825
  8
GAIKEI
  6
CONTINUOUS
 10
111.00954899999979
 20
136.760987
 30
0.001526
 40
0.5
 50
270.0
 51
21.656261999999991
  0
ARC
  5
1826
  8
GAIKEI
  6
CONTINUOUS
 10
111.4514519999999
 20
136.46098699999999
 30
0.001526
 40
1.0
 50
270.0
 51
21.656261999999991
  0
ARC
  5
1827
  8
GAIKEI
  6
CONTINUOUS
 10
110.717617
 20
136.9609869999999
 30
0.001526
 40
0.5
 50
270.0
 51
15.945396000000001
  0
ARC
  5
1828
  8
GAIKEI
  6
CONTINUOUS
 10
96.517617000000016
 20
136.46098699999999
 30
0.001526
 40
1.0
 50
180.0
 51
270.0
  0
ARC
  5
1829
  8
GAIKEI
  6
CONTINUOUS
 10
111.00954899999979
 20
167.36098699999991
 30
0.001526
 40
0.5
 50
338.34373799999992
 51
90.0
  0
ARC
  5
182A
  8
GAIKEI
  6
CONTINUOUS
 10
111.4514519999999
 20
167.66098700000001
 30
0.001526
 40
1.0
 50
338.34373799999992
 51
90.0
  0
ARC
  5
182B
  8
GAIKEI
  6
CONTINUOUS
 10
96.517617000000016
 20
167.66098700000001
 30
0.001526
 40
1.0
 50
90.0
 51
180.0
  0
ARC
  5
182C
  8
GAIKEI
  6
CONTINUOUS
 10
110.717617
 20
167.16098700000001
 30
0.001526
 40
0.5
 50
344.05460399999998
 51
90.0
  0
ARC
  5
182D
  8
GAIKEI
  6
CONTINUOUS
 10
153.50574299999991
 20
138.9609869999999
 30
0.001526
 40
0.4
 50
270.0
 51
55.0
  0
ARC
  5
182E
  8
GAIKEI
  6
CONTINUOUS
 10
143.72948999999991
 20
138.9609869999999
 30
0.001526
 40
0.4
 50
125.0
 51
270.0
  0
ARC
  5
182F
  8
GAIKEI
  6
CONTINUOUS
 10
153.50574299999991
 20
165.16098700000001
 30
0.001526
 40
0.4
 50
305.0
 51
90.0
  0
ARC
  5
1830
  8
GAIKEI
  6
CONTINUOUS
 10
143.72948999999991
 20
165.16098700000001
 30
0.001526
 40
0.4
 50
90.0
 51
235.0
  0
ARC
  5
1831
  8
GAIKEI
  6
CONTINUOUS
 10
157.7176169999999
 20
161.27383499999991
 30
0.001526
 40
0.4
 50
0.0
 51
125.0
  0
ARC
  5
1832
  8
GAIKEI
  6
CONTINUOUS
 10
156.651656
 20
161.01575099999999
 30
0.001526
 40
0.2
 50
125.0
 51
214.99999999999989
  0
ARC
  5
1833
  8
GAIKEI
  6
CONTINUOUS
 10
153.89848899999981
 20
164.9476809999999
 30
0.001526
 40
0.2
 50
214.99999999999989
 51
305.0
  0
ARC
  5
1834
  8
GAIKEI
  6
CONTINUOUS
 10
154.66130200000001
 20
166.56098700000001
 30
0.001526
 40
0.3
 50
270.0
 51
1.193489
  0
ARC
  5
1835
  8
GAIKEI
  6
CONTINUOUS
 10
152.97393199999999
 20
166.56098700000001
 30
0.001526
 40
0.3
 50
178.8065109999998
 51
270.0
  0
ARC
  5
1836
  8
GAIKEI
  6
CONTINUOUS
 10
152.81761699999981
 20
161.260987
 30
0.001526
 40
2.5
 50
141.26020500000001
 51
288.73979500000002
  0
ARC
  5
1837
  8
GAIKEI
  6
CONTINUOUS
 10
144.261302
 20
166.56098700000001
 30
0.001526
 40
0.3
 50
270.0
 51
1.193489
  0
ARC
  5
1838
  8
GAIKEI
  6
CONTINUOUS
 10
140.58357699999991
 20
161.01575099999999
 30
0.001526
 40
0.2
 50
325.0
 51
55.0
  0
ARC
  5
1839
  8
GAIKEI
  6
CONTINUOUS
 10
139.517617
 20
161.27383499999991
 30
0.001526
 40
0.4
 50
55.0
 51
180.0
  0
ARC
  5
183A
  8
GAIKEI
  6
CONTINUOUS
 10
143.33674399999981
 20
164.9476809999999
 30
0.001526
 40
0.2
 50
235.0
 51
325.0
  0
ARC
  5
183B
  8
GAIKEI
  6
CONTINUOUS
 10
142.57393200000001
 20
166.56098700000001
 30
0.001526
 40
0.3
 50
178.8065109999998
 51
270.0
  0
ARC
  5
183C
  8
GAIKEI
  6
CONTINUOUS
 10
144.41761699999981
 20
161.260987
 30
0.001526
 40
2.5
 50
251.2602049999999
 51
38.739795000000001
  0
ARC
  5
183D
  8
GAIKEI
  6
CONTINUOUS
 10
152.97393199999999
 20
137.56098700000001
 30
0.001526
 40
0.3
 50
90.0
 51
181.193489
  0
ARC
  5
183E
  8
GAIKEI
  6
CONTINUOUS
 10
154.66130200000001
 20
137.56098700000001
 30
0.001526
 40
0.3
 50
358.806511
 51
90.0
  0
ARC
  5
183F
  8
GAIKEI
  6
CONTINUOUS
 10
144.261302
 20
137.56098700000001
 30
0.001526
 40
0.3
 50
358.806511
 51
90.0
  0
ARC
  5
1840
  8
GAIKEI
  6
CONTINUOUS
 10
142.57393200000001
 20
137.56098700000001
 30
0.001526
 40
0.3
 50
90.0
 51
181.193489
  0
ARC
  5
1841
  8
GAIKEI
  6
CONTINUOUS
 10
153.89848899999981
 20
139.17429300000001
 30
0.001526
 40
0.2
 50
55.0
 51
145.0
  0
ARC
  5
1842
  8
GAIKEI
  6
CONTINUOUS
 10
156.651656
 20
143.106222
 30
0.001526
 40
0.2
 50
145.0
 51
235.0
  0
ARC
  5
1843
  8
GAIKEI
  6
CONTINUOUS
 10
157.7176169999999
 20
142.8481389999998
 30
0.001526
 40
0.4
 50
235.0
 51
0.0
  0
ARC
  5
1844
  8
GAIKEI
  6
CONTINUOUS
 10
152.81761699999981
 20
142.86098699999999
 30
0.001526
 40
2.5
 50
71.260204999999999
 51
218.7397949999999
  0
ARC
  5
1845
  8
GAIKEI
  6
CONTINUOUS
 10
139.517617
 20
149.260987
 30
0.001526
 40
0.4
 50
90.0
 51
180.0
  0
ARC
  5
1846
  8
GAIKEI
  6
CONTINUOUS
 10
139.517617
 20
154.86098699999991
 30
0.001526
 40
0.4
 50
180.0
 51
270.0
  0
ARC
  5
1847
  8
GAIKEI
  6
CONTINUOUS
 10
139.517617
 20
142.8481389999998
 30
0.001526
 40
0.4
 50
180.0
 51
305.0
  0
ARC
  5
1848
  8
GAIKEI
  6
CONTINUOUS
 10
144.41761699999981
 20
152.06098700000001
 30
0.001526
 40
2.5
 50
286.26020499999993
 51
73.739795000000001
  0
ARC
  5
1849
  8
GAIKEI
  6
CONTINUOUS
 10
144.41761699999981
 20
142.86098699999999
 30
0.001526
 40
2.5
 50
321.26020499999998
 51
108.739795
  0
ARC
  5
184A
  8
GAIKEI
  6
CONTINUOUS
 10
143.33674399999981
 20
139.17429300000001
 30
0.001526
 40
0.2
 50
35.0
 51
125.0
  0
ARC
  5
184B
  8
GAIKEI
  6
CONTINUOUS
 10
140.58357699999991
 20
143.106222
 30
0.001526
 40
0.2
 50
305.0
 51
35.0
  0
ARC
  5
184C
  8
GAIKEI
  6
CONTINUOUS
 10
148.617617
 20
142.06098700000001
 30
0.001526
 40
1.0
 50
180.0
 51
0.0
  0
ARC
  5
184D
  8
GAIKEI
  6
CONTINUOUS
 10
148.617617
 20
162.06098700000001
 30
0.001526
 40
1.0
 50
0.0
 51
180.0
  0
ARC
  5
184E
  8
GAIKEI
  6
CONTINUOUS
 10
154.617617
 20
156.81098700000001
 30
0.001526
 40
1.0
 50
270.0
 51
90.0
  0
ARC
  5
184F
  8
GAIKEI
  6
CONTINUOUS
 10
142.61761699999991
 20
156.81098700000001
 30
0.001526
 40
1.0
 50
90.0
 51
270.0
  0
ARC
  5
1850
  8
GAIKEI
  6
CONTINUOUS
 10
142.61761699999991
 20
147.31098700000001
 30
0.001526
 40
1.0
 50
90.0
 51
270.0
  0
ARC
  5
1851
  8
GAIKEI
  6
CONTINUOUS
 10
154.617617
 20
147.31098700000001
 30
0.001526
 40
1.0
 50
270.0
 51
90.0
  0
ARC
  5
1852
  8
GAIKEI
  6
CONTINUOUS
 10
38.517617000000001
 20
156.37498400000001
 30
0.001526
 40
3.049999999999998
 50
349.31304699999998
 51
190.6869529999999
  0
ARC
  5
1853
  8
GAIKEI
  6
CONTINUOUS
 10
38.517617000000001
 20
152.06098700000001
 30
0.001526
 40
2.25
 50
190.6869529999999
 51
349.31304699999998
  0
ARC
  5
1854
  8
GAIKEI
  6
CONTINUOUS
 10
34.317616999999998
 20
137.06098700000001
 30
0.001526
 40
1.5
 50
180.0
 51
0.0
  0
ARC
  5
1855
  8
GAIKEI
  6
CONTINUOUS
 10
34.317616999999998
 20
167.06098700000001
 30
0.001526
 40
1.5
 50
0.0
 51
180.0
  0
ARC
  5
1856
  8
GAIKEI
  6
CONTINUOUS
 10
42.717616999999983
 20
167.06098700000001
 30
0.001526
 40
1.5
 50
0.0
 51
180.0
  0
ARC
  5
1857
  8
GAIKEI
  6
CONTINUOUS
 10
42.717616999999983
 20
137.06098700000001
 30
0.001526
 40
1.5
 50
180.0
 51
0.0
  0
ARC
  5
1858
  8
GAIKEI
  6
CONTINUOUS
 10
115.41761699999979
 20
161.718907
 30
0.001526
 40
0.2
 50
0.0
 51
90.0
  0
ARC
  5
1859
  8
GAIKEI
  6
CONTINUOUS
 10
115.117617
 20
165.6002409999999
 30
0.001526
 40
0.219012
 50
270.0
 51
335.95007399999992
  0
ARC
  5
185A
  8
GAIKEI
  6
CONTINUOUS
 10
119.07342800000001
 20
163.086163
 30
0.001526
 40
1.544189
 50
332.09895399999982
 51
359.999931
  0
ARC
  5
185B
  8
GAIKEI
  6
CONTINUOUS
 10
118.6127699999999
 20
163.33007900000001
 30
0.001526
 40
2.0654379999999981
 50
308.03531299999992
 51
332.09895399999982
  0
ARC
  5
185C
  8
GAIKEI
  6
CONTINUOUS
 10
118.31307199999991
 20
163.713189
 30
0.001526
 40
2.5518450000000001
 50
287.95380699999993
 51
308.03530499999982
  0
ARC
  5
185D
  8
GAIKEI
  6
CONTINUOUS
 10
118.11761299999991
 20
164.31638899999979
 30
0.001526
 40
3.1859229999999981
 50
270.00007199999988
 51
287.95389999999992
  0
ARC
  5
185E
  8
GAIKEI
  6
CONTINUOUS
 10
117.7283709999999
 20
163.09643199999991
 30
0.001526
 40
0.8107549999999999
 50
153.17598699999991
 51
163.5616389999999
  0
ARC
  5
185F
  8
GAIKEI
  6
CONTINUOUS
 10
117.91630499999989
 20
163.00140200000001
 30
0.001526
 40
1.021347999999999
 50
129.32274599999991
 51
153.1760219999999
  0
ARC
  5
1860
  8
GAIKEI
  6
CONTINUOUS
 10
118.038231
 20
162.852553
 30
0.001526
 40
1.213759
 50
108.74226399999991
 51
129.322643
  0
ARC
  5
1861
  8
GAIKEI
  6
CONTINUOUS
 10
118.11761899999991
 20
162.618583
 30
0.001526
 40
1.4608309999999991
 50
90.000111000000004
 51
108.7422959999999
  0
ARC
  5
1862
  8
GAIKEI
  6
CONTINUOUS
 10
118.1176139999999
 20
162.618583
 30
0.001526
 40
1.4608309999999991
 50
71.257704000000004
 51
89.999888999999982
  0
ARC
  5
1863
  8
GAIKEI
  6
CONTINUOUS
 10
118.197002
 20
162.852553
 30
0.001526
 40
1.213759
 50
50.677357000000001
 51
71.257735999999994
  0
ARC
  5
1864
  8
GAIKEI
  6
CONTINUOUS
 10
118.318928
 20
163.00140200000001
 30
0.001526
 40
1.021347999999999
 50
26.823978
 51
50.677253999999991
  0
ARC
  5
1865
  8
GAIKEI
  6
CONTINUOUS
 10
118.506862
 20
163.09643199999991
 30
0.001526
 40
0.8107549999999999
 50
16.438360999999979
 51
26.824013000000001
  0
ARC
  5
1866
  8
GAIKEI
  6
CONTINUOUS
 10
119.07342800000001
 20
163.555294
 30
0.001526
 40
1.544189
 50
332.09895399999982
 51
359.999931
  0
ARC
  5
1867
  8
GAIKEI
  6
CONTINUOUS
 10
118.61277199999979
 20
163.79921100000001
 30
0.001526
 40
2.065436
 50
308.03527000000008
 51
332.09891199999998
  0
ARC
  5
1868
  8
GAIKEI
  6
CONTINUOUS
 10
118.313069
 20
164.182321
 30
0.001526
 40
2.5518469999999991
 50
287.95386300000001
 51
308.03536200000002
  0
ARC
  5
1869
  8
GAIKEI
  6
CONTINUOUS
 10
118.1176159999999
 20
164.78551999999991
 30
0.001526
 40
3.1859220000000001
 50
270.00001500000002
 51
287.95384300000001
  0
ARC
  5
186A
  8
GAIKEI
  6
CONTINUOUS
 10
118.11761299999991
 20
162.325064
 30
0.001526
 40
3.1859229999999981
 50
72.046099999999996
 51
89.999927999999997
  0
ARC
  5
186B
  8
GAIKEI
  6
CONTINUOUS
 10
118.31307199999991
 20
162.9282639999999
 30
0.001526
 40
2.5518450000000001
 50
51.964694999999999
 51
72.046193000000002
  0
ARC
  5
186C
  8
GAIKEI
  6
CONTINUOUS
 10
118.61277199999979
 20
163.3113739999998
 30
0.001526
 40
2.065436
 50
27.901088000000001
 51
51.96473000000001
  0
ARC
  5
186D
  8
GAIKEI
  6
CONTINUOUS
 10
119.0734259999999
 20
163.5552909999999
 30
0.001526
 40
1.5441910000000001
 50
0.000051
 51
27.901028
  0
ARC
  5
186E
  8
GAIKEI
  6
CONTINUOUS
 10
117.728374
 20
163.55529199999981
 30
0.001526
 40
0.810758
 50
153.17600899999999
 51
179.9999709999999
  0
ARC
  5
186F
  8
GAIKEI
  6
CONTINUOUS
 10
117.91630499999989
 20
163.460263
 30
0.001526
 40
1.021347999999999
 50
129.32274599999991
 51
153.1760219999999
  0
ARC
  5
1870
  8
GAIKEI
  6
CONTINUOUS
 10
118.0382339999999
 20
163.3114149999999
 30
0.001526
 40
1.2137599999999991
 50
108.742379
 51
129.32275899999991
  0
ARC
  5
1871
  8
GAIKEI
  6
CONTINUOUS
 10
118.1176159999999
 20
163.0774439999999
 30
0.001526
 40
1.4608309999999991
 50
89.999992000000006
 51
108.7421769999999
  0
ARC
  5
1872
  8
GAIKEI
  6
CONTINUOUS
 10
118.117617
 20
163.0774439999999
 30
0.001526
 40
1.4608309999999991
 50
71.257823000000002
 51
90.00000799999998
  0
ARC
  5
1873
  8
GAIKEI
  6
CONTINUOUS
 10
118.19699900000001
 20
163.3114149999999
 30
0.001526
 40
1.2137599999999991
 50
50.677240999999988
 51
71.257621
  0
ARC
  5
1874
  8
GAIKEI
  6
CONTINUOUS
 10
118.318928
 20
163.460263
 30
0.001526
 40
1.021347999999999
 50
26.823978
 51
50.677253999999991
  0
ARC
  5
1875
  8
GAIKEI
  6
CONTINUOUS
 10
118.50685899999991
 20
163.55529199999981
 30
0.001526
 40
0.810758
 50
0.000029
 51
26.823990999999989
  0
ARC
  5
1876
  8
GAIKEI
  6
CONTINUOUS
 10
118.506861
 20
163.55529300000001
 30
0.001526
 40
0.8107559999999999
 50
333.17597399999983
 51
359.99993599999982
  0
ARC
  5
1877
  8
GAIKEI
  6
CONTINUOUS
 10
118.318928
 20
163.6503229999999
 30
0.001526
 40
1.021347999999999
 50
309.322746
 51
333.17602199999999
  0
ARC
  5
1878
  8
GAIKEI
  6
CONTINUOUS
 10
118.19699900000001
 20
163.79917
 30
0.001526
 40
1.2137599999999991
 50
288.74237900000008
 51
309.32275899999991
  0
ARC
  5
1879
  8
GAIKEI
  6
CONTINUOUS
 10
118.117617
 20
164.0331409999998
 30
0.001526
 40
1.4608309999999991
 50
269.99999200000002
 51
288.74217700000003
  0
ARC
  5
187A
  8
GAIKEI
  6
CONTINUOUS
 10
118.1176159999999
 20
164.0331409999998
 30
0.001526
 40
1.4608309999999991
 50
251.25782299999989
 51
270.00000799999992
  0
ARC
  5
187B
  8
GAIKEI
  6
CONTINUOUS
 10
118.0382339999999
 20
163.79917
 30
0.001526
 40
1.2137599999999991
 50
230.67724100000001
 51
251.257621
  0
ARC
  5
187C
  8
GAIKEI
  6
CONTINUOUS
 10
117.91630499999989
 20
163.6503229999999
 30
0.001526
 40
1.021347999999999
 50
206.82397800000001
 51
230.67725399999981
  0
ARC
  5
187D
  8
GAIKEI
  6
CONTINUOUS
 10
117.72837199999979
 20
163.55529300000001
 30
0.001526
 40
0.8107559999999999
 50
180.00006400000001
 51
206.8240259999998
  0
ARC
  5
187E
  8
GAIKEI
  6
CONTINUOUS
 10
38.517617000000001
 20
152.06098700000001
 30
0.001526
 40
7.0
 50
105.109381
 51
74.890619000000001
  0
ARC
  5
187F
  8
GAIKEI
  6
CONTINUOUS
 10
38.517617000000001
 20
152.06098700000001
 30
0.001526
 40
9.0999999999999996
 50
278.84988299999992
 51
261.15011699999991
  0
ARC
  5
1880
  8
GAIKEI
  6
CONTINUOUS
 10
68.518920999999992
 20
155.192171
 30
0.001526
 40
1.75
 50
214.10199299999999
 51
260.4138890000001
  0
ARC
  5
1881
  8
GAIKEI
  6
CONTINUOUS
 10
69.069348000000005
 20
157.67498399999991
 30
0.001526
 40
1.75
 50
74.586111000000002
 51
120.89800700000001
  0
ARC
  5
1882
  8
GAIKEI
  6
CONTINUOUS
 10
69.967993000000007
 20
156.173339
 30
0.001526
 40
3.5
 50
120.89800700000001
 51
214.10199299999999
  0
ARC
  5
1883
  8
GAIKEI
  6
CONTINUOUS
 10
115.0922929999999
 20
149.66098700000001
 30
0.001526
 40
0.2
 50
0.0
 51
90.0
  0
ARC
  5
1884
  8
GAIKEI
  6
CONTINUOUS
 10
115.0922929999999
 20
154.4609869999999
 30
0.001526
 40
0.2
 50
270.0
 51
0.0
  0
ARC
  5
1885
  8
GAIKEI
  6
CONTINUOUS
 10
118.0922929999999
 20
152.06098700000001
 30
0.001526
 40
2.5
 50
286.26020499999993
 51
73.739795000000001
  0
ARC
  5
1886
  8
GAIKEI
  6
CONTINUOUS
 10
141.41761599999981
 20
149.66098700000001
 30
0.001526
 40
0.2
 50
0.0
 51
90.0
  0
ARC
  5
1887
  8
GAIKEI
  6
CONTINUOUS
 10
141.41761499999981
 20
154.4609869999999
 30
0.001526
 40
0.2
 50
270.00001900000001
 51
0.000019
  0
ARC
  5
1888
  8
GAIKEI
  6
CONTINUOUS
 10
157.7176169999999
 20
149.260987
 30
0.001526
 40
0.4
 50
0.0
 51
90.0
  0
ARC
  5
1889
  8
GAIKEI
  6
CONTINUOUS
 10
157.7176169999999
 20
154.86098699999991
 30
0.001526
 40
0.4
 50
270.0
 51
0.0
  0
ARC
  5
188A
  8
GAIKEI
  6
CONTINUOUS
 10
152.81761699999981
 20
152.06098700000001
 30
0.001526
 40
2.5
 50
106.2602049999999
 51
253.7397949999999
  0
ARC
  5
188B
  8
GAIKEI
  6
CONTINUOUS
 10
155.81761699999981
 20
149.66098700000001
 30
0.001526
 40
0.2
 50
90.0
 51
180.0
  0
ARC
  5
188C
  8
GAIKEI
  6
CONTINUOUS
 10
155.81761799999981
 20
154.4609869999999
 30
0.001526
 40
0.2
 50
179.99998099999991
 51
269.99998099999999
  0
CIRCLE
  5
188D
  8
GAIKEI
  6
CONTINUOUS
 10
144.41761699999981
 20
142.86098699999999
 30
0.001526
 40
2.0
  0
CIRCLE
  5
188E
  8
GAIKEI
  6
CONTINUOUS
 10
144.41761699999981
 20
152.06098700000001
 30
0.001526
 40
2.0
  0
CIRCLE
  5
188F
  8
GAIKEI
  6
CONTINUOUS
 10
144.41761699999981
 20
161.260987
 30
0.001526
 40
2.0
  0
CIRCLE
  5
1890
  8
GAIKEI
  6
CONTINUOUS
 10
152.81761699999981
 20
142.86098699999999
 30
0.001526
 40
2.0
  0
CIRCLE
  5
1891
  8
GAIKEI
  6
CONTINUOUS
 10
152.81761699999981
 20
152.06098700000001
 30
0.001526
 40
2.0
  0
CIRCLE
  5
1892
  8
GAIKEI
  6
CONTINUOUS
 10
152.81761699999981
 20
161.260987
 30
0.001526
 40
2.0
  0
CIRCLE
  5
1893
  8
GAIKEI
  6
CONTINUOUS
 10
153.92275100000001
 20
69.785993999999988
 30
0.001526
 40
5.0999999999999979
  0
CIRCLE
  5
1894
  8
GAIKEI
  6
CONTINUOUS
 10
153.92275100000001
 20
69.785993999999988
 30
0.001526
 40
6.0
  0
CIRCLE
  5
1895
  8
GAIKEI
  6
CONTINUOUS
 10
153.92275100000001
 20
69.785993999999988
 30
0.001526
 40
7.0
  0
CIRCLE
  5
1896
  8
GAIKEI
  6
CONTINUOUS
 10
117.072751
 20
69.785993999999988
 30
0.001526
 40
5.0999999999999979
  0
CIRCLE
  5
1897
  8
GAIKEI
  6
CONTINUOUS
 10
117.072751
 20
69.785993999999988
 30
0.001526
 40
6.0
  0
CIRCLE
  5
1898
  8
GAIKEI
  6
CONTINUOUS
 10
117.072751
 20
69.785993999999988
 30
0.001526
 40
7.0
  0
CIRCLE
  5
1899
  8
GAIKEI
  6
CONTINUOUS
 10
118.0922929999999
 20
152.06098700000001
 30
0.001526
 40
1.1999999999999991
  0
POLYLINE
  5
189A
  8
DIM
 66
     1
 10
0.0
 20
0.0
 30
0.001526
 70
   128
  0
VERTEX
  5
18E6
  8
DIM
 10
118.881202
 20
139.808021
 30
0.001526
  0
VERTEX
  5
18E7
  8
DIM
 10
128.0172
 20
130.36227299999979
 30
0.001526
  0
VERTEX
  5
18E8
  8
DIM
 10
137.6821019999999
 20
130.36227299999979
 30
0.001526
  0
SEQEND
  5
18E9
  8
DIM
  0
POLYLINE
  5
189F
  8
DIM
 66
     1
 10
0.0
 20
0.0
 30
0.001526
 70
   128
  0
VERTEX
  5
18EA
  8
DIM
 10
84.267617000000001
 20
146.06098700000001
 30
0.001526
  0
VERTEX
  5
18EB
  8
DIM
 10
80.080038000000002
 20
138.11098699999991
 30
0.001526
  0
VERTEX
  5
18EC
  8
DIM
 10
70.364184999999992
 20
138.11098699999991
 30
0.001526
  0
SEQEND
  5
18ED
  8
DIM
  0
POLYLINE
  5
18A4
  8
DIM
 66
     1
 10
0.0
 20
0.0
 30
0.001526
 70
   128
  0
VERTEX
  5
18EE
  8
DIM
 10
84.267617000000001
 20
158.06098700000001
 30
0.001526
  0
VERTEX
  5
18EF
  8
DIM
 10
75.553205000000005
 20
166.3753979999999
 30
0.001526
  0
VERTEX
  5
18F0
  8
DIM
 10
86.165070999999969
 20
166.3753979999999
 30
0.001526
  0
SEQEND
  5
18F1
  8
DIM
  0
LINE
  5
18A9
  8
DIM
 10
26.017617000000001
 20
152.06098700000001
 30
0.001526
 11
21.017617000000001
 21
152.06098700000001
 31
0.001526
  0
TEXT
  5
18AA
  8
DIM
 10
128.6380859999999
 20
130.86176199999991
 30
0.001526
 40
2.5
  1
ŒŠƒÓ2.4
 41
0.72
  0
TEXT
  5
18AB
  8
DIM
 10
71.419437000000002
 20
138.59715299999991
 30
0.001526
 40
2.5
  1
ƒL[ƒ~ƒ]
 41
0.72
  0
TEXT
  5
18AC
  8
DIM
 10
76.43693399999998
 20
167.14416899999981
 30
0.001526
 40
2.5
  1
M12P1
 41
0.72
  0
TEXT
  5
18AD
  8
DIM
 10
10.016014999999999
 20
77.090750999999983
 30
0.001526
 40
3.0
  1
Žæ•tƒŠƒ“ƒO
 41
0.7120000000000001
  0
TEXT
  5
18AE
  8
DIM
 10
58.575561
 20
77.090750999999983
 30
0.001526
 40
3.0
  1
“àŽ•À‹à
 41
0.7120000000000001
  0
TEXT
  5
18AF
  8
DIM
 10
98.202803000000003
 20
76.857632999999964
 30
0.001526
 40
3.0
  1
˜ZŠpƒiƒbƒg
 41
0.7120000000000001
  0
TEXT
  5
18B0
  8
DIM
 10
134.5738349999998
 20
77.090750999999983
 30
0.001526
 40
3.0
  1
˜ZŠpƒiƒbƒg
 41
0.7120000000000001
  0
TEXT
  5
18B1
  8
DIM
 10
17.69867
 20
144.03307100000001
 30
0.001526
 40
2.5
  1
‘¤
 41
0.72
1001
ACAD
1000
R13OBJECT
1002
{
1005
8D9
1002
}
  0
TEXT
  5
18B2
  8
DIM
 10
17.69867
 20
147.513071
 30
0.001526
 40
2.5
  1
Ž¦
 41
0.72
1001
ACAD
1000
R13OBJECT
1002
{
1005
8D9
1002
}
  0
TEXT
  5
18B3
  8
DIM
 10
17.69867
 20
150.87307100000001
 30
0.001526
 40
2.5
  1
•\
 41
0.72
1001
ACAD
1000
R13OBJECT
1002
{
1005
8D9
1002
}
  0
TEXT
  5
18B4
  8
DIM
 10
17.69867
 20
154.3530709999998
 30
0.001526
 40
2.5
  1
–¼
 41
0.72
1001
ACAD
1000
R13OBJECT
1002
{
1005
8D9
1002
}
  0
TEXT
  5
18B5
  8
DIM
 10
17.69867
 20
157.867356
 30
0.001526
 40
2.5
  1
Œ`@
 41
0.72
  0
TEXT
  5
18B6
  8
GAIKEI
 10
150.56877
 20
138.99422699999991
 30
0.000763
 40
1.25
  1
6
 41
0.72
  0
TEXT
  5
18B7
  8
GAIKEI
 10
156.25620399999991
 20
147.17418599999991
 30
0.000763
 40
1.25
  1
5
 41
0.72
  0
TEXT
  5
18B8
  8
GAIKEI
 10
156.75254099999981
 20
159.267617
 30
0.000763
 40
1.25
  1
4
 41
0.72
  0
TEXT
  5
18B9
  8
GAIKEI
 10
139.449623
 20
143.55555799999991
 30
0.000763
 40
1.25
  1
3
 41
0.72
  0
TEXT
  5
18BA
  8
GAIKEI
 10
139.61983699999999
 20
155.055058
 30
0.000763
 40
1.25
  1
2
 41
0.72
  0
TEXT
  5
18BB
  8
GAIKEI
 10
147.09267700000001
 20
163.947261
 30
0.000763
 40
1.25
  1
1
 41
0.72
  0
DIMENSION
  5
18BD
  8
DIM
  2
*D2
 10
94.469611000000015
 20
77.68599399999998
 30
0.001526
 11
92.219610999999986
 21
69.785993999999988
 31
0.001526
  1
<>
 13
74.942261000000002
 23
61.885993999999997
 33
0.001526
 14
74.942261000000002
 24
77.68599399999998
 34
0.001526
 50
90.0
1001
ACAD
1000
DSTYLE
1002
{
1070
    40
1040
2.0
1002
}
  0
DIMENSION
  5
18BE
  8
DIM
  2
*D3
 10
19.905861999999999
 20
42.141152000000012
 30
0.001526
 11
16.155861999999999
 21
40.741152
 31
0.001526
  1
<>
 53
90.0
 13
22.324078
 23
39.341152000000001
 33
0.001526
 14
30.024077999999999
 24
42.141152000000012
 34
0.001526
 50
90.0
1001
ACAD
1000
DSTYLE
1002
{
1070
    40
1040
2.0
1002
}
  0
DIMENSION
  5
18BF
  8
DIM
  2
*D4
 10
130.36631199999991
 20
41.741152
 30
0.001526
 11
130.36631199999991
 21
48.54115199999999
 31
0.001526
 70
   128
  1
<>
 13
125.1556459999999
 23
39.341152000000001
 33
0.001526
 14
124.072744
 24
41.741152
 34
0.001526
 50
90.0
1001
ACAD
1000
DSTYLE
1002
{
1070
    40
1040
2.0
1070
   287
1070
     3
1002
}
  0
DIMENSION
  5
18C0
  8
DIM
  2
*D5
 10
89.988515000000007
 20
75.835993999999999
 30
0.001526
 11
87.738515000000007
 21
69.785993999999988
 31
0.001526
  1
ƒÓ<>
 13
74.942261000000002
 23
63.735993999999991
 33
0.001526
 14
74.942261000000002
 24
75.835993999999999
 34
0.001526
 50
90.0
1001
ACAD
1000
DSTYLE
1002
{
1070
    40
1040
2.0
1002
}
  0
DIMENSION
  5
18C1
  8
DIM
  2
*D6
 10
30.024077999999999
 20
45.90581199999999
 30
0.001526
 11
31.424078000000002
 21
49.65581199999999
 31
0.001526
  1
<>
 13
32.824078
 23
42.141152000000012
 33
0.001526
 14
30.024077999999999
 24
42.141152000000012
 34
0.001526
1001
ACAD
1000
DSTYLE
1002
{
1070
    40
1040
2.0
1002
}
  0
DIMENSION
  5
18C2
  8
DIM
  2
*D7
 10
130.48423500000001
 20
76.785994000000002
 30
0.001526
 11
128.23423500000001
 21
69.785993999999988
 31
0.001526
  1
<>
 13
121.1142029999999
 23
62.785994000000002
 33
0.001526
 14
121.1142029999999
 24
76.785994000000002
 34
0.001526
 50
90.0
1001
ACAD
1000
DSTYLE
1002
{
1070
    40
1040
2.0
1002
}
  0
DIMENSION
  5
18C3
  8
DIM
  2
*D8
 10
167.52885800000001
 20
76.785994000000002
 30
0.001526
 11
165.27885800000001
 21
69.785993999999988
 31
0.001526
  1
<>
 13
157.964203
 23
62.785994000000002
 33
0.001526
 14
157.964203
 24
76.785994000000002
 34
0.001526
 50
90.0
1001
ACAD
1000
DSTYLE
1002
{
1070
    40
1040
2.0
1002
}
  0
DIMENSION
  5
18C4
  8
DIM
  2
*D9
 10
55.247900000000001
 20
69.742531999999997
 30
0.001526
 11
52.997900000000001
 21
64.992531999999997
 31
0.001526
  1
<>
 13
32.824078
 23
60.242531999999997
 33
0.001526
 14
41.943521999999987
 24
69.742531999999997
 34
0.001526
 50
90.0
1001
ACAD
1000
DSTYLE
1002
{
1070
    40
1040
2.0
1002
}
  0
DIMENSION
  5
18C5
  8
DIM
  2
*D10
 10
83.517617000000001
 20
120.51859399999999
 30
0.001526
 11
89.517617000000001
 21
122.76859399999979
 31
0.001526
  1
<>
 13
95.517617000000001
 23
136.16098700000001
 33
0.001526
 14
83.517617000000001
 24
146.36098699999991
 34
0.001526
1001
ACAD
1000
DSTYLE
1002
{
1070
    40
1040
2.0
1002
}
  0
DIMENSION
  5
18C6
  8
DIM
  2
*D11
 10
66.017617000000001
 20
120.51859399999999
 30
0.001526
 11
74.767617000000001
 21
122.76859399999979
 31
0.001526
  1
<>
 13
83.517617000000001
 23
146.36098699999991
 33
0.001526
 14
66.017617000000001
 24
152.06098700000001
 34
0.001526
1001
ACAD
1000
DSTYLE
1002
{
1070
    40
1040
2.0
1002
}
  0
DIMENSION
  5
18C7
  8
DIM
  2
*D12
 10
127.617617
 20
168.66098700000001
 30
0.001526
 11
125.367617
 21
152.06098700000001
 31
0.001526
 70
     1
  1
<>
 13
111.4514519999999
 23
135.4609869999999
 33
0.001526
 14
111.4514519999999
 24
168.66098700000001
 34
0.001526
1001
ACAD
1000
DSTYLE
1002
{
1070
    40
1040
2.0
1002
}
  0
DIMENSION
  5
18C8
  8
DIM
  2
*D13
 10
139.117617
 20
120.51859399999999
 30
0.001526
 11
148.617617
 21
122.76859399999979
 31
0.001526
 70
     1
  1
<>
 13
158.11761699999991
 23
135.4609869999999
 33
0.001526
 14
139.117617
 24
135.4609869999999
 34
0.001526
1001
ACAD
1000
DSTYLE
1002
{
1070
    40
1040
2.0
1002
}
  0
DIMENSION
  5
18C9
  8
DIM
  2
*D14
 10
120.6176169999999
 20
125.460987
 30
0.001526
 11
118.117617
 21
127.710987
 31
0.001526
  1
<>
 13
115.6176169999999
 23
142.40306599999991
 33
0.001526
 14
120.6176169999999
 24
163.55529199999981
 34
0.001526
1001
ACAD
1000
DSTYLE
1002
{
1070
    40
1040
2.0
1002
}
  0
DIMENSION
  5
18CA
  8
DIM
  2
*D15
 10
95.517617000000001
 20
120.51859399999999
 30
0.001526
 11
108.067617
 21
122.76859399999979
 31
0.001526
  1
<>
 13
120.6176169999999
 23
140.5666809999999
 33
0.001526
 14
95.517617000000001
 24
136.16098700000001
 34
0.001526
1001
ACAD
1000
DSTYLE
1002
{
1070
    40
1040
2.0
1002
}
  0
TEXT
  5
18CB
  8
FILE
 10
16.855707579504831
 20
178.0897642385103
 30
0.0
 40
4.0
  1
S-422,S-423,S-425,S-428,S-429
 41
0.72
  0
DIMENSION
  5
18CF
  8
DIM
  2
*D17
 10
47.716256999999999
 20
40.341152000000001
 30
0.0
 11
45.466256999999977
 21
45.641151999999991
 31
0.0
 13
40.524078000000003
 23
39.341152000000001
 33
0.001526
 14
40.524078000000003
 24
40.341152000000001
 34
0.001526
 50
90.0
  0
DIMENSION
  5
18D0
  8
DIM
  2
*D18
 10
62.689692000000001
 20
39.822943000000002
 30
0.0
 11
60.439692000000001
 21
46.472943000000001
 31
0.0
 13
66.992260999999999
 23
39.322943000000002
 33
0.001526
 14
66.992260999999999
 24
39.822943000000002
 34
0.001526
 50
90.0
  0
DIMENSION
  5
18D1
  8
DIM
  2
*D19
 10
90.185207000000005
 20
40.262565000000002
 30
0.0
 11
87.935207000000005
 21
45.562564999999992
 31
0.0
  1
1
 13
81.253333999999981
 23
38.883319999999998
 33
0.001526
 14
81.253333999999981
 24
40.262565000000002
 34
0.001526
 50
90.0
  0
DIMENSION
  5
18D2
  8
DIM
  2
*D20
 10
169.0634509999999
 20
40.707386999999983
 30
0.0
 11
166.8134509999999
 21
46.307386999999999
 31
0.0
 13
160.92274399999991
 23
38.707386999999997
 33
0.001526
 14
160.92274399999991
 24
40.707386999999983
 34
0.001526
 50
90.0
  0
ARC
  5
18D3
  8
GAIKEI
 10
110.094719
 20
34.532474000000001
 30
0.001526
 40
7.2087110000000001
 50
65.960521999999983
 51
90.174552000000006
  0
ARC
  5
18D4
  8
GAIKEI
 10
123.66940200000001
 20
36.337187
 30
0.001526
 40
5.4189970000000001
 50
85.731463000000005
 51
118.13346199999999
  0
ARC
  5
18D5
  8
GAIKEI
 10
146.681513
 20
32.253208000000001
 30
0.001526
 40
8.4576210000000014
 50
67.769593999999984
 51
88.365480000000005
  0
ARC
  5
18D6
  8
GAIKEI
 10
147.40913399999999
 20
44.12901699999999
 30
0.001526
 40
5.3960369999999989
 50
267.75859199999979
 51
297.26748700000002
  0
ARC
  5
18D7
  8
GAIKEI
 10
161.06232700000001
 20
32.73427199999999
 30
0.001526
 40
7.9743369999999976
 50
91.002960000000002
 51
112.861966
  0
ARC
  5
18D8
  8
GAIKEI
 10
161.27313699999991
 20
47.678069000000001
 30
0.001526
 40
8.9775220000000004
 50
248.371904
 51
267.76317099999989
  0
DIMENSION
  5
18D9
  8
DIM
  2
*D21
 10
50.560727
 20
64.335993999999999
 30
0.0
 11
50.560727
 21
80.935982999999979
 31
0.0
 70
   128
 13
32.435594000000002
 23
75.835982999999999
 33
0.001526
 14
32.224077999999999
 24
64.335993999999999
 34
0.001526
 50
90.0
1001
ACAD
1000
DSTYLE
1002
{
1070
   287
1070
     3
1002
}
  0
LINE
  5
18DA
  8
DIM
 10
58.740589
 20
158.662395
 30
0.001526
 11
56.366534000000001
 21
159.18871100000001
 31
0.001526
  0
LINE
  5
18DB
  8
DIM
 10
58.740589
 20
145.45957899999991
 30
0.001526
 11
56.366534000000001
 21
144.93326299999981
 31
0.001526
  0
ARC
  5
18DC
  8
DIM
 10
88.517615000000006
 20
152.06098700000001
 30
0.001526
 40
31.931694
 50
171.08923200000001
 51
188.9107679999999
  0
SOLID
  5
18DD
  8
DIM
 10
56.643780000000007
 20
157.0689999999999
 30
0.001526
 11
57.298843999999988
 21
156.94516100000001
 31
0.001526
 12
57.342830000000021
 22
158.97227100000001
 32
0.001526
 13
57.342830000000021
 23
158.97227100000001
 33
0.001526
  0
SOLID
  5
18DE
  8
DIM
 10
57.298843999999988
 20
147.17681299999981
 30
0.001526
 11
56.643780000000007
 21
147.05297400000001
 31
0.001526
 12
57.342830000000021
 22
145.1497029999999
 32
0.001526
 13
57.342830000000021
 23
145.1497029999999
 33
0.001526
  0
TEXT
  5
18DF
  8
DIM
 10
55.585920999999999
 20
151.34098700000001
 30
0.001526
 40
2.5
  1
ƒ¿
 50
90.0
 41
0.72
  0
ENDSEC
  0
EOF
