  0
SECTION
  2
HEADER
  9
$ACADVER
  1
AC1009
  9
$INSBASE
 10
0.0
 20
0.0
 30
0.0
  9
$EXTMIN
 10
8.6824333611291422
 20
57.316347
 30
0.0
  9
$EXTMAX
 10
149.97512599999999
 20
188.71939608370221
 30
0.002289
  9
$LIMMIN
 10
0.0
 20
0.0
  9
$LIMMAX
 10
100.0
 20
200.0
  9
$ORTHOMODE
 70
     0
  9
$REGENMODE
 70
     1
  9
$FILLMODE
 70
     1
  9
$QTEXTMODE
 70
     0
  9
$MIRRTEXT
 70
     1
  9
$DRAGMODE
 70
     2
  9
$LTSCALE
 40
0.2
  9
$OSMODE
 70
    37
  9
$ATTMODE
 70
     1
  9
$TEXTSIZE
 40
2.0
  9
$TRACEWID
 40
1.0
  9
$TEXTSTYLE
  7
STANDARD
  9
$CLAYER
  8
0
  9
$CELTYPE
  6
BYLAYER
  9
$CECOLOR
 62
   256
  9
$DIMSCALE
 40
2.0
  9
$DIMASZ
 40
1.0
  9
$DIMEXO
 40
0.5
  9
$DIMDLI
 40
0.5
  9
$DIMRND
 40
0.0
  9
$DIMDLE
 40
0.0
  9
$DIMEXE
 40
0.5
  9
$DIMTP
 40
0.0
  9
$DIMTM
 40
0.0
  9
$DIMTXT
 40
1.25
  9
$DIMCEN
 40
0.09
  9
$DIMTSZ
 40
0.0
  9
$DIMTOL
 70
     0
  9
$DIMLIM
 70
     0
  9
$DIMTIH
 70
     0
  9
$DIMTOH
 70
     0
  9
$DIMSE1
 70
     0
  9
$DIMSE2
 70
     0
  9
$DIMTAD
 70
     3
  9
$DIMZIN
 70
     8
  9
$DIMBLK
  1

  9
$DIMASO
 70
     1
  9
$DIMSHO
 70
     1
  9
$DIMPOST
  1

  9
$DIMAPOST
  1

  9
$DIMALT
 70
     0
  9
$DIMALTD
 70
     4
  9
$DIMALTF
 40
0.0394
  9
$DIMLFAC
 40
1.0
  9
$DIMTOFL
 70
     1
  9
$DIMTVP
 40
0.0
  9
$DIMTIX
 70
     0
  9
$DIMSOXD
 70
     0
  9
$DIMSAH
 70
     0
  9
$DIMBLK1
  1

  9
$DIMBLK2
  1

  9
$DIMSTYLE
  2
STANDARD
  9
$DIMCLRD
 70
   256
  9
$DIMCLRE
 70
   256
  9
$DIMCLRT
 70
     0
  9
$DIMTFAC
 40
0.8
  9
$DIMGAP
 40
0.5
  9
$LUNITS
 70
     2
  9
$LUPREC
 70
     4
  9
$SKETCHINC
 40
1.0
  9
$FILLETRAD
 40
10.0
  9
$AUNITS
 70
     0
  9
$AUPREC
 70
     0
  9
$MENU
  1
acad
  9
$ELEVATION
 40
0.0
  9
$PELEVATION
 40
0.0
  9
$THICKNESS
 40
0.0
  9
$LIMCHECK
 70
     0
  9
$BLIPMODE
 70
     0
  9
$CHAMFERA
 40
10.0
  9
$CHAMFERB
 40
10.0
  9
$SKPOLY
 70
     0
  9
$TDCREATE
 40
2452237.8300900459
  9
$TDUPDATE
 40
2453094.5822538659
  9
$TDINDWG
 40
0.0290575116
  9
$TDUSRTIMER
 40
0.0290571528
  9
$USRTIMER
 70
     1
  9
$ANGBASE
 50
0.0
  9
$ANGDIR
 70
     0
  9
$PDMODE
 70
     0
  9
$PDSIZE
 40
0.0
  9
$PLINEWID
 40
0.0
  9
$COORDS
 70
     1
  9
$SPLFRAME
 70
     0
  9
$SPLINETYPE
 70
     6
  9
$SPLINESEGS
 70
     8
  9
$ATTDIA
 70
     0
  9
$ATTREQ
 70
     1
  9
$HANDLING
 70
-16383
  9
$HANDSEED
  5
16B1
  9
$SURFTAB1
 70
     6
  9
$SURFTAB2
 70
     6
  9
$SURFTYPE
 70
     6
  9
$SURFU
 70
     6
  9
$SURFV
 70
     6
  9
$UCSNAME
  2

  9
$UCSORG
 10
0.0
 20
0.0
 30
0.0
  9
$UCSXDIR
 10
1.0
 20
0.0
 30
0.0
  9
$UCSYDIR
 10
0.0
 20
1.0
 30
0.0
  9
$PUCSNAME
  2

  9
$PUCSORG
 10
0.0
 20
0.0
 30
0.0
  9
$PUCSXDIR
 10
1.0
 20
0.0
 30
0.0
  9
$PUCSYDIR
 10
0.0
 20
1.0
 30
0.0
  9
$USERI1
 70
     0
  9
$USERI2
 70
     0
  9
$USERI3
 70
     0
  9
$USERI4
 70
     0
  9
$USERI5
 70
     0
  9
$USERR1
 40
0.0
  9
$USERR2
 40
0.0
  9
$USERR3
 40
0.0
  9
$USERR4
 40
0.0
  9
$USERR5
 40
0.0
  9
$WORLDVIEW
 70
     1
  9
$SHADEDGE
 70
     3
  9
$SHADEDIF
 70
    70
  9
$TILEMODE
 70
     1
  9
$MAXACTVP
 70
    16
  9
$PLIMCHECK
 70
     0
  9
$PEXTMIN
 10
1.0000000000000000E+020
 20
1.0000000000000000E+020
 30
1.0000000000000000E+020
  9
$PEXTMAX
 10
-1.0000000000000000E+020
 20
-1.0000000000000000E+020
 30
-1.0000000000000000E+020
  9
$PLIMMIN
 10
0.0
 20
0.0
  9
$PLIMMAX
 10
420.0
 20
297.0
  9
$UNITMODE
 70
     0
  9
$VISRETAIN
 70
     1
  9
$PLINEGEN
 70
     0
  9
$PSLTSCALE
 70
     1
  0
ENDSEC
  0
SECTION
  2
TABLES
  0
TABLE
  2
VPORT
 70
     2
  0
VPORT
  2
*ACTIVE
 70
     0
 10
0.0
 20
0.0
 11
1.0
 21
1.0
 12
79.329876000498672
 22
123.3061121755474
 13
0.0
 23
0.0
 14
10.0
 24
10.0
 15
10.0
 25
10.0
 16
0.0
 26
0.0
 36
1.0
 17
0.0
 27
0.0
 37
0.0
 40
133.1173243031744
 41
1.701818181818181
 42
50.0
 43
0.0
 44
0.0
 50
0.0
 51
0.0
 71
     0
 72
   100
 73
     1
 74
     1
 75
     0
 76
     0
 77
     0
 78
     0
  0
ENDTAB
  0
TABLE
  2
LTYPE
 70
     3
  0
LTYPE
  2
CONTINUOUS
 70
     0
  3
Solid line
 72
    65
 73
     0
 40
0.0
  0
LTYPE
  2
CENTER
 70
     0
  3
Center ____ _ ____ _ ____ _ ____ _ ____ _ ____
 72
    65
 73
     4
 40
2.0
 49
1.25
 49
-0.25
 49
0.25
 49
-0.25
  0
LTYPE
  2
CENTERX4
 70
     0
  3
________  __  ________  __  ________  __  _____
 72
    65
 73
     4
 40
10.5
 49
6.0
 49
-1.5
 49
1.5
 49
-1.5
  0
ENDTAB
  0
TABLE
  2
LAYER
 70
     8
  0
LAYER
  2
0
 70
     0
 62
     7
  6
CONTINUOUS
  0
LAYER
  2
DEFPOINTS
 70
     0
 62
     7
  6
CONTINUOUS
  0
LAYER
  2
GAIKEI
 70
     0
 62
     7
  6
CONTINUOUS
  0
LAYER
  2
MOUNT
 70
     0
 62
     7
  6
CONTINUOUS
  0
LAYER
  2
DIM
 70
     0
 62
     4
  6
CONTINUOUS
  0
LAYER
  2
CENTER
 70
     0
 62
     2
  6
CENTERX4
  0
LAYER
  2
FILE
 70
     0
 62
     7
  6
CONTINUOUS
  0
LAYER
  2
MOUNT2
 70
     0
 62
     3
  6
CONTINUOUS
  0
ENDTAB
  0
TABLE
  2
STYLE
 70
     1
  0
STYLE
  2
STANDARD
 70
     0
 40
0.0
 41
0.72
 50
0.0
 71
     0
 42
2.0
  3
txt.shx
  4
extfont.shx
  0
ENDTAB
  0
TABLE
  2
VIEW
 70
     0
  0
ENDTAB
  0
TABLE
  2
UCS
 70
     0
  0
ENDTAB
  0
TABLE
  2
APPID
 70
     1
  0
APPID
  2
ACAD
 70
     0
  0
ENDTAB
  0
TABLE
  2
DIMSTYLE
 70
     2
  0
DIMSTYLE
  2
STANDARD
 70
     0
  3

  4

  5

  6

  7

 40
2.0
 41
1.0
 42
0.5
 43
0.5
 44
0.5
 45
0.0
 46
0.0
 47
0.0
 48
0.0
140
1.25
141
0.09
142
0.0
143
0.0394
144
1.0
145
0.0
146
0.8
147
0.5
 71
     0
 72
     0
 73
     0
 74
     0
 75
     0
 76
     0
 77
     3
 78
     8
170
     0
171
     4
172
     1
173
     0
174
     0
175
     0
176
   256
177
   256
178
     0
  0
DIMSTYLE
  2
STANDARD-S
 70
     0
  3

  4

  5

  6

  7

 40
2.0
 41
1.0
 42
0.5
 43
0.5
 44
0.5
 45
0.0
 46
0.0
 47
0.0
 48
0.0
140
1.25
141
0.09
142
0.0
143
0.0394
144
1.0
145
0.0
146
0.8
147
0.5
 71
     0
 72
     0
 73
     0
 74
     0
 75
     0
 76
     0
 77
     3
 78
     8
170
     0
171
     4
172
     1
173
     0
174
     0
175
     0
176
   256
177
   256
178
     0
  0
ENDTAB
  0
ENDSEC
  0
SECTION
  2
BLOCKS
  0
BLOCK
  8
0
  2
$MODEL_SPACE
 70
     0
 10
0.0
 20
0.0
 30
0.0
  3
$MODEL_SPACE
  1

  0
ENDBLK
  5
12AE
  8
0
  0
BLOCK
 67
     1
  8
0
  2
$PAPER_SPACE
 70
     0
 10
0.0
 20
0.0
 30
0.0
  3
$PAPER_SPACE
  1

  0
ENDBLK
  5
12AA
 67
     1
  8
0
  0
BLOCK
  8
0
  2
*D2
 70
     1
 10
0.0
 20
0.0
 30
0.0
  3
*D2
  1

  0
LINE
  5
12C6
  8
0
  6
BYBLOCK
 10
118.447784
 20
82.744954000000007
 30
0.0
 11
129.262439
 21
82.744954000000007
 31
0.0
  0
LINE
  5
12C7
  8
0
  6
BYBLOCK
 10
118.447784
 20
96.744954000000007
 30
0.0
 11
129.262439
 21
96.744954000000007
 31
0.0
  0
LINE
  5
12C8
  8
0
  6
BYBLOCK
 10
128.262439
 20
84.744954000000007
 30
0.0
 11
128.262439
 21
94.744954000000007
 31
0.0
  0
SOLID
  5
12C9
  8
0
  6
BYBLOCK
 10
127.929106
 20
84.744954000000007
 30
0.0
 11
128.59577200000001
 21
84.744954000000007
 31
0.0
 12
128.262439
 22
82.744954000000007
 32
0.0
 13
128.262439
 23
82.744954000000007
 33
0.0
  0
SOLID
  5
12CA
  8
0
  6
BYBLOCK
 10
127.929106
 20
94.744954000000007
 30
0.0
 11
128.59577200000001
 21
94.744954000000007
 31
0.0
 12
128.262439
 22
96.744954000000007
 32
0.0
 13
128.262439
 23
96.744954000000007
 33
0.0
  0
TEXT
  5
12CB
  8
0
  6
BYBLOCK
 62
     0
 10
127.2624389999998
 20
88.544954000000004
 30
0.0
 40
2.5
  1
14
 50
90.0
 41
0.72
  0
POINT
  5
12CC
  8
DEFPOINTS
  6
BYBLOCK
 62
     0
 10
117.447784
 20
82.744954000000007
 30
0.0
  0
POINT
  5
12CD
  8
DEFPOINTS
  6
BYBLOCK
 62
     0
 10
117.447784
 20
96.744954000000007
 30
0.0
  0
POINT
  5
12CE
  8
DEFPOINTS
  6
BYBLOCK
 62
     0
 10
128.262439
 20
96.744954000000007
 30
0.0
  0
ENDBLK
  5
12CF
  8
0
  0
BLOCK
  8
0
  2
*D3
 70
     1
 10
0.0
 20
0.0
 30
0.0
  3
*D3
  1

  0
LINE
  5
12D2
  8
0
  6
BYBLOCK
 10
74.625842000000006
 20
83.694954000000024
 30
0.0
 11
89.576042000000001
 21
83.694954000000024
 31
0.0
  0
LINE
  5
12D3
  8
0
  6
BYBLOCK
 10
74.625842000000006
 20
95.794954000000004
 30
0.0
 11
89.576042000000001
 21
95.794954000000004
 31
0.0
  0
LINE
  5
12D4
  8
0
  6
BYBLOCK
 10
88.576042000000001
 20
85.694953999999996
 30
0.0
 11
88.576042000000001
 21
93.794954000000004
 31
0.0
  0
SOLID
  5
12D5
  8
0
  6
BYBLOCK
 10
88.242709000000005
 20
85.694953999999996
 30
0.0
 11
88.909375999999995
 21
85.694953999999996
 31
0.0
 12
88.576042000000001
 22
83.694954000000024
 32
0.0
 13
88.576042000000001
 23
83.694954000000024
 33
0.0
  0
SOLID
  5
12D6
  8
0
  6
BYBLOCK
 10
88.242709000000005
 20
93.794954000000004
 30
0.0
 11
88.909375999999995
 21
93.794954000000004
 31
0.0
 12
88.576042000000001
 22
95.794954000000004
 32
0.0
 13
88.576042000000001
 23
95.794954000000004
 33
0.0
  0
TEXT
  5
12D7
  8
0
  6
BYBLOCK
 62
     0
 10
87.576042000000015
 20
86.744954000000007
 30
0.0
 40
2.5
  1
É”12.1
 50
90.0
 41
0.72
  0
POINT
  5
12D8
  8
DEFPOINTS
  6
BYBLOCK
 62
     0
 10
73.625842000000006
 20
83.694954000000024
 30
0.0
  0
POINT
  5
12D9
  8
DEFPOINTS
  6
BYBLOCK
 62
     0
 10
73.625842000000006
 20
95.794954000000004
 30
0.0
  0
POINT
  5
12DA
  8
DEFPOINTS
  6
BYBLOCK
 62
     0
 10
88.576042000000001
 20
95.794954000000004
 30
0.0
  0
ENDBLK
  5
12DB
  8
0
  0
BLOCK
  8
0
  2
*D4
 70
     1
 10
0.0
 20
0.0
 30
0.0
  3
*D4
  1

  0
LINE
  5
12DE
  8
0
  6
BYBLOCK
 10
74.625842000000006
 20
81.844954000000016
 30
0.0
 11
95.333844999999997
 21
81.844954000000016
 31
0.0
  0
LINE
  5
12DF
  8
0
  6
BYBLOCK
 10
74.625842000000006
 20
97.644954000000013
 30
0.0
 11
95.333844999999997
 21
97.644954000000013
 31
0.0
  0
LINE
  5
12E0
  8
0
  6
BYBLOCK
 10
94.333844999999997
 20
83.844954000000001
 30
0.0
 11
94.333844999999997
 21
95.644953999999998
 31
0.0
  0
SOLID
  5
12E1
  8
0
  6
BYBLOCK
 10
94.000512000000001
 20
83.844954000000001
 30
0.0
 11
94.667178000000007
 21
83.844954000000001
 31
0.0
 12
94.333844999999997
 22
81.844954000000016
 32
0.0
 13
94.333844999999997
 23
81.844954000000016
 33
0.0
  0
SOLID
  5
12E2
  8
0
  6
BYBLOCK
 10
94.000512000000001
 20
95.644953999999998
 30
0.0
 11
94.667178000000007
 21
95.644953999999998
 31
0.0
 12
94.333844999999997
 22
97.644954000000013
 32
0.0
 13
94.333844999999997
 23
97.644954000000013
 33
0.0
  0
TEXT
  5
12E3
  8
0
  6
BYBLOCK
 62
     0
 10
93.333844999999997
 20
87.344954000000001
 30
0.0
 40
2.5
  1
15.8
 50
90.0
 41
0.72
  0
POINT
  5
12E4
  8
DEFPOINTS
  6
BYBLOCK
 62
     0
 10
73.625842000000006
 20
81.844954000000016
 30
0.0
  0
POINT
  5
12E5
  8
DEFPOINTS
  6
BYBLOCK
 62
     0
 10
73.625842000000006
 20
97.644954000000013
 30
0.0
  0
POINT
  5
12E6
  8
DEFPOINTS
  6
BYBLOCK
 62
     0
 10
94.333844999999997
 20
97.644954000000013
 30
0.0
  0
ENDBLK
  5
12E7
  8
0
  0
BLOCK
  8
0
  2
*D5
 70
     1
 10
0.0
 20
0.0
 30
0.0
  3
*D5
  1

  0
LINE
  5
12EA
  8
0
  6
BYBLOCK
 10
37.992975999999999
 20
82.144953999999998
 30
0.0
 11
53.178154999999997
 21
82.144953999999998
 31
0.0
  0
LINE
  5
12EB
  8
0
  6
BYBLOCK
 10
37.992975999999999
 20
97.344954000000001
 30
0.0
 11
53.178154999999997
 21
97.344954000000001
 31
0.0
  0
LINE
  5
12EC
  8
0
  6
BYBLOCK
 10
52.178154999999997
 20
84.144953999999984
 30
0.0
 11
52.178154999999997
 21
95.344954000000001
 31
0.0
  0
SOLID
  5
12ED
  8
0
  6
BYBLOCK
 10
51.844822000000001
 20
84.144953999999984
 30
0.0
 11
52.511488999999997
 21
84.144953999999984
 31
0.0
 12
52.178154999999997
 22
82.144953999999998
 32
0.0
 13
52.178154999999997
 23
82.144953999999998
 33
0.0
  0
SOLID
  5
12EE
  8
0
  6
BYBLOCK
 10
51.844822000000001
 20
95.344954000000001
 30
0.0
 11
52.511488999999997
 21
95.344954000000001
 31
0.0
 12
52.178154999999997
 22
97.344954000000001
 32
0.0
 13
52.178154999999997
 23
97.344954000000001
 33
0.0
  0
TEXT
  5
12EF
  8
0
  6
BYBLOCK
 62
     0
 10
51.178154999999983
 20
86.444954000000024
 30
0.0
 40
2.5
  1
É”15.2
 50
90.0
 41
0.72
  0
POINT
  5
12F0
  8
DEFPOINTS
  6
BYBLOCK
 62
     0
 10
36.992975999999992
 20
82.144953999999998
 30
0.0
  0
POINT
  5
12F1
  8
DEFPOINTS
  6
BYBLOCK
 62
     0
 10
36.992975999999992
 20
97.344954000000001
 30
0.0
  0
POINT
  5
12F2
  8
DEFPOINTS
  6
BYBLOCK
 62
     0
 10
52.178154999999997
 20
97.344954000000001
 30
0.0
  0
ENDBLK
  5
12F3
  8
0
  0
BLOCK
  8
0
  2
*D6
 70
     1
 10
0.0
 20
0.0
 30
0.0
  3
*D6
  1

  0
LINE
  5
12F6
  8
0
  6
BYBLOCK
 10
75.675211000000004
 20
155.157509
 30
0.0
 11
75.675211000000004
 21
129.80750900000001
 31
0.0
  0
LINE
  5
12F7
  8
0
  6
BYBLOCK
 10
58.175210999999997
 20
160.407509
 30
0.0
 11
58.175210999999997
 21
129.80750900000001
 31
0.0
  0
LINE
  5
12F8
  8
0
  6
BYBLOCK
 10
73.675211000000004
 20
130.80750900000001
 30
0.0
 11
60.17521099999999
 21
130.80750900000001
 31
0.0
  0
SOLID
  5
12F9
  8
0
  6
BYBLOCK
 10
73.675211000000004
 20
131.14084199999999
 30
0.0
 11
73.675211000000004
 21
130.474175
 31
0.0
 12
75.675211000000004
 22
130.80750900000001
 32
0.0
 13
75.675211000000004
 23
130.80750900000001
 33
0.0
  0
SOLID
  5
12FA
  8
0
  6
BYBLOCK
 10
60.17521099999999
 20
131.14084199999999
 30
0.0
 11
60.17521099999999
 21
130.474175
 31
0.0
 12
58.175210999999997
 22
130.80750900000001
 32
0.0
 13
58.175210999999997
 23
130.80750900000001
 33
0.0
  0
TEXT
  5
12FB
  8
0
  6
BYBLOCK
 62
     0
 10
64.525210999999999
 20
131.80750900000001
 30
0.0
 40
2.5
  1
17.5
 41
0.72
  0
POINT
  5
12FC
  8
DEFPOINTS
  6
BYBLOCK
 62
     0
 10
75.675211000000004
 20
156.157509
 30
0.0
  0
POINT
  5
12FD
  8
DEFPOINTS
  6
BYBLOCK
 62
     0
 10
58.175210999999997
 20
161.407509
 30
0.0
  0
POINT
  5
12FE
  8
DEFPOINTS
  6
BYBLOCK
 62
     0
 10
58.175210999999997
 20
130.80750900000001
 30
0.0
  0
ENDBLK
  5
12FF
  8
0
  0
BLOCK
  8
0
  2
*D7
 70
     1
 10
0.0
 20
0.0
 30
0.0
  3
*D7
  1

  0
LINE
  5
1302
  8
0
  6
BYBLOCK
 10
85.675211000000004
 20
154.40750899999981
 30
0.0
 11
85.675211000000004
 21
129.80750900000001
 31
0.0
  0
LINE
  5
1303
  8
0
  6
BYBLOCK
 10
75.675211000000004
 20
155.157509
 30
0.0
 11
75.675211000000004
 21
129.80750900000001
 31
0.0
  0
LINE
  5
1304
  8
0
  6
BYBLOCK
 10
83.675211000000004
 20
130.80750900000001
 30
0.0
 11
77.675211000000004
 21
130.80750900000001
 31
0.0
  0
SOLID
  5
1305
  8
0
  6
BYBLOCK
 10
83.675211000000004
 20
131.14084199999999
 30
0.0
 11
83.675211000000004
 21
130.474175
 31
0.0
 12
85.675211000000004
 22
130.80750900000001
 32
0.0
 13
85.675211000000004
 23
130.80750900000001
 33
0.0
  0
SOLID
  5
1306
  8
0
  6
BYBLOCK
 10
77.675211000000004
 20
131.14084199999999
 30
0.0
 11
77.675211000000004
 21
130.474175
 31
0.0
 12
75.675211000000004
 22
130.80750900000001
 32
0.0
 13
75.675211000000004
 23
130.80750900000001
 33
0.0
  0
TEXT
  5
1307
  8
0
  6
BYBLOCK
 62
     0
 10
79.625210999999979
 20
131.80750900000001
 30
0.0
 40
2.5
  1
10
 41
0.72
  0
POINT
  5
1308
  8
DEFPOINTS
  6
BYBLOCK
 62
     0
 10
85.675211000000004
 20
155.40750899999981
 30
0.0
  0
POINT
  5
1309
  8
DEFPOINTS
  6
BYBLOCK
 62
     0
 10
75.675211000000004
 20
156.157509
 30
0.0
  0
POINT
  5
130A
  8
DEFPOINTS
  6
BYBLOCK
 62
     0
 10
75.675211000000004
 20
130.80750900000001
 30
0.0
  0
ENDBLK
  5
130B
  8
0
  0
BLOCK
  8
0
  2
*D8
 70
     1
 10
0.0
 20
0.0
 30
0.0
  3
*D8
  1

  0
LINE
  5
130E
  8
0
  6
BYBLOCK
 10
106.675211
 20
145.80750900000001
 30
0.0
 11
121.866753
 21
145.80750900000001
 31
0.0
  0
LINE
  5
130F
  8
0
  6
BYBLOCK
 10
106.675211
 20
177.00750899999991
 30
0.0
 11
121.866753
 21
177.00750899999991
 31
0.0
  0
LINE
  5
1310
  8
0
  6
BYBLOCK
 10
120.866753
 20
147.80750900000001
 30
0.0
 11
120.866753
 21
175.00750899999991
 31
0.0
  0
SOLID
  5
1311
  8
0
  6
BYBLOCK
 10
120.53342000000001
 20
147.80750900000001
 30
0.0
 11
121.200086
 21
147.80750900000001
 31
0.0
 12
120.866753
 22
145.80750900000001
 32
0.0
 13
120.866753
 23
145.80750900000001
 33
0.0
  0
SOLID
  5
1312
  8
0
  6
BYBLOCK
 10
120.53342000000001
 20
175.00750899999991
 30
0.0
 11
121.200086
 21
175.00750899999991
 31
0.0
 12
120.866753
 22
177.00750899999991
 32
0.0
 13
120.866753
 23
177.00750899999991
 33
0.0
  0
TEXT
  5
1313
  8
0
  6
BYBLOCK
 62
     0
 10
119.866753
 20
159.007509
 30
0.0
 40
2.5
  1
31.2
 50
90.0
 41
0.72
  0
POINT
  5
1314
  8
DEFPOINTS
  6
BYBLOCK
 62
     0
 10
105.675211
 20
145.80750900000001
 30
0.0
  0
POINT
  5
1315
  8
DEFPOINTS
  6
BYBLOCK
 62
     0
 10
105.675211
 20
177.00750899999991
 30
0.0
  0
POINT
  5
1316
  8
DEFPOINTS
  6
BYBLOCK
 62
     0
 10
120.866753
 20
177.00750899999991
 30
0.0
  0
ENDBLK
  5
1317
  8
0
  0
BLOCK
  8
0
  2
*D9
 70
     1
 10
0.0
 20
0.0
 30
0.0
  3
*D9
  1

  0
LINE
  5
131A
  8
0
  6
BYBLOCK
 10
148.4751259999999
 20
145.80750900000001
 30
0.0
 11
148.4751259999999
 21
129.80750900000001
 31
0.0
  0
LINE
  5
131B
  8
0
  6
BYBLOCK
 10
129.87512599999991
 20
145.80750900000001
 30
0.0
 11
129.87512599999991
 21
129.80750900000001
 31
0.0
  0
LINE
  5
131C
  8
0
  6
BYBLOCK
 10
146.4751259999999
 20
130.80750900000001
 30
0.0
 11
131.87512599999991
 21
130.80750900000001
 31
0.0
  0
SOLID
  5
131D
  8
0
  6
BYBLOCK
 10
146.4751259999999
 20
131.14084199999999
 30
0.0
 11
146.4751259999999
 21
130.474175
 31
0.0
 12
148.4751259999999
 22
130.80750900000001
 32
0.0
 13
148.4751259999999
 23
130.80750900000001
 33
0.0
  0
SOLID
  5
131E
  8
0
  6
BYBLOCK
 10
131.87512599999991
 20
131.14084199999999
 30
0.0
 11
131.87512599999991
 21
130.474175
 31
0.0
 12
129.87512599999991
 22
130.80750900000001
 32
0.0
 13
129.87512599999991
 23
130.80750900000001
 33
0.0
  0
TEXT
  5
131F
  8
0
  6
BYBLOCK
 62
     0
 10
136.775126
 20
131.80750900000001
 30
0.0
 40
2.5
  1
18.6
 41
0.72
  0
POINT
  5
1320
  8
DEFPOINTS
  6
BYBLOCK
 62
     0
 10
148.4751259999999
 20
146.80750900000001
 30
0.0
  0
POINT
  5
1321
  8
DEFPOINTS
  6
BYBLOCK
 62
     0
 10
129.87512599999991
 20
146.80750900000001
 30
0.0
  0
POINT
  5
1322
  8
DEFPOINTS
  6
BYBLOCK
 62
     0
 10
129.87512599999991
 20
130.80750900000001
 30
0.0
  0
ENDBLK
  5
1323
  8
0
  0
BLOCK
  8
0
  2
*D10
 70
     1
 10
0.0
 20
0.0
 30
0.0
  3
*D10
  1

  0
LINE
  5
1326
  8
0
  6
BYBLOCK
 10
85.675211000000004
 20
154.40750899999981
 30
0.0
 11
85.675211000000004
 21
129.80750900000001
 31
0.0
  0
LINE
  5
1327
  8
0
  6
BYBLOCK
 10
111.37521099999989
 20
148.94101000000001
 30
0.0
 11
111.37521099999989
 21
129.80750900000001
 31
0.0
  0
LINE
  5
1328
  8
0
  6
BYBLOCK
 10
87.675211000000004
 20
130.80750900000001
 30
0.0
 11
109.37521099999999
 21
130.80750900000001
 31
0.0
  0
SOLID
  5
1329
  8
0
  6
BYBLOCK
 10
87.675211000000004
 20
131.14084199999999
 30
0.0
 11
87.675211000000004
 21
130.474175
 31
0.0
 12
85.675211000000004
 22
130.80750900000001
 32
0.0
 13
85.675211000000004
 23
130.80750900000001
 33
0.0
  0
SOLID
  5
132A
  8
0
  6
BYBLOCK
 10
109.37521099999999
 20
131.14084199999999
 30
0.0
 11
109.37521099999999
 21
130.474175
 31
0.0
 12
111.37521099999989
 22
130.80750900000001
 32
0.0
 13
111.37521099999989
 23
130.80750900000001
 33
0.0
  0
TEXT
  5
132B
  8
0
  6
BYBLOCK
 62
     0
 10
95.825210999999996
 20
131.80750900000001
 30
0.0
 40
2.5
  1
25.7
 41
0.72
  0
POINT
  5
132C
  8
DEFPOINTS
  6
BYBLOCK
 62
     0
 10
85.675211000000004
 20
155.40750899999981
 30
0.0
  0
POINT
  5
132D
  8
DEFPOINTS
  6
BYBLOCK
 62
     0
 10
111.37521099999989
 20
149.94101000000001
 30
0.0
  0
POINT
  5
132E
  8
DEFPOINTS
  6
BYBLOCK
 62
     0
 10
111.37521099999989
 20
130.80750900000001
 30
0.0
  0
ENDBLK
  5
132F
  8
0
  0
BLOCK
  8
0
  2
*D11
 70
     1
 10
0.0
 20
0.0
 30
0.0
  3
*D11
  1

  0
LINE
  5
1332
  8
0
  6
BYBLOCK
 10
105.675211
 20
144.80750900000001
 30
0.0
 11
105.675211
 21
136.0988899999999
 31
0.0
  0
LINE
  5
1333
  8
0
  6
BYBLOCK
 10
111.37521099999989
 20
171.40487799999991
 30
0.0
 11
111.37521099999989
 21
136.0988899999999
 31
0.0
  0
LINE
  5
1334
  8
0
  6
BYBLOCK
 10
103.675211
 20
137.0988899999999
 30
0.0
 11
101.675211
 21
137.0988899999999
 31
0.0
  0
LINE
  5
1335
  8
0
  6
BYBLOCK
 10
113.37521099999989
 20
137.0988899999999
 30
0.0
 11
115.37521099999989
 21
137.0988899999999
 31
0.0
  0
LINE
  5
1336
  8
0
  6
BYBLOCK
 10
105.675211
 20
137.0988899999999
 30
0.0
 11
111.37521099999989
 21
137.0988899999999
 31
0.0
  0
SOLID
  5
1337
  8
0
  6
BYBLOCK
 10
103.675211
 20
137.43222299999991
 30
0.0
 11
103.675211
 21
136.7655569999998
 31
0.0
 12
105.675211
 22
137.0988899999999
 32
0.0
 13
105.675211
 23
137.0988899999999
 33
0.0
  0
SOLID
  5
1338
  8
0
  6
BYBLOCK
 10
113.37521099999989
 20
137.43222299999991
 30
0.0
 11
113.37521099999989
 21
136.7655569999998
 31
0.0
 12
111.37521099999989
 22
137.0988899999999
 32
0.0
 13
111.37521099999989
 23
137.0988899999999
 33
0.0
  0
TEXT
  5
1339
  8
0
  6
BYBLOCK
 62
     0
 10
106.725211
 20
138.0988899999999
 30
0.0
 40
2.5
  1
5.7
 41
0.72
  0
POINT
  5
133A
  8
DEFPOINTS
  6
BYBLOCK
 62
     0
 10
105.675211
 20
145.80750900000001
 30
0.0
  0
POINT
  5
133B
  8
DEFPOINTS
  6
BYBLOCK
 62
     0
 10
111.37521099999989
 20
172.40487799999991
 30
0.0
  0
POINT
  5
133C
  8
DEFPOINTS
  6
BYBLOCK
 62
     0
 10
111.37521099999989
 20
137.0988899999999
 30
0.0
  0
ENDBLK
  5
133D
  8
0
  0
BLOCK
  8
0
  2
*D12
 70
     1
 10
0.0
 20
0.0
 30
0.0
  3
*D12
  1

  0
LINE
  5
1340
  8
0
  6
BYBLOCK
 10
50.701085999999997
 20
167.029753
 30
0.0
 11
48.153176999999999
 21
167.50198
 31
0.0
  0
LINE
  5
1341
  8
0
  6
BYBLOCK
 10
50.701085999999997
 20
155.78526499999981
 30
0.0
 11
48.153176999999999
 21
155.31303799999981
 31
0.0
  0
ARC
  5
1342
  8
0
  6
BYBLOCK
 10
81.035999000000004
 20
161.407509
 30
0.0
 40
32.442825999999997
 50
173.032667
 51
186.967333
  0
SOLID
  5
1343
  8
0
  6
BYBLOCK
 10
48.503279999999997
 20
165.39354800000001
 30
0.0
 11
49.162216000000001
 21
165.2923209999999
 31
0.0
 12
49.136431000000002
 22
167.3197439999999
 32
0.0
 13
49.136431000000002
 23
167.3197439999999
 33
0.0
  0
SOLID
  5
1344
  8
0
  6
BYBLOCK
 10
49.162216000000001
 20
157.52269699999991
 30
0.0
 11
48.503279999999997
 21
157.4214689999998
 31
0.0
 12
49.136431000000002
 22
155.495273
 32
0.0
 13
49.136431000000002
 23
155.495273
 33
0.0
  0
TEXT
  5
1345
  8
0
  6
BYBLOCK
 62
     0
 10
47.593173
 20
160.68750900000001
 30
0.0
 40
2.5
  1
Éø
 50
90.0
 41
0.72
  0
POINT
  5
1346
  8
DEFPOINTS
  6
BYBLOCK
 62
     0
 10
48.653686
 20
163.3880959999999
 30
-0.001526
  0
POINT
  5
1347
  8
DEFPOINTS
  6
BYBLOCK
 62
     0
 10
81.428717999999989
 20
161.48029499999981
 30
0.0
  0
POINT
  5
1348
  8
DEFPOINTS
  6
BYBLOCK
 62
     0
 10
51.684340999999982
 20
166.84751699999981
 30
0.0
  0
POINT
  5
1349
  8
DEFPOINTS
  6
BYBLOCK
 62
     0
 10
81.428717999999989
 20
161.334723
 30
0.0
  0
POINT
  5
134A
  8
DEFPOINTS
  6
BYBLOCK
 62
     0
 10
51.684340999999982
 20
155.9675
 30
0.0
  0
ENDBLK
  5
134B
  8
0
  0
BLOCK
  8
0
  2
*D13
 70
     1
 10
0.0
 20
0.0
 30
0.0
  3
*D13
  1

  0
LINE
  5
134E
  8
0
  6
BYBLOCK
 10
45.592975999999993
 20
61.316347
 30
0.0
 11
54.295476000000001
 21
61.316347
 31
0.0
  0
LINE
  5
134F
  8
0
  6
BYBLOCK
 10
45.292976000000003
 20
63.816347
 30
0.0
 11
54.295476000000001
 21
63.816347
 31
0.0
  0
LINE
  5
1350
  8
0
  6
BYBLOCK
 10
53.295476000000001
 20
59.316347
 30
0.0
 11
53.295476000000001
 21
57.316347
 31
0.0
  0
LINE
  5
1351
  8
0
  6
BYBLOCK
 10
53.295476000000001
 20
65.816346999999993
 30
0.0
 11
53.295476000000001
 21
73.416347000000002
 31
0.0
  0
LINE
  5
1352
  8
0
  6
BYBLOCK
 10
53.295476000000001
 20
61.316347
 30
0.0
 11
53.295476000000001
 21
63.816347
 31
0.0
  0
SOLID
  5
1353
  8
0
  6
BYBLOCK
 10
52.962142000000007
 20
59.316347
 30
0.0
 11
53.628808999999997
 21
59.316347
 31
0.0
 12
53.295476000000001
 22
61.316347
 32
0.0
 13
53.295476000000001
 23
61.316347
 33
0.0
  0
SOLID
  5
1354
  8
0
  6
BYBLOCK
 10
52.962142000000007
 20
65.816346999999993
 30
0.0
 11
53.628808999999997
 21
65.816346999999993
 31
0.0
 12
53.295476000000001
 22
63.816347
 32
0.0
 13
53.295476000000001
 23
63.816347
 33
0.0
  0
TEXT
  5
1355
  8
0
  6
BYBLOCK
 62
     0
 10
52.295476000000001
 20
68.816346999999993
 30
0.0
 40
2.5
  1
2.5
 50
90.0
 41
0.72
  0
POINT
  5
1356
  8
DEFPOINTS
  6
BYBLOCK
 62
     0
 10
44.592976
 20
61.316347
 30
0.001526
  0
POINT
  5
1357
  8
DEFPOINTS
  6
BYBLOCK
 62
     0
 10
44.292976000000003
 20
63.816347
 30
0.001526
  0
POINT
  5
1358
  8
DEFPOINTS
  6
BYBLOCK
 62
     0
 10
53.295476000000001
 20
63.816347
 30
0.0
  0
ENDBLK
  5
1359
  8
0
  0
BLOCK
  8
0
  2
*D14
 70
     1
 10
0.0
 20
0.0
 30
0.0
  3
*D14
  1

  0
LINE
  5
135C
  8
0
  6
BYBLOCK
 10
80.936914999999999
 20
61.742280000000008
 30
0.0
 11
95.556691000000015
 21
61.742280000000008
 31
0.0
  0
LINE
  5
135D
  8
0
  6
BYBLOCK
 10
80.936914999999999
 20
63.121524999999991
 30
0.0
 11
95.556691000000015
 21
63.121524999999991
 31
0.0
  0
LINE
  5
135E
  8
0
  6
BYBLOCK
 10
94.556690999999987
 20
59.742280000000001
 30
0.0
 11
94.556690999999987
 21
57.742280000000001
 31
0.0
  0
LINE
  5
135F
  8
0
  6
BYBLOCK
 10
94.556690999999987
 20
65.121525000000005
 30
0.0
 11
94.556690999999987
 21
69.721524999999986
 31
0.0
  0
LINE
  5
1360
  8
0
  6
BYBLOCK
 10
94.556690999999987
 20
61.742280000000008
 30
0.0
 11
94.556690999999987
 21
63.121524999999991
 31
0.0
  0
SOLID
  5
1361
  8
0
  6
BYBLOCK
 10
94.223358000000005
 20
59.742280000000001
 30
0.0
 11
94.890023999999997
 21
59.742280000000001
 31
0.0
 12
94.556690999999987
 22
61.742280000000008
 32
0.0
 13
94.556690999999987
 23
61.742280000000008
 33
0.0
  0
SOLID
  5
1362
  8
0
  6
BYBLOCK
 10
94.223358000000005
 20
65.121525000000005
 30
0.0
 11
94.890023999999997
 21
65.121525000000005
 31
0.0
 12
94.556690999999987
 22
63.121524999999991
 32
0.0
 13
94.556690999999987
 23
63.121524999999991
 33
0.0
  0
TEXT
  5
1363
  8
0
  6
BYBLOCK
 62
     0
 10
93.556691000000001
 20
68.121525000000005
 30
0.0
 40
2.5
  1
1
 50
90.0
 41
0.72
  0
POINT
  5
1364
  8
DEFPOINTS
  6
BYBLOCK
 62
     0
 10
79.936914999999999
 20
61.742280000000008
 30
0.001526
  0
POINT
  5
1365
  8
DEFPOINTS
  6
BYBLOCK
 62
     0
 10
79.936914999999999
 20
63.121524999999991
 30
0.001526
  0
POINT
  5
1366
  8
DEFPOINTS
  6
BYBLOCK
 62
     0
 10
94.556690999999987
 20
63.121524999999991
 30
0.0
  0
ENDBLK
  5
1367
  8
0
  0
BLOCK
  8
0
  2
*D15
 70
     1
 10
0.0
 20
0.0
 30
0.0
  3
*D15
  1

  0
LINE
  5
136A
  8
0
  6
BYBLOCK
 10
82.575842000000009
 20
62.181902999999991
 30
0.0
 11
89.772705999999999
 21
62.181902999999991
 31
0.0
  0
LINE
  5
136B
  8
0
  6
BYBLOCK
 10
82.575842000000009
 20
62.681902999999998
 30
0.0
 11
89.772705999999999
 21
62.681902999999998
 31
0.0
  0
LINE
  5
136C
  8
0
  6
BYBLOCK
 10
88.772706000000014
 20
60.181902999999998
 30
0.0
 11
88.772706000000014
 21
58.181903000000013
 31
0.0
  0
LINE
  5
136D
  8
0
  6
BYBLOCK
 10
88.772706000000014
 20
64.681903000000005
 30
0.0
 11
88.772706000000014
 21
71.981903000000003
 31
0.0
  0
LINE
  5
136E
  8
0
  6
BYBLOCK
 10
88.772706000000014
 20
62.181902999999991
 30
0.0
 11
88.772706000000014
 21
62.681902999999998
 31
0.0
  0
SOLID
  5
136F
  8
0
  6
BYBLOCK
 10
88.439371999999963
 20
60.181902999999998
 30
0.0
 11
89.106038999999981
 21
60.181902999999998
 31
0.0
 12
88.772706000000014
 22
62.181902999999991
 32
0.0
 13
88.772706000000014
 23
62.181902999999991
 33
0.0
  0
SOLID
  5
1370
  8
0
  6
BYBLOCK
 10
88.439371999999963
 20
64.681903000000005
 30
0.0
 11
89.106038999999981
 21
64.681903000000005
 31
0.0
 12
88.772706000000014
 22
62.681902999999998
 32
0.0
 13
88.772706000000014
 23
62.681902999999998
 33
0.0
  0
TEXT
  5
1371
  8
0
  6
BYBLOCK
 62
     0
 10
87.772705999999985
 20
67.681903000000005
 30
0.0
 40
2.5
  1
0.5
 50
90.0
 41
0.72
  0
POINT
  5
1372
  8
DEFPOINTS
  6
BYBLOCK
 62
     0
 10
81.57584199999998
 20
62.181902999999991
 30
0.001526
  0
POINT
  5
1373
  8
DEFPOINTS
  6
BYBLOCK
 62
     0
 10
81.57584199999998
 20
62.681902999999998
 30
0.001526
  0
POINT
  5
1374
  8
DEFPOINTS
  6
BYBLOCK
 62
     0
 10
88.772706000000014
 20
62.681902999999998
 30
0.0
  0
ENDBLK
  5
1375
  8
0
  0
BLOCK
  8
0
  2
*D16
 70
     1
 10
0.0
 20
0.0
 30
0.0
  3
*D16
  1

  0
LINE
  5
1378
  8
0
  6
BYBLOCK
 10
121.4063249999999
 20
61.566347
 30
0.0
 11
129.208077
 21
61.566347
 31
0.0
  0
LINE
  5
1379
  8
0
  6
BYBLOCK
 10
121.4063249999999
 20
63.566347
 30
0.0
 11
129.208077
 21
63.566347
 31
0.0
  0
LINE
  5
137A
  8
0
  6
BYBLOCK
 10
128.208077
 20
59.566347
 30
0.0
 11
128.208077
 21
57.566347
 31
0.0
  0
LINE
  5
137B
  8
0
  6
BYBLOCK
 10
128.208077
 20
65.566346999999993
 30
0.0
 11
128.208077
 21
70.766346999999996
 31
0.0
  0
LINE
  5
137C
  8
0
  6
BYBLOCK
 10
128.208077
 20
61.566347
 30
0.0
 11
128.208077
 21
63.566347
 31
0.0
  0
SOLID
  5
137D
  8
0
  6
BYBLOCK
 10
127.8747429999999
 20
59.566347
 30
0.0
 11
128.54141000000001
 21
59.566347
 31
0.0
 12
128.208077
 22
61.566347
 32
0.0
 13
128.208077
 23
61.566347
 33
0.0
  0
SOLID
  5
137E
  8
0
  6
BYBLOCK
 10
127.8747429999999
 20
65.566346999999993
 30
0.0
 11
128.54141000000001
 21
65.566346999999993
 31
0.0
 12
128.208077
 22
63.566347
 32
0.0
 13
128.208077
 23
63.566347
 33
0.0
  0
TEXT
  5
137F
  8
0
  6
BYBLOCK
 62
     0
 10
127.208077
 20
68.566346999999993
 30
0.0
 40
2.5
  1
2
 50
90.0
 41
0.72
  0
POINT
  5
1380
  8
DEFPOINTS
  6
BYBLOCK
 62
     0
 10
120.4063249999999
 20
61.566347
 30
0.001526
  0
POINT
  5
1381
  8
DEFPOINTS
  6
BYBLOCK
 62
     0
 10
120.4063249999999
 20
63.566347
 30
0.001526
  0
POINT
  5
1382
  8
DEFPOINTS
  6
BYBLOCK
 62
     0
 10
128.208077
 20
63.566347
 30
0.0
  0
ENDBLK
  5
1383
  8
0
  0
ENDSEC
  0
SECTION
  2
ENTITIES
  0
TEXT
  5
1384
  8
DIM
 10
121.87960699999999
 20
76.187839999999994
 30
0.001526
 40
2.5
  1
M12P1
 41
0.72
  0
SOLID
  5
1385
  8
DIM
 10
112.07298299999989
 20
93.525366000000005
 30
0.001526
 11
111.58893500000001
 21
93.317963999999989
 31
0.001526
 12
111.043273
 22
95.260019999999997
 32
0.001526
 13
111.043273
 23
95.260019999999997
 33
0.001526
  0
SOLID
  5
1386
  8
DIM
 10
114.73968000000001
 20
85.964543000000006
 30
0.001526
 11
115.22372799999999
 21
86.17194499999998
 31
0.001526
 12
115.7693899999999
 22
84.229888000000003
 32
0.001526
 13
115.7693899999999
 23
84.229888000000003
 33
0.001526
  0
LINE
  5
1387
  8
DIM
 10
111.043273
 20
95.260019999999997
 30
0.001526
 11
119.42943
 21
75.68783999999998
 31
0.001526
  0
LINE
  5
1388
  8
DIM
 10
119.42943
 20
75.68783999999998
 30
0.001526
 11
130.7772579999999
 21
75.68783999999998
 31
0.001526
  0
TEXT
  5
1389
  8
DIM
 10
42.516708000000001
 20
76.187839999999994
 30
0.001526
 40
2.5
  1
M12P1
 41
0.72
  0
SOLID
  5
138A
  8
DIM
 10
34.157761000000001
 20
97.230333000000002
 30
0.001526
 11
34.656098
 21
97.400561999999994
 31
0.001526
 12
35.053440999999999
 22
95.422824000000006
 32
0.001526
 13
35.053440999999999
 23
95.422824000000006
 33
0.001526
  0
SOLID
  5
138B
  8
DIM
 10
39.828189999999999
 20
82.259575999999996
 30
0.001526
 11
39.329853
 21
82.089345999999964
 31
0.001526
 12
38.932510000000001
 22
84.067084999999977
 32
0.001526
 13
38.932510000000001
 23
84.067084999999977
 33
0.001526
  0
LINE
  5
138C
  8
DIM
 10
33.841231999999991
 20
98.971493000000024
 30
0.001526
 11
41.794821999999982
 21
75.68783999999998
 31
0.001526
  0
LINE
  5
138D
  8
DIM
 10
41.794821999999982
 20
75.68783999999998
 30
0.001526
 11
51.224446999999991
 21
75.68783999999998
 31
0.001526
  0
SOLID
  5
138E
  8
DIM
 10
76.903809999999979
 20
153.43475699999991
 30
0.001526
 11
76.407583000000002
 21
153.61104299999991
 31
0.001526
 12
77.325210999999982
 22
155.40750899999981
 32
0.001526
 13
77.325210999999982
 23
155.40750899999981
 33
0.001526
  0
SOLID
  5
138F
  8
DIM
 10
16.427779999999991
 20
161.144204
 30
0.001526
 11
16.427779999999991
 21
161.67081399999981
 31
0.001526
 12
18.427779999999998
 22
161.407509
 32
0.001526
 13
18.427779999999998
 23
161.407509
 33
0.001526
  0
SOLID
  5
1390
  8
DIM
 10
75.073481999999998
 20
168.90489299999999
 30
0.001526
 11
75.507092
 21
169.20372399999991
 31
0.001526
 12
76.425211000000004
 22
167.407509
 32
0.001526
 13
76.425211000000004
 23
167.407509
 33
0.001526
  0
SOLID
  5
1391
  8
DIM
 10
111.005487
 20
147.68822800000001
 30
0.001526
 11
110.55864800000001
 21
147.4095649999999
 31
0.001526
 12
109.7237389999999
 22
149.245935
 32
0.001526
 13
109.7237389999999
 23
149.245935
 33
0.001526
  0
LINE
  5
1392
  8
GAIKEI
  6
CONTINUOUS
 10
140.17512600000001
 20
157.657509
 30
0.001526
 11
140.17512600000001
 21
165.157509
 31
0.001526
  0
LINE
  5
1393
  8
GAIKEI
  6
CONTINUOUS
 10
137.550318
 20
146.507509
 30
0.001526
 11
140.79993300000001
 21
146.507509
 31
0.001526
  0
LINE
  5
1394
  8
GAIKEI
  6
CONTINUOUS
 10
137.550318
 20
150.30750900000001
 30
0.001526
 11
140.79993300000001
 21
150.30750900000001
 31
0.001526
  0
LINE
  5
1395
  8
GAIKEI
  6
CONTINUOUS
 10
105.675211
 20
155.40750899999981
 30
0.001526
 11
105.675211
 21
151.57739499999991
 31
0.001526
  0
LINE
  5
1396
  8
GAIKEI
  6
CONTINUOUS
 10
104.975211
 20
155.40750899999981
 30
0.001526
 11
105.675211
 21
155.40750899999981
 31
0.001526
  0
LINE
  5
1397
  8
GAIKEI
  6
CONTINUOUS
 10
104.975211
 20
157.907509
 30
0.001526
 11
104.975211
 21
155.40750899999981
 31
0.001526
  0
LINE
  5
1398
  8
GAIKEI
  6
CONTINUOUS
 10
105.675211
 20
157.907509
 30
0.001526
 11
105.675211
 21
155.40750899999981
 31
0.001526
  0
LINE
  5
1399
  8
GAIKEI
  6
CONTINUOUS
 10
105.675211
 20
157.907509
 30
0.001526
 11
104.975211
 21
157.907509
 31
0.001526
  0
LINE
  5
139A
  8
GAIKEI
  6
CONTINUOUS
 10
129.87512599999991
 20
155.40750899999981
 30
0.001526
 11
129.87512599999991
 21
152.33470299999999
 31
0.001526
  0
LINE
  5
139B
  8
GAIKEI
  6
CONTINUOUS
 10
130.87512599999991
 20
155.40750899999981
 30
0.001526
 11
129.87512599999991
 21
155.40750899999981
 31
0.001526
  0
LINE
  5
139C
  8
GAIKEI
  6
CONTINUOUS
 10
130.87512599999991
 20
157.907509
 30
0.001526
 11
130.87512599999991
 21
155.40750899999981
 31
0.001526
  0
LINE
  5
139D
  8
GAIKEI
  6
CONTINUOUS
 10
129.87512599999991
 20
157.907509
 30
0.001526
 11
129.87512599999991
 21
155.40750899999981
 31
0.001526
  0
LINE
  5
139E
  8
GAIKEI
  6
CONTINUOUS
 10
129.87512599999991
 20
157.907509
 30
0.001526
 11
130.87512599999991
 21
157.907509
 31
0.001526
  0
LINE
  5
139F
  8
GAIKEI
  6
CONTINUOUS
 10
81.57584199999998
 20
62.681902999999998
 30
0.001526
 11
81.57584199999998
 21
62.181902999999991
 31
0.001526
  0
LINE
  5
13A0
  8
GAIKEI
  6
CONTINUOUS
 10
74.650598000000002
 20
63.139855000000011
 30
0.001526
 11
74.713676000000007
 21
62.681902999999998
 31
0.001526
  0
LINE
  5
13A1
  8
GAIKEI
  6
CONTINUOUS
 10
72.601085999999981
 20
61.723950000000002
 30
0.001526
 11
72.538007999999977
 21
62.181902999999991
 31
0.001526
  0
LINE
  5
13A2
  8
GAIKEI
  6
CONTINUOUS
 10
77.895882
 20
63.129587000000001
 30
0.001526
 11
77.964100999999999
 21
62.681902999999998
 31
0.001526
  0
LINE
  5
13A3
  8
GAIKEI
  6
CONTINUOUS
 10
76.164939000000004
 20
61.73421900000001
 30
0.001526
 11
76.096719999999976
 21
62.181902999999991
 31
0.001526
  0
LINE
  5
13A4
  8
GAIKEI
  6
CONTINUOUS
 10
79.936914999999999
 20
63.121524999999991
 30
0.001526
 11
80.033792000000005
 21
62.681902999999998
 31
0.001526
  0
LINE
  5
13A5
  8
GAIKEI
  6
CONTINUOUS
 10
78.848764000000003
 20
61.742280000000008
 30
0.001526
 11
78.751886999999982
 21
62.181902999999991
 31
0.001526
  0
LINE
  5
13A6
  8
GAIKEI
  6
CONTINUOUS
 10
79.936914999999999
 20
63.121524999999991
 30
0.001526
 11
80.434980000000024
 21
62.681902999999998
 31
0.001526
  0
LINE
  5
13A7
  8
GAIKEI
  6
CONTINUOUS
 10
72.601085999999981
 20
63.139855000000011
 30
0.001526
 11
73.655965000000023
 21
62.681902999999998
 31
0.001526
  0
LINE
  5
13A8
  8
GAIKEI
  6
CONTINUOUS
 10
74.650598000000002
 20
61.723950000000002
 30
0.001526
 11
73.625842000000006
 21
62.174537000000001
 31
0.001526
  0
LINE
  5
13A9
  8
GAIKEI
  6
CONTINUOUS
 10
76.164939000000004
 20
63.129587000000001
 30
0.001526
 11
77.064210000000003
 21
62.681902999999998
 31
0.001526
  0
LINE
  5
13AA
  8
GAIKEI
  6
CONTINUOUS
 10
77.895882
 20
61.73421900000001
 30
0.001526
 11
76.996611999999999
 21
62.181902999999991
 31
0.001526
  0
LINE
  5
13AB
  8
GAIKEI
  6
CONTINUOUS
 10
78.848764000000003
 20
63.121524999999991
 30
0.001526
 11
79.441463999999982
 21
62.681902999999998
 31
0.001526
  0
LINE
  5
13AC
  8
GAIKEI
  6
CONTINUOUS
 10
79.936914999999999
 20
61.742280000000008
 30
0.001526
 11
79.349318000000025
 21
62.179840000000013
 31
0.001526
  0
LINE
  5
13AD
  8
GAIKEI
  6
CONTINUOUS
 10
80.434980000000024
 20
62.181902999999991
 30
0.001526
 11
79.936914999999999
 21
61.742280000000008
 31
0.001526
  0
LINE
  5
13AE
  8
GAIKEI
  6
CONTINUOUS
 10
81.57584199999998
 20
62.681902999999998
 30
0.001526
 11
73.572400999999999
 21
62.681902999999998
 31
0.001526
  0
LINE
  5
13AF
  8
GAIKEI
  6
CONTINUOUS
 10
73.625842000000006
 20
62.174537000000001
 30
0.001526
 11
72.601085999999981
 21
61.723950000000002
 31
0.001526
  0
LINE
  5
13B0
  8
GAIKEI
  6
CONTINUOUS
 10
79.344215000000005
 20
62.681902999999998
 30
0.001526
 11
79.936914999999999
 21
63.121524999999991
 31
0.001526
  0
LINE
  5
13B1
  8
GAIKEI
  6
CONTINUOUS
 10
80.033214000000001
 20
62.18047399999999
 30
0.001526
 11
79.936914999999999
 21
61.742280000000008
 31
0.001526
  0
LINE
  5
13B2
  8
GAIKEI
  6
CONTINUOUS
 10
79.441463999999982
 20
62.181902999999991
 30
0.001526
 11
78.848764000000003
 21
61.742280000000008
 31
0.001526
  0
LINE
  5
13B3
  8
GAIKEI
  6
CONTINUOUS
 10
78.751886999999982
 20
62.681902999999998
 30
0.001526
 11
78.848764000000003
 21
63.121524999999991
 31
0.001526
  0
LINE
  5
13B4
  8
GAIKEI
  6
CONTINUOUS
 10
77.963178999999982
 20
62.178556
 30
0.001526
 11
77.895882
 21
61.73421900000001
 31
0.001526
  0
LINE
  5
13B5
  8
GAIKEI
  6
CONTINUOUS
 10
76.996611999999999
 20
62.681902999999998
 30
0.001526
 11
77.895882
 21
63.129587000000001
 31
0.001526
  0
LINE
  5
13B6
  8
GAIKEI
  6
CONTINUOUS
 10
76.096719999999976
 20
62.681902999999998
 30
0.001526
 11
76.164939000000004
 21
63.129587000000001
 31
0.001526
  0
LINE
  5
13B7
  8
GAIKEI
  6
CONTINUOUS
 10
77.064210000000003
 20
62.181902999999991
 30
0.001526
 11
76.164939000000004
 21
61.73421900000001
 31
0.001526
  0
LINE
  5
13B8
  8
GAIKEI
  6
CONTINUOUS
 10
81.57584199999998
 20
62.181902999999991
 30
0.001526
 11
73.625842000000006
 21
62.181902999999991
 31
0.001526
  0
LINE
  5
13B9
  8
GAIKEI
  6
CONTINUOUS
 10
74.713676000000007
 20
62.181902999999991
 30
0.001526
 11
74.650598000000002
 21
61.723950000000002
 31
0.001526
  0
LINE
  5
13BA
  8
GAIKEI
  6
CONTINUOUS
 10
73.595718999999974
 20
62.681902999999998
 30
0.001526
 11
74.650598000000002
 21
63.139855000000011
 31
0.001526
  0
LINE
  5
13BB
  8
GAIKEI
  6
CONTINUOUS
 10
72.538007999999977
 20
62.681902999999998
 30
0.001526
 11
72.601085999999981
 21
63.139855000000011
 31
0.001526
  0
LINE
  5
13BC
  8
GAIKEI
  6
CONTINUOUS
 10
65.675842000000003
 20
62.181902999999991
 30
0.001526
 11
65.675842000000003
 21
62.681902999999998
 31
0.001526
  0
LINE
  5
13BD
  8
GAIKEI
  6
CONTINUOUS
 10
69.287582
 20
62.681902999999998
 30
0.001526
 11
69.355801
 21
63.129587000000001
 31
0.001526
  0
LINE
  5
13BE
  8
GAIKEI
  6
CONTINUOUS
 10
71.154962999999995
 20
62.181902999999991
 30
0.001526
 11
71.086743999999996
 21
61.73421900000001
 31
0.001526
  0
LINE
  5
13BF
  8
GAIKEI
  6
CONTINUOUS
 10
67.217892000000006
 20
62.681902999999998
 30
0.001526
 11
67.314768999999998
 21
63.121524999999991
 31
0.001526
  0
LINE
  5
13C0
  8
GAIKEI
  6
CONTINUOUS
 10
68.499795999999989
 20
62.181902999999991
 30
0.001526
 11
68.402918999999997
 21
61.742280000000008
 31
0.001526
  0
LINE
  5
13C1
  8
GAIKEI
  6
CONTINUOUS
 10
66.816704000000001
 20
62.681902999999998
 30
0.001526
 11
67.314768999999998
 21
63.121524999999991
 31
0.001526
  0
LINE
  5
13C2
  8
GAIKEI
  6
CONTINUOUS
 10
70.187473999999995
 20
62.681902999999998
 30
0.001526
 11
71.086743999999996
 21
63.129587000000001
 31
0.001526
  0
LINE
  5
13C3
  8
GAIKEI
  6
CONTINUOUS
 10
70.255071999999984
 20
62.181902999999991
 30
0.001526
 11
69.355801
 21
61.73421900000001
 31
0.001526
  0
LINE
  5
13C4
  8
GAIKEI
  6
CONTINUOUS
 10
67.810220000000001
 20
62.681902999999998
 30
0.001526
 11
68.402918999999997
 21
63.121524999999991
 31
0.001526
  0
LINE
  5
13C5
  8
GAIKEI
  6
CONTINUOUS
 10
67.902366000000001
 20
62.179840000000013
 30
0.001526
 11
67.314768999999998
 21
61.742280000000008
 31
0.001526
  0
LINE
  5
13C6
  8
GAIKEI
  6
CONTINUOUS
 10
67.314768999999998
 20
61.742280000000008
 30
0.001526
 11
66.816704000000001
 21
62.181902999999991
 31
0.001526
  0
LINE
  5
13C7
  8
GAIKEI
  6
CONTINUOUS
 10
67.314768999999998
 20
63.121524999999991
 30
0.001526
 11
67.907468999999992
 21
62.681902999999998
 31
0.001526
  0
LINE
  5
13C8
  8
GAIKEI
  6
CONTINUOUS
 10
67.314768999999998
 20
61.742280000000008
 30
0.001526
 11
67.218469999999996
 21
62.18047399999999
 31
0.001526
  0
LINE
  5
13C9
  8
GAIKEI
  6
CONTINUOUS
 10
68.402918999999997
 20
61.742280000000008
 30
0.001526
 11
67.810220000000001
 21
62.181902999999991
 31
0.001526
  0
LINE
  5
13CA
  8
GAIKEI
  6
CONTINUOUS
 10
68.402918999999997
 20
63.121524999999991
 30
0.001526
 11
68.499795999999989
 21
62.681902999999998
 31
0.001526
  0
LINE
  5
13CB
  8
GAIKEI
  6
CONTINUOUS
 10
69.355801
 20
61.73421900000001
 30
0.001526
 11
69.288504000000003
 21
62.178556
 31
0.001526
  0
LINE
  5
13CC
  8
GAIKEI
  6
CONTINUOUS
 10
69.355801
 20
63.129587000000001
 30
0.001526
 11
70.255071999999984
 21
62.681902999999998
 31
0.001526
  0
LINE
  5
13CD
  8
GAIKEI
  6
CONTINUOUS
 10
71.086743999999996
 20
63.129587000000001
 30
0.001526
 11
71.154962999999995
 21
62.681902999999998
 31
0.001526
  0
LINE
  5
13CE
  8
GAIKEI
  6
CONTINUOUS
 10
71.086743999999996
 20
61.73421900000001
 30
0.001526
 11
70.187473999999995
 21
62.181902999999991
 31
0.001526
  0
LINE
  5
13CF
  8
GAIKEI
  6
CONTINUOUS
 10
73.679282000000001
 20
62.681902999999998
 30
0.001526
 11
65.675842000000003
 21
62.681902999999998
 31
0.001526
  0
LINE
  5
13D0
  8
GAIKEI
  6
CONTINUOUS
 10
73.625842000000006
 20
62.181902999999991
 30
0.001526
 11
65.675842000000003
 21
62.181902999999991
 31
0.001526
  0
LINE
  5
13D1
  8
CENTER
 10
73.625842000000006
 20
63.721356999999998
 30
0.001526
 11
73.625842000000006
 21
61.155501999999998
 31
0.001526
  0
LINE
  5
13D2
  8
GAIKEI
  6
CONTINUOUS
 10
121.48923600000001
 20
89.744954000000007
 30
0.001526
 11
117.447784
 21
96.744954000000007
 31
0.001526
  0
LINE
  5
13D3
  8
GAIKEI
  6
CONTINUOUS
 10
117.447784
 20
96.744954000000007
 30
0.001526
 11
109.3648799999999
 21
96.744954000000007
 31
0.001526
  0
LINE
  5
13D4
  8
GAIKEI
  6
CONTINUOUS
 10
109.3648799999999
 20
96.744954000000007
 30
0.001526
 11
105.32342800000001
 21
89.744954000000007
 31
0.001526
  0
LINE
  5
13D5
  8
GAIKEI
  6
CONTINUOUS
 10
105.32342800000001
 20
89.744954000000007
 30
0.001526
 11
109.3648799999999
 21
82.744954000000007
 31
0.001526
  0
LINE
  5
13D6
  8
GAIKEI
  6
CONTINUOUS
 10
109.3648799999999
 20
82.744954000000007
 30
0.001526
 11
117.447784
 21
82.744954000000007
 31
0.001526
  0
LINE
  5
13D7
  8
GAIKEI
  6
CONTINUOUS
 10
117.447784
 20
82.744954000000007
 30
0.001526
 11
121.48923600000001
 21
89.744954000000007
 31
0.001526
  0
LINE
  5
13D8
  8
GAIKEI
  6
CONTINUOUS
 10
105.323436
 20
62.941132999999986
 30
0.001526
 11
106.4063389999998
 21
63.566347
 31
0.001526
  0
LINE
  5
13D9
  8
GAIKEI
  6
CONTINUOUS
 10
106.4063389999998
 20
63.566347
 30
0.001526
 11
120.4063249999999
 21
63.566347
 31
0.001526
  0
LINE
  5
13DA
  8
GAIKEI
  6
CONTINUOUS
 10
120.4063249999999
 20
63.566347
 30
0.001526
 11
121.4892269999999
 21
62.941132999999986
 31
0.001526
  0
LINE
  5
13DB
  8
CENTER
 10
113.40633200000001
 20
59.221905000000007
 30
0.001526
 11
113.40633200000001
 21
65.51079
 31
0.001526
  0
LINE
  5
13DC
  8
GAIKEI
  6
CONTINUOUS
 10
106.4063389999998
 20
61.566347
 30
0.001526
 11
105.323436
 21
62.191561
 31
0.001526
  0
LINE
  5
13DD
  8
GAIKEI
  6
CONTINUOUS
 10
120.4063249999999
 20
61.566347
 30
0.001526
 11
106.4063389999998
 21
61.566347
 31
0.001526
  0
LINE
  5
13DE
  8
GAIKEI
  6
CONTINUOUS
 10
121.4892269999999
 20
62.191561
 30
0.001526
 11
120.4063249999999
 21
61.566347
 31
0.001526
  0
LINE
  5
13DF
  8
GAIKEI
  6
CONTINUOUS
 10
117.44777999999999
 20
62.941132999999986
 30
0.001526
 11
117.44777999999999
 21
62.191561
 31
0.001526
  0
LINE
  5
13E0
  8
GAIKEI
  6
CONTINUOUS
 10
109.3648839999999
 20
62.941132999999986
 30
0.001526
 11
109.3648839999999
 21
62.191561
 31
0.001526
  0
LINE
  5
13E1
  8
GAIKEI
  6
CONTINUOUS
 10
105.323436
 20
62.941132999999986
 30
0.001526
 11
105.323436
 21
62.191561
 31
0.001526
  0
LINE
  5
13E2
  8
CENTER
 10
73.625842000000006
 20
89.744954000000007
 30
0.001526
 11
73.625842000000006
 21
98.646870000000007
 31
0.001526
  0
LINE
  5
13E3
  8
CENTER
 10
73.625842000000006
 20
89.744954000000007
 30
0.001526
 11
73.625842000000006
 21
80.544595000000001
 31
0.001526
  0
LINE
  5
13E4
  8
CENTER
 10
73.625842000000006
 20
89.744954000000007
 30
0.001526
 11
64.220050000000001
 21
89.744954000000007
 31
0.001526
  0
LINE
  5
13E5
  8
CENTER
 10
73.625842000000006
 20
89.744954000000007
 30
0.001526
 11
82.592507999999981
 21
89.744954000000007
 31
0.001526
  0
LINE
  5
13E6
  8
CENTER
 10
113.40633200000001
 20
89.744954000000007
 30
0.001526
 11
123.32349000000001
 21
89.744954000000007
 31
0.001526
  0
LINE
  5
13E7
  8
CENTER
 10
113.40633200000001
 20
89.744954000000007
 30
0.001526
 11
103.780237
 21
89.744954000000007
 31
0.001526
  0
LINE
  5
13E8
  8
CENTER
 10
113.40633200000001
 20
89.744954000000007
 30
0.001526
 11
113.40633200000001
 21
98.196123000000014
 31
0.001526
  0
LINE
  5
13E9
  8
CENTER
 10
113.40633200000001
 20
89.744954000000007
 30
0.001526
 11
113.40633200000001
 21
80.943120999999977
 31
0.001526
  0
LINE
  5
13EA
  8
GAIKEI
  6
CONTINUOUS
 10
121.4892269999999
 20
62.941132999999986
 30
0.001526
 11
121.4892269999999
 21
62.191561
 31
0.001526
  0
LINE
  5
13EB
  8
CENTER
 10
36.992975999999992
 20
82.144953999999998
 30
0.001526
 11
36.992975999999992
 21
97.344954000000001
 31
0.001526
  0
LINE
  5
13EC
  8
CENTER
 10
36.992975999999992
 20
97.344954000000001
 30
0.001526
 11
36.992975999999992
 21
99.344954000000016
 31
0.001526
  0
LINE
  5
13ED
  8
CENTER
 10
36.992975999999992
 20
65.816346999999993
 30
0.001526
 11
36.992975999999992
 21
59.316347
 31
0.001526
  0
LINE
  5
13EE
  8
CENTER
 10
46.592976
 20
89.744954000000007
 30
0.001526
 11
27.392976000000001
 21
89.744954000000007
 31
0.001526
  0
LINE
  5
13EF
  8
CENTER
 10
36.992975999999992
 20
80.144953999999984
 30
0.001526
 11
36.992975999999992
 21
82.144953999999998
 31
0.001526
  0
LINE
  5
13F0
  8
GAIKEI
  6
CONTINUOUS
 10
29.692976000000002
 20
63.816347
 30
0.001526
 11
29.392976000000001
 21
63.516346999999989
 31
0.001526
  0
LINE
  5
13F1
  8
GAIKEI
  6
CONTINUOUS
 10
29.392976000000001
 20
63.516346999999989
 30
0.001526
 11
29.392976000000001
 21
61.316347
 31
0.001526
  0
LINE
  5
13F2
  8
GAIKEI
  6
CONTINUOUS
 10
29.732976000000001
 20
63.34634699999998
 30
0.001526
 11
29.732976000000001
 21
61.316347
 31
0.001526
  0
LINE
  5
13F3
  8
GAIKEI
  6
CONTINUOUS
 10
30.062975999999988
 20
63.351346999999997
 30
0.001526
 11
30.062975999999988
 21
61.316347
 31
0.001526
  0
LINE
  5
13F4
  8
GAIKEI
  6
CONTINUOUS
 10
30.392976000000001
 20
63.351346999999997
 30
0.001526
 11
30.392976000000001
 21
61.316347
 31
0.001526
  0
LINE
  5
13F5
  8
GAIKEI
  6
CONTINUOUS
 10
30.792975999999999
 20
63.316347
 30
0.001526
 11
30.792975999999999
 21
61.316347
 31
0.001526
  0
LINE
  5
13F6
  8
GAIKEI
  6
CONTINUOUS
 10
31.192976000000002
 20
63.316347
 30
0.001526
 11
31.192976000000002
 21
61.316347
 31
0.001526
  0
LINE
  5
13F7
  8
GAIKEI
  6
CONTINUOUS
 10
31.592976
 20
63.316347
 30
0.001526
 11
31.592976
 21
61.316347
 31
0.001526
  0
LINE
  5
13F8
  8
GAIKEI
  6
CONTINUOUS
 10
32.092976
 20
63.266346999999989
 30
0.001526
 11
32.092976
 21
61.316347
 31
0.001526
  0
LINE
  5
13F9
  8
GAIKEI
  6
CONTINUOUS
 10
32.592976
 20
63.266346999999989
 30
0.001526
 11
32.592976
 21
61.316347
 31
0.001526
  0
LINE
  5
13FA
  8
GAIKEI
  6
CONTINUOUS
 10
33.092976
 20
63.266346999999989
 30
0.001526
 11
33.092976
 21
61.316347
 31
0.001526
  0
LINE
  5
13FB
  8
GAIKEI
  6
CONTINUOUS
 10
33.89297599999999
 20
63.216346999999999
 30
0.001526
 11
33.89297599999999
 21
61.316347
 31
0.001526
  0
LINE
  5
13FC
  8
GAIKEI
  6
CONTINUOUS
 10
34.692976000000002
 20
63.216346999999999
 30
0.001526
 11
34.692976000000002
 21
61.316347
 31
0.001526
  0
LINE
  5
13FD
  8
GAIKEI
  6
CONTINUOUS
 10
35.492975999999999
 20
63.216346999999999
 30
0.001526
 11
35.492975999999999
 21
61.316347
 31
0.001526
  0
LINE
  5
13FE
  8
GAIKEI
  6
CONTINUOUS
 10
43.192976000000002
 20
63.316347
 30
0.001526
 11
43.192976000000002
 21
61.316347
 31
0.001526
  0
LINE
  5
13FF
  8
GAIKEI
  6
CONTINUOUS
 10
44.25297599999999
 20
63.34634699999998
 30
0.001526
 11
44.25297599999999
 21
61.316347
 31
0.001526
  0
LINE
  5
1400
  8
GAIKEI
  6
CONTINUOUS
 10
43.922975999999998
 20
63.351346999999997
 30
0.001526
 11
43.922975999999998
 21
61.316347
 31
0.001526
  0
LINE
  5
1401
  8
GAIKEI
  6
CONTINUOUS
 10
43.592976
 20
63.351346999999997
 30
0.001526
 11
43.592976
 21
61.316347
 31
0.001526
  0
LINE
  5
1402
  8
GAIKEI
  6
CONTINUOUS
 10
42.792976000000003
 20
63.316347
 30
0.001526
 11
42.792976000000003
 21
61.316347
 31
0.001526
  0
LINE
  5
1403
  8
GAIKEI
  6
CONTINUOUS
 10
42.39297599999999
 20
63.316347
 30
0.001526
 11
42.39297599999999
 21
61.316347
 31
0.001526
  0
LINE
  5
1404
  8
GAIKEI
  6
CONTINUOUS
 10
41.89297599999999
 20
63.266346999999989
 30
0.001526
 11
41.89297599999999
 21
61.316347
 31
0.001526
  0
LINE
  5
1405
  8
GAIKEI
  6
CONTINUOUS
 10
41.39297599999999
 20
63.266346999999989
 30
0.001526
 11
41.39297599999999
 21
61.316347
 31
0.001526
  0
LINE
  5
1406
  8
GAIKEI
  6
CONTINUOUS
 10
40.892975999999997
 20
63.266346999999989
 30
0.001526
 11
40.892975999999997
 21
61.316347
 31
0.001526
  0
LINE
  5
1407
  8
GAIKEI
  6
CONTINUOUS
 10
40.092976
 20
63.216346999999999
 30
0.001526
 11
40.092976
 21
61.316347
 31
0.001526
  0
LINE
  5
1408
  8
GAIKEI
  6
CONTINUOUS
 10
39.292976000000003
 20
63.216346999999999
 30
0.001526
 11
39.292976000000003
 21
61.316347
 31
0.001526
  0
LINE
  5
1409
  8
GAIKEI
  6
CONTINUOUS
 10
38.492975999999992
 20
63.216346999999999
 30
0.001526
 11
38.492975999999992
 21
61.316347
 31
0.001526
  0
LINE
  5
140A
  8
GAIKEI
  6
CONTINUOUS
 10
36.492975999999999
 20
63.216346999999999
 30
0.001526
 11
36.492975999999999
 21
61.316347
 31
0.001526
  0
LINE
  5
140B
  8
GAIKEI
  6
CONTINUOUS
 10
37.492975999999999
 20
63.216346999999999
 30
0.001526
 11
37.492975999999999
 21
61.316347
 31
0.001526
  0
LINE
  5
140C
  8
GAIKEI
  6
CONTINUOUS
 10
44.292976000000003
 20
63.816347
 30
0.001526
 11
44.592976
 21
63.516346999999989
 31
0.001526
  0
LINE
  5
140D
  8
GAIKEI
  6
CONTINUOUS
 10
44.592976
 20
61.316347
 30
0.001526
 11
29.392976000000001
 21
61.316347
 31
0.001526
  0
LINE
  5
140E
  8
GAIKEI
  6
CONTINUOUS
 10
44.292976000000003
 20
63.816347
 30
0.001526
 11
29.692976000000002
 21
63.816347
 31
0.001526
  0
LINE
  5
140F
  8
GAIKEI
  6
CONTINUOUS
 10
44.592976
 20
63.516346999999989
 30
0.001526
 11
44.592976
 21
61.316347
 31
0.001526
  0
LINE
  5
1410
  8
GAIKEI
  6
CONTINUOUS
 10
133.17512600000001
 20
157.657509
 30
0.001526
 11
138.17512600000001
 21
157.657509
 31
0.001526
  0
LINE
  5
1411
  8
GAIKEI
  6
CONTINUOUS
 10
133.17512600000001
 20
155.657509
 30
0.001526
 11
138.17512600000001
 21
155.657509
 31
0.001526
  0
LINE
  5
1412
  8
GAIKEI
  6
CONTINUOUS
 10
138.17512600000001
 20
155.657509
 30
0.001526
 11
138.17512600000001
 21
151.407509
 31
0.001526
  0
LINE
  5
1413
  8
GAIKEI
  6
CONTINUOUS
 10
140.17512600000001
 20
155.657509
 30
0.001526
 11
140.17512600000001
 21
151.407509
 31
0.001526
  0
LINE
  5
1414
  8
GAIKEI
  6
CONTINUOUS
 10
140.17512600000001
 20
155.657509
 30
0.001526
 11
145.17512599999981
 21
155.657509
 31
0.001526
  0
LINE
  5
1415
  8
GAIKEI
  6
CONTINUOUS
 10
140.17512600000001
 20
157.657509
 30
0.001526
 11
145.17512599999981
 21
157.657509
 31
0.001526
  0
LINE
  5
1416
  8
GAIKEI
  6
CONTINUOUS
 10
140.17512600000001
 20
171.407509
 30
0.001526
 11
140.17512600000001
 21
167.157509
 31
0.001526
  0
LINE
  5
1417
  8
GAIKEI
  6
CONTINUOUS
 10
140.17512600000001
 20
167.157509
 30
0.001526
 11
145.17512599999981
 21
167.157509
 31
0.001526
  0
LINE
  5
1418
  8
GAIKEI
  6
CONTINUOUS
 10
140.17512600000001
 20
165.157509
 30
0.001526
 11
145.17512599999981
 21
165.157509
 31
0.001526
  0
LINE
  5
1419
  8
GAIKEI
  6
CONTINUOUS
 10
133.17512600000001
 20
165.157509
 30
0.001526
 11
138.17512600000001
 21
165.157509
 31
0.001526
  0
LINE
  5
141A
  8
GAIKEI
  6
CONTINUOUS
 10
138.17512600000001
 20
171.407509
 30
0.001526
 11
138.17512600000001
 21
167.157509
 31
0.001526
  0
LINE
  5
141B
  8
GAIKEI
  6
CONTINUOUS
 10
138.17512600000001
 20
165.157509
 30
0.001526
 11
138.17512600000001
 21
157.657509
 31
0.001526
  0
LINE
  5
141C
  8
GAIKEI
  6
CONTINUOUS
 10
133.17512600000001
 20
167.157509
 30
0.001526
 11
138.17512600000001
 21
167.157509
 31
0.001526
  0
LINE
  5
141D
  8
GAIKEI
  6
CONTINUOUS
 10
106.175211
 20
152.03625700000001
 30
0.001526
 11
105.675211
 21
152.03625700000001
 31
0.001526
  0
LINE
  5
141E
  8
GAIKEI
  6
CONTINUOUS
 10
106.175211
 20
170.778763
 30
0.001526
 11
105.675211
 21
170.778763
 31
0.001526
  0
LINE
  5
141F
  8
CENTER
 10
30.727779999999999
 20
177.907509
 30
0.001526
 11
30.727779999999999
 21
144.907509
 31
0.001526
  0
LINE
  5
1420
  8
CENTER
 10
38.027779999999993
 20
161.407509
 30
0.001526
 11
41.227779999999989
 21
161.407509
 31
0.001526
  0
LINE
  5
1421
  8
CENTER
 10
38.027779999999993
 20
161.407509
 30
0.001526
 11
41.227779999999989
 21
161.407509
 31
0.001526
  0
LINE
  5
1422
  8
GAIKEI
  6
CONTINUOUS
 10
105.675211
 20
163.60750899999999
 30
0.001526
 11
104.87521099999989
 21
163.60750899999999
 31
0.001526
  0
LINE
  5
1423
  8
GAIKEI
  6
CONTINUOUS
 10
105.675211
 20
163.8280899999998
 30
0.001526
 11
105.675211
 21
163.60750899999999
 31
0.001526
  0
LINE
  5
1424
  8
GAIKEI
  6
CONTINUOUS
 10
105.675211
 20
159.02808999999991
 30
0.001526
 11
105.675211
 21
159.2075089999999
 31
0.001526
  0
LINE
  5
1425
  8
GAIKEI
  6
CONTINUOUS
 10
105.675211
 20
159.2075089999999
 30
0.001526
 11
104.87521099999989
 21
159.2075089999999
 31
0.001526
  0
LINE
  5
1426
  8
GAIKEI
  6
CONTINUOUS
 10
105.87521099999989
 20
163.60750899999999
 30
0.001526
 11
105.675211
 21
163.60750899999999
 31
0.001526
  0
LINE
  5
1427
  8
GAIKEI
  6
CONTINUOUS
 10
105.87521099999989
 20
159.2075089999999
 30
0.001526
 11
105.675211
 21
159.2075089999999
 31
0.001526
  0
LINE
  5
1428
  8
GAIKEI
  6
CONTINUOUS
 10
106.074583
 20
163.80750900000001
 30
0.001526
 11
109.575211
 21
163.80750900000001
 31
0.001526
  0
LINE
  5
1429
  8
GAIKEI
  6
CONTINUOUS
 10
106.075211
 20
159.007509
 30
0.001526
 11
109.575211
 21
159.007509
 31
0.001526
  0
LINE
  5
142A
  8
CENTER
 10
41.227779999999989
 20
161.407509
 30
0.001526
 11
41.52778
 21
161.407509
 31
0.001526
  0
LINE
  5
142B
  8
CENTER
 10
81.428717999999989
 20
161.48029499999981
 30
0.001526
 11
51.684340999999982
 21
155.9675
 31
0.001526
  0
LINE
  5
142C
  8
CENTER
 10
51.684340999999982
 20
166.84751699999981
 30
0.001526
 11
81.428717999999989
 21
161.334723
 31
0.001526
  0
LINE
  5
142D
  8
CENTER
 10
58.175210999999997
 20
161.407509
 30
0.001526
 11
56.527780000000007
 21
161.407509
 31
0.001526
  0
LINE
  5
142E
  8
CENTER
 10
112.3751259999999
 20
161.407509
 30
0.001526
 11
58.175210999999997
 21
161.407509
 31
0.001526
  0
LINE
  5
142F
  8
GAIKEI
  6
CONTINUOUS
 10
106.37521099999999
 20
170.449183
 30
0.001526
 11
106.37521099999999
 21
171.03762399999991
 31
0.001526
  0
LINE
  5
1430
  8
GAIKEI
  6
CONTINUOUS
 10
106.175211
 20
171.23762400000001
 30
0.001526
 11
104.893449
 21
171.23762400000001
 31
0.001526
  0
LINE
  5
1431
  8
GAIKEI
  6
CONTINUOUS
 10
108.87521099999989
 20
170.9080439999999
 30
0.001526
 11
106.37521099999999
 21
170.9080439999999
 31
0.001526
  0
LINE
  5
1432
  8
GAIKEI
  6
CONTINUOUS
 10
108.87521099999989
 20
170.449183
 30
0.001526
 11
106.37521099999999
 21
170.449183
 31
0.001526
  0
LINE
  5
1433
  8
GAIKEI
  6
CONTINUOUS
 10
106.37521099999999
 20
174.82970399999991
 30
0.001526
 11
107.87521099999989
 21
174.82970399999991
 31
0.001526
  0
LINE
  5
1434
  8
GAIKEI
  6
CONTINUOUS
 10
106.175211
 20
174.6999459999999
 30
0.001526
 11
104.87521099999989
 21
174.6999459999999
 31
0.001526
  0
LINE
  5
1435
  8
CENTER
 10
106.17570000000001
 20
172.874009
 30
0.001526
 11
111.5757
 21
172.874009
 31
0.001526
  0
LINE
  5
1436
  8
GAIKEI
  6
CONTINUOUS
 10
107.87521099999989
 20
174.82970399999991
 30
0.001526
 11
108.87521099999989
 21
174.82970399999991
 31
0.001526
  0
LINE
  5
1437
  8
CENTER
 10
108.8756999999999
 20
175.35699199999991
 30
0.001526
 11
108.8756999999999
 21
170.39102700000001
 31
0.001526
  0
LINE
  5
1438
  8
GAIKEI
  6
CONTINUOUS
 10
111.37521099999989
 20
172.874009
 30
0.001526
 11
111.37521099999989
 21
172.40487799999991
 31
0.001526
  0
LINE
  5
1439
  8
GAIKEI
  6
CONTINUOUS
 10
75.675211000000004
 20
166.657509
 30
0.001526
 11
75.675211000000004
 21
156.157509
 31
0.001526
  0
LINE
  5
143A
  8
CENTER
 10
106.17570000000001
 20
149.94101000000001
 30
0.001526
 11
111.5757
 21
149.94101000000001
 31
0.001526
  0
LINE
  5
143B
  8
CENTER
 10
108.8756999999999
 20
147.4580269999999
 30
0.001526
 11
108.8756999999999
 21
152.423992
 31
0.001526
  0
LINE
  5
143C
  8
GAIKEI
  6
CONTINUOUS
 10
78.425211000000004
 20
156.00750899999991
 30
0.001526
 11
75.825210999999982
 21
156.00750899999991
 31
0.001526
  0
LINE
  5
143D
  8
GAIKEI
  6
CONTINUOUS
 10
78.425211000000004
 20
155.40750899999981
 30
0.001526
 11
76.425211000000004
 21
155.40750899999981
 31
0.001526
  0
LINE
  5
143E
  8
GAIKEI
  6
CONTINUOUS
 10
81.061351999999999
 20
155.40750899999981
 30
0.001526
 11
80.925211000000004
 21
155.40750899999981
 31
0.001526
  0
LINE
  5
143F
  8
GAIKEI
  6
CONTINUOUS
 10
81.007178999999994
 20
156.00750899999991
 30
0.001526
 11
80.925211000000004
 21
156.00750899999991
 31
0.001526
  0
LINE
  5
1440
  8
GAIKEI
  6
CONTINUOUS
 10
81.933162999999993
 20
155.40750899999981
 30
0.001526
 11
81.789069999999981
 21
155.40750899999981
 31
0.001526
  0
LINE
  5
1441
  8
GAIKEI
  6
CONTINUOUS
 10
81.933162999999993
 20
156.00750899999991
 30
0.001526
 11
81.675211000000004
 21
156.00750899999991
 31
0.001526
  0
LINE
  5
1442
  8
GAIKEI
  6
CONTINUOUS
 10
81.843242000000004
 20
166.80750900000001
 30
0.001526
 11
81.933162999999993
 21
166.80750900000001
 31
0.001526
  0
LINE
  5
1443
  8
GAIKEI
  6
CONTINUOUS
 10
81.675211000000004
 20
167.407509
 30
0.001526
 11
81.933162999999993
 21
167.407509
 31
0.001526
  0
LINE
  5
1444
  8
GAIKEI
  6
CONTINUOUS
 10
80.925211000000004
 20
166.80750900000001
 30
0.001526
 11
81.175211000000004
 21
166.80750900000001
 31
0.001526
  0
LINE
  5
1445
  8
GAIKEI
  6
CONTINUOUS
 10
80.925211000000004
 20
167.407509
 30
0.001526
 11
81.061351999999999
 21
167.407509
 31
0.001526
  0
LINE
  5
1446
  8
GAIKEI
  6
CONTINUOUS
 10
83.933162999999979
 20
166.80750900000001
 30
0.001526
 11
85.675211000000004
 21
166.80750900000001
 31
0.001526
  0
LINE
  5
1447
  8
GAIKEI
  6
CONTINUOUS
 10
83.933162999999979
 20
167.407509
 30
0.001526
 11
85.675211000000004
 21
167.407509
 31
0.001526
  0
LINE
  5
1448
  8
GAIKEI
  6
CONTINUOUS
 10
78.425211000000004
 20
154.10750899999991
 30
0.001526
 11
78.725211000000002
 21
153.80750900000001
 31
0.001526
  0
LINE
  5
1449
  8
GAIKEI
  6
CONTINUOUS
 10
78.725211000000002
 20
153.80750900000001
 30
0.001526
 11
80.925211000000004
 21
153.80750900000001
 31
0.001526
  0
LINE
  5
144A
  8
GAIKEI
  6
CONTINUOUS
 10
78.895211000000003
 20
154.14750900000001
 30
0.001526
 11
80.925211000000004
 21
154.14750900000001
 31
0.001526
  0
LINE
  5
144B
  8
GAIKEI
  6
CONTINUOUS
 10
78.890210999999979
 20
154.47750899999991
 30
0.001526
 11
80.925211000000004
 21
154.47750899999991
 31
0.001526
  0
LINE
  5
144C
  8
GAIKEI
  6
CONTINUOUS
 10
78.890210999999979
 20
154.80750900000001
 30
0.001526
 11
80.925211000000004
 21
154.80750900000001
 31
0.001526
  0
LINE
  5
144D
  8
GAIKEI
  6
CONTINUOUS
 10
78.925211000000004
 20
155.2075089999999
 30
0.001526
 11
80.925211000000004
 21
155.2075089999999
 31
0.001526
  0
LINE
  5
144E
  8
GAIKEI
  6
CONTINUOUS
 10
78.925211000000004
 20
155.60750899999999
 30
0.001526
 11
80.925211000000004
 21
155.60750899999999
 31
0.001526
  0
LINE
  5
144F
  8
GAIKEI
  6
CONTINUOUS
 10
78.925211000000004
 20
156.00750899999991
 30
0.001526
 11
80.925211000000004
 21
156.00750899999991
 31
0.001526
  0
LINE
  5
1450
  8
GAIKEI
  6
CONTINUOUS
 10
78.975211000000002
 20
156.507509
 30
0.001526
 11
80.925211000000004
 21
156.507509
 31
0.001526
  0
LINE
  5
1451
  8
GAIKEI
  6
CONTINUOUS
 10
78.975211000000002
 20
157.007509
 30
0.001526
 11
80.925211000000004
 21
157.007509
 31
0.001526
  0
LINE
  5
1452
  8
GAIKEI
  6
CONTINUOUS
 10
78.975211000000002
 20
157.507509
 30
0.001526
 11
80.925211000000004
 21
157.507509
 31
0.001526
  0
LINE
  5
1453
  8
GAIKEI
  6
CONTINUOUS
 10
79.025210999999999
 20
158.30750900000001
 30
0.001526
 11
80.925211000000004
 21
158.30750900000001
 31
0.001526
  0
LINE
  5
1454
  8
GAIKEI
  6
CONTINUOUS
 10
79.025210999999999
 20
159.10750899999991
 30
0.001526
 11
80.925211000000004
 21
159.10750899999991
 31
0.001526
  0
LINE
  5
1455
  8
GAIKEI
  6
CONTINUOUS
 10
79.025210999999999
 20
159.907509
 30
0.001526
 11
80.925211000000004
 21
159.907509
 31
0.001526
  0
LINE
  5
1456
  8
GAIKEI
  6
CONTINUOUS
 10
78.925211000000004
 20
167.60750899999991
 30
0.001526
 11
80.925211000000004
 21
167.60750899999991
 31
0.001526
  0
LINE
  5
1457
  8
GAIKEI
  6
CONTINUOUS
 10
78.895211000000003
 20
168.667509
 30
0.001526
 11
80.925211000000004
 21
168.667509
 31
0.001526
  0
LINE
  5
1458
  8
GAIKEI
  6
CONTINUOUS
 10
78.890210999999979
 20
168.33750900000001
 30
0.001526
 11
80.925211000000004
 21
168.33750900000001
 31
0.001526
  0
LINE
  5
1459
  8
GAIKEI
  6
CONTINUOUS
 10
78.890210999999979
 20
168.007509
 30
0.001526
 11
80.925211000000004
 21
168.007509
 31
0.001526
  0
LINE
  5
145A
  8
GAIKEI
  6
CONTINUOUS
 10
78.925211000000004
 20
167.2075089999999
 30
0.001526
 11
80.925211000000004
 21
167.2075089999999
 31
0.001526
  0
LINE
  5
145B
  8
GAIKEI
  6
CONTINUOUS
 10
78.925211000000004
 20
166.80750900000001
 30
0.001526
 11
80.925211000000004
 21
166.80750900000001
 31
0.001526
  0
LINE
  5
145C
  8
GAIKEI
  6
CONTINUOUS
 10
78.975211000000002
 20
166.30750900000001
 30
0.001526
 11
80.925211000000004
 21
166.30750900000001
 31
0.001526
  0
LINE
  5
145D
  8
GAIKEI
  6
CONTINUOUS
 10
78.975211000000002
 20
165.80750900000001
 30
0.001526
 11
80.925211000000004
 21
165.80750900000001
 31
0.001526
  0
LINE
  5
145E
  8
GAIKEI
  6
CONTINUOUS
 10
78.975211000000002
 20
165.30750900000001
 30
0.001526
 11
80.925211000000004
 21
165.30750900000001
 31
0.001526
  0
LINE
  5
145F
  8
GAIKEI
  6
CONTINUOUS
 10
79.025210999999999
 20
164.50750899999991
 30
0.001526
 11
80.925211000000004
 21
164.50750899999991
 31
0.001526
  0
LINE
  5
1460
  8
GAIKEI
  6
CONTINUOUS
 10
79.025210999999999
 20
163.7075089999999
 30
0.001526
 11
80.925211000000004
 21
163.7075089999999
 31
0.001526
  0
LINE
  5
1461
  8
GAIKEI
  6
CONTINUOUS
 10
79.025210999999999
 20
162.907509
 30
0.001526
 11
80.925211000000004
 21
162.907509
 31
0.001526
  0
LINE
  5
1462
  8
GAIKEI
  6
CONTINUOUS
 10
79.025210999999999
 20
160.907509
 30
0.001526
 11
80.925211000000004
 21
160.907509
 31
0.001526
  0
LINE
  5
1463
  8
GAIKEI
  6
CONTINUOUS
 10
79.025210999999999
 20
161.907509
 30
0.001526
 11
80.925211000000004
 21
161.907509
 31
0.001526
  0
LINE
  5
1464
  8
GAIKEI
  6
CONTINUOUS
 10
78.425211000000004
 20
168.7075089999999
 30
0.001526
 11
78.725211000000002
 21
169.007509
 31
0.001526
  0
LINE
  5
1465
  8
GAIKEI
  6
CONTINUOUS
 10
80.925211000000004
 20
169.007509
 30
0.001526
 11
80.925211000000004
 21
153.80750900000001
 31
0.001526
  0
LINE
  5
1466
  8
GAIKEI
  6
CONTINUOUS
 10
78.425211000000004
 20
168.7075089999999
 30
0.001526
 11
78.425211000000004
 21
154.10750899999991
 31
0.001526
  0
LINE
  5
1467
  8
GAIKEI
  6
CONTINUOUS
 10
78.725211000000002
 20
169.007509
 30
0.001526
 11
80.925211000000004
 21
169.007509
 31
0.001526
  0
LINE
  5
1468
  8
GAIKEI
  6
CONTINUOUS
 10
81.933162999999993
 20
154.40751599999999
 30
0.001526
 11
81.933162999999993
 21
168.40750199999991
 31
0.001526
  0
LINE
  5
1469
  8
GAIKEI
  6
CONTINUOUS
 10
83.933162999999979
 20
154.40751599999999
 30
0.001526
 11
83.933162999999979
 21
168.40750199999991
 31
0.001526
  0
LINE
  5
146A
  8
GAIKEI
  6
CONTINUOUS
 10
81.675211000000004
 20
160.31967599999979
 30
0.001526
 11
81.933162999999993
 21
160.38275300000001
 31
0.001526
  0
LINE
  5
146B
  8
GAIKEI
  6
CONTINUOUS
 10
81.933162999999993
 20
160.38275300000001
 30
0.001526
 11
81.675211000000004
 21
161.43763200000001
 31
0.001526
  0
LINE
  5
146C
  8
GAIKEI
  6
CONTINUOUS
 10
82.558376999999979
 20
153.32461399999991
 30
0.001526
 11
81.933162999999993
 21
154.40751599999999
 31
0.001526
  0
LINE
  5
146D
  8
GAIKEI
  6
CONTINUOUS
 10
81.933162999999993
 20
168.40750199999991
 30
0.001526
 11
82.558376999999979
 21
169.49040500000001
 31
0.001526
  0
LINE
  5
146E
  8
GAIKEI
  6
CONTINUOUS
 10
83.933162999999979
 20
154.40751599999999
 30
0.001526
 11
83.307948999999994
 21
153.32461399999991
 31
0.001526
  0
LINE
  5
146F
  8
GAIKEI
  6
CONTINUOUS
 10
83.307948999999994
 20
169.49040500000001
 30
0.001526
 11
83.933162999999979
 21
168.40750199999991
 31
0.001526
  0
LINE
  5
1470
  8
GAIKEI
  6
CONTINUOUS
 10
82.558376999999979
 20
169.49040500000001
 30
0.001526
 11
83.307948999999994
 21
169.49040500000001
 31
0.001526
  0
LINE
  5
1471
  8
GAIKEI
  6
CONTINUOUS
 10
82.558376999999979
 20
165.44895700000001
 30
0.001526
 11
83.307948999999994
 21
165.44895700000001
 31
0.001526
  0
LINE
  5
1472
  8
GAIKEI
  6
CONTINUOUS
 10
82.558376999999979
 20
157.366062
 30
0.001526
 11
83.307948999999994
 21
157.366062
 31
0.001526
  0
LINE
  5
1473
  8
GAIKEI
  6
CONTINUOUS
 10
82.558376999999979
 20
153.32461399999991
 30
0.001526
 11
83.307948999999994
 21
153.32461399999991
 31
0.001526
  0
LINE
  5
1474
  8
GAIKEI
  6
CONTINUOUS
 10
81.175211000000004
 20
169.35750899999991
 30
0.001526
 11
81.675211000000004
 21
169.35750899999991
 31
0.001526
  0
LINE
  5
1475
  8
GAIKEI
  6
CONTINUOUS
 10
80.917257999999975
 20
162.43226599999991
 30
0.001526
 11
81.175211000000004
 21
162.49534299999979
 31
0.001526
  0
LINE
  5
1476
  8
GAIKEI
  6
CONTINUOUS
 10
80.927526999999998
 20
165.67755
 30
0.001526
 11
81.175211000000004
 21
165.745769
 31
0.001526
  0
LINE
  5
1477
  8
GAIKEI
  6
CONTINUOUS
 10
81.922894999999997
 20
163.946607
 30
0.001526
 11
81.675211000000004
 21
163.878388
 31
0.001526
  0
LINE
  5
1478
  8
GAIKEI
  6
CONTINUOUS
 10
80.935587999999981
 20
167.718582
 30
0.001526
 11
81.175211000000004
 21
167.815459
 31
0.001526
  0
LINE
  5
1479
  8
GAIKEI
  6
CONTINUOUS
 10
81.914832999999987
 20
166.63043200000001
 30
0.001526
 11
81.675211000000004
 21
166.53355499999981
 31
0.001526
  0
LINE
  5
147A
  8
GAIKEI
  6
CONTINUOUS
 10
80.935587999999981
 20
167.718582
 30
0.001526
 11
81.175211000000004
 21
168.21664699999999
 31
0.001526
  0
LINE
  5
147B
  8
GAIKEI
  6
CONTINUOUS
 10
81.914832999999987
 20
167.718582
 30
0.001526
 11
81.789241000000004
 21
167.40793400000001
 31
0.001526
  0
LINE
  5
147C
  8
GAIKEI
  6
CONTINUOUS
 10
81.675211000000004
 20
168.21664699999999
 30
0.001526
 11
81.914832999999987
 21
167.718582
 31
0.001526
  0
LINE
  5
147D
  8
GAIKEI
  6
CONTINUOUS
 10
81.175211000000004
 20
169.35750899999991
 30
0.001526
 11
81.175211000000004
 21
161.35406899999981
 31
0.001526
  0
LINE
  5
147E
  8
GAIKEI
  6
CONTINUOUS
 10
81.175211000000004
 20
167.12588299999999
 30
0.001526
 11
80.935587999999981
 21
167.718582
 31
0.001526
  0
LINE
  5
147F
  8
GAIKEI
  6
CONTINUOUS
 10
81.676640000000006
 20
167.81488100000001
 30
0.001526
 11
81.914832999999987
 21
167.718582
 31
0.001526
  0
LINE
  5
1480
  8
GAIKEI
  6
CONTINUOUS
 10
81.675211000000004
 20
167.22313199999991
 30
0.001526
 11
81.914832999999987
 21
166.63043200000001
 31
0.001526
  0
LINE
  5
1481
  8
GAIKEI
  6
CONTINUOUS
 10
81.175211000000004
 20
164.77827899999991
 30
0.001526
 11
80.927526999999998
 21
165.67755
 31
0.001526
  0
LINE
  5
1482
  8
GAIKEI
  6
CONTINUOUS
 10
81.675211000000004
 20
164.845878
 30
0.001526
 11
81.922894999999997
 21
163.946607
 31
0.001526
  0
LINE
  5
1483
  8
GAIKEI
  6
CONTINUOUS
 10
81.675211000000004
 20
169.35750899999991
 30
0.001526
 11
81.675211000000004
 21
161.407509
 31
0.001526
  0
LINE
  5
1484
  8
GAIKEI
  6
CONTINUOUS
 10
81.175211000000004
 20
161.37738699999991
 30
0.001526
 11
80.917257999999975
 21
162.43226599999991
 31
0.001526
  0
LINE
  5
1485
  8
GAIKEI
  6
CONTINUOUS
 10
81.675211000000004
 20
153.4575089999999
 30
0.001526
 11
81.175211000000004
 21
153.4575089999999
 31
0.001526
  0
LINE
  5
1486
  8
GAIKEI
  6
CONTINUOUS
 10
81.175211000000004
 20
154.99956
 30
0.001526
 11
80.935587999999981
 21
155.09643700000001
 31
0.001526
  0
LINE
  5
1487
  8
GAIKEI
  6
CONTINUOUS
 10
81.175211000000004
 20
154.5983719999999
 30
0.001526
 11
80.935587999999981
 21
155.09643700000001
 31
0.001526
  0
LINE
  5
1488
  8
GAIKEI
  6
CONTINUOUS
 10
81.175211000000004
 20
157.96914099999981
 30
0.001526
 11
80.927526999999998
 21
158.86841200000001
 31
0.001526
  0
LINE
  5
1489
  8
GAIKEI
  6
CONTINUOUS
 10
81.675211000000004
 20
158.0367399999999
 30
0.001526
 11
81.922894999999997
 21
157.13746899999981
 31
0.001526
  0
LINE
  5
148A
  8
GAIKEI
  6
CONTINUOUS
 10
81.175211000000004
 20
155.59188700000001
 30
0.001526
 11
80.935587999999981
 21
156.18458699999991
 31
0.001526
  0
LINE
  5
148B
  8
GAIKEI
  6
CONTINUOUS
 10
81.677273999999983
 20
155.68403399999991
 30
0.001526
 11
81.914832999999987
 21
155.09643700000001
 31
0.001526
  0
LINE
  5
148C
  8
GAIKEI
  6
CONTINUOUS
 10
81.914832999999987
 20
155.09643700000001
 30
0.001526
 11
81.675211000000004
 21
154.5983719999999
 31
0.001526
  0
LINE
  5
148D
  8
GAIKEI
  6
CONTINUOUS
 10
80.935587999999981
 20
155.09643700000001
 30
0.001526
 11
81.060478000000003
 21
155.40535
 31
0.001526
  0
LINE
  5
148E
  8
GAIKEI
  6
CONTINUOUS
 10
81.914832999999987
 20
155.09643700000001
 30
0.001526
 11
81.676640000000006
 21
155.00013799999991
 31
0.001526
  0
LINE
  5
148F
  8
GAIKEI
  6
CONTINUOUS
 10
80.935587999999981
 20
156.18458699999991
 30
0.001526
 11
81.175211000000004
 21
156.281464
 31
0.001526
  0
LINE
  5
1490
  8
GAIKEI
  6
CONTINUOUS
 10
81.922894999999997
 20
157.13746899999981
 30
0.001526
 11
81.678557999999981
 21
157.0701719999999
 31
0.001526
  0
LINE
  5
1491
  8
GAIKEI
  6
CONTINUOUS
 10
80.927526999999998
 20
158.86841200000001
 30
0.001526
 11
81.175211000000004
 21
158.93663100000001
 31
0.001526
  0
LINE
  5
1492
  8
GAIKEI
  6
CONTINUOUS
 10
81.175211000000004
 20
161.46095
 30
0.001526
 11
81.175211000000004
 21
155.40750899999981
 31
0.001526
  0
LINE
  5
1493
  8
GAIKEI
  6
CONTINUOUS
 10
81.675211000000004
 20
161.407509
 30
0.001526
 11
81.675211000000004
 21
153.4575089999999
 31
0.001526
  0
LINE
  5
1494
  8
GAIKEI
  6
CONTINUOUS
 10
85.675211000000004
 20
155.40750899999981
 30
0.001526
 11
83.933162999999979
 21
155.40750899999981
 31
0.001526
  0
LINE
  5
1495
  8
GAIKEI
  6
CONTINUOUS
 10
85.675211000000004
 20
156.00750899999991
 30
0.001526
 11
83.933162999999979
 21
156.00750899999991
 31
0.001526
  0
LINE
  5
1496
  8
GAIKEI
  6
CONTINUOUS
 10
76.425211000000004
 20
167.407509
 30
0.001526
 11
78.425211000000004
 21
167.407509
 31
0.001526
  0
LINE
  5
1497
  8
GAIKEI
  6
CONTINUOUS
 10
76.425211000000004
 20
167.407509
 30
0.001526
 11
75.675211000000004
 21
166.657509
 31
0.001526
  0
LINE
  5
1498
  8
GAIKEI
  6
CONTINUOUS
 10
76.425211000000004
 20
167.407509
 30
0.001526
 11
76.425211000000004
 21
155.40750899999981
 31
0.001526
  0
LINE
  5
1499
  8
GAIKEI
  6
CONTINUOUS
 10
75.825210999999982
 20
166.80750900000001
 30
0.001526
 11
78.425211000000004
 21
166.80750900000001
 31
0.001526
  0
LINE
  5
149A
  8
GAIKEI
  6
CONTINUOUS
 10
75.675211000000004
 20
156.157509
 30
0.001526
 11
76.425211000000004
 21
155.40750899999981
 31
0.001526
  0
LINE
  5
149B
  8
GAIKEI
  6
CONTINUOUS
 10
139.33472599999979
 20
175.3385089999999
 30
0.001526
 11
139.33472599999979
 21
175.099109
 31
0.001526
  0
LINE
  5
149C
  8
GAIKEI
  6
CONTINUOUS
 10
139.01552599999999
 20
175.3385089999999
 30
0.001526
 11
139.01552599999999
 21
175.099109
 31
0.001526
  0
LINE
  5
149D
  8
GAIKEI
  6
CONTINUOUS
 10
139.33472599999979
 20
175.3385089999999
 30
0.001526
 11
139.01552599999999
 21
175.3385089999999
 31
0.001526
  0
LINE
  5
149E
  8
GAIKEI
  6
CONTINUOUS
 10
139.33472599999979
 20
173.71590900000001
 30
0.001526
 11
139.33472599999979
 21
173.47650899999991
 31
0.001526
  0
LINE
  5
149F
  8
GAIKEI
  6
CONTINUOUS
 10
138.24412599999999
 20
174.5671089999999
 30
0.001526
 11
138.24412599999999
 21
174.24790899999991
 31
0.001526
  0
LINE
  5
14A0
  8
GAIKEI
  6
CONTINUOUS
 10
138.24412599999999
 20
174.5671089999999
 30
0.001526
 11
138.48352600000001
 21
174.5671089999999
 31
0.001526
  0
LINE
  5
14A1
  8
GAIKEI
  6
CONTINUOUS
 10
138.24412599999999
 20
174.24790899999991
 30
0.001526
 11
138.48352600000001
 21
174.24790899999991
 31
0.001526
  0
LINE
  5
14A2
  8
GAIKEI
  6
CONTINUOUS
 10
139.01552599999999
 20
173.71590900000001
 30
0.001526
 11
139.01552599999999
 21
173.47650899999991
 31
0.001526
  0
LINE
  5
14A3
  8
GAIKEI
  6
CONTINUOUS
 10
139.33472599999979
 20
173.47650899999991
 30
0.001526
 11
139.01552599999999
 21
173.47650899999991
 31
0.001526
  0
LINE
  5
14A4
  8
GAIKEI
  6
CONTINUOUS
 10
140.10612599999979
 20
174.24790899999991
 30
0.001526
 11
140.10612599999979
 21
174.5671089999999
 31
0.001526
  0
LINE
  5
14A5
  8
GAIKEI
  6
CONTINUOUS
 10
139.866726
 20
174.5671089999999
 30
0.001526
 11
140.10612599999979
 21
174.5671089999999
 31
0.001526
  0
LINE
  5
14A6
  8
GAIKEI
  6
CONTINUOUS
 10
139.866726
 20
174.24790899999991
 30
0.001526
 11
140.10612599999979
 21
174.24790899999991
 31
0.001526
  0
LINE
  5
14A7
  8
CENTER
 10
137.180126
 20
174.407509
 30
0.001526
 11
141.17012600000001
 21
174.407509
 31
0.001526
  0
LINE
  5
14A8
  8
CENTER
 10
137.180126
 20
148.407509
 30
0.001526
 11
141.17012600000001
 21
148.407509
 31
0.001526
  0
LINE
  5
14A9
  8
GAIKEI
  6
CONTINUOUS
 10
139.33472599999979
 20
147.71590900000001
 30
0.001526
 11
139.33472599999979
 21
147.47650899999999
 31
0.001526
  0
LINE
  5
14AA
  8
GAIKEI
  6
CONTINUOUS
 10
139.866726
 20
148.24790899999991
 30
0.001526
 11
140.10612599999979
 21
148.24790899999991
 31
0.001526
  0
LINE
  5
14AB
  8
GAIKEI
  6
CONTINUOUS
 10
139.01552599999999
 20
147.71590900000001
 30
0.001526
 11
139.01552599999999
 21
147.47650899999999
 31
0.001526
  0
LINE
  5
14AC
  8
GAIKEI
  6
CONTINUOUS
 10
139.866726
 20
148.5671089999999
 30
0.001526
 11
140.10612599999979
 21
148.5671089999999
 31
0.001526
  0
LINE
  5
14AD
  8
GAIKEI
  6
CONTINUOUS
 10
139.33472599999979
 20
149.3385089999999
 30
0.001526
 11
139.01552599999999
 21
149.3385089999999
 31
0.001526
  0
LINE
  5
14AE
  8
GAIKEI
  6
CONTINUOUS
 10
139.33472599999979
 20
147.47650899999999
 30
0.001526
 11
139.01552599999999
 21
147.47650899999999
 31
0.001526
  0
LINE
  5
14AF
  8
GAIKEI
  6
CONTINUOUS
 10
140.10612599999979
 20
148.24790899999991
 30
0.001526
 11
140.10612599999979
 21
148.5671089999999
 31
0.001526
  0
LINE
  5
14B0
  8
GAIKEI
  6
CONTINUOUS
 10
138.24412599999999
 20
148.5671089999999
 30
0.001526
 11
138.24412599999999
 21
148.24790899999991
 31
0.001526
  0
LINE
  5
14B1
  8
GAIKEI
  6
CONTINUOUS
 10
138.24412599999999
 20
148.24790899999991
 30
0.001526
 11
138.48352600000001
 21
148.24790899999991
 31
0.001526
  0
LINE
  5
14B2
  8
GAIKEI
  6
CONTINUOUS
 10
138.24412599999999
 20
148.5671089999999
 30
0.001526
 11
138.48352600000001
 21
148.5671089999999
 31
0.001526
  0
LINE
  5
14B3
  8
GAIKEI
  6
CONTINUOUS
 10
139.33472599999979
 20
149.3385089999999
 30
0.001526
 11
139.33472599999979
 21
149.099109
 31
0.001526
  0
LINE
  5
14B4
  8
GAIKEI
  6
CONTINUOUS
 10
139.01552599999999
 20
149.3385089999999
 30
0.001526
 11
139.01552599999999
 21
149.099109
 31
0.001526
  0
LINE
  5
14B5
  8
GAIKEI
  6
CONTINUOUS
 10
31.65278
 20
156.507509
 30
0.001526
 11
31.65278
 21
155.47924
 31
0.001526
  0
LINE
  5
14B6
  8
GAIKEI
  6
CONTINUOUS
 10
29.802779999999998
 20
156.507509
 30
0.001526
 11
29.802779999999998
 21
155.47924
 31
0.001526
  0
LINE
  5
14B7
  8
GAIKEI
  6
CONTINUOUS
 10
29.802779999999998
 20
156.507509
 30
0.001526
 11
31.65278
 21
156.507509
 31
0.001526
  0
LINE
  5
14B8
  8
GAIKEI
  6
CONTINUOUS
 10
29.133195000000001
 20
160.983485
 30
0.001526
 11
28.047685999999999
 21
164.3340849999999
 31
0.001526
  0
LINE
  5
14B9
  8
GAIKEI
  6
CONTINUOUS
 10
32.322365999999981
 20
160.983485
 30
0.001526
 11
33.40787499999999
 21
164.3340849999999
 31
0.001526
  0
LINE
  5
14BA
  8
GAIKEI
  6
CONTINUOUS
 10
85.675211000000004
 20
167.42809
 30
0.001526
 11
85.675211000000004
 21
155.42809
 31
0.001526
  0
LINE
  5
14BB
  8
GAIKEI
  6
CONTINUOUS
 10
75.675211000000004
 20
164.71643899999981
 30
0.001526
 11
61.463985000000001
 21
168.105671
 31
0.001526
  0
LINE
  5
14BC
  8
GAIKEI
  6
CONTINUOUS
 10
60.363543999999997
 20
162.168218
 30
0.001526
 11
75.675211000000004
 21
160.12898299999981
 31
0.001526
  0
LINE
  5
14BD
  8
CENTER
 10
20.227779999999999
 20
161.407509
 30
0.001526
 11
38.027779999999993
 21
161.407509
 31
0.001526
  0
LINE
  5
14BE
  8
GAIKEI
  6
CONTINUOUS
 10
104.8939389999999
 20
163.8280899999998
 30
0.001526
 11
104.8939389999999
 21
159.02808999999991
 31
0.001526
  0
LINE
  5
14BF
  8
GAIKEI
  6
CONTINUOUS
 10
104.8939389999999
 20
159.02808999999991
 30
0.001526
 11
105.675211
 21
159.02808999999991
 31
0.001526
  0
LINE
  5
14C0
  8
GAIKEI
  6
CONTINUOUS
 10
104.8939389999999
 20
163.8280899999998
 30
0.001526
 11
105.675211
 21
163.8280899999998
 31
0.001526
  0
LINE
  5
14C1
  8
GAIKEI
  6
CONTINUOUS
 10
129.87512599999991
 20
164.2075089999999
 30
0.001526
 11
129.87512599999991
 21
176.00750899999991
 31
0.001526
  0
LINE
  5
14C2
  8
GAIKEI
  6
CONTINUOUS
 10
133.7795389999998
 20
174.13037299999999
 30
0.001526
 11
133.61570800000001
 21
174.24508899999981
 31
0.001526
  0
LINE
  5
14C3
  8
GAIKEI
  6
CONTINUOUS
 10
130.50455700000001
 20
170.80797699999991
 30
0.001526
 11
130.97725600000001
 21
170.476989
 31
0.001526
  0
LINE
  5
14C4
  8
GAIKEI
  6
CONTINUOUS
 10
131.2558019999999
 20
170.526104
 30
0.001526
 11
131.091972
 21
170.64081999999999
 31
0.001526
  0
LINE
  5
14C5
  8
GAIKEI
  6
CONTINUOUS
 10
131.3049169999999
 20
170.2475589999998
 30
0.001526
 11
134.17194900000001
 21
168.24004099999991
 31
0.001526
  0
LINE
  5
14C6
  8
GAIKEI
  6
CONTINUOUS
 10
134.05808400000001
 20
174.17948799999999
 30
0.001526
 11
136.925116
 21
172.1719709999999
 31
0.001526
  0
LINE
  5
14C7
  8
GAIKEI
  6
CONTINUOUS
 10
131.05845899999991
 20
176.27984900000001
 30
0.001526
 11
133.7304229999998
 21
174.40891899999991
 31
0.001526
  0
LINE
  5
14C8
  8
GAIKEI
  6
CONTINUOUS
 10
133.7304229999998
 20
174.40891899999991
 30
0.001526
 11
130.97725600000001
 21
170.476989
 31
0.001526
  0
LINE
  5
14C9
  8
GAIKEI
  6
CONTINUOUS
 10
133.0751019999999
 20
174.86778000000001
 30
0.001526
 11
130.282995
 21
170.8802389999999
 31
0.001526
  0
LINE
  5
14CA
  8
GAIKEI
  6
CONTINUOUS
 10
144.57071399999981
 20
174.13037299999999
 30
0.001526
 11
144.734545
 21
174.24508899999981
 31
0.001526
  0
LINE
  5
14CB
  8
GAIKEI
  6
CONTINUOUS
 10
147.09445099999991
 20
170.526104
 30
0.001526
 11
147.25828100000001
 21
170.64081999999999
 31
0.001526
  0
LINE
  5
14CC
  8
GAIKEI
  6
CONTINUOUS
 10
147.845696
 20
170.80797699999991
 30
0.001526
 11
147.372996
 21
170.476989
 31
0.001526
  0
LINE
  5
14CD
  8
GAIKEI
  6
CONTINUOUS
 10
144.292169
 20
174.17948799999999
 30
0.001526
 11
141.42513700000001
 21
172.1719709999999
 31
0.001526
  0
LINE
  5
14CE
  8
GAIKEI
  6
CONTINUOUS
 10
147.04533599999999
 20
170.2475589999998
 30
0.001526
 11
144.178303
 21
168.24004099999991
 31
0.001526
  0
LINE
  5
14CF
  8
GAIKEI
  6
CONTINUOUS
 10
148.4751259999999
 20
158.60750899999999
 30
0.001526
 11
148.4751259999999
 21
170.4803159999999
 31
0.001526
  0
LINE
  5
14D0
  8
GAIKEI
  6
CONTINUOUS
 10
147.29179399999981
 20
176.27984900000001
 30
0.001526
 11
144.61983000000001
 21
174.40891899999991
 31
0.001526
  0
LINE
  5
14D1
  8
GAIKEI
  6
CONTINUOUS
 10
144.61983000000001
 20
174.40891899999991
 30
0.001526
 11
147.372996
 21
170.476989
 31
0.001526
  0
LINE
  5
14D2
  8
GAIKEI
  6
CONTINUOUS
 10
145.27515099999979
 20
174.86778000000001
 30
0.001526
 11
148.06725800000001
 21
170.8802389999999
 31
0.001526
  0
LINE
  5
14D3
  8
GAIKEI
  6
CONTINUOUS
 10
133.7795389999998
 20
148.6846459999999
 30
0.001526
 11
133.61570800000001
 21
148.56993
 31
0.001526
  0
LINE
  5
14D4
  8
GAIKEI
  6
CONTINUOUS
 10
131.2558019999999
 20
152.288915
 30
0.001526
 11
131.091972
 21
152.1741989999999
 31
0.001526
  0
LINE
  5
14D5
  8
GAIKEI
  6
CONTINUOUS
 10
130.50455700000001
 20
152.00704199999981
 30
0.001526
 11
130.97725600000001
 21
152.33803
 31
0.001526
  0
LINE
  5
14D6
  8
GAIKEI
  6
CONTINUOUS
 10
134.05808400000001
 20
148.6355309999999
 30
0.001526
 11
136.925116
 21
150.64304799999979
 31
0.001526
  0
LINE
  5
14D7
  8
GAIKEI
  6
CONTINUOUS
 10
131.3049169999999
 20
152.56746000000001
 30
0.001526
 11
134.17194900000001
 21
154.5749779999999
 31
0.001526
  0
LINE
  5
14D8
  8
GAIKEI
  6
CONTINUOUS
 10
129.87512599999991
 20
164.2075089999999
 30
0.001526
 11
129.87512599999991
 21
157.907509
 31
0.001526
  0
LINE
  5
14D9
  8
GAIKEI
  6
CONTINUOUS
 10
131.05845899999991
 20
146.53516999999999
 30
0.001526
 11
133.7304229999998
 21
148.40610000000001
 31
0.001526
  0
LINE
  5
14DA
  8
GAIKEI
  6
CONTINUOUS
 10
133.0751019999999
 20
147.94723899999991
 30
0.001526
 11
130.282995
 21
151.93477999999999
 31
0.001526
  0
LINE
  5
14DB
  8
GAIKEI
  6
CONTINUOUS
 10
133.7304229999998
 20
148.40610000000001
 30
0.001526
 11
130.97725600000001
 21
152.33803
 31
0.001526
  0
LINE
  5
14DC
  8
GAIKEI
  6
CONTINUOUS
 10
129.87512599999991
 20
152.33470299999999
 30
0.001526
 11
129.87512599999991
 21
146.80750900000001
 31
0.001526
  0
LINE
  5
14DD
  8
GAIKEI
  6
CONTINUOUS
 10
148.4751259999999
 20
152.33470299999999
 30
0.001526
 11
148.4751259999999
 21
146.80750900000001
 31
0.001526
  0
LINE
  5
14DE
  8
GAIKEI
  6
CONTINUOUS
 10
147.47512599999979
 20
145.80750900000001
 30
0.001526
 11
130.87512599999991
 21
145.80750900000001
 31
0.001526
  0
LINE
  5
14DF
  8
GAIKEI
  6
CONTINUOUS
 10
131.97512599999979
 20
159.2075089999999
 30
0.001526
 11
131.775126
 21
159.2075089999999
 31
0.001526
  0
LINE
  5
14E0
  8
GAIKEI
  6
CONTINUOUS
 10
132.17512600000001
 20
159.007509
 30
0.001526
 11
135.67512600000001
 21
159.007509
 31
0.001526
  0
LINE
  5
14E1
  8
GAIKEI
  6
CONTINUOUS
 10
130.2751259999998
 20
159.007509
 30
0.001526
 11
131.775126
 21
159.007509
 31
0.001526
  0
LINE
  5
14E2
  8
GAIKEI
  6
CONTINUOUS
 10
131.97512599999979
 20
163.60750899999999
 30
0.001526
 11
131.775126
 21
163.60750899999999
 31
0.001526
  0
LINE
  5
14E3
  8
GAIKEI
  6
CONTINUOUS
 10
132.17512600000001
 20
163.80750900000001
 30
0.001526
 11
135.67512600000001
 21
163.80750900000001
 31
0.001526
  0
LINE
  5
14E4
  8
GAIKEI
  6
CONTINUOUS
 10
130.2751259999998
 20
163.80750900000001
 30
0.001526
 11
131.775126
 21
163.80750900000001
 31
0.001526
  0
LINE
  5
14E5
  8
GAIKEI
  6
CONTINUOUS
 10
130.97512599999979
 20
158.978319
 30
0.001526
 11
130.97512599999979
 21
163.83670000000001
 31
0.001526
  0
LINE
  5
14E6
  8
GAIKEI
  6
CONTINUOUS
 10
131.775126
 20
159.007509
 30
0.001526
 11
131.775126
 21
163.80750900000001
 31
0.001526
  0
LINE
  5
14E7
  8
GAIKEI
  6
CONTINUOUS
 10
148.4751259999999
 20
164.2075089999999
 30
0.001526
 11
148.4751259999999
 21
152.33470299999999
 31
0.001526
  0
LINE
  5
14E8
  8
GAIKEI
  6
CONTINUOUS
 10
146.17512599999981
 20
163.80750900000001
 30
0.001526
 11
142.67512600000001
 21
163.80750900000001
 31
0.001526
  0
LINE
  5
14E9
  8
GAIKEI
  6
CONTINUOUS
 10
146.37512599999991
 20
163.60750899999999
 30
0.001526
 11
146.57512600000001
 21
163.60750899999999
 31
0.001526
  0
LINE
  5
14EA
  8
GAIKEI
  6
CONTINUOUS
 10
146.17512599999981
 20
159.007509
 30
0.001526
 11
142.67512600000001
 21
159.007509
 31
0.001526
  0
LINE
  5
14EB
  8
GAIKEI
  6
CONTINUOUS
 10
146.37512599999991
 20
159.2075089999999
 30
0.001526
 11
146.57512600000001
 21
159.2075089999999
 31
0.001526
  0
LINE
  5
14EC
  8
GAIKEI
  6
CONTINUOUS
 10
146.57512600000001
 20
159.007509
 30
0.001526
 11
146.57512600000001
 21
163.80750900000001
 31
0.001526
  0
LINE
  5
14ED
  8
GAIKEI
  6
CONTINUOUS
 10
147.37512599999999
 20
158.978319
 30
0.001526
 11
147.37512599999999
 21
163.83670000000001
 31
0.001526
  0
LINE
  5
14EE
  8
GAIKEI
  6
CONTINUOUS
 10
148.07512600000001
 20
159.007509
 30
0.001526
 11
146.57512600000001
 21
159.007509
 31
0.001526
  0
LINE
  5
14EF
  8
GAIKEI
  6
CONTINUOUS
 10
148.07512600000001
 20
163.80750900000001
 30
0.001526
 11
146.57512600000001
 21
163.80750900000001
 31
0.001526
  0
LINE
  5
14F0
  8
GAIKEI
  6
CONTINUOUS
 10
147.09445099999991
 20
152.288915
 30
0.001526
 11
147.25828100000001
 21
152.1741989999999
 31
0.001526
  0
LINE
  5
14F1
  8
GAIKEI
  6
CONTINUOUS
 10
147.04533599999999
 20
152.56746000000001
 30
0.001526
 11
144.178303
 21
154.5749779999999
 31
0.001526
  0
LINE
  5
14F2
  8
GAIKEI
  6
CONTINUOUS
 10
144.57071399999981
 20
148.6846459999999
 30
0.001526
 11
144.734545
 21
148.56993
 31
0.001526
  0
LINE
  5
14F3
  8
GAIKEI
  6
CONTINUOUS
 10
144.292169
 20
148.6355309999999
 30
0.001526
 11
141.42513700000001
 21
150.64304799999979
 31
0.001526
  0
LINE
  5
14F4
  8
GAIKEI
  6
CONTINUOUS
 10
144.61983000000001
 20
148.40610000000001
 30
0.001526
 11
147.372996
 21
152.33803
 31
0.001526
  0
LINE
  5
14F5
  8
CENTER
 10
140.5362869999999
 20
152.2075089999999
 30
0.001526
 11
146.213966
 21
152.2075089999999
 31
0.001526
  0
LINE
  5
14F6
  8
GAIKEI
  6
CONTINUOUS
 10
145.27515099999979
 20
147.94723899999991
 30
0.001526
 11
148.06725800000001
 21
151.93477999999999
 31
0.001526
  0
LINE
  5
14F7
  8
GAIKEI
  6
CONTINUOUS
 10
147.845696
 20
152.00704199999981
 30
0.001526
 11
147.372996
 21
152.33803
 31
0.001526
  0
LINE
  5
14F8
  8
GAIKEI
  6
CONTINUOUS
 10
147.29179399999981
 20
146.53516999999999
 30
0.001526
 11
144.61983000000001
 21
148.40610000000001
 31
0.001526
  0
LINE
  5
14F9
  8
CENTER
 10
143.37512599999999
 20
155.00750899999991
 30
0.001526
 11
143.37512599999999
 21
149.216612
 31
0.001526
  0
LINE
  5
14FA
  8
GAIKEI
  6
CONTINUOUS
 10
105.675211
 20
148.11507299999991
 30
0.001526
 11
105.675211
 21
145.80750900000001
 31
0.001526
  0
LINE
  5
14FB
  8
GAIKEI
  6
CONTINUOUS
 10
107.025211
 20
159.02808999999991
 30
0.001526
 11
107.025211
 21
152.3658359999998
 31
0.001526
  0
LINE
  5
14FC
  8
GAIKEI
  6
CONTINUOUS
 10
106.37521099999999
 20
152.3658359999998
 30
0.001526
 11
106.37521099999999
 21
151.77739499999981
 31
0.001526
  0
LINE
  5
14FD
  8
GAIKEI
  6
CONTINUOUS
 10
104.893449
 20
151.57739499999991
 30
0.001526
 11
104.893449
 21
145.80750900000001
 31
0.001526
  0
LINE
  5
14FE
  8
GAIKEI
  6
CONTINUOUS
 10
105.675211
 20
171.23762400000001
 30
0.001526
 11
105.675211
 21
163.8280899999998
 31
0.001526
  0
LINE
  5
14FF
  8
GAIKEI
  6
CONTINUOUS
 10
111.37521099999989
 20
149.94101000000001
 30
0.001526
 11
111.37521099999989
 21
150.41014099999981
 31
0.001526
  0
LINE
  5
1500
  8
GAIKEI
  6
CONTINUOUS
 10
106.175211
 20
151.57739499999991
 30
0.001526
 11
104.893449
 21
151.57739499999991
 31
0.001526
  0
LINE
  5
1501
  8
GAIKEI
  6
CONTINUOUS
 10
106.37521099999999
 20
147.98531499999979
 30
0.001526
 11
107.87521099999989
 21
147.98531499999979
 31
0.001526
  0
LINE
  5
1502
  8
GAIKEI
  6
CONTINUOUS
 10
106.175211
 20
148.11507299999991
 30
0.001526
 11
104.87521099999989
 21
148.11507299999991
 31
0.001526
  0
LINE
  5
1503
  8
GAIKEI
  6
CONTINUOUS
 10
107.87521099999989
 20
147.98531499999979
 30
0.001526
 11
108.87521099999989
 21
147.98531499999979
 31
0.001526
  0
LINE
  5
1504
  8
GAIKEI
  6
CONTINUOUS
 10
108.87521099999989
 20
151.90697399999991
 30
0.001526
 11
106.37521099999999
 21
151.90697399999991
 31
0.001526
  0
LINE
  5
1505
  8
GAIKEI
  6
CONTINUOUS
 10
108.87521099999989
 20
152.3658359999998
 30
0.001526
 11
106.37521099999999
 21
152.3658359999998
 31
0.001526
  0
LINE
  5
1506
  8
GAIKEI
  6
CONTINUOUS
 10
105.675211
 20
159.02808999999991
 30
0.001526
 11
105.675211
 21
157.907509
 31
0.001526
  0
LINE
  5
1507
  8
CENTER
 10
108.87521099999989
 20
165.3780899999999
 30
0.001526
 11
108.87521099999989
 21
157.4780899999999
 31
0.001526
  0
LINE
  5
1508
  8
GAIKEI
  6
CONTINUOUS
 10
107.025211
 20
155.657509
 30
0.001526
 11
105.675211
 21
155.657509
 31
0.001526
  0
LINE
  5
1509
  8
GAIKEI
  6
CONTINUOUS
 10
107.025211
 20
157.657509
 30
0.001526
 11
105.675211
 21
157.657509
 31
0.001526
  0
LINE
  5
150A
  8
GAIKEI
  6
CONTINUOUS
 10
107.025211
 20
165.157509
 30
0.001526
 11
105.675211
 21
165.157509
 31
0.001526
  0
LINE
  5
150B
  8
GAIKEI
  6
CONTINUOUS
 10
107.025211
 20
167.157509
 30
0.001526
 11
105.675211
 21
167.157509
 31
0.001526
  0
LINE
  5
150C
  8
CENTER
 10
84.825210999999967
 20
148.407509
 30
0.001526
 11
89.125210999999965
 21
148.407509
 31
0.001526
  0
LINE
  5
150D
  8
CENTER
 10
84.825210999999967
 20
174.407509
 30
0.001526
 11
89.125210999999965
 21
174.407509
 31
0.001526
  0
LINE
  5
150E
  8
GAIKEI
  6
CONTINUOUS
 10
85.675211000000004
 20
155.80750900000001
 30
0.001526
 11
86.975211000000016
 21
155.00750899999991
 31
0.001526
  0
LINE
  5
150F
  8
GAIKEI
  6
CONTINUOUS
 10
85.675211000000004
 20
167.007509
 30
0.001526
 11
86.975211000000016
 21
167.80750900000001
 31
0.001526
  0
LINE
  5
1510
  8
GAIKEI
  6
CONTINUOUS
 10
107.025211
 20
170.449183
 30
0.001526
 11
107.025211
 21
163.8280899999998
 31
0.001526
  0
LINE
  5
1511
  8
GAIKEI
  6
CONTINUOUS
 10
105.675211
 20
177.00750899999991
 30
0.001526
 11
105.675211
 21
174.6999459999999
 31
0.001526
  0
LINE
  5
1512
  8
GAIKEI
  6
CONTINUOUS
 10
104.8939389999999
 20
176.9297039999999
 30
0.001526
 11
104.8939389999999
 21
171.23762400000001
 31
0.001526
  0
LINE
  5
1513
  8
GAIKEI
  6
CONTINUOUS
 10
87.625210999999979
 20
177.00750899999991
 30
0.001526
 11
87.625210999999979
 21
145.80750900000001
 31
0.001526
  0
LINE
  5
1514
  8
GAIKEI
  6
CONTINUOUS
 10
86.975211000000016
 20
177.00750899999991
 30
0.001526
 11
86.975211000000016
 21
145.80750900000001
 31
0.001526
  0
LINE
  5
1515
  8
GAIKEI
  6
CONTINUOUS
 10
86.975211000000016
 20
145.80750900000001
 30
0.001526
 11
105.675211
 21
145.80750900000001
 31
0.001526
  0
LINE
  5
1516
  8
GAIKEI
  6
CONTINUOUS
 10
86.975211000000016
 20
177.00750899999991
 30
0.001526
 11
105.675211
 21
177.00750899999991
 31
0.001526
  0
LINE
  5
1517
  8
GAIKEI
  6
CONTINUOUS
 10
85.675211000000004
 20
167.407509
 30
0.001526
 11
85.675211000000004
 21
155.40750899999981
 31
0.001526
  0
LINE
  5
1518
  8
CENTER
 10
132.2751259999998
 20
152.2075089999999
 30
0.001526
 11
137.7751259999998
 21
152.2075089999999
 31
0.001526
  0
LINE
  5
1519
  8
CENTER
 10
134.9751259999999
 20
155.00750899999991
 30
0.001526
 11
134.9751259999999
 21
149.216612
 31
0.001526
  0
LINE
  5
151A
  8
CENTER
 10
134.9751259999999
 20
164.10750899999999
 30
0.001526
 11
134.9751259999999
 21
158.7075089999999
 31
0.001526
  0
LINE
  5
151B
  8
CENTER
 10
143.37512599999999
 20
164.10750899999999
 30
0.001526
 11
143.37512599999999
 21
158.7075089999999
 31
0.001526
  0
LINE
  5
151C
  8
CENTER
 10
140.67512600000001
 20
170.60750899999991
 30
0.001526
 11
145.37512599999991
 21
170.60750899999991
 31
0.001526
  0
LINE
  5
151D
  8
CENTER
 10
132.2751259999998
 20
170.60750899999991
 30
0.001526
 11
137.67512600000001
 21
170.60750899999991
 31
0.001526
  0
LINE
  5
151E
  8
CENTER
 10
134.9751259999999
 20
173.3075089999999
 30
0.001526
 11
134.9751259999999
 21
167.90750899999981
 31
0.001526
  0
LINE
  5
151F
  8
CENTER
 10
143.37512599999999
 20
173.3075089999999
 30
0.001526
 11
143.37512599999999
 21
167.90750899999981
 31
0.001526
  0
LINE
  5
1520
  8
GAIKEI
  6
CONTINUOUS
 10
130.87512599999991
 20
177.00750899999991
 30
0.001526
 11
147.47512599999979
 21
177.00750899999991
 31
0.001526
  0
LINE
  5
1521
  8
CENTER
 10
128.37512599999999
 20
161.407509
 30
0.001526
 11
149.97512599999999
 21
161.407509
 31
0.001526
  0
LINE
  5
1522
  8
GAIKEI
  6
CONTINUOUS
 10
148.4751259999999
 20
176.00750899999991
 30
0.001526
 11
148.4751259999999
 21
164.2075089999999
 31
0.001526
  0
LINE
  5
1523
  8
CENTER
 10
139.17512600000001
 20
178.507509
 30
0.001526
 11
139.17512600000001
 21
144.30750900000001
 31
0.001526
  0
LINE
  5
1524
  8
CENTER
 10
27.727779999999999
 20
148.407509
 30
0.001526
 11
33.727779999999981
 21
148.407509
 31
0.001526
  0
LINE
  5
1525
  8
CENTER
 10
27.727779999999999
 20
174.407509
 30
0.001526
 11
33.727779999999981
 21
174.407509
 31
0.001526
  0
LINE
  5
1526
  8
GAIKEI
  6
CONTINUOUS
 10
22.427779999999991
 20
145.80750900000001
 30
0.001526
 11
39.027779999999993
 21
145.80750900000001
 31
0.001526
  0
LINE
  5
1527
  8
GAIKEI
  6
CONTINUOUS
 10
22.427779999999991
 20
177.00750899999991
 30
0.001526
 11
39.027779999999993
 21
177.00750899999991
 31
0.001526
  0
LINE
  5
1528
  8
GAIKEI
  6
CONTINUOUS
 10
40.02778
 20
176.00750899999991
 30
0.001526
 11
40.02778
 21
146.80750900000001
 31
0.001526
  0
LINE
  5
1529
  8
GAIKEI
  6
CONTINUOUS
 10
21.427779999999991
 20
176.00750899999991
 30
0.001526
 11
21.427779999999991
 21
146.80750900000001
 31
0.001526
  0
LINE
  5
152A
  8
GAIKEI
  6
CONTINUOUS
 10
86.975211000000016
 20
150.36904799999991
 30
0.001526
 11
86.375210999999979
 21
149.907509
 31
0.001526
  0
LINE
  5
152B
  8
GAIKEI
  6
CONTINUOUS
 10
86.975211000000016
 20
146.44597099999979
 30
0.001526
 11
86.375210999999979
 21
146.907509
 31
0.001526
  0
LINE
  5
152C
  8
GAIKEI
  6
CONTINUOUS
 10
86.375210999999979
 20
149.907509
 30
0.001526
 11
86.375210999999979
 21
146.907509
 31
0.001526
  0
LINE
  5
152D
  8
GAIKEI
  6
CONTINUOUS
 10
86.975211000000016
 20
172.4459709999999
 30
0.001526
 11
86.375210999999979
 21
172.907509
 31
0.001526
  0
LINE
  5
152E
  8
GAIKEI
  6
CONTINUOUS
 10
86.975211000000016
 20
176.36904799999991
 30
0.001526
 11
86.375210999999979
 21
175.907509
 31
0.001526
  0
LINE
  5
152F
  8
GAIKEI
  6
CONTINUOUS
 10
86.375210999999979
 20
175.907509
 30
0.001526
 11
86.375210999999979
 21
172.907509
 31
0.001526
  0
LINE
  5
1530
  8
CENTER
 10
20.227779999999999
 20
161.407509
 30
0.001526
 11
38.027779999999993
 21
161.407509
 31
0.001526
  0
LINE
  5
1531
  8
GAIKEI
  6
CONTINUOUS
 10
81.061351999999999
 20
155.40750899999981
 30
0.001526
 11
81.175211000000004
 21
155.40750899999981
 31
0.001526
  0
LINE
  5
1532
  8
GAIKEI
  6
CONTINUOUS
 10
81.175211000000004
 20
155.40750899999981
 30
0.001526
 11
81.175211000000004
 21
153.4575089999999
 31
0.001526
  0
LINE
  5
1533
  8
CENTER
 10
145.37512599999991
 20
170.60750899999991
 30
0.001526
 11
146.07512600000001
 21
170.60750899999991
 31
0.001526
  0
ARC
  5
1534
  8
GAIKEI
  6
CONTINUOUS
 10
139.17512600000001
 20
148.407509
 30
0.001526
 40
2.5
 50
130.5358019999999
 51
229.46419800000001
  0
ARC
  5
1535
  8
GAIKEI
  6
CONTINUOUS
 10
139.17512600000001
 20
148.407509
 30
0.001526
 40
2.5
 50
310.53580199999999
 51
0.0
  0
ARC
  5
1536
  8
GAIKEI
  6
CONTINUOUS
 10
139.17512600000001
 20
148.407509
 30
0.001526
 40
2.5
 50
0.0
 51
49.46419800000001
  0
ARC
  5
1537
  8
GAIKEI
  6
CONTINUOUS
 10
73.625842000000006
 20
89.744954000000007
 30
0.001526
 40
7.9000000000000004
 50
90.0
 51
270.0
  0
ARC
  5
1538
  8
GAIKEI
  6
CONTINUOUS
 10
73.625842000000006
 20
89.744954000000007
 30
0.001526
 40
7.9000000000000004
 50
270.0
 51
0.0
  0
ARC
  5
1539
  8
GAIKEI
  6
CONTINUOUS
 10
73.625842000000006
 20
89.744954000000007
 30
0.001526
 40
7.9000000000000004
 50
0.0
 51
90.0
  0
ARC
  5
153A
  8
GAIKEI
  6
CONTINUOUS
 10
66.375842000000006
 20
89.744954000000007
 30
0.001526
 40
1.1999999999999991
 50
291.55443700000001
 51
68.445563000000007
  0
ARC
  5
153B
  8
GAIKEI
  6
CONTINUOUS
 10
67.347157999999993
 20
86.119954000000007
 30
0.001526
 40
1.1999999999999991
 50
321.55443699999989
 51
98.445563000000007
  0
ARC
  5
153C
  8
GAIKEI
  6
CONTINUOUS
 10
70.000842000000006
 20
83.46626999999998
 30
0.001526
 40
1.1999999999999991
 50
351.55443700000001
 51
128.44556299999991
  0
ARC
  5
153D
  8
GAIKEI
  6
CONTINUOUS
 10
73.625842000000006
 20
82.494954000000007
 30
0.001526
 40
1.1999999999999991
 50
90.0
 51
158.44556299999991
  0
ARC
  5
153E
  8
GAIKEI
  6
CONTINUOUS
 10
77.250842000000006
 20
83.46626999999998
 30
0.001526
 40
1.1999999999999991
 50
51.554437
 51
188.44556299999991
  0
ARC
  5
153F
  8
GAIKEI
  6
CONTINUOUS
 10
79.904526000000004
 20
86.119954000000007
 30
0.001526
 40
1.1999999999999991
 50
81.554436999999965
 51
218.44556299999999
  0
ARC
  5
1540
  8
GAIKEI
  6
CONTINUOUS
 10
80.875842000000006
 20
89.744954000000007
 30
0.001526
 40
1.1999999999999991
 50
111.55443699999999
 51
248.44556299999991
  0
ARC
  5
1541
  8
GAIKEI
  6
CONTINUOUS
 10
79.904526000000004
 20
93.369954000000007
 30
0.001526
 40
1.1999999999999991
 50
141.55443700000001
 51
278.44556299999999
  0
ARC
  5
1542
  8
GAIKEI
  6
CONTINUOUS
 10
77.250842000000006
 20
96.023639000000003
 30
0.001526
 40
1.1999999999999991
 50
171.55443700000001
 51
308.44556299999988
  0
ARC
  5
1543
  8
GAIKEI
  6
CONTINUOUS
 10
73.625842000000006
 20
96.994954000000007
 30
0.001526
 40
1.1999999999999991
 50
270.0
 51
338.44556299999999
  0
ARC
  5
1544
  8
GAIKEI
  6
CONTINUOUS
 10
70.000842000000006
 20
96.023639000000003
 30
0.001526
 40
1.1999999999999991
 50
231.55443700000001
 51
8.4455629999999982
  0
ARC
  5
1545
  8
GAIKEI
  6
CONTINUOUS
 10
67.347157999999993
 20
93.369954000000007
 30
0.001526
 40
1.1999999999999991
 50
261.55443700000001
 51
38.445563
  0
ARC
  5
1546
  8
GAIKEI
  6
CONTINUOUS
 10
73.625842000000006
 20
89.744954000000007
 30
0.001526
 40
6.9000000000000004
 50
189.30855199999991
 51
200.69144799999981
  0
ARC
  5
1547
  8
GAIKEI
  6
CONTINUOUS
 10
73.625842000000006
 20
89.744954000000007
 30
0.001526
 40
6.9000000000000004
 50
219.30855199999991
 51
230.69144800000001
  0
ARC
  5
1548
  8
GAIKEI
  6
CONTINUOUS
 10
73.625842000000006
 20
89.744954000000007
 30
0.001526
 40
6.9000000000000004
 50
249.30855199999999
 51
260.69144799999992
  0
ARC
  5
1549
  8
GAIKEI
  6
CONTINUOUS
 10
73.625842000000006
 20
89.744954000000007
 30
0.001526
 40
6.9000000000000004
 50
279.30855200000002
 51
290.69144799999998
  0
ARC
  5
154A
  8
GAIKEI
  6
CONTINUOUS
 10
73.625842000000006
 20
89.744954000000007
 30
0.001526
 40
6.9000000000000004
 50
309.30855200000002
 51
320.69144799999998
  0
ARC
  5
154B
  8
GAIKEI
  6
CONTINUOUS
 10
73.625842000000006
 20
89.744954000000007
 30
0.001526
 40
6.9000000000000004
 50
339.30855200000002
 51
350.69144799999992
  0
ARC
  5
154C
  8
GAIKEI
  6
CONTINUOUS
 10
73.625842000000006
 20
89.744954000000007
 30
0.001526
 40
6.9000000000000004
 50
9.3085520000000006
 51
20.691448000000001
  0
ARC
  5
154D
  8
GAIKEI
  6
CONTINUOUS
 10
73.625842000000006
 20
89.744954000000007
 30
0.001526
 40
6.9000000000000004
 50
39.308551999999992
 51
50.691448000000001
  0
ARC
  5
154E
  8
GAIKEI
  6
CONTINUOUS
 10
73.625842000000006
 20
89.744954000000007
 30
0.001526
 40
6.9000000000000004
 50
69.308552000000006
 51
80.69144799999998
  0
ARC
  5
154F
  8
GAIKEI
  6
CONTINUOUS
 10
73.625842000000006
 20
89.744954000000007
 30
0.001526
 40
6.9000000000000004
 50
99.308551999999992
 51
110.6914479999998
  0
ARC
  5
1550
  8
GAIKEI
  6
CONTINUOUS
 10
73.625842000000006
 20
89.744954000000007
 30
0.001526
 40
6.9000000000000004
 50
129.30855199999991
 51
140.69144800000001
  0
ARC
  5
1551
  8
GAIKEI
  6
CONTINUOUS
 10
73.625842000000006
 20
89.744954000000007
 30
0.001526
 40
6.9000000000000004
 50
159.30855199999991
 51
170.69144800000001
  0
ARC
  5
1552
  8
GAIKEI
  6
CONTINUOUS
 10
113.40633200000001
 20
50.191575
 30
0.001526
 40
13.374772
 50
72.412046000000018
 51
107.587954
  0
ARC
  5
1553
  8
GAIKEI
  6
CONTINUOUS
 10
113.40633200000001
 20
74.941119
 30
0.001526
 40
13.374772
 50
252.412046
 51
287.58795400000002
  0
ARC
  5
1554
  8
GAIKEI
  6
CONTINUOUS
 10
73.625842000000006
 20
96.994954000000007
 30
0.001526
 40
1.1999999999999991
 50
201.55443700000001
 51
270.0
  0
ARC
  5
1555
  8
GAIKEI
  6
CONTINUOUS
 10
73.625842000000006
 20
82.494954000000007
 30
0.001526
 40
1.1999999999999991
 50
21.554437
 51
90.0
  0
ARC
  5
1556
  8
GAIKEI
  6
CONTINUOUS
 10
29.897976
 20
63.351346999999997
 30
0.001526
 40
0.165
 50
0.0
 51
180.0
  0
ARC
  5
1557
  8
GAIKEI
  6
CONTINUOUS
 10
29.562975999999999
 20
63.34634699999998
 30
0.001526
 40
0.17
 50
0.0
 51
180.0
  0
ARC
  5
1558
  8
GAIKEI
  6
CONTINUOUS
 10
33.492975999999992
 20
63.101779000000001
 30
0.001526
 40
0.4160840000000002
 50
15.982856
 51
164.017144
  0
ARC
  5
1559
  8
GAIKEI
  6
CONTINUOUS
 10
31.392976000000001
 20
63.316347
 30
0.001526
 40
0.2
 50
0.0
 51
180.0
  0
ARC
  5
155A
  8
GAIKEI
  6
CONTINUOUS
 10
30.992975999999992
 20
63.316347
 30
0.001526
 40
0.2
 50
0.0
 51
180.0
  0
ARC
  5
155B
  8
GAIKEI
  6
CONTINUOUS
 10
30.592976
 20
63.316347
 30
0.001526
 40
0.2
 50
0.0
 51
180.0
  0
ARC
  5
155C
  8
GAIKEI
  6
CONTINUOUS
 10
31.842976
 20
63.266346999999989
 30
0.001526
 40
0.25
 50
0.0
 51
180.0
  0
ARC
  5
155D
  8
GAIKEI
  6
CONTINUOUS
 10
32.342976
 20
63.266346999999989
 30
0.001526
 40
0.25
 50
0.0
 51
180.0
  0
ARC
  5
155E
  8
GAIKEI
  6
CONTINUOUS
 10
32.842976
 20
63.266346999999989
 30
0.001526
 40
0.25
 50
0.0
 51
180.0
  0
ARC
  5
155F
  8
GAIKEI
  6
CONTINUOUS
 10
30.227976000000002
 20
63.351346999999997
 30
0.001526
 40
0.165
 50
0.0
 51
180.0
  0
ARC
  5
1560
  8
GAIKEI
  6
CONTINUOUS
 10
35.992975999999992
 20
62.950738999999999
 30
0.001526
 40
0.56617
 50
27.97792299999999
 51
152.02207699999991
  0
ARC
  5
1561
  8
GAIKEI
  6
CONTINUOUS
 10
35.092976
 20
63.101779000000001
 30
0.001526
 40
0.4160840000000002
 50
15.982856
 51
164.017144
  0
ARC
  5
1562
  8
GAIKEI
  6
CONTINUOUS
 10
34.292976000000003
 20
63.101779000000001
 30
0.001526
 40
0.4160840000000002
 50
15.982856
 51
164.017144
  0
ARC
  5
1563
  8
GAIKEI
  6
CONTINUOUS
 10
44.422975999999977
 20
63.34634699999998
 30
0.001526
 40
0.17
 50
0.0
 51
180.0
  0
ARC
  5
1564
  8
GAIKEI
  6
CONTINUOUS
 10
44.087975999999983
 20
63.351346999999997
 30
0.001526
 40
0.165
 50
0.0
 51
180.0
  0
ARC
  5
1565
  8
GAIKEI
  6
CONTINUOUS
 10
43.757975999999999
 20
63.351346999999997
 30
0.001526
 40
0.165
 50
0.0
 51
180.0
  0
ARC
  5
1566
  8
GAIKEI
  6
CONTINUOUS
 10
43.392975999999997
 20
63.316347
 30
0.001526
 40
0.2
 50
0.0
 51
180.0
  0
ARC
  5
1567
  8
GAIKEI
  6
CONTINUOUS
 10
42.992975999999999
 20
63.316347
 30
0.001526
 40
0.2
 50
0.0
 51
180.0
  0
ARC
  5
1568
  8
GAIKEI
  6
CONTINUOUS
 10
42.592976
 20
63.316347
 30
0.001526
 40
0.2
 50
0.0
 51
180.0
  0
ARC
  5
1569
  8
GAIKEI
  6
CONTINUOUS
 10
42.142975999999997
 20
63.266346999999989
 30
0.001526
 40
0.25
 50
0.0
 51
180.0
  0
ARC
  5
156A
  8
GAIKEI
  6
CONTINUOUS
 10
41.642975999999997
 20
63.266346999999989
 30
0.001526
 40
0.25
 50
0.0
 51
180.0
  0
ARC
  5
156B
  8
GAIKEI
  6
CONTINUOUS
 10
41.14297599999999
 20
63.266346999999989
 30
0.001526
 40
0.25
 50
0.0
 51
180.0
  0
ARC
  5
156C
  8
GAIKEI
  6
CONTINUOUS
 10
40.492975999999999
 20
63.101779000000001
 30
0.001526
 40
0.4160840000000002
 50
15.982856
 51
164.017144
  0
ARC
  5
156D
  8
GAIKEI
  6
CONTINUOUS
 10
39.692976000000002
 20
63.101779000000001
 30
0.001526
 40
0.4160840000000002
 50
15.982856
 51
164.017144
  0
ARC
  5
156E
  8
GAIKEI
  6
CONTINUOUS
 10
38.89297599999999
 20
63.101779000000001
 30
0.001526
 40
0.4160840000000002
 50
15.982856
 51
164.017144
  0
ARC
  5
156F
  8
GAIKEI
  6
CONTINUOUS
 10
36.992975999999992
 20
62.950738999999999
 30
0.001526
 40
0.56617
 50
27.97792299999999
 51
152.02207699999991
  0
ARC
  5
1570
  8
GAIKEI
  6
CONTINUOUS
 10
37.992975999999999
 20
62.950738999999999
 30
0.001526
 40
0.56617
 50
27.97792299999999
 51
152.02207699999991
  0
ARC
  5
1571
  8
GAIKEI
  6
CONTINUOUS
 10
139.17512600000001
 20
151.407509
 30
0.001526
 40
1.0
 50
180.0
 51
0.0
  0
ARC
  5
1572
  8
GAIKEI
  6
CONTINUOUS
 10
133.17512600000001
 20
156.657509
 30
0.001526
 40
1.0
 50
90.0
 51
270.0
  0
ARC
  5
1573
  8
GAIKEI
  6
CONTINUOUS
 10
145.17512599999981
 20
156.657509
 30
0.001526
 40
1.0
 50
270.0
 51
90.0
  0
ARC
  5
1574
  8
GAIKEI
  6
CONTINUOUS
 10
139.17512600000001
 20
171.407509
 30
0.001526
 40
1.0
 50
0.0
 51
180.0
  0
ARC
  5
1575
  8
GAIKEI
  6
CONTINUOUS
 10
145.17512599999981
 20
166.157509
 30
0.001526
 40
1.0
 50
270.0
 51
90.0
  0
ARC
  5
1576
  8
GAIKEI
  6
CONTINUOUS
 10
133.17512600000001
 20
166.157509
 30
0.001526
 40
1.0
 50
90.0
 51
270.0
  0
ARC
  5
1577
  8
GAIKEI
  6
CONTINUOUS
 10
106.175211
 20
152.23625699999999
 30
0.001526
 40
0.2
 50
270.0
 51
0.0
  0
ARC
  5
1578
  8
GAIKEI
  6
CONTINUOUS
 10
106.175211
 20
170.57876299999981
 30
0.001526
 40
0.2
 50
0.0
 51
90.0
  0
ARC
  5
1579
  8
GAIKEI
  6
CONTINUOUS
 10
108.87521099999989
 20
161.407509
 30
0.001526
 40
2.5
 50
286.26020499999993
 51
73.739795000000001
  0
ARC
  5
157A
  8
GAIKEI
  6
CONTINUOUS
 10
105.87521099999989
 20
163.80750900000001
 30
0.001526
 40
0.2
 50
270.0
 51
0.0
  0
ARC
  5
157B
  8
GAIKEI
  6
CONTINUOUS
 10
105.87521099999989
 20
159.007509
 30
0.001526
 40
0.2
 50
0.0
 51
90.0
  0
ARC
  5
157C
  8
DIM
 10
81.035999000000004
 20
161.407509
 30
0.001526
 40
22.860789
 50
180.0
 51
194.26213899999999
  0
ARC
  5
157D
  8
DIM
 10
81.035999000000004
 20
161.407509
 30
0.001526
 40
22.860789
 50
157.84274299999981
 51
180.0
  0
ARC
  5
157E
  8
GAIKEI
  6
CONTINUOUS
 10
109.83102
 20
172.40487899999991
 30
0.001526
 40
1.5441910000000001
 50
332.098972
 51
359.99994900000002
  0
ARC
  5
157F
  8
GAIKEI
  6
CONTINUOUS
 10
109.37036599999981
 20
172.648796
 30
0.001526
 40
2.065436
 50
308.03527000000008
 51
332.09891199999998
  0
ARC
  5
1580
  8
GAIKEI
  6
CONTINUOUS
 10
109.0706659999999
 20
173.03190599999999
 30
0.001526
 40
2.5518450000000001
 50
287.95380699999993
 51
308.03530499999982
  0
ARC
  5
1581
  8
GAIKEI
  6
CONTINUOUS
 10
108.8752069999999
 20
173.63510500000001
 30
0.001526
 40
3.1859229999999981
 50
270.00007199999988
 51
287.95389999999992
  0
ARC
  5
1582
  8
GAIKEI
  6
CONTINUOUS
 10
106.175211
 20
171.03762399999991
 30
0.001526
 40
0.2
 50
0.0
 51
90.0
  0
ARC
  5
1583
  8
GAIKEI
  6
CONTINUOUS
 10
108.8752069999999
 20
171.6437809999999
 30
0.001526
 40
3.1859229999999981
 50
72.046099999999996
 51
89.999927999999997
  0
ARC
  5
1584
  8
GAIKEI
  6
CONTINUOUS
 10
109.0706659999999
 20
172.24698099999981
 30
0.001526
 40
2.5518450000000001
 50
51.964694999999999
 51
72.046193000000002
  0
ARC
  5
1585
  8
GAIKEI
  6
CONTINUOUS
 10
109.3703639999999
 20
172.63009
 30
0.001526
 40
2.0654379999999981
 50
27.901046000000001
 51
51.964686999999998
  0
ARC
  5
1586
  8
GAIKEI
  6
CONTINUOUS
 10
109.8310219999999
 20
172.87400700000001
 30
0.001526
 40
1.544189
 50
0.000069
 51
27.901046000000001
  0
ARC
  5
1587
  8
GAIKEI
  6
CONTINUOUS
 10
106.175211
 20
174.918958
 30
0.001526
 40
0.219012
 50
270.0
 51
335.95007399999992
  0
ARC
  5
1588
  8
GAIKEI
  6
CONTINUOUS
 10
108.4859639999999
 20
172.4151479999999
 30
0.001526
 40
0.8107549999999999
 50
153.17598699999991
 51
163.5616389999999
  0
ARC
  5
1589
  8
GAIKEI
  6
CONTINUOUS
 10
108.67389799999999
 20
172.32011799999981
 30
0.001526
 40
1.021347999999999
 50
129.32274599999991
 51
153.1760219999999
  0
ARC
  5
158A
  8
GAIKEI
  6
CONTINUOUS
 10
108.79582499999999
 20
172.171267
 30
0.001526
 40
1.2137610000000001
 50
108.7421999999999
 51
129.32257899999991
  0
ARC
  5
158B
  8
GAIKEI
  6
CONTINUOUS
 10
108.8752129999999
 20
171.937299
 30
0.001526
 40
1.4608309999999991
 50
90.000111000000004
 51
108.7422959999999
  0
ARC
  5
158C
  8
GAIKEI
  6
CONTINUOUS
 10
108.8752069999999
 20
171.9373019999999
 30
0.001526
 40
1.460828
 50
71.257684999999995
 51
89.999870000000001
  0
ARC
  5
158D
  8
GAIKEI
  6
CONTINUOUS
 10
108.9545949999999
 20
172.171267
 30
0.001526
 40
1.2137610000000001
 50
50.677421000000002
 51
71.257800000000017
  0
ARC
  5
158E
  8
GAIKEI
  6
CONTINUOUS
 10
109.0765219999999
 20
172.32011799999981
 30
0.001526
 40
1.021347999999999
 50
26.823978
 51
50.677253999999991
  0
ARC
  5
158F
  8
GAIKEI
  6
CONTINUOUS
 10
109.264456
 20
172.4151479999999
 30
0.001526
 40
0.8107549999999999
 50
16.438360999999979
 51
26.824013000000001
  0
ARC
  5
1590
  8
GAIKEI
  6
CONTINUOUS
 10
109.8310219999999
 20
172.874011
 30
0.001526
 40
1.544189
 50
332.09895399999982
 51
359.999931
  0
ARC
  5
1591
  8
GAIKEI
  6
CONTINUOUS
 10
109.37036599999981
 20
173.11792800000001
 30
0.001526
 40
2.065436
 50
308.03527000000008
 51
332.09891199999998
  0
ARC
  5
1592
  8
GAIKEI
  6
CONTINUOUS
 10
109.0706629999999
 20
173.501037
 30
0.001526
 40
2.5518469999999991
 50
287.95386300000001
 51
308.03536200000002
  0
ARC
  5
1593
  8
GAIKEI
  6
CONTINUOUS
 10
108.87521
 20
174.10423700000001
 30
0.001526
 40
3.1859220000000001
 50
270.00001500000002
 51
287.95384300000001
  0
ARC
  5
1594
  8
GAIKEI
  6
CONTINUOUS
 10
108.485968
 20
172.87401
 30
0.001526
 40
0.810757
 50
153.17615699999999
 51
180.0001189999999
  0
ARC
  5
1595
  8
GAIKEI
  6
CONTINUOUS
 10
108.67389799999999
 20
172.77897899999991
 30
0.001526
 40
1.021347999999999
 50
129.32274599999991
 51
153.1760219999999
  0
ARC
  5
1596
  8
GAIKEI
  6
CONTINUOUS
 10
108.79582499999999
 20
172.63012800000001
 30
0.001526
 40
1.2137610000000001
 50
108.7421999999999
 51
129.32257899999991
  0
ARC
  5
1597
  8
GAIKEI
  6
CONTINUOUS
 10
108.8752129999999
 20
172.39616000000001
 30
0.001526
 40
1.4608309999999991
 50
90.000111000000004
 51
108.7422959999999
  0
ARC
  5
1598
  8
GAIKEI
  6
CONTINUOUS
 10
108.8752069999999
 20
172.3961629999998
 30
0.001526
 40
1.460828
 50
71.257684999999995
 51
89.999870000000001
  0
ARC
  5
1599
  8
GAIKEI
  6
CONTINUOUS
 10
108.9545949999999
 20
172.63012800000001
 30
0.001526
 40
1.2137610000000001
 50
50.677421000000002
 51
71.257800000000017
  0
ARC
  5
159A
  8
GAIKEI
  6
CONTINUOUS
 10
109.0765219999999
 20
172.77897899999991
 30
0.001526
 40
1.021347999999999
 50
26.823978
 51
50.677253999999991
  0
ARC
  5
159B
  8
GAIKEI
  6
CONTINUOUS
 10
109.264453
 20
172.874008
 30
0.001526
 40
0.810758
 50
0.000029
 51
26.823990999999989
  0
ARC
  5
159C
  8
GAIKEI
  6
CONTINUOUS
 10
109.2644549999999
 20
172.87401
 30
0.001526
 40
0.8107559999999999
 50
333.17597399999983
 51
359.99993599999982
  0
ARC
  5
159D
  8
GAIKEI
  6
CONTINUOUS
 10
109.0765219999999
 20
172.9690389999999
 30
0.001526
 40
1.021347999999999
 50
309.322746
 51
333.17602199999999
  0
ARC
  5
159E
  8
GAIKEI
  6
CONTINUOUS
 10
108.95459199999991
 20
173.1178899999999
 30
0.001526
 40
1.213762999999999
 50
288.74231499999991
 51
309.32269500000001
  0
ARC
  5
159F
  8
GAIKEI
  6
CONTINUOUS
 10
108.87521
 20
173.351855
 30
0.001526
 40
1.460828
 50
270.00001200000003
 51
288.74219599999992
  0
ARC
  5
15A0
  8
GAIKEI
  6
CONTINUOUS
 10
108.87521
 20
173.35185799999991
 30
0.001526
 40
1.4608309999999991
 50
251.25782299999989
 51
270.00000799999992
  0
ARC
  5
15A1
  8
GAIKEI
  6
CONTINUOUS
 10
108.795828
 20
173.1178899999999
 30
0.001526
 40
1.213762999999999
 50
230.67730499999999
 51
251.25768500000001
  0
ARC
  5
15A2
  8
GAIKEI
  6
CONTINUOUS
 10
108.67389799999999
 20
172.9690389999999
 30
0.001526
 40
1.021347999999999
 50
206.82397800000001
 51
230.67725399999981
  0
ARC
  5
15A3
  8
GAIKEI
  6
CONTINUOUS
 10
108.485966
 20
172.874008
 30
0.001526
 40
0.8107549999999999
 50
179.9999159999999
 51
206.82387800000001
  0
ARC
  5
15A4
  8
GAIKEI
  6
CONTINUOUS
 10
78.890210999999979
 20
154.31250900000001
 30
0.001526
 40
0.165
 50
90.0
 51
270.0
  0
ARC
  5
15A5
  8
GAIKEI
  6
CONTINUOUS
 10
78.895211000000003
 20
153.977509
 30
0.001526
 40
0.17
 50
90.0
 51
270.0
  0
ARC
  5
15A6
  8
GAIKEI
  6
CONTINUOUS
 10
79.139779000000004
 20
157.907509
 30
0.001526
 40
0.4160840000000002
 50
105.982856
 51
254.017144
  0
ARC
  5
15A7
  8
GAIKEI
  6
CONTINUOUS
 10
78.925211000000004
 20
155.80750900000001
 30
0.001526
 40
0.2
 50
90.0
 51
270.0
  0
ARC
  5
15A8
  8
GAIKEI
  6
CONTINUOUS
 10
78.925211000000004
 20
155.40750899999981
 30
0.001526
 40
0.2
 50
90.0
 51
270.0
  0
ARC
  5
15A9
  8
GAIKEI
  6
CONTINUOUS
 10
78.925211000000004
 20
155.00750899999991
 30
0.001526
 40
0.2
 50
90.0
 51
270.0
  0
ARC
  5
15AA
  8
GAIKEI
  6
CONTINUOUS
 10
78.975211000000002
 20
156.25750899999991
 30
0.001526
 40
0.25
 50
90.0
 51
270.0
  0
ARC
  5
15AB
  8
GAIKEI
  6
CONTINUOUS
 10
78.975211000000002
 20
156.757509
 30
0.001526
 40
0.25
 50
90.0
 51
270.0
  0
ARC
  5
15AC
  8
GAIKEI
  6
CONTINUOUS
 10
78.975211000000002
 20
157.25750899999991
 30
0.001526
 40
0.25
 50
90.0
 51
270.0
  0
ARC
  5
15AD
  8
GAIKEI
  6
CONTINUOUS
 10
78.890210999999979
 20
154.6425089999999
 30
0.001526
 40
0.165
 50
90.0
 51
270.0
  0
ARC
  5
15AE
  8
GAIKEI
  6
CONTINUOUS
 10
79.290818000000002
 20
160.407509
 30
0.001526
 40
0.566169
 50
117.9779229999999
 51
242.02207699999991
  0
ARC
  5
15AF
  8
GAIKEI
  6
CONTINUOUS
 10
79.139779000000004
 20
159.50750899999991
 30
0.001526
 40
0.4160840000000002
 50
105.982856
 51
254.017144
  0
ARC
  5
15B0
  8
GAIKEI
  6
CONTINUOUS
 10
79.139779000000004
 20
158.7075089999999
 30
0.001526
 40
0.4160840000000002
 50
105.982856
 51
254.017144
  0
ARC
  5
15B1
  8
GAIKEI
  6
CONTINUOUS
 10
78.895211000000003
 20
168.83750900000001
 30
0.001526
 40
0.17
 50
90.0
 51
270.0
  0
ARC
  5
15B2
  8
GAIKEI
  6
CONTINUOUS
 10
78.890210999999979
 20
168.502509
 30
0.001526
 40
0.165
 50
90.0
 51
270.0
  0
ARC
  5
15B3
  8
GAIKEI
  6
CONTINUOUS
 10
78.890210999999979
 20
168.17250899999999
 30
0.001526
 40
0.165
 50
90.0
 51
270.0
  0
ARC
  5
15B4
  8
GAIKEI
  6
CONTINUOUS
 10
78.925211000000004
 20
167.80750900000001
 30
0.001526
 40
0.2
 50
90.0
 51
270.0
  0
ARC
  5
15B5
  8
GAIKEI
  6
CONTINUOUS
 10
78.925211000000004
 20
167.407509
 30
0.001526
 40
0.2
 50
90.0
 51
270.0
  0
ARC
  5
15B6
  8
GAIKEI
  6
CONTINUOUS
 10
78.925211000000004
 20
167.007509
 30
0.001526
 40
0.2
 50
90.0
 51
270.0
  0
ARC
  5
15B7
  8
GAIKEI
  6
CONTINUOUS
 10
78.975211000000002
 20
166.55750900000001
 30
0.001526
 40
0.25
 50
90.0
 51
270.0
  0
ARC
  5
15B8
  8
GAIKEI
  6
CONTINUOUS
 10
78.975211000000002
 20
166.05750900000001
 30
0.001526
 40
0.25
 50
90.0
 51
270.0
  0
ARC
  5
15B9
  8
GAIKEI
  6
CONTINUOUS
 10
78.975211000000002
 20
165.55750900000001
 30
0.001526
 40
0.25
 50
90.0
 51
270.0
  0
ARC
  5
15BA
  8
GAIKEI
  6
CONTINUOUS
 10
79.139779000000004
 20
164.907509
 30
0.001526
 40
0.4160840000000002
 50
105.982856
 51
254.017144
  0
ARC
  5
15BB
  8
GAIKEI
  6
CONTINUOUS
 10
79.139779000000004
 20
164.10750899999999
 30
0.001526
 40
0.4160840000000002
 50
105.982856
 51
254.017144
  0
ARC
  5
15BC
  8
GAIKEI
  6
CONTINUOUS
 10
79.139779000000004
 20
163.30750900000001
 30
0.001526
 40
0.4160840000000002
 50
105.982856
 51
254.017144
  0
ARC
  5
15BD
  8
GAIKEI
  6
CONTINUOUS
 10
79.290818000000002
 20
161.407509
 30
0.001526
 40
0.566169
 50
117.9779229999999
 51
242.02207699999991
  0
ARC
  5
15BE
  8
GAIKEI
  6
CONTINUOUS
 10
79.290818000000002
 20
162.407509
 30
0.001526
 40
0.566169
 50
117.9779229999999
 51
242.02207699999991
  0
ARC
  5
15BF
  8
GAIKEI
  6
CONTINUOUS
 10
108.79755299999999
 20
145.1063739999999
 30
0.001526
 40
28.961946000000001
 50
154.95668399999991
 51
155.83605600000001
  0
ARC
  5
15C0
  8
GAIKEI
  6
CONTINUOUS
 10
90.828491999999997
 20
153.166256
 30
0.001526
 40
9.2680679999999995
 50
155.82394999999991
 51
158.534831
  0
ARC
  5
15C1
  8
GAIKEI
  6
CONTINUOUS
 10
87.007875999999982
 20
154.666493
 30
0.001526
 40
5.1634589999999987
 50
158.513542
 51
163.261079
  0
ARC
  5
15C2
  8
GAIKEI
  6
CONTINUOUS
 10
85.294363000000004
 20
155.180588
 30
0.001526
 40
3.3744879999999982
 50
163.24071599999991
 51
170.29434900000001
  0
ARC
  5
15C3
  8
GAIKEI
  6
CONTINUOUS
 10
84.383489999999981
 20
155.336648
 30
0.001526
 40
2.4503430000000002
 50
170.30055400000001
 51
179.79681899999991
  0
ARC
  5
15C4
  8
GAIKEI
  6
CONTINUOUS
 10
84.38349599999998
 20
155.354027
 30
0.001526
 40
2.4503490000000001
 50
180.2031689999998
 51
189.699434
  0
ARC
  5
15C5
  8
GAIKEI
  6
CONTINUOUS
 10
85.294363000000004
 20
155.510086
 30
0.001526
 40
3.3744879999999982
 50
189.7056509999999
 51
196.75928400000001
  0
ARC
  5
15C6
  8
GAIKEI
  6
CONTINUOUS
 10
87.007875999999982
 20
156.02418099999991
 30
0.001526
 40
5.1634589999999987
 50
196.738921
 51
201.486458
  0
ARC
  5
15C7
  8
GAIKEI
  6
CONTINUOUS
 10
90.828470999999993
 20
157.52441899999999
 30
0.001526
 40
9.2680480000000003
 50
201.46521999999999
 51
204.17609999999999
  0
ARC
  5
15C8
  8
GAIKEI
  6
CONTINUOUS
 10
108.79755299999999
 20
165.58430100000001
 30
0.001526
 40
28.961946000000001
 50
204.1639439999999
 51
205.04331599999989
  0
ARC
  5
15C9
  8
GAIKEI
  6
CONTINUOUS
 10
108.79755299999999
 20
157.230717
 30
0.001526
 40
28.961946000000001
 50
154.95668399999991
 51
155.83605600000001
  0
ARC
  5
15CA
  8
GAIKEI
  6
CONTINUOUS
 10
90.828470999999993
 20
165.29060000000001
 30
0.001526
 40
9.2680480000000003
 50
155.82390000000001
 51
158.53478000000001
  0
ARC
  5
15CB
  8
GAIKEI
  6
CONTINUOUS
 10
87.007875999999982
 20
166.79083700000001
 30
0.001526
 40
5.1634589999999987
 50
158.513542
 51
163.261079
  0
ARC
  5
15CC
  8
GAIKEI
  6
CONTINUOUS
 10
85.294363000000004
 20
167.30493200000001
 30
0.001526
 40
3.3744879999999982
 50
163.24071599999991
 51
170.29434900000001
  0
ARC
  5
15CD
  8
GAIKEI
  6
CONTINUOUS
 10
84.38349599999998
 20
167.46099199999981
 30
0.001526
 40
2.4503490000000001
 50
170.300566
 51
179.79683099999991
  0
ARC
  5
15CE
  8
GAIKEI
  6
CONTINUOUS
 10
84.38349599999998
 20
167.47836999999981
 30
0.001526
 40
2.4503490000000001
 50
180.2031689999998
 51
189.699434
  0
ARC
  5
15CF
  8
GAIKEI
  6
CONTINUOUS
 10
85.294355000000024
 20
167.63443000000001
 30
0.001526
 40
3.3744800000000001
 50
189.70568299999999
 51
196.75931499999999
  0
ARC
  5
15D0
  8
GAIKEI
  6
CONTINUOUS
 10
87.007875999999982
 20
168.14852500000001
 30
0.001526
 40
5.1634589999999987
 50
196.738921
 51
201.486458
  0
ARC
  5
15D1
  8
GAIKEI
  6
CONTINUOUS
 10
90.828491999999997
 20
169.648762
 30
0.001526
 40
9.2680679999999995
 50
201.465169
 51
204.17605
  0
ARC
  5
15D2
  8
GAIKEI
  6
CONTINUOUS
 10
108.79755299999999
 20
177.70864399999991
 30
0.001526
 40
28.961946000000001
 50
204.1639439999999
 51
205.04331599999989
  0
ARC
  5
15D3
  8
GAIKEI
  6
CONTINUOUS
 10
69.134568999999985
 20
150.631452
 30
0.001526
 40
15.692024999999999
 50
23.792105999999979
 51
25.41515399999999
  0
ARC
  5
15D4
  8
GAIKEI
  6
CONTINUOUS
 10
71.662840000000003
 20
151.74611100000001
 30
0.001526
 40
12.928943999999991
 50
21.84901099999998
 51
23.792207999999999
  0
ARC
  5
15D5
  8
GAIKEI
  6
CONTINUOUS
 10
79.505217000000002
 20
154.89061699999991
 30
0.001526
 40
4.4796370000000003
 50
16.376304999999999
 51
21.849073999999991
  0
ARC
  5
15D6
  8
GAIKEI
  6
CONTINUOUS
 10
80.171595999999965
 20
155.0864439999998
 30
0.001526
 40
3.7850799999999989
 50
10.088635
 51
16.376300000000001
  0
ARC
  5
15D7
  8
GAIKEI
  6
CONTINUOUS
 10
81.66798799999998
 20
155.352689
 30
0.001526
 40
2.2651870000000001
 50
359.81406600000003
 51
10.088561
  0
ARC
  5
15D8
  8
GAIKEI
  6
CONTINUOUS
 10
81.491687999999982
 20
155.35325900000001
 30
0.001526
 40
2.4414869999999991
 50
350.28329300000001
 51
359.81410399999987
  0
ARC
  5
15D9
  8
GAIKEI
  6
CONTINUOUS
 10
80.561578999999981
 20
155.512528
 30
0.001526
 40
3.3851339999999981
 50
343.25182100000001
 51
350.28324399999991
  0
ARC
  5
15DA
  8
GAIKEI
  6
CONTINUOUS
 10
78.839536999999979
 20
156.03073499999991
 30
0.001526
 40
5.183456999999998
 50
338.52270600000003
 51
343.25191599999999
  0
ARC
  5
15DB
  8
GAIKEI
  6
CONTINUOUS
 10
74.961347000000004
 20
157.5566119999998
 30
0.001526
 40
9.3510299999999997
 50
335.83592999999991
 51
338.52274999999992
  0
ARC
  5
15DC
  8
GAIKEI
  6
CONTINUOUS
 10
57.068772000000003
 20
165.58430100000001
 30
0.001526
 40
28.961946000000001
 50
334.956684
 51
335.83605599999993
  0
ARC
  5
15DD
  8
GAIKEI
  6
CONTINUOUS
 10
69.134568999999985
 20
162.75579500000001
 30
0.001526
 40
15.692024999999999
 50
23.792105999999979
 51
25.41515399999999
  0
ARC
  5
15DE
  8
GAIKEI
  6
CONTINUOUS
 10
71.662869000000001
 20
163.87045499999991
 30
0.001526
 40
12.928917
 50
21.849062
 51
23.792259000000001
  0
ARC
  5
15DF
  8
GAIKEI
  6
CONTINUOUS
 10
79.505217000000002
 20
167.0149609999998
 30
0.001526
 40
4.4796370000000003
 50
16.376304999999999
 51
21.849073999999991
  0
ARC
  5
15E0
  8
GAIKEI
  6
CONTINUOUS
 10
80.171595999999965
 20
167.21078799999981
 30
0.001526
 40
3.7850799999999989
 50
10.088635
 51
16.376300000000001
  0
ARC
  5
15E1
  8
GAIKEI
  6
CONTINUOUS
 10
81.667981999999981
 20
167.47703200000001
 30
0.001526
 40
2.2651919999999981
 50
359.814054
 51
10.08854899999999
  0
ARC
  5
15E2
  8
GAIKEI
  6
CONTINUOUS
 10
81.491687999999982
 20
167.47760199999991
 30
0.001526
 40
2.4414869999999991
 50
350.28329300000001
 51
359.81410399999987
  0
ARC
  5
15E3
  8
GAIKEI
  6
CONTINUOUS
 10
80.561588
 20
167.63687100000001
 30
0.001526
 40
3.3851260000000001
 50
343.25178899999992
 51
350.28321199999999
  0
ARC
  5
15E4
  8
GAIKEI
  6
CONTINUOUS
 10
78.839536999999979
 20
168.155079
 30
0.001526
 40
5.183456999999998
 50
338.52270600000003
 51
343.25191599999999
  0
ARC
  5
15E5
  8
GAIKEI
  6
CONTINUOUS
 10
74.961326
 20
169.68095500000001
 30
0.001526
 40
9.3510489999999997
 50
335.835981
 51
338.5228009999999
  0
ARC
  5
15E6
  8
GAIKEI
  6
CONTINUOUS
 10
57.068772000000003
 20
177.70864399999991
 30
0.001526
 40
28.961946000000001
 50
334.956684
 51
335.83605599999993
  0
ARC
  5
15E7
  8
GAIKEI
  6
CONTINUOUS
 10
95.307934999999986
 20
161.407509
 30
0.001526
 40
13.374772
 50
162.412046
 51
197.58795399999991
  0
ARC
  5
15E8
  8
GAIKEI
  6
CONTINUOUS
 10
70.558391
 20
161.407509
 30
0.001526
 40
13.374772
 50
342.41204599999992
 51
17.587954
  0
ARC
  5
15E9
  8
GAIKEI
  6
CONTINUOUS
 10
139.866726
 20
173.71590900000001
 30
0.001526
 40
0.5320000000000003
 50
90.0
 51
180.0
  0
ARC
  5
15EA
  8
GAIKEI
  6
CONTINUOUS
 10
139.866726
 20
175.099109
 30
0.001526
 40
0.5320000000000003
 50
180.0
 51
270.0
  0
ARC
  5
15EB
  8
GAIKEI
  6
CONTINUOUS
 10
138.48352600000001
 20
173.71590900000001
 30
0.001526
 40
0.5320000000000003
 50
0.0
 51
90.0
  0
ARC
  5
15EC
  8
GAIKEI
  6
CONTINUOUS
 10
138.48352600000001
 20
175.099109
 30
0.001526
 40
0.5320000000000003
 50
270.0
 51
0.0
  0
ARC
  5
15ED
  8
GAIKEI
  6
CONTINUOUS
 10
139.866726
 20
149.099109
 30
0.001526
 40
0.5320000000000003
 50
180.0
 51
270.0
  0
ARC
  5
15EE
  8
GAIKEI
  6
CONTINUOUS
 10
139.866726
 20
147.71590900000001
 30
0.001526
 40
0.5320000000000003
 50
90.0
 51
180.0
  0
ARC
  5
15EF
  8
GAIKEI
  6
CONTINUOUS
 10
138.48352600000001
 20
147.71590900000001
 30
0.001526
 40
0.5320000000000003
 50
0.0
 51
90.0
  0
ARC
  5
15F0
  8
GAIKEI
  6
CONTINUOUS
 10
138.48352600000001
 20
149.099109
 30
0.001526
 40
0.5320000000000003
 50
270.0
 51
0.0
  0
ARC
  5
15F1
  8
GAIKEI
  6
CONTINUOUS
 10
30.727779999999999
 20
161.407509
 30
0.001526
 40
5.049999999999998
 50
280.55435999999992
 51
55.994171999999992
  0
ARC
  5
15F2
  8
GAIKEI
  6
CONTINUOUS
 10
30.727779999999999
 20
165.30341200000001
 30
0.001526
 40
2.8500000000000001
 50
340.11614900000001
 51
199.88385099999991
  0
ARC
  5
15F3
  8
GAIKEI
  6
CONTINUOUS
 10
61.058014
 20
166.403412
 30
0.001526
 40
1.75
 50
76.586111000000002
 51
122.89800700000001
  0
ARC
  5
15F4
  8
GAIKEI
  6
CONTINUOUS
 10
60.594571999999999
 20
163.90290100000001
 30
0.001526
 40
1.75
 50
216.10199299999999
 51
262.41388899999993
  0
ARC
  5
15F5
  8
GAIKEI
  6
CONTINUOUS
 10
62.008518000000002
 20
164.934044
 30
0.001526
 40
3.5
 50
122.89800700000001
 51
216.10199299999999
  0
ARC
  5
15F6
  8
GAIKEI
  6
CONTINUOUS
 10
30.727779999999999
 20
161.407509
 30
0.001526
 40
6.0
 50
112.9334419999999
 51
180.0
  0
ARC
  5
15F7
  8
GAIKEI
  6
CONTINUOUS
 10
30.727779999999999
 20
161.407509
 30
0.001526
 40
1.649999999999999
 50
194.89119600000001
 51
345.10880400000002
  0
ARC
  5
15F8
  8
GAIKEI
  6
CONTINUOUS
 10
30.727779999999999
 20
161.407509
 30
0.001526
 40
2.399999999999999
 50
151.306253
 51
28.693746999999991
  0
ARC
  5
15F9
  8
GAIKEI
  6
CONTINUOUS
 10
30.727779999999999
 20
161.407509
 30
0.001526
 40
2.8999999999999999
 50
142.57262399999991
 51
37.42737600000001
  0
ARC
  5
15FA
  8
GAIKEI
  6
CONTINUOUS
 10
30.727779999999999
 20
161.407509
 30
0.001526
 40
5.049999999999998
 50
124.1648019999999
 51
259.4456399999998
  0
ARC
  5
15FB
  8
GAIKEI
  6
CONTINUOUS
 10
30.727779999999999
 20
161.407509
 30
0.001526
 40
6.0
 50
0.0
 51
67.066558000000001
  0
ARC
  5
15FC
  8
GAIKEI
  6
CONTINUOUS
 10
30.727779999999999
 20
161.407509
 30
0.001526
 40
6.0
 50
180.0
 51
0.0
  0
ARC
  5
15FD
  8
GAIKEI
  6
CONTINUOUS
 10
133.8942539999999
 20
174.29420400000001
 30
0.001526
 40
0.2
 50
235.0
 51
325.0
  0
ARC
  5
15FE
  8
GAIKEI
  6
CONTINUOUS
 10
130.2751259999998
 20
170.4803159999999
 30
0.001526
 40
0.4
 50
55.0
 51
180.0
  0
ARC
  5
15FF
  8
GAIKEI
  6
CONTINUOUS
 10
131.141087
 20
170.3622739999999
 30
0.001526
 40
0.2
 50
325.0
 51
55.0
  0
ARC
  5
1600
  8
GAIKEI
  6
CONTINUOUS
 10
134.9751259999999
 20
170.60750899999991
 30
0.001526
 40
2.5
 50
251.2602049999999
 51
38.739795000000001
  0
ARC
  5
1601
  8
GAIKEI
  6
CONTINUOUS
 10
130.87512599999991
 20
176.00750899999991
 30
0.001526
 40
1.0
 50
90.0
 51
180.0
  0
ARC
  5
1602
  8
GAIKEI
  6
CONTINUOUS
 10
131.28788899999981
 20
176.60750899999999
 30
0.001526
 40
0.4
 50
90.0
 51
235.0
  0
ARC
  5
1603
  8
GAIKEI
  6
CONTINUOUS
 10
147.20916599999981
 20
170.3622739999999
 30
0.001526
 40
0.2
 50
125.0
 51
214.99999999999989
  0
ARC
  5
1604
  8
GAIKEI
  6
CONTINUOUS
 10
144.45599899999991
 20
174.29420400000001
 30
0.001526
 40
0.2
 50
214.99999999999989
 51
305.0
  0
ARC
  5
1605
  8
GAIKEI
  6
CONTINUOUS
 10
148.07512600000001
 20
170.4803159999999
 30
0.001526
 40
0.4
 50
0.0
 51
125.0
  0
ARC
  5
1606
  8
GAIKEI
  6
CONTINUOUS
 10
143.37512599999999
 20
170.60750899999991
 30
0.001526
 40
2.5
 50
141.26020500000001
 51
288.73979500000002
  0
ARC
  5
1607
  8
GAIKEI
  6
CONTINUOUS
 10
147.06236299999981
 20
176.60750899999999
 30
0.001526
 40
0.4
 50
305.0
 51
90.0
  0
ARC
  5
1608
  8
GAIKEI
  6
CONTINUOUS
 10
147.47512599999979
 20
176.00750899999991
 30
0.001526
 40
1.0
 50
0.0
 51
90.0
  0
ARC
  5
1609
  8
GAIKEI
  6
CONTINUOUS
 10
131.141087
 20
152.45274499999991
 30
0.001526
 40
0.2
 50
305.0
 51
35.0
  0
ARC
  5
160A
  8
GAIKEI
  6
CONTINUOUS
 10
133.8942539999999
 20
148.520815
 30
0.001526
 40
0.2
 50
35.0
 51
125.0
  0
ARC
  5
160B
  8
GAIKEI
  6
CONTINUOUS
 10
130.2751259999998
 20
152.33470299999999
 30
0.001526
 40
0.4
 50
180.0
 51
305.0
  0
ARC
  5
160C
  8
GAIKEI
  6
CONTINUOUS
 10
134.9751259999999
 20
152.2075089999999
 30
0.001526
 40
2.5
 50
321.26020499999998
 51
108.739795
  0
ARC
  5
160D
  8
GAIKEI
  6
CONTINUOUS
 10
131.28788899999981
 20
146.2075089999999
 30
0.001526
 40
0.4
 50
125.0
 51
270.0
  0
ARC
  5
160E
  8
GAIKEI
  6
CONTINUOUS
 10
130.87512599999991
 20
146.80750900000001
 30
0.001526
 40
1.0
 50
180.0
 51
270.0
  0
ARC
  5
160F
  8
GAIKEI
  6
CONTINUOUS
 10
147.47512599999979
 20
146.80750900000001
 30
0.001526
 40
1.0
 50
270.0
 51
0.0
  0
ARC
  5
1610
  8
GAIKEI
  6
CONTINUOUS
 10
147.06236299999981
 20
146.2075089999999
 30
0.001526
 40
0.4
 50
270.0
 51
55.0
  0
ARC
  5
1611
  8
GAIKEI
  6
CONTINUOUS
 10
148.07512600000001
 20
152.33470299999999
 30
0.001526
 40
0.4
 50
235.0
 51
0.0
  0
ARC
  5
1612
  8
GAIKEI
  6
CONTINUOUS
 10
134.9751259999999
 20
161.407509
 30
0.001526
 40
2.5
 50
286.26020499999993
 51
73.739795000000001
  0
ARC
  5
1613
  8
GAIKEI
  6
CONTINUOUS
 10
130.2751259999998
 20
158.60750899999999
 30
0.001526
 40
0.4
 50
90.0
 51
180.0
  0
ARC
  5
1614
  8
GAIKEI
  6
CONTINUOUS
 10
131.97512599999979
 20
159.007509
 30
0.001526
 40
0.2
 50
0.0
 51
90.0
  0
ARC
  5
1615
  8
GAIKEI
  6
CONTINUOUS
 10
130.2751259999998
 20
164.2075089999999
 30
0.001526
 40
0.4
 50
180.0
 51
270.0
  0
ARC
  5
1616
  8
GAIKEI
  6
CONTINUOUS
 10
131.97512599999979
 20
163.80750900000001
 30
0.001526
 40
0.2
 50
270.0
 51
0.0
  0
ARC
  5
1617
  8
GAIKEI
  6
CONTINUOUS
 10
148.07512600000001
 20
158.60750899999999
 30
0.001526
 40
0.4
 50
0.0
 51
90.0
  0
ARC
  5
1618
  8
GAIKEI
  6
CONTINUOUS
 10
148.07512600000001
 20
164.2075089999999
 30
0.001526
 40
0.4
 50
270.0
 51
0.0
  0
ARC
  5
1619
  8
GAIKEI
  6
CONTINUOUS
 10
146.37512599999991
 20
163.80750900000001
 30
0.001526
 40
0.2
 50
180.0
 51
270.0
  0
ARC
  5
161A
  8
GAIKEI
  6
CONTINUOUS
 10
146.37512599999991
 20
159.007509
 30
0.001526
 40
0.2
 50
90.0
 51
180.0
  0
ARC
  5
161B
  8
GAIKEI
  6
CONTINUOUS
 10
143.37512599999999
 20
161.407509
 30
0.001526
 40
2.5
 50
106.2602049999999
 51
253.7397949999999
  0
ARC
  5
161C
  8
GAIKEI
  6
CONTINUOUS
 10
147.20916599999981
 20
152.45274499999991
 30
0.001526
 40
0.2
 50
145.0
 51
235.0
  0
ARC
  5
161D
  8
GAIKEI
  6
CONTINUOUS
 10
144.45599899999991
 20
148.520815
 30
0.001526
 40
0.2
 50
55.0
 51
145.0
  0
ARC
  5
161E
  8
GAIKEI
  6
CONTINUOUS
 10
143.37512599999999
 20
152.2075089999999
 30
0.001526
 40
2.5
 50
71.260204999999999
 51
218.7397949999999
  0
ARC
  5
161F
  8
GAIKEI
  6
CONTINUOUS
 10
108.8752069999999
 20
151.17123699999991
 30
0.001526
 40
3.1859229999999981
 50
270.00007199999988
 51
287.95389999999992
  0
ARC
  5
1620
  8
GAIKEI
  6
CONTINUOUS
 10
109.0706659999999
 20
150.568038
 30
0.001526
 40
2.5518450000000001
 50
287.95380699999993
 51
308.03530499999982
  0
ARC
  5
1621
  8
GAIKEI
  6
CONTINUOUS
 10
109.37036599999981
 20
150.18492800000001
 30
0.001526
 40
2.065436
 50
308.03527000000008
 51
332.09891199999998
  0
ARC
  5
1622
  8
GAIKEI
  6
CONTINUOUS
 10
109.83102
 20
149.941011
 30
0.001526
 40
1.5441910000000001
 50
332.098972
 51
359.99994900000002
  0
ARC
  5
1623
  8
GAIKEI
  6
CONTINUOUS
 10
109.8310219999999
 20
149.94100800000001
 30
0.001526
 40
1.544189
 50
0.000069
 51
27.901046000000001
  0
ARC
  5
1624
  8
GAIKEI
  6
CONTINUOUS
 10
109.37036599999981
 20
149.6970909999998
 30
0.001526
 40
2.065436
 50
27.901088000000001
 51
51.96473000000001
  0
ARC
  5
1625
  8
GAIKEI
  6
CONTINUOUS
 10
109.0706629999999
 20
149.31398100000001
 30
0.001526
 40
2.5518469999999991
 50
51.964638000000001
 51
72.046137000000002
  0
ARC
  5
1626
  8
GAIKEI
  6
CONTINUOUS
 10
108.87521
 20
148.71078199999999
 30
0.001526
 40
3.1859220000000001
 50
72.046156999999994
 51
89.999984999999981
  0
ARC
  5
1627
  8
GAIKEI
  6
CONTINUOUS
 10
109.8310219999999
 20
150.4101389999999
 30
0.001526
 40
1.544189
 50
0.000069
 51
27.901046000000001
  0
ARC
  5
1628
  8
GAIKEI
  6
CONTINUOUS
 10
109.3703639999999
 20
150.166222
 30
0.001526
 40
2.0654379999999981
 50
27.901046000000001
 51
51.964686999999998
  0
ARC
  5
1629
  8
GAIKEI
  6
CONTINUOUS
 10
109.0706659999999
 20
149.7831129999999
 30
0.001526
 40
2.5518450000000001
 50
51.964694999999999
 51
72.046193000000002
  0
ARC
  5
162A
  8
GAIKEI
  6
CONTINUOUS
 10
108.8752069999999
 20
149.17991299999991
 30
0.001526
 40
3.1859229999999981
 50
72.046099999999996
 51
89.999927999999997
  0
ARC
  5
162B
  8
GAIKEI
  6
CONTINUOUS
 10
106.175211
 20
151.77739499999981
 30
0.001526
 40
0.2
 50
270.0
 51
0.0
  0
ARC
  5
162C
  8
GAIKEI
  6
CONTINUOUS
 10
106.175211
 20
147.896061
 30
0.001526
 40
0.219012
 50
24.049925999999989
 51
90.0
  0
ARC
  5
162D
  8
GAIKEI
  6
CONTINUOUS
 10
108.485968
 20
149.94100800000001
 30
0.001526
 40
0.810757
 50
179.9998809999999
 51
206.82384300000001
  0
ARC
  5
162E
  8
GAIKEI
  6
CONTINUOUS
 10
108.67389799999999
 20
150.0360389999999
 30
0.001526
 40
1.021347999999999
 50
206.82397800000001
 51
230.67725399999981
  0
ARC
  5
162F
  8
GAIKEI
  6
CONTINUOUS
 10
108.795828
 20
150.1848899999998
 30
0.001526
 40
1.213762999999999
 50
230.67730499999999
 51
251.25768500000001
  0
ARC
  5
1630
  8
GAIKEI
  6
CONTINUOUS
 10
108.87521
 20
150.418858
 30
0.001526
 40
1.4608309999999991
 50
251.25782299999989
 51
270.00000799999992
  0
ARC
  5
1631
  8
GAIKEI
  6
CONTINUOUS
 10
108.87521
 20
150.41885500000001
 30
0.001526
 40
1.460828
 50
270.00001200000003
 51
288.74219599999992
  0
ARC
  5
1632
  8
GAIKEI
  6
CONTINUOUS
 10
108.95459199999991
 20
150.1848899999998
 30
0.001526
 40
1.213762999999999
 50
288.74231499999991
 51
309.32269500000001
  0
ARC
  5
1633
  8
GAIKEI
  6
CONTINUOUS
 10
109.0765219999999
 20
150.0360389999999
 30
0.001526
 40
1.021347999999999
 50
309.322746
 51
333.17602199999999
  0
ARC
  5
1634
  8
GAIKEI
  6
CONTINUOUS
 10
109.264453
 20
149.94101000000001
 30
0.001526
 40
0.810758
 50
333.17600899999991
 51
359.99997100000002
  0
ARC
  5
1635
  8
GAIKEI
  6
CONTINUOUS
 10
109.2644549999999
 20
149.94100900000001
 30
0.001526
 40
0.8107559999999999
 50
0.000064
 51
26.824026
  0
ARC
  5
1636
  8
GAIKEI
  6
CONTINUOUS
 10
109.0765219999999
 20
149.845979
 30
0.001526
 40
1.021347999999999
 50
26.823978
 51
50.677253999999991
  0
ARC
  5
1637
  8
GAIKEI
  6
CONTINUOUS
 10
108.95459199999991
 20
149.6971289999999
 30
0.001526
 40
1.213762999999999
 50
50.67730499999999
 51
71.257684999999995
  0
ARC
  5
1638
  8
GAIKEI
  6
CONTINUOUS
 10
108.87521
 20
149.46316399999981
 30
0.001526
 40
1.460828
 50
71.257803999999979
 51
89.999988000000002
  0
ARC
  5
1639
  8
GAIKEI
  6
CONTINUOUS
 10
108.87521
 20
149.46316100000001
 30
0.001526
 40
1.4608309999999991
 50
89.999992000000006
 51
108.7421769999999
  0
ARC
  5
163A
  8
GAIKEI
  6
CONTINUOUS
 10
108.795828
 20
149.6971289999999
 30
0.001526
 40
1.213762999999999
 50
108.742315
 51
129.3226949999999
  0
ARC
  5
163B
  8
GAIKEI
  6
CONTINUOUS
 10
108.67389799999999
 20
149.845979
 30
0.001526
 40
1.021347999999999
 50
129.32274599999991
 51
153.1760219999999
  0
ARC
  5
163C
  8
GAIKEI
  6
CONTINUOUS
 10
108.485966
 20
149.941011
 30
0.001526
 40
0.8107549999999999
 50
153.17612199999991
 51
180.0000839999999
  0
ARC
  5
163D
  8
GAIKEI
  6
CONTINUOUS
 10
108.4859639999999
 20
150.39986999999991
 30
0.001526
 40
0.8107549999999999
 50
196.4383609999999
 51
206.82401299999989
  0
ARC
  5
163E
  8
GAIKEI
  6
CONTINUOUS
 10
108.67389799999999
 20
150.4949
 30
0.001526
 40
1.021347999999999
 50
206.82397800000001
 51
230.67725399999981
  0
ARC
  5
163F
  8
GAIKEI
  6
CONTINUOUS
 10
108.79582499999999
 20
150.64375100000001
 30
0.001526
 40
1.2137610000000001
 50
230.6774209999999
 51
251.25779999999989
  0
ARC
  5
1640
  8
GAIKEI
  6
CONTINUOUS
 10
108.8752129999999
 20
150.8777189999999
 30
0.001526
 40
1.4608309999999991
 50
251.2577039999999
 51
269.99988899999983
  0
ARC
  5
1641
  8
GAIKEI
  6
CONTINUOUS
 10
108.8752069999999
 20
150.87771599999991
 30
0.001526
 40
1.460828
 50
270.00012999999979
 51
288.74231499999991
  0
ARC
  5
1642
  8
GAIKEI
  6
CONTINUOUS
 10
108.9545949999999
 20
150.64375100000001
 30
0.001526
 40
1.2137610000000001
 50
288.74220000000003
 51
309.32257900000002
  0
ARC
  5
1643
  8
GAIKEI
  6
CONTINUOUS
 10
109.0765219999999
 20
150.4949
 30
0.001526
 40
1.021347999999999
 50
309.322746
 51
333.17602199999999
  0
ARC
  5
1644
  8
GAIKEI
  6
CONTINUOUS
 10
109.264456
 20
150.39986999999991
 30
0.001526
 40
0.8107549999999999
 50
333.17598700000002
 51
343.56163900000001
  0
ARC
  5
1645
  8
GAIKEI
  6
CONTINUOUS
 10
39.027779999999993
 20
146.80750900000001
 30
0.001526
 40
1.0
 50
270.0
 51
0.0
  0
ARC
  5
1646
  8
GAIKEI
  6
CONTINUOUS
 10
22.427779999999991
 20
146.80750900000001
 30
0.001526
 40
1.0
 50
180.0
 51
270.0
  0
ARC
  5
1647
  8
GAIKEI
  6
CONTINUOUS
 10
22.427779999999991
 20
176.00750899999991
 30
0.001526
 40
1.0
 50
90.0
 51
180.0
  0
ARC
  5
1648
  8
GAIKEI
  6
CONTINUOUS
 10
39.027779999999993
 20
176.00750899999991
 30
0.001526
 40
1.0
 50
0.0
 51
90.0
  0
CIRCLE
  5
1649
  8
GAIKEI
  6
CONTINUOUS
 10
113.40633200000001
 20
89.744954000000007
 30
0.001526
 40
7.0
  0
CIRCLE
  5
164A
  8
GAIKEI
  6
CONTINUOUS
 10
113.40633200000001
 20
89.744954000000007
 30
0.001526
 40
6.0
  0
CIRCLE
  5
164B
  8
GAIKEI
  6
CONTINUOUS
 10
113.40633200000001
 20
89.744954000000007
 30
0.001526
 40
5.0999999999999979
  0
CIRCLE
  5
164C
  8
GAIKEI
  6
CONTINUOUS
 10
36.992975999999992
 20
89.744954000000007
 30
0.001526
 40
5.0999999999999979
  0
CIRCLE
  5
164D
  8
GAIKEI
  6
CONTINUOUS
 10
36.992975999999992
 20
89.744954000000007
 30
0.001526
 40
7.2999999999999989
  0
CIRCLE
  5
164E
  8
GAIKEI
  6
CONTINUOUS
 10
36.992975999999992
 20
89.744954000000007
 30
0.001526
 40
6.0
  0
CIRCLE
  5
164F
  8
GAIKEI
  6
CONTINUOUS
 10
36.992975999999992
 20
89.744954000000007
 30
0.001526
 40
7.5999999999999988
  0
CIRCLE
  5
1650
  8
GAIKEI
  6
CONTINUOUS
 10
30.727779999999999
 20
161.407509
 30
0.001526
 40
7.9000000000000004
  0
CIRCLE
  5
1651
  8
GAIKEI
  6
CONTINUOUS
 10
30.727779999999999
 20
161.407509
 30
0.001526
 40
7.2999999999999989
  0
CIRCLE
  5
1652
  8
GAIKEI
  6
CONTINUOUS
 10
108.87521099999989
 20
161.407509
 30
0.001526
 40
1.1999999999999991
  0
CIRCLE
  5
1653
  8
GAIKEI
  6
CONTINUOUS
 10
139.17512600000001
 20
174.407509
 30
0.001526
 40
1.595999999999999
  0
CIRCLE
  5
1654
  8
GAIKEI
  6
CONTINUOUS
 10
139.17512600000001
 20
148.407509
 30
0.001526
 40
1.595999999999999
  0
CIRCLE
  5
1655
  8
GAIKEI
  6
CONTINUOUS
 10
30.727779999999999
 20
161.407509
 30
0.001526
 40
7.5999999999999988
  0
CIRCLE
  5
1656
  8
GAIKEI
  6
CONTINUOUS
 10
30.727779999999999
 20
148.407509
 30
0.001526
 40
1.5
  0
CIRCLE
  5
1657
  8
GAIKEI
  6
CONTINUOUS
 10
30.727779999999999
 20
174.407509
 30
0.001526
 40
1.5
  0
CIRCLE
  5
1658
  8
GAIKEI
  6
CONTINUOUS
 10
34.52778
 20
148.407509
 30
0.001526
 40
0.75
  0
CIRCLE
  5
1659
  8
GAIKEI
  6
CONTINUOUS
 10
30.727779999999999
 20
148.407509
 30
0.001526
 40
1.0
  0
CIRCLE
  5
165A
  8
GAIKEI
  6
CONTINUOUS
 10
30.727779999999999
 20
174.407509
 30
0.001526
 40
1.0
  0
CIRCLE
  5
165B
  8
GAIKEI
  6
CONTINUOUS
 10
143.37512599999999
 20
170.60750899999991
 30
0.001526
 40
2.0
  0
CIRCLE
  5
165C
  8
GAIKEI
  6
CONTINUOUS
 10
134.9751259999999
 20
170.60750899999991
 30
0.001526
 40
2.0
  0
CIRCLE
  5
165D
  8
GAIKEI
  6
CONTINUOUS
 10
143.37512599999999
 20
161.407509
 30
0.001526
 40
2.0
  0
CIRCLE
  5
165E
  8
GAIKEI
  6
CONTINUOUS
 10
134.9751259999999
 20
161.407509
 30
0.001526
 40
2.0
  0
CIRCLE
  5
165F
  8
GAIKEI
  6
CONTINUOUS
 10
134.9751259999999
 20
152.2075089999999
 30
0.001526
 40
2.0
  0
CIRCLE
  5
1660
  8
GAIKEI
  6
CONTINUOUS
 10
143.37512599999999
 20
152.2075089999999
 30
0.001526
 40
2.0
  0
POLYLINE
  5
1661
  8
DIM
 66
     1
 10
0.0
 20
0.0
 30
0.001526
 70
   128
  0
VERTEX
  5
16A5
  8
DIM
 10
109.7237389999999
 20
149.245935
 30
0.001526
  0
VERTEX
  5
16A6
  8
DIM
 10
116.3257889999999
 20
138.659491
 30
0.001526
  0
VERTEX
  5
16A7
  8
DIM
 10
125.38280399999989
 20
138.659491
 30
0.001526
  0
SEQEND
  5
16A8
  8
DIM
  0
POLYLINE
  5
1666
  8
DIM
 66
     1
 10
0.0
 20
0.0
 30
0.001526
 70
   128
  0
VERTEX
  5
16A9
  8
DIM
 10
76.425211000000004
 20
167.407509
 30
0.001526
  0
VERTEX
  5
16AA
  8
DIM
 10
68.74234100000001
 20
178.5555259999999
 30
0.001526
  0
VERTEX
  5
16AB
  8
DIM
 10
78.000776000000002
 20
178.5555259999999
 30
0.001526
  0
SEQEND
  5
16AC
  8
DIM
  0
LINE
  5
166B
  8
DIM
 10
18.427779999999998
 20
161.407509
 30
0.001526
 11
13.42778
 21
161.407509
 31
0.001526
  0
POLYLINE
  5
166C
  8
DIM
 66
     1
 10
0.0
 20
0.0
 30
0.001526
 70
   128
  0
VERTEX
  5
16AD
  8
DIM
 10
77.325210999999982
 20
155.40750899999981
 30
0.001526
  0
VERTEX
  5
16AE
  8
DIM
 10
74.309413000000006
 20
146.918363
 30
0.001526
  0
VERTEX
  5
16AF
  8
DIM
 10
65.426384999999996
 20
146.918363
 30
0.001526
  0
SEQEND
  5
16B0
  8
DIM
  0
TEXT
  5
1671
  8
DIM
 10
101.42027
 20
100.30101500000001
 30
0.001526
 40
2.5
  1
òZäpÉiÉbÉg
 41
0.7120000000000001
  0
TEXT
  5
1672
  8
DIM
 10
63.323720999999999
 20
100.30101500000001
 30
0.001526
 40
2.5
  1
ì‡éïç¿ã‡
 41
0.7120000000000001
  0
TEXT
  5
1673
  8
DIM
 10
25.258473999999989
 20
99.834780000000023
 30
0.001526
 40
2.5
  1
ä€ÉiÉbÉg
 41
0.7120000000000001
  0
TEXT
  5
1674
  8
DIM
 10
116.7542879999998
 20
139.00761900000001
 30
0.001526
 40
2.5
  1
åäÉ”2.4
 41
0.72
  0
TEXT
  5
1675
  8
GAIKEI
 10
147.29661100000001
 20
152.583798
 30
0.002289
 40
1.25
  1
6
 41
0.72
  0
TEXT
  5
1676
  8
GAIKEI
 10
147.3211229999998
 20
164.55382700000001
 30
0.002289
 40
1.25
  1
5
 41
0.72
  0
TEXT
  5
1677
  8
GAIKEI
 10
147.29453699999991
 20
168.7456599999999
 30
0.000763
 40
1.25
  1
4
 41
0.72
  0
TEXT
  5
1678
  8
GAIKEI
 10
130.07447300000001
 20
152.89615499999999
 30
0.000763
 40
1.25
  1
3
 41
0.72
  0
TEXT
  5
1679
  8
GAIKEI
 10
130.23896499999981
 20
164.16928899999991
 30
0.002289
 40
1.25
  1
2
 41
0.72
  0
TEXT
  5
167A
  8
GAIKEI
 10
130.2187449999999
 20
168.9005749999998
 30
0.000763
 40
1.25
  1
1
 41
0.72
  0
TEXT
  5
167B
  8
DIM
 10
10.015480999999991
 20
153.508252
 30
0.001526
 40
2.5
  1
ë§
 41
0.72
1001
ACAD
1000
R13OBJECT
1002
{
1005
8AE
1002
}
  0
TEXT
  5
167C
  8
DIM
 10
10.015480999999991
 20
156.9882519999999
 30
0.001526
 40
2.5
  1
é¶
 41
0.72
1001
ACAD
1000
R13OBJECT
1002
{
1005
8AE
1002
}
  0
TEXT
  5
167D
  8
DIM
 10
10.015480999999991
 20
160.348252
 30
0.001526
 40
2.5
  1
ï\
 41
0.72
1001
ACAD
1000
R13OBJECT
1002
{
1005
8AE
1002
}
  0
TEXT
  5
167E
  8
DIM
 10
10.015480999999991
 20
163.82825199999991
 30
0.001526
 40
2.5
  1
ñº
 41
0.72
1001
ACAD
1000
R13OBJECT
1002
{
1005
8AE
1002
}
  0
TEXT
  5
167F
  8
DIM
 10
10.015480999999991
 20
167.34253799999991
 30
0.001526
 40
2.5
  1
å`
 41
0.72
  0
TEXT
  5
1682
  8
DIM
 10
69.697918000000001
 20
179.04381599999991
 30
0.001526
 40
2.5
  1
M12P1
 41
0.72
  0
TEXT
  5
1683
  8
DIM
 10
65.697836999999993
 20
147.313163
 30
0.001526
 40
2.5
  1
ÉLÅ[É~É]
 41
0.72
  0
DIMENSION
  5
1684
  8
DIM
  2
*D2
 10
128.262439
 20
96.744954000000007
 30
0.001526
 11
126.0124389999998
 21
89.744954000000007
 31
0.001526
  1
<>
 13
117.447784
 23
82.744954000000007
 33
0.001526
 14
117.447784
 24
96.744954000000007
 34
0.001526
 50
90.0
1001
ACAD
1000
DSTYLE
1002
{
1070
    40
1040
2.0
1002
}
  0
DIMENSION
  5
1685
  8
DIM
  2
*D3
 10
88.576042000000001
 20
95.794954000000004
 30
0.001526
 11
86.326042000000015
 21
89.744954000000007
 31
0.001526
  1
É”<>
 13
73.625842000000006
 23
83.694954000000024
 33
0.001526
 14
73.625842000000006
 24
95.794954000000004
 34
0.001526
 50
90.0
1001
ACAD
1000
DSTYLE
1002
{
1070
    40
1040
2.0
1002
}
  0
DIMENSION
  5
1686
  8
DIM
  2
*D4
 10
94.333844999999997
 20
97.644954000000013
 30
0.001526
 11
92.083844999999997
 21
89.744954000000007
 31
0.001526
  1
<>
 13
73.625842000000006
 23
81.844954000000016
 33
0.001526
 14
73.625842000000006
 24
97.644954000000013
 34
0.001526
 50
90.0
1001
ACAD
1000
DSTYLE
1002
{
1070
    40
1040
2.0
1002
}
  0
DIMENSION
  5
1687
  8
DIM
  2
*D5
 10
52.178154999999997
 20
97.344954000000001
 30
0.001526
 11
49.928154999999983
 21
89.744954000000007
 31
0.001526
 70
     1
  1
É”<>
 13
36.992975999999992
 23
82.144953999999998
 33
0.001526
 14
36.992975999999992
 24
97.344954000000001
 34
0.001526
1001
ACAD
1000
DSTYLE
1002
{
1070
    40
1040
2.0
1002
}
  0
DIMENSION
  5
1688
  8
DIM
  2
*D6
 10
58.175210999999997
 20
130.80750900000001
 30
0.001526
 11
66.925211000000004
 21
133.05750900000001
 31
0.001526
  1
<>
 13
75.675211000000004
 23
156.157509
 33
0.001526
 14
58.175210999999997
 24
161.407509
 34
0.001526
1001
ACAD
1000
DSTYLE
1002
{
1070
    40
1040
2.0
1002
}
  0
DIMENSION
  5
1689
  8
DIM
  2
*D7
 10
75.675211000000004
 20
130.80750900000001
 30
0.001526
 11
80.675211000000004
 21
133.05750900000001
 31
0.001526
  1
<>
 13
85.675211000000004
 23
155.40750899999981
 33
0.001526
 14
75.675211000000004
 24
156.157509
 34
0.001526
1001
ACAD
1000
DSTYLE
1002
{
1070
    40
1040
2.0
1002
}
  0
DIMENSION
  5
168A
  8
DIM
  2
*D8
 10
120.866753
 20
177.00750899999991
 30
0.001526
 11
118.616753
 21
161.407509
 31
0.001526
 70
     1
  1
<>
 13
105.675211
 23
145.80750900000001
 33
0.001526
 14
105.675211
 24
177.00750899999991
 34
0.001526
1001
ACAD
1000
DSTYLE
1002
{
1070
    40
1040
2.0
1002
}
  0
DIMENSION
  5
168B
  8
DIM
  2
*D9
 10
129.87512599999991
 20
130.80750900000001
 30
0.001526
 11
139.17512600000001
 21
133.05750900000001
 31
0.001526
 70
     1
  1
<>
 13
148.4751259999999
 23
146.80750900000001
 33
0.001526
 14
129.87512599999991
 24
146.80750900000001
 34
0.001526
1001
ACAD
1000
DSTYLE
1002
{
1070
    40
1040
2.0
1002
}
  0
DIMENSION
  5
168C
  8
DIM
  2
*D10
 10
111.37521099999989
 20
130.80750900000001
 30
0.001526
 11
98.525211000000013
 21
133.05750900000001
 31
0.001526
  1
<>
 13
85.675211000000004
 23
155.40750899999981
 33
0.001526
 14
111.37521099999989
 24
149.94101000000001
 34
0.001526
1001
ACAD
1000
DSTYLE
1002
{
1070
    40
1040
2.0
1002
}
  0
DIMENSION
  5
168D
  8
DIM
  2
*D11
 10
111.37521099999989
 20
137.0988899999999
 30
0.001526
 11
108.525211
 21
139.3488899999999
 31
0.001526
  1
<>
 13
105.675211
 23
145.80750900000001
 33
0.001526
 14
111.37521099999989
 24
172.40487799999991
 34
0.001526
1001
ACAD
1000
DSTYLE
1002
{
1070
    40
1040
2.0
1002
}
  0
TEXT
  5
168E
  8
FILE
 10
8.6824333611291422
 20
184.71939608370221
 30
0.0
 40
4.0
  1
S-6A,S-6B,S-7A,S-7B
 41
0.72
  0
DIMENSION
  5
1691
  8
DIM
  2
*D13
 10
53.295476000000001
 20
63.816347
 30
0.0
 11
51.045476000000001
 21
70.616346999999976
 31
0.0
 13
44.592976
 23
61.316347
 33
0.001526
 14
44.292976000000003
 24
63.816347
 34
0.001526
 50
90.0
  0
DIMENSION
  5
1692
  8
DIM
  2
*D14
 10
94.556690999999987
 20
63.121524999999991
 30
0.0
 11
92.306691000000001
 21
68.421525000000003
 31
0.0
  1
1
 13
79.936914999999999
 23
61.742280000000008
 33
0.001526
 14
79.936914999999999
 24
63.121524999999991
 34
0.001526
 50
90.0
  0
DIMENSION
  5
1693
  8
DIM
  2
*D15
 10
88.772706000000014
 20
62.681902999999998
 30
0.0
 11
86.522705999999985
 21
69.331902999999997
 31
0.0
 13
81.57584199999998
 23
62.181902999999991
 33
0.001526
 14
81.57584199999998
 24
62.681902999999998
 34
0.001526
 50
90.0
  0
DIMENSION
  5
1694
  8
DIM
  2
*D16
 10
128.208077
 20
63.566347
 30
0.0
 11
125.958077
 21
69.166347000000002
 31
0.0
 13
120.4063249999999
 23
61.566347
 33
0.001526
 14
120.4063249999999
 24
63.566347
 34
0.001526
 50
90.0
  0
ARC
  5
1695
  8
GAIKEI
 10
105.7957659999999
 20
53.364488000000001
 30
0.001526
 40
10.220114000000001
 50
69.560091
 51
86.574983999999986
  0
ARC
  5
1696
  8
GAIKEI
 10
106.46473400000001
 20
68.602618000000007
 30
0.001526
 40
7.0365130000000002
 50
269.52450399999992
 51
294.34042199999999
  0
ARC
  5
1697
  8
GAIKEI
 10
120.16203299999989
 20
57.409748999999998
 30
0.001526
 40
6.1614430000000002
 50
87.727714000000006
 51
116.13721200000001
  0
ARC
  5
1698
  8
GAIKEI
 10
120.8130129999998
 20
70.803415999999999
 30
0.001526
 40
9.2460170000000002
 50
248.65605600000001
 51
267.47901899999988
  0
LINE
  5
1699
  8
DIM
 10
50.701085999999997
 20
167.029753
 30
0.001526
 11
48.153176999999999
 21
167.50198
 31
0.001526
  0
LINE
  5
169A
  8
DIM
 10
50.701085999999997
 20
155.78526499999981
 30
0.001526
 11
48.153176999999999
 21
155.31303799999981
 31
0.001526
  0
ARC
  5
169B
  8
DIM
 10
81.035999000000004
 20
161.407509
 30
0.001526
 40
32.442825999999997
 50
173.032667
 51
186.967333
  0
SOLID
  5
169C
  8
DIM
 10
48.503279999999997
 20
165.39354800000001
 30
0.001526
 11
49.162216000000001
 21
165.2923209999999
 31
0.001526
 12
49.136431000000002
 22
167.3197439999999
 32
0.001526
 13
49.136431000000002
 23
167.3197439999999
 33
0.001526
  0
SOLID
  5
169D
  8
DIM
 10
49.162216000000001
 20
157.52269699999991
 30
0.001526
 11
48.503279999999997
 21
157.4214689999998
 31
0.001526
 12
49.136431000000002
 22
155.495273
 32
0.001526
 13
49.136431000000002
 23
155.495273
 33
0.001526
  0
TEXT
  5
169E
  8
DIM
 10
47.593173
 20
160.68750900000001
 30
0.001526
 40
2.5
  1
Éø
 50
90.0
 41
0.72
  0
ENDSEC
  0
EOF
