  0
SECTION
  2
HEADER
  9
$ACADVER
  1
AC1009
  9
$INSBASE
 10
0
 20
0
 30
0
  9
$EXTMIN
 10
0
 20
0
  9
$EXTMAX
 10
420
 20
297
  9
$LIMMIN
 10
0
 20
0
  9
$LIMMAX
 10
420
 20
297
  9
$LTSCALE
 40
1
  0
ENDSEC
  0
SECTION
  2
TABLES
  0
TABLE
  2
LTYPE
 70
     9
  0
LTYPE
  2
CONTINUOUS
 70
    64
  3
実線
 72
    65
 73
     0
 40
0.0
  0
LTYPE
  2
DASHED1
 70
    64
  3
--  --  --  --  --  --  --  --  
 72
    65
 73
     2
 40
2.5
 49
1.25
 49
-1.25
  0
LTYPE
  2
DASHED2
 70
    64
  3
----    ----    ----    ----    
 72
    65
 73
     2
 40
5.0
 49
2.5
 49
-2.5
  0
LTYPE
  2
DASHED3
 70
    64
  3
------  ------  ------  ------  
 72
    65
 73
     2
 40
5.0
 49
3.75
 49
-1.25
  0
LTYPE
  2
CENTER1
 70
    64
  3
----- - ----- - ----- - ----- - 
 72
    65
 73
     4
 40
10.0
 49
6.25
 49
-1.25
 49
1.25
 49
-1.25
  0
LTYPE
  2
CENTER2
 70
    64
  3
----------  --  ----------  --  
 72
    65
 73
     4
 40
20.0
 49
12.5
 49
-2.5
 49
2.5
 49
-2.5
  0
LTYPE
  2
PHANTOM1
 70
    64
  3
--- - - --- - - --- - - --- - - 
 72
    65
 73
     6
 40
10.0
 49
3.25
 49
-1.25
 49
1.25
 49
-1.25
 49
1.25
 49
-1.25
  0
LTYPE
  2
PHANTOM2
 70
    64
  3
--------  -  -  --------  -  -  
 72
    65
 73
     6
 40
20.0
 49
10.0
 49
-2.5
 49
1.25
 49
-2.5
 49
1.25
 49
-2.5
  0
LTYPE
  2
DOT
 70
    64
  3
-   -   -   -   -   -   -   -   
 72
    65
 73
     2
 40
2.5
 49
0.625
 49
-1.875
  0
LTYPE
  2
DUMMY
 70
    64
  3
ダミー
 72
    65
 73
     0
 40
0.0
  0
LTYPE
  2
RAND1
 70
    64
  3
ランダム線1
 72
    65
 73
     4
 40
10.0
 49
1.0
 49
-2.0
 49
3.0
 49
-4.0
  0
LTYPE
  2
RAND2
 70
    64
  3
ランダム線2
 72
    65
 73
     4
 40
14.0
 49
2.0
 49
-3.0
 49
4.0
 49
-5.0
  0
LTYPE
  2
RAND3
 70
    64
  3
ランダム線3
 72
    65
 73
     4
 40
18.0
 49
3.0
 49
-4.0
 49
5.0
 49
-6.0
  0
LTYPE
  2
RAND4
 70
    64
  3
ランダム線4
 72
    65
 73
     4
 40
22.0
 49
4.0
 49
-5.0
 49
6.0
 49
-7.0
  0
LTYPE
  2
RAND5
 70
    64
  3
ランダム線5
 72
    65
 73
     4
 40
26.0
 49
5.0
 49
-6.0
 49
7.0
 49
-8.0
  0
LTYPE
  2
LONG1
 70
    64
  3
----------  --  ----------  --  
 72
    65
 73
     4
 40
40.0
 49
32.5
 49
-2.5
 49
2.5
 49
-2.5
  0
LTYPE
  2
LONG2
 70
    64
  3
--------  -  -  --------  -  -  
 72
    65
 73
     6
 40
40.0
 49
30.0
 49
-2.5
 49
1.25
 49
-2.5
 49
1.25
 49
-2.5
  0
LTYPE
  2
LONG3
 70
    64
  3
+++++++++++++++..+++++++++++++++
 72
    65
 73
     2
 40
40.0
 49
37.5
 49
-2.5
  0
LTYPE
  2
LONG4
 70
    64
  3
+++++++++++++++..+++++++++++++++
 72
    65
 73
     2
 40
80.0
 49
75.0
 49
-5.0
  0
LTYPE
  2
LONG5
 70
    64
  3
----------  --  ----------  --  
 72
    65
 73
     4
 40
60.0
 49
37.5
 49
-7.5
 49
7.5
 49
-7.5
  0
LTYPE
  2
dashed
 70
   64
  3
-------   -------------   ------
 72
   65
 73
    2
 40
7.5
 49
6
 49
-1.5
  0
LTYPE
  2
dashed_spaced
 70
   64
  3
----        --------        ----
 72
   65
 73
    2
 40
12
 49
6
 49
-6
  0
LTYPE
  2
long_dashed_dotted
 70
   64
  3
------------- --- --------------
 72
   65
 73
    4
 40
15.25
 49
12
 49
-1.5
 49
0.25
 49
-1.5
  0
LTYPE
  2
long_dashed_double-dotted
 70
   64
  3
----------- --- --- ------------
 72
   65
 73
    6
 40
17
 49
12
 49
-1.5
 49
0.25
 49
-1.5
 49
0.25
 49
-1.5
  0
LTYPE
  2
long_dashed_triplicate-dotted
 70
   64
  3
--------- --- --- --- ----------
 72
   65
 73
    8
 40
18.75
 49
12
 49
-1.5
 49
0.25
 49
-1.5
 49
0.25
 49
-1.5
 49
0.25
 49
-1.5
  0
LTYPE
  2
dotted
 70
   64
  3
   -       -       -       -    
 72
   65
 73
    2
 40
1.75
 49
0.25
 49
-1.5
  0
LTYPE
  2
chain
 70
   64
  3
-------------- -- --------------
 72
   65
 73
    4
 40
18.5
 49
12
 49
-1.5
 49
3.5
 49
-1.5
  0
LTYPE
  2
chain_double_dash
 70
   64
  3
------------ -- -- -------------
 72
   65
 73
    6
 40
23.5
 49
12
 49
-1.5
 49
3.5
 49
-1.5
 49
3.5
 49
-1.5
  0
LTYPE
  2
dashed_dotted
 70
   64
  3
-----------     -     ----------
 72
   65
 73
    4
 40
9.25
 49
6
 49
-1.5
 49
0.25
 49
-1.5
  0
LTYPE
  2
double-dashed_dotted
 70
   64
  3
------   -----------   -   -----
 72
   65
 73
    6
 40
16.75
 49
6
 49
-1.5
 49
6
 49
-1.5
 49
0.25
 49
-1.5
  0
LTYPE
  2
dashed_double-dotted
 70
   64
  3
---------    -    -    ---------
 72
   65
 73
    6
 40
11
 49
6
 49
-1.5
 49
0.25
 49
-1.5
 49
0.25
 49
-1.5
  0
LTYPE
  2
double-dashed_double-dotted
 70
   64
  3
-----   ---------   -   -   ----
 72
   65
 73
    8
 40
18.5
 49
6
 49
-1.5
 49
6
 49
-1.5
 49
0.25
 49
-1.5
 49
0.25
 49
-1.5
  0
LTYPE
  2
dashed_triplicate-dotted
 70
   64
  3
-------    -    -    -    ------
 72
   65
 73
    8
 40
12.75
 49
6
 49
-1.5
 49
0.25
 49
-1.5
 49
0.25
 49
-1.5
 49
0.25
 49
-1.5
  0
LTYPE
  2
double-dashed_triplicate-dotted
 70
   64
  3
-----  ---------  -  -  -  -----
 72
   65
 73
   10
 40
20.25
 49
6
 49
-1.5
 49
6
 49
-1.5
 49
0.25
 49
-1.5
 49
0.25
 49
-1.5
 49
0.25
 49
-1.5
  0
LTYPE
  2
undefined
 70
   64
  3
--------------------------------
 72
   65
 73
    0
 40
0
  0
ENDTAB
  0
TABLE
  2
STYLE
  5
3
100
AcDbSymbolTable
 70
     1
  0
STYLE
  5
10
100
AcDbSymbolTableRecord
100
AcDbTextStyleTableRecord
  2
STANDARD
 70
     0
 40
0.0
 41
1.0
 50
0.0
 71
     0
 42
0.2
  3
txt
  4
bigfont.shx
  0
STYLE
  5
26
100
AcDbSymbolTableRecord
100
AcDbTextStyleTableRecord
  2
TATEGAKI
 70
    68
 40
0.0
 41
1.0
 50
0.0
 71
     0
 42
1.0
  3
txt
  4
bigfont.shx
  0
ENDTAB
  0
TABLE
  2
LAYER
 70
    3
  0
LAYER
  2
_0-0_TOOLING
 70
   64
 62
    7
  6
CONTINUOUS
  0
LAYER
  2
_0-1_DIMENSION
 70
   64
 62
    7
  6
CONTINUOUS
  0
LAYER
  2
ADD_LINE
 70
   64
 62
    7
  6
CONTINUOUS
  0
ENDTAB
  0
ENDSEC
  0
SECTION
  2
BLOCKS
  0
ENDSEC
  0
SECTION
  2
ENTITIES
  0
LINE
  8
_0-1_DIMENSION
  6
CONTINUOUS
 62
    4
 10
134.34473424535085
 20
194.213679245283
 11
141.92245652846469
 21
198.588679245283
  0
TEXT
  8
_0-1_DIMENSION
 62
    7
 10
134.9272660000814
 20
195.70470464906745
 40
2.5
 41
1
 50
30
  1
φ12.5
  0
LINE
  8
_0-1_DIMENSION
  6
CONTINUOUS
 62
    4
 10
134.34473424535085
 20
194.213679245283
 11
132.89584550591724
 21
193.82545067762925
  0
LINE
  8
_0-1_DIMENSION
  6
CONTINUOUS
 62
    4
 10
134.34473424535085
 20
194.213679245283
 11
133.28407407357105
 21
193.1530190735032
  0
LINE
  8
_0-1_DIMENSION
  6
CONTINUOUS
 62
    4
 10
123.51941669804538
 20
187.963679245283
 11
124.96830543747897
 21
188.35190781293682
  0
LINE
  8
_0-1_DIMENSION
  6
CONTINUOUS
 62
    4
 10
123.51941669804538
 20
187.963679245283
 11
124.58007686982519
 21
189.02433941706283
  0
LINE
  8
_0-1_DIMENSION
  6
CONTINUOUS
 62
    4
 10
123.51941669804538
 20
187.963679245283
 11
134.34473424535085
 21
194.213679245283
  0
LINE
  8
_0-1_DIMENSION
  6
CENTER1
 62
    4
 10
119.9514702741189
 20
191.088679245283
 11
136.34785332858669
 21
191.088679245283
  0
LINE
  8
_0-1_DIMENSION
  6
CENTER1
 62
    4
 10
128.93207547169811
 20
200.40950516197935
 11
128.93207547169811
 21
184.93040227839089
  0
LINE
  8
_0-1_DIMENSION
  6
CONTINUOUS
 62
    4
 10
128.18207547169811
 20
180.91730153079388
 11
123.18207547169811
 21
180.91730153079388
  0
LINE
  8
_0-1_DIMENSION
  6
CONTINUOUS
 62
    4
 10
129.68207547169811
 20
180.91730153079388
 11
134.68207547169811
 21
180.91730153079388
  0
LINE
  8
_0-1_DIMENSION
  6
CONTINUOUS
 62
    4
 10
128.18207547169811
 20
180.91730153079388
 11
129.68207547169811
 21
180.91730153079388
  0
LINE
  8
_0-1_DIMENSION
  6
CONTINUOUS
 62
    4
 10
128.18207547169811
 20
180.91730153079388
 11
126.73318673226451
 21
180.52907296314009
  0
LINE
  8
_0-1_DIMENSION
  6
CONTINUOUS
 62
    4
 10
128.18207547169811
 20
180.91730153079388
 11
126.73318673226451
 21
181.30553009844766
  0
LINE
  8
_0-1_DIMENSION
  6
CONTINUOUS
 62
    4
 10
129.68207547169811
 20
180.91730153079388
 11
131.1309642111317
 21
180.52907296314009
  0
LINE
  8
_0-1_DIMENSION
  6
CONTINUOUS
 62
    4
 10
129.68207547169811
 20
180.91730153079388
 11
131.1309642111317
 21
181.30553009844766
  0
LINE
  8
_0-1_DIMENSION
  6
CONTINUOUS
 62
    4
 10
128.18207547169811
 20
180.41730153079388
 11
128.18207547169811
 21
183.88384242228759
  0
LINE
  8
_0-1_DIMENSION
  6
CONTINUOUS
 62
    4
 10
129.68207547169811
 20
180.41730153079388
 11
129.68207547169811
 21
183.88384242228759
  0
TEXT
  8
_0-1_DIMENSION
 62
    7
 10
131.54902278390887
 20
181.77725169099324
 40
2.5
 41
1
 50
0
  1
1.5
  0
LINE
  8
_0-1_DIMENSION
  6
CONTINUOUS
 62
    4
 10
118.28889996440014
 20
197.338679245283
 11
118.28889996440014
 21
185.838679245283
  0
LINE
  8
_0-1_DIMENSION
  6
CONTINUOUS
 62
    4
 10
118.28889996440014
 20
197.338679245283
 11
118.67712853205393
 21
195.88979050584942
  0
LINE
  8
_0-1_DIMENSION
  6
CONTINUOUS
 62
    4
 10
118.28889996440014
 20
197.338679245283
 11
117.90067139674636
 21
195.88979050584942
  0
LINE
  8
_0-1_DIMENSION
  6
CONTINUOUS
 62
    4
 10
118.28889996440014
 20
185.838679245283
 11
118.67712853205393
 21
187.28756798471662
  0
LINE
  8
_0-1_DIMENSION
  6
CONTINUOUS
 62
    4
 10
118.28889996440014
 20
185.838679245283
 11
117.90067139674636
 21
187.28756798471662
  0
LINE
  8
_0-1_DIMENSION
  6
CONTINUOUS
 62
    4
 10
117.78889996440014
 20
197.338679245283
 11
127.93207547169811
 21
197.338679245283
  0
LINE
  8
_0-1_DIMENSION
  6
CONTINUOUS
 62
    4
 10
117.78889996440014
 20
185.838679245283
 11
127.93207547169811
 21
185.838679245283
  0
TEXT
  8
_0-1_DIMENSION
 62
    7
 10
117.28889996440014
 20
189.088679245283
 40
2.5
 41
1
 50
90
  1
11.5
  0
TEXT
  8
_0-1_DIMENSION
 62
    7
 10
187.90584658951917
 20
195.87970464906746
 40
2.5
 41
1
 50
29.99999999999994
  1
φ10.2
  0
LINE
  8
_0-1_DIMENSION
  6
CONTINUOUS
 62
    4
 10
186.02427672911196
 20
193.63867924528302
 11
194.90103711790246
 21
198.76367924528302
  0
LINE
  8
_0-1_DIMENSION
  6
CONTINUOUS
 62
    4
 10
186.02427672911196
 20
193.63867924528302
 11
187.47316546854557
 21
194.0269078129368
  0
LINE
  8
_0-1_DIMENSION
  6
CONTINUOUS
 62
    4
 10
186.02427672911196
 20
193.63867924528302
 11
187.08493690089179
 21
194.69933941706284
  0
LINE
  8
_0-1_DIMENSION
  6
CONTINUOUS
 62
    4
 10
186.02427672911196
 20
193.63867924528302
 11
177.19081761051069
 21
188.53867924528302
  0
LINE
  8
_0-1_DIMENSION
  6
CONTINUOUS
 62
    4
 10
177.19081761051069
 20
188.53867924528302
 11
176.13015743873086
 21
187.47801907350319
  0
LINE
  8
_0-1_DIMENSION
  6
CONTINUOUS
 62
    4
 10
177.19081761051069
 20
188.53867924528302
 11
175.74192887107708
 21
188.15045067762924
  0
LINE
  8
_0-1_DIMENSION
  6
CONTINUOUS
 62
    4
 10
171.8943396226415
 20
186.68867924528303
 11
171.8943396226415
 21
195.48867924528301
  0
LINE
  8
_0-1_DIMENSION
  6
CONTINUOUS
 62
    4
 10
171.8943396226415
 20
186.68867924528303
 11
171.50611105498774
 21
188.13756798471661
  0
LINE
  8
_0-1_DIMENSION
  6
CONTINUOUS
 62
    4
 10
171.8943396226415
 20
186.68867924528303
 11
172.28256819029531
 21
188.13756798471661
  0
LINE
  8
_0-1_DIMENSION
  6
CONTINUOUS
 62
    4
 10
171.8943396226415
 20
195.48867924528301
 11
171.50611105498774
 21
194.0397905058494
  0
LINE
  8
_0-1_DIMENSION
  6
CONTINUOUS
 62
    4
 10
171.8943396226415
 20
195.48867924528301
 11
172.28256819029531
 21
194.0397905058494
  0
LINE
  8
_0-1_DIMENSION
  6
CONTINUOUS
 62
    4
 10
171.3943396226415
 20
186.68867924528303
 11
178.02878777816579
 21
186.68867924528303
  0
LINE
  8
_0-1_DIMENSION
  6
CONTINUOUS
 62
    4
 10
171.3943396226415
 20
195.48867924528301
 11
178.02878777816579
 21
195.48867924528301
  0
TEXT
  8
_0-1_DIMENSION
 62
    7
 10
170.8943396226415
 20
189.213679245283
 40
2.5
 41
1
 50
90
  1
8.8
  0
LINE
  8
_0-1_DIMENSION
  6
CENTER1
 62
    4
 10
181.60754716981131
 20
196.97863296546814
 11
181.60754716981131
 21
184.93040227839089
  0
LINE
  8
_0-1_DIMENSION
  6
CENTER1
 62
    4
 10
174.61516553933785
 20
191.088679245283
 11
189.44437166251336
 21
191.088679245283
  0
TEXT
  8
_0-1_DIMENSION
 62
    7
 10
105.39622641509435
 20
173.15660377358489
 40
4
 41
1
 50
0
  1
穴A : スイッチ S-331
  0
TEXT
  8
_0-1_DIMENSION
 62
    7
 10
159.78595941616234
 20
173.31731577073691
 40
4
 41
1
 50
0
  1
穴B : ネオンランプ BN-5701
  0
LINE
  8
_0-1_DIMENSION
  6
CONTINUOUS
 62
    4
 10
273.83088072510685
 20
187.80063271276555
 11
280.40697379014176
 21
194.37672577780046
  0
TEXT
  8
_0-1_DIMENSION
 62
    7
 10
281.6444106572182
 20
197.02837620725001
 40
2.5
 41
1
 50
45.000000000000092
  1
φ9.3
  0
LINE
  8
_0-1_DIMENSION
  6
CONTINUOUS
 62
    4
 10
280.40697379014176
 20
194.37672577780046
 11
286.77093482082068
 21
200.74068680847938
  0
LINE
  8
_0-1_DIMENSION
  6
CONTINUOUS
 62
    4
 10
270.29534681917414
 20
184.26509880683281
 11
273.83088072510685
 21
187.80063271276555
  0
LINE
  8
_0-1_DIMENSION
  6
CONTINUOUS
 62
    4
 10
273.83088072510685
 20
187.80063271276555
 11
273.08088072510685
 21
186.50159460708889
  0
LINE
  8
_0-1_DIMENSION
  6
CONTINUOUS
 62
    4
 10
273.83088072510685
 20
187.80063271276555
 11
272.53184261943022
 21
187.05063271276555
  0
LINE
  8
_0-1_DIMENSION
  6
CONTINUOUS
 62
    4
 10
280.40697379014176
 20
194.37672577780046
 11
281.15697379014176
 21
195.67576388347712
  0
LINE
  8
_0-1_DIMENSION
  6
CONTINUOUS
 62
    4
 10
280.40697379014176
 20
194.37672577780046
 11
281.70601189581839
 21
195.12672577780046
  0
LINE
  8
_0-1_DIMENSION
  6
CONTINUOUS
 62
    4
 10
265.88149039054787
 20
189.85124237820654
 11
268.35636412470075
 21
192.32611611235947
  0
TEXT
  8
_0-1_DIMENSION
 62
    7
 10
269.59380099177724
 20
194.97776654180902
 40
2.5
 41
1
 50
45.000000000000092
  1
φ3.5
  0
LINE
  8
_0-1_DIMENSION
  6
CONTINUOUS
 62
    4
 10
268.35636412470075
 20
192.32611611235947
 11
274.72032515537967
 21
198.69007714303839
  0
LINE
  8
_0-1_DIMENSION
  6
CONTINUOUS
 62
    4
 10
262.3459564846151
 20
186.3157084722738
 11
265.88149039054787
 21
189.85124237820654
  0
LINE
  8
_0-1_DIMENSION
  6
CONTINUOUS
 62
    4
 10
265.88149039054787
 20
189.85124237820654
 11
265.13149039054787
 21
188.55220427252988
  0
LINE
  8
_0-1_DIMENSION
  6
CONTINUOUS
 62
    4
 10
265.88149039054787
 20
189.85124237820654
 11
264.58245228487118
 21
189.10124237820654
  0
LINE
  8
_0-1_DIMENSION
  6
CONTINUOUS
 62
    4
 10
268.35636412470075
 20
192.32611611235947
 11
269.10636412470075
 21
193.62515421803613
  0
LINE
  8
_0-1_DIMENSION
  6
CONTINUOUS
 62
    4
 10
268.35636412470075
 20
192.32611611235947
 11
269.65540223037743
 21
193.07611611235947
  0
LINE
  8
_0-1_DIMENSION
  6
CENTER1
 62
    4
 10
261.74872978663223
 20
191.088679245283
 11
283.1432539165441
 21
191.088679245283
  0
LINE
  8
_0-1_DIMENSION
  6
CENTER1
 62
    4
 10
267.11892725762431
 20
194.86090398263144
 11
267.11892725762431
 21
187.82323157147624
  0
LINE
  8
_0-1_DIMENSION
  6
CENTER1
 62
    4
 10
277.11892725762431
 20
197.53521949887045
 11
277.11892725762431
 21
185.07853933112568
  0
LINE
  8
_0-1_DIMENSION
  6
CONTINUOUS
 62
    4
 10
267.11892725762431
 20
175.92956519662391
 11
277.11892725762431
 21
175.92956519662391
  0
LINE
  8
_0-1_DIMENSION
  6
CONTINUOUS
 62
    4
 10
267.11892725762431
 20
175.92956519662391
 11
268.56781599705789
 21
176.3177937642777
  0
LINE
  8
_0-1_DIMENSION
  6
CONTINUOUS
 62
    4
 10
267.11892725762431
 20
175.92956519662391
 11
268.56781599705789
 21
175.54133662897013
  0
LINE
  8
_0-1_DIMENSION
  6
CONTINUOUS
 62
    4
 10
277.11892725762431
 20
175.92956519662391
 11
275.67003851819072
 21
176.3177937642777
  0
LINE
  8
_0-1_DIMENSION
  6
CONTINUOUS
 62
    4
 10
277.11892725762431
 20
175.92956519662391
 11
275.67003851819072
 21
175.54133662897013
  0
LINE
  8
_0-1_DIMENSION
  6
CONTINUOUS
 62
    4
 10
267.11892725762431
 20
175.42956519662391
 11
267.11892725762431
 21
186.82323157147624
  0
LINE
  8
_0-1_DIMENSION
  6
CONTINUOUS
 62
    4
 10
277.11892725762431
 20
175.42956519662391
 11
277.11892725762431
 21
184.07853933112568
  0
TEXT
  8
_0-1_DIMENSION
 62
    7
 10
270.86892725762431
 20
176.92956519662391
 40
2.5
 41
1
 50
0
  1
10
  0
TEXT
  8
_0-1_DIMENSION
 62
    7
 10
256.68160565060049
 20
168.46963244079939
 40
3.5
 41
1
 50
0
  1
穴C : ボリューム RV24
  0
LINE
  8
_0-0_TOOLING
  6
CONTINUOUS
 62
    5
 10
128.18207547169811
 20
185.838679245283
 11
129.68207547169811
 21
185.838679245283
  0
LINE
  8
_0-0_TOOLING
  6
CONTINUOUS
 62
    5
 10
129.68207547169811
 20
185.838679245283
 11
129.68207547169811
 21
184.88384242228759
  0
LINE
  8
_0-0_TOOLING
  6
CONTINUOUS
 62
    5
 10
128.18207547169811
 20
185.838679245283
 11
128.18207547169811
 21
184.88384242228759
  0
ARC
  8
_0-0_TOOLING
  6
CONTINUOUS
 62
    5
 10
128.93207547169811
 20
191.088679245283
 40
6.25
 50
276.89210257934639
 51
263.10789742065361
  0
LINE
  8
_0-0_TOOLING
  6
CONTINUOUS
 62
    5
 10
179.02878777816579
 20
195.48867924528301
 11
184.18630656145683
 21
195.48867924528301
  0
ARC
  8
_0-0_TOOLING
  6
CONTINUOUS
 62
    5
 10
181.60754716981131
 20
191.088679245283
 40
5.0999999999999996
 50
120.37378619983797
 51
239.62621380016202
  0
ARC
  8
_0-0_TOOLING
  6
CONTINUOUS
 62
    5
 10
181.60754716981131
 20
191.088679245283
 40
5.0999999999999996
 50
300.37378619983798
 51
59.626213800162034
  0
LINE
  8
_0-0_TOOLING
  6
CONTINUOUS
 62
    5
 10
179.02878777816579
 20
186.68867924528303
 11
184.18630656145683
 21
186.68867924528303
  0
CIRCLE
  8
_0-0_TOOLING
  6
CONTINUOUS
 62
    5
 10
277.11892725762431
 20
191.088679245283
 40
4.6499999999999995
  0
CIRCLE
  8
_0-0_TOOLING
  6
CONTINUOUS
 62
    5
 10
267.11892725762431
 20
191.088679245283
 40
1.7500000000000002
  0
ENDSEC
  0
EOF
