  0
SECTION
  2
HEADER
  9
$ACADVER
  1
AC1009
  9
$INSBASE
 10
0
 20
0
 30
0
  9
$EXTMIN
 10
0
 20
0
  9
$EXTMAX
 10
84
 20
59.400000000000006
  9
$LIMMIN
 10
0
 20
0
  9
$LIMMAX
 10
84
 20
59.400000000000006
  9
$LTSCALE
 40
0.2
  0
ENDSEC
  0
SECTION
  2
TABLES
  0
TABLE
  2
LTYPE
 70
     9
  0
LTYPE
  2
CONTINUOUS
 70
    64
  3
実線
 72
    65
 73
     0
 40
0.0
  0
LTYPE
  2
DASHED1
 70
    64
  3
--  --  --  --  --  --  --  --  
 72
    65
 73
     2
 40
2.5
 49
1.25
 49
-1.25
  0
LTYPE
  2
DASHED2
 70
    64
  3
----    ----    ----    ----    
 72
    65
 73
     2
 40
5.0
 49
2.5
 49
-2.5
  0
LTYPE
  2
DASHED3
 70
    64
  3
------  ------  ------  ------  
 72
    65
 73
     2
 40
5.0
 49
3.75
 49
-1.25
  0
LTYPE
  2
CENTER1
 70
    64
  3
----- - ----- - ----- - ----- - 
 72
    65
 73
     4
 40
10.0
 49
6.25
 49
-1.25
 49
1.25
 49
-1.25
  0
LTYPE
  2
CENTER2
 70
    64
  3
----------  --  ----------  --  
 72
    65
 73
     4
 40
20.0
 49
12.5
 49
-2.5
 49
2.5
 49
-2.5
  0
LTYPE
  2
PHANTOM1
 70
    64
  3
--- - - --- - - --- - - --- - - 
 72
    65
 73
     6
 40
10.0
 49
3.25
 49
-1.25
 49
1.25
 49
-1.25
 49
1.25
 49
-1.25
  0
LTYPE
  2
PHANTOM2
 70
    64
  3
--------  -  -  --------  -  -  
 72
    65
 73
     6
 40
20.0
 49
10.0
 49
-2.5
 49
1.25
 49
-2.5
 49
1.25
 49
-2.5
  0
LTYPE
  2
DOT
 70
    64
  3
-   -   -   -   -   -   -   -   
 72
    65
 73
     2
 40
2.5
 49
0.625
 49
-1.875
  0
LTYPE
  2
DUMMY
 70
    64
  3
ダミー
 72
    65
 73
     0
 40
0.0
  0
LTYPE
  2
RAND1
 70
    64
  3
ランダム線1
 72
    65
 73
     4
 40
10.0
 49
1.0
 49
-2.0
 49
3.0
 49
-4.0
  0
LTYPE
  2
RAND2
 70
    64
  3
ランダム線2
 72
    65
 73
     4
 40
14.0
 49
2.0
 49
-3.0
 49
4.0
 49
-5.0
  0
LTYPE
  2
RAND3
 70
    64
  3
ランダム線3
 72
    65
 73
     4
 40
18.0
 49
3.0
 49
-4.0
 49
5.0
 49
-6.0
  0
LTYPE
  2
RAND4
 70
    64
  3
ランダム線4
 72
    65
 73
     4
 40
22.0
 49
4.0
 49
-5.0
 49
6.0
 49
-7.0
  0
LTYPE
  2
RAND5
 70
    64
  3
ランダム線5
 72
    65
 73
     4
 40
26.0
 49
5.0
 49
-6.0
 49
7.0
 49
-8.0
  0
LTYPE
  2
LONG1
 70
    64
  3
----------  --  ----------  --  
 72
    65
 73
     4
 40
40.0
 49
32.5
 49
-2.5
 49
2.5
 49
-2.5
  0
LTYPE
  2
LONG2
 70
    64
  3
--------  -  -  --------  -  -  
 72
    65
 73
     6
 40
40.0
 49
30.0
 49
-2.5
 49
1.25
 49
-2.5
 49
1.25
 49
-2.5
  0
LTYPE
  2
LONG3
 70
    64
  3
+++++++++++++++..+++++++++++++++
 72
    65
 73
     2
 40
40.0
 49
37.5
 49
-2.5
  0
LTYPE
  2
LONG4
 70
    64
  3
+++++++++++++++..+++++++++++++++
 72
    65
 73
     2
 40
80.0
 49
75.0
 49
-5.0
  0
LTYPE
  2
LONG5
 70
    64
  3
----------  --  ----------  --  
 72
    65
 73
     4
 40
60.0
 49
37.5
 49
-7.5
 49
7.5
 49
-7.5
  0
LTYPE
  2
dashed
 70
   64
  3
-------   -------------   ------
 72
   65
 73
    2
 40
7.5
 49
6
 49
-1.5
  0
LTYPE
  2
dashed_spaced
 70
   64
  3
----        --------        ----
 72
   65
 73
    2
 40
12
 49
6
 49
-6
  0
LTYPE
  2
long_dashed_dotted
 70
   64
  3
------------- --- --------------
 72
   65
 73
    4
 40
15.25
 49
12
 49
-1.5
 49
0.25
 49
-1.5
  0
LTYPE
  2
long_dashed_double-dotted
 70
   64
  3
----------- --- --- ------------
 72
   65
 73
    6
 40
17
 49
12
 49
-1.5
 49
0.25
 49
-1.5
 49
0.25
 49
-1.5
  0
LTYPE
  2
long_dashed_triplicate-dotted
 70
   64
  3
--------- --- --- --- ----------
 72
   65
 73
    8
 40
18.75
 49
12
 49
-1.5
 49
0.25
 49
-1.5
 49
0.25
 49
-1.5
 49
0.25
 49
-1.5
  0
LTYPE
  2
dotted
 70
   64
  3
   -       -       -       -    
 72
   65
 73
    2
 40
1.75
 49
0.25
 49
-1.5
  0
LTYPE
  2
chain
 70
   64
  3
-------------- -- --------------
 72
   65
 73
    4
 40
18.5
 49
12
 49
-1.5
 49
3.5
 49
-1.5
  0
LTYPE
  2
chain_double_dash
 70
   64
  3
------------ -- -- -------------
 72
   65
 73
    6
 40
23.5
 49
12
 49
-1.5
 49
3.5
 49
-1.5
 49
3.5
 49
-1.5
  0
LTYPE
  2
dashed_dotted
 70
   64
  3
-----------     -     ----------
 72
   65
 73
    4
 40
9.25
 49
6
 49
-1.5
 49
0.25
 49
-1.5
  0
LTYPE
  2
double-dashed_dotted
 70
   64
  3
------   -----------   -   -----
 72
   65
 73
    6
 40
16.75
 49
6
 49
-1.5
 49
6
 49
-1.5
 49
0.25
 49
-1.5
  0
LTYPE
  2
dashed_double-dotted
 70
   64
  3
---------    -    -    ---------
 72
   65
 73
    6
 40
11
 49
6
 49
-1.5
 49
0.25
 49
-1.5
 49
0.25
 49
-1.5
  0
LTYPE
  2
double-dashed_double-dotted
 70
   64
  3
-----   ---------   -   -   ----
 72
   65
 73
    8
 40
18.5
 49
6
 49
-1.5
 49
6
 49
-1.5
 49
0.25
 49
-1.5
 49
0.25
 49
-1.5
  0
LTYPE
  2
dashed_triplicate-dotted
 70
   64
  3
-------    -    -    -    ------
 72
   65
 73
    8
 40
12.75
 49
6
 49
-1.5
 49
0.25
 49
-1.5
 49
0.25
 49
-1.5
 49
0.25
 49
-1.5
  0
LTYPE
  2
double-dashed_triplicate-dotted
 70
   64
  3
-----  ---------  -  -  -  -----
 72
   65
 73
   10
 40
20.25
 49
6
 49
-1.5
 49
6
 49
-1.5
 49
0.25
 49
-1.5
 49
0.25
 49
-1.5
 49
0.25
 49
-1.5
  0
LTYPE
  2
undefined
 70
   64
  3
--------------------------------
 72
   65
 73
    0
 40
0
  0
LTYPE
  2
CENTER
 70
   64
  3
----------    ----    ----------
 72
   65
 73
    4
 40
50.799999999999983
 49
31.75
 49
-6.349999999999997
 49
6.349999999999997
 49
-6.349999999999997
  0
LTYPE
  2
PHANTOM2_18
 70
   64
  3
---------   ---   ---   --------
 72
   65
 73
    6
 40
31.749999999999986
 49
15.875
 49
-3.174999999999998
 49
3.174999999999998
 49
-3.174999999999998
 49
3.174999999999998
 49
-3.174999999999998
  0
LTYPE
  2
HIDDEN
 70
   64
  3
------     -----------     -----
 72
   65
 73
    2
 40
9.524999999999995
 49
6.349999999999997
 49
-3.174999999999998
  0
LTYPE
  2
Amconstr
 70
   64
  3
-------- --------------- -------
 72
   65
 73
    2
 40
9999.0100000000002
 49
9999
 49
-0.01
  0
LTYPE
  2
AM_ISO08W050x2
 70
   64
  3
-----------   -----   ----------
 72
   65
 73
    4
 40
9
 49
6
 49
-0.75
 49
1.5
 49
-0.75
  0
LTYPE
  2
AM_ISO02W050x2
 70
   64
  3
-------   -------------   ------
 72
   65
 73
    2
 40
3.75
 49
3
 49
-0.75
  0
LTYPE
  2
Amzigzag
 70
   64
  3
-               -               
 72
   65
 73
    2
 40
11.0001
 49
0.0001
 49
-11
  0
LTYPE
  2
ACISOWELD
 70
   64
  3
------     -----------     -----
 72
   65
 73
    2
 40
3
 49
2
 49
-1
  0
LTYPE
  2
ACISOTGB
 70
   64
  3
------    ----    ----    ------
 72
   65
 73
    6
 40
9
 49
4
 49
-1
 49
1
 49
-1
 49
1
 49
-1
  0
LTYPE
  2
CENTER2_26
 70
   64
  3
----------    ----    ----------
 72
   65
 73
    4
 40
28.574999999999992
 49
19.050000000000001
 49
-3.174999999999998
 49
3.174999999999998
 49
-3.174999999999998
  0
LTYPE
  2
HIDDEN2
 70
   64
  3
------     -----------     -----
 72
   65
 73
    2
 40
4.7624999999999975
 49
3.174999999999998
 49
-1.587499999999999
  0
ENDTAB
  0
TABLE
  2
STYLE
  5
3
100
AcDbSymbolTable
 70
     1
  0
STYLE
  5
10
100
AcDbSymbolTableRecord
100
AcDbTextStyleTableRecord
  2
STANDARD
 70
     0
 40
0.0
 41
1.0
 50
0.0
 71
     0
 42
0.2
  3
txt
  4
bigfont.shx
  0
STYLE
  5
26
100
AcDbSymbolTableRecord
100
AcDbTextStyleTableRecord
  2
TATEGAKI
 70
    68
 40
0.0
 41
1.0
 50
0.0
 71
     0
 42
1.0
  3
txt
  4
bigfont.shx
  0
ENDTAB
  0
TABLE
  2
LAYER
 70
    5
  0
LAYER
  2
_0-0_OUTLINE1
 70
   64
 62
    7
  6
CONTINUOUS
  0
LAYER
  2
_0-1_AM_0_プロファイル__中__
 70
   64
 62
    7
  6
CONTINUOUS
  0
LAYER
  2
_0-2_AM_6_文字
 70
   64
 62
    7
  6
CONTINUOUS
  0
LAYER
  2
_0-3_Defpoints
 70
   64
 62
    7
  6
CONTINUOUS
  0
LAYER
  2
ADD_LINE
 70
   64
 62
    7
  6
CONTINUOUS
  0
ENDTAB
  0
ENDSEC
  0
SECTION
  2
BLOCKS
  0
ENDSEC
  0
SECTION
  2
ENTITIES
  0
LINE
  8
_0-0_OUTLINE1
  6
CONTINUOUS
 62
    3
 10
26.508593885805567
 20
55.09124919613005
 11
33.509824138669501
 21
55.09124919613005
  0
LINE
  8
_0-0_OUTLINE1
  6
CONTINUOUS
 62
    3
 10
25.509824138669501
 20
13.784077582533611
 11
34.509824138669501
 21
13.784077582533611
  0
LINE
  8
_0-0_OUTLINE1
  6
CONTINUOUS
 62
    3
 10
25.509824138669501
 20
13.784077582533611
 11
25.509824138669501
 21
14.284077582533611
  0
LINE
  8
_0-0_OUTLINE1
  6
CONTINUOUS
 62
    3
 10
34.509824138669501
 20
14.284077582533611
 11
34.509824138669501
 21
13.784077582533611
  0
LINE
  8
_0-0_OUTLINE1
  6
CONTINUOUS
 62
    3
 10
25.509824138669501
 20
14.284077582533611
 11
34.509824138669501
 21
14.284077582533611
  0
LINE
  8
_0-0_OUTLINE1
  6
CONTINUOUS
 62
    3
 10
28.25982413867132
 20
32.334077582533794
 11
31.75982413867041
 21
32.334077582533794
  0
LINE
  8
_0-0_OUTLINE1
  6
CONTINUOUS
 62
    3
 10
28.25982413867132
 20
30.834077582532885
 11
29.359824138670774
 21
30.834077582532885
  0
LINE
  8
_0-0_OUTLINE1
  6
CONTINUOUS
 62
    3
 10
29.359824138670774
 20
28.834077582533794
 11
30.659824138669137
 21
28.834077582533794
  0
LINE
  8
_0-0_OUTLINE1
  6
CONTINUOUS
 62
    3
 10
29.359824138670774
 20
28.834077582533794
 11
29.359824138670774
 21
30.834077582532885
  0
LINE
  8
_0-0_OUTLINE1
  6
CONTINUOUS
 62
    3
 10
30.659824138669137
 20
28.834077582533794
 11
30.659824138669137
 21
30.834077582532885
  0
LINE
  8
_0-0_OUTLINE1
  6
CONTINUOUS
 62
    3
 10
28.25982413867132
 20
32.334077582533794
 11
28.25982413867132
 21
30.834077582532885
  0
LINE
  8
_0-0_OUTLINE1
  6
CONTINUOUS
 62
    3
 10
31.75982413867041
 20
32.334077582533794
 11
31.75982413867041
 21
30.834077582532885
  0
LINE
  8
_0-0_OUTLINE1
  6
CONTINUOUS
 62
    3
 10
30.659824138669137
 20
30.834077582532885
 11
31.75982413867041
 21
30.834077582532885
  0
LINE
  8
_0-0_OUTLINE1
  6
CONTINUOUS
 62
    3
 10
26.997576873606704
 20
33.696636433047573
 11
26.509824138669501
 21
14.284077582533611
  0
LINE
  8
_0-0_OUTLINE1
  6
CONTINUOUS
 62
    3
 10
33.022071403731388
 20
33.696636433045754
 11
33.509824138669501
 21
14.284077582533611
  0
ARC
  8
_0-0_OUTLINE1
  6
CONTINUOUS
 62
    3
 10
27.497419123996224
 20
33.684077582533249
 40
0.5
 50
44.124389038409291
 51
178.56071037209139
  0
ARC
  8
_0-0_OUTLINE1
  6
CONTINUOUS
 62
    3
 10
32.522229153342778
 20
33.684077582533249
 40
0.5
 50
1.4392896279112102
 51
135.87561096151589
  0
ARC
  8
_0-0_OUTLINE1
  6
CONTINUOUS
 62
    3
 10
30.009824138669501
 20
36.120842044321947
 40
3
 50
224.12438903840962
 51
315.87561096156571
  0
ARC
  8
_0-0_OUTLINE1
  6
CONTINUOUS
 62
    3
 10
28.609824138670774
 20
15.184077582534156
 40
0.1
 50
45
 51
135
  0
LINE
  8
_0-0_OUTLINE1
  6
CONTINUOUS
 62
    3
 10
27.568402782435442
 20
14.284077582533611
 11
28.539113460553381
 21
15.254788260653369
  0
LINE
  8
_0-0_OUTLINE1
  6
CONTINUOUS
 62
    3
 10
29.651245494907016
 20
14.284077582533611
 11
28.680534816789987
 21
15.254788260653369
  0
ARC
  8
_0-0_OUTLINE1
  6
CONTINUOUS
 62
    3
 10
31.409824138669137
 20
15.184077582534156
 40
0.1
 50
44.999999999995147
 51
135.0000000000048
  0
LINE
  8
_0-0_OUTLINE1
  6
CONTINUOUS
 62
    3
 10
32.451245494906289
 20
14.284077582533611
 11
31.480534816789259
 21
15.254788260653369
  0
LINE
  8
_0-0_OUTLINE1
  6
CONTINUOUS
 62
    3
 10
30.368402782433805
 20
14.284077582533611
 11
31.339113460549925
 21
15.254788260653369
  0
LINE
  8
_0-0_OUTLINE1
  6
CONTINUOUS
 62
    3
 10
29.184824138669683
 20
23.409077582533612
 11
29.184824138669683
 21
22.159077582534522
  0
LINE
  8
_0-0_OUTLINE1
  6
CONTINUOUS
 62
    3
 10
30.834824138669319
 20
23.409077582533612
 11
30.834824138669319
 21
22.159077582533612
  0
LINE
  8
_0-0_OUTLINE1
  6
CONTINUOUS
 62
    3
 10
29.38482413867041
 20
23.609077582532521
 11
30.63482413867041
 21
23.609077582532521
  0
LINE
  8
_0-0_OUTLINE1
  6
CONTINUOUS
 62
    3
 10
30.63482413867041
 20
21.959077582534704
 11
29.38482413867041
 21
21.959077582534704
  0
ARC
  8
_0-0_OUTLINE1
  6
CONTINUOUS
 62
    3
 10
29.38482413867041
 20
23.409077582533612
 40
0.2
 50
90
 51
180
  0
ARC
  8
_0-0_OUTLINE1
  6
CONTINUOUS
 62
    3
 10
30.63482413867041
 20
23.409077582533612
 40
0.2
 50
0
 51
90
  0
ARC
  8
_0-0_OUTLINE1
  6
CONTINUOUS
 62
    3
 10
30.63482413867041
 20
22.159077582533612
 40
0.2
 50
270
 51
0
  0
ARC
  8
_0-0_OUTLINE1
  6
CONTINUOUS
 62
    3
 10
29.38482413867041
 20
22.159077582534522
 40
0.2
 50
180
 51
270
  0
LINE
  8
_0-0_OUTLINE1
  6
CONTINUOUS
 62
    3
 10
26.50982413867041
 20
54.59124919613005
 11
33.509824138669501
 21
54.59124919613005
  0
LINE
  8
_0-0_OUTLINE1
  6
CONTINUOUS
 62
    3
 10
25.509824138669501
 20
48.59124919613005
 11
25.509824138673139
 21
53.59124919613005
  0
LINE
  8
_0-0_OUTLINE1
  6
CONTINUOUS
 62
    3
 10
34.509824138669501
 20
48.59124919613005
 11
34.509824138669501
 21
53.59124919613005
  0
LINE
  8
_0-0_OUTLINE1
  6
CONTINUOUS
 62
    3
 10
26.508593885805567
 20
55.09124919613005
 11
26.508593885805567
 21
54.59124919613005
  0
LINE
  8
_0-0_OUTLINE1
  6
CONTINUOUS
 62
    3
 10
33.509824138669501
 20
55.09124919613005
 11
33.509824138669501
 21
54.59124919613005
  0
LINE
  8
_0-0_OUTLINE1
  6
CONTINUOUS
 62
    3
 10
5.0098241386713198
 20
55.09124919613005
 11
45.00982413867041
 21
55.091249196131869
  0
ARC
  8
_0-0_OUTLINE1
  6
CONTINUOUS
 62
    3
 10
30.009824138669501
 20
48.59124919613005
 40
4.5
 50
180
 51
0
  0
ARC
  8
_0-0_OUTLINE1
  6
CONTINUOUS
 62
    3
 10
33.509824138669501
 20
53.59124919613005
 40
1
 50
0
 51
90
  0
ARC
  8
_0-0_OUTLINE1
  6
CONTINUOUS
 62
    3
 10
26.50982413867041
 20
53.59124919613005
 40
1
 50
89.999999999993477
 51
180
  0
LINE
  8
_0-0_OUTLINE1
  6
CONTINUOUS
 62
    3
 10
28.409824138669137
 20
50.291249196129868
 11
28.409824138670956
 21
47.891249196130232
  0
LINE
  8
_0-0_OUTLINE1
  6
CONTINUOUS
 62
    3
 10
31.609824138670774
 20
50.291249196129868
 11
31.609824138671684
 21
47.891249196132051
  0
ARC
  8
_0-0_OUTLINE1
  6
CONTINUOUS
 62
    3
 10
30.009824138669501
 20
49.09124919613005
 40
2
 50
36.869897645797117
 51
143.13010235412992
  0
ARC
  8
_0-0_OUTLINE1
  6
CONTINUOUS
 62
    3
 10
30.009824138669501
 20
49.09124919613005
 40
2
 50
216.86989764587008
 51
323.1301023542029
  0
ARC
  8
_0-0_OUTLINE1
  6
CONTINUOUS
 62
    3
 10
28.609824138675322
 20
53.691249196131324
 40
0.1
 50
225.00000000000489
 51
314.99999999999511
  0
LINE
  8
_0-0_OUTLINE1
  6
CONTINUOUS
 62
    3
 10
27.56840278243817
 20
54.59124919613005
 11
28.539113460557019
 21
53.620538518013021
  0
LINE
  8
_0-0_OUTLINE1
  6
CONTINUOUS
 62
    3
 10
29.651245494909745
 20
54.59124919613005
 11
28.680534816792715
 21
53.620538518013021
  0
ARC
  8
_0-0_OUTLINE1
  6
CONTINUOUS
 62
    3
 10
31.409824138673685
 20
53.691249196131324
 40
0.1
 50
225.0000000000023
 51
314.99999999999773
  0
LINE
  8
_0-0_OUTLINE1
  6
CONTINUOUS
 62
    3
 10
32.451245494910836
 20
54.59124919613005
 11
31.480534816792897
 21
53.620538518013021
  0
LINE
  8
_0-0_OUTLINE1
  6
CONTINUOUS
 62
    3
 10
30.368402782439262
 20
54.59124919613005
 11
31.339113460557201
 21
53.620538518013021
  0
LINE
  8
_0-0_OUTLINE1
  6
CONTINUOUS
 62
    3
 10
20.834824138669319
 20
23.409077582533612
 11
20.834824138669319
 21
22.159077582533612
  0
ARC
  8
_0-0_OUTLINE1
  6
CONTINUOUS
 62
    3
 10
20.63482413867132
 20
23.409077582533612
 40
0.2
 50
0
 51
90
  0
LINE
  8
_0-0_OUTLINE1
  6
CONTINUOUS
 62
    3
 10
19.184824138669683
 20
23.409077582533612
 11
19.184824138669683
 21
22.159077582534522
  0
ARC
  8
_0-0_OUTLINE1
  6
CONTINUOUS
 62
    3
 10
19.384824138669501
 20
22.159077582534522
 40
0.2
 50
180
 51
270
  0
ARC
  8
_0-0_OUTLINE1
  6
CONTINUOUS
 62
    3
 10
19.384824138669501
 20
23.409077582533612
 40
0.2
 50
90
 51
180
  0
LINE
  8
_0-0_OUTLINE1
  6
CONTINUOUS
 62
    3
 10
20.63482413867041
 20
21.959077582534704
 11
19.384824138669501
 21
21.959077582534704
  0
ARC
  8
_0-0_OUTLINE1
  6
CONTINUOUS
 62
    3
 10
20.63482413867041
 20
22.159077582533612
 40
0.2
 50
270
 51
0
  0
LINE
  8
_0-0_OUTLINE1
  6
CONTINUOUS
 62
    3
 10
19.384824138669501
 20
23.609077582532521
 11
20.63482413867132
 21
23.609077582532521
  0
LINE
  8
_0-0_OUTLINE1
  6
CONTINUOUS
 62
    3
 10
17.50982413867041
 20
33.48407758253434
 11
17.50982413867041
 21
23.084077582532885
  0
LINE
  8
_0-0_OUTLINE1
  6
CONTINUOUS
 62
    3
 10
22.509824138669501
 20
33.48407758253434
 11
22.509824138669501
 21
23.084077582532885
  0
ARC
  8
_0-0_OUTLINE1
  6
CONTINUOUS
 62
    3
 10
17.809824138668773
 20
33.48407758253434
 40
0.2999999999999999
 50
44.791324660069066
 51
180.00000000000003
  0
ARC
  8
_0-0_OUTLINE1
  6
CONTINUOUS
 62
    3
 10
22.209824138670228
 20
33.48407758253434
 40
0.2999999999999999
 50
0
 51
135.20867533993089
  0
ARC
  8
_0-0_OUTLINE1
  6
CONTINUOUS
 62
    3
 10
20.009824138669501
 20
35.668110549317319
 40
2.799999999999998
 50
224.79132466007809
 51
315.20867533992191
  0
ARC
  8
_0-0_OUTLINE1
  6
CONTINUOUS
 62
    3
 10
20.009824138669501
 20
23.084077582532885
 40
2.5
 50
180
 51
0
  0
LINE
  8
_0-0_OUTLINE1
  6
CONTINUOUS
 62
    3
 10
17.527889409473573
 20
55.09124919613005
 11
17.527889409473573
 21
54.691249196129505
  0
LINE
  8
_0-0_OUTLINE1
  6
CONTINUOUS
 62
    3
 10
22.509824138669501
 20
55.09124919613005
 11
22.509824138669501
 21
54.691249196129505
  0
LINE
  8
_0-0_OUTLINE1
  6
CONTINUOUS
 62
    3
 10
17.527889409473573
 20
54.691249196129505
 11
22.509824138669501
 21
54.691249196129505
  0
LINE
  8
_0-0_OUTLINE1
  6
CONTINUOUS
 62
    3
 10
72.088195976934003
 20
34.184077582534158
 11
71.588195976934003
 21
34.184077582534158
  0
LINE
  8
_0-0_OUTLINE1
  6
CONTINUOUS
 62
    3
 10
72.088195976932184
 20
14.484077582532519
 11
72.088195976934003
 21
34.184077582534158
  0
LINE
  8
_0-0_OUTLINE1
  6
CONTINUOUS
 62
    3
 10
61.088195976932184
 20
13.784077582533611
 11
61.088195976932184
 21
14.284077582533611
  0
ARC
  8
_0-0_OUTLINE1
  6
CONTINUOUS
 62
    3
 10
71.388195976932366
 20
14.484077582532519
 40
0.6999999999999999
 50
270
 51
0
  0
LINE
  8
_0-0_OUTLINE1
  6
CONTINUOUS
 62
    3
 10
71.588195976932184
 20
14.484077582532519
 11
71.588195976934003
 21
34.184077582534158
  0
ARC
  8
_0-0_OUTLINE1
  6
CONTINUOUS
 62
    3
 10
71.388195976932366
 20
14.484077582532519
 40
0.2
 50
270
 51
359.99999999999733
  0
LINE
  8
_0-0_OUTLINE1
  6
CONTINUOUS
 62
    3
 10
61.088195976932184
 20
14.284077582533611
 11
71.388195976932366
 21
14.284077582533611
  0
LINE
  8
_0-0_OUTLINE1
  6
CONTINUOUS
 62
    3
 10
71.588195976932184
 20
15.284077582533611
 11
70.588195976932184
 21
14.284077582533611
  0
LINE
  8
_0-0_OUTLINE1
  6
CONTINUOUS
 62
    3
 10
5.0098241386713198
 20
17.78407758253179
 11
26.597763837162347
 21
17.784077582534518
  0
LINE
  8
_0-0_OUTLINE1
  6
CONTINUOUS
 62
    3
 10
12.50982413867132
 20
27.784077582536341
 11
17.50982413867041
 21
27.784077582533612
  0
LINE
  8
_0-0_OUTLINE1
  6
CONTINUOUS
 62
    3
 10
33.170628158771251
 20
27.784077582533612
 11
37.509824138672229
 21
27.784077582533612
  0
LINE
  8
_0-0_OUTLINE1
  6
CONTINUOUS
 62
    3
 10
33.421884440175745
 20
17.784077582533609
 11
45.009824138676777
 21
17.784077582533609
  0
LINE
  8
_0-0_OUTLINE1
  6
CONTINUOUS
 62
    3
 10
22.509824138669501
 20
27.784077582533612
 11
26.849020118570479
 21
27.784077582533612
  0
LINE
  8
_0-0_OUTLINE1
  6
CONTINUOUS
 62
    3
 10
5.0098241386713198
 20
56.59124919613005
 11
45.00982413867041
 21
56.59124919613005
  0
LINE
  8
_0-0_OUTLINE1
  6
CONTINUOUS
 62
    3
 10
73.588195976932184
 20
27.784077582533612
 11
73.588195976932184
 21
17.784077582533609
  0
LINE
  8
_0-0_OUTLINE1
  6
CONTINUOUS
 62
    3
 10
73.588195976932184
 20
27.784077582533612
 11
72.088195976932184
 21
27.784077582533612
  0
LINE
  8
_0-0_OUTLINE1
  6
CONTINUOUS
 62
    3
 10
73.588195976932184
 20
17.784077582533609
 11
72.088195976932184
 21
17.784077582533609
  0
LINE
  8
_0-0_OUTLINE1
  6
CONTINUOUS
 62
    3
 10
73.588195976932184
 20
27.784077582533612
 11
73.588195976932184
 21
17.784077582533609
  0
LINE
  8
_0-0_OUTLINE1
  6
CONTINUOUS
 62
    3
 10
73.588195976932184
 20
27.784077582533612
 11
73.588195976932184
 21
17.784077582533609
  0
LINE
  8
_0-0_OUTLINE1
  6
CONTINUOUS
 62
    3
 10
73.588195976932184
 20
27.784077582533612
 11
73.588195976932184
 21
17.784077582533609
  0
LINE
  8
_0-0_OUTLINE1
  6
CONTINUOUS
 62
    3
 10
73.888197121341364
 20
25.284078059368042
 11
73.588195976932184
 21
25.284078059368042
  0
LINE
  8
_0-0_OUTLINE1
  6
CONTINUOUS
 62
    3
 10
73.888197121341364
 20
20.28407805937168
 11
73.588195976932184
 21
20.28407805937168
  0
LINE
  8
_0-0_OUTLINE1
  6
CONTINUOUS
 62
    3
 10
73.988199410166999
 20
21.784077105692816
 11
73.588195976932184
 21
21.784077105692816
  0
LINE
  8
_0-0_OUTLINE1
  6
CONTINUOUS
 62
    3
 10
73.988199410166999
 20
23.78407805937168
 11
73.588195976932184
 21
23.78407805937168
  0
LINE
  8
_0-0_OUTLINE1
  6
CONTINUOUS
 62
    3
 10
73.988199410166999
 20
23.78407805937168
 11
73.988199410166999
 21
21.784077105692816
  0
ARC
  8
_0-0_OUTLINE1
  6
CONTINUOUS
 62
    3
 10
71.238252815921442
 20
24.534079966721222
 40
2.7540369033813001
 50
344.19715774634778
 51
15.802785790872354
  0
ARC
  8
_0-0_OUTLINE1
  6
CONTINUOUS
 62
    3
 10
70.938240227419556
 20
24.534079966721222
 40
2.7540450096129971
 50
344.1972328783807
 51
15.802765300321498
  0
ARC
  8
_0-0_OUTLINE1
  6
CONTINUOUS
 62
    3
 10
71.238252815921442
 20
21.034076152021228
 40
2.7540369033813001
 50
344.19721921811492
 51
15.802840432350786
  0
ARC
  8
_0-0_OUTLINE1
  6
CONTINUOUS
 62
    3
 10
70.938240227419556
 20
21.034079013042358
 40
2.7540450096129971
 50
344.1972328783807
 51
15.802765300321498
  0
LINE
  8
_0-0_OUTLINE1
  6
CONTINUOUS
 62
    3
 10
27.509823661835981
 20
56.89125034053923
 11
27.509823661835981
 21
56.59124919613005
  0
LINE
  8
_0-0_OUTLINE1
  6
CONTINUOUS
 62
    3
 10
32.509823661833252
 20
56.89125034053923
 11
32.509823661833252
 21
56.59124919613005
  0
LINE
  8
_0-0_OUTLINE1
  6
CONTINUOUS
 62
    3
 10
31.009824615510297
 20
56.991252629364865
 11
31.009824615510297
 21
56.59124919613005
  0
LINE
  8
_0-0_OUTLINE1
  6
CONTINUOUS
 62
    3
 10
29.009823661833252
 20
56.991252629364865
 11
29.009823661833252
 21
56.59124919613005
  0
LINE
  8
_0-0_OUTLINE1
  6
CONTINUOUS
 62
    3
 10
29.009823661833252
 20
56.991252629364865
 11
31.009824615510297
 21
56.991252629364865
  0
ARC
  8
_0-0_OUTLINE1
  6
CONTINUOUS
 62
    3
 10
28.25982175448371
 20
54.241306035120218
 40
2.7540369033813001
 50
74.197157746347557
 51
105.80278579087221
  0
ARC
  8
_0-0_OUTLINE1
  6
CONTINUOUS
 62
    3
 10
28.25982175448371
 20
53.941293446619241
 40
2.7540450096129971
 50
74.197232878373313
 51
105.802765300318
  0
ARC
  8
_0-0_OUTLINE1
  6
CONTINUOUS
 62
    3
 10
31.759825569185523
 20
54.241306035120218
 40
2.7540369033813001
 50
74.197219218118462
 51
105.80284043235072
  0
ARC
  8
_0-0_OUTLINE1
  6
CONTINUOUS
 62
    3
 10
31.759822708160755
 20
53.941293446619241
 40
2.7540450096129971
 50
74.197232878373313
 51
105.802765300318
  0
LINE
  8
_0-0_OUTLINE1
  6
CONTINUOUS
 62
    3
 10
17.509823661835071
 20
56.89125034053923
 11
17.509823661835071
 21
56.59124919613005
  0
LINE
  8
_0-0_OUTLINE1
  6
CONTINUOUS
 62
    3
 10
22.509823661833252
 20
56.89125034053923
 11
22.509823661833252
 21
56.59124919613005
  0
LINE
  8
_0-0_OUTLINE1
  6
CONTINUOUS
 62
    3
 10
21.009824615511207
 20
56.991252629364865
 11
21.009824615511207
 21
56.59124919613005
  0
LINE
  8
_0-0_OUTLINE1
  6
CONTINUOUS
 62
    3
 10
19.009823661833252
 20
56.991252629364865
 11
19.009823661833252
 21
56.59124919613005
  0
LINE
  8
_0-0_OUTLINE1
  6
CONTINUOUS
 62
    3
 10
19.009823661833252
 20
56.991252629364865
 11
21.009824615511207
 21
56.991252629364865
  0
ARC
  8
_0-0_OUTLINE1
  6
CONTINUOUS
 62
    3
 10
18.259821754485529
 20
54.241306035120218
 40
2.7540369033813001
 50
74.197157746347557
 51
105.80278579087221
  0
ARC
  8
_0-0_OUTLINE1
  6
CONTINUOUS
 62
    3
 10
18.259821754485529
 20
53.941293446619241
 40
2.7540450096129971
 50
74.197232878373313
 51
105.802765300318
  0
ARC
  8
_0-0_OUTLINE1
  6
CONTINUOUS
 62
    3
 10
21.759825569183704
 20
54.241306035120218
 40
2.7540369033813001
 50
74.197219218118462
 51
105.80284043235072
  0
ARC
  8
_0-0_OUTLINE1
  6
CONTINUOUS
 62
    3
 10
21.759822708162574
 20
53.941293446619241
 40
2.7540450096129971
 50
74.197232878373313
 51
105.802765300318
  0
LINE
  8
_0-0_OUTLINE1
  6
CONTINUOUS
 62
    3
 10
18.509824138669501
 20
31.634077582533067
 11
21.509824138669501
 21
31.634077582533067
  0
LINE
  8
_0-0_OUTLINE1
  6
CONTINUOUS
 62
    3
 10
18.509824138669501
 20
30.334077582535613
 11
19.359824138670774
 21
30.334077582535613
  0
LINE
  8
_0-0_OUTLINE1
  6
CONTINUOUS
 62
    3
 10
18.509824138669501
 20
31.634077582533067
 11
18.509824138669501
 21
30.334077582535613
  0
LINE
  8
_0-0_OUTLINE1
  6
CONTINUOUS
 62
    3
 10
21.509824138669501
 20
31.634077582533067
 11
21.509824138669501
 21
30.334077582535613
  0
LINE
  8
_0-0_OUTLINE1
  6
CONTINUOUS
 62
    3
 10
19.359824138670774
 20
28.634077582532157
 11
19.359824138670774
 21
30.334077582535613
  0
LINE
  8
_0-0_OUTLINE1
  6
CONTINUOUS
 62
    3
 10
20.659824138669137
 20
28.634077582532157
 11
20.659824138669137
 21
30.334077582535613
  0
LINE
  8
_0-0_OUTLINE1
  6
CONTINUOUS
 62
    3
 10
19.359824138670774
 20
28.634077582532157
 11
20.659824138669137
 21
28.634077582532157
  0
LINE
  8
_0-0_OUTLINE1
  6
CONTINUOUS
 62
    3
 10
20.659824138669137
 20
30.334077582535613
 11
21.509824138669501
 21
30.334077582535613
  0
LINE
  8
_0-0_OUTLINE1
  6
CONTINUOUS
 62
    3
 10
71.688195976933457
 20
33.784077582532703
 11
72.088195976934003
 21
33.784077582532703
  0
LINE
  8
_0-0_OUTLINE1
  6
CONTINUOUS
 62
    3
 10
45.009824138672229
 20
27.784077582540888
 11
45.009824138676777
 21
17.784077582541794
  0
LINE
  8
_0-0_OUTLINE1
  6
CONTINUOUS
 62
    3
 10
37.509824138669501
 20
33.484077582537068
 11
37.509824138674048
 21
23.084077582539251
  0
LINE
  8
_0-0_OUTLINE1
  6
CONTINUOUS
 62
    3
 10
42.509824138667682
 20
33.484077582540706
 11
42.509824138674048
 21
23.084077582539251
  0
LINE
  8
_0-0_OUTLINE1
  6
CONTINUOUS
 62
    3
 10
45.009824138672229
 20
27.784077582540888
 11
42.509824138673139
 21
27.784077582539069
  0
LINE
  8
_0-0_OUTLINE1
  6
CONTINUOUS
 62
    3
 10
39.18482413867423
 20
23.40907758253725
 11
39.18482413867514
 21
22.15907758253816
  0
ARC
  8
_0-0_OUTLINE1
  6
CONTINUOUS
 62
    3
 10
39.384824138674048
 20
23.40907758253816
 40
0.2
 50
90
 51
180.0000000000297
  0
LINE
  8
_0-0_OUTLINE1
  6
CONTINUOUS
 62
    3
 10
40.834824138672957
 20
23.409077582539979
 11
40.834824138673866
 21
22.159077582539979
  0
ARC
  8
_0-0_OUTLINE1
  6
CONTINUOUS
 62
    3
 10
40.634824138675867
 20
22.159077582539979
 40
0.2
 50
270
 51
0.0000000000297827
  0
ARC
  8
_0-0_OUTLINE1
  6
CONTINUOUS
 62
    3
 10
40.634824138674048
 20
23.409077582539979
 40
0.2
 50
0.0000000000297843
 51
90
  0
LINE
  8
_0-0_OUTLINE1
  6
CONTINUOUS
 62
    3
 10
39.384824138675867
 20
21.959077582540161
 11
40.634824138675867
 21
21.959077582540161
  0
ARC
  8
_0-0_OUTLINE1
  6
CONTINUOUS
 62
    3
 10
39.384824138675867
 20
22.159077582539979
 40
0.2
 50
180.00000000002973
 51
270
  0
LINE
  8
_0-0_OUTLINE1
  6
CONTINUOUS
 62
    3
 10
40.634824138674048
 20
23.609077582539797
 11
39.384824138674048
 21
23.609077582537978
  0
ARC
  8
_0-0_OUTLINE1
  6
CONTINUOUS
 62
    3
 10
42.209824138668409
 20
33.484077582540706
 40
0.2999999999999999
 50
0.0000000000297843
 51
135.2086753399887
  0
ARC
  8
_0-0_OUTLINE1
  6
CONTINUOUS
 62
    3
 10
37.809824138669683
 20
33.484077582537068
 40
0.2999999999999999
 50
44.791324660114711
 51
180.0000000000297
  0
ARC
  8
_0-0_OUTLINE1
  6
CONTINUOUS
 62
    3
 10
40.009824138666772
 20
35.668110549322776
 40
2.799999999999998
 50
224.7913246601191
 51
315.20867533998421
  0
ARC
  8
_0-0_OUTLINE1
  6
CONTINUOUS
 62
    3
 10
40.009824138674048
 20
23.084077582539251
 40
2.5
 50
180.00000000002973
 51
0.0000000000297954
  0
LINE
  8
_0-0_OUTLINE1
  6
CONTINUOUS
 62
    3
 10
41.50982413867132
 20
30.33407758254107
 11
40.659824138669137
 21
30.33407758254107
  0
LINE
  8
_0-0_OUTLINE1
  6
CONTINUOUS
 62
    3
 10
39.359824138669865
 20
30.33407758254107
 11
38.50982413867132
 21
30.334077582538342
  0
LINE
  8
_0-0_OUTLINE1
  6
CONTINUOUS
 62
    3
 10
41.509824138669501
 20
31.634077582540343
 11
38.50982413867041
 21
31.634077582538524
  0
LINE
  8
_0-0_OUTLINE1
  6
CONTINUOUS
 62
    3
 10
40.659824138670956
 20
28.634077582540343
 11
39.359824138669865
 21
28.634077582540343
  0
LINE
  8
_0-0_OUTLINE1
  6
CONTINUOUS
 62
    3
 10
39.359824138669865
 20
28.634077582540343
 11
39.359824138669865
 21
30.33407758254107
  0
LINE
  8
_0-0_OUTLINE1
  6
CONTINUOUS
 62
    3
 10
40.659824138670956
 20
28.634077582540343
 11
40.659824138669137
 21
30.33407758254107
  0
LINE
  8
_0-0_OUTLINE1
  6
CONTINUOUS
 62
    3
 10
38.50982413867041
 20
31.634077582538524
 11
38.50982413867132
 21
30.334077582538342
  0
LINE
  8
_0-0_OUTLINE1
  6
CONTINUOUS
 62
    3
 10
41.509824138669501
 20
31.634077582540343
 11
41.50982413867132
 21
30.33407758254107
  0
LINE
  8
_0-0_OUTLINE1
  6
CONTINUOUS
 62
    3
 10
42.491758867867247
 20
54.691249196129505
 11
37.509824138669501
 21
54.691249196129505
  0
LINE
  8
_0-0_OUTLINE1
  6
CONTINUOUS
 62
    3
 10
42.491758867867247
 20
55.09124919613005
 11
42.491758867867247
 21
54.691249196129505
  0
LINE
  8
_0-0_OUTLINE1
  6
CONTINUOUS
 62
    3
 10
37.509824138669501
 20
55.09124919613005
 11
37.509824138669501
 21
54.691249196129505
  0
LINE
  8
_0-0_OUTLINE1
  6
CONTINUOUS
 62
    3
 10
45.00982413867041
 20
56.59124919613005
 11
45.00982413867041
 21
55.09124919613005
  0
LINE
  8
_0-0_OUTLINE1
  6
CONTINUOUS
 62
    3
 10
42.50982461550575
 20
56.89125034053923
 11
42.50982461550575
 21
56.59124919613005
  0
LINE
  8
_0-0_OUTLINE1
  6
CONTINUOUS
 62
    3
 10
37.509824615508478
 20
56.89125034053923
 11
37.509824615508478
 21
56.59124919613005
  0
LINE
  8
_0-0_OUTLINE1
  6
CONTINUOUS
 62
    3
 10
39.009823661831433
 20
56.991252629364865
 11
39.009823661831433
 21
56.59124919613005
  0
LINE
  8
_0-0_OUTLINE1
  6
CONTINUOUS
 62
    3
 10
41.009824615507569
 20
56.991252629364865
 11
41.009824615507569
 21
56.59124919613005
  0
LINE
  8
_0-0_OUTLINE1
  6
CONTINUOUS
 62
    3
 10
41.009824615507569
 20
56.991252629364865
 11
39.009823661831433
 21
56.991252629364865
  0
ARC
  8
_0-0_OUTLINE1
  6
CONTINUOUS
 62
    3
 10
41.759826522856201
 20
54.241306035120218
 40
2.7540369033813001
 50
74.197214209129285
 51
105.80284225365079
  0
ARC
  8
_0-0_OUTLINE1
  6
CONTINUOUS
 62
    3
 10
41.759826522856201
 20
53.941293446619241
 40
2.7540450096129971
 50
74.197234699679584
 51
105.8027671216235
  0
ARC
  8
_0-0_OUTLINE1
  6
CONTINUOUS
 62
    3
 10
38.259822708155298
 20
54.241306035120218
 40
2.7540369033813001
 50
74.197159567652406
 51
105.80278078188149
  0
ARC
  8
_0-0_OUTLINE1
  6
CONTINUOUS
 62
    3
 10
38.259825569178247
 20
53.941293446619241
 40
2.7540450096129971
 50
74.197234699679584
 51
105.8027671216235
  0
LINE
  8
_0-0_OUTLINE1
  6
CONTINUOUS
 62
    3
 10
71.688195976932548
 20
20.607542372070569
 11
72.088195976932184
 21
20.607542372070569
  0
LINE
  8
_0-0_OUTLINE1
  6
CONTINUOUS
 62
    3
 10
71.688195976932548
 20
20.607542372070569
 11
71.688195976933457
 21
33.784077582532703
  0
LINE
  8
_0-0_OUTLINE1
  6
CONTINUOUS
 62
    3
 10
5.0098241386713198
 20
27.784077582533612
 11
5.0098241386713198
 21
17.784077582533609
  0
LINE
  8
_0-0_OUTLINE1
  6
CONTINUOUS
 62
    3
 10
12.50982413867132
 20
33.48407758253434
 11
12.50982413867132
 21
23.084077582532885
  0
LINE
  8
_0-0_OUTLINE1
  6
CONTINUOUS
 62
    3
 10
7.5098241386695008
 20
33.48407758253434
 11
7.5098241386695008
 21
23.084077582532885
  0
LINE
  8
_0-0_OUTLINE1
  6
CONTINUOUS
 62
    3
 10
5.0098241386713198
 20
27.784077582533612
 11
7.5098241386695008
 21
27.784077582533612
  0
LINE
  8
_0-0_OUTLINE1
  6
CONTINUOUS
 62
    3
 10
7.5278894094735733
 20
54.691249196129505
 11
12.50982413867132
 21
54.691249196129505
  0
LINE
  8
_0-0_OUTLINE1
  6
CONTINUOUS
 62
    3
 10
10.834824138669319
 20
23.409077582533612
 11
10.834824138669319
 21
22.159077582533612
  0
ARC
  8
_0-0_OUTLINE1
  6
CONTINUOUS
 62
    3
 10
10.634824138669501
 20
23.409077582533612
 40
0.2
 50
0
 51
90
  0
LINE
  8
_0-0_OUTLINE1
  6
CONTINUOUS
 62
    3
 10
9.1848241386715017
 20
23.409077582533612
 11
9.1848241386715017
 21
22.159077582534522
  0
ARC
  8
_0-0_OUTLINE1
  6
CONTINUOUS
 62
    3
 10
9.3848241386695008
 20
22.159077582534522
 40
0.2
 50
180
 51
270
  0
ARC
  8
_0-0_OUTLINE1
  6
CONTINUOUS
 62
    3
 10
9.3848241386695008
 20
23.409077582533612
 40
0.2
 50
90
 51
180
  0
LINE
  8
_0-0_OUTLINE1
  6
CONTINUOUS
 62
    3
 10
10.634824138669501
 20
21.959077582534704
 11
9.3848241386695008
 21
21.959077582534704
  0
ARC
  8
_0-0_OUTLINE1
  6
CONTINUOUS
 62
    3
 10
10.634824138669501
 20
22.159077582533612
 40
0.2
 50
270
 51
0
  0
LINE
  8
_0-0_OUTLINE1
  6
CONTINUOUS
 62
    3
 10
9.3848241386695008
 20
23.609077582532521
 11
10.634824138669501
 21
23.609077582532521
  0
ARC
  8
_0-0_OUTLINE1
  6
CONTINUOUS
 62
    3
 10
7.8098241386687732
 20
33.48407758253434
 40
0.2999999999999999
 50
44.791324660069066
 51
180
  0
ARC
  8
_0-0_OUTLINE1
  6
CONTINUOUS
 62
    3
 10
12.209824138669319
 20
33.48407758253434
 40
0.2999999999999999
 50
0
 51
135.20867533993089
  0
ARC
  8
_0-0_OUTLINE1
  6
CONTINUOUS
 62
    3
 10
10.00982413867041
 20
35.668110549317319
 40
2.799999999999998
 50
224.79132466007809
 51
315.20867533992191
  0
ARC
  8
_0-0_OUTLINE1
  6
CONTINUOUS
 62
    3
 10
10.00982413867041
 20
23.084077582532885
 40
2.5
 50
180
 51
0
  0
LINE
  8
_0-0_OUTLINE1
  6
CONTINUOUS
 62
    3
 10
7.5278894094735733
 20
55.09124919613005
 11
7.5278894094735733
 21
54.691249196129505
  0
LINE
  8
_0-0_OUTLINE1
  6
CONTINUOUS
 62
    3
 10
12.50982413867132
 20
55.09124919613005
 11
12.50982413867132
 21
54.691249196129505
  0
LINE
  8
_0-0_OUTLINE1
  6
CONTINUOUS
 62
    3
 10
5.0098241386713198
 20
56.59124919613005
 11
5.0098241386713198
 21
55.09124919613005
  0
LINE
  8
_0-0_OUTLINE1
  6
CONTINUOUS
 62
    3
 10
7.5098236618359806
 20
56.89125034053923
 11
7.5098236618359806
 21
56.59124919613005
  0
LINE
  8
_0-0_OUTLINE1
  6
CONTINUOUS
 62
    3
 10
12.509823661833252
 20
56.89125034053923
 11
12.509823661833252
 21
56.59124919613005
  0
LINE
  8
_0-0_OUTLINE1
  6
CONTINUOUS
 62
    3
 10
11.009824615510297
 20
56.991252629364865
 11
11.009824615510297
 21
56.59124919613005
  0
LINE
  8
_0-0_OUTLINE1
  6
CONTINUOUS
 62
    3
 10
9.0098236618332521
 20
56.991252629364865
 11
9.0098236618332521
 21
56.59124919613005
  0
LINE
  8
_0-0_OUTLINE1
  6
CONTINUOUS
 62
    3
 10
9.0098236618332521
 20
56.991252629364865
 11
11.009824615510297
 21
56.991252629364865
  0
ARC
  8
_0-0_OUTLINE1
  6
CONTINUOUS
 62
    3
 10
8.2598217544855288
 20
54.241306035120218
 40
2.7540369033813001
 50
74.197157746347557
 51
105.80278579087231
  0
ARC
  8
_0-0_OUTLINE1
  6
CONTINUOUS
 62
    3
 10
8.2598217544855288
 20
53.941293446619241
 40
2.7540450096129971
 50
74.197232878373299
 51
105.8027653003179
  0
ARC
  8
_0-0_OUTLINE1
  6
CONTINUOUS
 62
    3
 10
11.759825569183704
 20
54.241306035120218
 40
2.7540369033813001
 50
74.197219218118462
 51
105.80284043235072
  0
ARC
  8
_0-0_OUTLINE1
  6
CONTINUOUS
 62
    3
 10
11.759822708162574
 20
53.941293446619241
 40
2.7540450096129971
 50
74.197232878373299
 51
105.8027653003179
  0
LINE
  8
_0-0_OUTLINE1
  6
CONTINUOUS
 62
    3
 10
8.5098241386704103
 20
30.334077582535613
 11
9.3598241386689551
 21
30.334077582535613
  0
LINE
  8
_0-0_OUTLINE1
  6
CONTINUOUS
 62
    3
 10
10.659824138669137
 20
30.334077582535613
 11
11.50982413867041
 21
30.334077582535613
  0
LINE
  8
_0-0_OUTLINE1
  6
CONTINUOUS
 62
    3
 10
8.5098241386704103
 20
31.634077582533067
 11
11.50982413867041
 21
31.634077582533067
  0
LINE
  8
_0-0_OUTLINE1
  6
CONTINUOUS
 62
    3
 10
9.3598241386689551
 20
28.634077582532157
 11
10.659824138669137
 21
28.634077582532157
  0
LINE
  8
_0-0_OUTLINE1
  6
CONTINUOUS
 62
    3
 10
10.659824138669137
 20
28.634077582532157
 11
10.659824138669137
 21
30.334077582535613
  0
LINE
  8
_0-0_OUTLINE1
  6
CONTINUOUS
 62
    3
 10
9.3598241386689551
 20
28.634077582532157
 11
9.3598241386689551
 21
30.334077582535613
  0
LINE
  8
_0-0_OUTLINE1
  6
CONTINUOUS
 62
    3
 10
11.50982413867041
 20
31.634077582533067
 11
11.50982413867041
 21
30.334077582535613
  0
LINE
  8
_0-0_OUTLINE1
  6
CONTINUOUS
 62
    3
 10
8.5098241386704103
 20
31.634077582533067
 11
8.5098241386704103
 21
30.334077582535613
  0
LINE
  8
_0-1_AM_0_プロファイル__中__
  6
CENTER1
 62
    4
 10
26.737704918032875
 20
49.091249196128786
 11
33.508196721311563
 21
49.091249196133916
  0
LINE
  8
_0-1_AM_0_プロファイル__中__
  6
CENTER1
 62
    4
 10
43.032786885245905
 20
13.784077582533611
 11
12.16393442622951
 21
13.784077582533611
  0
LINE
  8
_0-1_AM_0_プロファイル__中__
  6
CENTER1
 62
    4
 10
30.009824138669956
 20
20.749180327868856
 11
30.009824138669956
 21
10.191803278688525
  0
LINE
  8
_0-1_AM_0_プロファイル__中__
  6
CENTER1
 62
    4
 10
66.088195976932184
 20
11.798360655737708
 11
66.088195976932184
 21
20.404918032786885
  0
LINE
  8
_0-0_OUTLINE1
  6
CONTINUOUS
 62
    3
 10
61.088195976932184
 20
13.784077582533611
 11
61.163934426229503
 21
13.784077582533611
  0
LINE
  8
_0-0_OUTLINE1
  6
CONTINUOUS
 62
    3
 10
61.163934426229503
 20
13.784077582533611
 11
71.388195976932366
 21
13.784077582533611
  0
LINE
  8
_0-1_AM_0_プロファイル__中__
  6
CENTER1
 62
    4
 10
75.163934426229503
 20
13.784077582533611
 11
58.868852459016402
 21
13.784077582533611
  0
TEXT
  8
_0-3_Defpoints
 62
    7
 10
61.386114947623355
 20
2.9528804117537222
 40
3
 41
0.63
 50
0
  1
L-590-3P
  0
LINE
  8
_0-2_AM_6_文字
  6
CONTINUOUS
 62
    4
 10
47.967213114754102
 20
13.784077582533611
 11
47.967213114754102
 21
17.784077582541794
  0
LINE
  8
_0-2_AM_6_文字
  6
CONTINUOUS
 62
    4
 10
47.967213114754102
 20
13.784077582533611
 11
47.811921687692589
 21
14.36363307830705
  0
LINE
  8
_0-2_AM_6_文字
  6
CONTINUOUS
 62
    4
 10
47.967213114754102
 20
13.784077582533611
 11
48.122504541815616
 21
14.36363307830705
  0
LINE
  8
_0-2_AM_6_文字
  6
CONTINUOUS
 62
    4
 10
47.967213114754102
 20
17.784077582541794
 11
47.811921687692589
 21
17.204522086768357
  0
LINE
  8
_0-2_AM_6_文字
  6
CONTINUOUS
 62
    4
 10
47.967213114754102
 20
17.784077582541794
 11
48.122504541815616
 21
17.204522086768357
  0
LINE
  8
_0-2_AM_6_文字
  6
CONTINUOUS
 62
    4
 10
48.067213114754104
 20
13.784077582533611
 11
43.132786885245906
 21
13.784077582533611
  0
LINE
  8
_0-2_AM_6_文字
  6
CONTINUOUS
 62
    4
 10
48.067213114754104
 20
17.784077582541794
 11
45.109824138676778
 21
17.784077582541794
  0
TEXT
  8
_0-2_AM_6_文字
 62
    4
 10
47.767213114754099
 20
15.659077582537703
 40
0.5
 41
1
 50
90
  1
4
  0
LINE
  8
_0-2_AM_6_文字
  6
CONTINUOUS
 62
    4
 10
47.967213114754102
 20
17.784077582541794
 11
47.967213114754102
 21
27.784077582540888
  0
LINE
  8
_0-2_AM_6_文字
  6
CONTINUOUS
 62
    4
 10
47.967213114754102
 20
17.784077582541794
 11
47.811921687692589
 21
18.363633078315235
  0
LINE
  8
_0-2_AM_6_文字
  6
CONTINUOUS
 62
    4
 10
47.967213114754102
 20
17.784077582541794
 11
48.122504541815616
 21
18.363633078315235
  0
LINE
  8
_0-2_AM_6_文字
  6
CONTINUOUS
 62
    4
 10
47.967213114754102
 20
27.784077582540888
 11
47.811921687692589
 21
27.204522086767447
  0
LINE
  8
_0-2_AM_6_文字
  6
CONTINUOUS
 62
    4
 10
47.967213114754102
 20
27.784077582540888
 11
48.122504541815616
 21
27.204522086767447
  0
LINE
  8
_0-2_AM_6_文字
  6
CONTINUOUS
 62
    4
 10
48.067213114754104
 20
27.784077582540888
 11
45.109824138672231
 21
27.784077582540888
  0
TEXT
  8
_0-2_AM_6_文字
 62
    4
 10
47.767213114754099
 20
22.534077582541343
 40
0.5
 41
1
 50
90
  1
10
  0
LINE
  8
_0-2_AM_6_文字
  6
CONTINUOUS
 62
    4
 10
47.967213114754102
 20
27.784077582540888
 11
47.967213114754102
 21
34.184077582533249
  0
LINE
  8
_0-2_AM_6_文字
  6
CONTINUOUS
 62
    4
 10
47.967213114754102
 20
27.784077582540888
 11
47.811921687692589
 21
28.363633078314326
  0
LINE
  8
_0-2_AM_6_文字
  6
CONTINUOUS
 62
    4
 10
47.967213114754102
 20
27.784077582540888
 11
48.122504541815616
 21
28.363633078314326
  0
LINE
  8
_0-2_AM_6_文字
  6
CONTINUOUS
 62
    4
 10
47.967213114754102
 20
34.184077582533249
 11
47.811921687692589
 21
33.6045220867598
  0
LINE
  8
_0-2_AM_6_文字
  6
CONTINUOUS
 62
    4
 10
47.967213114754102
 20
34.184077582533249
 11
48.122504541815616
 21
33.6045220867598
  0
LINE
  8
_0-2_AM_6_文字
  6
CONTINUOUS
 62
    4
 10
48.067213114754104
 20
34.184077582533249
 11
32.622229153342779
 21
34.184077582533249
  0
TEXT
  8
_0-2_AM_6_文字
 62
    4
 10
47.767213114754099
 20
30.609077582537068
 40
0.5
 41
1
 50
90
  1
6.4
  0
LINE
  8
_0-2_AM_6_文字
  6
CONTINUOUS
 62
    4
 10
5.0098241386713198
 20
7.6672131147540998
 11
30.009824138669956
 21
7.6672131147540998
  0
LINE
  8
_0-2_AM_6_文字
  6
CONTINUOUS
 62
    4
 10
5.0098241386713198
 20
7.6672131147540998
 11
5.5893796344447599
 21
7.8225045418156132
  0
LINE
  8
_0-2_AM_6_文字
  6
CONTINUOUS
 62
    4
 10
5.0098241386713198
 20
7.6672131147540998
 11
5.5893796344447599
 21
7.5119216876925865
  0
LINE
  8
_0-2_AM_6_文字
  6
CONTINUOUS
 62
    4
 10
30.009824138669956
 20
7.6672131147540998
 11
29.430268642896518
 21
7.8225045418156132
  0
LINE
  8
_0-2_AM_6_文字
  6
CONTINUOUS
 62
    4
 10
30.009824138669956
 20
7.6672131147540998
 11
29.430268642896518
 21
7.5119216876925865
  0
LINE
  8
_0-2_AM_6_文字
  6
CONTINUOUS
 62
    4
 10
5.0098241386713198
 20
7.5672131147541002
 11
5.0098241386713198
 21
17.684077582531792
  0
LINE
  8
_0-2_AM_6_文字
  6
CONTINUOUS
 62
    4
 10
30.009824138669956
 20
7.5672131147541002
 11
30.009824138669956
 21
10.091803278688525
  0
TEXT
  8
_0-2_AM_6_文字
 62
    4
 10
17.259824138670638
 20
7.8672131147541
 40
0.5
 41
1
 50
0
  1
25
  0
LINE
  8
_0-2_AM_6_文字
  6
CONTINUOUS
 62
    4
 10
30.009824138669956
 20
7.6672131147540998
 11
45.109824138676778
 21
7.6672131147540998
  0
LINE
  8
_0-2_AM_6_文字
  6
CONTINUOUS
 62
    4
 10
30.009824138669956
 20
7.6672131147540998
 11
30.589379634443397
 21
7.8225045418156132
  0
LINE
  8
_0-2_AM_6_文字
  6
CONTINUOUS
 62
    4
 10
30.009824138669956
 20
7.6672131147540998
 11
30.589379634443397
 21
7.5119216876925865
  0
LINE
  8
_0-2_AM_6_文字
  6
CONTINUOUS
 62
    4
 10
45.109824138676778
 20
7.6672131147540998
 11
44.530268642903337
 21
7.8225045418156132
  0
LINE
  8
_0-2_AM_6_文字
  6
CONTINUOUS
 62
    4
 10
45.109824138676778
 20
7.6672131147540998
 11
44.530268642903337
 21
7.5119216876925865
  0
LINE
  8
_0-2_AM_6_文字
  6
CONTINUOUS
 62
    4
 10
45.109824138676778
 20
7.5672131147541002
 11
45.109824138676778
 21
17.684077582541796
  0
TEXT
  8
_0-2_AM_6_文字
 62
    4
 10
37.05982413867337
 20
7.8672131147541
 40
0.5
 41
1
 50
0
  1
15.1
  0
LINE
  8
_0-1_AM_0_プロファイル__中__
  6
CENTER1
 62
    4
 10
30.009824138669956
 20
52.306557377049188
 11
30.009824138669956
 21
42.552459016393442
  0
LINE
  8
_0-2_AM_6_文字
  6
CONTINUOUS
 62
    4
 10
47.967213114754102
 20
44.09124919613005
 11
47.967213114754102
 21
49.091249196133916
  0
LINE
  8
_0-2_AM_6_文字
  6
CONTINUOUS
 62
    4
 10
47.967213114754102
 20
44.09124919613005
 11
47.811921687692589
 21
44.670804691903491
  0
LINE
  8
_0-2_AM_6_文字
  6
CONTINUOUS
 62
    4
 10
47.967213114754102
 20
44.09124919613005
 11
48.122504541815616
 21
44.670804691903491
  0
LINE
  8
_0-2_AM_6_文字
  6
CONTINUOUS
 62
    4
 10
47.967213114754102
 20
49.091249196133916
 11
47.811921687692589
 21
48.511693700360475
  0
LINE
  8
_0-2_AM_6_文字
  6
CONTINUOUS
 62
    4
 10
47.967213114754102
 20
49.091249196133916
 11
48.122504541815616
 21
48.511693700360475
  0
LINE
  8
_0-2_AM_6_文字
  6
CONTINUOUS
 62
    4
 10
48.067213114754104
 20
44.09124919613005
 11
30.109824138669957
 21
44.09124919613005
  0
LINE
  8
_0-2_AM_6_文字
  6
CONTINUOUS
 62
    4
 10
48.067213114754104
 20
49.091249196133916
 11
33.608196721311565
 21
49.091249196133916
  0
TEXT
  8
_0-2_AM_6_文字
 62
    4
 10
47.767213114754099
 20
46.466249196131983
 40
0.5
 41
1
 50
90
  1
5
  0
LINE
  8
_0-2_AM_6_文字
  6
CONTINUOUS
 62
    4
 10
47.967213114754102
 20
49.091249196133916
 11
47.967213114754102
 21
56.59124919613005
  0
LINE
  8
_0-2_AM_6_文字
  6
CONTINUOUS
 62
    4
 10
47.967213114754102
 20
49.091249196133916
 11
47.811921687692589
 21
49.670804691907357
  0
LINE
  8
_0-2_AM_6_文字
  6
CONTINUOUS
 62
    4
 10
47.967213114754102
 20
49.091249196133916
 11
48.122504541815616
 21
49.670804691907357
  0
LINE
  8
_0-2_AM_6_文字
  6
CONTINUOUS
 62
    4
 10
47.967213114754102
 20
56.59124919613005
 11
47.811921687692589
 21
56.011693700356616
  0
LINE
  8
_0-2_AM_6_文字
  6
CONTINUOUS
 62
    4
 10
47.967213114754102
 20
56.59124919613005
 11
48.122504541815616
 21
56.011693700356616
  0
LINE
  8
_0-2_AM_6_文字
  6
CONTINUOUS
 62
    4
 10
48.067213114754104
 20
56.59124919613005
 11
45.109824138670412
 21
56.59124919613005
  0
TEXT
  8
_0-2_AM_6_文字
 62
    4
 10
47.767213114754099
 20
52.466249196131983
 40
0.5
 41
1
 50
90
  1
7.5
  0
LINE
  8
_0-2_AM_6_文字
  6
CONTINUOUS
 62
    4
 10
1.377049180327873
 20
56.59124919613005
 11
1.377049180327873
 21
55.09124919613005
  0
LINE
  8
_0-2_AM_6_文字
  6
CONTINUOUS
 62
    4
 10
1.377049180327873
 20
56.59124919613005
 11
1.2217577532663597
 21
57.170804691903484
  0
LINE
  8
_0-2_AM_6_文字
  6
CONTINUOUS
 62
    4
 10
1.377049180327873
 20
56.59124919613005
 11
1.5323406073893864
 21
57.170804691903484
  0
LINE
  8
_0-2_AM_6_文字
  6
CONTINUOUS
 62
    4
 10
1.377049180327873
 20
55.09124919613005
 11
1.2217577532663597
 21
54.511693700356616
  0
LINE
  8
_0-2_AM_6_文字
  6
CONTINUOUS
 62
    4
 10
1.377049180327873
 20
55.09124919613005
 11
1.5323406073893864
 21
54.511693700356616
  0
LINE
  8
_0-2_AM_6_文字
  6
CONTINUOUS
 62
    4
 10
1.2770491803278732
 20
56.59124919613005
 11
4.9098241386713202
 21
56.59124919613005
  0
LINE
  8
_0-2_AM_6_文字
  6
CONTINUOUS
 62
    4
 10
1.2770491803278732
 20
55.09124919613005
 11
4.9098241386713202
 21
55.09124919613005
  0
TEXT
  8
_0-2_AM_6_文字
 62
    4
 10
1.1770491803278731
 20
55.46624919613005
 40
0.5
 41
1
 50
90
  1
1.5
  0
LINE
  8
_0-1_AM_0_プロファイル__中__
  6
CENTER1
 62
    4
 10
10.00982413867041
 20
32.568852459016391
 11
10.00982413867041
 21
27.863934426229509
  0
LINE
  8
_0-1_AM_0_プロファイル__中__
  6
CENTER1
 62
    4
 10
20.009824138669501
 20
32.568852459016391
 11
20.009824138669501
 21
27.863934426229509
  0
LINE
  8
_0-1_AM_0_プロファイル__中__
  6
CENTER1
 62
    4
 10
30.009824138670865
 20
32.568852459016391
 11
30.009824138670865
 21
27.863934426229509
  0
LINE
  8
_0-1_AM_0_プロファイル__中__
  6
CENTER1
 62
    4
 10
40.009824138669387
 20
32.568852459022459
 11
40.009824138672244
 21
27.863934426235573
  0
LINE
  8
_0-2_AM_6_文字
  6
CONTINUOUS
 62
    4
 10
10.00982413867041
 20
37.273770491803283
 11
20.009824138669501
 21
37.273770491803283
  0
LINE
  8
_0-2_AM_6_文字
  6
CONTINUOUS
 62
    4
 10
10.00982413867041
 20
37.273770491803283
 11
10.589379634443851
 21
37.42906191886479
  0
LINE
  8
_0-2_AM_6_文字
  6
CONTINUOUS
 62
    4
 10
10.00982413867041
 20
37.273770491803283
 11
10.589379634443851
 21
37.11847906474177
  0
LINE
  8
_0-2_AM_6_文字
  6
CONTINUOUS
 62
    4
 10
20.009824138669501
 20
37.273770491803283
 11
19.430268642896063
 21
37.42906191886479
  0
LINE
  8
_0-2_AM_6_文字
  6
CONTINUOUS
 62
    4
 10
20.009824138669501
 20
37.273770491803283
 11
19.430268642896063
 21
37.11847906474177
  0
LINE
  8
_0-2_AM_6_文字
  6
CONTINUOUS
 62
    4
 10
10.00982413867041
 20
37.373770491803285
 11
10.00982413867041
 21
32.668852459016392
  0
LINE
  8
_0-2_AM_6_文字
  6
CONTINUOUS
 62
    4
 10
20.009824138669501
 20
37.373770491803285
 11
20.009824138669501
 21
32.668852459016392
  0
TEXT
  8
_0-2_AM_6_文字
 62
    4
 10
14.759824138669956
 20
37.473770491803286
 40
0.5
 41
1
 50
0
  1
10
  0
LINE
  8
_0-2_AM_6_文字
  6
CONTINUOUS
 62
    4
 10
20.009824138669501
 20
37.273770491803283
 11
30.009824138670865
 21
37.273770491803283
  0
LINE
  8
_0-2_AM_6_文字
  6
CONTINUOUS
 62
    4
 10
20.009824138669501
 20
37.273770491803283
 11
20.589379634442942
 21
37.42906191886479
  0
LINE
  8
_0-2_AM_6_文字
  6
CONTINUOUS
 62
    4
 10
20.009824138669501
 20
37.273770491803283
 11
20.589379634442942
 21
37.11847906474177
  0
LINE
  8
_0-2_AM_6_文字
  6
CONTINUOUS
 62
    4
 10
30.009824138670865
 20
37.273770491803283
 11
29.430268642897428
 21
37.42906191886479
  0
LINE
  8
_0-2_AM_6_文字
  6
CONTINUOUS
 62
    4
 10
30.009824138670865
 20
37.273770491803283
 11
29.430268642897428
 21
37.11847906474177
  0
LINE
  8
_0-2_AM_6_文字
  6
CONTINUOUS
 62
    4
 10
30.009824138670865
 20
37.373770491803285
 11
30.009824138670865
 21
32.668852459016392
  0
TEXT
  8
_0-2_AM_6_文字
 62
    4
 10
24.759824138670183
 20
37.473770491803286
 40
0.5
 41
1
 50
0
  1
10
  0
LINE
  8
_0-2_AM_6_文字
  6
CONTINUOUS
 62
    4
 10
30.009824138670865
 20
37.273770491803283
 11
40.009824138669387
 21
37.273770491803283
  0
LINE
  8
_0-2_AM_6_文字
  6
CONTINUOUS
 62
    4
 10
30.009824138670865
 20
37.273770491803283
 11
30.589379634444306
 21
37.42906191886479
  0
LINE
  8
_0-2_AM_6_文字
  6
CONTINUOUS
 62
    4
 10
30.009824138670865
 20
37.273770491803283
 11
30.589379634444306
 21
37.11847906474177
  0
LINE
  8
_0-2_AM_6_文字
  6
CONTINUOUS
 62
    4
 10
40.009824138669387
 20
37.273770491803283
 11
39.430268642895953
 21
37.42906191886479
  0
LINE
  8
_0-2_AM_6_文字
  6
CONTINUOUS
 62
    4
 10
40.009824138669387
 20
37.273770491803283
 11
39.430268642895953
 21
37.11847906474177
  0
LINE
  8
_0-2_AM_6_文字
  6
CONTINUOUS
 62
    4
 10
40.009824138669387
 20
37.373770491803285
 11
40.009824138669387
 21
32.66885245902246
  0
TEXT
  8
_0-2_AM_6_文字
 62
    4
 10
34.759824138670126
 20
37.473770491803286
 40
0.5
 41
1
 50
0
  1
10
  0
ENDSEC
  0
EOF
