  0
SECTION
  2
HEADER
  9
$ACADVER
  1
AC1015
  9
$ACADMAINTVER
 70
     6
  9
$DWGCODEPAGE
  3
ANSI_932
  9
$INSBASE
 10
0.0
 20
0.0
 30
0.0
  9
$EXTMIN
 10
-343.6123308849025
 20
87.86660988458312
 30
-0.0000000000000129
  9
$EXTMAX
 10
421.3468785038835
 20
956.0289567311361
 30
0.0000000000000023
  9
$LIMMIN
 10
0.0
 20
0.0
  9
$LIMMAX
 10
420.0
 20
297.0
  9
$ORTHOMODE
 70
     1
  9
$REGENMODE
 70
     1
  9
$FILLMODE
 70
     1
  9
$QTEXTMODE
 70
     0
  9
$MIRRTEXT
 70
     1
  9
$LTSCALE
 40
1.0
  9
$ATTMODE
 70
     1
  9
$TEXTSIZE
 40
3.0
  9
$TRACEWID
 40
0.05
  9
$TEXTSTYLE
  7
STANDARD
  9
$CLAYER
  8
Layer3
  9
$CELTYPE
  6
BYLAYER
  9
$CECOLOR
 62
   256
  9
$CELTSCALE
 40
1.0
  9
$DISPSILH
 70
     0
  9
$DIMSCALE
 40
1.0
  9
$DIMASZ
 40
2.0
  9
$DIMEXO
 40
1.0
  9
$DIMDLI
 40
7.0
  9
$DIMRND
 40
0.0
  9
$DIMDLE
 40
0.0
  9
$DIMEXE
 40
1.0
  9
$DIMTP
 40
0.0
  9
$DIMTM
 40
0.0
  9
$DIMTXT
 40
10.0
  9
$DIMCEN
 40
0.0
  9
$DIMTSZ
 40
0.0
  9
$DIMTOL
 70
     0
  9
$DIMLIM
 70
     0
  9
$DIMTIH
 70
     0
  9
$DIMTOH
 70
     0
  9
$DIMSE1
 70
     0
  9
$DIMSE2
 70
     0
  9
$DIMTAD
 70
     0
  9
$DIMZIN
 70
     8
  9
$DIMBLK
  1

  9
$DIMASO
 70
     1
  9
$DIMSHO
 70
     1
  9
$DIMPOST
  1

  9
$DIMAPOST
  1

  9
$DIMALT
 70
     0
  9
$DIMALTD
 70
     2
  9
$DIMALTF
 40
25.4
  9
$DIMLFAC
 40
1.0
  9
$DIMTOFL
 70
     1
  9
$DIMTVP
 40
1.0
  9
$DIMTIX
 70
     0
  9
$DIMSOXD
 70
     0
  9
$DIMSAH
 70
     0
  9
$DIMBLK1
  1

  9
$DIMBLK2
  1

  9
$DIMSTYLE
  2
STYLE1
  9
$DIMCLRD
 70
     0
  9
$DIMCLRE
 70
     0
  9
$DIMCLRT
 70
     0
  9
$DIMTFAC
 40
1.0
  9
$DIMGAP
 40
0.0
  9
$DIMJUST
 70
     0
  9
$DIMSD1
 70
     0
  9
$DIMSD2
 70
     0
  9
$DIMTOLJ
 70
     1
  9
$DIMTZIN
 70
     8
  9
$DIMALTZ
 70
     8
  9
$DIMALTTZ
 70
     8
  9
$DIMUPT
 70
     0
  9
$DIMDEC
 70
     3
  9
$DIMTDEC
 70
     3
  9
$DIMALTU
 70
     2
  9
$DIMALTTD
 70
     2
  9
$DIMTXSTY
  7
STANDARD
  9
$DIMAUNIT
 70
     0
  9
$DIMADEC
 70
     0
  9
$DIMALTRND
 40
0.0
  9
$DIMAZIN
 70
     0
  9
$DIMDSEP
 70
    46
  9
$DIMATFIT
 70
     3
  9
$DIMFRAC
 70
     0
  9
$DIMLDRBLK
  1

  9
$DIMLUNIT
 70
     2
  9
$DIMLWD
 70
    -2
  9
$DIMLWE
 70
    -2
  9
$DIMTMOVE
 70
     0
  9
$LUNITS
 70
     2
  9
$LUPREC
 70
     3
  9
$SKETCHINC
 40
0.1
  9
$FILLETRAD
 40
0.3
  9
$AUNITS
 70
     0
  9
$AUPREC
 70
     2
  9
$MENU
  1
acad
  9
$ELEVATION
 40
0.0
  9
$PELEVATION
 40
0.0
  9
$THICKNESS
 40
0.0
  9
$LIMCHECK
 70
     0
  9
$CHAMFERA
 40
0.0
  9
$CHAMFERB
 40
0.0
  9
$CHAMFERC
 40
0.0
  9
$CHAMFERD
 40
0.0
  9
$SKPOLY
 70
     0
  9
$TDCREATE
 40
2449545.886377199
  9
$TDUCREATE
 40
2449545.511377199
  9
$TDUPDATE
 40
2453647.406580647
  9
$TDUUPDATE
 40
2453647.031580648
  9
$TDINDWG
 40
1.1814379861
  9
$TDUSRTIMER
 40
1.1814379861
  9
$USRTIMER
 70
     1
  9
$ANGBASE
 50
0.0
  9
$ANGDIR
 70
     0
  9
$PDMODE
 70
     0
  9
$PDSIZE
 40
0.0
  9
$PLINEWID
 40
0.0
  9
$SPLFRAME
 70
     0
  9
$SPLINETYPE
 70
     6
  9
$SPLINESEGS
 70
     8
  9
$HANDSEED
  5
206A
  9
$SURFTAB1
 70
     6
  9
$SURFTAB2
 70
     6
  9
$SURFTYPE
 70
     6
  9
$SURFU
 70
     6
  9
$SURFV
 70
     6
  9
$UCSBASE
  2

  9
$UCSNAME
  2

  9
$UCSORG
 10
0.0
 20
0.0
 30
0.0
  9
$UCSXDIR
 10
1.0
 20
0.0
 30
0.0
  9
$UCSYDIR
 10
0.0
 20
1.0
 30
0.0
  9
$UCSORTHOREF
  2

  9
$UCSORTHOVIEW
 70
     0
  9
$UCSORGTOP
 10
0.0
 20
0.0
 30
0.0
  9
$UCSORGBOTTOM
 10
0.0
 20
0.0
 30
0.0
  9
$UCSORGLEFT
 10
0.0
 20
0.0
 30
0.0
  9
$UCSORGRIGHT
 10
0.0
 20
0.0
 30
0.0
  9
$UCSORGFRONT
 10
0.0
 20
0.0
 30
0.0
  9
$UCSORGBACK
 10
0.0
 20
0.0
 30
0.0
  9
$PUCSBASE
  2

  9
$PUCSNAME
  2

  9
$PUCSORG
 10
0.0
 20
0.0
 30
0.0
  9
$PUCSXDIR
 10
1.0
 20
0.0
 30
0.0
  9
$PUCSYDIR
 10
0.0
 20
1.0
 30
0.0
  9
$PUCSORTHOREF
  2

  9
$PUCSORTHOVIEW
 70
     0
  9
$PUCSORGTOP
 10
0.0
 20
0.0
 30
0.0
  9
$PUCSORGBOTTOM
 10
0.0
 20
0.0
 30
0.0
  9
$PUCSORGLEFT
 10
0.0
 20
0.0
 30
0.0
  9
$PUCSORGRIGHT
 10
0.0
 20
0.0
 30
0.0
  9
$PUCSORGFRONT
 10
0.0
 20
0.0
 30
0.0
  9
$PUCSORGBACK
 10
0.0
 20
0.0
 30
0.0
  9
$USERI1
 70
     0
  9
$USERI2
 70
     0
  9
$USERI3
 70
     0
  9
$USERI4
 70
     0
  9
$USERI5
 70
     0
  9
$USERR1
 40
0.0
  9
$USERR2
 40
0.0
  9
$USERR3
 40
0.0
  9
$USERR4
 40
0.0
  9
$USERR5
 40
0.0
  9
$WORLDVIEW
 70
     1
  9
$SHADEDGE
 70
     3
  9
$SHADEDIF
 70
    70
  9
$TILEMODE
 70
     1
  9
$MAXACTVP
 70
    16
  9
$PINSBASE
 10
0.0
 20
0.0
 30
0.0
  9
$PLIMCHECK
 70
     0
  9
$PEXTMIN
 10
0.0
 20
0.0
 30
0.0
  9
$PEXTMAX
 10
420.0000000000001
 20
302.7225130890052
 30
0.0
  9
$PLIMMIN
 10
0.0
 20
0.0
  9
$PLIMMAX
 10
420.0
 20
297.0
  9
$UNITMODE
 70
     0
  9
$VISRETAIN
 70
     0
  9
$PLINEGEN
 70
     0
  9
$PSLTSCALE
 70
     1
  9
$TREEDEPTH
 70
  3020
  9
$CMLSTYLE
  2
STANDARD
  9
$CMLJUST
 70
     0
  9
$CMLSCALE
 40
1.0
  9
$PROXYGRAPHICS
 70
     1
  9
$MEASUREMENT
 70
     0
  9
$CELWEIGHT
370
    -1
  9
$ENDCAPS
280
     0
  9
$JOINSTYLE
280
     0
  9
$LWDISPLAY
290
     0
  9
$INSUNITS
 70
     0
  9
$HYPERLINKBASE
  1

  9
$STYLESHEET
  1
monochrome.ctb
  9
$XEDIT
290
     1
  9
$CEPSNTYPE
380
     0
  9
$PSTYLEMODE
290
     1
  9
$FINGERPRINTGUID
  2
{E5BFD884-1444-4908-A764-017D0946F674}
  9
$VERSIONGUID
  2
{FB81B489-FAF3-4EAC-A09A-3838F6E02AFB}
  9
$EXTNAMES
290
     1
  9
$PSVPSCALE
 40
0.0
  9
$OLESTARTUP
290
     0
  0
ENDSEC
  0
SECTION
  2
CLASSES
  0
CLASS
  1
ACDBDICTIONARYWDFLT
  2
AcDbDictionaryWithDefault
  3
AutoCAD 2000
 90
        0
280
     0
281
     0
  0
CLASS
  1
ACDBPLACEHOLDER
  2
AcDbPlaceHolder
  3
AutoCAD 2000
 90
        0
280
     0
281
     0
  0
CLASS
  1
LAYOUT
  2
AcDbLayout
  3
AutoCAD 2000
 90
        0
280
     0
281
     0
  0
CLASS
  1
LONG_TRANSACTION
  2
AcDbLongTransaction
  3
AutoCAD 2000
 90
    32768
280
     0
281
     0
  0
CLASS
  1
LWPOLYLINE
  2
AcDbPolyline
  3
AutoCAD 2000
 90
    32768
280
     0
281
     1
  0
CLASS
  1
HATCH
  2
AcDbHatch
  3
AutoCAD 2000
 90
    32768
280
     0
281
     1
  0
CLASS
  1
XRECORD
  2
AcDbXrecord
  3
AutoCAD 2000
 90
    32768
280
     0
281
     0
  0
CLASS
  1
LONG_TRANSACTION
  2
AcDbLongTransaction
  3
AutoCAD 2000
 90
    32768
280
     0
281
     0
  0
CLASS
  1
LWPOLYLINE
  2
AcDbPolyline
  3
AutoCAD 2000
 90
    32768
280
     0
281
     1
  0
CLASS
  1
HATCH
  2
AcDbHatch
  3
AutoCAD 2000
 90
    32768
280
     0
281
     1
  0
CLASS
  1
XRECORD
  2
AcDbXrecord
  3
AutoCAD 2000
 90
    32768
280
     0
281
     0
  0
CLASS
  1
LONG_TRANSACTION
  2
AcDbLongTransaction
  3
AutoCAD 2000
 90
    32768
280
     0
281
     0
  0
CLASS
  1
LWPOLYLINE
  2
AcDbPolyline
  3
AutoCAD 2000
 90
    32768
280
     0
281
     1
  0
CLASS
  1
HATCH
  2
AcDbHatch
  3
AutoCAD 2000
 90
    32768
280
     0
281
     1
  0
CLASS
  1
XRECORD
  2
AcDbXrecord
  3
AutoCAD 2000
 90
    32768
280
     0
281
     0
  0
CLASS
  1
LONG_TRANSACTION
  2
AcDbLongTransaction
  3
AutoCAD 2000
 90
    32768
280
     0
281
     0
  0
CLASS
  1
LWPOLYLINE
  2
AcDbPolyline
  3
AutoCAD 2000
 90
    32768
280
     0
281
     1
  0
CLASS
  1
HATCH
  2
AcDbHatch
  3
AutoCAD 2000
 90
    32768
280
     0
281
     1
  0
CLASS
  1
XRECORD
  2
AcDbXrecord
  3
AutoCAD 2000
 90
    32768
280
     0
281
     0
  0
CLASS
  1
LONG_TRANSACTION
  2
AcDbLongTransaction
  3
AutoCAD 2000
 90
    32768
280
     0
281
     0
  0
CLASS
  1
LWPOLYLINE
  2
AcDbPolyline
  3
AutoCAD 2000
 90
    32768
280
     0
281
     1
  0
CLASS
  1
HATCH
  2
AcDbHatch
  3
AutoCAD 2000
 90
    32768
280
     0
281
     1
  0
CLASS
  1
XRECORD
  2
AcDbXrecord
  3
AutoCAD 2000
 90
    32768
280
     0
281
     0
  0
CLASS
  1
LONG_TRANSACTION
  2
AcDbLongTransaction
  3
AutoCAD 2000
 90
    32768
280
     0
281
     0
  0
CLASS
  1
LWPOLYLINE
  2
AcDbPolyline
  3
AutoCAD 2000
 90
    32768
280
     0
281
     1
  0
CLASS
  1
HATCH
  2
AcDbHatch
  3
AutoCAD 2000
 90
    32768
280
     0
281
     1
  0
CLASS
  1
XRECORD
  2
AcDbXrecord
  3
AutoCAD 2000
 90
    32768
280
     0
281
     0
  0
ENDSEC
  0
SECTION
  2
TABLES
  0
TABLE
  2
VPORT
  5
13
330
0
100
AcDbSymbolTable
 70
     4
  0
VPORT
  5
2069
330
13
100
AcDbSymbolTableRecord
100
AcDbViewportTableRecord
  2
*Active
 70
     0
 10
0.0
 20
0.0
 11
1.0
 21
1.0
 12
38.86727380949048
 22
521.9477833078595
 13
0.0
 23
0.0
 14
0.1
 24
0.1
 15
10.0
 25
10.0
 16
0.0
 26
0.0
 36
1.0
 17
0.0
 27
0.0
 37
0.0
 40
876.8439703150184
 41
1.732888146911519
 42
50.0
 43
0.0
 44
0.0
 50
0.0
 51
0.0
 71
     0
 72
   100
 73
     1
 74
     0
 75
     0
 76
     0
 77
     0
 78
     1
281
     0
 65
     1
110
0.0
120
0.0
130
0.0
111
1.0
121
0.0
131
0.0
112
0.0
122
1.0
132
0.0
 79
     0
146
0.0
  0
ENDTAB
  0
TABLE
  2
LTYPE
  5
F
330
0
100
AcDbSymbolTable
 70
     1
  0
LTYPE
  5
10
330
F
100
AcDbSymbolTableRecord
100
AcDbLinetypeTableRecord
  2
BYBLOCK
 70
     0
  3

 72
    65
 73
     0
 40
0.0
  0
LTYPE
  5
6
330
F
100
AcDbSymbolTableRecord
100
AcDbLinetypeTableRecord
  2
BYLAYER
 70
     0
  3

 72
    65
 73
     0
 40
0.0
  0
LTYPE
  5
5
330
F
100
AcDbSymbolTableRecord
100
AcDbLinetypeTableRecord
  2
CONTINUOUS
 70
     0
  3
Solid line
 72
    65
 73
     0
 40
0.0
  0
ENDTAB
  0
TABLE
  2
LAYER
  5
B
330
0
100
AcDbSymbolTable
 70
     5
  0
LAYER
  5
C
330
B
100
AcDbSymbolTableRecord
100
AcDbLayerTableRecord
  2
0
 70
     0
 62
     7
  6
CONTINUOUS
370
    -3
390
2D
  0
LAYER
  5
A93
330
B
100
AcDbSymbolTableRecord
100
AcDbLayerTableRecord
  2
Layer1
 70
     0
 62
     5
  6
CONTINUOUS
370
    -3
390
2D
  0
LAYER
  5
A94
330
B
100
AcDbSymbolTableRecord
100
AcDbLayerTableRecord
  2
Layer2
 70
     0
 62
     3
  6
CONTINUOUS
370
    -3
390
2D
  0
LAYER
  5
A95
330
B
100
AcDbSymbolTableRecord
100
AcDbLayerTableRecord
  2
Layer3
 70
     0
 62
     4
  6
CONTINUOUS
370
    -3
390
2D
  0
LAYER
  5
A96
330
B
100
AcDbSymbolTableRecord
100
AcDbLayerTableRecord
  2
Layer4
 70
     0
 62
     6
  6
CONTINUOUS
370
    -3
390
2D
  0
ENDTAB
  0
TABLE
  2
STYLE
  5
D
330
0
100
AcDbSymbolTable
 70
     1
  0
STYLE
  5
E
330
D
100
AcDbSymbolTableRecord
100
AcDbTextStyleTableRecord
  2
STANDARD
 70
     0
 40
0.0
 41
1.0
 50
0.0
 71
     0
 42
3.0
  3
txt
  4
bigfont
  0
ENDTAB
  0
TABLE
  2
VIEW
  5
11
330
0
100
AcDbSymbolTable
 70
     0
  0
ENDTAB
  0
TABLE
  2
UCS
  5
12
330
0
100
AcDbSymbolTable
 70
     0
  0
ENDTAB
  0
TABLE
  2
APPID
  5
15
330
0
100
AcDbSymbolTable
 70
     1
  0
APPID
  5
16
330
15
100
AcDbSymbolTableRecord
100
AcDbRegAppTableRecord
  2
ACAD
 70
     0
  0
ENDTAB
  0
TABLE
  2
DIMSTYLE
  5
17
330
0
100
AcDbSymbolTable
 70
     3
100
AcDbDimStyleTable
 71
     0
  0
DIMSTYLE
105
3DF
330
17
100
AcDbSymbolTableRecord
100
AcDbDimStyleTableRecord
  2
STYLE1
 70
     0
 41
2.0
 42
1.0
 43
7.0
 44
1.0
 73
     0
 74
     0
 78
     8
140
10.0
141
0.0
145
1.0
147
0.0
172
     1
271
     3
272
     3
284
     8
285
     8
286
     8
340
E
  0
DIMSTYLE
105
405
330
17
100
AcDbSymbolTableRecord
100
AcDbDimStyleTableRecord
  2
STANDARD
 70
     0
340
E
  0
DIMSTYLE
105
A97
330
17
100
AcDbSymbolTableRecord
100
AcDbDimStyleTableRecord
  2
ISO-25
 70
     0
 41
2.5
 42
0.625
 43
3.75
 44
1.25
 73
     0
 74
     0
 77
     1
 78
     8
140
2.5
141
2.5
143
0.03937007874016
147
0.625
171
     3
172
     1
271
     2
272
     2
274
     3
283
     0
284
     8
340
E
  0
ENDTAB
  0
TABLE
  2
BLOCK_RECORD
  5
1
330
0
100
AcDbSymbolTable
 70
     1
  0
BLOCK_RECORD
  5
2
102
{ACAD_XDICTIONARY
360
807
102
}
330
1
100
AcDbSymbolTableRecord
100
AcDbBlockTableRecord
  2
*MODEL_SPACE
340
9DA
  0
BLOCK_RECORD
  5
8
102
{ACAD_XDICTIONARY
360
809
102
}
330
1
100
AcDbSymbolTableRecord
100
AcDbBlockTableRecord
  2
*PAPER_SPACE
340
9DB
  0
BLOCK_RECORD
  5
8D2
330
1
100
AcDbSymbolTableRecord
100
AcDbBlockTableRecord
  2
_OPEN
340
0
  0
ENDTAB
  0
ENDSEC
  0
SECTION
  2
BLOCKS
  0
BLOCK
  5
3
330
2
100
AcDbEntity
  8
0
100
AcDbBlockBegin
  2
*MODEL_SPACE
 70
     0
 10
0.0
 20
0.0
 30
0.0
  3
*MODEL_SPACE
  1

  0
ENDBLK
  5
7
330
2
100
AcDbEntity
  8
0
100
AcDbBlockEnd
  0
BLOCK
  5
9
330
8
100
AcDbEntity
 67
     1
  8
0
100
AcDbBlockBegin
  2
*PAPER_SPACE
 70
     0
 10
0.0
 20
0.0
 30
0.0
  3
*PAPER_SPACE
  1

  0
ENDBLK
  5
A
330
8
100
AcDbEntity
 67
     1
  8
0
100
AcDbBlockEnd
  0
BLOCK
  5
8D6
330
8D2
100
AcDbEntity
  8
0
100
AcDbBlockBegin
  2
_OPEN
 70
     0
 10
0.0
 20
0.0
 30
0.0
  3
_OPEN
  1

  0
LINE
  5
8D3
330
8D2
100
AcDbEntity
  8
0
  6
ByBlock
 62
     0
100
AcDbLine
 10
-1.0
 20
0.1666666666666666
 30
0.0
 11
0.0
 21
0.0
 31
0.0
  0
LINE
  5
8D4
330
8D2
100
AcDbEntity
  8
0
  6
ByBlock
 62
     0
100
AcDbLine
 10
-1.0
 20
-0.1666666666666666
 30
0.0
 11
0.0
 21
0.0
 31
0.0
  0
LINE
  5
8D5
330
8D2
100
AcDbEntity
  8
0
  6
ByBlock
 62
     0
100
AcDbLine
 10
0.0
 20
0.0
 30
0.0
 11
-1.0
 21
0.0
 31
0.0
  0
ENDBLK
  5
8D7
330
8D2
100
AcDbEntity
  8
0
100
AcDbBlockEnd
  0
ENDSEC
  0
SECTION
  2
ENTITIES
  0
LINE
  5
B52
330
2
100
AcDbEntity
  8
Layer1
100
AcDbLine
 10
286.4337057877948
 20
759.5189634592601
 30
0.0
 11
-343.5662942122049
 21
759.5189634592598
 31
0.0
  0
LINE
  5
B53
330
2
100
AcDbEntity
  8
Layer1
100
AcDbLine
 10
286.4337057877948
 20
809.5189634592598
 30
0.0
 11
-343.5662942122049
 21
809.5189634592598
 31
0.0
  0
MTEXT
  5
B56
330
2
100
AcDbEntity
  8
Layer4
100
AcDbMText
 10
-340.697552037858
 20
908.3409036612952
 30
0.0
 40
30.0
 41
2653.405
 71
     1
 72
     5
  1
Cross Recessed head screws 
 73
     1
 44
1.0
  0
LINE
  5
B58
330
2
100
AcDbEntity
  8
Layer1
100
AcDbLine
 10
286.4337057877948
 20
689.5189634592601
 30
0.0
 11
-343.5662942122048
 21
689.5189634592603
 31
0.0
  0
MTEXT
  5
B5A
330
2
100
AcDbEntity
  8
Layer4
100
AcDbMText
 10
-340.697552037858
 20
955.9854624811874
 30
0.0
 40
30.0
 41
2653.405
 71
     1
 72
     5
  1
十字穴付き小ねじ　{\Ftxt.shx;(}JIS　B　1111{\Ftxt.shx;)}　1987
 73
     1
 44
1.0
  0
LINE
  5
BFC
330
2
100
AcDbEntity
  8
Layer1
100
AcDbLine
 10
-343.5662942122049
 20
648.2527365511558
 30
0.0
 11
-343.566294212205
 21
809.51896345926
 31
0.0
  0
MTEXT
  5
C14
330
2
100
AcDbEntity
  8
Layer4
100
AcDbMText
 10
-305.714559030076
 20
790.6799567519128
 30
0.0
 40
12.0
 41
2653.405
 71
     1
 72
     5
  1
M2
 73
     1
 44
1.0
  0
LINE
  5
CBA
330
2
100
AcDbEntity
  8
Layer1
100
AcDbLine
 10
286.4337057877949
 20
648.2527365511558
 30
0.0
 11
-343.5662942122049
 21
648.2527365511558
 31
0.0
  0
MTEXT
  5
CDE
330
2
100
AcDbEntity
  8
Layer4
100
AcDbMText
 10
-338.3656861049457
 20
676.6827747966892
 30
0.0
 40
10.0
 41
2653.405
 71
     1
 72
     5
  1
L=5-20mm
 73
     1
 44
1.0
  0
LINE
  5
1958
330
2
100
AcDbEntity
  8
Layer3
100
AcDbLine
 10
-30.18729421220507
 20
733.9876073461359
 30
0.0
 11
-30.18729421220507
 21
711.666607346136
 31
0.0
  0
LINE
  5
1959
330
2
100
AcDbEntity
  8
Layer3
100
AcDbLine
 10
-30.56629421220498
 20
733.3666073461359
 30
0.0
 11
-30.56629421220498
 21
712.0456073461359
 31
0.0
  0
LINE
  5
195A
330
2
100
AcDbEntity
  8
Layer3
100
AcDbLine
 10
-26.94529421220499
 20
733.9876073461359
 30
0.0
 11
-26.94529421220511
 21
711.666607346136
 31
0.0
  0
LINE
  5
195B
330
2
100
AcDbEntity
  8
Layer3
100
AcDbLine
 10
-26.56629421220498
 20
733.3666073461359
 30
0.0
 11
-26.56629421220498
 21
712.0456073461359
 31
0.0
  0
LINE
  5
195C
330
2
100
AcDbEntity
  8
Layer3
100
AcDbLine
 10
59.3667057877949
 20
732.2674739599833
 30
0.0
 11
59.3667057877949
 21
711.666607346136
 31
0.0
  0
LINE
  5
195D
330
2
100
AcDbEntity
  8
Layer3
100
AcDbLine
 10
63.50070578779503
 20
732.2674739599833
 30
0.0
 11
63.50070578779491
 21
711.666607346136
 31
0.0
  0
LINE
  5
195E
330
2
100
AcDbEntity
  8
Layer3
100
AcDbLine
 10
58.9337057877949
 20
731.7004739599833
 30
0.0
 11
58.9337057877949
 21
712.099607346136
 31
0.0
  0
LINE
  5
195F
330
2
100
AcDbEntity
  8
Layer3
100
AcDbLine
 10
63.9337057877949
 20
731.7004739599833
 30
0.0
 11
63.9337057877949
 21
712.099607346136
 31
0.0
  0
LINE
  5
1960
330
2
100
AcDbEntity
  8
Layer3
100
AcDbLine
 10
-30.56629421220498
 20
712.0456073461359
 30
0.0
 11
-26.56629421220498
 21
712.0456073461359
 31
0.0
  0
LINE
  5
1961
330
2
100
AcDbEntity
  8
Layer3
100
AcDbLine
 10
-30.18729421220507
 20
711.666607346136
 30
0.0
 11
-26.94529421220499
 21
711.666607346136
 31
0.0
  0
LINE
  5
1962
330
2
100
AcDbEntity
  8
Layer3
100
AcDbLine
 10
-30.18729421220507
 20
711.666607346136
 30
0.0
 11
-30.56629421220498
 21
712.0456073461359
 31
0.0
  0
LINE
  5
1963
330
2
100
AcDbEntity
  8
Layer3
100
AcDbLine
 10
-26.94529421220511
 20
711.666607346136
 30
0.0
 11
-26.56629421220498
 21
712.0456073461359
 31
0.0
  0
LINE
  5
1964
330
2
100
AcDbEntity
  8
Layer3
100
AcDbLine
 10
58.9337057877949
 20
712.099607346136
 30
0.0
 11
63.9337057877949
 21
712.099607346136
 31
0.0
  0
LINE
  5
1965
330
2
100
AcDbEntity
  8
Layer3
100
AcDbLine
 10
63.50070578779491
 20
711.666607346136
 30
0.0
 11
59.3667057877949
 21
711.666607346136
 31
0.0
  0
LINE
  5
1966
330
2
100
AcDbEntity
  8
Layer3
100
AcDbLine
 10
59.3667057877949
 20
711.666607346136
 30
0.0
 11
58.9337057877949
 21
712.099607346136
 31
0.0
  0
LINE
  5
1967
330
2
100
AcDbEntity
  8
Layer3
100
AcDbLine
 10
63.50070578779491
 20
711.666607346136
 30
0.0
 11
63.9337057877949
 21
712.099607346136
 31
0.0
  0
LINE
  5
1968
330
2
100
AcDbEntity
  8
Layer3
100
AcDbLine
 10
-212.066294212205
 20
743.3574764160176
 30
0.0
 11
-205.066294212205
 21
743.3574764160176
 31
0.0
  0
ARC
  5
196A
330
2
100
AcDbEntity
  8
Layer3
100
AcDbCircle
 10
-207.279894212205
 20
744.6438764160176
 30
0.0
 40
1.098899999999998
100
AcDbArc
 50
179.9996192115489
 51
270.0003807884526
  0
ARC
  5
196B
330
2
100
AcDbEntity
  8
Layer3
100
AcDbCircle
 10
-207.279894212205
 20
742.0710764160174
 30
0.0
 40
1.098899999999998
100
AcDbArc
 50
89.99961921154733
 51
180.000380788451
  0
LINE
  5
196C
330
2
100
AcDbEntity
  8
Layer3
100
AcDbLine
 10
-209.5727942122051
 20
737.106417750923
 30
0.0
 11
-207.5597942122052
 21
737.106417750923
 31
0.0
  0
LINE
  5
196D
330
2
100
AcDbEntity
  8
Layer3
100
AcDbLine
 10
-209.816294212205
 20
736.349917750923
 30
0.0
 11
-207.316294212205
 21
736.3499177509232
 31
0.0
  0
LINE
  5
196E
330
2
100
AcDbEntity
  8
Layer3
100
AcDbLine
 10
-209.816294212205
 20
737.3499177509231
 30
0.0
 11
-207.316294212205
 21
737.3499177509232
 31
0.0
  0
LINE
  5
196F
330
2
100
AcDbEntity
  8
Layer3
100
AcDbLine
 10
-211.066294212205
 20
738.7999177509231
 30
0.0
 11
-206.066294212205
 21
738.799917750923
 31
0.0
  0
LINE
  5
1970
330
2
100
AcDbEntity
  8
Layer3
100
AcDbLine
 10
-211.066294212205
 20
738.599917750923
 30
0.0
 11
-206.066294212205
 21
738.599917750923
 31
0.0
  0
CIRCLE
  5
1971
330
2
100
AcDbEntity
  8
Layer3
100
AcDbCircle
 10
-208.566294212205
 20
743.3574764160176
 30
0.0
 40
2.5
  0
LINE
  5
1972
330
2
100
AcDbEntity
  8
Layer3
100
AcDbLine
 10
-209.8162942122052
 20
723.043417750923
 30
0.0
 11
-207.3162942122052
 21
723.043417750923
 31
0.0
  0
LINE
  5
1973
330
2
100
AcDbEntity
  8
Layer3
100
AcDbLine
 10
-209.5727942122051
 20
722.799917750923
 30
0.0
 11
-207.5597942122052
 21
722.799917750923
 31
0.0
  0
LINE
  5
1977
330
2
100
AcDbEntity
  8
Layer3
100
AcDbLine
 10
-301.4662942122053
 20
743.3574764160176
 30
0.0
 11
-295.6662942122052
 21
743.3574764160176
 31
0.0
  0
ARC
  5
1978
330
2
100
AcDbEntity
  8
Layer3
100
AcDbCircle
 10
-299.5662942122052
 20
744.3574764160176
 30
0.0
 40
0.875
100
AcDbArc
 50
270.0
 51
0.0
  0
LINE
  5
1979
330
2
100
AcDbEntity
  8
Layer3
100
AcDbLine
 10
-296.7946652955869
 20
738.849643381779
 30
0.0
 11
-300.5454664064606
 21
738.849643381779
 31
0.0
  0
ARC
  5
197A
330
2
100
AcDbEntity
  8
Layer3
100
AcDbCircle
 10
-299.5662942122052
 20
742.3574764160175
 30
0.0
 40
0.875
100
AcDbArc
 50
0.0
 51
90.0
  0
CIRCLE
  5
197B
330
2
100
AcDbEntity
  8
Layer3
100
AcDbCircle
 10
-298.5662942122051
 20
743.3574764160176
 30
0.0
 40
1.9
  0
LINE
  5
197C
330
2
100
AcDbEntity
  8
Layer3
100
AcDbLine
 10
-296.7946652955869
 20
739.0412433817791
 30
0.0
 11
-300.5946652955868
 21
739.0412433817791
 31
0.0
  0
LINE
  5
197D
330
2
100
AcDbEntity
  8
Layer3
100
AcDbLine
 10
-297.8030652955868
 20
737.841243381779
 30
0.0
 11
-299.5862652955869
 21
737.841243381779
 31
0.0
  0
LINE
  5
197E
330
2
100
AcDbEntity
  8
Layer3
100
AcDbLine
 10
-297.6946652955869
 20
737.041243381779
 30
0.0
 11
-299.694665295587
 21
737.041243381779
 31
0.0
  0
LINE
  5
197F
330
2
100
AcDbEntity
  8
Layer3
100
AcDbLine
 10
-297.8301652955869
 20
727.041243381779
 30
0.0
 11
-299.5591652955869
 21
727.041243381779
 31
0.0
  0
LINE
  5
1980
330
2
100
AcDbEntity
  8
Layer3
100
AcDbLine
 10
-299.6946652955869
 20
727.176743381779
 30
0.0
 11
-297.6946652955869
 21
727.176743381779
 31
0.0
  0
LINE
  5
1981
330
2
100
AcDbEntity
  8
Layer3
100
AcDbLine
 10
-300.5946652955868
 20
739.0412433817791
 30
0.0
 11
-300.5946652955868
 21
738.849643381779
 31
0.0
  0
LINE
  5
1982
330
2
100
AcDbEntity
  8
Layer3
100
AcDbLine
 10
-299.6946652955869
 20
737.041243381779
 30
0.0
 11
-299.5862652955869
 21
737.841243381779
 31
0.0
  0
LINE
  5
1983
330
2
100
AcDbEntity
  8
Layer3
100
AcDbLine
 10
-299.5591652955869
 20
727.041243381779
 30
0.0
 11
-299.5591652955869
 21
737.841243381779
 31
0.0
  0
LINE
  5
1984
330
2
100
AcDbEntity
  8
Layer3
100
AcDbLine
 10
-299.5591652955869
 20
727.041243381779
 30
0.0
 11
-299.6946652955869
 21
727.176743381779
 31
0.0
  0
LINE
  5
1985
330
2
100
AcDbEntity
  8
Layer3
100
AcDbLine
 10
-299.6946652955869
 20
737.041243381779
 30
0.0
 11
-299.6946652955869
 21
727.176743381779
 31
0.0
  0
LINE
  5
1986
330
2
100
AcDbEntity
  8
Layer3
100
AcDbLine
 10
-299.5862652955869
 20
737.841243381779
 30
0.0
 11
-300.5946652955868
 21
738.849643381779
 31
0.0
  0
LINE
  5
1987
330
2
100
AcDbEntity
  8
Layer3
100
AcDbLine
 10
-299.5662942122052
 20
743.4824764160175
 30
0.0
 11
-299.5662942122052
 21
743.2324764160175
 31
0.0
  0
LINE
  5
1988
330
2
100
AcDbEntity
  8
Layer3
100
AcDbLine
 10
-296.7946652955869
 20
739.0412433817791
 30
0.0
 11
-296.7946652955869
 21
738.849643381779
 31
0.0
  0
LINE
  5
1989
330
2
100
AcDbEntity
  8
Layer3
100
AcDbLine
 10
-297.6946652955869
 20
737.041243381779
 30
0.0
 11
-297.8030652955868
 21
737.841243381779
 31
0.0
  0
LINE
  5
198A
330
2
100
AcDbEntity
  8
Layer3
100
AcDbLine
 10
-297.8301652955869
 20
727.041243381779
 30
0.0
 11
-297.8301652955869
 21
737.841243381779
 31
0.0
  0
LINE
  5
198B
330
2
100
AcDbEntity
  8
Layer3
100
AcDbLine
 10
-297.8301652955869
 20
727.041243381779
 30
0.0
 11
-297.6946652955869
 21
727.176743381779
 31
0.0
  0
LINE
  5
198C
330
2
100
AcDbEntity
  8
Layer3
100
AcDbLine
 10
-297.6946652955869
 20
737.041243381779
 30
0.0
 11
-297.6946652955869
 21
727.176743381779
 31
0.0
  0
LINE
  5
198D
330
2
100
AcDbEntity
  8
Layer3
100
AcDbLine
 10
-297.8030652955868
 20
737.841243381779
 30
0.0
 11
-296.7946652955869
 21
738.849643381779
 31
0.0
  0
LINE
  5
198E
330
2
100
AcDbEntity
  8
Layer3
100
AcDbLine
 10
-209.5727942122051
 20
737.106417750923
 30
0.0
 11
-209.5727942122052
 21
722.799917750923
 31
0.0
  0
LINE
  5
198F
330
2
100
AcDbEntity
  8
Layer3
100
AcDbLine
 10
-209.816294212205
 20
736.3499177509232
 30
0.0
 11
-209.8162942122052
 21
723.0434177509231
 31
0.0
  0
LINE
  5
1990
330
2
100
AcDbEntity
  8
Layer3
100
AcDbLine
 10
-209.5727942122052
 20
722.799917750923
 30
0.0
 11
-209.8162942122052
 21
723.043417750923
 31
0.0
  0
LINE
  5
1991
330
2
100
AcDbEntity
  8
Layer3
100
AcDbLine
 10
-211.066294212205
 20
738.7999177509231
 30
0.0
 11
-211.066294212205
 21
738.5999177509232
 31
0.0
  0
LINE
  5
1992
330
2
100
AcDbEntity
  8
Layer3
100
AcDbLine
 10
-211.066294212205
 20
738.599917750923
 30
0.0
 11
-209.5727942122051
 21
737.106417750923
 31
0.0
  0
LINE
  5
1993
330
2
100
AcDbEntity
  8
Layer3
100
AcDbLine
 10
-298.5662942122051
 20
740.4574764160174
 30
0.0
 11
-298.5662942122051
 21
746.2574764160176
 31
0.0
  0
ARC
  5
1994
330
2
100
AcDbEntity
  8
Layer3
100
AcDbCircle
 10
-297.5662942122052
 20
744.3574764160176
 30
0.0
 40
0.875
100
AcDbArc
 50
180.0
 51
270.0
  0
LINE
  5
1995
330
2
100
AcDbEntity
  8
Layer3
100
AcDbLine
 10
-298.6912942122052
 20
744.3574764160176
 30
0.0
 11
-298.4412942122052
 21
744.3574764160176
 31
0.0
  0
LINE
  5
1996
330
2
100
AcDbEntity
  8
Layer3
100
AcDbLine
 10
-297.5662942122052
 20
743.4824764160175
 30
0.0
 11
-297.5662942122052
 21
743.2324764160175
 31
0.0
  0
LINE
  5
1997
330
2
100
AcDbEntity
  8
Layer3
100
AcDbLine
 10
-298.6912942122052
 20
742.3574764160175
 30
0.0
 11
-298.4412942122052
 21
742.3574764160175
 31
0.0
  0
ARC
  5
1998
330
2
100
AcDbEntity
  8
Layer3
100
AcDbCircle
 10
-297.5662942122052
 20
742.3574764160175
 30
0.0
 40
0.875
100
AcDbArc
 50
90.0
 51
180.0
  0
LINE
  5
1999
330
2
100
AcDbEntity
  8
Layer3
100
AcDbLine
 10
-208.566294212205
 20
739.8574764160176
 30
0.0
 11
-208.566294212205
 21
746.8574764160175
 31
0.0
  0
ARC
  5
199A
330
2
100
AcDbEntity
  8
Layer3
100
AcDbCircle
 10
-209.8526942122051
 20
744.6438764160176
 30
0.0
 40
1.098899999999998
100
AcDbArc
 50
269.999619211544
 51
0.0003807884510367
  0
ARC
  5
199B
330
2
100
AcDbEntity
  8
Layer3
100
AcDbCircle
 10
-208.566294212205
 20
743.3574764160176
 30
0.0
 40
1.3
100
AcDbArc
 50
261.707262714762
 51
270.0
  0
ARC
  5
199C
330
2
100
AcDbEntity
  8
Layer3
100
AcDbCircle
 10
-208.566294212205
 20
743.3574764160176
 30
0.0
 40
1.3
100
AcDbArc
 50
270.0
 51
278.292737285238
  0
ARC
  5
199D
330
2
100
AcDbEntity
  8
Layer3
100
AcDbCircle
 10
-208.566294212205
 20
743.3574764160176
 30
0.0
 40
1.3
100
AcDbArc
 50
180.0
 51
188.292737285243
  0
ARC
  5
199E
330
2
100
AcDbEntity
  8
Layer3
100
AcDbCircle
 10
-208.566294212205
 20
743.3574764160176
 30
0.0
 40
1.3
100
AcDbArc
 50
171.707262714757
 51
180.0
  0
ARC
  5
199F
330
2
100
AcDbEntity
  8
Layer3
100
AcDbCircle
 10
-209.8526942122051
 20
742.0710764160174
 30
0.0
 40
1.098899999999998
100
AcDbArc
 50
359.9996192115489
 51
90.00038078845268
  0
ARC
  5
19A0
330
2
100
AcDbEntity
  8
Layer3
100
AcDbCircle
 10
-208.566294212205
 20
743.3574764160176
 30
0.0
 40
1.3
100
AcDbArc
 50
90.0
 51
98.29273728523798
  0
ARC
  5
19A1
330
2
100
AcDbEntity
  8
Layer3
100
AcDbCircle
 10
-208.566294212205
 20
743.3574764160176
 30
0.0
 40
1.3
100
AcDbArc
 50
81.70726271476203
 51
90.0
  0
LINE
  5
19A2
330
2
100
AcDbEntity
  8
Layer3
100
AcDbLine
 10
-33.56629421220509
 20
743.3574764160176
 30
0.0
 11
-23.56629421220509
 21
743.3574764160176
 31
0.0
  0
ARC
  5
19A3
330
2
100
AcDbEntity
  8
Layer3
100
AcDbCircle
 10
-30.74779421220501
 20
745.5389764160174
 30
0.0
 40
1.894
100
AcDbArc
 50
270.0110843976931
 51
359.9889156023083
  0
LINE
  5
19A4
330
2
100
AcDbEntity
  8
Layer3
100
AcDbLine
 10
-30.18729421220507
 20
733.9876073461359
 30
0.0
 11
-26.94529421220511
 21
733.9876073461359
 31
0.0
  0
LINE
  5
19A5
330
2
100
AcDbEntity
  8
Layer3
100
AcDbLine
 10
-30.56629421220498
 20
733.3666073461359
 30
0.0
 11
-26.56629421220498
 21
733.3666073461359
 31
0.0
  0
LINE
  5
19A6
330
2
100
AcDbEntity
  8
Layer3
100
AcDbLine
 10
-30.56629421220498
 20
734.366607346136
 30
0.0
 11
-26.56629421220498
 21
734.366607346136
 31
0.0
  0
LINE
  5
19A7
330
2
100
AcDbEntity
  8
Layer3
100
AcDbLine
 10
-32.56629421220509
 20
736.3666073461359
 30
0.0
 11
-24.56629421220497
 21
736.3666073461359
 31
0.0
  0
LINE
  5
19A8
330
2
100
AcDbEntity
  8
Layer3
100
AcDbLine
 10
-32.56629421220509
 20
736.666607346136
 30
0.0
 11
-24.56629421220497
 21
736.666607346136
 31
0.0
  0
ARC
  5
19A9
330
2
100
AcDbEntity
  8
Layer3
100
AcDbCircle
 10
-30.74779421220501
 20
741.1759764160176
 30
0.0
 40
1.894
100
AcDbArc
 50
0.011084397691565
 51
89.98891560230681
  0
CIRCLE
  5
19AA
330
2
100
AcDbEntity
  8
Layer3
100
AcDbCircle
 10
-28.56629421220509
 20
743.3574764160176
 30
0.0
 40
4.0
  0
LINE
  5
19AC
330
2
100
AcDbEntity
  8
Layer3
100
AcDbLine
 10
-122.566294212205
 20
743.3574764160176
 30
0.0
 11
-114.566294212205
 21
743.3574764160176
 31
0.0
  0
ARC
  5
19AD
330
2
100
AcDbEntity
  8
Layer3
100
AcDbCircle
 10
-120.306194212205
 20
745.0973764160176
 30
0.0
 40
1.5524
100
AcDbArc
 50
269.9990269844897
 51
0.0009730155102177
  0
ARC
  5
19AE
330
2
100
AcDbEntity
  8
Layer3
100
AcDbCircle
 10
-116.8263942122049
 20
745.0973764160176
 30
0.0
 40
1.5524
100
AcDbArc
 50
179.9990269844897
 51
270.0009730155102
  0
ARC
  5
19AF
330
2
100
AcDbEntity
  8
Layer3
100
AcDbCircle
 10
-118.566294212205
 20
743.3574764160176
 30
0.0
 40
1.75
100
AcDbArc
 50
83.84936016468669
 51
90.0
  0
LINE
  5
19B1
330
2
100
AcDbEntity
  8
Layer3
100
AcDbLine
 10
-121.566294212205
 20
737.836503213279
 30
0.0
 11
-115.566294212205
 21
737.836503213279
 31
0.0
  0
LINE
  5
19B2
330
2
100
AcDbEntity
  8
Layer3
100
AcDbLine
 10
-121.566294212205
 20
738.0865032132789
 30
0.0
 11
-115.566294212205
 21
738.0865032132789
 31
0.0
  0
ARC
  5
19B3
330
2
100
AcDbEntity
  8
Layer3
100
AcDbCircle
 10
-118.566294212205
 20
743.3574764160176
 30
0.0
 40
1.75
100
AcDbArc
 50
270.0
 51
276.1506398353133
  0
LINE
  5
19B4
330
2
100
AcDbEntity
  8
Layer3
100
AcDbLine
 10
-119.7957942122049
 20
736.0660032132789
 30
0.0
 11
-117.3367942122051
 21
736.0660032132789
 31
0.0
  0
LINE
  5
19B5
330
2
100
AcDbEntity
  8
Layer3
100
AcDbLine
 10
-120.066294212205
 20
735.3365032132789
 30
0.0
 11
-117.066294212205
 21
735.3365032132789
 31
0.0
  0
LINE
  5
19B6
330
2
100
AcDbEntity
  8
Layer3
100
AcDbLine
 10
-120.066294212205
 20
736.336503213279
 30
0.0
 11
-117.066294212205
 21
736.336503213279
 31
0.0
  0
CIRCLE
  5
19B7
330
2
100
AcDbEntity
  8
Layer3
100
AcDbCircle
 10
-118.566294212205
 20
743.3574764160176
 30
0.0
 40
3.0
  0
ARC
  5
19B8
330
2
100
AcDbEntity
  8
Layer3
100
AcDbCircle
 10
-116.8263942122049
 20
741.6175764160176
 30
0.0
 40
1.5524
100
AcDbArc
 50
89.99902698448979
 51
180.0009730155101
  0
ARC
  5
19B9
330
2
100
AcDbEntity
  8
Layer3
100
AcDbCircle
 10
-120.306194212205
 20
741.6175764160176
 30
0.0
 40
1.5524
100
AcDbArc
 50
359.9990269844898
 51
90.0009730155102
  0
LINE
  5
19BA
330
2
100
AcDbEntity
  8
Layer3
100
AcDbLine
 10
-120.066294212205
 20
718.357003213279
 30
0.0
 11
-117.066294212205
 21
718.3570032132791
 31
0.0
  0
LINE
  5
19BB
330
2
100
AcDbEntity
  8
Layer3
100
AcDbLine
 10
-119.7957942122049
 20
718.086503213279
 30
0.0
 11
-117.336794212205
 21
718.086503213279
 31
0.0
  0
LINE
  5
19BC
330
2
100
AcDbEntity
  8
Layer3
100
AcDbLine
 10
-118.566294212205
 20
739.3574764160176
 30
0.0
 11
-118.566294212205
 21
747.3574764160176
 31
0.0
  0
LINE
  5
19BD
330
2
100
AcDbEntity
  8
Layer3
100
AcDbLine
 10
-207.559794212205
 20
737.106417750923
 30
0.0
 11
-207.5597942122052
 21
722.799917750923
 31
0.0
  0
LINE
  5
19BE
330
2
100
AcDbEntity
  8
Layer3
100
AcDbLine
 10
-207.316294212205
 20
736.3499177509232
 30
0.0
 11
-207.3162942122052
 21
723.043417750923
 31
0.0
  0
LINE
  5
19BF
330
2
100
AcDbEntity
  8
Layer3
100
AcDbLine
 10
-207.5597942122052
 20
722.799917750923
 30
0.0
 11
-207.3162942122052
 21
723.043417750923
 31
0.0
  0
LINE
  5
19C0
330
2
100
AcDbEntity
  8
Layer3
100
AcDbLine
 10
-206.066294212205
 20
738.7999177509231
 30
0.0
 11
-206.066294212205
 21
738.5999177509232
 31
0.0
  0
LINE
  5
19C1
330
2
100
AcDbEntity
  8
Layer3
100
AcDbLine
 10
-206.066294212205
 20
738.599917750923
 30
0.0
 11
-207.559794212205
 21
737.1064177509231
 31
0.0
  0
LINE
  5
19C2
330
2
100
AcDbEntity
  8
Layer3
100
AcDbLine
 10
-119.7957942122049
 20
736.0660032132789
 30
0.0
 11
-119.7957942122049
 21
718.0865032132791
 31
0.0
  0
LINE
  5
19C3
330
2
100
AcDbEntity
  8
Layer3
100
AcDbLine
 10
-120.066294212205
 20
735.3365032132789
 30
0.0
 11
-120.066294212205
 21
718.357003213279
 31
0.0
  0
LINE
  5
19C4
330
2
100
AcDbEntity
  8
Layer3
100
AcDbLine
 10
-119.7957942122049
 20
718.086503213279
 30
0.0
 11
-120.066294212205
 21
718.357003213279
 31
0.0
  0
LINE
  5
19C5
330
2
100
AcDbEntity
  8
Layer3
100
AcDbLine
 10
-121.566294212205
 20
738.0865032132789
 30
0.0
 11
-121.566294212205
 21
737.836503213279
 31
0.0
  0
LINE
  5
19C6
330
2
100
AcDbEntity
  8
Layer3
100
AcDbLine
 10
-121.566294212205
 20
737.836503213279
 30
0.0
 11
-119.7957942122049
 21
736.0660032132789
 31
0.0
  0
ARC
  5
19C7
330
2
100
AcDbEntity
  8
Layer3
100
AcDbCircle
 10
-208.566294212205
 20
743.3574764160176
 30
0.0
 40
1.3
100
AcDbArc
 50
0.0
 51
8.292737285242992
  0
ARC
  5
19C8
330
2
100
AcDbEntity
  8
Layer3
100
AcDbCircle
 10
-208.566294212205
 20
743.3574764160176
 30
0.0
 40
1.3
100
AcDbArc
 50
351.707262714757
 51
0.0
  0
ARC
  5
19C9
330
2
100
AcDbEntity
  8
Layer3
100
AcDbCircle
 10
-118.566294212205
 20
743.3574764160176
 30
0.0
 40
1.75
100
AcDbArc
 50
173.8493601646882
 51
180.0
  0
ARC
  5
19CA
330
2
100
AcDbEntity
  8
Layer3
100
AcDbCircle
 10
-118.566294212205
 20
743.3574764160176
 30
0.0
 40
1.75
100
AcDbArc
 50
180.0
 51
186.1506398353117
  0
ARC
  5
19CB
330
2
100
AcDbEntity
  8
Layer3
100
AcDbCircle
 10
-118.566294212205
 20
743.3574764160176
 30
0.0
 40
1.75
100
AcDbArc
 50
90.0
 51
96.15063983531332
  0
ARC
  5
19CC
330
2
100
AcDbEntity
  8
Layer3
100
AcDbCircle
 10
-118.566294212205
 20
743.3574764160176
 30
0.0
 40
1.75
100
AcDbArc
 50
263.8493601646866
 51
270.0
  0
LINE
  5
19CD
330
2
100
AcDbEntity
  8
Layer3
100
AcDbLine
 10
-117.336794212205
 20
736.066003213279
 30
0.0
 11
-117.336794212205
 21
718.0865032132791
 31
0.0
  0
LINE
  5
19CE
330
2
100
AcDbEntity
  8
Layer3
100
AcDbLine
 10
-117.066294212205
 20
735.3365032132789
 30
0.0
 11
-117.066294212205
 21
718.357003213279
 31
0.0
  0
LINE
  5
19CF
330
2
100
AcDbEntity
  8
Layer3
100
AcDbLine
 10
-117.336794212205
 20
718.0865032132791
 30
0.0
 11
-117.066294212205
 21
718.357003213279
 31
0.0
  0
LINE
  5
19D0
330
2
100
AcDbEntity
  8
Layer3
100
AcDbLine
 10
-115.566294212205
 20
738.0865032132789
 30
0.0
 11
-115.566294212205
 21
737.836503213279
 31
0.0
  0
LINE
  5
19D1
330
2
100
AcDbEntity
  8
Layer3
100
AcDbLine
 10
-115.566294212205
 20
737.836503213279
 30
0.0
 11
-117.336794212205
 21
736.066003213279
 31
0.0
  0
LINE
  5
19D2
330
2
100
AcDbEntity
  8
Layer3
100
AcDbLine
 10
-32.56629421220509
 20
736.666607346136
 30
0.0
 11
-32.56629421220509
 21
736.3666073461359
 31
0.0
  0
LINE
  5
19D3
330
2
100
AcDbEntity
  8
Layer3
100
AcDbLine
 10
-32.56629421220509
 20
736.3666073461359
 30
0.0
 11
-30.18729421220507
 21
733.9876073461359
 31
0.0
  0
ARC
  5
19D4
330
2
100
AcDbEntity
  8
Layer3
100
AcDbCircle
 10
-118.566294212205
 20
743.3574764160176
 30
0.0
 40
1.75
100
AcDbArc
 50
0.0
 51
6.150639835311771
  0
ARC
  5
19D5
330
2
100
AcDbEntity
  8
Layer3
100
AcDbCircle
 10
-118.566294212205
 20
743.3574764160176
 30
0.0
 40
1.75
100
AcDbArc
 50
353.8493601646882
 51
0.0
  0
ARC
  5
19D6
330
2
100
AcDbEntity
  8
Layer3
100
AcDbCircle
 10
-28.56629421220509
 20
743.3574764160176
 30
0.0
 40
2.2
100
AcDbArc
 50
172.4910053232534
 51
180.0
  0
ARC
  5
19D7
330
2
100
AcDbEntity
  8
Layer3
100
AcDbCircle
 10
-28.56629421220509
 20
743.3574764160176
 30
0.0
 40
2.2
100
AcDbArc
 50
180.0
 51
187.5089946767466
  0
LINE
  5
19D8
330
2
100
AcDbEntity
  8
Layer3
100
AcDbLine
 10
55.43370578779491
 20
743.3574764160176
 30
0.0
 11
67.4337057877949
 21
743.3574764160176
 31
0.0
  0
LINE
  5
19D9
330
2
100
AcDbEntity
  8
Layer3
100
AcDbLine
 10
-28.56629421220509
 20
738.3574764160175
 30
0.0
 11
-28.56629421220509
 21
748.3574764160176
 31
0.0
  0
LINE
  5
19DA
330
2
100
AcDbEntity
  8
Layer3
100
AcDbLine
 10
-24.56629421220497
 20
736.3666073461359
 30
0.0
 11
-26.94529421220499
 21
733.9876073461359
 31
0.0
  0
LINE
  5
19DB
330
2
100
AcDbEntity
  8
Layer3
100
AcDbLine
 10
-24.56629421220497
 20
736.666607346136
 30
0.0
 11
-24.56629421220497
 21
736.3666073461359
 31
0.0
  0
ARC
  5
19DC
330
2
100
AcDbEntity
  8
Layer3
100
AcDbCircle
 10
-26.38479421220495
 20
745.5389764160174
 30
0.0
 40
1.894
100
AcDbArc
 50
180.0110843976915
 51
269.9889156023068
  0
ARC
  5
19DD
330
2
100
AcDbEntity
  8
Layer3
100
AcDbCircle
 10
-28.56629421220509
 20
743.3574764160176
 30
0.0
 40
2.2
100
AcDbArc
 50
352.4910053232533
 51
0.0
  0
ARC
  5
19DE
330
2
100
AcDbEntity
  8
Layer3
100
AcDbCircle
 10
-28.56629421220509
 20
743.3574764160176
 30
0.0
 40
2.2
100
AcDbArc
 50
0.0
 51
7.508994676746601
  0
ARC
  5
19DF
330
2
100
AcDbEntity
  8
Layer3
100
AcDbCircle
 10
-28.56629421220509
 20
743.3574764160176
 30
0.0
 40
2.2
100
AcDbArc
 50
262.4910053232502
 51
270.0
  0
ARC
  5
19E0
330
2
100
AcDbEntity
  8
Layer3
100
AcDbCircle
 10
-28.56629421220509
 20
743.3574764160176
 30
0.0
 40
2.2
100
AcDbArc
 50
270.0
 51
277.5089946767497
  0
ARC
  5
19E1
330
2
100
AcDbEntity
  8
Layer3
100
AcDbCircle
 10
-26.38479421220495
 20
741.1759764160176
 30
0.0
 40
1.894
100
AcDbArc
 50
90.01108439769318
 51
179.9889156023084
  0
ARC
  5
19E2
330
2
100
AcDbEntity
  8
Layer3
100
AcDbCircle
 10
-28.56629421220509
 20
743.3574764160176
 30
0.0
 40
2.2
100
AcDbArc
 50
90.0
 51
97.50899467674976
  0
ARC
  5
19E3
330
2
100
AcDbEntity
  8
Layer3
100
AcDbCircle
 10
-28.56629421220509
 20
743.3574764160176
 30
0.0
 40
2.2
100
AcDbArc
 50
82.49100532325023
 51
90.0
  0
LINE
  5
19E4
330
2
100
AcDbEntity
  8
Layer3
100
AcDbLine
 10
61.4337057877949
 20
737.3574764160175
 30
0.0
 11
61.4337057877949
 21
749.3574764160176
 31
0.0
  0
CIRCLE
  5
19E5
330
2
100
AcDbEntity
  8
Layer3
100
AcDbCircle
 10
61.4337057877949
 20
743.3574764160176
 30
0.0
 40
5.0
  0
LINE
  5
19E6
330
2
100
AcDbEntity
  8
Layer3
100
AcDbLine
 10
66.4337057877949
 20
735.2004739599833
 30
0.0
 11
63.50070578779491
 21
732.2674739599833
 31
0.0
  0
LINE
  5
19E7
330
2
100
AcDbEntity
  8
Layer3
100
AcDbLine
 10
66.4337057877949
 20
735.2004739599833
 30
0.0
 11
56.4337057877949
 21
735.2004739599833
 31
0.0
  0
LINE
  5
19E8
330
2
100
AcDbEntity
  8
Layer3
100
AcDbLine
 10
66.4337057877949
 20
735.5004739599833
 30
0.0
 11
56.4337057877949
 21
735.5004739599833
 31
0.0
  0
LINE
  5
19E9
330
2
100
AcDbEntity
  8
Layer3
100
AcDbLine
 10
56.4337057877949
 20
735.2004739599833
 30
0.0
 11
59.3667057877949
 21
732.2674739599833
 31
0.0
  0
LINE
  5
19EA
330
2
100
AcDbEntity
  8
Layer3
100
AcDbLine
 10
59.3667057877949
 20
732.2674739599833
 30
0.0
 11
63.50070578779491
 21
732.2674739599833
 31
0.0
  0
LINE
  5
19EB
330
2
100
AcDbEntity
  8
Layer3
100
AcDbLine
 10
63.9337057877949
 20
731.7004739599833
 30
0.0
 11
58.9337057877949
 21
731.7004739599833
 31
0.0
  0
LINE
  5
19EC
330
2
100
AcDbEntity
  8
Layer3
100
AcDbLine
 10
63.9337057877949
 20
732.7004739599833
 30
0.0
 11
58.93370578779479
 21
732.7004739599833
 31
0.0
  0
LINE
  5
19ED
330
2
100
AcDbEntity
  8
Layer3
100
AcDbLine
 10
56.4337057877949
 20
735.5004739599833
 30
0.0
 11
56.4337057877949
 21
735.2004739599833
 31
0.0
  0
LINE
  5
19EE
330
2
100
AcDbEntity
  8
Layer3
100
AcDbLine
 10
66.4337057877949
 20
735.5004739599833
 30
0.0
 11
66.4337057877949
 21
735.2004739599833
 31
0.0
  0
ARC
  5
19EF
330
2
100
AcDbEntity
  8
Layer3
100
AcDbCircle
 10
58.95020578779497
 20
745.8409764160176
 30
0.0
 40
2.195999999999999
100
AcDbArc
 50
270.0022508963336
 51
359.9977491036646
  0
ARC
  5
19F0
330
2
100
AcDbEntity
  8
Layer3
100
AcDbCircle
 10
63.91720578779495
 20
745.8409764160176
 30
0.0
 40
2.195999999999999
100
AcDbArc
 50
180.0022508963353
 51
269.9977491036662
  0
ARC
  5
19F1
330
2
100
AcDbEntity
  8
Layer3
100
AcDbCircle
 10
58.95020578779497
 20
740.8739764160174
 30
0.0
 40
2.195999999999999
100
AcDbArc
 50
0.0022508963353302
 51
89.9977491036663
  0
ARC
  5
19F2
330
2
100
AcDbEntity
  8
Layer3
100
AcDbCircle
 10
61.4337057877949
 20
743.3574764160176
 30
0.0
 40
2.5
100
AcDbArc
 50
173.3963749121678
 51
180.0
  0
ARC
  5
19F3
330
2
100
AcDbEntity
  8
Layer3
100
AcDbCircle
 10
61.4337057877949
 20
743.3574764160176
 30
0.0
 40
2.5
100
AcDbArc
 50
180.0
 51
186.6036250878321
  0
ARC
  5
19F4
330
2
100
AcDbEntity
  8
Layer3
100
AcDbCircle
 10
61.4337057877949
 20
743.3574764160176
 30
0.0
 40
2.5
100
AcDbArc
 50
353.3963749121678
 51
0.0
  0
ARC
  5
19F5
330
2
100
AcDbEntity
  8
Layer3
100
AcDbCircle
 10
61.4337057877949
 20
743.3574764160176
 30
0.0
 40
2.5
100
AcDbArc
 50
0.0
 51
6.603625087832117
  0
ARC
  5
19F6
330
2
100
AcDbEntity
  8
Layer3
100
AcDbCircle
 10
61.4337057877949
 20
743.3574764160176
 30
0.0
 40
2.5
100
AcDbArc
 50
263.396374912171
 51
270.0
  0
ARC
  5
19F7
330
2
100
AcDbEntity
  8
Layer3
100
AcDbCircle
 10
61.4337057877949
 20
743.3574764160176
 30
0.0
 40
2.5
100
AcDbArc
 50
270.0
 51
276.6036250878289
  0
ARC
  5
19F8
330
2
100
AcDbEntity
  8
Layer3
100
AcDbCircle
 10
63.91720578779495
 20
740.8739764160174
 30
0.0
 40
2.195999999999999
100
AcDbArc
 50
90.00225089633371
 51
179.9977491036646
  0
ARC
  5
19F9
330
2
100
AcDbEntity
  8
Layer3
100
AcDbCircle
 10
61.4337057877949
 20
743.3574764160176
 30
0.0
 40
2.5
100
AcDbArc
 50
90.0
 51
96.60362508782895
  0
ARC
  5
19FA
330
2
100
AcDbEntity
  8
Layer3
100
AcDbCircle
 10
61.4337057877949
 20
743.3574764160176
 30
0.0
 40
2.5
100
AcDbArc
 50
83.39637491217105
 51
90.0
  0
LINE
  5
19FC
330
2
100
AcDbEntity
  8
Layer3
100
AcDbLine
 10
154.4337057877949
 20
728.7538256412299
 30
0.0
 11
154.4337057877949
 21
703.6953256412299
 31
0.0
  0
LINE
  5
19FD
330
2
100
AcDbEntity
  8
Layer3
100
AcDbLine
 10
148.4337057877949
 20
728.7538256412299
 30
0.0
 11
148.4337057877949
 21
703.6953256412298
 31
0.0
  0
LINE
  5
19FE
330
2
100
AcDbEntity
  8
Layer3
100
AcDbLine
 10
148.9752057877949
 20
729.2123256412298
 30
0.0
 11
148.9752057877947
 21
703.1538256412298
 31
0.0
  0
LINE
  5
19FF
330
2
100
AcDbEntity
  8
Layer3
100
AcDbLine
 10
153.8922057877949
 20
729.2123256412298
 30
0.0
 11
153.8922057877947
 21
703.1538256412298
 31
0.0
  0
LINE
  5
1A00
330
2
100
AcDbEntity
  8
Layer3
100
AcDbLine
 10
233.4337057877949
 20
729.9919962418791
 30
0.0
 11
238.1102057877948
 21
725.3154962418792
 31
0.0
  0
LINE
  5
1A01
330
2
100
AcDbEntity
  8
Layer3
100
AcDbLine
 10
249.4337057877948
 20
729.9919962418791
 30
0.0
 11
244.7572057877948
 21
725.3154962418793
 31
0.0
  0
LINE
  5
1A02
330
2
100
AcDbEntity
  8
Layer3
100
AcDbLine
 10
148.4337057877947
 20
703.6953256412298
 30
0.0
 11
154.4337057877947
 21
703.6953256412298
 31
0.0
  0
LINE
  5
1A03
330
2
100
AcDbEntity
  8
Layer3
100
AcDbLine
 10
148.9752057877947
 20
703.1538256412297
 30
0.0
 11
153.8922057877947
 21
703.1538256412297
 31
0.0
  0
LINE
  5
1A04
330
2
100
AcDbEntity
  8
Layer3
100
AcDbLine
 10
148.9752057877947
 20
703.1538256412297
 30
0.0
 11
148.4337057877949
 21
703.6953256412298
 31
0.0
  0
LINE
  5
1A05
330
2
100
AcDbEntity
  8
Layer3
100
AcDbLine
 10
153.8922057877947
 20
703.1538256412297
 30
0.0
 11
154.4337057877949
 21
703.6953256412299
 31
0.0
  0
LINE
  5
1A06
330
2
100
AcDbEntity
  8
Layer3
100
AcDbLine
 10
238.1102057877948
 20
725.3154962418792
 30
0.0
 11
238.1102057877946
 21
700.3919962418792
 31
0.0
  0
LINE
  5
1A07
330
2
100
AcDbEntity
  8
Layer3
100
AcDbLine
 10
244.7572057877948
 20
725.3154962418793
 30
0.0
 11
244.7572057877947
 21
700.3919962418792
 31
0.0
  0
LINE
  5
1A08
330
2
100
AcDbEntity
  8
Layer3
100
AcDbLine
 10
237.4337057877949
 20
724.9919962418791
 30
0.0
 11
237.4337057877947
 21
701.0684962418793
 31
0.0
  0
LINE
  5
1A09
330
2
100
AcDbEntity
  8
Layer3
100
AcDbLine
 10
245.4337057877947
 20
724.9919962418791
 30
0.0
 11
245.4337057877947
 21
701.0684962418792
 31
0.0
  0
LINE
  5
1A0A
330
2
100
AcDbEntity
  8
Layer3
100
AcDbLine
 10
237.4337057877947
 20
701.0684962418793
 30
0.0
 11
245.4337057877947
 21
701.0684962418792
 31
0.0
  0
LINE
  5
1A0B
330
2
100
AcDbEntity
  8
Layer3
100
AcDbLine
 10
238.1102057877946
 20
700.3919962418792
 30
0.0
 11
244.7572057877948
 21
700.3919962418792
 31
0.0
  0
LINE
  5
1A0C
330
2
100
AcDbEntity
  8
Layer3
100
AcDbLine
 10
238.1102057877946
 20
700.3919962418792
 30
0.0
 11
237.4337057877947
 21
701.0684962418793
 31
0.0
  0
LINE
  5
1A0D
330
2
100
AcDbEntity
  8
Layer3
100
AcDbLine
 10
244.7572057877947
 20
700.3919962418792
 30
0.0
 11
245.4337057877947
 21
701.0684962418792
 31
0.0
  0
LINE
  5
1A0E
330
2
100
AcDbEntity
  8
Layer3
100
AcDbLine
 10
237.4337057877947
 20
724.9919962418791
 30
0.0
 11
245.4337057877947
 21
724.9919962418791
 31
0.0
  0
LINE
  5
1A0F
330
2
100
AcDbEntity
  8
Layer3
100
AcDbLine
 10
237.433705787795
 20
725.9919962418791
 30
0.0
 11
245.4337057877947
 21
725.9919962418791
 31
0.0
  0
LINE
  5
1A10
330
2
100
AcDbEntity
  8
Layer3
100
AcDbLine
 10
238.1102057877948
 20
725.3154962418792
 30
0.0
 11
244.7572057877948
 21
725.3154962418792
 31
0.0
  0
LINE
  5
1A11
330
2
100
AcDbEntity
  8
Layer3
100
AcDbLine
 10
232.4337057877948
 20
743.3574764160176
 30
0.0
 11
250.4337057877949
 21
743.3574764160176
 31
0.0
  0
CIRCLE
  5
1A12
330
2
100
AcDbEntity
  8
Layer3
100
AcDbCircle
 10
241.4337057877949
 20
743.3574764160176
 30
0.0
 40
8.0
  0
LINE
  5
1A13
330
2
100
AcDbEntity
  8
Layer3
100
AcDbLine
 10
233.4337057877949
 20
729.9919962418791
 30
0.0
 11
249.4337057877948
 21
729.9919962418791
 31
0.0
  0
LINE
  5
1A14
330
2
100
AcDbEntity
  8
Layer3
100
AcDbLine
 10
233.4337057877949
 20
730.3919962418791
 30
0.0
 11
249.4337057877948
 21
730.3919962418793
 31
0.0
  0
LINE
  5
1A16
330
2
100
AcDbEntity
  8
Layer3
100
AcDbLine
 10
144.4337057877949
 20
743.3574764160176
 30
0.0
 11
158.4337057877949
 21
743.3574764160176
 31
0.0
  0
LINE
  5
1A17
330
2
100
AcDbEntity
  8
Layer3
100
AcDbLine
 10
157.4337057877949
 20
732.7538256412298
 30
0.0
 11
153.8922057877949
 21
729.2123256412298
 31
0.0
  0
LINE
  5
1A18
330
2
100
AcDbEntity
  8
Layer3
100
AcDbLine
 10
145.4337057877949
 20
732.7538256412299
 30
0.0
 11
157.4337057877949
 21
732.7538256412298
 31
0.0
  0
LINE
  5
1A19
330
2
100
AcDbEntity
  8
Layer3
100
AcDbLine
 10
145.4337057877949
 20
733.1538256412299
 30
0.0
 11
157.4337057877949
 21
733.1538256412297
 31
0.0
  0
CIRCLE
  5
1A1A
330
2
100
AcDbEntity
  8
Layer3
100
AcDbCircle
 10
151.4337057877949
 20
743.3574764160176
 30
0.0
 40
6.0
  0
LINE
  5
1A1B
330
2
100
AcDbEntity
  8
Layer3
100
AcDbLine
 10
151.4337057877949
 20
750.3574764160175
 30
0.0
 11
151.4337057877949
 21
736.3574764160175
 31
0.0
  0
LINE
  5
1A1C
330
2
100
AcDbEntity
  8
Layer3
100
AcDbLine
 10
145.4337057877949
 20
732.7538256412299
 30
0.0
 11
148.9752057877949
 21
729.2123256412298
 31
0.0
  0
LINE
  5
1A1D
330
2
100
AcDbEntity
  8
Layer3
100
AcDbLine
 10
145.4337057877949
 20
733.1538256412297
 30
0.0
 11
145.4337057877949
 21
732.7538256412299
 31
0.0
  0
LINE
  5
1A1E
330
2
100
AcDbEntity
  8
Layer3
100
AcDbLine
 10
148.4337057877949
 20
729.7538256412299
 30
0.0
 11
154.4337057877949
 21
729.7538256412299
 31
0.0
  0
LINE
  5
1A1F
330
2
100
AcDbEntity
  8
Layer3
100
AcDbLine
 10
148.9752057877949
 20
729.2123256412298
 30
0.0
 11
153.8922057877948
 21
729.2123256412298
 31
0.0
  0
LINE
  5
1A20
330
2
100
AcDbEntity
  8
Layer3
100
AcDbLine
 10
148.4337057877951
 20
728.7538256412298
 30
0.0
 11
154.4337057877949
 21
728.7538256412299
 31
0.0
  0
ARC
  5
1A21
330
2
100
AcDbEntity
  8
Layer3
100
AcDbCircle
 10
148.1627057877949
 20
746.6284764160176
 30
0.0
 40
2.833999999999998
100
AcDbArc
 50
270.0012670708665
 51
359.9987329291317
  0
ARC
  5
1A22
330
2
100
AcDbEntity
  8
Layer3
100
AcDbCircle
 10
154.7047057877949
 20
746.6284764160176
 30
0.0
 40
2.833999999999998
100
AcDbArc
 50
180.0012670708681
 51
269.9987329291301
  0
ARC
  5
1A23
330
2
100
AcDbEntity
  8
Layer3
100
AcDbCircle
 10
151.4337057877949
 20
743.3574764160176
 30
0.0
 40
3.299999999999998
100
AcDbArc
 50
270.0
 51
277.6097025733517
  0
ARC
  5
1A24
330
2
100
AcDbEntity
  8
Layer3
100
AcDbCircle
 10
154.7047057877949
 20
740.0864764160175
 30
0.0
 40
2.833999999999998
100
AcDbArc
 50
90.00126707086982
 51
179.9987329291317
  0
ARC
  5
1A25
330
2
100
AcDbEntity
  8
Layer3
100
AcDbCircle
 10
151.4337057877949
 20
743.3574764160176
 30
0.0
 40
3.299999999999998
100
AcDbArc
 50
172.3902974266465
 51
180.0
  0
ARC
  5
1A26
330
2
100
AcDbEntity
  8
Layer3
100
AcDbCircle
 10
151.4337057877949
 20
743.3574764160176
 30
0.0
 40
3.299999999999998
100
AcDbArc
 50
180.0
 51
187.6097025733534
  0
ARC
  5
1A27
330
2
100
AcDbEntity
  8
Layer3
100
AcDbCircle
 10
151.4337057877949
 20
743.3574764160176
 30
0.0
 40
3.299999999999998
100
AcDbArc
 50
262.3902974266482
 51
270.0
  0
ARC
  5
1A28
330
2
100
AcDbEntity
  8
Layer3
100
AcDbCircle
 10
148.1627057877949
 20
740.0864764160175
 30
0.0
 40
2.833999999999998
100
AcDbArc
 50
0.0012670708682021
 51
89.99873292913017
  0
ARC
  5
1A29
330
2
100
AcDbEntity
  8
Layer3
100
AcDbCircle
 10
151.4337057877949
 20
743.3574764160176
 30
0.0
 40
3.299999999999998
100
AcDbArc
 50
352.3902974266464
 51
0.0
  0
ARC
  5
1A2A
330
2
100
AcDbEntity
  8
Layer3
100
AcDbCircle
 10
151.4337057877949
 20
743.3574764160176
 30
0.0
 40
3.299999999999998
100
AcDbArc
 50
0.0
 51
7.609702573353493
  0
ARC
  5
1A2B
330
2
100
AcDbEntity
  8
Layer3
100
AcDbCircle
 10
151.4337057877949
 20
743.3574764160176
 30
0.0
 40
3.299999999999998
100
AcDbArc
 50
82.39029742664824
 51
90.0
  0
ARC
  5
1A2C
330
2
100
AcDbEntity
  8
Layer3
100
AcDbCircle
 10
151.4337057877949
 20
743.3574764160176
 30
0.0
 40
3.299999999999998
100
AcDbArc
 50
90.0
 51
97.60970257335177
  0
LINE
  5
1A2D
330
2
100
AcDbEntity
  8
Layer3
100
AcDbLine
 10
157.4337057877949
 20
733.1538256412297
 30
0.0
 11
157.4337057877949
 21
732.7538256412299
 31
0.0
  0
LINE
  5
1A2E
330
2
100
AcDbEntity
  8
Layer3
100
AcDbLine
 10
233.4337057877949
 20
730.3919962418793
 30
0.0
 11
233.4337057877949
 21
729.9919962418791
 31
0.0
  0
LINE
  5
1A30
330
2
100
AcDbEntity
  8
Layer3
100
AcDbLine
 10
241.4337057877949
 20
734.3574764160175
 30
0.0
 11
241.4337057877949
 21
752.3574764160176
 31
0.0
  0
ARC
  5
1A31
330
2
100
AcDbEntity
  8
Layer3
100
AcDbCircle
 10
245.5452057877948
 20
739.2459764160174
 30
0.0
 40
3.548999999999998
100
AcDbArc
 50
89.99673807233502
 51
180.0032619276666
  0
ARC
  5
1A32
330
2
100
AcDbEntity
  8
Layer3
100
AcDbCircle
 10
237.3222057877948
 20
739.2459764160174
 30
0.0
 40
3.548999999999998
100
AcDbArc
 50
359.9967380723333
 51
90.00326192766499
  0
ARC
  5
1A33
330
2
100
AcDbEntity
  8
Layer3
100
AcDbCircle
 10
241.4337057877949
 20
743.3574764160176
 30
0.0
 40
4.15
100
AcDbArc
 50
262.2100278847148
 51
270.0
  0
ARC
  5
1A34
330
2
100
AcDbEntity
  8
Layer3
100
AcDbCircle
 10
241.4337057877949
 20
743.3574764160176
 30
0.0
 40
4.15
100
AcDbArc
 50
270.0
 51
277.7899721152851
  0
LINE
  5
1A35
330
2
100
AcDbEntity
  8
Layer3
100
AcDbLine
 10
249.4337057877948
 20
730.3919962418793
 30
0.0
 11
249.4337057877948
 21
729.9919962418791
 31
0.0
  0
ARC
  5
1A36
330
2
100
AcDbEntity
  8
Layer3
100
AcDbCircle
 10
245.5452057877948
 20
747.4689764160175
 30
0.0
 40
3.548999999999998
100
AcDbArc
 50
179.9967380723333
 51
270.0032619276649
  0
ARC
  5
1A37
330
2
100
AcDbEntity
  8
Layer3
100
AcDbCircle
 10
237.3222057877948
 20
747.4689764160175
 30
0.0
 40
3.548999999999998
100
AcDbArc
 50
269.996738072335
 51
0.0032619276666082
  0
ARC
  5
1A38
330
2
100
AcDbEntity
  8
Layer3
100
AcDbCircle
 10
241.4337057877949
 20
743.3574764160176
 30
0.0
 40
4.15
100
AcDbArc
 50
172.2100278847147
 51
180.0
  0
ARC
  5
1A39
330
2
100
AcDbEntity
  8
Layer3
100
AcDbCircle
 10
241.4337057877949
 20
743.3574764160176
 30
0.0
 40
4.15
100
AcDbArc
 50
180.0
 51
187.7899721152852
  0
ARC
  5
1A3A
330
2
100
AcDbEntity
  8
Layer3
100
AcDbCircle
 10
241.4337057877949
 20
743.3574764160176
 30
0.0
 40
4.15
100
AcDbArc
 50
90.0
 51
97.78997211528512
  0
ARC
  5
1A3B
330
2
100
AcDbEntity
  8
Layer3
100
AcDbCircle
 10
241.4337057877949
 20
743.3574764160176
 30
0.0
 40
4.15
100
AcDbArc
 50
82.21002788471487
 51
90.0
  0
ARC
  5
1A3C
330
2
100
AcDbEntity
  8
Layer3
100
AcDbCircle
 10
241.4337057877949
 20
743.3574764160176
 30
0.0
 40
4.15
100
AcDbArc
 50
0.0
 51
7.789972115285234
  0
ARC
  5
1A3D
330
2
100
AcDbEntity
  8
Layer3
100
AcDbCircle
 10
241.4337057877949
 20
743.3574764160176
 30
0.0
 40
4.15
100
AcDbArc
 50
352.2100278847147
 51
0.0
  0
LINE
  5
1B32
330
2
100
AcDbEntity
  8
Layer3
100
AcDbLine
 10
-299.4307942122049
 20
448.1178206821524
 30
0.0
 11
-299.4307942122049
 21
457.1094206821525
 31
0.0
  0
LINE
  5
1B33
330
2
100
AcDbEntity
  8
Layer3
100
AcDbLine
 10
-297.7017942122051
 20
448.1178206821524
 30
0.0
 11
-297.7017942122051
 21
457.1094206821525
 31
0.0
  0
LINE
  5
1B34
330
2
100
AcDbEntity
  8
Layer3
100
AcDbLine
 10
-297.566294212205
 20
456.3094206821525
 30
0.0
 11
-297.566294212205
 21
448.2533206821524
 31
0.0
  0
LINE
  5
1B35
330
2
100
AcDbEntity
  8
Layer3
100
AcDbLine
 10
-299.566294212205
 20
456.3094206821525
 30
0.0
 11
-299.566294212205
 21
448.2533206821525
 31
0.0
  0
LINE
  5
1B36
330
2
100
AcDbEntity
  8
Layer3
100
AcDbLine
 10
-297.7017942122051
 20
448.1178206821524
 30
0.0
 11
-299.4307942122049
 21
448.1178206821524
 31
0.0
  0
LINE
  5
1B37
330
2
100
AcDbEntity
  8
Layer3
100
AcDbLine
 10
-299.566294212205
 20
448.2533206821525
 30
0.0
 11
-297.566294212205
 21
448.2533206821525
 31
0.0
  0
LINE
  5
1B38
330
2
100
AcDbEntity
  8
Layer3
100
AcDbLine
 10
-299.4307942122049
 20
448.1178206821524
 30
0.0
 11
-299.566294212205
 21
448.2533206821525
 31
0.0
  0
LINE
  5
1B39
330
2
100
AcDbEntity
  8
Layer3
100
AcDbLine
 10
-297.7017942122051
 20
448.1178206821524
 30
0.0
 11
-297.566294212205
 21
448.2533206821524
 31
0.0
  0
LINE
  5
1B3A
330
2
100
AcDbEntity
  8
Layer3
100
AcDbLine
 10
-296.6662942122051
 20
458.1178206821524
 30
0.0
 11
-300.4662942122048
 21
458.1178206821524
 31
0.0
  0
LINE
  5
1B3B
330
2
100
AcDbEntity
  8
Layer3
100
AcDbLine
 10
-297.6746942122051
 20
457.1094206821525
 30
0.0
 11
-299.4578942122049
 21
457.1094206821525
 31
0.0
  0
LINE
  5
1B3C
330
2
100
AcDbEntity
  8
Layer3
100
AcDbLine
 10
-297.566294212205
 20
456.3094206821525
 30
0.0
 11
-299.566294212205
 21
456.3094206821525
 31
0.0
  0
ARC
  5
1B3D
330
2
100
AcDbEntity
  8
Layer3
100
AcDbCircle
 10
-298.566294212205
 20
454.8094206821525
 30
0.0
 40
4.0
100
AcDbArc
 50
61.64064997184434
 51
118.3593500281556
  0
LINE
  5
1B3E
330
2
100
AcDbEntity
  8
Layer3
100
AcDbLine
 10
-296.6662942122051
 20
458.3094206821526
 30
0.0
 11
-300.4662942122048
 21
458.3094206821526
 31
0.0
  0
LINE
  5
1B3F
330
2
100
AcDbEntity
  8
Layer3
100
AcDbLine
 10
-299.4578942122049
 20
457.1094206821525
 30
0.0
 11
-300.4662942122048
 21
458.1178206821524
 31
0.0
  0
LINE
  5
1B40
330
2
100
AcDbEntity
  8
Layer3
100
AcDbLine
 10
-299.4578942122049
 20
457.1094206821525
 30
0.0
 11
-299.566294212205
 21
456.3094206821525
 31
0.0
  0
LINE
  5
1B41
330
2
100
AcDbEntity
  8
Layer3
100
AcDbLine
 10
-300.4662942122048
 20
458.3293638635121
 30
0.0
 11
-300.4662942122048
 21
458.1178206821524
 31
0.0
  0
LINE
  5
1B42
330
2
100
AcDbEntity
  8
Layer3
100
AcDbLine
 10
-297.6746942122051
 20
457.1094206821525
 30
0.0
 11
-296.6662942122051
 21
458.1178206821524
 31
0.0
  0
LINE
  5
1B43
330
2
100
AcDbEntity
  8
Layer3
100
AcDbLine
 10
-297.6746942122051
 20
457.1094206821525
 30
0.0
 11
-297.566294212205
 21
456.3094206821525
 31
0.0
  0
LINE
  5
1B44
330
2
100
AcDbEntity
  8
Layer3
100
AcDbLine
 10
-296.6662942122051
 20
458.3293638635121
 30
0.0
 11
-296.6662942122051
 21
458.1178206821524
 31
0.0
  0
LINE
  5
1B45
330
2
100
AcDbEntity
  8
Layer3
100
AcDbLine
 10
-298.566294212205
 20
459.9702581505717
 30
0.0
 11
-298.566294212205
 21
465.7702581505717
 31
0.0
  0
LINE
  5
1B46
330
2
100
AcDbEntity
  8
Layer3
100
AcDbLine
 10
-301.4662942122053
 20
462.8702581505717
 30
0.0
 11
-295.6662942122051
 21
462.8702581505717
 31
0.0
  0
ARC
  5
1B47
330
2
100
AcDbEntity
  8
Layer3
100
AcDbCircle
 10
-299.7146787899379
 20
464.0186427283045
 30
0.0
 40
1.004634577732814
100
AcDbArc
 50
270.0
 51
0.0
  0
ARC
  5
1B48
330
2
100
AcDbEntity
  8
Layer3
100
AcDbCircle
 10
-299.7146787899379
 20
461.7218735728389
 30
0.0
 40
1.004634577732814
100
AcDbArc
 50
0.0
 51
90.0
  0
CIRCLE
  5
1B49
330
2
100
AcDbEntity
  8
Layer3
100
AcDbCircle
 10
-298.566294212205
 20
462.8702581505717
 30
0.0
 40
1.9
  0
LINE
  5
1B4A
330
2
100
AcDbEntity
  8
Layer3
100
AcDbLine
 10
-299.7146787899379
 20
462.7265081505717
 30
0.0
 11
-299.7146787899379
 21
463.0140081505717
 31
0.0
  0
LINE
  5
1B4B
330
2
100
AcDbEntity
  8
Layer3
100
AcDbLine
 10
-297.4179096344723
 20
462.7265081505717
 30
0.0
 11
-297.4179096344723
 21
463.0140081505717
 31
0.0
  0
LINE
  5
1B4C
330
2
100
AcDbEntity
  8
Layer3
100
AcDbLine
 10
-298.7100442122052
 20
461.7218735728389
 30
0.0
 11
-298.4225442122053
 21
461.7218735728389
 31
0.0
  0
LINE
  5
1B4D
330
2
100
AcDbEntity
  8
Layer3
100
AcDbLine
 10
-298.7100442122052
 20
464.0186427283045
 30
0.0
 11
-298.4225442122053
 21
464.0186427283045
 31
0.0
  0
ARC
  5
1B4E
330
2
100
AcDbEntity
  8
Layer3
100
AcDbCircle
 10
-297.4179096344723
 20
461.7218735728389
 30
0.0
 40
1.004634577732814
100
AcDbArc
 50
90.0
 51
180.0
  0
ARC
  5
1B4F
330
2
100
AcDbEntity
  8
Layer3
100
AcDbCircle
 10
-297.4179096344723
 20
464.0186427283045
 30
0.0
 40
1.004634577732814
100
AcDbArc
 50
180.0
 51
270.0
  0
ARC
  5
1B50
330
2
100
AcDbEntity
  8
Layer3
100
AcDbCircle
 10
241.433705787795
 20
430.6238488039281
 30
0.0
 40
18.67777777777789
100
AcDbArc
 50
64.63923301636135
 51
115.3607669836386
  0
LINE
  5
1B51
330
2
100
AcDbEntity
  8
Layer3
100
AcDbLine
 10
-30.18729421220496
 20
452.286941214789
 30
0.0
 11
-30.18729421220496
 21
429.665941214789
 31
0.0
  0
LINE
  5
1B52
330
2
100
AcDbEntity
  8
Layer3
100
AcDbLine
 10
-30.56629421220498
 20
451.6659412147892
 30
0.0
 11
-30.56629421220486
 21
430.0449412147891
 31
0.0
  0
LINE
  5
1B53
330
2
100
AcDbEntity
  8
Layer3
100
AcDbLine
 10
-26.94529421220499
 20
452.286941214789
 30
0.0
 11
-26.94529421220499
 21
429.665941214789
 31
0.0
  0
LINE
  5
1B54
330
2
100
AcDbEntity
  8
Layer3
100
AcDbLine
 10
-26.56629421220509
 20
451.6659412147892
 30
0.0
 11
-26.56629421220509
 21
430.0449412147891
 31
0.0
  0
LINE
  5
1B55
330
2
100
AcDbEntity
  8
Layer3
100
AcDbLine
 10
59.3667057877949
 20
449.494254938593
 30
0.0
 11
59.3667057877949
 21
427.427254938593
 31
0.0
  0
LINE
  5
1B56
330
2
100
AcDbEntity
  8
Layer3
100
AcDbLine
 10
63.50070578779491
 20
449.494254938593
 30
0.0
 11
63.50070578779491
 21
427.427254938593
 31
0.0
  0
LINE
  5
1B57
330
2
100
AcDbEntity
  8
Layer3
100
AcDbLine
 10
58.9337057877949
 20
448.927254938593
 30
0.0
 11
58.9337057877949
 21
427.8602549385929
 31
0.0
  0
LINE
  5
1B58
330
2
100
AcDbEntity
  8
Layer3
100
AcDbLine
 10
63.9337057877949
 20
448.927254938593
 30
0.0
 11
63.9337057877949
 21
427.8602549385928
 31
0.0
  0
LINE
  5
1B59
330
2
100
AcDbEntity
  8
Layer3
100
AcDbLine
 10
157.4337057877949
 20
450.6962769564445
 30
0.0
 11
153.892205787795
 21
447.1547769564445
 31
0.0
  0
LINE
  5
1B5A
330
2
100
AcDbEntity
  8
Layer3
100
AcDbLine
 10
145.4337057877949
 20
450.6962769564445
 30
0.0
 11
148.9752057877949
 21
447.1547769564444
 31
0.0
  0
LINE
  5
1B5B
330
2
100
AcDbEntity
  8
Layer3
100
AcDbLine
 10
-119.7957942122049
 20
454.4127596508286
 30
0.0
 11
-119.7957942122049
 21
436.1832596508288
 31
0.0
  0
LINE
  5
1B5C
330
2
100
AcDbEntity
  8
Layer3
100
AcDbLine
 10
-117.336794212205
 20
454.4127596508287
 30
0.0
 11
-117.336794212205
 21
436.1832596508288
 31
0.0
  0
LINE
  5
1B5D
330
2
100
AcDbEntity
  8
Layer3
100
AcDbLine
 10
-120.066294212205
 20
453.6832596508287
 30
0.0
 11
-120.066294212205
 21
436.4537596508287
 31
0.0
  0
LINE
  5
1B5E
330
2
100
AcDbEntity
  8
Layer3
100
AcDbLine
 10
-117.066294212205
 20
453.6832596508287
 30
0.0
 11
-117.066294212205
 21
436.4537596508287
 31
0.0
  0
LINE
  5
1B5F
330
2
100
AcDbEntity
  8
Layer3
100
AcDbLine
 10
58.9337057877949
 20
427.8602549385929
 30
0.0
 11
63.9337057877949
 21
427.8602549385929
 31
0.0
  0
LINE
  5
1B60
330
2
100
AcDbEntity
  8
Layer3
100
AcDbLine
 10
63.50070578779491
 20
427.427254938593
 30
0.0
 11
59.3667057877949
 21
427.427254938593
 31
0.0
  0
LINE
  5
1B61
330
2
100
AcDbEntity
  8
Layer3
100
AcDbLine
 10
-120.066294212205
 20
436.4537596508288
 30
0.0
 11
-117.066294212205
 21
436.4537596508288
 31
0.0
  0
LINE
  5
1B62
330
2
100
AcDbEntity
  8
Layer3
100
AcDbLine
 10
-119.7957942122049
 20
436.1832596508287
 30
0.0
 11
-117.336794212205
 21
436.1832596508287
 31
0.0
  0
LINE
  5
1B63
330
2
100
AcDbEntity
  8
Layer3
100
AcDbLine
 10
-119.7957942122049
 20
436.1832596508287
 30
0.0
 11
-120.066294212205
 21
436.4537596508287
 31
0.0
  0
LINE
  5
1B64
330
2
100
AcDbEntity
  8
Layer3
100
AcDbLine
 10
-117.336794212205
 20
436.1832596508288
 30
0.0
 11
-117.066294212205
 21
436.4537596508287
 31
0.0
  0
LINE
  5
1B65
330
2
100
AcDbEntity
  8
Layer3
100
AcDbLine
 10
-26.94529421220499
 20
429.665941214789
 30
0.0
 11
-26.56629421220509
 21
430.0449412147891
 31
0.0
  0
LINE
  5
1B66
330
2
100
AcDbEntity
  8
Layer3
100
AcDbLine
 10
-30.18729421220496
 20
429.665941214789
 30
0.0
 11
-30.56629421220486
 21
430.0449412147891
 31
0.0
  0
LINE
  5
1B67
330
2
100
AcDbEntity
  8
Layer3
100
AcDbLine
 10
-30.56629421220486
 20
430.0449412147891
 30
0.0
 11
-26.56629421220509
 21
430.0449412147891
 31
0.0
  0
LINE
  5
1B68
330
2
100
AcDbEntity
  8
Layer3
100
AcDbLine
 10
-30.18729421220496
 20
429.665941214789
 30
0.0
 11
-26.94529421220488
 21
429.665941214789
 31
0.0
  0
LINE
  5
1B69
330
2
100
AcDbEntity
  8
Layer3
100
AcDbLine
 10
59.3667057877949
 20
427.427254938593
 30
0.0
 11
58.93370578779514
 21
427.8602549385928
 31
0.0
  0
LINE
  5
1B6A
330
2
100
AcDbEntity
  8
Layer3
100
AcDbLine
 10
63.50070578779491
 20
427.427254938593
 30
0.0
 11
63.9337057877949
 21
427.8602549385928
 31
0.0
  0
LINE
  5
1B6B
330
2
100
AcDbEntity
  8
Layer3
100
AcDbLine
 10
148.4337057877951
 20
446.6962769564445
 30
0.0
 11
148.4337057877951
 21
421.2377769564445
 31
0.0
  0
LINE
  5
1B6C
330
2
100
AcDbEntity
  8
Layer3
100
AcDbLine
 10
148.975205787795
 20
447.1547769564444
 30
0.0
 11
148.975205787795
 21
420.6962769564445
 31
0.0
  0
LINE
  5
1B6D
330
2
100
AcDbEntity
  8
Layer3
100
AcDbLine
 10
153.892205787795
 20
447.1547769564445
 30
0.0
 11
153.892205787795
 21
420.6962769564445
 31
0.0
  0
LINE
  5
1B6E
330
2
100
AcDbEntity
  8
Layer3
100
AcDbLine
 10
154.4337057877951
 20
446.6962769564445
 30
0.0
 11
154.4337057877951
 21
421.2377769564445
 31
0.0
  0
LINE
  5
1B6F
330
2
100
AcDbEntity
  8
Layer3
100
AcDbLine
 10
148.4337057877951
 20
421.2377769564445
 30
0.0
 11
154.4337057877951
 21
421.2377769564445
 31
0.0
  0
LINE
  5
1B70
330
2
100
AcDbEntity
  8
Layer3
100
AcDbLine
 10
148.9752057877951
 20
420.6962769564445
 30
0.0
 11
153.892205787795
 21
420.6962769564445
 31
0.0
  0
LINE
  5
1B71
330
2
100
AcDbEntity
  8
Layer3
100
AcDbLine
 10
148.975205787795
 20
420.6962769564445
 30
0.0
 11
148.4337057877951
 21
421.2377769564445
 31
0.0
  0
LINE
  5
1B72
330
2
100
AcDbEntity
  8
Layer3
100
AcDbLine
 10
153.892205787795
 20
420.6962769564445
 30
0.0
 11
154.4337057877951
 21
421.2377769564445
 31
0.0
  0
LINE
  5
1B73
330
2
100
AcDbEntity
  8
Layer3
100
AcDbLine
 10
148.4337057877951
 20
446.6962769564445
 30
0.0
 11
154.4337057877951
 21
446.6962769564445
 31
0.0
  0
LINE
  5
1B74
330
2
100
AcDbEntity
  8
Layer3
100
AcDbLine
 10
148.4337057877951
 20
447.6962769564445
 30
0.0
 11
154.4337057877951
 21
447.6962769564445
 31
0.0
  0
LINE
  5
1B75
330
2
100
AcDbEntity
  8
Layer3
100
AcDbLine
 10
148.975205787795
 20
447.1547769564445
 30
0.0
 11
153.8922057877948
 21
447.1547769564445
 31
0.0
  0
LINE
  5
1B76
330
2
100
AcDbEntity
  8
Layer3
100
AcDbLine
 10
249.4337057877949
 20
447.101626581706
 30
0.0
 11
244.757205787795
 21
442.425126581706
 31
0.0
  0
LINE
  5
1B77
330
2
100
AcDbEntity
  8
Layer3
100
AcDbLine
 10
233.4337057877949
 20
447.101626581706
 30
0.0
 11
249.433705787795
 21
447.101626581706
 31
0.0
  0
LINE
  5
1B78
330
2
100
AcDbEntity
  8
Layer3
100
AcDbLine
 10
233.4337057877949
 20
447.501626581706
 30
0.0
 11
249.433705787795
 21
447.501626581706
 31
0.0
  0
LINE
  5
1B79
330
2
100
AcDbEntity
  8
Layer3
100
AcDbLine
 10
237.4337057877949
 20
417.778126581706
 30
0.0
 11
245.4337057877949
 21
417.7781265817058
 31
0.0
  0
LINE
  5
1B7A
330
2
100
AcDbEntity
  8
Layer3
100
AcDbLine
 10
238.1102057877949
 20
417.1016265817059
 30
0.0
 11
244.757205787795
 21
417.1016265817059
 31
0.0
  0
LINE
  5
1B7B
330
2
100
AcDbEntity
  8
Layer3
100
AcDbLine
 10
237.4337057877949
 20
442.1016265817059
 30
0.0
 11
245.4337057877949
 21
442.1016265817059
 31
0.0
  0
LINE
  5
1B7C
330
2
100
AcDbEntity
  8
Layer3
100
AcDbLine
 10
237.4337057877951
 20
443.1016265817061
 30
0.0
 11
245.4337057877949
 21
443.101626581706
 31
0.0
  0
LINE
  5
1B7D
330
2
100
AcDbEntity
  8
Layer3
100
AcDbLine
 10
238.1102057877949
 20
442.425126581706
 30
0.0
 11
244.757205787795
 21
442.425126581706
 31
0.0
  0
LINE
  5
1B7E
330
2
100
AcDbEntity
  8
Layer3
100
AcDbLine
 10
238.1102057877949
 20
442.425126581706
 30
0.0
 11
238.1102057877949
 21
417.1016265817059
 31
0.0
  0
LINE
  5
1B7F
330
2
100
AcDbEntity
  8
Layer3
100
AcDbLine
 10
237.4337057877949
 20
442.1016265817059
 30
0.0
 11
237.4337057877949
 21
417.778126581706
 31
0.0
  0
LINE
  5
1B80
330
2
100
AcDbEntity
  8
Layer3
100
AcDbLine
 10
238.1102057877949
 20
417.1016265817059
 30
0.0
 11
237.4337057877949
 21
417.778126581706
 31
0.0
  0
LINE
  5
1B81
330
2
100
AcDbEntity
  8
Layer3
100
AcDbLine
 10
233.4337057877949
 20
447.101626581706
 30
0.0
 11
238.1102057877949
 21
442.425126581706
 31
0.0
  0
LINE
  5
1B82
330
2
100
AcDbEntity
  8
Layer3
100
AcDbLine
 10
233.4337057877949
 20
447.501626581706
 30
0.0
 11
233.4337057877949
 21
447.101626581706
 31
0.0
  0
LINE
  5
1B83
330
2
100
AcDbEntity
  8
Layer3
100
AcDbLine
 10
244.757205787795
 20
442.425126581706
 30
0.0
 11
244.757205787795
 21
417.1016265817059
 31
0.0
  0
LINE
  5
1B84
330
2
100
AcDbEntity
  8
Layer3
100
AcDbLine
 10
245.4337057877949
 20
442.1016265817059
 30
0.0
 11
245.4337057877949
 21
417.7781265817058
 31
0.0
  0
LINE
  5
1B85
330
2
100
AcDbEntity
  8
Layer3
100
AcDbLine
 10
244.757205787795
 20
417.1016265817059
 30
0.0
 11
245.4337057877949
 21
417.7781265817058
 31
0.0
  0
LINE
  5
1B86
330
2
100
AcDbEntity
  8
Layer3
100
AcDbLine
 10
249.433705787795
 20
447.501626581706
 30
0.0
 11
249.4337057877949
 21
447.101626581706
 31
0.0
  0
LINE
  5
1B87
330
2
100
AcDbEntity
  8
Layer3
100
AcDbLine
 10
55.43370578779491
 20
462.8702581505717
 30
0.0
 11
67.4337057877949
 21
462.8702581505717
 31
0.0
  0
ARC
  5
1B88
330
2
100
AcDbEntity
  8
Layer3
100
AcDbCircle
 10
58.84920578610035
 20
460.2857581488771
 30
0.0
 40
2.296999999999999
100
AcDbArc
 50
0.0110832059815696
 51
89.98891679401843
  0
ARC
  5
1B89
330
2
100
AcDbEntity
  8
Layer3
100
AcDbCircle
 10
58.84920578610035
 20
465.4547581522662
 30
0.0
 40
2.296999999999999
100
AcDbArc
 50
270.0110832059783
 51
359.9889167940184
  0
LINE
  5
1B8A
330
2
100
AcDbEntity
  8
Layer3
100
AcDbLine
 10
59.3667057877949
 20
449.494254938593
 30
0.0
 11
63.50070578779491
 21
449.494254938593
 31
0.0
  0
LINE
  5
1B8B
330
2
100
AcDbEntity
  8
Layer3
100
AcDbLine
 10
63.9337057877949
 20
448.927254938593
 30
0.0
 11
58.9337057877949
 21
448.927254938593
 31
0.0
  0
LINE
  5
1B8C
330
2
100
AcDbEntity
  8
Layer3
100
AcDbLine
 10
63.9337057877949
 20
449.927254938593
 30
0.0
 11
58.9337057877949
 21
449.927254938593
 31
0.0
  0
CIRCLE
  5
1B8D
330
2
100
AcDbEntity
  8
Layer3
100
AcDbCircle
 10
61.4337057877949
 20
462.8702581505717
 30
0.0
 40
5.0
  0
ARC
  5
1B8E
330
2
100
AcDbEntity
  8
Layer3
100
AcDbCircle
 10
61.4337057877949
 20
442.9105882719262
 30
0.0
 40
11.01666666666682
100
AcDbArc
 50
63.00853343840921
 51
116.9914665615907
  0
LINE
  5
1B8F
330
2
100
AcDbEntity
  8
Layer3
100
AcDbLine
 10
66.4337057877949
 20
452.427254938593
 30
0.0
 11
56.4337057877949
 21
452.427254938593
 31
0.0
  0
LINE
  5
1B90
330
2
100
AcDbEntity
  8
Layer3
100
AcDbLine
 10
66.4337057877949
 20
452.7272549385931
 30
0.0
 11
56.4337057877949
 21
452.7272549385931
 31
0.0
  0
LINE
  5
1B94
330
2
100
AcDbEntity
  8
Layer3
100
AcDbLine
 10
-208.566294212205
 20
459.3702581505717
 30
0.0
 11
-208.566294212205
 21
466.3702581505718
 31
0.0
  0
LINE
  5
1B95
330
2
100
AcDbEntity
  8
Layer3
100
AcDbLine
 10
-211.066294212205
 20
458.1126994854773
 30
0.0
 11
-209.5727942122049
 21
456.6191994854772
 31
0.0
  0
ARC
  5
1B96
330
2
100
AcDbEntity
  8
Layer3
100
AcDbCircle
 10
-208.566294212205
 20
452.9058813036591
 30
0.0
 40
5.956818181818094
100
AcDbArc
 50
65.18516294519725
 51
114.8148370547994
  0
LINE
  5
1B97
330
2
100
AcDbEntity
  8
Layer3
100
AcDbLine
 10
-211.066294212205
 20
458.3126994854771
 30
0.0
 11
-206.066294212205
 21
458.3126994854771
 31
0.0
  0
LINE
  5
1B98
330
2
100
AcDbEntity
  8
Layer3
100
AcDbLine
 10
-211.066294212205
 20
458.1126994854773
 30
0.0
 11
-206.066294212205
 21
458.1126994854773
 31
0.0
  0
LINE
  5
1B99
330
2
100
AcDbEntity
  8
Layer3
100
AcDbLine
 10
-211.066294212205
 20
458.3126994854771
 30
0.0
 11
-211.066294212205
 21
458.1126994854773
 31
0.0
  0
LINE
  5
1B9A
330
2
100
AcDbEntity
  8
Layer3
100
AcDbLine
 10
-209.5727942122049
 20
456.6191994854772
 30
0.0
 11
-209.5727942122049
 21
443.1126994854772
 31
0.0
  0
LINE
  5
1B9B
330
2
100
AcDbEntity
  8
Layer3
100
AcDbLine
 10
-209.8162942122049
 20
455.8626994854773
 30
0.0
 11
-209.8162942122049
 21
443.3561994854772
 31
0.0
  0
LINE
  5
1B9C
330
2
100
AcDbEntity
  8
Layer3
100
AcDbLine
 10
-207.559794212205
 20
456.6191994854772
 30
0.0
 11
-207.559794212205
 21
443.1126994854772
 31
0.0
  0
LINE
  5
1B9D
330
2
100
AcDbEntity
  8
Layer3
100
AcDbLine
 10
-207.316294212205
 20
455.8626994854773
 30
0.0
 11
-207.316294212205
 21
443.3561994854772
 31
0.0
  0
LINE
  5
1B9E
330
2
100
AcDbEntity
  8
Layer3
100
AcDbLine
 10
-207.559794212205
 20
443.1126994854772
 30
0.0
 11
-207.316294212205
 21
443.3561994854772
 31
0.0
  0
LINE
  5
1B9F
330
2
100
AcDbEntity
  8
Layer3
100
AcDbLine
 10
-209.5727942122049
 20
443.1126994854772
 30
0.0
 11
-209.8162942122049
 21
443.3561994854772
 31
0.0
  0
LINE
  5
1BA0
330
2
100
AcDbEntity
  8
Layer3
100
AcDbLine
 10
-209.8162942122049
 20
443.3561994854771
 30
0.0
 11
-207.316294212205
 21
443.3561994854772
 31
0.0
  0
LINE
  5
1BA1
330
2
100
AcDbEntity
  8
Layer3
100
AcDbLine
 10
-209.5727942122048
 20
443.1126994854771
 30
0.0
 11
-207.559794212205
 21
443.1126994854772
 31
0.0
  0
LINE
  5
1BA2
330
2
100
AcDbEntity
  8
Layer3
100
AcDbLine
 10
-206.066294212205
 20
458.1126994854773
 30
0.0
 11
-207.559794212205
 21
456.6191994854772
 31
0.0
  0
LINE
  5
1BA3
330
2
100
AcDbEntity
  8
Layer3
100
AcDbLine
 10
-209.5727942122049
 20
456.6191994854772
 30
0.0
 11
-207.559794212205
 21
456.6191994854772
 31
0.0
  0
LINE
  5
1BA4
330
2
100
AcDbEntity
  8
Layer3
100
AcDbLine
 10
-209.8162942122049
 20
455.8626994854773
 30
0.0
 11
-207.3162942122049
 21
455.8626994854773
 31
0.0
  0
LINE
  5
1BA5
330
2
100
AcDbEntity
  8
Layer3
100
AcDbLine
 10
-209.816294212205
 20
456.8626994854772
 30
0.0
 11
-207.316294212205
 21
456.8626994854772
 31
0.0
  0
LINE
  5
1BA6
330
2
100
AcDbEntity
  8
Layer3
100
AcDbLine
 10
-206.066294212205
 20
458.3126994854771
 30
0.0
 11
-206.066294212205
 21
458.1126994854773
 31
0.0
  0
LINE
  5
1BA7
330
2
100
AcDbEntity
  8
Layer3
100
AcDbLine
 10
-212.066294212205
 20
462.8702581505717
 30
0.0
 11
-205.066294212205
 21
462.8702581505717
 31
0.0
  0
CIRCLE
  5
1BA8
330
2
100
AcDbEntity
  8
Layer3
100
AcDbCircle
 10
-208.566294212205
 20
462.8702581505717
 30
0.0
 40
2.5
  0
ARC
  5
1BA9
330
2
100
AcDbEntity
  8
Layer3
100
AcDbCircle
 10
-208.566294212205
 20
462.8702581505717
 30
0.0
 40
1.45
100
AcDbArc
 50
352.57025669376
 51
0.0
  0
ARC
  5
1BAA
330
2
100
AcDbEntity
  8
Layer3
100
AcDbCircle
 10
-208.566294212205
 20
462.8702581505717
 30
0.0
 40
1.45
100
AcDbArc
 50
0.0
 51
7.429743306239974
  0
ARC
  5
1BAB
330
2
100
AcDbEntity
  8
Layer3
100
AcDbCircle
 10
-210.003794212205
 20
464.3077581505959
 30
0.0
 40
1.25
100
AcDbArc
 50
269.9850552239473
 51
0.0149447750821012
  0
ARC
  5
1BAC
330
2
100
AcDbEntity
  8
Layer3
100
AcDbCircle
 10
-208.566294212205
 20
462.8702581505717
 30
0.0
 40
1.45
100
AcDbArc
 50
172.57025669376
 51
180.0
  0
ARC
  5
1BAD
330
2
100
AcDbEntity
  8
Layer3
100
AcDbCircle
 10
-208.566294212205
 20
462.8702581505717
 30
0.0
 40
1.45
100
AcDbArc
 50
180.0
 51
187.4297433062399
  0
ARC
  5
1BAE
330
2
100
AcDbEntity
  8
Layer3
100
AcDbCircle
 10
-208.566294212205
 20
462.8702581505717
 30
0.0
 40
1.45
100
AcDbArc
 50
262.5702566947288
 51
270.0
  0
ARC
  5
1BAF
330
2
100
AcDbEntity
  8
Layer3
100
AcDbCircle
 10
-210.003794212205
 20
461.4327581505474
 30
0.0
 40
1.25
100
AcDbArc
 50
359.9850552249179
 51
90.01494477604937
  0
ARC
  5
1BB0
330
2
100
AcDbEntity
  8
Layer3
100
AcDbCircle
 10
-208.566294212205
 20
462.8702581505717
 30
0.0
 40
1.45
100
AcDbArc
 50
270.0
 51
277.4297433052711
  0
ARC
  5
1BB1
330
2
100
AcDbEntity
  8
Layer3
100
AcDbCircle
 10
-208.566294212205
 20
462.8702581505717
 30
0.0
 40
1.45
100
AcDbArc
 50
90.0
 51
97.42974330527113
  0
ARC
  5
1BB2
330
2
100
AcDbEntity
  8
Layer3
100
AcDbCircle
 10
-208.566294212205
 20
462.8702581505717
 30
0.0
 40
1.45
100
AcDbArc
 50
82.57025669472886
 51
90.0
  0
ARC
  5
1BB3
330
2
100
AcDbEntity
  8
Layer3
100
AcDbCircle
 10
-207.128794212205
 20
464.3077581505959
 30
0.0
 40
1.25
100
AcDbArc
 50
179.9850552249179
 51
270.0149447760494
  0
ARC
  5
1BB4
330
2
100
AcDbEntity
  8
Layer3
100
AcDbCircle
 10
-207.128794212205
 20
461.4327581505474
 30
0.0
 40
1.25
100
AcDbArc
 50
89.98505522394735
 51
180.014944775082
  0
LINE
  5
1BB5
330
2
100
AcDbEntity
  8
Layer3
100
AcDbLine
 10
-118.566294212205
 20
458.8702581505717
 30
0.0
 11
-118.566294212205
 21
466.8702581505717
 31
0.0
  0
LINE
  5
1BB6
330
2
100
AcDbEntity
  8
Layer3
100
AcDbLine
 10
-120.066294212205
 20
453.6832596508287
 30
0.0
 11
-117.066294212205
 21
453.6832596508287
 31
0.0
  0
ARC
  5
1BB7
330
2
100
AcDbEntity
  8
Layer3
100
AcDbCircle
 10
-118.566294212205
 20
450.3546882222571
 30
0.0
 40
6.778571428571625
100
AcDbArc
 50
63.7319553872085
 51
116.2680446127915
  0
LINE
  5
1BB8
330
2
100
AcDbEntity
  8
Layer3
100
AcDbLine
 10
-119.7957942122049
 20
454.4127596508286
 30
0.0
 11
-117.3367942122051
 21
454.4127596508286
 31
0.0
  0
LINE
  5
1BB9
330
2
100
AcDbEntity
  8
Layer3
100
AcDbLine
 10
-121.566294212205
 20
456.1832596508287
 30
0.0
 11
-115.566294212205
 21
456.1832596508287
 31
0.0
  0
LINE
  5
1BBA
330
2
100
AcDbEntity
  8
Layer3
100
AcDbLine
 10
-120.066294212205
 20
454.6832596508288
 30
0.0
 11
-117.066294212205
 21
454.6832596508287
 31
0.0
  0
LINE
  5
1BBB
330
2
100
AcDbEntity
  8
Layer3
100
AcDbLine
 10
-121.566294212205
 20
456.4332596508288
 30
0.0
 11
-115.566294212205
 21
456.4332596508288
 31
0.0
  0
LINE
  5
1BBC
330
2
100
AcDbEntity
  8
Layer3
100
AcDbLine
 10
-121.566294212205
 20
456.4332596508288
 30
0.0
 11
-121.566294212205
 21
456.1832596508288
 31
0.0
  0
LINE
  5
1BBD
330
2
100
AcDbEntity
  8
Layer3
100
AcDbLine
 10
-121.566294212205
 20
456.1832596508287
 30
0.0
 11
-119.7957942122049
 21
454.4127596508286
 31
0.0
  0
LINE
  5
1BBE
330
2
100
AcDbEntity
  8
Layer3
100
AcDbLine
 10
-115.566294212205
 20
456.4332596508288
 30
0.0
 11
-115.566294212205
 21
456.1832596508288
 31
0.0
  0
LINE
  5
1BBF
330
2
100
AcDbEntity
  8
Layer3
100
AcDbLine
 10
-115.566294212205
 20
456.1832596508287
 30
0.0
 11
-117.336794212205
 21
454.4127596508287
 31
0.0
  0
LINE
  5
1BC0
330
2
100
AcDbEntity
  8
Layer3
100
AcDbLine
 10
-122.566294212205
 20
462.8702581505717
 30
0.0
 11
-114.566294212205
 21
462.8702581505717
 31
0.0
  0
CIRCLE
  5
1BC1
330
2
100
AcDbEntity
  8
Layer3
100
AcDbCircle
 10
-118.566294212205
 20
462.8702581505717
 30
0.0
 40
3.0
  0
ARC
  5
1BC2
330
2
100
AcDbEntity
  8
Layer3
100
AcDbCircle
 10
-116.725794212205
 20
461.0297581505717
 30
0.0
 40
1.653
100
AcDbArc
 50
90.00090868784585
 51
179.9990913121558
  0
ARC
  5
1BC3
330
2
100
AcDbEntity
  8
Layer3
100
AcDbCircle
 10
-116.725794212205
 20
464.7107581505716
 30
0.0
 40
1.653
100
AcDbArc
 50
180.0009086878441
 51
269.9990913121541
  0
ARC
  5
1BC4
330
2
100
AcDbEntity
  8
Layer3
100
AcDbCircle
 10
-118.566294212205
 20
462.8702581505717
 30
0.0
 40
1.85
100
AcDbArc
 50
264.1830073899747
 51
270.0
  0
ARC
  5
1BC5
330
2
100
AcDbEntity
  8
Layer3
100
AcDbCircle
 10
-118.566294212205
 20
462.8702581505717
 30
0.0
 40
1.85
100
AcDbArc
 50
270.0
 51
275.8169926100252
  0
ARC
  5
1BC6
330
2
100
AcDbEntity
  8
Layer3
100
AcDbCircle
 10
-118.566294212205
 20
462.8702581505717
 30
0.0
 40
1.85
100
AcDbArc
 50
90.0
 51
95.81699261002523
  0
ARC
  5
1BC7
330
2
100
AcDbEntity
  8
Layer3
100
AcDbCircle
 10
-118.566294212205
 20
462.8702581505717
 30
0.0
 40
1.85
100
AcDbArc
 50
84.18300738997476
 51
90.0
  0
ARC
  5
1BC8
330
2
100
AcDbEntity
  8
Layer3
100
AcDbCircle
 10
-118.566294212205
 20
462.8702581505717
 30
0.0
 40
1.85
100
AcDbArc
 50
180.0
 51
185.8169926100235
  0
ARC
  5
1BC9
330
2
100
AcDbEntity
  8
Layer3
100
AcDbCircle
 10
-118.566294212205
 20
462.8702581505717
 30
0.0
 40
1.85
100
AcDbArc
 50
174.1830073899764
 51
180.0
  0
ARC
  5
1BCA
330
2
100
AcDbEntity
  8
Layer3
100
AcDbCircle
 10
-120.406794212205
 20
461.0297581505717
 30
0.0
 40
1.653
100
AcDbArc
 50
0.0009086878442255
 51
89.99909131215416
  0
ARC
  5
1BCB
330
2
100
AcDbEntity
  8
Layer3
100
AcDbCircle
 10
-120.406794212205
 20
464.7107581505716
 30
0.0
 40
1.653
100
AcDbArc
 50
270.0009086878458
 51
359.9990913121557
  0
ARC
  5
1BCC
330
2
100
AcDbEntity
  8
Layer3
100
AcDbCircle
 10
-118.566294212205
 20
462.8702581505717
 30
0.0
 40
1.85
100
AcDbArc
 50
0.0
 51
5.816992610023529
  0
ARC
  5
1BCD
330
2
100
AcDbEntity
  8
Layer3
100
AcDbCircle
 10
-118.566294212205
 20
462.8702581505717
 30
0.0
 40
1.85
100
AcDbArc
 50
354.1830073899764
 51
0.0
  0
LINE
  5
1BCF
330
2
100
AcDbEntity
  8
Layer3
100
AcDbLine
 10
-33.56629421220498
 20
462.8702581505717
 30
0.0
 11
-23.56629421220509
 21
462.8702581505717
 31
0.0
  0
ARC
  5
1BD0
330
2
100
AcDbEntity
  8
Layer3
100
AcDbCircle
 10
-26.28479417676203
 20
460.5887581151288
 30
0.0
 40
1.993999999999999
100
AcDbArc
 50
89.98676912323295
 51
180.013230876767
  0
ARC
  5
1BD1
330
2
100
AcDbEntity
  8
Layer3
100
AcDbCircle
 10
-26.28479417676203
 20
465.1517581860145
 30
0.0
 40
1.993999999999999
100
AcDbArc
 50
179.9867691232329
 51
270.013230876767
  0
ARC
  5
1BD2
330
2
100
AcDbEntity
  8
Layer3
100
AcDbCircle
 10
-28.56629421220509
 20
446.5270523259004
 30
0.0
 40
9.338888888888869
100
AcDbArc
 50
64.63923301636135
 51
115.3607669836386
  0
LINE
  5
1BD3
330
2
100
AcDbEntity
  8
Layer3
100
AcDbLine
 10
-32.56629421220498
 20
454.665941214789
 30
0.0
 11
-24.56629421220509
 21
454.665941214789
 31
0.0
  0
LINE
  5
1BD4
330
2
100
AcDbEntity
  8
Layer3
100
AcDbLine
 10
-32.56629421220498
 20
454.9659412147891
 30
0.0
 11
-24.56629421220509
 21
454.9659412147891
 31
0.0
  0
LINE
  5
1BD5
330
2
100
AcDbEntity
  8
Layer3
100
AcDbLine
 10
-24.56629421220509
 20
454.665941214789
 30
0.0
 11
-26.94529421220499
 21
452.2869412147891
 31
0.0
  0
CIRCLE
  5
1BD6
330
2
100
AcDbEntity
  8
Layer3
100
AcDbCircle
 10
-28.56629421220509
 20
462.8702581505717
 30
0.0
 40
4.0
  0
LINE
  5
1BD7
330
2
100
AcDbEntity
  8
Layer3
100
AcDbLine
 10
-28.56629421220509
 20
457.8702581505718
 30
0.0
 11
-28.56629421220509
 21
467.8702581505717
 31
0.0
  0
LINE
  5
1BD8
330
2
100
AcDbEntity
  8
Layer3
100
AcDbLine
 10
-32.56629421220498
 20
454.665941214789
 30
0.0
 11
-30.18729421220496
 21
452.2869412147891
 31
0.0
  0
LINE
  5
1BD9
330
2
100
AcDbEntity
  8
Layer3
100
AcDbLine
 10
-30.18729421220496
 20
452.2869412147891
 30
0.0
 11
-26.94529421220511
 21
452.2869412147891
 31
0.0
  0
LINE
  5
1BDA
330
2
100
AcDbEntity
  8
Layer3
100
AcDbLine
 10
-30.56629421220498
 20
451.665941214789
 30
0.0
 11
-26.56629421220509
 21
451.6659412147892
 31
0.0
  0
LINE
  5
1BDB
330
2
100
AcDbEntity
  8
Layer3
100
AcDbLine
 10
-30.56629421220486
 20
452.6659412147892
 30
0.0
 11
-26.56629421220509
 21
452.6659412147891
 31
0.0
  0
LINE
  5
1BDC
330
2
100
AcDbEntity
  8
Layer3
100
AcDbLine
 10
-32.56629421220498
 20
454.9659412147891
 30
0.0
 11
-32.56629421220498
 21
454.665941214789
 31
0.0
  0
ARC
  5
1BDD
330
2
100
AcDbEntity
  8
Layer3
100
AcDbCircle
 10
-30.84779424764792
 20
460.5887581151288
 30
0.0
 40
1.993999999999999
100
AcDbArc
 50
359.9867691232329
 51
90.01323087676704
  0
ARC
  5
1BDE
330
2
100
AcDbEntity
  8
Layer3
100
AcDbCircle
 10
-30.84779424764792
 20
465.1517581860145
 30
0.0
 40
1.993999999999999
100
AcDbArc
 50
269.9867691232329
 51
0.0132308767670553
  0
ARC
  5
1BDF
330
2
100
AcDbEntity
  8
Layer3
100
AcDbCircle
 10
-28.56629421220509
 20
462.8702581505717
 30
0.0
 40
2.299999999999998
100
AcDbArc
 50
180.0
 51
187.1807580062409
  0
ARC
  5
1BE0
330
2
100
AcDbEntity
  8
Layer3
100
AcDbCircle
 10
-28.56629421220509
 20
462.8702581505717
 30
0.0
 40
2.299999999999998
100
AcDbArc
 50
172.819241993759
 51
180.0
  0
ARC
  5
1BE1
330
2
100
AcDbEntity
  8
Layer3
100
AcDbCircle
 10
-28.56629421220509
 20
462.8702581505717
 30
0.0
 40
2.299999999999998
100
AcDbArc
 50
262.819241993759
 51
270.0
  0
ARC
  5
1BE2
330
2
100
AcDbEntity
  8
Layer3
100
AcDbCircle
 10
-28.56629421220509
 20
462.8702581505717
 30
0.0
 40
2.299999999999998
100
AcDbArc
 50
270.0
 51
277.1807580062409
  0
ARC
  5
1BE3
330
2
100
AcDbEntity
  8
Layer3
100
AcDbCircle
 10
-28.56629421220509
 20
462.8702581505717
 30
0.0
 40
2.299999999999998
100
AcDbArc
 50
90.0
 51
97.18075800624092
  0
ARC
  5
1BE4
330
2
100
AcDbEntity
  8
Layer3
100
AcDbCircle
 10
-28.56629421220509
 20
462.8702581505717
 30
0.0
 40
2.299999999999998
100
AcDbArc
 50
82.81924199375909
 51
90.0
  0
LINE
  5
1BE5
330
2
100
AcDbEntity
  8
Layer3
100
AcDbLine
 10
-24.56629421220509
 20
454.9659412147891
 30
0.0
 11
-24.56629421220509
 21
454.665941214789
 31
0.0
  0
LINE
  5
1BE6
330
2
100
AcDbEntity
  8
Layer3
100
AcDbLine
 10
56.4337057877949
 20
452.7272549385931
 30
0.0
 11
56.4337057877949
 21
452.427254938593
 31
0.0
  0
LINE
  5
1BE7
330
2
100
AcDbEntity
  8
Layer3
100
AcDbLine
 10
56.4337057877949
 20
452.427254938593
 30
0.0
 11
59.36670578779512
 21
449.494254938593
 31
0.0
  0
ARC
  5
1BE8
330
2
100
AcDbEntity
  8
Layer3
100
AcDbCircle
 10
-28.56629421220509
 20
462.8702581505717
 30
0.0
 40
2.299999999999998
100
AcDbArc
 50
0.0
 51
7.180758006240904
  0
ARC
  5
1BE9
330
2
100
AcDbEntity
  8
Layer3
100
AcDbCircle
 10
-28.56629421220509
 20
462.8702581505717
 30
0.0
 40
2.299999999999998
100
AcDbArc
 50
352.819241993759
 51
0.0
  0
ARC
  5
1BEA
330
2
100
AcDbEntity
  8
Layer3
100
AcDbCircle
 10
61.4337057877949
 20
462.8702581505717
 30
0.0
 40
2.6
100
AcDbArc
 50
180.0
 51
186.348574705016
  0
ARC
  5
1BEB
330
2
100
AcDbEntity
  8
Layer3
100
AcDbCircle
 10
61.4337057877949
 20
462.8702581505717
 30
0.0
 40
2.6
100
AcDbArc
 50
173.651425294984
 51
180.0
  0
LINE
  5
1BEC
330
2
100
AcDbEntity
  8
Layer3
100
AcDbLine
 10
144.4337057877949
 20
462.8702581505717
 30
0.0
 11
158.4337057877951
 21
462.8702581505717
 31
0.0
  0
CIRCLE
  5
1BED
330
2
100
AcDbEntity
  8
Layer3
100
AcDbCircle
 10
151.4337057877949
 20
462.8702581505717
 30
0.0
 40
6.0
  0
ARC
  5
1BEE
330
2
100
AcDbEntity
  8
Layer3
100
AcDbCircle
 10
151.4337057877949
 20
438.9391340993019
 30
0.0
 40
13.55714285714268
100
AcDbArc
 50
63.7319553872085
 51
116.2680446127915
  0
LINE
  5
1BEF
330
2
100
AcDbEntity
  8
Layer3
100
AcDbLine
 10
145.4337057877949
 20
450.6962769564445
 30
0.0
 11
157.4337057877949
 21
450.6962769564445
 31
0.0
  0
LINE
  5
1BF0
330
2
100
AcDbEntity
  8
Layer3
100
AcDbLine
 10
145.4337057877949
 20
451.0962769564445
 30
0.0
 11
157.4337057877949
 21
451.0962769564445
 31
0.0
  0
LINE
  5
1BF1
330
2
100
AcDbEntity
  8
Layer3
100
AcDbLine
 10
61.4337057877949
 20
456.8702581505717
 30
0.0
 11
61.4337057877949
 21
468.8702581505717
 31
0.0
  0
LINE
  5
1BF2
330
2
100
AcDbEntity
  8
Layer3
100
AcDbLine
 10
66.4337057877949
 20
452.427254938593
 30
0.0
 11
63.50070578779491
 21
449.494254938593
 31
0.0
  0
LINE
  5
1BF3
330
2
100
AcDbEntity
  8
Layer3
100
AcDbLine
 10
66.4337057877949
 20
452.7272549385931
 30
0.0
 11
66.4337057877949
 21
452.427254938593
 31
0.0
  0
LINE
  5
1BF4
330
2
100
AcDbEntity
  8
Layer3
100
AcDbLine
 10
145.4337057877949
 20
451.0962769564445
 30
0.0
 11
145.4337057877949
 21
450.6962769564445
 31
0.0
  0
ARC
  5
1BF5
330
2
100
AcDbEntity
  8
Layer3
100
AcDbCircle
 10
64.01820578948957
 20
465.4547581522662
 30
0.0
 40
2.296999999999999
100
AcDbArc
 50
180.0110832059815
 51
269.9889167940217
  0
ARC
  5
1BF6
330
2
100
AcDbEntity
  8
Layer3
100
AcDbCircle
 10
61.4337057877949
 20
462.8702581505717
 30
0.0
 40
2.6
100
AcDbArc
 50
0.0
 51
6.348574705016008
  0
ARC
  5
1BF7
330
2
100
AcDbEntity
  8
Layer3
100
AcDbCircle
 10
61.4337057877949
 20
462.8702581505717
 30
0.0
 40
2.6
100
AcDbArc
 50
353.651425294984
 51
0.0
  0
ARC
  5
1BF8
330
2
100
AcDbEntity
  8
Layer3
100
AcDbCircle
 10
61.4337057877949
 20
462.8702581505717
 30
0.0
 40
2.6
100
AcDbArc
 50
263.6514252949822
 51
270.0
  0
ARC
  5
1BF9
330
2
100
AcDbEntity
  8
Layer3
100
AcDbCircle
 10
61.4337057877949
 20
462.8702581505717
 30
0.0
 40
2.6
100
AcDbArc
 50
270.0
 51
276.3485747050178
  0
ARC
  5
1BFA
330
2
100
AcDbEntity
  8
Layer3
100
AcDbCircle
 10
64.01820578948957
 20
460.2857581488771
 30
0.0
 40
2.296999999999999
100
AcDbArc
 50
90.01108320597831
 51
179.9889167940184
  0
ARC
  5
1BFB
330
2
100
AcDbEntity
  8
Layer3
100
AcDbCircle
 10
61.4337057877949
 20
462.8702581505717
 30
0.0
 40
2.6
100
AcDbArc
 50
90.0
 51
96.34857470501779
  0
ARC
  5
1BFC
330
2
100
AcDbEntity
  8
Layer3
100
AcDbCircle
 10
61.4337057877949
 20
462.8702581505717
 30
0.0
 40
2.6
100
AcDbArc
 50
83.6514252949822
 51
90.0
  0
LINE
  5
1BFD
330
2
100
AcDbEntity
  8
Layer3
100
AcDbLine
 10
151.4337057877949
 20
455.8702581505717
 30
0.0
 11
151.4337057877949
 21
469.8702581505718
 31
0.0
  0
ARC
  5
1BFE
330
2
100
AcDbEntity
  8
Layer3
100
AcDbCircle
 10
148.061705787102
 20
459.4982581498785
 30
0.0
 40
2.935
100
AcDbArc
 50
0.0039166187675093
 51
89.9960833812325
  0
ARC
  5
1BFF
330
2
100
AcDbEntity
  8
Layer3
100
AcDbCircle
 10
154.805705788488
 20
459.4982581498785
 30
0.0
 40
2.935
100
AcDbArc
 50
90.00391661876751
 51
179.9960833812324
  0
ARC
  5
1C00
330
2
100
AcDbEntity
  8
Layer3
100
AcDbCircle
 10
151.4337057877949
 20
462.8702581505717
 30
0.0
 40
3.399999999999999
100
AcDbArc
 50
262.6153789623446
 51
270.0
  0
ARC
  5
1C01
330
2
100
AcDbEntity
  8
Layer3
100
AcDbCircle
 10
151.4337057877949
 20
462.8702581505717
 30
0.0
 40
3.399999999999999
100
AcDbArc
 50
270.0
 51
277.3846210376553
  0
LINE
  5
1C02
330
2
100
AcDbEntity
  8
Layer3
100
AcDbLine
 10
157.4337057877949
 20
451.0962769564445
 30
0.0
 11
157.4337057877949
 21
450.6962769564445
 31
0.0
  0
ARC
  5
1C03
330
2
100
AcDbEntity
  8
Layer3
100
AcDbCircle
 10
148.061705787102
 20
466.2422581512648
 30
0.0
 40
2.935
100
AcDbArc
 50
270.0039166187675
 51
359.9960833812325
  0
ARC
  5
1C04
330
2
100
AcDbEntity
  8
Layer3
100
AcDbCircle
 10
154.805705788488
 20
466.2422581512648
 30
0.0
 40
2.935
100
AcDbArc
 50
180.0039166187675
 51
269.9960833812324
  0
ARC
  5
1C05
330
2
100
AcDbEntity
  8
Layer3
100
AcDbCircle
 10
151.4337057877949
 20
462.8702581505717
 30
0.0
 40
3.399999999999999
100
AcDbArc
 50
180.0
 51
187.3846210376552
  0
ARC
  5
1C06
330
2
100
AcDbEntity
  8
Layer3
100
AcDbCircle
 10
151.4337057877949
 20
462.8702581505717
 30
0.0
 40
3.399999999999999
100
AcDbArc
 50
172.6153789623447
 51
180.0
  0
ARC
  5
1C07
330
2
100
AcDbEntity
  8
Layer3
100
AcDbCircle
 10
151.4337057877949
 20
462.8702581505717
 30
0.0
 40
3.399999999999999
100
AcDbArc
 50
352.6153789623447
 51
0.0
  0
ARC
  5
1C08
330
2
100
AcDbEntity
  8
Layer3
100
AcDbCircle
 10
151.4337057877949
 20
462.8702581505717
 30
0.0
 40
3.399999999999999
100
AcDbArc
 50
0.0
 51
7.384621037655233
  0
ARC
  5
1C09
330
2
100
AcDbEntity
  8
Layer3
100
AcDbCircle
 10
151.4337057877949
 20
462.8702581505717
 30
0.0
 40
3.399999999999999
100
AcDbArc
 50
90.0
 51
97.38462103765535
  0
ARC
  5
1C0A
330
2
100
AcDbEntity
  8
Layer3
100
AcDbCircle
 10
151.4337057877949
 20
462.8702581505717
 30
0.0
 40
3.399999999999999
100
AcDbArc
 50
82.61537896234466
 51
90.0
  0
LINE
  5
1C0C
330
2
100
AcDbEntity
  8
Layer3
100
AcDbLine
 10
241.4337057877949
 20
453.8702581505718
 30
0.0
 11
241.4337057877949
 21
471.8702581505717
 31
0.0
  0
LINE
  5
1C0D
330
2
100
AcDbEntity
  8
Layer3
100
AcDbLine
 10
232.4337057877948
 20
462.8702581505717
 30
0.0
 11
250.4337057877949
 21
462.8702581505717
 31
0.0
  0
CIRCLE
  5
1C0E
330
2
100
AcDbEntity
  8
Layer3
100
AcDbCircle
 10
241.4337057877949
 20
462.8702581505717
 30
0.0
 40
8.0
  0
ARC
  5
1C0F
330
2
100
AcDbEntity
  8
Layer3
100
AcDbCircle
 10
237.2212057877949
 20
458.6577581505718
 30
0.0
 40
3.649999999999999
100
AcDbArc
 50
359.9982532750837
 51
90.00174672491302
  0
ARC
  5
1C10
330
2
100
AcDbEntity
  8
Layer3
100
AcDbCircle
 10
245.6462057877948
 20
458.6577581505718
 30
0.0
 40
3.649999999999999
100
AcDbArc
 50
89.99825327508371
 51
180.0017467249163
  0
ARC
  5
1C11
330
2
100
AcDbEntity
  8
Layer3
100
AcDbCircle
 10
241.4337057877949
 20
462.8702581505717
 30
0.0
 40
4.25
100
AcDbArc
 50
262.3944189545191
 51
270.0
  0
ARC
  5
1C12
330
2
100
AcDbEntity
  8
Layer3
100
AcDbCircle
 10
241.4337057877949
 20
462.8702581505717
 30
0.0
 40
4.25
100
AcDbArc
 50
270.0
 51
277.6055810454808
  0
ARC
  5
1C13
330
2
100
AcDbEntity
  8
Layer3
100
AcDbCircle
 10
237.2212057877949
 20
467.0827581505716
 30
0.0
 40
3.649999999999999
100
AcDbArc
 50
269.9982532750869
 51
0.0017467249162966
  0
ARC
  5
1C14
330
2
100
AcDbEntity
  8
Layer3
100
AcDbCircle
 10
241.4337057877949
 20
462.8702581505717
 30
0.0
 40
4.25
100
AcDbArc
 50
180.0
 51
187.6055810454807
  0
ARC
  5
1C15
330
2
100
AcDbEntity
  8
Layer3
100
AcDbCircle
 10
241.4337057877949
 20
462.8702581505717
 30
0.0
 40
4.25
100
AcDbArc
 50
172.3944189545192
 51
180.0
  0
ARC
  5
1C16
330
2
100
AcDbEntity
  8
Layer3
100
AcDbCircle
 10
245.6462057877948
 20
467.0827581505716
 30
0.0
 40
3.649999999999999
100
AcDbArc
 50
179.9982532750837
 51
270.0017467249129
  0
ARC
  5
1C17
330
2
100
AcDbEntity
  8
Layer3
100
AcDbCircle
 10
241.4337057877949
 20
462.8702581505717
 30
0.0
 40
4.25
100
AcDbArc
 50
0.0
 51
7.605581045480742
  0
ARC
  5
1C18
330
2
100
AcDbEntity
  8
Layer3
100
AcDbCircle
 10
241.4337057877949
 20
462.8702581505717
 30
0.0
 40
4.25
100
AcDbArc
 50
352.3944189545192
 51
0.0
  0
ARC
  5
1C19
330
2
100
AcDbEntity
  8
Layer3
100
AcDbCircle
 10
241.4337057877949
 20
462.8702581505717
 30
0.0
 40
4.25
100
AcDbArc
 50
90.0
 51
97.60558104548087
  0
ARC
  5
1C1A
330
2
100
AcDbEntity
  8
Layer3
100
AcDbCircle
 10
241.4337057877949
 20
462.8702581505717
 30
0.0
 40
4.25
100
AcDbArc
 50
82.39441895451916
 51
90.0
  0
LINE
  5
1D16
330
2
100
AcDbEntity
  8
Layer3
100
AcDbLine
 10
-298.5662942122051
 20
186.7117241599181
 30
0.0
 11
-298.5662942122051
 21
181.2105293160812
 31
0.0
  0
LINE
  5
1D17
330
2
100
AcDbEntity
  8
Layer3
100
AcDbLine
 10
-297.7023916341236
 20
168.5935890075677
 30
0.0
 11
-297.7023916341236
 21
178.5935890075677
 31
0.0
  0
LINE
  5
1D18
330
2
100
AcDbEntity
  8
Layer3
100
AcDbLine
 10
-299.4313916341236
 20
168.5935890075677
 30
0.0
 11
-299.4313916341236
 21
178.5935890075677
 31
0.0
  0
LINE
  5
1D19
330
2
100
AcDbEntity
  8
Layer3
100
AcDbLine
 10
-299.5668916341236
 20
177.7935890075677
 30
0.0
 11
-299.5668916341235
 21
168.7290890075678
 31
0.0
  0
LINE
  5
1D1A
330
2
100
AcDbEntity
  8
Layer3
100
AcDbLine
 10
-297.5668916341236
 20
177.7935890075677
 30
0.0
 11
-297.5668916341235
 21
168.7290890075677
 31
0.0
  0
LINE
  5
1D1D
330
2
100
AcDbEntity
  8
Layer3
100
AcDbLine
 10
-299.4313916341236
 20
168.5935890075677
 30
0.0
 11
-299.5668916341235
 21
168.7290890075678
 31
0.0
  0
LINE
  5
1D1E
330
2
100
AcDbEntity
  8
Layer3
100
AcDbLine
 10
-297.7023916341236
 20
168.5935890075677
 30
0.0
 11
-297.5668916341235
 21
168.7290890075677
 31
0.0
  0
LINE
  5
1D1F
330
2
100
AcDbEntity
  8
Layer3
100
AcDbLine
 10
-297.7023916341236
 20
168.5935890075677
 30
0.0
 11
-299.4313916341236
 21
168.5935890075677
 31
0.0
  0
LINE
  5
1D20
330
2
100
AcDbEntity
  8
Layer3
100
AcDbLine
 10
-299.5668916341235
 20
168.7290890075678
 30
0.0
 11
-297.5668916341235
 21
168.7290890075677
 31
0.0
  0
ARC
  5
1D21
330
2
100
AcDbEntity
  8
Layer3
100
AcDbCircle
 10
-298.5668916341236
 20
175.3935890075678
 30
0.0
 40
4.5
100
AcDbArc
 50
73.95955802385142
 51
106.0404419761485
  0
LINE
  5
1D22
330
2
100
AcDbEntity
  8
Layer3
100
AcDbLine
 10
-296.8168916341236
 20
178.5935890075677
 30
0.0
 11
-300.3168916341236
 21
178.5935890075678
 31
0.0
  0
ARC
  5
1D23
330
2
100
AcDbEntity
  8
Layer3
100
AcDbCircle
 10
-299.6168916341236
 20
179.0456432240329
 30
0.0
 40
0.7
100
AcDbArc
 50
106.0404419761454
 51
180.0
  0
LINE
  5
1D24
330
2
100
AcDbEntity
  8
Layer3
100
AcDbLine
 10
-300.3168916341236
 20
178.5935890075677
 30
0.0
 11
-300.3168916341236
 21
179.0456432240329
 31
0.0
  0
LINE
  5
1D25
330
2
100
AcDbEntity
  8
Layer3
100
AcDbLine
 10
-296.8168916341236
 20
178.5935890075677
 30
0.0
 11
-296.8168916341236
 21
179.0456432240329
 31
0.0
  0
ARC
  5
1D26
330
2
100
AcDbEntity
  8
Layer3
100
AcDbCircle
 10
-297.5168916341236
 20
179.0456432240329
 30
0.0
 40
0.7
100
AcDbArc
 50
0.0
 51
73.95955802385454
  0
LINE
  5
1D27
330
2
100
AcDbEntity
  8
Layer3
100
AcDbLine
 10
-299.5668916341236
 20
177.7935890075677
 30
0.0
 11
-299.4584916341235
 21
178.5935890075677
 31
0.0
  0
LINE
  5
1D28
330
2
100
AcDbEntity
  8
Layer3
100
AcDbLine
 10
-297.5668916341236
 20
177.7935890075677
 30
0.0
 11
-297.6752916341236
 21
178.5935890075677
 31
0.0
  0
LINE
  5
1D29
330
2
100
AcDbEntity
  8
Layer3
100
AcDbLine
 10
-297.5668916341236
 20
177.7935890075677
 30
0.0
 11
-299.5668916341236
 21
177.7935890075677
 31
0.0
  0
LINE
  5
1D2A
330
2
100
AcDbEntity
  8
Layer3
100
AcDbLine
 10
-301.3168916341236
 20
183.9611267379996
 30
0.0
 11
-295.8156967902867
 21
183.9611267379996
 31
0.0
  0
CIRCLE
  5
1D2B
330
2
100
AcDbEntity
  8
Layer3
100
AcDbCircle
 10
-298.5662942122051
 20
183.9611267379996
 30
0.0
 40
1.750597421918428
  0
ARC
  5
1D2D
330
2
100
AcDbEntity
  8
Layer3
100
AcDbCircle
 10
-297.5662942122052
 20
184.9611267379996
 30
0.0
 40
0.875
100
AcDbArc
 50
180.0
 51
270.0
  0
ARC
  5
1D2E
330
2
100
AcDbEntity
  8
Layer3
100
AcDbCircle
 10
-299.5662942122052
 20
184.9611267379996
 30
0.0
 40
0.875
100
AcDbArc
 50
270.0
 51
0.0
  0
LINE
  5
1D2F
330
2
100
AcDbEntity
  8
Layer3
100
AcDbLine
 10
-299.5662942122052
 20
183.8361267379997
 30
0.0
 11
-299.5662942122052
 21
184.0861267379996
 31
0.0
  0
LINE
  5
1D30
330
2
100
AcDbEntity
  8
Layer3
100
AcDbLine
 10
-299.5662942122052
 20
183.8361267379997
 30
0.0
 11
-299.5662942122052
 21
184.0861267379996
 31
0.0
  0
LINE
  5
1D31
330
2
100
AcDbEntity
  8
Layer3
100
AcDbLine
 10
-298.6912942122052
 20
184.9611267379996
 30
0.0
 11
-298.4412942122052
 21
184.9611267379996
 31
0.0
  0
LINE
  5
1D32
330
2
100
AcDbEntity
  8
Layer3
100
AcDbLine
 10
-298.6912942122052
 20
184.9611267379996
 30
0.0
 11
-298.4412942122052
 21
184.9611267379996
 31
0.0
  0
LINE
  5
1D33
330
2
100
AcDbEntity
  8
Layer3
100
AcDbLine
 10
-297.5662942122052
 20
183.8361267379997
 30
0.0
 11
-297.5662942122052
 21
184.0861267379996
 31
0.0
  0
LINE
  5
1D34
330
2
100
AcDbEntity
  8
Layer3
100
AcDbLine
 10
-297.5662942122052
 20
183.8361267379997
 30
0.0
 11
-297.5662942122052
 21
184.0861267379996
 31
0.0
  0
LINE
  5
1D35
330
2
100
AcDbEntity
  8
Layer3
100
AcDbLine
 10
-298.6912942122052
 20
182.9611267379996
 30
0.0
 11
-298.4412942122052
 21
182.9611267379996
 31
0.0
  0
ARC
  5
1D36
330
2
100
AcDbEntity
  8
Layer3
100
AcDbCircle
 10
-297.5662942122052
 20
182.9611267379996
 30
0.0
 40
0.875
100
AcDbArc
 50
90.0
 51
180.0
  0
ARC
  5
1D37
330
2
100
AcDbEntity
  8
Layer3
100
AcDbCircle
 10
-299.5662942122052
 20
182.9611267379996
 30
0.0
 40
0.875
100
AcDbArc
 50
0.0
 51
90.0
  0
LINE
  5
1D38
330
2
100
AcDbEntity
  8
Layer3
100
AcDbLine
 10
61.4337057877949
 20
189.4611267379996
 30
0.0
 11
61.4337057877949
 21
178.4611267379997
 31
0.0
  0
LINE
  5
1D39
330
2
100
AcDbEntity
  8
Layer3
100
AcDbLine
 10
151.4337057877949
 20
177.7111267379996
 30
0.0
 11
151.4337057877949
 21
190.2111267379997
 31
0.0
  0
LINE
  5
1D3A
330
2
100
AcDbEntity
  8
Layer3
100
AcDbLine
 10
241.4337057877949
 20
175.9611267379996
 30
0.0
 11
241.4337057877949
 21
191.9611267379997
 31
0.0
  0
LINE
  5
1D3B
330
2
100
AcDbEntity
  8
Layer3
100
AcDbLine
 10
-28.56629421220509
 20
179.4611267379996
 30
0.0
 11
-28.56629421220509
 21
188.4611267379997
 31
0.0
  0
LINE
  5
1D3C
330
2
100
AcDbEntity
  8
Layer3
100
AcDbLine
 10
-118.566294212205
 20
180.2111267379996
 30
0.0
 11
-118.566294212205
 21
187.7111267379996
 31
0.0
  0
LINE
  5
1D3D
330
2
100
AcDbEntity
  8
Layer3
100
AcDbLine
 10
-208.5662942122051
 20
180.7111267379997
 30
0.0
 11
-208.5662942122051
 21
187.2111267379996
 31
0.0
  0
ARC
  5
1D3E
330
2
100
AcDbEntity
  8
Layer3
100
AcDbCircle
 10
237.6250057877949
 20
180.1524267379996
 30
0.0
 40
3.246199999999998
100
AcDbArc
 50
0.0
 51
90.0
  0
CIRCLE
  5
1D3F
330
2
100
AcDbEntity
  8
Layer3
100
AcDbCircle
 10
241.4337057877949
 20
183.9611267379996
 30
0.0
 40
7.000000000000027
  0
ARC
  5
1D40
330
2
100
AcDbEntity
  8
Layer3
100
AcDbCircle
 10
245.242405787795
 20
180.1524267379996
 30
0.0
 40
3.246199999999998
100
AcDbArc
 50
90.0
 51
180.0
  0
ARC
  5
1D41
330
2
100
AcDbEntity
  8
Layer3
100
AcDbCircle
 10
148.2637057877949
 20
180.7911267379996
 30
0.0
 40
2.733
100
AcDbArc
 50
359.9995668249876
 51
90.00043317501077
  0
CIRCLE
  5
1D42
330
2
100
AcDbEntity
  8
Layer3
100
AcDbCircle
 10
151.4337057877949
 20
183.9611267379996
 30
0.0
 40
5.250000000000028
  0
ARC
  5
1D43
330
2
100
AcDbEntity
  8
Layer3
100
AcDbCircle
 10
154.6037057877949
 20
180.7911267379996
 30
0.0
 40
2.733
100
AcDbArc
 50
89.99956682498924
 51
180.0004331750123
  0
CIRCLE
  5
1D44
330
2
100
AcDbEntity
  8
Layer3
100
AcDbCircle
 10
61.4337057877949
 20
183.9611267379996
 30
0.0
 40
4.499999999999971
  0
ARC
  5
1D45
330
2
100
AcDbEntity
  8
Layer3
100
AcDbCircle
 10
59.05495578779505
 20
181.5823767379996
 30
0.0
 40
2.06
100
AcDbArc
 50
0.0003105823236914
 51
89.99968941767631
  0
ARC
  5
1D46
330
2
100
AcDbEntity
  8
Layer3
100
AcDbCircle
 10
63.81245578779488
 20
181.5823767379996
 30
0.0
 40
2.06
100
AcDbArc
 50
90.00031058232371
 51
179.9996894176763
  0
CIRCLE
  5
1D47
330
2
100
AcDbEntity
  8
Layer3
100
AcDbCircle
 10
-28.56629421220509
 20
183.9611267379996
 30
0.0
 40
3.500000000000028
  0
ARC
  5
1D48
330
2
100
AcDbEntity
  8
Layer3
100
AcDbCircle
 10
-26.53659421220516
 20
181.9314267379996
 30
0.0
 40
1.742199999999999
100
AcDbArc
 50
89.99869033450025
 51
180.0013096654997
  0
ARC
  5
1D49
330
2
100
AcDbEntity
  8
Layer3
100
AcDbCircle
 10
-30.59599421220525
 20
181.9314267379996
 30
0.0
 40
1.742199999999999
100
AcDbArc
 50
359.9986903345002
 51
90.00130966549649
  0
CIRCLE
  5
1D4A
330
2
100
AcDbEntity
  8
Layer3
100
AcDbCircle
 10
-118.566294212205
 20
183.9611267379996
 30
0.0
 40
2.75
  0
CIRCLE
  5
1D4B
330
2
100
AcDbEntity
  8
Layer3
100
AcDbCircle
 10
-208.5662942122051
 20
183.9611267379996
 30
0.0
 40
2.24999999999997
  0
LINE
  5
1D4C
330
2
100
AcDbEntity
  8
Layer3
100
AcDbLine
 10
-209.816294212205
 20
177.6599371815851
 30
0.0
 11
-209.816294212205
 21
162.9099371815852
 31
0.0
  0
LINE
  5
1D4D
330
2
100
AcDbEntity
  8
Layer3
100
AcDbLine
 10
-209.572794212205
 20
176.6599371815851
 30
0.0
 11
-209.572794212205
 21
162.6599371815852
 31
0.0
  0
LINE
  5
1D4E
330
2
100
AcDbEntity
  8
Layer3
100
AcDbLine
 10
-207.5597942122051
 20
176.6599371815851
 30
0.0
 11
-207.5597942122051
 21
162.6599371815852
 31
0.0
  0
LINE
  5
1D4F
330
2
100
AcDbEntity
  8
Layer3
100
AcDbLine
 10
-207.316294212205
 20
177.6599371815851
 30
0.0
 11
-207.3162942122049
 21
162.9099371815852
 31
0.0
  0
LINE
  5
1D50
330
2
100
AcDbEntity
  8
Layer3
100
AcDbLine
 10
-209.816294212205
 20
162.9099371815851
 30
0.0
 11
-207.316294212205
 21
162.9099371815852
 31
0.0
  0
LINE
  5
1D51
330
2
100
AcDbEntity
  8
Layer3
100
AcDbLine
 10
-209.572794212205
 20
162.6599371815852
 30
0.0
 11
-207.5597942122051
 21
162.6599371815851
 31
0.0
  0
LINE
  5
1D54
330
2
100
AcDbEntity
  8
Layer3
100
AcDbLine
 10
-209.816294212205
 20
162.9099371815852
 30
0.0
 11
-209.566294212205
 21
162.6599371815852
 31
0.0
  0
LINE
  5
1D55
330
2
100
AcDbEntity
  8
Layer3
100
AcDbLine
 10
-207.316294212205
 20
162.9099371815852
 30
0.0
 11
-207.566294212205
 21
162.6599371815852
 31
0.0
  0
LINE
  5
1D56
330
2
100
AcDbEntity
  8
Layer3
100
AcDbLine
 10
-209.816294212205
 20
176.6599371815851
 30
0.0
 11
-207.316294212205
 21
176.6599371815851
 31
0.0
  0
ARC
  5
1D57
330
2
100
AcDbEntity
  8
Layer3
100
AcDbCircle
 10
-208.5662942122051
 20
173.3599371815851
 30
0.0
 40
6.0
100
AcDbArc
 50
73.8086483613846
 51
106.1913516386153
  0
LINE
  5
1D58
330
2
100
AcDbEntity
  8
Layer3
100
AcDbLine
 10
-210.8162942122051
 20
177.6599371815851
 30
0.0
 11
-206.316294212205
 21
177.6599371815851
 31
0.0
  0
LINE
  5
1D59
330
2
100
AcDbEntity
  8
Layer3
100
AcDbLine
 10
-209.572794212205
 20
176.6599371815851
 30
0.0
 11
-209.816294212205
 21
176.9034371815849
 31
0.0
  0
ARC
  5
1D5A
330
2
100
AcDbEntity
  8
Layer3
100
AcDbCircle
 10
-210.0162942122051
 20
178.3536832704446
 30
0.0
 40
0.8
100
AcDbArc
 50
106.1913516386153
 51
180.0
  0
LINE
  5
1D5B
330
2
100
AcDbEntity
  8
Layer3
100
AcDbLine
 10
-210.8162942122051
 20
178.3536832704446
 30
0.0
 11
-210.8162942122051
 21
177.6599371815851
 31
0.0
  0
ARC
  5
1D5C
330
2
100
AcDbEntity
  8
Layer3
100
AcDbCircle
 10
-207.116294212205
 20
178.3536832704446
 30
0.0
 40
0.8
100
AcDbArc
 50
0.0
 51
73.8086483613846
  0
LINE
  5
1D5D
330
2
100
AcDbEntity
  8
Layer3
100
AcDbLine
 10
-206.316294212205
 20
178.3536832704446
 30
0.0
 11
-206.316294212205
 21
177.6599371815851
 31
0.0
  0
LINE
  5
1D5E
330
2
100
AcDbEntity
  8
Layer3
100
AcDbLine
 10
-207.5597942122051
 20
176.6599371815851
 30
0.0
 11
-207.316294212205
 21
176.9034371815849
 31
0.0
  0
LINE
  5
1D5F
330
2
100
AcDbEntity
  8
Layer3
100
AcDbLine
 10
-119.7957942122051
 20
176.2489401884987
 30
0.0
 11
-119.795794212205
 21
157.2489401884987
 31
0.0
  0
LINE
  5
1D60
330
2
100
AcDbEntity
  8
Layer3
100
AcDbLine
 10
-117.3367942122051
 20
176.2489401884987
 30
0.0
 11
-117.3367942122051
 21
157.2489401884987
 31
0.0
  0
LINE
  5
1D61
330
2
100
AcDbEntity
  8
Layer3
100
AcDbLine
 10
-120.0662942122051
 20
177.2489401884987
 30
0.0
 11
-120.066294212205
 21
157.5194401884988
 31
0.0
  0
LINE
  5
1D62
330
2
100
AcDbEntity
  8
Layer3
100
AcDbLine
 10
-117.0662942122051
 20
177.2489401884987
 30
0.0
 11
-117.0662942122051
 21
157.5194401884987
 31
0.0
  0
LINE
  5
1D65
330
2
100
AcDbEntity
  8
Layer3
100
AcDbLine
 10
-120.066294212205
 20
157.5194401884988
 30
0.0
 11
-117.0662942122049
 21
157.5194401884988
 31
0.0
  0
LINE
  5
1D66
330
2
100
AcDbEntity
  8
Layer3
100
AcDbLine
 10
-117.3367942122051
 20
157.2489401884987
 30
0.0
 11
-119.795794212205
 21
157.2489401884987
 31
0.0
  0
LINE
  5
1D67
330
2
100
AcDbEntity
  8
Layer3
100
AcDbLine
 10
-119.795794212205
 20
157.2489401884987
 30
0.0
 11
-120.066294212205
 21
157.5194401884988
 31
0.0
  0
LINE
  5
1D68
330
2
100
AcDbEntity
  8
Layer3
100
AcDbLine
 10
-117.3367942122051
 20
157.2489401884987
 30
0.0
 11
-117.0662942122051
 21
157.5194401884987
 31
0.0
  0
LINE
  5
1D69
330
2
100
AcDbEntity
  8
Layer3
100
AcDbLine
 10
-117.3367942122051
 20
176.2489401884987
 30
0.0
 11
-117.0662942122051
 21
176.5194401884987
 31
0.0
  0
LINE
  5
1D6A
330
2
100
AcDbEntity
  8
Layer3
100
AcDbLine
 10
-119.7957942122051
 20
176.2489401884987
 30
0.0
 11
-120.0662942122051
 21
176.5194401884987
 31
0.0
  0
LINE
  5
1D6B
330
2
100
AcDbEntity
  8
Layer3
100
AcDbLine
 10
-117.0662942122051
 20
176.2489401884987
 30
0.0
 11
-120.066294212205
 21
176.2489401884987
 31
0.0
  0
ARC
  5
1D6C
330
2
100
AcDbEntity
  8
Layer3
100
AcDbCircle
 10
-118.566294212205
 20
172.2489401884987
 30
0.0
 40
7.0
100
AcDbArc
 50
73.0422366999951
 51
106.9577633000049
  0
LINE
  5
1D6D
330
2
100
AcDbEntity
  8
Layer3
100
AcDbLine
 10
-115.816294212205
 20
177.2489401884987
 30
0.0
 11
-121.3162942122051
 21
177.2489401884987
 31
0.0
  0
LINE
  5
1D6E
330
2
100
AcDbEntity
  8
Layer3
100
AcDbLine
 10
-121.3162942122051
 20
177.9880603301232
 30
0.0
 11
-121.3162942122051
 21
177.2489401884987
 31
0.0
  0
ARC
  5
1D6F
330
2
100
AcDbEntity
  8
Layer3
100
AcDbCircle
 10
-120.316294212205
 20
177.9880603301232
 30
0.0
 40
1.0
100
AcDbArc
 50
106.9577633000053
 51
180.0
  0
ARC
  5
1D70
330
2
100
AcDbEntity
  8
Layer3
100
AcDbCircle
 10
-116.8162942122051
 20
177.9880603301232
 30
0.0
 40
1.0
100
AcDbArc
 50
0.0
 51
73.04223669999462
  0
LINE
  5
1D71
330
2
100
AcDbEntity
  8
Layer3
100
AcDbLine
 10
-115.816294212205
 20
177.9880603301232
 30
0.0
 11
-115.8162942122051
 21
177.2489401884987
 31
0.0
  0
ARC
  5
1D72
330
2
100
AcDbEntity
  8
Layer3
100
AcDbCircle
 10
-30.67330496579813
 20
176.2010962007705
 30
0.0
 40
1.3
100
AcDbArc
 50
105.8808500082811
 51
175.0000000000002
  0
LINE
  5
1D73
330
2
100
AcDbEntity
  8
Layer3
100
AcDbLine
 10
-32.06629421220509
 20
175.1949834765242
 30
0.0
 11
-25.0662942122052
 21
175.1949834765241
 31
0.0
  0
LINE
  5
1D74
330
2
100
AcDbEntity
  8
Layer3
100
AcDbLine
 10
-32.06629421220509
 20
175.1949834765242
 30
0.0
 11
-31.96835807331729
 21
176.3143986663425
 31
0.0
  0
LINE
  5
1D75
330
2
100
AcDbEntity
  8
Layer3
100
AcDbLine
 10
-26.94529421220522
 20
174.4949834765242
 30
0.0
 11
-26.94529421220545
 21
150.2159834765241
 31
0.0
  0
LINE
  5
1D76
330
2
100
AcDbEntity
  8
Layer3
100
AcDbLine
 10
-26.5662942122052
 20
175.1949834765241
 30
0.0
 11
-26.56629421220543
 21
150.5949834765242
 31
0.0
  0
LINE
  5
1D77
330
2
100
AcDbEntity
  8
Layer3
100
AcDbLine
 10
-30.18729421220507
 20
174.4949834765242
 30
0.0
 11
-30.18729421220541
 21
150.2159834765242
 31
0.0
  0
LINE
  5
1D78
330
2
100
AcDbEntity
  8
Layer3
100
AcDbLine
 10
-30.56629421220509
 20
175.1949834765241
 30
0.0
 11
-30.56629421220532
 21
150.5949834765243
 31
0.0
  0
LINE
  5
1D7B
330
2
100
AcDbEntity
  8
Layer3
100
AcDbLine
 10
-30.56629421220532
 20
150.5949834765242
 30
0.0
 11
-26.56629421220543
 21
150.5949834765241
 31
0.0
  0
LINE
  5
1D7C
330
2
100
AcDbEntity
  8
Layer3
100
AcDbLine
 10
-30.16629421220523
 20
150.1949834765242
 30
0.0
 11
-26.9662942122053
 21
150.1949834765241
 31
0.0
  0
LINE
  5
1D7D
330
2
100
AcDbEntity
  8
Layer3
100
AcDbLine
 10
-30.56629421220532
 20
150.5949834765242
 30
0.0
 11
-30.16629421220546
 21
150.1949834765242
 31
0.0
  0
LINE
  5
1D7E
330
2
100
AcDbEntity
  8
Layer3
100
AcDbLine
 10
-26.56629421220543
 20
150.5949834765241
 30
0.0
 11
-26.96629421220552
 21
150.1949834765241
 31
0.0
  0
LINE
  5
1D7F
330
2
100
AcDbEntity
  8
Layer3
100
AcDbLine
 10
-25.0662942122052
 20
175.1949834765242
 30
0.0
 11
-25.16423035109301
 21
176.3143986663425
 31
0.0
  0
LINE
  5
1D80
330
2
100
AcDbEntity
  8
Layer3
100
AcDbLine
 10
-30.56629421220509
 20
174.4949834765242
 30
0.0
 11
-26.5662942122052
 21
174.4949834765242
 31
0.0
  0
LINE
  5
1D81
330
2
100
AcDbEntity
  8
Layer3
100
AcDbLine
 10
-30.18729421220507
 20
174.4949834765242
 30
0.0
 11
-30.56629421220509
 21
174.8739834765242
 31
0.0
  0
LINE
  5
1D82
330
2
100
AcDbEntity
  8
Layer3
100
AcDbLine
 10
-26.94529421220522
 20
174.4949834765242
 30
0.0
 11
-26.5662942122052
 21
174.8739834765242
 31
0.0
  0
ARC
  5
1D83
330
2
100
AcDbEntity
  8
Layer3
100
AcDbCircle
 10
-28.56629421220509
 20
168.7949834765243
 30
0.0
 40
9.0
100
AcDbArc
 50
74.11914999171883
 51
105.8808500082811
  0
ARC
  5
1D84
330
2
100
AcDbEntity
  8
Layer3
100
AcDbCircle
 10
-28.56629421220509
 20
183.9611267379996
 30
0.0
 40
2.049999999999998
100
AcDbArc
 50
270.0
 51
278.0619600839818
  0
ARC
  5
1D85
330
2
100
AcDbEntity
  8
Layer3
100
AcDbCircle
 10
-28.56629421220509
 20
183.9611267379996
 30
0.0
 40
2.049999999999998
100
AcDbArc
 50
261.9380399160181
 51
270.0
  0
ARC
  5
1D86
330
2
100
AcDbEntity
  8
Layer3
100
AcDbCircle
 10
-26.45928345861227
 20
176.2010962007705
 30
0.0
 40
1.3
100
AcDbArc
 50
4.999999999999743
 51
74.11914999171883
  0
ARC
  5
1D87
330
2
100
AcDbEntity
  8
Layer3
100
AcDbCircle
 10
151.4337057877949
 20
160.053976861088
 30
0.0
 40
14.0
100
AcDbArc
 50
74.6375149631761
 51
105.3624850368238
  0
LINE
  5
1D88
330
2
100
AcDbEntity
  8
Layer3
100
AcDbLine
 10
148.4337057877951
 20
140.695476861088
 30
0.0
 11
154.4337057877952
 21
140.695476861088
 31
0.0
  0
LINE
  5
1D89
330
2
100
AcDbEntity
  8
Layer3
100
AcDbLine
 10
148.4337057877951
 20
169.1539768610879
 30
0.0
 11
154.4337057877951
 21
169.1539768610879
 31
0.0
  0
LINE
  5
1D8A
330
2
100
AcDbEntity
  8
Layer3
100
AcDbLine
 10
148.975205787795
 20
140.153976861088
 30
0.0
 11
153.8922057877949
 21
140.1539768610879
 31
0.0
  0
LINE
  5
1D8B
330
2
100
AcDbEntity
  8
Layer3
100
AcDbLine
 10
146.1837057877951
 20
170.1539768610879
 30
0.0
 11
156.6837057877951
 21
170.1539768610879
 31
0.0
  0
LINE
  5
1D90
330
2
100
AcDbEntity
  8
Layer3
100
AcDbLine
 10
63.50070578779491
 20
172.4936535702864
 30
0.0
 11
63.50070578779469
 21
150.1949834765227
 31
0.0
  0
LINE
  5
1D91
330
2
100
AcDbEntity
  8
Layer3
100
AcDbLine
 10
63.9337057877949
 20
173.4936535702864
 30
0.0
 11
63.93370578779467
 21
150.6279834765228
 31
0.0
  0
LINE
  5
1D92
330
2
100
AcDbEntity
  8
Layer3
100
AcDbLine
 10
59.3667057877949
 20
172.4936535702864
 30
0.0
 11
59.36670578779467
 21
150.1949834765227
 31
0.0
  0
LINE
  5
1D93
330
2
100
AcDbEntity
  8
Layer3
100
AcDbLine
 10
58.93370578779502
 20
173.4936535702864
 30
0.0
 11
58.93370578779479
 21
150.6279834765228
 31
0.0
  0
LINE
  5
1D94
330
2
100
AcDbEntity
  8
Layer3
100
AcDbLine
 10
58.93370578779479
 20
150.6279834765229
 30
0.0
 11
63.9337057877949
 21
150.6279834765229
 31
0.0
  0
LINE
  5
1D95
330
2
100
AcDbEntity
  8
Layer3
100
AcDbLine
 10
59.36670578779467
 20
150.1949834765227
 30
0.0
 11
63.50070578779469
 21
150.1949834765227
 31
0.0
  0
LINE
  5
1D96
330
2
100
AcDbEntity
  8
Layer3
100
AcDbLine
 10
59.36670578779467
 20
150.1949834765227
 30
0.0
 11
58.93370578779479
 21
150.6279834765229
 31
0.0
  0
LINE
  5
1D97
330
2
100
AcDbEntity
  8
Layer3
100
AcDbLine
 10
63.50070578779469
 20
150.1949834765227
 30
0.0
 11
63.93370578779467
 21
150.6279834765228
 31
0.0
  0
ARC
  5
1D98
330
2
100
AcDbEntity
  8
Layer3
100
AcDbCircle
 10
61.4337057877949
 20
164.7936535702865
 30
0.0
 40
12.0
100
AcDbArc
 50
74.50603249947545
 51
105.4939675005245
  0
LINE
  5
1D99
330
2
100
AcDbEntity
  8
Layer3
100
AcDbLine
 10
58.93370578779502
 20
172.4936535702864
 30
0.0
 11
63.9337057877949
 21
172.4936535702864
 31
0.0
  0
LINE
  5
1D9A
330
2
100
AcDbEntity
  8
Layer3
100
AcDbLine
 10
56.9337057877949
 20
173.4936535702864
 30
0.0
 11
65.93370578779491
 21
173.4936535702864
 31
0.0
  0
ARC
  5
1D9B
330
2
100
AcDbEntity
  8
Layer3
100
AcDbCircle
 10
58.65548185246257
 20
174.815702850007
 30
0.0
 40
1.6
100
AcDbArc
 50
105.4939675005245
 51
175.0000000000002
  0
LINE
  5
1D9C
330
2
100
AcDbEntity
  8
Layer3
100
AcDbLine
 10
59.3667057877949
 20
172.4936535702864
 30
0.0
 11
58.93370578779502
 21
172.9266535702866
 31
0.0
  0
LINE
  5
1D9D
330
2
100
AcDbEntity
  8
Layer3
100
AcDbLine
 10
56.9337057877949
 20
173.4936535702864
 30
0.0
 11
57.06157033551562
 21
174.9551520384033
 31
0.0
  0
ARC
  5
1D9E
330
2
100
AcDbEntity
  8
Layer3
100
AcDbCircle
 10
64.21192972312735
 20
174.815702850007
 30
0.0
 40
1.6
100
AcDbArc
 50
4.999999999999743
 51
74.50603249947545
  0
LINE
  5
1D9F
330
2
100
AcDbEntity
  8
Layer3
100
AcDbLine
 10
63.50070578779491
 20
172.4936535702864
 30
0.0
 11
63.9337057877949
 21
172.9266535702866
 31
0.0
  0
LINE
  5
1DA0
330
2
100
AcDbEntity
  8
Layer3
100
AcDbLine
 10
65.93370578779491
 20
173.4936535702864
 30
0.0
 11
65.80584124007419
 21
174.9551520384033
 31
0.0
  0
ARC
  5
1DA1
330
2
100
AcDbEntity
  8
Layer3
100
AcDbCircle
 10
61.4337057877949
 20
183.9611267379996
 30
0.0
 40
2.399999999999999
100
AcDbArc
 50
270.0
 51
277.6321463243879
  0
ARC
  5
1DA2
330
2
100
AcDbEntity
  8
Layer3
100
AcDbCircle
 10
61.4337057877949
 20
183.9611267379996
 30
0.0
 40
2.399999999999999
100
AcDbArc
 50
262.367853675612
 51
270.0
  0
LINE
  5
1DA3
330
2
100
AcDbEntity
  8
Layer3
100
AcDbLine
 10
146.1837057877951
 20
170.1539768610879
 30
0.0
 11
146.2987428958822
 21
171.4688570232832
 31
0.0
  0
LINE
  5
1DA4
330
2
100
AcDbEntity
  8
Layer3
100
AcDbLine
 10
146.1837057877951
 20
170.1539768610879
 30
0.0
 11
146.3353456620891
 21
171.8872285554531
 31
0.0
  0
LINE
  5
1DA5
330
2
100
AcDbEntity
  8
Layer3
100
AcDbLine
 10
148.975205787795
 20
169.1539768610879
 30
0.0
 11
148.975205787795
 21
140.153976861088
 31
0.0
  0
LINE
  5
1DA6
330
2
100
AcDbEntity
  8
Layer3
100
AcDbLine
 10
148.4337057877951
 20
170.1539768610879
 30
0.0
 11
148.4337057877951
 21
140.695476861088
 31
0.0
  0
LINE
  5
1DA7
330
2
100
AcDbEntity
  8
Layer3
100
AcDbLine
 10
148.975205787795
 20
140.153976861088
 30
0.0
 11
148.4337057877951
 21
140.695476861088
 31
0.0
  0
LINE
  5
1DA8
330
2
100
AcDbEntity
  8
Layer3
100
AcDbLine
 10
148.975205787795
 20
169.1539768610879
 30
0.0
 11
148.4337057877949
 21
169.6954768610879
 31
0.0
  0
ARC
  5
1DA9
330
2
100
AcDbEntity
  8
Layer3
100
AcDbCircle
 10
148.2281155884635
 20
171.7216326442326
 30
0.0
 40
1.9
100
AcDbArc
 50
105.3624850368238
 51
175.0000000000002
  0
ARC
  5
1DAA
330
2
100
AcDbEntity
  8
Layer3
100
AcDbCircle
 10
151.4337057877949
 20
183.9611267379996
 30
0.0
 40
3.2
100
AcDbArc
 50
270.0
 51
277.8489814076214
  0
ARC
  5
1DAB
330
2
100
AcDbEntity
  8
Layer3
100
AcDbCircle
 10
151.4337057877949
 20
183.9611267379996
 30
0.0
 40
3.2
100
AcDbArc
 50
262.1510185923785
 51
270.0
  0
LINE
  5
1DAC
330
2
100
AcDbEntity
  8
Layer3
100
AcDbLine
 10
238.1102057877949
 20
164.5591318436715
 30
0.0
 11
238.1102057877949
 21
135.5591318436716
 31
0.0
  0
LINE
  5
1DAD
330
2
100
AcDbEntity
  8
Layer3
100
AcDbLine
 10
237.4337057877949
 20
165.5591318436715
 30
0.0
 11
237.4337057877949
 21
136.2356318436715
 31
0.0
  0
LINE
  5
1DAE
330
2
100
AcDbEntity
  8
Layer3
100
AcDbLine
 10
244.757205787795
 20
164.5591318436715
 30
0.0
 11
244.757205787795
 21
135.5591318436716
 31
0.0
  0
LINE
  5
1DAF
330
2
100
AcDbEntity
  8
Layer3
100
AcDbLine
 10
245.4337057877949
 20
165.5591318436715
 30
0.0
 11
245.4337057877949
 21
136.2356318436715
 31
0.0
  0
LINE
  5
1DB2
330
2
100
AcDbEntity
  8
Layer3
100
AcDbLine
 10
237.4337057877949
 20
136.2356318436715
 30
0.0
 11
245.4337057877949
 21
136.2356318436715
 31
0.0
  0
LINE
  5
1DB3
330
2
100
AcDbEntity
  8
Layer3
100
AcDbLine
 10
238.1102057877949
 20
135.5591318436716
 30
0.0
 11
244.757205787795
 21
135.5591318436715
 31
0.0
  0
LINE
  5
1DB4
330
2
100
AcDbEntity
  8
Layer3
100
AcDbLine
 10
238.1102057877949
 20
135.5591318436716
 30
0.0
 11
237.4337057877949
 21
136.2356318436715
 31
0.0
  0
LINE
  5
1DB5
330
2
100
AcDbEntity
  8
Layer3
100
AcDbLine
 10
244.757205787795
 20
135.5591318436715
 30
0.0
 11
245.4337057877949
 21
136.2356318436715
 31
0.0
  0
LINE
  5
1DB6
330
2
100
AcDbEntity
  8
Layer3
100
AcDbLine
 10
156.6837057877951
 20
170.1539768610879
 30
0.0
 11
156.5686686797078
 21
171.4688570232832
 31
0.0
  0
LINE
  5
1DB7
330
2
100
AcDbEntity
  8
Layer3
100
AcDbLine
 10
156.6837057877951
 20
170.1539768610879
 30
0.0
 11
156.532065913501
 21
171.8872285554531
 31
0.0
  0
LINE
  5
1DB8
330
2
100
AcDbEntity
  8
Layer3
100
AcDbLine
 10
153.8922057877949
 20
169.1539768610879
 30
0.0
 11
153.8922057877949
 21
140.1539768610879
 31
0.0
  0
LINE
  5
1DB9
330
2
100
AcDbEntity
  8
Layer3
100
AcDbLine
 10
154.4337057877951
 20
170.1539768610879
 30
0.0
 11
154.4337057877951
 21
140.6954768610879
 31
0.0
  0
LINE
  5
1DBA
330
2
100
AcDbEntity
  8
Layer3
100
AcDbLine
 10
153.8922057877949
 20
140.1539768610879
 30
0.0
 11
154.4337057877951
 21
140.6954768610879
 31
0.0
  0
LINE
  5
1DBB
330
2
100
AcDbEntity
  8
Layer3
100
AcDbLine
 10
153.8922057877949
 20
169.1539768610879
 30
0.0
 11
154.4337057877949
 21
169.6954768610879
 31
0.0
  0
ARC
  5
1DBC
330
2
100
AcDbEntity
  8
Layer3
100
AcDbCircle
 10
154.6392959871267
 20
171.7216326442326
 30
0.0
 40
1.9
100
AcDbArc
 50
4.999999999999743
 51
74.6375149631761
  0
ARC
  5
1DBD
330
2
100
AcDbEntity
  8
Layer3
100
AcDbCircle
 10
241.4337057877949
 20
152.7591318436715
 30
0.0
 40
18.0
100
AcDbArc
 50
73.39845040098015
 51
106.6015495990198
  0
LINE
  5
1DBE
330
2
100
AcDbEntity
  8
Layer3
100
AcDbLine
 10
237.4337057877949
 20
164.5591318436715
 30
0.0
 11
245.4337057877949
 21
164.5591318436715
 31
0.0
  0
LINE
  5
1DBF
330
2
100
AcDbEntity
  8
Layer3
100
AcDbLine
 10
234.4337057877948
 20
165.5591318436715
 30
0.0
 11
248.4337057877949
 21
165.5591318436715
 31
0.0
  0
LINE
  5
1DC0
330
2
100
AcDbEntity
  8
Layer3
100
AcDbLine
 10
238.1102057877949
 20
164.5591318436715
 30
0.0
 11
237.4337057877949
 21
165.2356318436715
 31
0.0
  0
ARC
  5
1DC1
330
2
100
AcDbEntity
  8
Layer3
100
AcDbCircle
 10
237.0337057877949
 20
167.5171804951701
 30
0.0
 40
2.6
100
AcDbArc
 50
106.6015495990198
 51
180.0
  0
LINE
  5
1DC2
330
2
100
AcDbEntity
  8
Layer3
100
AcDbLine
 10
234.4337057877948
 20
167.5171804951701
 30
0.0
 11
234.4337057877948
 21
165.5591318436715
 31
0.0
  0
LINE
  5
1DC3
330
2
100
AcDbEntity
  8
Layer3
100
AcDbLine
 10
244.757205787795
 20
164.5591318436715
 30
0.0
 11
245.4337057877949
 21
165.2356318436715
 31
0.0
  0
ARC
  5
1DC4
330
2
100
AcDbEntity
  8
Layer3
100
AcDbCircle
 10
245.8337057877948
 20
167.5171804951701
 30
0.0
 40
2.6
100
AcDbArc
 50
0.0
 51
73.39845040098015
  0
LINE
  5
1DC5
330
2
100
AcDbEntity
  8
Layer3
100
AcDbLine
 10
248.4337057877949
 20
167.5171804951701
 30
0.0
 11
248.4337057877949
 21
165.5591318436715
 31
0.0
  0
ARC
  5
1DC6
330
2
100
AcDbEntity
  8
Layer3
100
AcDbCircle
 10
241.4337057877949
 20
183.9611267379996
 30
0.0
 40
3.85
100
AcDbArc
 50
261.598791410323
 51
278.4012085896768
  0
LINE
  5
1DC8
330
2
100
AcDbEntity
  8
Layer3
100
AcDbLine
 10
-211.816294212205
 20
183.9611267379996
 30
0.0
 11
-205.3162942122052
 21
183.9611267379996
 31
0.0
  0
ARC
  5
1DCA
330
2
100
AcDbEntity
  8
Layer3
100
AcDbCircle
 10
-209.852694212205
 20
185.2475267379996
 30
0.0
 40
1.098899999999998
100
AcDbArc
 50
269.999619211544
 51
0.0003807884510367
  0
ARC
  5
1DCB
330
2
100
AcDbEntity
  8
Layer3
100
AcDbCircle
 10
-209.852694212205
 20
182.6747267379996
 30
0.0
 40
1.098899999999998
100
AcDbArc
 50
359.9996192115489
 51
90.00038078845268
  0
ARC
  5
1DCC
330
2
100
AcDbEntity
  8
Layer3
100
AcDbCircle
 10
-208.5662942122051
 20
183.9611267379996
 30
0.0
 40
1.3
100
AcDbArc
 50
171.707262714757
 51
180.0
  0
ARC
  5
1DCD
330
2
100
AcDbEntity
  8
Layer3
100
AcDbCircle
 10
-208.5662942122051
 20
183.9611267379996
 30
0.0
 40
1.3
100
AcDbArc
 50
180.0
 51
188.292737285243
  0
ARC
  5
1DCE
330
2
100
AcDbEntity
  8
Layer3
100
AcDbCircle
 10
-207.2798942122052
 20
185.2475267379996
 30
0.0
 40
1.098899999999998
100
AcDbArc
 50
179.9996192115489
 51
270.0003807884526
  0
ARC
  5
1DCF
330
2
100
AcDbEntity
  8
Layer3
100
AcDbCircle
 10
-208.5662942122051
 20
183.9611267379996
 30
0.0
 40
1.3
100
AcDbArc
 50
270.0
 51
278.2927372852378
  0
ARC
  5
1DD0
330
2
100
AcDbEntity
  8
Layer3
100
AcDbCircle
 10
-208.5662942122051
 20
183.9611267379996
 30
0.0
 40
1.3
100
AcDbArc
 50
351.707262714757
 51
0.0
  0
ARC
  5
1DD1
330
2
100
AcDbEntity
  8
Layer3
100
AcDbCircle
 10
-208.5662942122051
 20
183.9611267379996
 30
0.0
 40
1.3
100
AcDbArc
 50
0.0
 51
8.292737285242992
  0
ARC
  5
1DD2
330
2
100
AcDbEntity
  8
Layer3
100
AcDbCircle
 10
-207.2798942122052
 20
182.6747267379996
 30
0.0
 40
1.098899999999998
100
AcDbArc
 50
89.99961921154733
 51
180.000380788451
  0
ARC
  5
1DD3
330
2
100
AcDbEntity
  8
Layer3
100
AcDbCircle
 10
-208.5662942122051
 20
183.9611267379996
 30
0.0
 40
1.3
100
AcDbArc
 50
261.707262714762
 51
270.0
  0
ARC
  5
1DD4
330
2
100
AcDbEntity
  8
Layer3
100
AcDbCircle
 10
-208.5662942122051
 20
183.9611267379996
 30
0.0
 40
1.3
100
AcDbArc
 50
81.70726271476208
 51
90.0
  0
ARC
  5
1DD5
330
2
100
AcDbEntity
  8
Layer3
100
AcDbCircle
 10
-208.5662942122051
 20
183.9611267379996
 30
0.0
 40
1.3
100
AcDbArc
 50
90.0
 51
98.29273728523794
  0
LINE
  5
1DD6
330
2
100
AcDbEntity
  8
Layer3
100
AcDbLine
 10
-122.316294212205
 20
183.9611267379996
 30
0.0
 11
-114.8162942122051
 21
183.9611267379996
 31
0.0
  0
ARC
  5
1DD7
330
2
100
AcDbEntity
  8
Layer3
100
AcDbCircle
 10
-120.306194212205
 20
185.7010267379996
 30
0.0
 40
1.5524
100
AcDbArc
 50
269.9990269844897
 51
0.0009730155102177
  0
ARC
  5
1DD8
330
2
100
AcDbEntity
  8
Layer3
100
AcDbCircle
 10
-120.306194212205
 20
182.2212267379996
 30
0.0
 40
1.5524
100
AcDbArc
 50
359.9990269844898
 51
90.0009730155102
  0
ARC
  5
1DD9
330
2
100
AcDbEntity
  8
Layer3
100
AcDbCircle
 10
-118.566294212205
 20
183.9611267379996
 30
0.0
 40
1.75
100
AcDbArc
 50
263.8493601646898
 51
270.0
  0
ARC
  5
1DDA
330
2
100
AcDbEntity
  8
Layer3
100
AcDbCircle
 10
-118.566294212205
 20
183.9611267379996
 30
0.0
 40
1.75
100
AcDbArc
 50
90.0
 51
96.15063983531015
  0
ARC
  5
1DDB
330
2
100
AcDbEntity
  8
Layer3
100
AcDbCircle
 10
-116.8263942122051
 20
185.7010267379996
 30
0.0
 40
1.5524
100
AcDbArc
 50
179.9990269844897
 51
270.0009730155102
  0
ARC
  5
1DDC
330
2
100
AcDbEntity
  8
Layer3
100
AcDbCircle
 10
-116.8263942122051
 20
182.2212267379996
 30
0.0
 40
1.5524
100
AcDbArc
 50
89.99902698448979
 51
180.0009730155101
  0
ARC
  5
1DDD
330
2
100
AcDbEntity
  8
Layer3
100
AcDbCircle
 10
-118.566294212205
 20
183.9611267379996
 30
0.0
 40
1.75
100
AcDbArc
 50
180.0
 51
186.1506398353117
  0
ARC
  5
1DDE
330
2
100
AcDbEntity
  8
Layer3
100
AcDbCircle
 10
-118.566294212205
 20
183.9611267379996
 30
0.0
 40
1.75
100
AcDbArc
 50
173.8493601646882
 51
180.0
  0
ARC
  5
1DDF
330
2
100
AcDbEntity
  8
Layer3
100
AcDbCircle
 10
-118.566294212205
 20
183.9611267379996
 30
0.0
 40
1.75
100
AcDbArc
 50
353.8493601646882
 51
0.0
  0
ARC
  5
1DE0
330
2
100
AcDbEntity
  8
Layer3
100
AcDbCircle
 10
-118.566294212205
 20
183.9611267379996
 30
0.0
 40
1.75
100
AcDbArc
 50
0.0
 51
6.150639835311771
  0
ARC
  5
1DE1
330
2
100
AcDbEntity
  8
Layer3
100
AcDbCircle
 10
-118.566294212205
 20
183.9611267379996
 30
0.0
 40
1.75
100
AcDbArc
 50
270.0
 51
276.1506398353101
  0
ARC
  5
1DE2
330
2
100
AcDbEntity
  8
Layer3
100
AcDbCircle
 10
-118.566294212205
 20
183.9611267379996
 30
0.0
 40
1.75
100
AcDbArc
 50
83.84936016468984
 51
90.0
  0
LINE
  5
1DE3
330
2
100
AcDbEntity
  8
Layer3
100
AcDbLine
 10
-33.0662942122052
 20
183.9611267379996
 30
0.0
 11
-24.06629421220509
 21
183.9611267379996
 31
0.0
  0
ARC
  5
1DE5
330
2
100
AcDbEntity
  8
Layer3
100
AcDbCircle
 10
-26.53659421220516
 20
185.9908267379996
 30
0.0
 40
1.742199999999999
100
AcDbArc
 50
179.9986903345002
 51
270.0013096654964
  0
ARC
  5
1DE6
330
2
100
AcDbEntity
  8
Layer3
100
AcDbCircle
 10
-30.59599421220525
 20
185.9908267379996
 30
0.0
 40
1.742199999999999
100
AcDbArc
 50
269.9986903345035
 51
0.0013096654997424
  0
ARC
  5
1DE7
330
2
100
AcDbEntity
  8
Layer3
100
AcDbCircle
 10
-28.56629421220509
 20
183.9611267379996
 30
0.0
 40
2.049999999999998
100
AcDbArc
 50
171.9380399160178
 51
180.0
  0
ARC
  5
1DE8
330
2
100
AcDbEntity
  8
Layer3
100
AcDbCircle
 10
-28.56629421220509
 20
183.9611267379996
 30
0.0
 40
2.049999999999998
100
AcDbArc
 50
180.0
 51
188.0619600839821
  0
ARC
  5
1DE9
330
2
100
AcDbEntity
  8
Layer3
100
AcDbCircle
 10
-28.56629421220509
 20
183.9611267379996
 30
0.0
 40
2.049999999999998
100
AcDbArc
 50
81.93803991601813
 51
90.0
  0
ARC
  5
1DEA
330
2
100
AcDbEntity
  8
Layer3
100
AcDbCircle
 10
-28.56629421220509
 20
183.9611267379996
 30
0.0
 40
2.049999999999998
100
AcDbArc
 50
90.0
 51
98.06196008398188
  0
ARC
  5
1DEB
330
2
100
AcDbEntity
  8
Layer3
100
AcDbCircle
 10
-28.56629421220509
 20
183.9611267379996
 30
0.0
 40
2.049999999999998
100
AcDbArc
 50
351.9380399160179
 51
0.0
  0
ARC
  5
1DEC
330
2
100
AcDbEntity
  8
Layer3
100
AcDbCircle
 10
-28.56629421220509
 20
183.9611267379996
 30
0.0
 40
2.049999999999998
100
AcDbArc
 50
0.0
 51
8.061960083982105
  0
LINE
  5
1DED
330
2
100
AcDbEntity
  8
Layer3
100
AcDbLine
 10
145.1837057877949
 20
183.9611267379996
 30
0.0
 11
157.6837057877949
 21
183.9611267379996
 31
0.0
  0
ARC
  5
1DEE
330
2
100
AcDbEntity
  8
Layer3
100
AcDbCircle
 10
154.6037057877949
 20
187.1311267379996
 30
0.0
 40
2.733
100
AcDbArc
 50
179.9995668249875
 51
270.0004331750107
  0
LINE
  5
1DF0
330
2
100
AcDbEntity
  8
Layer3
100
AcDbLine
 10
55.93370578779491
 20
183.9611267379996
 30
0.0
 11
66.93370578779502
 21
183.9611267379996
 31
0.0
  0
ARC
  5
1DF1
330
2
100
AcDbEntity
  8
Layer3
100
AcDbCircle
 10
59.05495578779505
 20
186.3398767379996
 30
0.0
 40
2.06
100
AcDbArc
 50
270.0003105823236
 51
359.9996894176763
  0
ARC
  5
1DF3
330
2
100
AcDbEntity
  8
Layer3
100
AcDbCircle
 10
61.4337057877949
 20
183.9611267379996
 30
0.0
 40
2.399999999999999
100
AcDbArc
 50
172.3678536756122
 51
180.0
  0
ARC
  5
1DF4
330
2
100
AcDbEntity
  8
Layer3
100
AcDbCircle
 10
61.4337057877949
 20
183.9611267379996
 30
0.0
 40
2.399999999999999
100
AcDbArc
 50
180.0
 51
187.6321463243877
  0
ARC
  5
1DF5
330
2
100
AcDbEntity
  8
Layer3
100
AcDbCircle
 10
61.4337057877949
 20
183.9611267379996
 30
0.0
 40
2.399999999999999
100
AcDbArc
 50
0.0
 51
7.632146324387709
  0
ARC
  5
1DF6
330
2
100
AcDbEntity
  8
Layer3
100
AcDbCircle
 10
61.4337057877949
 20
183.9611267379996
 30
0.0
 40
2.399999999999999
100
AcDbArc
 50
352.3678536756122
 51
0.0
  0
ARC
  5
1DF7
330
2
100
AcDbEntity
  8
Layer3
100
AcDbCircle
 10
61.4337057877949
 20
183.9611267379996
 30
0.0
 40
2.399999999999999
100
AcDbArc
 50
90.0
 51
97.63214632438792
  0
ARC
  5
1DF8
330
2
100
AcDbEntity
  8
Layer3
100
AcDbCircle
 10
61.4337057877949
 20
183.9611267379996
 30
0.0
 40
2.399999999999999
100
AcDbArc
 50
82.36785367561209
 51
90.0
  0
ARC
  5
1DF9
330
2
100
AcDbEntity
  8
Layer3
100
AcDbCircle
 10
63.81245578779488
 20
186.3398767379996
 30
0.0
 40
2.06
100
AcDbArc
 50
180.0003105823236
 51
269.9996894176763
  0
ARC
  5
1DFA
330
2
100
AcDbEntity
  8
Layer3
100
AcDbCircle
 10
148.2637057877949
 20
187.1311267379996
 30
0.0
 40
2.733
100
AcDbArc
 50
269.9995668249859
 51
0.0004331750123991
  0
ARC
  5
1DFB
330
2
100
AcDbEntity
  8
Layer3
100
AcDbCircle
 10
151.4337057877949
 20
183.9611267379996
 30
0.0
 40
3.2
100
AcDbArc
 50
172.1510185923783
 51
180.0
  0
ARC
  5
1DFC
330
2
100
AcDbEntity
  8
Layer3
100
AcDbCircle
 10
151.4337057877949
 20
183.9611267379996
 30
0.0
 40
3.2
100
AcDbArc
 50
180.0
 51
187.8489814076216
  0
ARC
  5
1DFD
330
2
100
AcDbEntity
  8
Layer3
100
AcDbCircle
 10
151.4337057877949
 20
183.9611267379996
 30
0.0
 40
3.2
100
AcDbArc
 50
82.15101859237854
 51
90.0
  0
ARC
  5
1DFE
330
2
100
AcDbEntity
  8
Layer3
100
AcDbCircle
 10
151.4337057877949
 20
183.9611267379996
 30
0.0
 40
3.2
100
AcDbArc
 50
90.0
 51
97.84898140762145
  0
LINE
  5
1DFF
330
2
100
AcDbEntity
  8
Layer3
100
AcDbLine
 10
233.4337057877949
 20
183.9611267379996
 30
0.0
 11
249.4337057877948
 21
183.9611267379996
 31
0.0
  0
ARC
  5
1E00
330
2
100
AcDbEntity
  8
Layer3
100
AcDbCircle
 10
151.4337057877949
 20
183.9611267379996
 30
0.0
 40
3.2
100
AcDbArc
 50
352.1510185923783
 51
0.0
  0
ARC
  5
1E01
330
2
100
AcDbEntity
  8
Layer3
100
AcDbCircle
 10
151.4337057877949
 20
183.9611267379996
 30
0.0
 40
3.2
100
AcDbArc
 50
0.0
 51
7.848981407621676
  0
ARC
  5
1E02
330
2
100
AcDbEntity
  8
Layer3
100
AcDbCircle
 10
245.242405787795
 20
187.7698267379996
 30
0.0
 40
3.246199999999998
100
AcDbArc
 50
180.0
 51
270.0
  0
ARC
  5
1E03
330
2
100
AcDbEntity
  8
Layer3
100
AcDbCircle
 10
237.6250057877949
 20
187.7698267379996
 30
0.0
 40
3.246199999999998
100
AcDbArc
 50
270.0
 51
0.0
  0
ARC
  5
1E04
330
2
100
AcDbEntity
  8
Layer3
100
AcDbCircle
 10
241.4337057877949
 20
183.9611267379996
 30
0.0
 40
3.85
100
AcDbArc
 50
171.598791410323
 51
188.4012085896753
  0
ARC
  5
1E05
330
2
100
AcDbEntity
  8
Layer3
100
AcDbCircle
 10
241.4337057877949
 20
183.9611267379996
 30
0.0
 40
3.85
100
AcDbArc
 50
81.59879141032311
 51
98.40120858967688
  0
ARC
  5
1E06
330
2
100
AcDbEntity
  8
Layer3
100
AcDbCircle
 10
241.4337057877949
 20
183.9611267379996
 30
0.0
 40
3.85
100
AcDbArc
 50
351.5987914103247
 51
8.401208589676899
  0
LINE
  5
1E11
330
2
100
AcDbEntity
  8
Layer1
100
AcDbLine
 10
286.4337057877949
 20
689.5189634592607
 30
0.0
 11
-343.5662942122049
 21
689.5189634592602
 31
0.0
  0
MTEXT
  5
1E1D
330
2
100
AcDbEntity
  8
Layer4
100
AcDbMText
 10
-340.697552037858
 20
857.7024063924714
 30
0.0
 40
30.0
 41
2653.405
 71
     1
 72
     5
  1
（十字穴付き皿小ねじ）
 73
     1
 44
1.0
  0
MTEXT
  5
1E1E
330
2
100
AcDbEntity
  8
Layer4
100
AcDbMText
 10
-226.2218410578954
 20
790.6799567519128
 30
0.0
 40
12.0
 41
2653.405
 71
     1
 72
     5
  1
M2.5
 73
     1
 44
1.0
  0
MTEXT
  5
1E1F
330
2
100
AcDbEntity
  8
Layer4
100
AcDbMText
 10
-128.7141968502393
 20
790.6799567519129
 30
0.0
 40
12.0
 41
2653.405
 71
     1
 72
     5
  1
M3
 73
     1
 44
1.0
  0
MTEXT
  5
1E20
330
2
100
AcDbEntity
  8
Layer4
100
AcDbMText
 10
-35.90609971677816
 20
790.6799567519129
 30
0.0
 40
12.0
 41
2653.405
 71
     1
 72
     5
  1
M4
 73
     1
 44
1.0
  0
MTEXT
  5
1E21
330
2
100
AcDbEntity
  8
Layer4
100
AcDbMText
 10
51.41920092800313
 20
790.679956751913
 30
0.0
 40
12.0
 41
2653.405
 71
     1
 72
     5
  1
M5
 73
     1
 44
1.0
  0
MTEXT
  5
1E22
330
2
100
AcDbEntity
  8
Layer4
100
AcDbMText
 10
140.3756952288584
 20
790.679956751913
 30
0.0
 40
12.0
 41
2653.405
 71
     1
 72
     5
  1
M6
 73
     1
 44
1.0
  0
MTEXT
  5
1E23
330
2
100
AcDbEntity
  8
Layer4
100
AcDbMText
 10
234.3339640754728
 20
790.6799567519132
 30
0.0
 40
12.0
 41
2653.405
 71
     1
 72
     5
  1
M8
 73
     1
 44
1.0
  0
MTEXT
  5
1E26
330
2
100
AcDbEntity
  8
Layer4
100
AcDbMText
 10
-247.8909722249489
 20
676.6827747966893
 30
0.0
 40
10.0
 41
2653.405
 71
     1
 72
     5
  1
L=6-30mm
 73
     1
 44
1.0
  0
MTEXT
  5
1E27
330
2
100
AcDbEntity
  8
Layer4
100
AcDbMText
 10
-159.6740831496717
 20
676.6827747966892
 30
0.0
 40
10.0
 41
2653.405
 71
     1
 72
     5
  1
L=6-40mm
 73
     1
 44
1.0
  0
MTEXT
  5
1E28
330
2
100
AcDbEntity
  8
Layer4
100
AcDbMText
 10
-67.85049066110514
 20
676.6827747966893
 30
0.0
 40
10.0
 41
2653.405
 71
     1
 72
     5
  1
L=8-50mm
 73
     1
 44
1.0
  0
MTEXT
  5
1E29
330
2
100
AcDbEntity
  8
Layer4
100
AcDbMText
 10
22.32124326131275
 20
676.682774796689
 30
0.0
 40
10.0
 41
2653.405
 71
     1
 72
     5
  1
L=10-50mm
 73
     1
 44
1.0
  0
MTEXT
  5
1E2A
330
2
100
AcDbEntity
  8
Layer4
100
AcDbMText
 10
111.7322580858317
 20
676.6827747966896
 30
0.0
 40
10.0
 41
2653.405
 71
     1
 72
     5
  1
L=12-60mm
 73
     1
 44
1.0
  0
MTEXT
  5
1E2B
330
2
100
AcDbEntity
  8
Layer4
100
AcDbMText
 10
198.8077839607267
 20
676.6827747966896
 30
0.0
 40
10.0
 41
2653.405
 71
     1
 72
     5
  1
L=14-60mm
 73
     1
 44
1.0
  0
LINE
  5
1E2D
330
2
100
AcDbEntity
  8
Layer1
100
AcDbLine
 10
-253.566294212205
 20
648.2527365511558
 30
0.0
 11
-253.566294212205
 21
809.51896345926
 31
0.0
  0
LINE
  5
1E2E
330
2
100
AcDbEntity
  8
Layer1
100
AcDbLine
 10
-163.5662942122049
 20
648.2527365511558
 30
0.0
 11
-163.566294212205
 21
809.51896345926
 31
0.0
  0
LINE
  5
1E2F
330
2
100
AcDbEntity
  8
Layer1
100
AcDbLine
 10
-73.566294212205
 20
648.2527365511558
 30
0.0
 11
-73.5662942122051
 21
809.51896345926
 31
0.0
  0
LINE
  5
1E30
330
2
100
AcDbEntity
  8
Layer1
100
AcDbLine
 10
16.43370578779499
 20
648.2527365511558
 30
0.0
 11
16.43370578779487
 21
809.51896345926
 31
0.0
  0
LINE
  5
1E31
330
2
100
AcDbEntity
  8
Layer1
100
AcDbLine
 10
106.4337057877949
 20
648.2527365511558
 30
0.0
 11
106.4337057877948
 21
809.51896345926
 31
0.0
  0
LINE
  5
1E32
330
2
100
AcDbEntity
  8
Layer1
100
AcDbLine
 10
196.4337057877949
 20
648.2527365511558
 30
0.0
 11
196.4337057877948
 21
809.51896345926
 31
0.0
  0
LINE
  5
1E33
330
2
100
AcDbEntity
  8
Layer1
100
AcDbLine
 10
286.4337057877949
 20
648.2527365511558
 30
0.0
 11
286.4337057877948
 21
809.51896345926
 31
0.0
  0
MTEXT
  5
1E3F
330
2
100
AcDbEntity
  8
Layer4
100
AcDbMText
 10
111.7322580858317
 20
396.491083493077
 30
0.0
 40
10.0
 41
2653.405
 71
     1
 72
     5
  1
L=12-60mm
 73
     1
 44
1.0
  0
LINE
  5
1E40
330
2
100
AcDbEntity
  8
Layer1
100
AcDbLine
 10
286.4337057877948
 20
409.3272721556476
 30
0.0
 11
-343.5662942122048
 21
409.3272721556478
 31
0.0
  0
LINE
  5
1E41
330
2
100
AcDbEntity
  8
Layer1
100
AcDbLine
 10
286.4337057877948
 20
409.3272721556481
 30
0.0
 11
-343.5662942122049
 21
409.3272721556477
 31
0.0
  0
LINE
  5
1E42
330
2
100
AcDbEntity
  8
Layer1
100
AcDbLine
 10
286.4337057877948
 20
368.0610452475432
 30
0.0
 11
-343.5662942122049
 21
368.0610452475432
 31
0.0
  0
LINE
  5
1E43
330
2
100
AcDbEntity
  8
Layer1
100
AcDbLine
 10
286.4337057877948
 20
479.3272721556475
 30
0.0
 11
-343.5662942122049
 21
479.3272721556473
 31
0.0
  0
LINE
  5
1E44
330
2
100
AcDbEntity
  8
Layer1
100
AcDbLine
 10
286.4337057877948
 20
529.3272721556474
 30
0.0
 11
-343.5662942122049
 21
529.3272721556473
 31
0.0
  0
LINE
  5
1E4D
330
2
100
AcDbEntity
  8
Layer1
100
AcDbLine
 10
-343.5662942122049
 20
368.0610452475432
 30
0.0
 11
-343.566294212205
 21
529.3272721556474
 31
0.0
  0
LINE
  5
1E4E
330
2
100
AcDbEntity
  8
Layer1
100
AcDbLine
 10
-253.566294212205
 20
368.0610452475432
 30
0.0
 11
-253.566294212205
 21
529.3272721556474
 31
0.0
  0
LINE
  5
1E4F
330
2
100
AcDbEntity
  8
Layer1
100
AcDbLine
 10
-163.5662942122049
 20
368.0610452475432
 30
0.0
 11
-163.566294212205
 21
529.3272721556474
 31
0.0
  0
LINE
  5
1E50
330
2
100
AcDbEntity
  8
Layer1
100
AcDbLine
 10
-73.56629421220498
 20
368.0610452475432
 30
0.0
 11
-73.56629421220509
 21
529.3272721556474
 31
0.0
  0
LINE
  5
1E51
330
2
100
AcDbEntity
  8
Layer1
100
AcDbLine
 10
16.43370578779502
 20
368.0610452475432
 30
0.0
 11
16.4337057877949
 21
529.3272721556474
 31
0.0
  0
LINE
  5
1E52
330
2
100
AcDbEntity
  8
Layer1
100
AcDbLine
 10
106.4337057877949
 20
368.0610452475432
 30
0.0
 11
106.4337057877948
 21
529.3272721556474
 31
0.0
  0
MTEXT
  5
1E53
330
2
100
AcDbEntity
  8
Layer4
100
AcDbMText
 10
-338.3656861049457
 20
396.4910834930766
 30
0.0
 40
10.0
 41
2653.405
 71
     1
 72
     5
  1
L=5-20mm
 73
     1
 44
1.0
  0
MTEXT
  5
1E71
330
2
100
AcDbEntity
  8
Layer4
100
AcDbMText
 10
-305.714559030076
 20
510.4882654483003
 30
0.0
 40
12.0
 41
2653.405
 71
     1
 72
     5
  1
M2
 73
     1
 44
1.0
  0
MTEXT
  5
1E72
330
2
100
AcDbEntity
  8
Layer4
100
AcDbMText
 10
-67.85049066110514
 20
396.4910834930768
 30
0.0
 40
10.0
 41
2653.405
 71
     1
 72
     5
  1
L=8-50mm
 73
     1
 44
1.0
  0
MTEXT
  5
1E73
330
2
100
AcDbEntity
  8
Layer4
100
AcDbMText
 10
-159.6740831496717
 20
396.4910834930766
 30
0.0
 40
10.0
 41
2653.405
 71
     1
 72
     5
  1
L=6-40mm
 73
     1
 44
1.0
  0
MTEXT
  5
1E74
330
2
100
AcDbEntity
  8
Layer4
100
AcDbMText
 10
-247.8909722249489
 20
396.4910834930767
 30
0.0
 40
10.0
 41
2653.405
 71
     1
 72
     5
  1
L=6-30mm
 73
     1
 44
1.0
  0
MTEXT
  5
1E95
330
2
100
AcDbEntity
  8
Layer4
100
AcDbMText
 10
-226.2218410578954
 20
510.4882654483003
 30
0.0
 40
12.0
 41
2653.405
 71
     1
 72
     5
  1
M2.5
 73
     1
 44
1.0
  0
MTEXT
  5
1EB6
330
2
100
AcDbEntity
  8
Layer4
100
AcDbMText
 10
-128.7141968502393
 20
510.4882654483004
 30
0.0
 40
12.0
 41
2653.405
 71
     1
 72
     5
  1
M3
 73
     1
 44
1.0
  0
MTEXT
  5
1EB7
330
2
100
AcDbEntity
  8
Layer4
100
AcDbMText
 10
22.32124326131275
 20
396.4910834930765
 30
0.0
 40
10.0
 41
2653.405
 71
     1
 72
     5
  1
L=10-50mm
 73
     1
 44
1.0
  0
MTEXT
  5
1EBD
330
2
100
AcDbEntity
  8
Layer4
100
AcDbMText
 10
51.41920092800313
 20
510.4882654483005
 30
0.0
 40
12.0
 41
2653.405
 71
     1
 72
     5
  1
M5
 73
     1
 44
1.0
  0
MTEXT
  5
1EDF
330
2
100
AcDbEntity
  8
Layer4
100
AcDbMText
 10
-35.90609971677816
 20
510.4882654483004
 30
0.0
 40
12.0
 41
2653.405
 71
     1
 72
     5
  1
M4
 73
     1
 44
1.0
  0
MTEXT
  5
1F1A
330
2
100
AcDbEntity
  8
Layer4
100
AcDbMText
 10
140.3756952288584
 20
510.4882654483005
 30
0.0
 40
12.0
 41
2653.405
 71
     1
 72
     5
  1
M6
 73
     1
 44
1.0
  0
MTEXT
  5
1F1B
330
2
100
AcDbEntity
  8
Layer4
100
AcDbMText
 10
-340.697552037858
 20
577.5107150888588
 30
0.0
 40
30.0
 41
2653.405
 71
     1
 72
     5
  1
（十字穴付き丸皿小ねじ）
 73
     1
 44
1.0
  0
LINE
  5
1F1C
330
2
100
AcDbEntity
  8
Layer1
100
AcDbLine
 10
196.4337057877949
 20
368.0610452475432
 30
0.0
 11
196.4337057877949
 21
529.3272721556474
 31
0.0
  0
LINE
  5
1F1D
330
2
100
AcDbEntity
  8
Layer1
100
AcDbLine
 10
286.4337057877948
 20
368.0610452475432
 30
0.0
 11
286.4337057877948
 21
529.3272721556474
 31
0.0
  0
MTEXT
  5
1F1F
330
2
100
AcDbEntity
  8
Layer4
100
AcDbMText
 10
198.8077839607267
 20
396.491083493077
 30
0.0
 40
10.0
 41
2653.405
 71
     1
 72
     5
  1
L=14-60mm
 73
     1
 44
1.0
  0
MTEXT
  5
1F40
330
2
100
AcDbEntity
  8
Layer4
100
AcDbMText
 10
234.3339640754728
 20
510.4882654483007
 30
0.0
 40
12.0
 41
2653.405
 71
     1
 72
     5
  1
M8
 73
     1
 44
1.0
  0
LINE
  5
1F48
330
2
100
AcDbEntity
  8
Layer1
100
AcDbLine
 10
-343.5662942122049
 20
87.86935394393072
 30
0.0
 11
-343.566294212205
 21
249.1355808520349
 31
0.0
  0
LINE
  5
1F49
330
2
100
AcDbEntity
  8
Layer1
100
AcDbLine
 10
-253.566294212205
 20
87.86935394393072
 30
0.0
 11
-253.566294212205
 21
249.1355808520349
 31
0.0
  0
LINE
  5
1F4A
330
2
100
AcDbEntity
  8
Layer1
100
AcDbLine
 10
-163.5662942122049
 20
87.86935394393072
 30
0.0
 11
-163.566294212205
 21
249.1355808520349
 31
0.0
  0
LINE
  5
1F4B
330
2
100
AcDbEntity
  8
Layer1
100
AcDbLine
 10
-73.56629421220498
 20
87.86935394393072
 30
0.0
 11
-73.56629421220509
 21
249.1355808520349
 31
0.0
  0
LINE
  5
1F4C
330
2
100
AcDbEntity
  8
Layer1
100
AcDbLine
 10
16.43370578779502
 20
87.86935394393072
 30
0.0
 11
16.4337057877949
 21
249.1355808520349
 31
0.0
  0
LINE
  5
1F4D
330
2
100
AcDbEntity
  8
Layer1
100
AcDbLine
 10
106.4337057877949
 20
87.86935394393072
 30
0.0
 11
106.4337057877948
 21
249.1355808520349
 31
0.0
  0
LINE
  5
1F4E
330
2
100
AcDbEntity
  8
Layer1
100
AcDbLine
 10
196.4337057877949
 20
87.86935394393072
 30
0.0
 11
196.4337057877949
 21
249.1355808520349
 31
0.0
  0
LINE
  5
1F4F
330
2
100
AcDbEntity
  8
Layer1
100
AcDbLine
 10
286.4337057877948
 20
87.86935394393072
 30
0.0
 11
286.4337057877948
 21
249.1355808520349
 31
0.0
  0
MTEXT
  5
1F51
330
2
100
AcDbEntity
  8
Layer4
100
AcDbMText
 10
111.7322580858317
 20
116.2993921894645
 30
0.0
 40
10.0
 41
2653.405
 71
     1
 72
     5
  1
L=12-60mm
 73
     1
 44
1.0
  0
LINE
  5
1F52
330
2
100
AcDbEntity
  8
Layer1
100
AcDbLine
 10
286.4337057877948
 20
87.86935394393072
 30
0.0
 11
-343.5662942122049
 21
87.86935394393072
 31
0.0
  0
MTEXT
  5
1F53
330
2
100
AcDbEntity
  8
Layer4
100
AcDbMText
 10
-338.3656861049457
 20
116.2993921894641
 30
0.0
 40
10.0
 41
2653.405
 71
     1
 72
     5
  1
L=5-20mm
 73
     1
 44
1.0
  0
MTEXT
  5
1F54
330
2
100
AcDbEntity
  8
Layer4
100
AcDbMText
 10
-67.85049066110514
 20
116.2993921894643
 30
0.0
 40
10.0
 41
2653.405
 71
     1
 72
     5
  1
L=8-50mm
 73
     1
 44
1.0
  0
MTEXT
  5
1F55
330
2
100
AcDbEntity
  8
Layer4
100
AcDbMText
 10
-159.6740831496717
 20
116.2993921894641
 30
0.0
 40
10.0
 41
2653.405
 71
     1
 72
     5
  1
L=6-40mm
 73
     1
 44
1.0
  0
MTEXT
  5
1F56
330
2
100
AcDbEntity
  8
Layer4
100
AcDbMText
 10
-247.8909722249489
 20
116.2993921894642
 30
0.0
 40
10.0
 41
2653.405
 71
     1
 72
     5
  1
L=6-30mm
 73
     1
 44
1.0
  0
MTEXT
  5
1F57
330
2
100
AcDbEntity
  8
Layer4
100
AcDbMText
 10
22.32124326131275
 20
116.299392189464
 30
0.0
 40
10.0
 41
2653.405
 71
     1
 72
     5
  1
L=10-50mm
 73
     1
 44
1.0
  0
MTEXT
  5
1F58
330
2
100
AcDbEntity
  8
Layer4
100
AcDbMText
 10
198.8077839607267
 20
116.2993921894645
 30
0.0
 40
10.0
 41
2653.405
 71
     1
 72
     5
  1
L=14-60mm
 73
     1
 44
1.0
  0
LINE
  5
1F59
330
2
100
AcDbEntity
  8
Layer1
100
AcDbLine
 10
286.4337057877948
 20
249.1355808520348
 30
0.0
 11
-343.5662942122049
 21
249.1355808520347
 31
0.0
  0
LINE
  5
1F5B
330
2
100
AcDbEntity
  8
Layer1
100
AcDbLine
 10
286.4337057877948
 20
129.1355808520351
 30
0.0
 11
-343.5662942122048
 21
129.1355808520353
 31
0.0
  0
LINE
  5
1F5C
330
2
100
AcDbEntity
  8
Layer1
100
AcDbLine
 10
286.4337057877948
 20
129.1355808520356
 30
0.0
 11
-343.5662942122049
 21
129.1355808520352
 31
0.0
  0
LINE
  5
1F5D
330
2
100
AcDbEntity
  8
Layer1
100
AcDbLine
 10
286.4337057877948
 20
199.1355808520351
 30
0.0
 11
-343.5662942122049
 21
199.1355808520347
 31
0.0
  0
MTEXT
  5
1F5E
330
2
100
AcDbEntity
  8
Layer4
100
AcDbMText
 10
-340.697552037858
 20
297.3190237852463
 30
0.0
 40
30.0
 41
2653.405
 71
     1
 72
     5
  1
（十字穴付きなべ小ねじ）
 73
     1
 44
1.0
  0
MTEXT
  5
1F5F
330
2
100
AcDbEntity
  8
Layer4
100
AcDbMText
 10
-305.714559030076
 20
230.2965741446878
 30
0.0
 40
12.0
 41
2653.405
 71
     1
 72
     5
  1
M2
 73
     1
 44
1.0
  0
MTEXT
  5
1F7D
330
2
100
AcDbEntity
  8
Layer4
100
AcDbMText
 10
-128.7141968502393
 20
230.2965741446879
 30
0.0
 40
12.0
 41
2653.405
 71
     1
 72
     5
  1
M3
 73
     1
 44
1.0
  0
MTEXT
  5
1F7E
330
2
100
AcDbEntity
  8
Layer4
100
AcDbMText
 10
-226.2218410578954
 20
230.2965741446878
 30
0.0
 40
12.0
 41
2653.405
 71
     1
 72
     5
  1
M2.5
 73
     1
 44
1.0
  0
MTEXT
  5
1FBF
330
2
100
AcDbEntity
  8
Layer4
100
AcDbMText
 10
140.3756952288584
 20
230.296574144688
 30
0.0
 40
12.0
 41
2653.405
 71
     1
 72
     5
  1
M6
 73
     1
 44
1.0
  0
MTEXT
  5
1FC0
330
2
100
AcDbEntity
  8
Layer4
100
AcDbMText
 10
-35.90609971677816
 20
230.2965741446879
 30
0.0
 40
12.0
 41
2653.405
 71
     1
 72
     5
  1
M4
 73
     1
 44
1.0
  0
MTEXT
  5
1FC1
330
2
100
AcDbEntity
  8
Layer4
100
AcDbMText
 10
51.41920092800313
 20
230.296574144688
 30
0.0
 40
12.0
 41
2653.405
 71
     1
 72
     5
  1
M5
 73
     1
 44
1.0
  0
MTEXT
  5
2022
330
2
100
AcDbEntity
  8
Layer4
100
AcDbMText
 10
234.3339640754728
 20
230.2965741446882
 30
0.0
 40
12.0
 41
2653.405
 71
     1
 72
     5
  1
M8
 73
     1
 44
1.0
  0
ENDSEC
  0
SECTION
  2
OBJECTS
  0
DICTIONARY
  5
1B
330
0
100
AcDbDictionary
281
     1
  3
ACAD_GROUP
350
19
  3
ACAD_LAYOUT
350
2E
  3
ACAD_MLINESTYLE
350
1A
  3
ACAD_PLOTSETTINGS
350
2F
  3
ACAD_PLOTSTYLENAME
350
2C
  0
DICTIONARY
  5
807
330
2
100
AcDbDictionary
280
     1
281
     1
  3
ACAD_LAYOUTSELFREF
360
9D6
  0
DICTIONARY
  5
809
330
8
100
AcDbDictionary
280
     1
281
     1
  3
ACAD_LAYOUTSELFREF
360
9D7
  0
DICTIONARY
  5
19
102
{ACAD_REACTORS
330
1B
102
}
330
1B
100
AcDbDictionary
281
     1
  0
DICTIONARY
  5
2E
102
{ACAD_REACTORS
330
1B
102
}
330
1B
100
AcDbDictionary
281
     1
  3
Layout1
350
9DB
  3
Model
350
9DA
  0
DICTIONARY
  5
1A
102
{ACAD_REACTORS
330
1B
102
}
330
1B
100
AcDbDictionary
281
     1
  3
STANDARD
350
1C
  0
DICTIONARY
  5
2F
102
{ACAD_REACTORS
330
1B
102
}
330
1B
100
AcDbDictionary
281
     1
  0
ACDBDICTIONARYWDFLT
  5
2C
102
{ACAD_REACTORS
330
1B
102
}
330
1B
100
AcDbDictionary
281
     1
  3
Normal
350
2D
100
AcDbDictionaryWithDefault
340
2D
  0
XRECORD
  5
9D6
102
{ACAD_REACTORS
330
807
102
}
330
807
100
AcDbXrecord
280
     1
340
2
  0
XRECORD
  5
9D7
102
{ACAD_REACTORS
330
809
102
}
330
809
100
AcDbXrecord
280
     1
340
8
  0
LAYOUT
  5
9DB
102
{ACAD_REACTORS
330
2E
102
}
330
2E
100
AcDbPlotSettings
  1

  2
None
  4

  6

 40
0.0
 41
0.0
 42
0.0
 43
0.0
 44
0.0
 45
0.0
 46
0.0
 47
0.0
 48
0.0
 49
0.0
140
0.0
141
0.0
142
1.0
143
1.0
 70
   688
 72
     0
 73
     0
 74
     5
  7
monochrome.ctb
 75
    16
147
1.0
148
0.0
149
0.0
100
AcDbLayout
  1
Layout1
 70
     1
 71
     1
 10
0.0
 20
0.0
 11
420.0
 21
297.0
 12
0.0
 22
0.0
 32
0.0
 14
0.0
 24
0.0
 34
0.0
 15
420.0000000000001
 25
302.7225130890052
 35
0.0
146
0.0
 13
0.0
 23
0.0
 33
0.0
 16
1.0
 26
0.0
 36
0.0
 17
0.0
 27
1.0
 37
0.0
 76
     0
330
8
  0
LAYOUT
  5
9DA
102
{ACAD_REACTORS
330
2E
102
}
330
2E
100
AcDbPlotSettings
  1

  2
EPSON LP-9100
  4
A3
  6

 40
5.87375
 41
5.873747999999999
 42
5.873749
 43
5.873749
 44
419.946655
 45
297.0106509999999
 46
0.0
 47
0.0
 48
-383.3966174621964
 49
59.93756503697113
140
533.778696196804
141
1001.98458430898
142
1.0
143
3.215190257831196
 70
 11952
 72
     1
 73
     1
 74
     4
  7
monochrome.ctb
 75
     0
147
0.3110235848607444
148
383.3966174621964
149
-59.93756503697113
100
AcDbLayout
  1
Model
 70
     1
 71
     0
 10
0.0
 20
0.0
 11
12.0
 21
9.0
 12
0.0
 22
0.0
 32
0.0
 14
0.0
 24
0.0
 34
0.0
 15
0.0
 25
0.0
 35
0.0
146
0.0
 13
0.0
 23
0.0
 33
0.0
 16
1.0
 26
0.0
 36
0.0
 17
0.0
 27
1.0
 37
0.0
 76
     0
330
2
  0
MLINESTYLE
  5
1C
102
{ACAD_REACTORS
330
1A
102
}
330
1A
100
AcDbMlineStyle
  2
STANDARD
 70
     0
  3

 62
     0
 51
90.0
 52
90.0
 71
     2
 49
0.5
 62
   256
  6
BYLAYER
 49
-0.5
 62
   256
  6
BYLAYER
  0
ACDBPLACEHOLDER
  5
2D
102
{ACAD_REACTORS
330
2C
102
}
330
2C
  0
ENDSEC
  0
EOF
