  0
SECTION
  2
HEADER
  9
$ACADVER
  1
AC1015
  9
$ACADMAINTVER
 70
     6
  9
$DWGCODEPAGE
  3
ANSI_932
  9
$INSBASE
 10
0.0
 20
0.0
 30
0.0
  9
$EXTMIN
 10
-343.566294212205
 20
326.3481751835179
 30
0.0
  9
$EXTMAX
 10
2356.433705787794
 20
1047.522020659393
 30
0.0
  9
$LIMMIN
 10
0.0
 20
0.0
  9
$LIMMAX
 10
420.0
 20
297.0
  9
$ORTHOMODE
 70
     1
  9
$REGENMODE
 70
     1
  9
$FILLMODE
 70
     1
  9
$QTEXTMODE
 70
     0
  9
$MIRRTEXT
 70
     1
  9
$LTSCALE
 40
1.0
  9
$ATTMODE
 70
     1
  9
$TEXTSIZE
 40
3.0
  9
$TRACEWID
 40
0.05
  9
$TEXTSTYLE
  7
STANDARD
  9
$CLAYER
  8
Layer3
  9
$CELTYPE
  6
BYLAYER
  9
$CECOLOR
 62
   256
  9
$CELTSCALE
 40
1.0
  9
$DISPSILH
 70
     0
  9
$DIMSCALE
 40
1.0
  9
$DIMASZ
 40
2.0
  9
$DIMEXO
 40
1.0
  9
$DIMDLI
 40
7.0
  9
$DIMRND
 40
0.0
  9
$DIMDLE
 40
0.0
  9
$DIMEXE
 40
1.0
  9
$DIMTP
 40
0.0
  9
$DIMTM
 40
0.0
  9
$DIMTXT
 40
10.0
  9
$DIMCEN
 40
0.0
  9
$DIMTSZ
 40
0.0
  9
$DIMTOL
 70
     0
  9
$DIMLIM
 70
     0
  9
$DIMTIH
 70
     0
  9
$DIMTOH
 70
     0
  9
$DIMSE1
 70
     0
  9
$DIMSE2
 70
     0
  9
$DIMTAD
 70
     0
  9
$DIMZIN
 70
     8
  9
$DIMBLK
  1

  9
$DIMASO
 70
     1
  9
$DIMSHO
 70
     1
  9
$DIMPOST
  1

  9
$DIMAPOST
  1

  9
$DIMALT
 70
     0
  9
$DIMALTD
 70
     2
  9
$DIMALTF
 40
25.4
  9
$DIMLFAC
 40
1.0
  9
$DIMTOFL
 70
     1
  9
$DIMTVP
 40
1.0
  9
$DIMTIX
 70
     0
  9
$DIMSOXD
 70
     0
  9
$DIMSAH
 70
     0
  9
$DIMBLK1
  1

  9
$DIMBLK2
  1

  9
$DIMSTYLE
  2
STYLE1
  9
$DIMCLRD
 70
     0
  9
$DIMCLRE
 70
     0
  9
$DIMCLRT
 70
     0
  9
$DIMTFAC
 40
1.0
  9
$DIMGAP
 40
0.0
  9
$DIMJUST
 70
     0
  9
$DIMSD1
 70
     0
  9
$DIMSD2
 70
     0
  9
$DIMTOLJ
 70
     1
  9
$DIMTZIN
 70
     8
  9
$DIMALTZ
 70
     8
  9
$DIMALTTZ
 70
     8
  9
$DIMUPT
 70
     0
  9
$DIMDEC
 70
     3
  9
$DIMTDEC
 70
     3
  9
$DIMALTU
 70
     2
  9
$DIMALTTD
 70
     2
  9
$DIMTXSTY
  7
STANDARD
  9
$DIMAUNIT
 70
     0
  9
$DIMADEC
 70
     0
  9
$DIMALTRND
 40
0.0
  9
$DIMAZIN
 70
     0
  9
$DIMDSEP
 70
    46
  9
$DIMATFIT
 70
     3
  9
$DIMFRAC
 70
     0
  9
$DIMLDRBLK
  1

  9
$DIMLUNIT
 70
     2
  9
$DIMLWD
 70
    -2
  9
$DIMLWE
 70
    -2
  9
$DIMTMOVE
 70
     0
  9
$LUNITS
 70
     2
  9
$LUPREC
 70
     3
  9
$SKETCHINC
 40
0.1
  9
$FILLETRAD
 40
0.3
  9
$AUNITS
 70
     0
  9
$AUPREC
 70
     2
  9
$MENU
  1
acad
  9
$ELEVATION
 40
0.0
  9
$PELEVATION
 40
0.0
  9
$THICKNESS
 40
0.0
  9
$LIMCHECK
 70
     0
  9
$CHAMFERA
 40
0.0
  9
$CHAMFERB
 40
0.0
  9
$CHAMFERC
 40
0.0
  9
$CHAMFERD
 40
0.0
  9
$SKPOLY
 70
     0
  9
$TDCREATE
 40
2449545.886377199
  9
$TDUCREATE
 40
2449545.511377199
  9
$TDUPDATE
 40
2453641.428429421
  9
$TDUUPDATE
 40
2453641.053429421
  9
$TDINDWG
 40
1.1073263310
  9
$TDUSRTIMER
 40
1.1073263310
  9
$USRTIMER
 70
     1
  9
$ANGBASE
 50
0.0
  9
$ANGDIR
 70
     0
  9
$PDMODE
 70
     0
  9
$PDSIZE
 40
0.0
  9
$PLINEWID
 40
0.0
  9
$SPLFRAME
 70
     0
  9
$SPLINETYPE
 70
     6
  9
$SPLINESEGS
 70
     8
  9
$HANDSEED
  5
186F
  9
$SURFTAB1
 70
     6
  9
$SURFTAB2
 70
     6
  9
$SURFTYPE
 70
     6
  9
$SURFU
 70
     6
  9
$SURFV
 70
     6
  9
$UCSBASE
  2

  9
$UCSNAME
  2

  9
$UCSORG
 10
0.0
 20
0.0
 30
0.0
  9
$UCSXDIR
 10
1.0
 20
0.0
 30
0.0
  9
$UCSYDIR
 10
0.0
 20
1.0
 30
0.0
  9
$UCSORTHOREF
  2

  9
$UCSORTHOVIEW
 70
     0
  9
$UCSORGTOP
 10
0.0
 20
0.0
 30
0.0
  9
$UCSORGBOTTOM
 10
0.0
 20
0.0
 30
0.0
  9
$UCSORGLEFT
 10
0.0
 20
0.0
 30
0.0
  9
$UCSORGRIGHT
 10
0.0
 20
0.0
 30
0.0
  9
$UCSORGFRONT
 10
0.0
 20
0.0
 30
0.0
  9
$UCSORGBACK
 10
0.0
 20
0.0
 30
0.0
  9
$PUCSBASE
  2

  9
$PUCSNAME
  2

  9
$PUCSORG
 10
0.0
 20
0.0
 30
0.0
  9
$PUCSXDIR
 10
1.0
 20
0.0
 30
0.0
  9
$PUCSYDIR
 10
0.0
 20
1.0
 30
0.0
  9
$PUCSORTHOREF
  2

  9
$PUCSORTHOVIEW
 70
     0
  9
$PUCSORGTOP
 10
0.0
 20
0.0
 30
0.0
  9
$PUCSORGBOTTOM
 10
0.0
 20
0.0
 30
0.0
  9
$PUCSORGLEFT
 10
0.0
 20
0.0
 30
0.0
  9
$PUCSORGRIGHT
 10
0.0
 20
0.0
 30
0.0
  9
$PUCSORGFRONT
 10
0.0
 20
0.0
 30
0.0
  9
$PUCSORGBACK
 10
0.0
 20
0.0
 30
0.0
  9
$USERI1
 70
     0
  9
$USERI2
 70
     0
  9
$USERI3
 70
     0
  9
$USERI4
 70
     0
  9
$USERI5
 70
     0
  9
$USERR1
 40
0.0
  9
$USERR2
 40
0.0
  9
$USERR3
 40
0.0
  9
$USERR4
 40
0.0
  9
$USERR5
 40
0.0
  9
$WORLDVIEW
 70
     1
  9
$SHADEDGE
 70
     3
  9
$SHADEDIF
 70
    70
  9
$TILEMODE
 70
     1
  9
$MAXACTVP
 70
    16
  9
$PINSBASE
 10
0.0
 20
0.0
 30
0.0
  9
$PLIMCHECK
 70
     0
  9
$PEXTMIN
 10
0.0
 20
0.0
 30
0.0
  9
$PEXTMAX
 10
420.0000000000001
 20
302.7225130890052
 30
0.0
  9
$PLIMMIN
 10
0.0
 20
0.0
  9
$PLIMMAX
 10
420.0
 20
297.0
  9
$UNITMODE
 70
     0
  9
$VISRETAIN
 70
     0
  9
$PLINEGEN
 70
     0
  9
$PSLTSCALE
 70
     1
  9
$TREEDEPTH
 70
  3020
  9
$CMLSTYLE
  2
STANDARD
  9
$CMLJUST
 70
     0
  9
$CMLSCALE
 40
1.0
  9
$PROXYGRAPHICS
 70
     1
  9
$MEASUREMENT
 70
     0
  9
$CELWEIGHT
370
    -1
  9
$ENDCAPS
280
     0
  9
$JOINSTYLE
280
     0
  9
$LWDISPLAY
290
     0
  9
$INSUNITS
 70
     0
  9
$HYPERLINKBASE
  1

  9
$STYLESHEET
  1
monochrome.ctb
  9
$XEDIT
290
     1
  9
$CEPSNTYPE
380
     0
  9
$PSTYLEMODE
290
     1
  9
$FINGERPRINTGUID
  2
{E5BFD884-1444-4908-A764-017D0946F674}
  9
$VERSIONGUID
  2
{49E4D9DB-1CBB-49F9-BD8C-BF923D65B9EE}
  9
$EXTNAMES
290
     1
  9
$PSVPSCALE
 40
0.0
  9
$OLESTARTUP
290
     0
  0
ENDSEC
  0
SECTION
  2
CLASSES
  0
CLASS
  1
ACDBDICTIONARYWDFLT
  2
AcDbDictionaryWithDefault
  3
AutoCAD 2000
 90
        0
280
     0
281
     0
  0
CLASS
  1
ACDBPLACEHOLDER
  2
AcDbPlaceHolder
  3
AutoCAD 2000
 90
        0
280
     0
281
     0
  0
CLASS
  1
LAYOUT
  2
AcDbLayout
  3
AutoCAD 2000
 90
        0
280
     0
281
     0
  0
CLASS
  1
LONG_TRANSACTION
  2
AcDbLongTransaction
  3
AutoCAD 2000
 90
    32768
280
     0
281
     0
  0
CLASS
  1
LWPOLYLINE
  2
AcDbPolyline
  3
AutoCAD 2000
 90
    32768
280
     0
281
     1
  0
CLASS
  1
HATCH
  2
AcDbHatch
  3
AutoCAD 2000
 90
    32768
280
     0
281
     1
  0
CLASS
  1
XRECORD
  2
AcDbXrecord
  3
AutoCAD 2000
 90
    32768
280
     0
281
     0
  0
CLASS
  1
LONG_TRANSACTION
  2
AcDbLongTransaction
  3
AutoCAD 2000
 90
    32768
280
     0
281
     0
  0
CLASS
  1
LWPOLYLINE
  2
AcDbPolyline
  3
AutoCAD 2000
 90
    32768
280
     0
281
     1
  0
CLASS
  1
HATCH
  2
AcDbHatch
  3
AutoCAD 2000
 90
    32768
280
     0
281
     1
  0
CLASS
  1
XRECORD
  2
AcDbXrecord
  3
AutoCAD 2000
 90
    32768
280
     0
281
     0
  0
CLASS
  1
LONG_TRANSACTION
  2
AcDbLongTransaction
  3
AutoCAD 2000
 90
    32768
280
     0
281
     0
  0
CLASS
  1
LWPOLYLINE
  2
AcDbPolyline
  3
AutoCAD 2000
 90
    32768
280
     0
281
     1
  0
CLASS
  1
HATCH
  2
AcDbHatch
  3
AutoCAD 2000
 90
    32768
280
     0
281
     1
  0
CLASS
  1
XRECORD
  2
AcDbXrecord
  3
AutoCAD 2000
 90
    32768
280
     0
281
     0
  0
CLASS
  1
LONG_TRANSACTION
  2
AcDbLongTransaction
  3
AutoCAD 2000
 90
    32768
280
     0
281
     0
  0
CLASS
  1
LWPOLYLINE
  2
AcDbPolyline
  3
AutoCAD 2000
 90
    32768
280
     0
281
     1
  0
CLASS
  1
HATCH
  2
AcDbHatch
  3
AutoCAD 2000
 90
    32768
280
     0
281
     1
  0
CLASS
  1
XRECORD
  2
AcDbXrecord
  3
AutoCAD 2000
 90
    32768
280
     0
281
     0
  0
CLASS
  1
LONG_TRANSACTION
  2
AcDbLongTransaction
  3
AutoCAD 2000
 90
    32768
280
     0
281
     0
  0
CLASS
  1
LWPOLYLINE
  2
AcDbPolyline
  3
AutoCAD 2000
 90
    32768
280
     0
281
     1
  0
CLASS
  1
HATCH
  2
AcDbHatch
  3
AutoCAD 2000
 90
    32768
280
     0
281
     1
  0
CLASS
  1
XRECORD
  2
AcDbXrecord
  3
AutoCAD 2000
 90
    32768
280
     0
281
     0
  0
CLASS
  1
LONG_TRANSACTION
  2
AcDbLongTransaction
  3
AutoCAD 2000
 90
    32768
280
     0
281
     0
  0
CLASS
  1
LWPOLYLINE
  2
AcDbPolyline
  3
AutoCAD 2000
 90
    32768
280
     0
281
     1
  0
CLASS
  1
HATCH
  2
AcDbHatch
  3
AutoCAD 2000
 90
    32768
280
     0
281
     1
  0
CLASS
  1
XRECORD
  2
AcDbXrecord
  3
AutoCAD 2000
 90
    32768
280
     0
281
     0
  0
ENDSEC
  0
SECTION
  2
TABLES
  0
TABLE
  2
VPORT
  5
13
330
0
100
AcDbSymbolTable
 70
     2
  0
VPORT
  5
186E
330
13
100
AcDbSymbolTableRecord
100
AcDbViewportTableRecord
  2
*Active
 70
     0
 10
0.0
 20
0.0
 11
1.0
 21
1.0
 12
1006.469313175883
 22
686.9216986282151
 13
0.0
 23
0.0
 14
0.1
 24
0.1
 15
10.0
 25
10.0
 16
0.0
 26
0.0
 36
1.0
 17
0.0
 27
0.0
 37
0.0
 40
1567.16345320614
 41
1.732888146911519
 42
50.0
 43
0.0
 44
0.0
 50
0.0
 51
0.0
 71
     0
 72
   100
 73
     1
 74
     0
 75
     0
 76
     0
 77
     0
 78
     1
281
     0
 65
     1
110
0.0
120
0.0
130
0.0
111
1.0
121
0.0
131
0.0
112
0.0
122
1.0
132
0.0
 79
     0
146
0.0
  0
ENDTAB
  0
TABLE
  2
LTYPE
  5
F
330
0
100
AcDbSymbolTable
 70
     1
  0
LTYPE
  5
10
330
F
100
AcDbSymbolTableRecord
100
AcDbLinetypeTableRecord
  2
BYBLOCK
 70
     0
  3

 72
    65
 73
     0
 40
0.0
  0
LTYPE
  5
6
330
F
100
AcDbSymbolTableRecord
100
AcDbLinetypeTableRecord
  2
BYLAYER
 70
     0
  3

 72
    65
 73
     0
 40
0.0
  0
LTYPE
  5
5
330
F
100
AcDbSymbolTableRecord
100
AcDbLinetypeTableRecord
  2
CONTINUOUS
 70
     0
  3
Solid line
 72
    65
 73
     0
 40
0.0
  0
ENDTAB
  0
TABLE
  2
LAYER
  5
B
330
0
100
AcDbSymbolTable
 70
     5
  0
LAYER
  5
C
330
B
100
AcDbSymbolTableRecord
100
AcDbLayerTableRecord
  2
0
 70
     0
 62
     7
  6
CONTINUOUS
370
    -3
390
2D
  0
LAYER
  5
A93
330
B
100
AcDbSymbolTableRecord
100
AcDbLayerTableRecord
  2
Layer1
 70
     0
 62
     5
  6
CONTINUOUS
370
    -3
390
2D
  0
LAYER
  5
A94
330
B
100
AcDbSymbolTableRecord
100
AcDbLayerTableRecord
  2
Layer2
 70
     0
 62
     3
  6
CONTINUOUS
370
    -3
390
2D
  0
LAYER
  5
A95
330
B
100
AcDbSymbolTableRecord
100
AcDbLayerTableRecord
  2
Layer3
 70
     0
 62
     4
  6
CONTINUOUS
370
    -3
390
2D
  0
LAYER
  5
A96
330
B
100
AcDbSymbolTableRecord
100
AcDbLayerTableRecord
  2
Layer4
 70
     0
 62
     6
  6
CONTINUOUS
370
    -3
390
2D
  0
ENDTAB
  0
TABLE
  2
STYLE
  5
D
330
0
100
AcDbSymbolTable
 70
     1
  0
STYLE
  5
E
330
D
100
AcDbSymbolTableRecord
100
AcDbTextStyleTableRecord
  2
STANDARD
 70
     0
 40
0.0
 41
1.0
 50
0.0
 71
     0
 42
3.0
  3
txt
  4
bigfont
  0
ENDTAB
  0
TABLE
  2
VIEW
  5
11
330
0
100
AcDbSymbolTable
 70
     0
  0
ENDTAB
  0
TABLE
  2
UCS
  5
12
330
0
100
AcDbSymbolTable
 70
     0
  0
ENDTAB
  0
TABLE
  2
APPID
  5
15
330
0
100
AcDbSymbolTable
 70
     1
  0
APPID
  5
16
330
15
100
AcDbSymbolTableRecord
100
AcDbRegAppTableRecord
  2
ACAD
 70
     0
  0
ENDTAB
  0
TABLE
  2
DIMSTYLE
  5
17
330
0
100
AcDbSymbolTable
 70
     3
100
AcDbDimStyleTable
 71
     0
  0
DIMSTYLE
105
3DF
330
17
100
AcDbSymbolTableRecord
100
AcDbDimStyleTableRecord
  2
STYLE1
 70
     0
 41
2.0
 42
1.0
 43
7.0
 44
1.0
 73
     0
 74
     0
 78
     8
140
10.0
141
0.0
145
1.0
147
0.0
172
     1
271
     3
272
     3
284
     8
285
     8
286
     8
340
E
  0
DIMSTYLE
105
405
330
17
100
AcDbSymbolTableRecord
100
AcDbDimStyleTableRecord
  2
STANDARD
 70
     0
340
E
  0
DIMSTYLE
105
A97
330
17
100
AcDbSymbolTableRecord
100
AcDbDimStyleTableRecord
  2
ISO-25
 70
     0
 41
2.5
 42
0.625
 43
3.75
 44
1.25
 73
     0
 74
     0
 77
     1
 78
     8
140
2.5
141
2.5
143
0.03937007874016
147
0.625
171
     3
172
     1
271
     2
272
     2
274
     3
283
     0
284
     8
340
E
  0
ENDTAB
  0
TABLE
  2
BLOCK_RECORD
  5
1
330
0
100
AcDbSymbolTable
 70
     1
  0
BLOCK_RECORD
  5
2
102
{ACAD_XDICTIONARY
360
807
102
}
330
1
100
AcDbSymbolTableRecord
100
AcDbBlockTableRecord
  2
*MODEL_SPACE
340
9DA
  0
BLOCK_RECORD
  5
8
102
{ACAD_XDICTIONARY
360
809
102
}
330
1
100
AcDbSymbolTableRecord
100
AcDbBlockTableRecord
  2
*PAPER_SPACE
340
9DB
  0
BLOCK_RECORD
  5
8D2
330
1
100
AcDbSymbolTableRecord
100
AcDbBlockTableRecord
  2
_OPEN
340
0
  0
ENDTAB
  0
ENDSEC
  0
SECTION
  2
BLOCKS
  0
BLOCK
  5
3
330
2
100
AcDbEntity
  8
0
100
AcDbBlockBegin
  2
*MODEL_SPACE
 70
     0
 10
0.0
 20
0.0
 30
0.0
  3
*MODEL_SPACE
  1

  0
ENDBLK
  5
7
330
2
100
AcDbEntity
  8
0
100
AcDbBlockEnd
  0
BLOCK
  5
9
330
8
100
AcDbEntity
 67
     1
  8
0
100
AcDbBlockBegin
  2
*PAPER_SPACE
 70
     0
 10
0.0
 20
0.0
 30
0.0
  3
*PAPER_SPACE
  1

  0
ENDBLK
  5
A
330
8
100
AcDbEntity
 67
     1
  8
0
100
AcDbBlockEnd
  0
BLOCK
  5
8D6
330
8D2
100
AcDbEntity
  8
0
100
AcDbBlockBegin
  2
_OPEN
 70
     0
 10
0.0
 20
0.0
 30
0.0
  3
_OPEN
  1

  0
LINE
  5
8D3
330
8D2
100
AcDbEntity
  8
0
  6
ByBlock
 62
     0
100
AcDbLine
 10
-1.0
 20
0.1666666666666666
 30
0.0
 11
0.0
 21
0.0
 31
0.0
  0
LINE
  5
8D4
330
8D2
100
AcDbEntity
  8
0
  6
ByBlock
 62
     0
100
AcDbLine
 10
-1.0
 20
-0.1666666666666666
 30
0.0
 11
0.0
 21
0.0
 31
0.0
  0
LINE
  5
8D5
330
8D2
100
AcDbEntity
  8
0
  6
ByBlock
 62
     0
100
AcDbLine
 10
0.0
 20
0.0
 30
0.0
 11
-1.0
 21
0.0
 31
0.0
  0
ENDBLK
  5
8D7
330
8D2
100
AcDbEntity
  8
0
100
AcDbBlockEnd
  0
ENDSEC
  0
SECTION
  2
ENTITIES
  0
LWPOLYLINE
  5
3E1
330
2
100
AcDbEntity
  8
Layer3
100
AcDbPolyline
 90
        6
 70
     1
 43
0.0
 10
-270.1540074524763
 20
654.2555504943057
 10
-271.7417206927477
 20
651.5055504943056
 10
-270.1540074524763
 20
648.7555504943056
 10
-266.9785809719334
 20
648.7555504943056
 10
-265.3908677316619
 20
651.5055504943056
 10
-266.9785809719333
 20
654.2555504943057
  0
LWPOLYLINE
  5
3FB
330
2
100
AcDbEntity
  8
Layer3
100
AcDbPolyline
 90
        6
 70
     1
 43
0.0
 10
-120.587020154369
 20
655.0055504943056
 10
-122.6077460965327
 20
651.5055504943056
 10
-120.587020154369
 20
648.0055504943057
 10
-116.5455682700416
 20
648.0055504943057
 10
-114.5248423278779
 20
651.5055504943056
 10
-116.5455682700416
 20
655.0055504943056
  0
LWPOLYLINE
  5
3FC
330
2
100
AcDbEntity
  8
Layer3
100
AcDbPolyline
 90
        6
 70
     1
 43
0.0
 10
29.12430471103641
 20
655.5055504943056
 10
26.81490363427789
 20
651.5055504943056
 10
29.12430471103641
 20
647.5055504943057
 10
33.7431068645534
 20
647.5055504943057
 10
36.05250794131191
 20
651.5055504943056
 10
33.7431068645534
 20
655.5055504943056
  0
LWPOLYLINE
  5
3FD
330
2
100
AcDbEntity
  8
Layer3
100
AcDbPolyline
 90
        6
 70
     1
 43
0.0
 10
178.5469544418466
 20
656.5055504943057
 10
175.6602030958985
 20
651.5055504943056
 10
178.5469544418466
 20
646.5055504943056
 10
184.3204571337429
 20
646.5055504943056
 10
187.207208479691
 20
651.5055504943056
 10
184.3204571337429
 20
656.5055504943057
  0
LWPOLYLINE
  5
3FE
330
2
100
AcDbEntity
  8
Layer3
100
AcDbPolyline
 90
        6
 70
     1
 43
0.0
 10
327.6809290380625
 20
658.0055504943056
 10
323.92815228833
 20
651.5055504943056
 10
327.6809290380625
 20
645.0055504943057
 10
335.1864825375276
 20
645.0055504943057
 10
338.9392592872602
 20
651.5055504943056
 10
335.1864825375276
 20
658.0055504943056
  0
LWPOLYLINE
  5
402
330
2
100
AcDbEntity
  8
Layer3
100
AcDbPolyline
 90
        6
 70
     1
 43
0.0
 10
924.505502557519
 20
663.5055504943058
 10
917.5772993272437
 20
651.5055504943058
 10
924.505502557519
 20
639.5055504943058
 10
938.3619090180701
 20
639.5055504943058
 10
945.2901122483456
 20
651.5055504943058
 10
938.3619090180701
 20
663.5055504943058
  0
LWPOLYLINE
  5
403
330
2
100
AcDbEntity
  8
Layer3
100
AcDbPolyline
 90
        6
 70
     1
 43
0.0
 10
1072.77345174995
 20
666.5055504943057
 10
1064.113197712106
 20
651.5055504943058
 10
1072.77345174995
 20
636.5055504943057
 10
1090.093959825639
 20
636.5055504943057
 10
1098.754213863483
 20
651.5055504943058
 10
1090.093959825639
 20
666.5055504943057
  0
LWPOLYLINE
  5
404
330
2
100
AcDbEntity
  8
Layer3
100
AcDbPolyline
 90
        6
 70
     1
 43
0.0
 10
1371.041400942381
 20
669.5055504943058
 10
1360.649096096968
 20
651.5055504943058
 10
1371.041400942381
 20
633.5055504943057
 10
1391.826010633208
 20
633.5055504943057
 10
1402.218315478621
 20
651.5055504943058
 10
1391.826010633208
 20
669.5055504943058
  0
LINE
  5
41F
330
2
100
AcDbEntity
  8
Layer3
100
AcDbLine
 10
-267.0662942122048
 20
638.5963966052308
 30
0.0
 11
-267.0662942122048
 21
625.1963966052308
 31
0.0
  0
LINE
  5
420
330
2
100
AcDbEntity
  8
Layer3
100
AcDbLine
 10
-270.0662942122048
 20
638.5963966052308
 30
0.0
 11
-270.0662942122048
 21
625.1963966052308
 31
0.0
  0
LINE
  5
421
330
2
100
AcDbEntity
  8
Layer3
100
AcDbLine
 10
-269.7662942122048
 20
636.5963966052309
 30
0.0
 11
-269.7662942122048
 21
624.8963966052308
 31
0.0
  0
LINE
  5
422
330
2
100
AcDbEntity
  8
Layer3
100
AcDbLine
 10
-267.3662942122048
 20
636.5963966052309
 30
0.0
 11
-267.3662942122048
 21
624.8963966052308
 31
0.0
  0
LINE
  5
423
330
2
100
AcDbEntity
  8
Layer3
100
AcDbLine
 10
-267.0662942122048
 20
625.1963966052308
 30
0.0
 11
-267.666294212205
 21
624.5963966052308
 31
0.0
  0
LINE
  5
425
330
2
100
AcDbEntity
  8
Layer3
100
AcDbLine
 10
-270.0662942122048
 20
625.1963966052308
 30
0.0
 11
-269.4662942122049
 21
624.5963966052308
 31
0.0
  0
LINE
  5
426
330
2
100
AcDbEntity
  8
Layer3
100
AcDbLine
 10
-267.0662942122047
 20
625.1963966052309
 30
0.0
 11
-270.0662942122048
 21
625.1963966052308
 31
0.0
  0
LINE
  5
427
330
2
100
AcDbEntity
  8
Layer3
100
AcDbLine
 10
-267.666294212205
 20
624.5963966052308
 30
0.0
 11
-269.4662942122049
 21
624.5963966052308
 31
0.0
  0
LINE
  5
429
330
2
100
AcDbEntity
  8
Layer3
100
AcDbLine
 10
-265.3908692122048
 20
638.5963966052308
 30
0.0
 11
-271.741719212205
 21
638.5963966052308
 31
0.0
  0
LINE
  5
42E
330
2
100
AcDbEntity
  8
Layer3
100
AcDbLine
 10
-271.741719212205
 20
638.5963966052308
 30
0.0
 11
-271.741719212205
 21
640.2930423411001
 31
0.0
  0
LINE
  5
42F
330
2
100
AcDbEntity
  8
Layer3
100
AcDbLine
 10
-266.9785817122048
 20
638.5963966052308
 30
0.0
 11
-266.9785817122048
 21
640.2930424814808
 31
0.0
  0
LINE
  5
430
330
2
100
AcDbEntity
  8
Layer3
100
AcDbLine
 10
-270.1540067122048
 20
638.5963966052308
 30
0.0
 11
-270.1540067122048
 21
640.2930424814808
 31
0.0
  0
LINE
  5
431
330
2
100
AcDbEntity
  8
Layer3
100
AcDbLine
 10
-270.0662942122048
 20
636.5963966052309
 30
0.0
 11
-267.0662942122048
 21
636.5963966052309
 31
0.0
  0
LINE
  5
433
330
2
100
AcDbEntity
  8
Layer3
100
AcDbLine
 10
-265.3908692122048
 20
638.5963966052308
 30
0.0
 11
-265.3908692122048
 21
640.2930423411003
 31
0.0
  0
LINE
  5
478
330
2
100
AcDbEntity
  8
Layer3
100
AcDbLine
 10
-116.9662942122053
 20
632.521935339305
 30
0.0
 11
-116.9662942122053
 21
618.921935339305
 31
0.0
  0
LINE
  5
479
330
2
100
AcDbEntity
  8
Layer3
100
AcDbLine
 10
-120.1662942122053
 20
632.521935339305
 30
0.0
 11
-120.1662942122053
 21
618.921935339305
 31
0.0
  0
LINE
  5
47A
330
2
100
AcDbEntity
  8
Layer3
100
AcDbLine
 10
-116.5662942122053
 20
634.521935339305
 30
0.0
 11
-116.5662942122053
 21
619.3219353393049
 31
0.0
  0
LINE
  5
47B
330
2
100
AcDbEntity
  8
Layer3
100
AcDbLine
 10
-120.5662942122053
 20
634.521935339305
 30
0.0
 11
-120.5662942122053
 21
619.3219353393049
 31
0.0
  0
LINE
  5
47C
330
2
100
AcDbEntity
  8
Layer3
100
AcDbLine
 10
-116.5662942122053
 20
619.3219353393049
 30
0.0
 11
-117.3662942122053
 21
618.521935339305
 31
0.0
  0
LINE
  5
47D
330
2
100
AcDbEntity
  8
Layer3
100
AcDbLine
 10
-120.5662942122053
 20
619.3219353393049
 30
0.0
 11
-119.7662942122053
 21
618.521935339305
 31
0.0
  0
LINE
  5
47E
330
2
100
AcDbEntity
  8
Layer3
100
AcDbLine
 10
-116.5662942122053
 20
619.3219353393049
 30
0.0
 11
-120.5662942122053
 21
619.3219353393049
 31
0.0
  0
LINE
  5
47F
330
2
100
AcDbEntity
  8
Layer3
100
AcDbLine
 10
-117.3662942122053
 20
618.521935339305
 30
0.0
 11
-119.7662942122053
 21
618.521935339305
 31
0.0
  0
LINE
  5
481
330
2
100
AcDbEntity
  8
Layer3
100
AcDbLine
 10
-115.1662942122053
 20
637.321935339305
 30
0.0
 11
-121.9662942122054
 21
637.321935339305
 31
0.0
  0
LINE
  5
482
330
2
100
AcDbEntity
  8
Layer3
100
AcDbLine
 10
-114.5248442122053
 20
634.521935339305
 30
0.0
 11
-122.6077442122053
 21
634.521935339305
 31
0.0
  0
LINE
  5
483
330
2
100
AcDbEntity
  8
Layer3
100
AcDbLine
 10
-116.5662942122053
 20
632.521935339305
 30
0.0
 11
-120.5662942122053
 21
632.521935339305
 31
0.0
  0
LINE
  5
486
330
2
100
AcDbEntity
  8
Layer3
100
AcDbLine
 10
-122.6077442122053
 20
634.521935339305
 30
0.0
 11
-122.6077442122053
 21
636.9515940091332
 31
0.0
  0
LINE
  5
487
330
2
100
AcDbEntity
  8
Layer3
100
AcDbLine
 10
-116.5455692122053
 20
634.521935339305
 30
0.0
 11
-116.5455692122053
 21
636.951594181805
 31
0.0
  0
LINE
  5
488
330
2
100
AcDbEntity
  8
Layer3
100
AcDbLine
 10
-120.5870192122053
 20
634.521935339305
 30
0.0
 11
-120.5870192122053
 21
636.951594181805
 31
0.0
  0
LINE
  5
48B
330
2
100
AcDbEntity
  8
Layer3
100
AcDbLine
 10
-114.5248442122053
 20
634.521935339305
 30
0.0
 11
-114.5248442122053
 21
636.9515940091332
 31
0.0
  0
LINE
  5
4A6
330
2
100
AcDbEntity
  8
Layer3
100
AcDbLine
 10
33.9337057877949
 20
611.4474740723435
 30
0.0
 11
28.9337057877949
 21
611.4474740723435
 31
0.0
  0
LINE
  5
4A7
330
2
100
AcDbEntity
  8
Layer3
100
AcDbLine
 10
28.9337057877949
 20
611.4474740723435
 30
0.0
 11
29.83370578779491
 21
610.5474740723437
 31
0.0
  0
LINE
  5
4A9
330
2
100
AcDbEntity
  8
Layer3
100
AcDbLine
 10
35.33370578779491
 20
634.0474740723436
 30
0.0
 11
27.53370578779504
 21
634.0474740723436
 31
0.0
  0
LINE
  5
4AA
330
2
100
AcDbEntity
  8
Layer3
100
AcDbLine
 10
36.05250578779489
 20
630.5474740723436
 30
0.0
 11
26.814905787795
 21
630.5474740723436
 31
0.0
  0
LINE
  5
4AB
330
2
100
AcDbEntity
  8
Layer3
100
AcDbLine
 10
33.9337057877949
 20
626.5474740723436
 30
0.0
 11
28.9337057877949
 21
626.5474740723436
 31
0.0
  0
LINE
  5
4AC
330
2
100
AcDbEntity
  8
Layer3
100
AcDbLine
 10
29.4337057877949
 20
626.5474740723436
 30
0.0
 11
29.4337057877949
 21
610.9474740723435
 31
0.0
  0
LINE
  5
4AD
330
2
100
AcDbEntity
  8
Layer3
100
AcDbLine
 10
28.9337057877949
 20
630.5474740723436
 30
0.0
 11
28.9337057877949
 21
611.4474740723435
 31
0.0
  0
LINE
  5
4AF
330
2
100
AcDbEntity
  8
Layer3
100
AcDbLine
 10
29.12430578779489
 20
630.5474740723436
 30
0.0
 11
29.12430578779489
 21
633.6324748923435
 31
0.0
  0
LINE
  5
4B1
330
2
100
AcDbEntity
  8
Layer3
100
AcDbLine
 10
26.814905787795
 20
630.5474740723436
 30
0.0
 11
26.814905787795
 21
633.6324746988501
 31
0.0
  0
LINE
  5
4B2
330
2
100
AcDbEntity
  8
Layer3
100
AcDbLine
 10
33.4337057877949
 20
626.5474740723436
 30
0.0
 11
33.4337057877949
 21
610.9474740723435
 31
0.0
  0
LINE
  5
4B3
330
2
100
AcDbEntity
  8
Layer3
100
AcDbLine
 10
33.9337057877949
 20
630.5474740723436
 30
0.0
 11
33.9337057877949
 21
611.4474740723435
 31
0.0
  0
LINE
  5
4B4
330
2
100
AcDbEntity
  8
Layer3
100
AcDbLine
 10
33.9337057877949
 20
611.4474740723435
 30
0.0
 11
33.03370578779498
 21
610.5474740723437
 31
0.0
  0
LINE
  5
4B5
330
2
100
AcDbEntity
  8
Layer3
100
AcDbLine
 10
33.03370578779498
 20
610.5474740723437
 30
0.0
 11
29.83370578779491
 21
610.5474740723437
 31
0.0
  0
LINE
  5
4B7
330
2
100
AcDbEntity
  8
Layer3
100
AcDbLine
 10
33.743105787795
 20
630.5474740723436
 30
0.0
 11
33.743105787795
 21
633.6324748923435
 31
0.0
  0
LINE
  5
4B9
330
2
100
AcDbEntity
  8
Layer3
100
AcDbLine
 10
36.05250578779489
 20
630.5474740723436
 30
0.0
 11
36.05250578779489
 21
633.6324746988502
 31
0.0
  0
LINE
  5
4E2
330
2
100
AcDbEntity
  8
Layer3
100
AcDbLine
 10
178.4337057877948
 20
626.7730128053824
 30
0.0
 11
178.4337057877948
 21
602.7730128053824
 31
0.0
  0
LINE
  5
4E3
330
2
100
AcDbEntity
  8
Layer3
100
AcDbLine
 10
184.4337057877948
 20
626.7730128053824
 30
0.0
 11
184.4337057877948
 21
602.7730128053824
 31
0.0
  0
LINE
  5
4E4
330
2
100
AcDbEntity
  8
Layer3
100
AcDbLine
 10
179.0337057877948
 20
619.7730128053824
 30
0.0
 11
179.0337057877948
 21
602.1730128053823
 31
0.0
  0
LINE
  5
4E5
330
2
100
AcDbEntity
  8
Layer3
100
AcDbLine
 10
183.8337057877947
 20
619.7730128053824
 30
0.0
 11
183.8337057877947
 21
602.1730128053823
 31
0.0
  0
LINE
  5
4E6
330
2
100
AcDbEntity
  8
Layer3
100
AcDbLine
 10
183.4337057877949
 20
601.7730128053824
 30
0.0
 11
179.4337057877948
 21
601.7730128053824
 31
0.0
  0
LINE
  5
4E7
330
2
100
AcDbEntity
  8
Layer3
100
AcDbLine
 10
184.4337057877948
 20
602.7730128053824
 30
0.0
 11
178.4337057877948
 21
602.7730128053824
 31
0.0
  0
LINE
  5
4E8
330
2
100
AcDbEntity
  8
Layer3
100
AcDbLine
 10
178.4337057877948
 20
602.7730128053824
 30
0.0
 11
179.4337057877948
 21
601.7730128053824
 31
0.0
  0
LINE
  5
4E9
330
2
100
AcDbEntity
  8
Layer3
100
AcDbLine
 10
184.4337057877948
 20
602.7730128053824
 30
0.0
 11
183.4337057877949
 21
601.7730128053824
 31
0.0
  0
LINE
  5
4EB
330
2
100
AcDbEntity
  8
Layer3
100
AcDbLine
 10
187.2072057877948
 20
626.7730128053824
 30
0.0
 11
175.6602057877948
 21
626.7730128053824
 31
0.0
  0
LINE
  5
4EC
330
2
100
AcDbEntity
  8
Layer3
100
AcDbLine
 10
186.3337057877949
 20
630.7730128053823
 30
0.0
 11
176.533705787795
 21
630.7730128053823
 31
0.0
  0
LINE
  5
4EE
330
2
100
AcDbEntity
  8
Layer3
100
AcDbLine
 10
175.6602057877948
 20
626.7730128053824
 30
0.0
 11
175.6602057877948
 21
630.2686973452455
 31
0.0
  0
LINE
  5
4F0
330
2
100
AcDbEntity
  8
Layer3
100
AcDbLine
 10
184.4337057877948
 20
619.7730128053824
 30
0.0
 11
178.4337057877948
 21
619.7730128053824
 31
0.0
  0
LINE
  5
4F4
330
2
100
AcDbEntity
  8
Layer3
100
AcDbLine
 10
178.5469557877949
 20
626.7730128053824
 30
0.0
 11
178.5469557877949
 21
630.2686975803823
 31
0.0
  0
LINE
  5
4F5
330
2
100
AcDbEntity
  8
Layer3
100
AcDbLine
 10
184.3204557877948
 20
626.7730128053824
 30
0.0
 11
184.3204557877948
 21
630.2686975803823
 31
0.0
  0
LINE
  5
4F6
330
2
100
AcDbEntity
  8
Layer3
100
AcDbLine
 10
187.2072057877948
 20
626.7730128053824
 30
0.0
 11
187.2072057877948
 21
630.2686973452454
 31
0.0
  0
LINE
  5
519
330
2
100
AcDbEntity
  8
Layer3
100
AcDbLine
 10
338.9392557877951
 20
622.1985515384212
 30
0.0
 11
323.9281557877952
 21
622.1985515384212
 31
0.0
  0
LINE
  5
51A
330
2
100
AcDbEntity
  8
Layer3
100
AcDbLine
 10
337.7337057877952
 20
627.4985515384212
 30
0.0
 11
325.1337057877951
 21
627.4985515384212
 31
0.0
  0
LINE
  5
51C
330
2
100
AcDbEntity
  8
Layer3
100
AcDbLine
 10
327.4337057877951
 20
622.1985515384212
 30
0.0
 11
327.4337057877951
 21
598.3985515384212
 31
0.0
  0
LINE
  5
51D
330
2
100
AcDbEntity
  8
Layer3
100
AcDbLine
 10
335.4337057877951
 20
622.1985515384212
 30
0.0
 11
335.4337057877951
 21
598.3985515384212
 31
0.0
  0
LINE
  5
51E
330
2
100
AcDbEntity
  8
Layer3
100
AcDbLine
 10
328.1837057877952
 20
619.1985515384212
 30
0.0
 11
328.1837057877952
 21
597.6485515384212
 31
0.0
  0
LINE
  5
51F
330
2
100
AcDbEntity
  8
Layer3
100
AcDbLine
 10
334.6837057877951
 20
619.1985515384212
 30
0.0
 11
334.6837057877951
 21
597.6485515384212
 31
0.0
  0
LINE
  5
520
330
2
100
AcDbEntity
  8
Layer3
100
AcDbLine
 10
334.2337057877951
 20
597.1985515384212
 30
0.0
 11
328.6337057877951
 21
597.1985515384212
 31
0.0
  0
LINE
  5
521
330
2
100
AcDbEntity
  8
Layer3
100
AcDbLine
 10
335.4337057877951
 20
598.3985515384212
 30
0.0
 11
327.4337057877951
 21
598.3985515384212
 31
0.0
  0
LINE
  5
522
330
2
100
AcDbEntity
  8
Layer3
100
AcDbLine
 10
327.4337057877951
 20
598.3985515384212
 30
0.0
 11
328.6337057877951
 21
597.1985515384212
 31
0.0
  0
LINE
  5
523
330
2
100
AcDbEntity
  8
Layer3
100
AcDbLine
 10
335.4337057877951
 20
598.3985515384212
 30
0.0
 11
334.2337057877951
 21
597.1985515384212
 31
0.0
  0
LINE
  5
524
330
2
100
AcDbEntity
  8
Layer3
100
AcDbLine
 10
335.4337057877951
 20
619.1985515384212
 30
0.0
 11
327.4337057877951
 21
619.1985515384212
 31
0.0
  0
LINE
  5
528
330
2
100
AcDbEntity
  8
Layer3
100
AcDbLine
 10
323.9281557877952
 20
622.1985515384212
 30
0.0
 11
323.9281557877951
 21
626.8025269213994
 31
0.0
  0
LINE
  5
529
330
2
100
AcDbEntity
  8
Layer3
100
AcDbLine
 10
327.6809307877952
 20
622.1985515384212
 30
0.0
 11
327.6809307877952
 21
626.8025272459213
 31
0.0
  0
LINE
  5
52A
330
2
100
AcDbEntity
  8
Layer3
100
AcDbLine
 10
335.1864807877951
 20
622.1985515384212
 30
0.0
 11
335.1864807877951
 21
626.8025272459213
 31
0.0
  0
LINE
  5
52B
330
2
100
AcDbEntity
  8
Layer3
100
AcDbLine
 10
338.9392557877951
 20
622.1985515384212
 30
0.0
 11
338.939255787795
 21
626.8025269213995
 31
0.0
  0
LINE
  5
557
330
2
100
AcDbEntity
  8
Layer3
100
AcDbLine
 10
486.4337057877949
 20
613.8240902714597
 30
0.0
 11
476.4337057877949
 21
613.8240902714597
 31
0.0
  0
LINE
  5
55A
330
2
100
AcDbEntity
  8
Layer3
100
AcDbLine
 10
491.2486603640184
 20
617.8240902714597
 30
0.0
 11
471.6187512115713
 21
617.8240902714597
 31
0.0
  0
LINE
  5
55C
330
2
100
AcDbEntity
  8
Layer3
100
AcDbLine
 10
486.4337057877949
 20
589.3240902714597
 30
0.0
 11
484.9337057877949
 21
587.8240902714598
 31
0.0
  0
LINE
  5
55D
330
2
100
AcDbEntity
  8
Layer3
100
AcDbLine
 10
477.3337057877949
 20
613.8240902714597
 30
0.0
 11
477.3337057877949
 21
588.4240902714598
 31
0.0
  0
LINE
  5
55E
330
2
100
AcDbEntity
  8
Layer3
100
AcDbLine
 10
476.4337057877949
 20
617.8240902714597
 30
0.0
 11
476.4337057877949
 21
589.3240902714597
 31
0.0
  0
LINE
  5
55F
330
2
100
AcDbEntity
  8
Layer3
100
AcDbLine
 10
476.4337057877949
 20
589.3240902714597
 30
0.0
 11
477.9337057877949
 21
587.8240902714598
 31
0.0
  0
LINE
  5
560
330
2
100
AcDbEntity
  8
Layer3
100
AcDbLine
 10
486.4337057877949
 20
589.3240902714597
 30
0.0
 11
476.4337057877949
 21
589.3240902714597
 31
0.0
  0
LINE
  5
561
330
2
100
AcDbEntity
  8
Layer3
100
AcDbLine
 10
484.9337057877949
 20
587.8240902714598
 30
0.0
 11
477.9337057877949
 21
587.8240902714598
 31
0.0
  0
LINE
  5
564
330
2
100
AcDbEntity
  8
Layer3
100
AcDbLine
 10
476.4337057877949
 20
615.382936725084
 30
0.0
 11
477.3337057877949
 21
613.8240902714597
 31
0.0
  0
LINE
  5
567
330
2
100
AcDbEntity
  8
Layer3
100
AcDbLine
 10
485.533705787795
 20
613.8240902714597
 30
0.0
 11
485.533705787795
 21
588.4240902714598
 31
0.0
  0
LINE
  5
568
330
2
100
AcDbEntity
  8
Layer3
100
AcDbLine
 10
486.4337057877949
 20
617.8240902714597
 30
0.0
 11
486.4337057877949
 21
589.3240902714597
 31
0.0
  0
LINE
  5
56B
330
2
100
AcDbEntity
  8
Layer3
100
AcDbLine
 10
486.4337057877949
 20
615.382936725084
 30
0.0
 11
485.533705787795
 21
613.8240902714597
 31
0.0
  0
LINE
  5
593
330
2
100
AcDbEntity
  8
Layer3
100
AcDbLine
 10
625.4337057877947
 20
613.4496290044987
 30
0.0
 11
625.4337057877947
 21
580.4496290044987
 31
0.0
  0
LINE
  5
594
330
2
100
AcDbEntity
  8
Layer3
100
AcDbLine
 10
637.4337057877946
 20
613.4496290044987
 30
0.0
 11
637.4337057877946
 21
580.4496290044987
 31
0.0
  0
LINE
  5
595
330
2
100
AcDbEntity
  8
Layer3
100
AcDbLine
 10
636.4337057877945
 20
608.4496290044988
 30
0.0
 11
636.4337057877946
 21
579.4496290044987
 31
0.0
  0
LINE
  5
596
330
2
100
AcDbEntity
  8
Layer3
100
AcDbLine
 10
626.4337057877947
 20
608.4496290044987
 30
0.0
 11
626.4337057877947
 21
579.4496290044987
 31
0.0
  0
LINE
  5
597
330
2
100
AcDbEntity
  8
Layer3
100
AcDbLine
 10
635.4337057877947
 20
578.4496290044987
 30
0.0
 11
627.4337057877946
 21
578.4496290044987
 31
0.0
  0
LINE
  5
598
330
2
100
AcDbEntity
  8
Layer3
100
AcDbLine
 10
637.4337057877946
 20
580.4496290044987
 30
0.0
 11
625.4337057877948
 21
580.4496290044987
 31
0.0
  0
LINE
  5
599
330
2
100
AcDbEntity
  8
Layer3
100
AcDbLine
 10
625.4337057877947
 20
580.4496290044987
 30
0.0
 11
627.4337057877946
 21
578.4496290044987
 31
0.0
  0
LINE
  5
59A
330
2
100
AcDbEntity
  8
Layer3
100
AcDbLine
 10
637.4337057877946
 20
580.4496290044987
 30
0.0
 11
635.4337057877947
 21
578.4496290044987
 31
0.0
  0
LINE
  5
59D
330
2
100
AcDbEntity
  8
Layer3
100
AcDbLine
 10
642.4033609023975
 20
613.4496290044987
 30
0.0
 11
620.4640506731915
 21
613.4496290044986
 31
0.0
  0
LINE
  5
5A1
330
2
100
AcDbEntity
  8
Layer3
100
AcDbLine
 10
637.4337057877946
 20
608.4496290044986
 30
0.0
 11
625.4337057877947
 21
608.4496290044986
 31
0.0
  0
LINE
  5
5CC
330
2
100
AcDbEntity
  8
Layer3
100
AcDbLine
 10
788.4337057877947
 20
602.8751677375372
 30
0.0
 11
774.4337057877946
 21
602.8751677375372
 31
0.0
  0
LINE
  5
5CF
330
2
100
AcDbEntity
  8
Layer3
100
AcDbLine
 10
794.1354117099663
 20
608.8751677375372
 30
0.0
 11
768.7319998656228
 21
608.8751677375372
 31
0.0
  0
LINE
  5
5D0
330
2
100
AcDbEntity
  8
Layer3
100
AcDbLine
 10
786.4337057877946
 20
568.8751677375372
 30
0.0
 11
776.4337057877947
 21
568.8751677375372
 31
0.0
  0
LINE
  5
5D1
330
2
100
AcDbEntity
  8
Layer3
100
AcDbLine
 10
788.4337057877947
 20
570.8751677375373
 30
0.0
 11
774.4337057877946
 21
570.8751677375373
 31
0.0
  0
LINE
  5
5D2
330
2
100
AcDbEntity
  8
Layer3
100
AcDbLine
 10
774.4337057877946
 20
608.8751677375372
 30
0.0
 11
774.4337057877946
 21
570.8751677375373
 31
0.0
  0
LINE
  5
5D3
330
2
100
AcDbEntity
  8
Layer3
100
AcDbLine
 10
775.6337057877946
 20
602.8751677375372
 30
0.0
 11
775.6337057877946
 21
569.6751677375372
 31
0.0
  0
LINE
  5
5D4
330
2
100
AcDbEntity
  8
Layer3
100
AcDbLine
 10
774.4337057877946
 20
570.8751677375373
 30
0.0
 11
776.4337057877947
 21
568.8751677375372
 31
0.0
  0
LINE
  5
5D5
330
2
100
AcDbEntity
  8
Layer3
100
AcDbLine
 10
775.6337057877946
 20
602.8751677375372
 30
0.0
 11
774.4337057877946
 21
604.9536287066199
 31
0.0
  0
LINE
  5
5DA
330
2
100
AcDbEntity
  8
Layer3
100
AcDbLine
 10
788.4337057877947
 20
608.8751677375372
 30
0.0
 11
788.4337057877947
 21
570.8751677375373
 31
0.0
  0
LINE
  5
5DB
330
2
100
AcDbEntity
  8
Layer3
100
AcDbLine
 10
787.2337057877946
 20
602.8751677375372
 30
0.0
 11
787.2337057877946
 21
569.6751677375372
 31
0.0
  0
LINE
  5
5DC
330
2
100
AcDbEntity
  8
Layer3
100
AcDbLine
 10
788.4337057877947
 20
570.8751677375373
 30
0.0
 11
786.4337057877946
 21
568.8751677375372
 31
0.0
  0
LINE
  5
5DD
330
2
100
AcDbEntity
  8
Layer3
100
AcDbLine
 10
787.2337057877946
 20
602.8751677375372
 30
0.0
 11
788.4337057877947
 21
604.9536287066199
 31
0.0
  0
LINE
  5
607
330
2
100
AcDbEntity
  8
Layer3
100
AcDbLine
 10
942.9337057877946
 20
614.3914252045753
 30
0.0
 11
919.9337057877947
 21
614.3914252045752
 31
0.0
  0
LINE
  5
609
330
2
100
AcDbEntity
  8
Layer3
100
AcDbLine
 10
939.4337057877946
 20
597.3914252045752
 30
0.0
 11
923.4337057877947
 21
597.3914252045753
 31
0.0
  0
LINE
  5
60A
330
2
100
AcDbEntity
  8
Layer3
100
AcDbLine
 10
945.2901057877946
 20
604.3914252045753
 30
0.0
 11
917.5773057877947
 21
604.3914252045753
 31
0.0
  0
LINE
  5
60B
330
2
100
AcDbEntity
  8
Layer3
100
AcDbLine
 10
939.4337057877946
 20
561.3914252045752
 30
0.0
 11
923.4337057877947
 21
561.3914252045752
 31
0.0
  0
LINE
  5
60C
330
2
100
AcDbEntity
  8
Layer3
100
AcDbLine
 10
937.4337057877946
 20
559.3914252045752
 30
0.0
 11
925.4337057877947
 21
559.3914252045752
 31
0.0
  0
LINE
  5
60D
330
2
100
AcDbEntity
  8
Layer3
100
AcDbLine
 10
923.4337057877947
 20
604.3914252045753
 30
0.0
 11
923.4337057877947
 21
561.3914252045752
 31
0.0
  0
LINE
  5
60E
330
2
100
AcDbEntity
  8
Layer3
100
AcDbLine
 10
924.6337057877948
 20
597.3914252045753
 30
0.0
 11
924.6337057877948
 21
560.1914252045753
 31
0.0
  0
LINE
  5
60F
330
2
100
AcDbEntity
  8
Layer3
100
AcDbLine
 10
923.4337057877947
 20
561.3914252045752
 30
0.0
 11
925.4337057877947
 21
559.3914252045752
 31
0.0
  0
LINE
  5
610
330
2
100
AcDbEntity
  8
Layer3
100
AcDbLine
 10
924.5055057877946
 20
604.3914252045753
 30
0.0
 11
924.5055057877946
 21
613.0309576645753
 31
0.0
  0
LINE
  5
611
330
2
100
AcDbEntity
  8
Layer3
100
AcDbLine
 10
917.5773057877947
 20
604.3914252045753
 30
0.0
 11
917.5773057877947
 21
613.0309570302573
 31
0.0
  0
LINE
  5
612
330
2
100
AcDbEntity
  8
Layer3
100
AcDbLine
 10
924.6337057877948
 20
597.3914252045753
 30
0.0
 11
923.4337057877946
 21
599.4698861736582
 31
0.0
  0
LINE
  5
615
330
2
100
AcDbEntity
  8
Layer3
100
AcDbLine
 10
939.4337057877946
 20
604.3914252045753
 30
0.0
 11
939.4337057877946
 21
561.3914252045752
 31
0.0
  0
LINE
  5
616
330
2
100
AcDbEntity
  8
Layer3
100
AcDbLine
 10
938.2337057877945
 20
597.3914252045753
 30
0.0
 11
938.2337057877945
 21
560.1914252045753
 31
0.0
  0
LINE
  5
617
330
2
100
AcDbEntity
  8
Layer3
100
AcDbLine
 10
939.4337057877946
 20
561.3914252045752
 30
0.0
 11
937.4337057877946
 21
559.3914252045752
 31
0.0
  0
LINE
  5
618
330
2
100
AcDbEntity
  8
Layer3
100
AcDbLine
 10
945.2901057877946
 20
604.3914252045753
 30
0.0
 11
945.2901057877946
 21
613.0309570302572
 31
0.0
  0
LINE
  5
619
330
2
100
AcDbEntity
  8
Layer3
100
AcDbLine
 10
938.3619057877947
 20
604.3914252045753
 30
0.0
 11
938.3619057877947
 21
613.0309576645753
 31
0.0
  0
LINE
  5
61A
330
2
100
AcDbEntity
  8
Layer3
100
AcDbLine
 10
938.2337057877945
 20
597.3914252045753
 30
0.0
 11
939.4337057877946
 21
599.4698861736582
 31
0.0
  0
LINE
  5
642
330
2
100
AcDbEntity
  8
Layer3
100
AcDbLine
 10
1098.754205787794
 20
598.6262452036148
 30
0.0
 11
1064.113205787794
 21
598.6262452036148
 31
0.0
  0
LINE
  5
645
330
2
100
AcDbEntity
  8
Layer3
100
AcDbLine
 10
1091.433705787794
 20
551.1262452036147
 30
0.0
 11
1071.433705787794
 21
551.1262452036147
 31
0.0
  0
LINE
  5
646
330
2
100
AcDbEntity
  8
Layer3
100
AcDbLine
 10
1088.933705787794
 20
548.6262452036148
 30
0.0
 11
1073.933705787794
 21
548.6262452036148
 31
0.0
  0
LINE
  5
647
330
2
100
AcDbEntity
  8
Layer3
100
AcDbLine
 10
1091.433705787794
 20
594.6262452036148
 30
0.0
 11
1071.433705787794
 21
594.6262452036148
 31
0.0
  0
LINE
  5
648
330
2
100
AcDbEntity
  8
Layer3
100
AcDbLine
 10
1071.433705787794
 20
598.6262452036148
 30
0.0
 11
1071.433705787794
 21
551.1262452036147
 31
0.0
  0
LINE
  5
649
330
2
100
AcDbEntity
  8
Layer3
100
AcDbLine
 10
1072.933705787794
 20
594.6262452036148
 30
0.0
 11
1072.933705787794
 21
549.6262452036147
 31
0.0
  0
LINE
  5
64A
330
2
100
AcDbEntity
  8
Layer3
100
AcDbLine
 10
1071.433705787794
 20
551.1262452036147
 30
0.0
 11
1073.933705787794
 21
548.6262452036148
 31
0.0
  0
LINE
  5
64B
330
2
100
AcDbEntity
  8
Layer3
100
AcDbLine
 10
1072.773455787794
 20
598.6262452036148
 30
0.0
 11
1072.773455787794
 21
609.9978287693655
 31
0.0
  0
LINE
  5
64C
330
2
100
AcDbEntity
  8
Layer3
100
AcDbLine
 10
1064.113205787794
 20
598.6262452036148
 30
0.0
 11
1064.113205787794
 21
609.9978287693655
 31
0.0
  0
LINE
  5
64D
330
2
100
AcDbEntity
  8
Layer3
100
AcDbLine
 10
1072.933705787795
 20
594.6262452036149
 30
0.0
 11
1071.433705787794
 21
597.2243214149683
 31
0.0
  0
LINE
  5
650
330
2
100
AcDbEntity
  8
Layer3
100
AcDbLine
 10
1091.433705787794
 20
598.6262452036148
 30
0.0
 11
1091.433705787794
 21
551.1262452036147
 31
0.0
  0
LINE
  5
651
330
2
100
AcDbEntity
  8
Layer3
100
AcDbLine
 10
1089.933705787794
 20
594.6262452036148
 30
0.0
 11
1089.933705787794
 21
549.6262452036147
 31
0.0
  0
LINE
  5
652
330
2
100
AcDbEntity
  8
Layer3
100
AcDbLine
 10
1091.433705787794
 20
551.1262452036147
 30
0.0
 11
1088.933705787794
 21
548.6262452036148
 31
0.0
  0
LINE
  5
654
330
2
100
AcDbEntity
  8
Layer3
100
AcDbLine
 10
1090.093955787794
 20
598.6262452036148
 30
0.0
 11
1090.093955787794
 21
609.9978287693655
 31
0.0
  0
LINE
  5
655
330
2
100
AcDbEntity
  8
Layer3
100
AcDbLine
 10
1089.933705787794
 20
594.6262452036149
 30
0.0
 11
1091.433705787794
 21
597.2243214149683
 31
0.0
  0
LINE
  5
656
330
2
100
AcDbEntity
  8
Layer3
100
AcDbLine
 10
1098.754205787794
 20
598.6262452036148
 30
0.0
 11
1098.754205787794
 21
609.9978287693653
 31
0.0
  0
LINE
  5
67D
330
2
100
AcDbEntity
  8
Layer3
100
AcDbLine
 10
1391.826005672373
 20
589.5773226696921
 30
0.0
 11
1391.826005672373
 21
602.3922838596923
 31
0.0
  0
LINE
  5
67E
330
2
100
AcDbEntity
  8
Layer3
100
AcDbLine
 10
1402.218305672373
 20
589.5773226696921
 30
0.0
 11
1402.218305672373
 21
602.3922828409172
 31
0.0
  0
LINE
  5
67F
330
2
100
AcDbEntity
  8
Layer3
100
AcDbLine
 10
1371.041405672373
 20
589.5773226696921
 30
0.0
 11
1371.041405672373
 21
602.3922838596923
 31
0.0
  0
LINE
  5
680
330
2
100
AcDbEntity
  8
Layer3
100
AcDbLine
 10
1360.649105672373
 20
589.5773226696921
 30
0.0
 11
1360.649105672373
 21
602.3922828409171
 31
0.0
  0
LINE
  5
681
330
2
100
AcDbEntity
  8
Layer3
100
AcDbLine
 10
1393.433705672373
 20
578.5773226696923
 30
0.0
 11
1369.433705672373
 21
578.5773226696922
 31
0.0
  0
LINE
  5
682
330
2
100
AcDbEntity
  8
Layer3
100
AcDbLine
 10
1402.218305672373
 20
589.5773226696921
 30
0.0
 11
1360.649105672373
 21
589.5773226696921
 31
0.0
  0
LINE
  5
683
330
2
100
AcDbEntity
  8
Layer3
100
AcDbLine
 10
1390.133705672373
 20
524.5773226696922
 30
0.0
 11
1372.733705672373
 21
524.5773226696922
 31
0.0
  0
LINE
  5
684
330
2
100
AcDbEntity
  8
Layer3
100
AcDbLine
 10
1393.433705672373
 20
527.8773226696922
 30
0.0
 11
1369.433705672373
 21
527.8773226696922
 31
0.0
  0
LINE
  5
685
330
2
100
AcDbEntity
  8
Layer3
100
AcDbLine
 10
1369.433705672373
 20
589.5773226696921
 30
0.0
 11
1369.433705672373
 21
527.8773226696922
 31
0.0
  0
LINE
  5
686
330
2
100
AcDbEntity
  8
Layer3
100
AcDbLine
 10
1371.083705672373
 20
578.5773226696923
 30
0.0
 11
1371.083705672373
 21
526.2273226696922
 31
0.0
  0
LINE
  5
687
330
2
100
AcDbEntity
  8
Layer3
100
AcDbLine
 10
1369.433705672373
 20
527.8773226696922
 30
0.0
 11
1372.733705672373
 21
524.5773226696922
 31
0.0
  0
LINE
  5
688
330
2
100
AcDbEntity
  8
Layer3
100
AcDbLine
 10
1371.083705672373
 20
578.5773226696923
 30
0.0
 11
1369.433705672373
 21
581.4352065021807
 31
0.0
  0
LINE
  5
689
330
2
100
AcDbEntity
  8
Layer3
100
AcDbLine
 10
1393.433705672373
 20
589.5773226696921
 30
0.0
 11
1393.433705672373
 21
527.8773226696922
 31
0.0
  0
LINE
  5
68A
330
2
100
AcDbEntity
  8
Layer3
100
AcDbLine
 10
1391.783705672373
 20
578.5773226696923
 30
0.0
 11
1391.783705672373
 21
526.2273226696922
 31
0.0
  0
LINE
  5
68B
330
2
100
AcDbEntity
  8
Layer3
100
AcDbLine
 10
1393.433705672373
 20
527.8773226696922
 30
0.0
 11
1390.133705672373
 21
524.5773226696922
 31
0.0
  0
LINE
  5
68C
330
2
100
AcDbEntity
  8
Layer3
100
AcDbLine
 10
1391.783705672372
 20
578.5773226696923
 30
0.0
 11
1393.433705672372
 21
581.4352065021807
 31
0.0
  0
LINE
  5
68D
330
2
100
AcDbEntity
  8
Layer3
100
AcDbLine
 10
1398.433705672373
 20
604.5773226696922
 30
0.0
 11
1364.433705672373
 21
604.5773226696923
 31
0.0
  0
LINE
  5
69E
330
2
100
AcDbEntity
  8
Layer3
100
AcDbLine
 10
636.4337057877945
 20
608.4496290044986
 30
0.0
 11
637.4337057877946
 21
610.1816798120677
 31
0.0
  0
LINE
  5
69F
330
2
100
AcDbEntity
  8
Layer3
100
AcDbLine
 10
626.4337057877947
 20
608.4496290044987
 30
0.0
 11
625.4337057877947
 21
610.1816798120676
 31
0.0
  0
LINE
  5
6A2
330
2
100
AcDbEntity
  8
Layer3
100
AcDbLine
 10
334.6837057877951
 20
619.1985515384212
 30
0.0
 11
335.4337057877951
 21
620.4975896440978
 31
0.0
  0
LINE
  5
6A3
330
2
100
AcDbEntity
  8
Layer3
100
AcDbLine
 10
328.1837057877952
 20
619.1985515384212
 30
0.0
 11
327.4337057877951
 21
620.4975896440978
 31
0.0
  0
LINE
  5
6A6
330
2
100
AcDbEntity
  8
Layer3
100
AcDbLine
 10
183.8337057877947
 20
619.7730128053824
 30
0.0
 11
184.4337057877947
 21
620.8122432899237
 31
0.0
  0
LINE
  5
6A7
330
2
100
AcDbEntity
  8
Layer3
100
AcDbLine
 10
179.0337057877948
 20
619.7730128053824
 30
0.0
 11
178.4337057877948
 21
620.8122432899237
 31
0.0
  0
LINE
  5
6A8
330
2
100
AcDbEntity
  8
Layer3
100
AcDbLine
 10
33.4337057877949
 20
626.5474740723436
 30
0.0
 11
33.9337057877949
 21
627.4134994761281
 31
0.0
  0
LINE
  5
6A9
330
2
100
AcDbEntity
  8
Layer3
100
AcDbLine
 10
-116.9662942122053
 20
632.521935339305
 30
0.0
 11
-116.5662942122053
 21
633.2147556623324
 31
0.0
  0
LINE
  5
6AA
330
2
100
AcDbEntity
  8
Layer3
100
AcDbLine
 10
29.4337057877949
 20
626.5474740723436
 30
0.0
 11
28.9337057877949
 21
627.4134994761281
 31
0.0
  0
LINE
  5
6AB
330
2
100
AcDbEntity
  8
Layer3
100
AcDbLine
 10
-120.1662942122053
 20
632.521935339305
 30
0.0
 11
-120.5662942122053
 21
633.2147556623326
 31
0.0
  0
LINE
  5
811
330
2
100
AcDbEntity
  8
Layer3
100
AcDbLine
 10
-267.3662942122048
 20
636.5963966052309
 30
0.0
 11
-267.0662942122048
 21
637.1160118475016
 31
0.0
  0
LINE
  5
813
330
2
100
AcDbEntity
  8
Layer3
100
AcDbLine
 10
-269.7662942122048
 20
636.5963966052309
 30
0.0
 11
-270.0662942122048
 21
637.1160118475014
 31
0.0
  0
LWPOLYLINE
  5
84C
330
2
100
AcDbEntity
  8
Layer3
100
AcDbPolyline
 90
        6
 70
     1
 43
0.0
 10
1222.19610148076
 20
667.5055504943058
 10
1212.958497173726
 20
651.5055504943058
 10
1222.19610148076
 20
635.5055504943058
 10
1240.671310094828
 20
635.5055504943058
 10
1249.908914401862
 20
651.5055504943058
 10
1240.671310094828
 20
667.5055504943058
  0
LINE
  5
851
330
2
100
AcDbEntity
  8
Layer3
100
AcDbLine
 10
1212.958497173726
 20
606.1340464424262
 30
0.0
 11
1212.958497173726
 21
593.8517839366534
 31
0.0
  0
LINE
  5
852
330
2
100
AcDbEntity
  8
Layer3
100
AcDbLine
 10
1249.908914401862
 20
606.1340464424262
 30
0.0
 11
1249.908914401862
 21
593.8517839366534
 31
0.0
  0
LINE
  5
853
330
2
100
AcDbEntity
  8
Layer3
100
AcDbLine
 10
1240.671310094828
 20
606.1340464424262
 30
0.0
 11
1240.671310094828
 21
593.8517839366534
 31
0.0
  0
LINE
  5
854
330
2
100
AcDbEntity
  8
Layer3
100
AcDbLine
 10
1222.19610148076
 20
606.1340464424262
 30
0.0
 11
1222.19610148076
 21
593.8517839366534
 31
0.0
  0
LINE
  5
856
330
2
100
AcDbEntity
  8
Layer3
100
AcDbLine
 10
1217.577299327243
 20
607.8517839366535
 30
0.0
 11
1222.19610148076
 21
607.8517839366534
 31
0.0
  0
LINE
  5
857
330
2
100
AcDbEntity
  8
Layer3
100
AcDbLine
 10
1222.19610148076
 20
607.8517839366535
 30
0.0
 11
1240.671310094828
 21
607.8517839366535
 31
0.0
  0
LINE
  5
85D
330
2
100
AcDbEntity
  8
Layer3
100
AcDbLine
 10
1215.933705787794
 20
607.8517839366535
 30
0.0
 11
1246.933705787794
 21
607.8517839366535
 31
0.0
  0
LINE
  5
85E
330
2
100
AcDbEntity
  8
Layer3
100
AcDbLine
 10
1212.958497173726
 20
593.8517839366535
 30
0.0
 11
1249.908914401862
 21
593.8517839366534
 31
0.0
  0
LINE
  5
86E
330
2
100
AcDbEntity
  8
Layer3
100
AcDbLine
 10
1220.433705787794
 20
593.8517839366534
 30
0.0
 11
1220.433705787794
 21
536.3517839366534
 31
0.0
  0
LINE
  5
86F
330
2
100
AcDbEntity
  8
Layer3
100
AcDbLine
 10
1242.433705787794
 20
593.8517839366534
 30
0.0
 11
1242.433705787794
 21
536.3517839366534
 31
0.0
  0
LINE
  5
870
330
2
100
AcDbEntity
  8
Layer3
100
AcDbLine
 10
1240.809705787794
 20
588.8517839366535
 30
0.0
 11
1240.809705787794
 21
534.7277839366535
 31
0.0
  0
LINE
  5
871
330
2
100
AcDbEntity
  8
Layer3
100
AcDbLine
 10
1222.057705787794
 20
588.8517839366535
 30
0.0
 11
1222.057705787794
 21
534.7277839366535
 31
0.0
  0
LINE
  5
872
330
2
100
AcDbEntity
  8
Layer3
100
AcDbLine
 10
1220.433705787794
 20
536.3517839366534
 30
0.0
 11
1242.433705787794
 21
536.3517839366534
 31
0.0
  0
LINE
  5
873
330
2
100
AcDbEntity
  8
Layer3
100
AcDbLine
 10
1222.933705787794
 20
533.8517839366534
 30
0.0
 11
1239.933705787794
 21
533.8517839366534
 31
0.0
  0
LINE
  5
874
330
2
100
AcDbEntity
  8
Layer3
100
AcDbLine
 10
1220.433705787794
 20
536.3517839366534
 30
0.0
 11
1222.933705787794
 21
533.8517839366534
 31
0.0
  0
LINE
  5
875
330
2
100
AcDbEntity
  8
Layer3
100
AcDbLine
 10
1242.433705787794
 20
536.3517839366534
 30
0.0
 11
1239.933705787794
 21
533.8517839366534
 31
0.0
  0
LINE
  5
876
330
2
100
AcDbEntity
  8
Layer3
100
AcDbLine
 10
1220.433705787794
 20
588.8517839366535
 30
0.0
 11
1242.433705787794
 21
588.8517839366535
 31
0.0
  0
LINE
  5
877
330
2
100
AcDbEntity
  8
Layer3
100
AcDbLine
 10
1222.057705787794
 20
588.8517839366535
 30
0.0
 11
1220.433705787794
 21
590.4757839366535
 31
0.0
  0
LINE
  5
878
330
2
100
AcDbEntity
  8
Layer3
100
AcDbLine
 10
1240.809705787794
 20
588.8517839366535
 30
0.0
 11
1242.433705787794
 21
590.4757839366534
 31
0.0
  0
LINE
  5
9F1
330
2
100
AcDbEntity
  8
Layer3
100
AcDbLine
 10
-265.9162942122047
 20
640.5963966062891
 30
0.0
 11
-271.2162942122049
 21
640.5963966062891
 31
0.0
  0
LINE
  5
A17
330
2
100
AcDbEntity
  8
Layer3
100
AcDbLine
 10
1546.433705787794
 20
508.8028614027311
 30
0.0
 11
1516.433705787794
 21
508.8028614027311
 31
0.0
  0
LINE
  5
A1A
330
2
100
AcDbEntity
  8
Layer3
100
AcDbLine
 10
1546.433705787794
 20
571.3028614027311
 30
0.0
 11
1516.433705787794
 21
571.3028614027311
 31
0.0
  0
LINE
  5
A1B
330
2
100
AcDbEntity
  8
Layer3
100
AcDbLine
 10
1518.327705787794
 20
571.3028614027311
 30
0.0
 11
1518.327705787794
 21
506.908861402731
 31
0.0
  0
LINE
  5
A1C
330
2
100
AcDbEntity
  8
Layer3
100
AcDbLine
 10
1516.433705787794
 20
582.3028614027309
 30
0.0
 11
1516.433705787794
 21
508.8028614027311
 31
0.0
  0
LINE
  5
A1D
330
2
100
AcDbEntity
  8
Layer3
100
AcDbLine
 10
1516.433705787794
 20
508.8028614027311
 30
0.0
 11
1519.933705787794
 21
505.3028614027311
 31
0.0
  0
LINE
  5
A1E
330
2
100
AcDbEntity
  8
Layer3
100
AcDbLine
 10
1518.327705787794
 20
571.3028614027311
 30
0.0
 11
1516.433705787794
 21
574.5833656322666
 31
0.0
  0
LINE
  5
A1F
330
2
100
AcDbEntity
  8
Layer3
100
AcDbLine
 10
1544.539705787795
 20
571.3028614027311
 30
0.0
 11
1544.539705787794
 21
506.9088614027314
 31
0.0
  0
LINE
  5
A20
330
2
100
AcDbEntity
  8
Layer3
100
AcDbLine
 10
1546.433705787794
 20
582.3028614027309
 30
0.0
 11
1546.433705787794
 21
508.8028614027311
 31
0.0
  0
LINE
  5
A21
330
2
100
AcDbEntity
  8
Layer3
100
AcDbLine
 10
1546.433705787794
 20
508.8028614027311
 30
0.0
 11
1542.933705787794
 21
505.3028614027311
 31
0.0
  0
LINE
  5
A22
330
2
100
AcDbEntity
  8
Layer3
100
AcDbLine
 10
1544.539705787794
 20
571.3028614027311
 30
0.0
 11
1546.433705787794
 21
574.5833656322661
 31
0.0
  0
LINE
  5
A2F
330
2
100
AcDbEntity
  8
Layer3
100
AcDbLine
 10
1504.883705787794
 20
582.3028614027309
 30
0.0
 11
1557.983705787794
 21
582.3028614027309
 31
0.0
  0
LINE
  5
A30
330
2
100
AcDbEntity
  8
Layer3
100
AcDbLine
 10
1509.433705787794
 20
601.302861402731
 30
0.0
 11
1553.433705787794
 21
601.302861402731
 31
0.0
  0
LINE
  5
A33
330
2
100
AcDbEntity
  8
Layer3
100
AcDbLine
 10
1504.883705787794
 20
598.6759176779182
 30
0.0
 11
1504.883705787794
 21
582.3028614027309
 31
0.0
  0
LINE
  5
A34
330
2
100
AcDbEntity
  8
Layer3
100
AcDbLine
 10
1557.983705787794
 20
598.6759176779182
 30
0.0
 11
1557.983705787794
 21
582.3028614027309
 31
0.0
  0
LWPOLYLINE
  5
A36
330
2
100
AcDbEntity
  8
Layer3
100
AcDbPolyline
 90
        6
 70
     1
 43
0.0
 10
1518.154649596433
 20
674.5055504943057
 10
1504.875593405071
 20
651.5055504943058
 10
1518.154649596433
 20
628.5055504943057
 10
1544.712761979156
 20
628.5055504943057
 10
1557.991818170517
 20
651.5055504943058
 10
1544.712761979156
 20
674.5055504943057
  0
LINE
  5
A37
330
2
100
AcDbEntity
  8
Layer3
100
AcDbLine
 10
1518.154649596433
 20
598.6759176779182
 30
0.0
 11
1518.154649596433
 21
582.3028614027309
 31
0.0
  0
LINE
  5
A38
330
2
100
AcDbEntity
  8
Layer3
100
AcDbLine
 10
1544.712761979156
 20
598.6759176779181
 30
0.0
 11
1544.712761979156
 21
582.3028614027309
 31
0.0
  0
LINE
  5
A43
330
2
100
AcDbEntity
  8
Layer3
100
AcDbLine
 10
1542.933705787794
 20
505.3028614027311
 30
0.0
 11
1519.933705787794
 21
505.3028614027311
 31
0.0
  0
LINE
  5
A4A
330
2
100
AcDbEntity
  8
Layer3
100
AcDbLine
 10
1649.679440982365
 20
575.0284001357696
 30
0.0
 11
1713.187970593224
 21
575.0284001357696
 31
0.0
  0
LINE
  5
A4C
330
2
100
AcDbEntity
  8
Layer3
100
AcDbLine
 10
1663.433705787794
 20
575.0284001357697
 30
0.0
 11
1663.433705787794
 21
479.0284001357697
 31
0.0
  0
LINE
  5
A4D
330
2
100
AcDbEntity
  8
Layer3
100
AcDbLine
 10
1699.433705787794
 20
575.0284001357697
 30
0.0
 11
1699.433705787794
 21
479.0284001357697
 31
0.0
  0
LINE
  5
A4E
330
2
100
AcDbEntity
  8
Layer3
100
AcDbLine
 10
1654.933705787794
 20
598.0284001357696
 30
0.0
 11
1707.933705787795
 21
598.0284001357696
 31
0.0
  0
LWPOLYLINE
  5
A53
330
2
100
AcDbEntity
  8
Layer3
100
AcDbPolyline
 90
        6
 70
     1
 43
0.0
 10
1665.55657338508
 20
679.0055504943057
 10
1649.679440982365
 20
651.5055504943058
 10
1665.55657338508
 20
624.0055504943057
 10
1697.310838190509
 20
624.0055504943057
 10
1713.187970593224
 20
651.5055504943058
 10
1697.310838190509
 20
679.0055504943057
  0
LINE
  5
A54
330
2
100
AcDbEntity
  8
Layer3
100
AcDbLine
 10
1649.679440982365
 20
594.9948489359611
 30
0.0
 11
1649.679440982365
 21
575.0284001357696
 31
0.0
  0
LINE
  5
A55
330
2
100
AcDbEntity
  8
Layer3
100
AcDbLine
 10
1713.187970593224
 20
594.9948489359612
 30
0.0
 11
1713.187970593224
 21
575.0284001357696
 31
0.0
  0
LINE
  5
A56
330
2
100
AcDbEntity
  8
Layer3
100
AcDbLine
 10
1665.55657338508
 20
594.9948489359614
 30
0.0
 11
1665.55657338508
 21
575.0284001357696
 31
0.0
  0
LINE
  5
A57
330
2
100
AcDbEntity
  8
Layer3
100
AcDbLine
 10
1697.310838190509
 20
594.9948489359614
 30
0.0
 11
1697.310838190509
 21
575.0284001357696
 31
0.0
  0
LINE
  5
A58
330
2
100
AcDbEntity
  8
Layer3
100
AcDbLine
 10
1667.433705787794
 20
475.0284001357696
 30
0.0
 11
1695.433705787795
 21
475.0284001357696
 31
0.0
  0
LINE
  5
A59
330
2
100
AcDbEntity
  8
Layer3
100
AcDbLine
 10
1663.433705787794
 20
551.0284001357696
 30
0.0
 11
1699.433705787794
 21
551.0284001357697
 31
0.0
  0
LINE
  5
A5A
330
2
100
AcDbEntity
  8
Layer3
100
AcDbLine
 10
1663.433705787794
 20
479.0284001357696
 30
0.0
 11
1699.433705787794
 21
479.0284001357696
 31
0.0
  0
LINE
  5
A5B
330
2
100
AcDbEntity
  8
Layer3
100
AcDbLine
 10
1697.268705787794
 20
551.0284001357696
 30
0.0
 11
1697.268705787794
 21
476.8634001357696
 31
0.0
  0
LINE
  5
A5C
330
2
100
AcDbEntity
  8
Layer3
100
AcDbLine
 10
1665.598705787794
 20
551.0284001357695
 30
0.0
 11
1665.598705787794
 21
476.8634001357696
 31
0.0
  0
LINE
  5
A5D
330
2
100
AcDbEntity
  8
Layer3
100
AcDbLine
 10
1697.268705787794
 20
551.0284001357696
 30
0.0
 11
1699.433705787794
 21
554.7782901341555
 31
0.0
  0
LINE
  5
A5E
330
2
100
AcDbEntity
  8
Layer3
100
AcDbLine
 10
1699.433705787794
 20
479.0284001357697
 30
0.0
 11
1695.433705787795
 21
475.0284001357696
 31
0.0
  0
LINE
  5
A5F
330
2
100
AcDbEntity
  8
Layer3
100
AcDbLine
 10
1663.433705787794
 20
479.0284001357697
 30
0.0
 11
1667.433705787794
 21
475.0284001357696
 31
0.0
  0
LINE
  5
A60
330
2
100
AcDbEntity
  8
Layer3
100
AcDbLine
 10
1665.598705787794
 20
551.0284001357695
 30
0.0
 11
1663.433705787794
 21
554.7782901341555
 31
0.0
  0
LINE
  5
A6E
330
2
100
AcDbEntity
  8
Layer3
100
AcDbLine
 10
1793.933705787794
 20
568.7539388688084
 30
0.0
 11
1868.933705787794
 21
568.7539388688084
 31
0.0
  0
LINE
  5
A70
330
2
100
AcDbEntity
  8
Layer3
100
AcDbLine
 10
1810.433705787795
 20
568.7539388688084
 30
0.0
 11
1810.433705787795
 21
453.2539388688086
 31
0.0
  0
LINE
  5
A71
330
2
100
AcDbEntity
  8
Layer3
100
AcDbLine
 10
1852.433705787794
 20
568.7539388688084
 30
0.0
 11
1852.433705787794
 21
453.2539388688085
 31
0.0
  0
LINE
  5
A72
330
2
100
AcDbEntity
  8
Layer3
100
AcDbLine
 10
1800.433705787795
 20
594.7539388688085
 30
0.0
 11
1862.433705787794
 21
594.7539388688084
 31
0.0
  0
LINE
  5
A76
330
2
100
AcDbEntity
  8
Layer3
100
AcDbLine
 10
1868.933705787794
 20
591.0011621190752
 30
0.0
 11
1868.933705787794
 21
568.7539388688084
 31
0.0
  0
LINE
  5
A77
330
2
100
AcDbEntity
  8
Layer3
100
AcDbLine
 10
1793.933705787794
 20
591.0011621190753
 30
0.0
 11
1793.933705787794
 21
568.7539388688084
 31
0.0
  0
LWPOLYLINE
  5
A78
330
2
100
AcDbEntity
  8
Layer3
100
AcDbPolyline
 90
        6
 70
     1
 43
0.0
 10
1812.669822039131
 20
684.0055504943058
 10
1793.905938290468
 20
651.5055504943058
 10
1812.669822039131
 20
619.0055504943058
 10
1850.197589536457
 20
619.0055504943058
 10
1868.96147328512
 20
651.5055504943058
 10
1850.197589536457
 20
684.0055504943058
  0
LINE
  5
A79
330
2
100
AcDbEntity
  8
Layer3
100
AcDbLine
 10
1812.669822039131
 20
591.0011621190753
 30
0.0
 11
1812.669822039131
 21
568.7539388688084
 31
0.0
  0
LINE
  5
A7A
330
2
100
AcDbEntity
  8
Layer3
100
AcDbLine
 10
1850.197589536457
 20
591.0011621190752
 30
0.0
 11
1850.197589536457
 21
568.7539388688084
 31
0.0
  0
LINE
  5
A84
330
2
100
AcDbEntity
  8
Layer3
100
AcDbLine
 10
1814.933705787794
 20
448.7539388688084
 30
0.0
 11
1847.933705787794
 21
448.7539388688084
 31
0.0
  0
LINE
  5
A85
330
2
100
AcDbEntity
  8
Layer3
100
AcDbLine
 10
1810.433705787795
 20
538.7539388688083
 30
0.0
 11
1852.433705787794
 21
538.7539388688083
 31
0.0
  0
LINE
  5
A86
330
2
100
AcDbEntity
  8
Layer3
100
AcDbLine
 10
1810.433705787795
 20
453.2539388688084
 30
0.0
 11
1852.433705787794
 21
453.2539388688085
 31
0.0
  0
LINE
  5
A87
330
2
100
AcDbEntity
  8
Layer3
100
AcDbLine
 10
1849.997705787794
 20
538.7539388688082
 30
0.0
 11
1849.997705787794
 21
450.8179388688086
 31
0.0
  0
LINE
  5
A88
330
2
100
AcDbEntity
  8
Layer3
100
AcDbLine
 10
1812.869705787795
 20
538.7539388688085
 30
0.0
 11
1812.869705787795
 21
450.8179388688086
 31
0.0
  0
LINE
  5
A8A
330
2
100
AcDbEntity
  8
Layer3
100
AcDbLine
 10
1810.433705787795
 20
543.2539388688083
 30
0.0
 11
1812.869705787795
 21
538.7539388688085
 31
0.0
  0
LINE
  5
A8B
330
2
100
AcDbEntity
  8
Layer3
100
AcDbLine
 10
1852.433705787794
 20
543.2539388688083
 30
0.0
 11
1849.997705787794
 21
538.7539388688082
 31
0.0
  0
LINE
  5
A8C
330
2
100
AcDbEntity
  8
Layer3
100
AcDbLine
 10
1852.433705787794
 20
453.2539388688085
 30
0.0
 11
1847.933705787794
 21
448.7539388688084
 31
0.0
  0
LINE
  5
A8D
330
2
100
AcDbEntity
  8
Layer3
100
AcDbLine
 10
1810.433705787795
 20
453.2539388688086
 30
0.0
 11
1814.933705787794
 21
448.7539388688084
 31
0.0
  0
LINE
  5
B52
330
2
100
AcDbEntity
  8
Layer1
100
AcDbLine
 10
2356.433705787794
 20
709.5189634592611
 30
0.0
 11
-343.5662942122049
 21
709.51896345926
 31
0.0
  0
LINE
  5
B53
330
2
100
AcDbEntity
  8
Layer1
100
AcDbLine
 10
2356.433705787794
 20
809.5189634592603
 30
0.0
 11
-343.5662942122049
 21
809.5189634592598
 31
0.0
  0
MTEXT
  5
B56
330
2
100
AcDbEntity
  8
Layer4
100
AcDbMText
 10
-340.697552037858
 20
908.3409036612952
 30
0.0
 40
30.0
 41
2653.405
 71
     1
 72
     5
  1
Hexagon head bolts and hexagon head screws (JIS B 1180) 1994
 73
     1
 44
1.0
  0
LINE
  5
B58
330
2
100
AcDbEntity
  8
Layer1
100
AcDbLine
 10
2356.433705787794
 20
367.6144020916225
 30
0.0
 11
-343.5662942122048
 21
367.6144020916226
 31
0.0
  0
MTEXT
  5
B5A
330
2
100
AcDbEntity
  8
Layer4
100
AcDbMText
 10
-340.697552037858
 20
1047.522020659392
 30
0.0
 40
50.0
 41
1594.506510739387
 71
     1
 72
     5
  1
Zp{gi[gj{\Ftxt.shx;(JIS B 1180)}@1994
 73
     1
 44
1.0
  0
LINE
  5
BFC
330
2
100
AcDbEntity
  8
Layer1
100
AcDbLine
 10
-343.5662942122049
 20
326.3481751835179
 30
0.0
 11
-343.566294212205
 21
809.51896345926
 31
0.0
  0
LINE
  5
BFD
330
2
100
AcDbEntity
  8
Layer1
100
AcDbLine
 10
-193.5662942122051
 20
326.3481751835179
 30
0.0
 11
-193.5662942122051
 21
809.51896345926
 31
0.0
  0
LINE
  5
BFE
330
2
100
AcDbEntity
  8
Layer1
100
AcDbLine
 10
-43.56629421220509
 20
326.3481751835179
 30
0.0
 11
-43.56629421220509
 21
809.51896345926
 31
0.0
  0
LINE
  5
BFF
330
2
100
AcDbEntity
  8
Layer1
100
AcDbLine
 10
106.4337057877948
 20
326.3481751835179
 30
0.0
 11
106.4337057877949
 21
809.51896345926
 31
0.0
  0
LINE
  5
C00
330
2
100
AcDbEntity
  8
Layer1
100
AcDbLine
 10
256.4337057877949
 20
326.3481751835179
 30
0.0
 11
256.4337057877949
 21
809.51896345926
 31
0.0
  0
LINE
  5
C01
330
2
100
AcDbEntity
  8
Layer1
100
AcDbLine
 10
406.4337057877948
 20
326.3481751835179
 30
0.0
 11
406.4337057877948
 21
809.51896345926
 31
0.0
  0
LINE
  5
C02
330
2
100
AcDbEntity
  8
Layer1
100
AcDbLine
 10
556.4337057877947
 20
326.3481751835179
 30
0.0
 11
556.4337057877947
 21
809.51896345926
 31
0.0
  0
LINE
  5
C03
330
2
100
AcDbEntity
  8
Layer1
100
AcDbLine
 10
706.4337057877946
 20
326.3481751835179
 30
0.0
 11
706.4337057877946
 21
809.51896345926
 31
0.0
  0
LINE
  5
C04
330
2
100
AcDbEntity
  8
Layer1
100
AcDbLine
 10
856.4337057877946
 20
326.3481751835179
 30
0.0
 11
856.4337057877947
 21
809.51896345926
 31
0.0
  0
LINE
  5
C05
330
2
100
AcDbEntity
  8
Layer1
100
AcDbLine
 10
1006.433705787794
 20
326.3481751835179
 30
0.0
 11
1006.433705787794
 21
809.51896345926
 31
0.0
  0
LINE
  5
C06
330
2
100
AcDbEntity
  8
Layer1
100
AcDbLine
 10
1156.433705787794
 20
326.3481751835179
 30
0.0
 11
1156.433705787794
 21
809.51896345926
 31
0.0
  0
LINE
  5
C07
330
2
100
AcDbEntity
  8
Layer1
100
AcDbLine
 10
1306.433705787794
 20
326.3481751835179
 30
0.0
 11
1306.433705787794
 21
809.51896345926
 31
0.0
  0
LINE
  5
C08
330
2
100
AcDbEntity
  8
Layer1
100
AcDbLine
 10
1456.433705787794
 20
326.3481751835179
 30
0.0
 11
1456.433705787794
 21
809.51896345926
 31
0.0
  0
LINE
  5
C09
330
2
100
AcDbEntity
  8
Layer1
100
AcDbLine
 10
1606.433705787794
 20
326.3481751835179
 30
0.0
 11
1606.433705787794
 21
809.51896345926
 31
0.0
  0
LINE
  5
C0A
330
2
100
AcDbEntity
  8
Layer1
100
AcDbLine
 10
1756.433705787794
 20
326.3481751835179
 30
0.0
 11
1756.433705787794
 21
809.51896345926
 31
0.0
  0
LINE
  5
C0B
330
2
100
AcDbEntity
  8
Layer1
100
AcDbLine
 10
1906.433705787794
 20
326.3481751835179
 30
0.0
 11
1906.433705787794
 21
809.51896345926
 31
0.0
  0
MTEXT
  5
C14
330
2
100
AcDbEntity
  8
Layer4
100
AcDbMText
 10
-305.714559030076
 20
776.2172963590091
 30
0.0
 40
30.0
 41
75.03399999999999
 71
     1
 72
     5
  1
M3
 73
     1
 44
1.0
  0
MTEXT
  5
C15
330
2
100
AcDbEntity
  8
Layer4
100
AcDbMText
 10
1794.285440969924
 20
776.2172963590094
 30
0.0
 40
30.0
 41
75.03399999999999
 71
     1
 72
     5
  1
M42
 73
     1
 44
1.0
  0
MTEXT
  5
C2C
330
2
100
AcDbEntity
  8
Layer4
100
AcDbMText
 10
-155.7145590300758
 20
776.2172963590093
 30
0.0
 40
30.0
 41
75.03399999999999
 71
     1
 72
     5
  1
M4
 73
     1
 44
1.0
  0
MTEXT
  5
C35
330
2
100
AcDbEntity
  8
Layer4
100
AcDbMText
 10
-5.714559030075861
 20
776.2172963590093
 30
0.0
 40
30.0
 41
75.03399999999999
 71
     1
 72
     5
  1
M5
 73
     1
 44
1.0
  0
MTEXT
  5
C36
330
2
100
AcDbEntity
  8
Layer4
100
AcDbMText
 10
144.2854409699241
 20
776.2172963590093
 30
0.0
 40
30.0
 41
75.03399999999999
 71
     1
 72
     5
  1
M6
 73
     1
 44
1.0
  0
MTEXT
  5
C37
330
2
100
AcDbEntity
  8
Layer4
100
AcDbMText
 10
294.2854409699241
 20
776.2172963590093
 30
0.0
 40
30.0
 41
75.03399999999999
 71
     1
 72
     5
  1
M8
 73
     1
 44
1.0
  0
MTEXT
  5
C38
330
2
100
AcDbEntity
  8
Layer4
100
AcDbMText
 10
444.2854409699239
 20
776.2172963590094
 30
0.0
 40
30.0
 41
75.03399999999999
 71
     1
 72
     5
  1
M10
 73
     1
 44
1.0
  0
MTEXT
  5
C39
330
2
100
AcDbEntity
  8
Layer4
100
AcDbMText
 10
594.2854409699239
 20
776.2172963590094
 30
0.0
 40
30.0
 41
75.03399999999999
 71
     1
 72
     5
  1
M12
 73
     1
 44
1.0
  0
MTEXT
  5
C3A
330
2
100
AcDbEntity
  8
Layer4
100
AcDbMText
 10
744.2854409699239
 20
776.2172963590094
 30
0.0
 40
30.0
 41
75.03399999999999
 71
     1
 72
     5
  1
M14
 73
     1
 44
1.0
  0
MTEXT
  5
C3B
330
2
100
AcDbEntity
  8
Layer4
100
AcDbMText
 10
894.2854409699238
 20
776.2172963590094
 30
0.0
 40
30.0
 41
75.03399999999999
 71
     1
 72
     5
  1
M16
 73
     1
 44
1.0
  0
MTEXT
  5
C3C
330
2
100
AcDbEntity
  8
Layer4
100
AcDbMText
 10
1044.285440969923
 20
776.2172963590095
 30
0.0
 40
30.0
 41
75.03399999999999
 71
     1
 72
     5
  1
M20
 73
     1
 44
1.0
  0
MTEXT
  5
C3D
330
2
100
AcDbEntity
  8
Layer4
100
AcDbMText
 10
1194.285440969923
 20
776.2172963590095
 30
0.0
 40
30.0
 41
75.03399999999999
 71
     1
 72
     5
  1
M22
 73
     1
 44
1.0
  0
MTEXT
  5
C3E
330
2
100
AcDbEntity
  8
Layer4
100
AcDbMText
 10
1344.285440969923
 20
776.2172963590094
 30
0.0
 40
30.0
 41
75.03399999999999
 71
     1
 72
     5
  1
M24
 73
     1
 44
1.0
  0
MTEXT
  5
C3F
330
2
100
AcDbEntity
  8
Layer4
100
AcDbMText
 10
1494.285440969924
 20
776.2172963590094
 30
0.0
 40
30.0
 41
75.03399999999999
 71
     1
 72
     5
  1
M30
 73
     1
 44
1.0
  0
MTEXT
  5
C40
330
2
100
AcDbEntity
  8
Layer4
100
AcDbMText
 10
1644.285440969924
 20
776.2172963590094
 30
0.0
 40
30.0
 41
75.03399999999999
 71
     1
 72
     5
  1
M36
 73
     1
 44
1.0
  0
MTEXT
  5
C41
330
2
100
AcDbEntity
  8
Layer4
100
AcDbMText
 10
-340.697552037858
 20
966.9752627205994
 30
0.0
 40
30.0
 41
2198.538
 71
     1
 72
     5
  1
(ISO 4014`4018,ISO 8676 yISO 8765Zp{gj@
 73
     1
 44
1.0
  0
LINE
  5
C43
330
2
100
AcDbEntity
  8
Layer1
100
AcDbLine
 10
2056.433705787794
 20
326.3481751835179
 30
0.0
 11
2056.433705787794
 21
809.51896345926
 31
0.0
  0
LINE
  5
C44
330
2
100
AcDbEntity
  8
Layer1
100
AcDbLine
 10
2206.433705787794
 20
326.3481751835179
 30
0.0
 11
2206.433705787794
 21
809.51896345926
 31
0.0
  0
LINE
  5
C45
330
2
100
AcDbEntity
  8
Layer1
100
AcDbLine
 10
2356.433705787794
 20
326.3481751835179
 30
0.0
 11
2356.433705787794
 21
809.51896345926
 31
0.0
  0
MTEXT
  5
C46
330
2
100
AcDbEntity
  8
Layer4
100
AcDbMText
 10
1944.285440969924
 20
776.2172963590091
 30
0.0
 40
30.0
 41
75.03399999999999
 71
     1
 72
     5
  1
M48
 73
     1
 44
1.0
  0
MTEXT
  5
C47
330
2
100
AcDbEntity
  8
Layer4
100
AcDbMText
 10
2094.285440969924
 20
776.2172963590091
 30
0.0
 40
30.0
 41
75.03399999999999
 71
     1
 72
     5
  1
M56
 73
     1
 44
1.0
  0
MTEXT
  5
C48
330
2
100
AcDbEntity
  8
Layer4
100
AcDbMText
 10
2244.285440969924
 20
776.2172963590091
 30
0.0
 40
30.0
 41
75.03399999999999
 71
     1
 72
     5
  1
M64
 73
     1
 44
1.0
  0
LINE
  5
C4F
330
2
100
AcDbEntity
  8
Layer3
100
AcDbLine
 10
1957.433705787794
 20
561.4794776018473
 30
0.0
 11
1957.433705787794
 21
446.4794776018472
 31
0.0
  0
LINE
  5
C50
330
2
100
AcDbEntity
  8
Layer3
100
AcDbLine
 10
2005.433705787794
 20
561.4794776018473
 30
0.0
 11
2005.433705787794
 21
446.4794776018471
 31
0.0
  0
LINE
  5
C51
330
2
100
AcDbEntity
  8
Layer3
100
AcDbLine
 10
2017.433705787794
 20
591.4794776018474
 30
0.0
 11
1945.433705787795
 21
591.4794776018474
 31
0.0
  0
LINE
  5
C52
330
2
100
AcDbEntity
  8
Layer3
100
AcDbLine
 10
2024.734975977016
 20
561.4794776018473
 30
0.0
 11
1938.132435598572
 21
561.4794776018473
 31
0.0
  0
LWPOLYLINE
  5
C56
330
2
100
AcDbEntity
  8
Layer3
100
AcDbPolyline
 90
        6
 70
     1
 43
0.0
 10
1959.783070693183
 20
689.0055504943059
 10
1938.132435598572
 20
651.5055504943059
 10
1959.783070693183
 20
614.0055504943059
 10
2003.084340882405
 20
614.0055504943059
 10
2024.734975977016
 20
651.5055504943059
 10
2003.084340882405
 20
689.0055504943059
  0
LINE
  5
C57
330
2
100
AcDbEntity
  8
Layer3
100
AcDbLine
 10
1938.132435598572
 20
587.2640872926734
 30
0.0
 11
1938.132435598572
 21
561.4794776018473
 31
0.0
  0
LINE
  5
C58
330
2
100
AcDbEntity
  8
Layer3
100
AcDbLine
 10
2024.734975977017
 20
587.2640872926734
 30
0.0
 11
2024.734975977016
 21
561.4794776018473
 31
0.0
  0
LINE
  5
C59
330
2
100
AcDbEntity
  8
Layer3
100
AcDbLine
 10
1959.783070693183
 20
587.2640872926736
 30
0.0
 11
1959.783070693183
 21
561.4794776018473
 31
0.0
  0
LINE
  5
C5A
330
2
100
AcDbEntity
  8
Layer3
100
AcDbLine
 10
2003.084340882405
 20
587.2640872926736
 30
0.0
 11
2003.084340882405
 21
561.4794776018473
 31
0.0
  0
LINE
  5
C67
330
2
100
AcDbEntity
  8
Layer3
100
AcDbLine
 10
1957.433705787794
 20
528.556122983801
 30
0.0
 11
2005.433705787794
 21
528.5561229838012
 31
0.0
  0
LINE
  5
C68
330
2
100
AcDbEntity
  8
Layer3
100
AcDbLine
 10
2000.433705787795
 20
441.4794776018473
 30
0.0
 11
1962.433705787794
 21
441.4794776018473
 31
0.0
  0
LINE
  5
C69
330
2
100
AcDbEntity
  8
Layer3
100
AcDbLine
 10
2005.433705787794
 20
446.4794776018472
 30
0.0
 11
1957.433705787794
 21
446.4794776018472
 31
0.0
  0
LINE
  5
C6A
330
2
100
AcDbEntity
  8
Layer3
100
AcDbLine
 10
2002.733705787794
 20
528.556122983801
 30
0.0
 11
2002.733705787794
 21
443.7794776018468
 31
0.0
  0
LINE
  5
C6B
330
2
100
AcDbEntity
  8
Layer3
100
AcDbLine
 10
1960.133705787795
 20
528.5561229838024
 30
0.0
 11
1960.133705787795
 21
443.7794776018465
 31
0.0
  0
LINE
  5
C6D
330
2
100
AcDbEntity
  8
Layer3
100
AcDbLine
 10
2002.733705787794
 20
528.556122983801
 30
0.0
 11
2005.433705787794
 21
533.5561229838011
 31
0.0
  0
LINE
  5
C6E
330
2
100
AcDbEntity
  8
Layer3
100
AcDbLine
 10
2005.433705787794
 20
446.4794776018471
 30
0.0
 11
2000.433705787795
 21
441.4794776018473
 31
0.0
  0
LINE
  5
C6F
330
2
100
AcDbEntity
  8
Layer3
100
AcDbLine
 10
1960.133705787795
 20
528.5561229838024
 30
0.0
 11
1957.433705787795
 21
533.5561229838011
 31
0.0
  0
LINE
  5
C70
330
2
100
AcDbEntity
  8
Layer3
100
AcDbLine
 10
1957.433705787794
 20
446.4794776018472
 30
0.0
 11
1962.433705787794
 21
441.4794776018473
 31
0.0
  0
LINE
  5
C71
330
2
100
AcDbEntity
  8
Layer3
100
AcDbLine
 10
2172.433705787794
 20
588.2050163348859
 30
0.0
 11
2090.433705787794
 21
588.2050163348859
 31
0.0
  0
LINE
  5
C72
330
2
100
AcDbEntity
  8
Layer3
100
AcDbLine
 10
2180.508478668913
 20
553.2050163348859
 30
0.0
 11
2082.358932906676
 21
553.2050163348859
 31
0.0
  0
LWPOLYLINE
  5
C78
330
2
100
AcDbEntity
  8
Layer3
100
AcDbPolyline
 90
        6
 70
     1
 43
0.0
 10
2106.896319347235
 20
694.0055504943059
 10
2082.358932906676
 20
651.5055504943059
 10
2106.896319347235
 20
609.0055504943059
 10
2155.971092228353
 20
609.0055504943059
 10
2180.508478668913
 20
651.5055504943059
 10
2155.971092228353
 20
694.0055504943059
  0
LINE
  5
C79
330
2
100
AcDbEntity
  8
Layer3
100
AcDbLine
 10
2082.358932906677
 20
583.5430440383275
 30
0.0
 11
2082.358932906676
 21
553.2050163348859
 31
0.0
  0
LINE
  5
C7A
330
2
100
AcDbEntity
  8
Layer3
100
AcDbLine
 10
2180.508478668914
 20
583.5430440383261
 30
0.0
 11
2180.508478668913
 21
553.2050163348859
 31
0.0
  0
LINE
  5
C7B
330
2
100
AcDbEntity
  8
Layer3
100
AcDbLine
 10
2106.896319347236
 20
583.5430440383272
 30
0.0
 11
2106.896319347235
 21
553.2050163348859
 31
0.0
  0
LINE
  5
C7C
330
2
100
AcDbEntity
  8
Layer3
100
AcDbLine
 10
2155.971092228353
 20
583.5430440383272
 30
0.0
 11
2155.971092228353
 21
553.2050163348859
 31
0.0
  0
LINE
  5
C7D
330
2
100
AcDbEntity
  8
Layer3
100
AcDbLine
 10
2103.433705787794
 20
553.2050163348859
 30
0.0
 11
2103.433705787794
 21
418.7050163348856
 31
0.0
  0
LINE
  5
C7E
330
2
100
AcDbEntity
  8
Layer3
100
AcDbLine
 10
2159.433705787794
 20
553.2050163348859
 30
0.0
 11
2159.433705787794
 21
418.7050163348856
 31
0.0
  0
LINE
  5
C81
330
2
100
AcDbEntity
  8
Layer3
100
AcDbLine
 10
2153.933705787795
 20
413.2050163348859
 30
0.0
 11
2108.933705787794
 21
413.205016334886
 31
0.0
  0
LINE
  5
C82
330
2
100
AcDbEntity
  8
Layer3
100
AcDbLine
 10
2159.433705787794
 20
537.2050163348859
 30
0.0
 11
2103.433705787794
 21
537.2050163348859
 31
0.0
  0
LINE
  5
C84
330
2
100
AcDbEntity
  8
Layer3
100
AcDbLine
 10
2156.456705787794
 20
537.2050163348859
 30
0.0
 11
2156.456705787794
 21
415.728016334886
 31
0.0
  0
LINE
  5
C85
330
2
100
AcDbEntity
  8
Layer3
100
AcDbLine
 10
2106.410705787794
 20
537.205016334886
 30
0.0
 11
2106.410705787794
 21
415.7280163348857
 31
0.0
  0
LINE
  5
C86
330
2
100
AcDbEntity
  8
Layer3
100
AcDbLine
 10
2159.433705787794
 20
418.7050163348859
 30
0.0
 11
2103.433705787794
 21
418.7050163348859
 31
0.0
  0
LINE
  5
C87
330
2
100
AcDbEntity
  8
Layer3
100
AcDbLine
 10
2159.433705787794
 20
418.7050163348856
 30
0.0
 11
2153.933705787795
 21
413.2050163348859
 31
0.0
  0
LINE
  5
C88
330
2
100
AcDbEntity
  8
Layer3
100
AcDbLine
 10
2156.456705787794
 20
537.2050163348859
 30
0.0
 11
2159.433705787794
 21
542.7050163348859
 31
0.0
  0
LINE
  5
C89
330
2
100
AcDbEntity
  8
Layer3
100
AcDbLine
 10
2106.410705787794
 20
537.2050163348859
 30
0.0
 11
2103.433705787794
 21
542.7050163348859
 31
0.0
  0
LINE
  5
C8A
330
2
100
AcDbEntity
  8
Layer3
100
AcDbLine
 10
2103.433705787794
 20
418.7050163348856
 30
0.0
 11
2108.933705787794
 21
413.205016334886
 31
0.0
  0
LINE
  5
C94
330
2
100
AcDbEntity
  8
Layer3
100
AcDbLine
 10
2235.433705787794
 20
588.2050163348858
 30
0.0
 11
2327.433705787794
 21
588.2050163348858
 31
0.0
  0
LINE
  5
C95
330
2
100
AcDbEntity
  8
Layer3
100
AcDbLine
 10
2226.58543021478
 20
548.2050163348859
 30
0.0
 11
2336.281981360809
 21
548.2050163348859
 31
0.0
  0
LINE
  5
C96
330
2
100
AcDbEntity
  8
Layer3
100
AcDbLine
 10
2249.433705787794
 20
548.2050163348859
 30
0.0
 11
2249.433705787794
 21
384.2050163348861
 31
0.0
  0
LINE
  5
C97
330
2
100
AcDbEntity
  8
Layer3
100
AcDbLine
 10
2313.433705787794
 20
548.2050163348859
 30
0.0
 11
2313.433705787794
 21
384.2050163348861
 31
0.0
  0
LWPOLYLINE
  5
C9B
330
2
100
AcDbEntity
  8
Layer3
100
AcDbPolyline
 90
        6
 70
     1
 43
0.0
 10
2254.009568001287
 20
699.0055504943058
 10
2226.58543021478
 20
651.5055504943059
 10
2254.009568001287
 20
604.0055504943059
 10
2308.857843574302
 20
604.0055504943059
 10
2336.281981360809
 20
651.5055504943058
 10
2308.857843574302
 20
699.0055504943058
  0
LINE
  5
C9C
330
2
100
AcDbEntity
  8
Layer3
100
AcDbLine
 10
2226.58543021478
 20
583.0964620509424
 30
0.0
 11
2226.58543021478
 21
548.2050163348859
 31
0.0
  0
LINE
  5
C9D
330
2
100
AcDbEntity
  8
Layer3
100
AcDbLine
 10
2254.009568001287
 20
583.0964620509422
 30
0.0
 11
2254.009568001287
 21
548.2050163348859
 31
0.0
  0
LINE
  5
C9E
330
2
100
AcDbEntity
  8
Layer3
100
AcDbLine
 10
2308.857843574302
 20
583.0964620509422
 30
0.0
 11
2308.857843574302
 21
548.2050163348859
 31
0.0
  0
LINE
  5
C9F
330
2
100
AcDbEntity
  8
Layer3
100
AcDbLine
 10
2336.281981360808
 20
583.0964620509424
 30
0.0
 11
2336.281981360809
 21
548.2050163348859
 31
0.0
  0
LINE
  5
CAA
330
2
100
AcDbEntity
  8
Layer3
100
AcDbLine
 10
2255.433705787794
 20
378.2050163348859
 30
0.0
 11
2307.433705787794
 21
378.2050163348859
 31
0.0
  0
LINE
  5
CAB
330
2
100
AcDbEntity
  8
Layer3
100
AcDbLine
 10
2249.433705787794
 20
518.205016334886
 30
0.0
 11
2313.433705787794
 21
518.205016334886
 31
0.0
  0
LINE
  5
CAC
330
2
100
AcDbEntity
  8
Layer3
100
AcDbLine
 10
2249.433705787794
 20
384.2050163348859
 30
0.0
 11
2313.433705787794
 21
384.2050163348859
 31
0.0
  0
LINE
  5
CAE
330
2
100
AcDbEntity
  8
Layer3
100
AcDbLine
 10
2310.185705787794
 20
518.205016334886
 30
0.0
 11
2310.185705787794
 21
380.9570163348861
 31
0.0
  0
LINE
  5
CAF
330
2
100
AcDbEntity
  8
Layer3
100
AcDbLine
 10
2252.681705787794
 20
518.205016334886
 30
0.0
 11
2252.681705787794
 21
380.9570163348859
 31
0.0
  0
LINE
  5
CB0
330
2
100
AcDbEntity
  8
Layer3
100
AcDbLine
 10
2313.433705787794
 20
384.2050163348856
 30
0.0
 11
2307.433705787794
 21
378.2050163348859
 31
0.0
  0
LINE
  5
CB1
330
2
100
AcDbEntity
  8
Layer3
100
AcDbLine
 10
2249.433705787794
 20
524.2050163348859
 30
0.0
 11
2252.681705787794
 21
518.205016334886
 31
0.0
  0
LINE
  5
CB2
330
2
100
AcDbEntity
  8
Layer3
100
AcDbLine
 10
2313.433705787794
 20
524.2050163348859
 30
0.0
 11
2310.185705787794
 21
518.205016334886
 31
0.0
  0
LINE
  5
CB4
330
2
100
AcDbEntity
  8
Layer3
100
AcDbLine
 10
2249.433705787795
 20
384.2050163348856
 30
0.0
 11
2255.433705787794
 21
378.2050163348859
 31
0.0
  0
LINE
  5
CBA
330
2
100
AcDbEntity
  8
Layer1
100
AcDbLine
 10
2356.433705787794
 20
326.3481751835179
 30
0.0
 11
-343.5662942122049
 21
326.3481751835179
 31
0.0
  0
MTEXT
  5
CCC
330
2
100
AcDbEntity
  8
Layer4
100
AcDbMText
 10
2211.634313895053
 20
354.7782134290514
 30
0.0
 40
12.0
 41
2653.405
 71
     1
 72
     5
  1
L=125-400mm
 73
     1
 44
1.0
  0
MTEXT
  5
CCE
330
2
100
AcDbEntity
  8
Layer4
100
AcDbMText
 10
2061.634313895053
 20
354.7782134290514
 30
0.0
 40
12.0
 41
2653.405
 71
     1
 72
     5
  1
L=125-400mm
 73
     1
 44
1.0
  0
MTEXT
  5
CCF
330
2
100
AcDbEntity
  8
Layer4
100
AcDbMText
 10
1911.634313895053
 20
354.7782134290514
 30
0.0
 40
12.0
 41
2653.405
 71
     1
 72
     5
  1
L=55-325mm
 73
     1
 44
1.0
  0
MTEXT
  5
CD0
330
2
100
AcDbEntity
  8
Layer4
100
AcDbMText
 10
1761.634313895053
 20
354.7782134290514
 30
0.0
 40
12.0
 41
2653.405
 71
     1
 72
     5
  1
L=50-325mm
 73
     1
 44
1.0
  0
MTEXT
  5
CD1
330
2
100
AcDbEntity
  8
Layer4
100
AcDbMText
 10
1611.634313895053
 20
354.7782134290514
 30
0.0
 40
12.0
 41
2653.405
 71
     1
 72
     5
  1
L=45-240mm
 73
     1
 44
1.0
  0
MTEXT
  5
CD2
330
2
100
AcDbEntity
  8
Layer4
100
AcDbMText
 10
1461.634313895054
 20
354.7782134290514
 30
0.0
 40
12.0
 41
2653.405
 71
     1
 72
     5
  1
L=38-240mm
 73
     1
 44
1.0
  0
MTEXT
  5
CD3
330
2
100
AcDbEntity
  8
Layer4
100
AcDbMText
 10
1311.634313895053
 20
354.7782134290514
 30
0.0
 40
12.0
 41
2653.405
 71
     1
 72
     5
  1
L=28-200mm
 73
     1
 44
1.0
  0
MTEXT
  5
CD4
330
2
100
AcDbEntity
  8
Layer4
100
AcDbMText
 10
1161.634313895054
 20
354.7782134290514
 30
0.0
 40
12.0
 41
2653.405
 71
     1
 72
     5
  1
L=25-200mm
 73
     1
 44
1.0
  0
MTEXT
  5
CD5
330
2
100
AcDbEntity
  8
Layer4
100
AcDbMText
 10
1011.634313895053
 20
354.7782134290514
 30
0.0
 40
12.0
 41
2653.405
 71
     1
 72
     5
  1
L=25-200mm
 73
     1
 44
1.0
  0
MTEXT
  5
CD6
330
2
100
AcDbEntity
  8
Layer4
100
AcDbMText
 10
861.6343138950535
 20
354.7782134290514
 30
0.0
 40
12.0
 41
2653.405
 71
     1
 72
     5
  1
L=20-140mm
 73
     1
 44
1.0
  0
MTEXT
  5
CD7
330
2
100
AcDbEntity
  8
Layer4
100
AcDbMText
 10
711.634313895054
 20
354.7782134290514
 30
0.0
 40
12.0
 41
2653.405
 71
     1
 72
     5
  1
L=18-140mm
 73
     1
 44
1.0
  0
MTEXT
  5
CD8
330
2
100
AcDbEntity
  8
Layer4
100
AcDbMText
 10
561.6343138950537
 20
354.7782134290514
 30
0.0
 40
12.0
 41
2653.405
 71
     1
 72
     5
  1
L=16-140mm
 73
     1
 44
1.0
  0
MTEXT
  5
CD9
330
2
100
AcDbEntity
  8
Layer4
100
AcDbMText
 10
411.6343138950542
 20
354.7782134290514
 30
0.0
 40
12.0
 41
2653.405
 71
     1
 72
     5
  1
L=12-100mm
 73
     1
 44
1.0
  0
MTEXT
  5
CDA
330
2
100
AcDbEntity
  8
Layer4
100
AcDbMText
 10
261.6343138950537
 20
354.7782134290514
 30
0.0
 40
12.0
 41
2653.405
 71
     1
 72
     5
  1
L=10-100mm
 73
     1
 44
1.0
  0
MTEXT
  5
CDB
330
2
100
AcDbEntity
  8
Layer4
100
AcDbMText
 10
111.6343138950537
 20
354.7782134290514
 30
0.0
 40
12.0
 41
2653.405
 71
     1
 72
     5
  1
L=7-70mm
 73
     1
 44
1.0
  0
MTEXT
  5
CDC
330
2
100
AcDbEntity
  8
Layer4
100
AcDbMText
 10
-38.36568610494578
 20
354.7782134290514
 30
0.0
 40
12.0
 41
2653.405
 71
     1
 72
     5
  1
L=7-50mm
 73
     1
 44
1.0
  0
MTEXT
  5
CDD
330
2
100
AcDbEntity
  8
Layer4
100
AcDbMText
 10
-188.3656861049462
 20
354.7782134290514
 30
0.0
 40
12.0
 41
2653.405
 71
     1
 72
     5
  1
L=6-40mm
 73
     1
 44
1.0
  0
MTEXT
  5
CDE
330
2
100
AcDbEntity
  8
Layer4
100
AcDbMText
 10
-338.3656861049457
 20
354.7782134290514
 30
0.0
 40
12.0
 41
2653.405
 71
     1
 72
     5
  1
L=5-32mm
 73
     1
 44
1.0
  0
CIRCLE
  5
154C
330
2
100
AcDbEntity
  8
Layer3
100
AcDbCircle
 10
-268.5662942122048
 20
651.5055504943056
 30
0.0
 40
2.649999999999999
  0
LINE
  5
154F
330
2
100
AcDbEntity
  8
Layer3
100
AcDbLine
 10
-271.741719212205
 20
640.2930423411001
 30
0.0
 11
-271.2162942122049
 21
640.5963966062891
 31
0.0
  0
LINE
  5
1551
330
2
100
AcDbEntity
  8
Layer3
100
AcDbLine
 10
-265.3908692122048
 20
640.2930423411003
 30
0.0
 11
-265.9162942122047
 21
640.5963966062891
 31
0.0
  0
ARC
  5
1558
330
2
100
AcDbEntity
  8
Layer3
100
AcDbCircle
 10
-270.9478629622049
 20
639.1329562267792
 30
0.0
 40
1.405705352591542
100
AcDbArc
 50
55.61585005301182
 51
124.3841499469862
  0
ARC
  5
1559
330
2
100
AcDbEntity
  8
Layer3
100
AcDbCircle
 10
-268.5662942122048
 20
635.2842690264024
 30
0.0
 40
5.254392552967939
100
AcDbArc
 50
72.41209840557591
 51
107.5879015944235
  0
ARC
  5
155A
330
2
100
AcDbEntity
  8
Layer3
100
AcDbCircle
 10
-266.1847254622047
 20
639.1329562267792
 30
0.0
 40
1.405705352591542
100
AcDbArc
 50
55.61585005301365
 51
124.3841499469862
  0
CIRCLE
  5
155E
330
2
100
AcDbEntity
  8
Layer3
100
AcDbCircle
 10
-118.5662942122053
 20
651.5055504943056
 30
0.0
 40
3.399999999999999
  0
LINE
  5
1564
330
2
100
AcDbEntity
  8
Layer3
100
AcDbLine
 10
-115.1662942122053
 20
637.321935339305
 30
0.0
 11
-114.5248442122053
 21
636.9515940091332
 31
0.0
  0
LINE
  5
1565
330
2
100
AcDbEntity
  8
Layer3
100
AcDbLine
 10
-121.9662942122054
 20
637.321935339305
 30
0.0
 11
-122.6077442122053
 21
636.9515940091332
 31
0.0
  0
ARC
  5
156B
330
2
100
AcDbEntity
  8
Layer3
100
AcDbCircle
 10
-121.5973817122053
 20
635.4751207727243
 30
0.0
 40
1.789079539662213
100
AcDbArc
 50
55.61585005302365
 51
124.3841499469762
  0
ARC
  5
156C
330
2
100
AcDbEntity
  8
Layer3
100
AcDbCircle
 10
-118.5662942122053
 20
630.5767880874066
 30
0.0
 40
6.687412224979434
100
AcDbArc
 50
72.41210796861586
 51
107.5878920313845
  0
ARC
  5
156D
330
2
100
AcDbEntity
  8
Layer3
100
AcDbCircle
 10
-115.5352067122053
 20
635.4751207727242
 30
0.0
 40
1.789079539662315
100
AcDbArc
 50
55.61585005302604
 51
124.3841499469746
  0
CIRCLE
  5
1571
330
2
100
AcDbEntity
  8
Layer3
100
AcDbCircle
 10
31.43370578779494
 20
651.5055504943056
 30
0.0
 40
3.9
  0
LINE
  5
1573
330
2
100
AcDbEntity
  8
Layer3
100
AcDbLine
 10
35.33370578779491
 20
634.0474740723436
 30
0.0
 11
36.05250578779489
 21
633.6324746988502
 31
0.0
  0
LINE
  5
1574
330
2
100
AcDbEntity
  8
Layer3
100
AcDbLine
 10
27.53370578779504
 20
634.0474740723436
 30
0.0
 11
26.814905787795
 21
633.6324746988501
 31
0.0
  0
ARC
  5
157A
330
2
100
AcDbEntity
  8
Layer3
100
AcDbCircle
 10
27.96960578779494
 20
631.9450767143826
 30
0.0
 40
2.044662331042728
100
AcDbArc
 50
55.61585005302916
 51
124.3841499469708
  0
ARC
  5
157B
330
2
100
AcDbEntity
  8
Layer3
100
AcDbCircle
 10
31.43370578779496
 20
626.3469862411027
 30
0.0
 40
7.642752804321957
100
AcDbArc
 50
72.41209840558733
 51
107.5879015944127
  0
ARC
  5
157C
330
2
100
AcDbEntity
  8
Layer3
100
AcDbCircle
 10
34.89780578779493
 20
631.9450767143826
 30
0.0
 40
2.044662331042716
100
AcDbArc
 50
55.61585005302884
 51
124.3841499469702
  0
CIRCLE
  5
1580
330
2
100
AcDbEntity
  8
Layer3
100
AcDbCircle
 10
181.4337057877949
 20
651.5055504943056
 30
0.0
 40
4.9
  0
LINE
  5
1582
330
2
100
AcDbEntity
  8
Layer3
100
AcDbLine
 10
186.3337057877949
 20
630.7730128053823
 30
0.0
 11
187.2072057877948
 21
630.2686973452454
 31
0.0
  0
LINE
  5
1583
330
2
100
AcDbEntity
  8
Layer3
100
AcDbLine
 10
176.533705787795
 20
630.7730128053823
 30
0.0
 11
175.6602057877948
 21
630.2686973452455
 31
0.0
  0
ARC
  5
1589
330
2
100
AcDbEntity
  8
Layer3
100
AcDbCircle
 10
177.1035807877948
 20
628.1594498646597
 30
0.0
 40
2.555827913804598
100
AcDbArc
 50
55.61585005304555
 51
124.3841499469544
  0
ARC
  5
158A
330
2
100
AcDbEntity
  8
Layer3
100
AcDbCircle
 10
181.4337057877949
 20
621.1618367730571
 30
0.0
 40
9.553441005406291
100
AcDbArc
 50
72.41209840559531
 51
107.5879015944048
  0
ARC
  5
158B
330
2
100
AcDbEntity
  8
Layer3
100
AcDbCircle
 10
185.7638306159884
 20
628.159449309372
 30
0.0
 40
2.555828469092399
100
AcDbArc
 50
55.61585390453355
 51
124.3841367615389
  0
CIRCLE
  5
158F
330
2
100
AcDbEntity
  8
Layer3
100
AcDbCircle
 10
331.4337057877951
 20
651.5055504943056
 30
0.0
 40
6.299999999999999
  0
LINE
  5
1591
330
2
100
AcDbEntity
  8
Layer3
100
AcDbLine
 10
337.7337057877952
 20
627.4985515384212
 30
0.0
 11
338.939255787795
 21
626.8025269213995
 31
0.0
  0
LINE
  5
1592
330
2
100
AcDbEntity
  8
Layer3
100
AcDbLine
 10
325.1337057877951
 20
627.4985515384212
 30
0.0
 11
323.9281557877951
 21
626.8025269213994
 31
0.0
  0
ARC
  5
1598
330
2
100
AcDbEntity
  8
Layer3
100
AcDbCircle
 10
325.8045432877951
 20
624.0605051966404
 30
0.0
 40
3.322576287943863
100
AcDbArc
 50
55.61585005301981
 51
124.3841499469785
  0
ARC
  5
159A
330
2
100
AcDbEntity
  8
Layer3
100
AcDbCircle
 10
331.4337057877951
 20
614.9636081775642
 30
0.0
 40
12.41947330701905
100
AcDbArc
 50
72.41209840558173
 51
107.5879015944179
  0
ARC
  5
159B
330
2
100
AcDbEntity
  8
Layer3
100
AcDbCircle
 10
337.0628682877951
 20
624.0605051966399
 30
0.0
 40
3.322576287944366
100
AcDbArc
 50
55.6158500530234
 51
124.3841499469773
  0
LWPOLYLINE
  5
15A1
330
2
100
AcDbEntity
  8
Layer3
100
AcDbPolyline
 90
        6
 70
     1
 43
0.0
 10
476.5262284996831
 20
660.0055504943057
 10
471.6187512115713
 20
651.5055504943056
 10
476.5262284996831
 20
643.0055504943056
 10
486.3411830759067
 20
643.0055504943056
 10
491.2486603640185
 20
651.5055504943056
 10
486.3411830759067
 20
660.0055504943057
  0
CIRCLE
  5
15A2
330
2
100
AcDbEntity
  8
Layer3
100
AcDbCircle
 10
481.4337057877948
 20
651.5055504943056
 30
0.0
 40
8.25
  0
LINE
  5
15A3
330
2
100
AcDbEntity
  8
Layer3
100
AcDbLine
 10
489.683705787795
 20
624.8240902714597
 30
0.0
 11
473.183705787795
 21
624.8240902714598
 31
0.0
  0
LINE
  5
15A4
330
2
100
AcDbEntity
  8
Layer3
100
AcDbLine
 10
471.6187512115712
 20
623.9205633256075
 30
0.0
 11
471.6187512115713
 21
617.8240902714597
 31
0.0
  0
LINE
  5
15A5
330
2
100
AcDbEntity
  8
Layer3
100
AcDbLine
 10
491.2486603640185
 20
623.9205633256077
 30
0.0
 11
491.2486603640184
 21
617.8240902714597
 31
0.0
  0
LINE
  5
15A6
330
2
100
AcDbEntity
  8
Layer3
100
AcDbLine
 10
476.5262284996831
 20
623.9205633256075
 30
0.0
 11
476.526228499683
 21
617.8240902714597
 31
0.0
  0
LINE
  5
15A7
330
2
100
AcDbEntity
  8
Layer3
100
AcDbLine
 10
486.3411830759067
 20
623.9205633256075
 30
0.0
 11
486.3411830759067
 21
617.8240902714597
 31
0.0
  0
LINE
  5
15A9
330
2
100
AcDbEntity
  8
Layer3
100
AcDbLine
 10
489.683705787795
 20
624.8240902714597
 30
0.0
 11
491.2486603640185
 21
623.9205633256077
 31
0.0
  0
LINE
  5
15AA
330
2
100
AcDbEntity
  8
Layer3
100
AcDbLine
 10
473.183705787795
 20
624.8240902714598
 30
0.0
 11
471.6187512115712
 21
623.9205633256075
 31
0.0
  0
ARC
  5
15B0
330
2
100
AcDbEntity
  8
Layer3
100
AcDbCircle
 10
474.0724898556272
 20
620.3348540318434
 30
0.0
 40
4.344898672319052
100
AcDbArc
 50
55.6157525319549
 51
124.384247468045
  0
ARC
  5
15B1
330
2
100
AcDbEntity
  8
Layer3
100
AcDbCircle
 10
481.4337057877948
 20
608.4389420827188
 30
0.0
 40
16.24081062144368
100
AcDbArc
 50
72.41204622600466
 51
107.5879537739953
  0
ARC
  5
15B2
330
2
100
AcDbEntity
  8
Layer3
100
AcDbCircle
 10
488.7949217199625
 20
620.3348540318422
 30
0.0
 40
4.344898672320116
100
AcDbArc
 50
55.61575253196035
 51
124.3842474680363
  0
LINE
  5
15B6
330
2
100
AcDbEntity
  8
Layer3
100
AcDbLine
 10
640.4337057877947
 20
621.4496290044987
 30
0.0
 11
622.4337057877947
 21
621.4496290044987
 31
0.0
  0
LWPOLYLINE
  5
15B8
330
2
100
AcDbEntity
  8
Layer3
100
AcDbPolyline
 90
        6
 70
     1
 43
0.0
 10
625.9488782304932
 20
661.0055504943057
 10
620.4640506731918
 20
651.5055504943056
 10
625.9488782304932
 20
642.0055504943056
 10
636.918533345096
 20
642.0055504943056
 10
642.4033609023975
 20
651.5055504943056
 10
636.9185333450961
 20
661.0055504943057
  0
CIRCLE
  5
15B9
330
2
100
AcDbEntity
  8
Layer3
100
AcDbCircle
 10
631.4337057877946
 20
651.5055504943056
 30
0.0
 40
9.0
  0
LINE
  5
15BA
330
2
100
AcDbEntity
  8
Layer3
100
AcDbLine
 10
620.4640506731915
 20
620.3124480938718
 30
0.0
 11
620.4640506731915
 21
613.4496290044986
 31
0.0
  0
LINE
  5
15BB
330
2
100
AcDbEntity
  8
Layer3
100
AcDbLine
 10
642.4033609023975
 20
620.312448093872
 30
0.0
 11
642.4033609023975
 21
613.4496290044987
 31
0.0
  0
LINE
  5
15BC
330
2
100
AcDbEntity
  8
Layer3
100
AcDbLine
 10
636.918533345096
 20
620.312448093872
 30
0.0
 11
636.918533345096
 21
613.4496290044987
 31
0.0
  0
LINE
  5
15BD
330
2
100
AcDbEntity
  8
Layer3
100
AcDbLine
 10
625.9488782304933
 20
620.3124480938718
 30
0.0
 11
625.9488782304933
 21
613.4496290044987
 31
0.0
  0
LINE
  5
15BF
330
2
100
AcDbEntity
  8
Layer3
100
AcDbLine
 10
640.4337057877947
 20
621.4496290044987
 30
0.0
 11
642.4033609023975
 21
620.312448093872
 31
0.0
  0
LINE
  5
15C0
330
2
100
AcDbEntity
  8
Layer3
100
AcDbLine
 10
622.4337057877947
 20
621.4496290044987
 30
0.0
 11
620.4640506731915
 21
620.3124480938718
 31
0.0
  0
ARC
  5
15C6
330
2
100
AcDbEntity
  8
Layer3
100
AcDbCircle
 10
623.2064644518426
 20
616.3048906479005
 30
0.0
 40
4.856063222003553
100
AcDbArc
 50
55.61575253195322
 51
124.3842474680508
  0
ARC
  5
15C7
330
2
100
AcDbEntity
  8
Layer3
100
AcDbCircle
 10
631.4337057877949
 20
603.0094596459404
 30
0.0
 40
18.15149422396357
100
AcDbArc
 50
72.41204622600267
 51
107.5879537739978
  0
ARC
  5
15C8
330
2
100
AcDbEntity
  8
Layer3
100
AcDbCircle
 10
639.6609471237469
 20
616.3048906479008
 30
0.0
 40
4.856063222003236
100
AcDbArc
 50
55.61575253195282
 51
124.3842474680501
  0
LINE
  5
15CC
330
2
100
AcDbEntity
  8
Layer3
100
AcDbLine
 10
791.9337057877948
 20
617.8751677375374
 30
0.0
 11
770.9337057877941
 21
617.8751677375373
 31
0.0
  0
LWPOLYLINE
  5
15CE
330
2
100
AcDbEntity
  8
Layer3
100
AcDbPolyline
 90
        6
 70
     1
 43
0.0
 10
775.0828528267086
 20
662.5055504943056
 10
768.7319998656228
 20
651.5055504943056
 10
775.0828528267086
 20
640.5055504943057
 10
787.7845587488804
 20
640.5055504943057
 10
794.1354117099663
 20
651.5055504943056
 10
787.7845587488804
 20
662.5055504943056
  0
CIRCLE
  5
15CF
330
2
100
AcDbEntity
  8
Layer3
100
AcDbCircle
 10
781.4337057877946
 20
651.5055504943056
 30
0.0
 40
10.5
  0
LINE
  5
15D0
330
2
100
AcDbEntity
  8
Layer3
100
AcDbLine
 10
768.7319998656228
 20
616.6040122306952
 30
0.0
 11
768.7319998656228
 21
608.8751677375372
 31
0.0
  0
LINE
  5
15D1
330
2
100
AcDbEntity
  8
Layer3
100
AcDbLine
 10
794.1354117099663
 20
616.6040122306951
 30
0.0
 11
794.1354117099663
 21
608.8751677375372
 31
0.0
  0
LINE
  5
15D2
330
2
100
AcDbEntity
  8
Layer3
100
AcDbLine
 10
775.0828528267086
 20
616.6040122306952
 30
0.0
 11
775.0828528267086
 21
608.8751677375372
 31
0.0
  0
LINE
  5
15D3
330
2
100
AcDbEntity
  8
Layer3
100
AcDbLine
 10
787.7845587488803
 20
616.6040122306952
 30
0.0
 11
787.7845587488804
 21
608.8751677375372
 31
0.0
  0
LINE
  5
15D5
330
2
100
AcDbEntity
  8
Layer3
100
AcDbLine
 10
791.9337057877948
 20
617.8751677375374
 30
0.0
 11
794.1354117099663
 21
616.6040122306951
 31
0.0
  0
LINE
  5
15D6
330
2
100
AcDbEntity
  8
Layer3
100
AcDbLine
 10
770.9337057877941
 20
617.8751677375373
 30
0.0
 11
768.7319998656228
 21
616.6040122306952
 31
0.0
  0
ARC
  5
15DC
330
2
100
AcDbEntity
  8
Layer3
100
AcDbCircle
 10
771.9074263461657
 20
611.9636825564117
 30
0.0
 40
5.622810046530946
100
AcDbArc
 50
55.61575253195858
 51
124.3842474680414
  0
ARC
  5
15DD
330
2
100
AcDbEntity
  8
Layer3
100
AcDbCircle
 10
781.4337057877943
 20
596.5689729751905
 30
0.0
 40
21.01751962775219
100
AcDbArc
 50
72.41204622600585
 51
107.5879537739936
  0
ARC
  5
15DE
330
2
100
AcDbEntity
  8
Layer3
100
AcDbCircle
 10
790.9599852294231
 20
611.9636825564119
 30
0.0
 40
5.622810046530758
100
AcDbArc
 50
55.61575253195531
 51
124.3842474680426
  0
CIRCLE
  5
15E2
330
2
100
AcDbEntity
  8
Layer3
100
AcDbCircle
 10
931.4337057877947
 20
651.5055504943058
 30
0.0
 40
11.5
  0
LINE
  5
15E4
330
2
100
AcDbEntity
  8
Layer3
100
AcDbLine
 10
942.9337057877946
 20
614.3914252045753
 30
0.0
 11
945.2901057877946
 21
613.0309570302572
 31
0.0
  0
LINE
  5
15E5
330
2
100
AcDbEntity
  8
Layer3
100
AcDbLine
 10
919.9337057877947
 20
614.3914252045752
 30
0.0
 11
917.5773057877947
 21
613.0309570302573
 31
0.0
  0
ARC
  5
15EB
330
2
100
AcDbEntity
  8
Layer3
100
AcDbCircle
 10
921.0414062512688
 20
607.9687615788782
 30
0.0
 40
6.133988491104703
100
AcDbArc
 50
55.61586487374334
 51
124.3841456177966
  0
ARC
  5
15EC
330
2
100
AcDbEntity
  8
Layer3
100
AcDbCircle
 10
931.4337057877947
 20
591.1744787217162
 30
0.0
 40
22.92827134826443
100
AcDbArc
 50
72.41210865191574
 51
107.5878913480845
  0
ARC
  5
15ED
330
2
100
AcDbEntity
  8
Layer3
100
AcDbCircle
 10
941.8260053243205
 20
607.9687615788782
 30
0.0
 40
6.133988491104767
100
AcDbArc
 50
55.61585438220195
 51
124.3841351262575
  0
LINE
  5
15F1
330
2
100
AcDbEntity
  8
Layer3
100
AcDbLine
 10
1095.933705787794
 20
611.6262452036147
 30
0.0
 11
1066.933705787794
 21
611.6262452036147
 31
0.0
  0
CIRCLE
  5
15F2
330
2
100
AcDbEntity
  8
Layer3
100
AcDbCircle
 10
1081.433705787794
 20
651.5055504943058
 30
0.0
 40
14.5
  0
LINE
  5
15F4
330
2
100
AcDbEntity
  8
Layer3
100
AcDbLine
 10
1095.933705787794
 20
611.6262452036147
 30
0.0
 11
1098.754205787794
 21
609.9978287693653
 31
0.0
  0
LINE
  5
15F5
330
2
100
AcDbEntity
  8
Layer3
100
AcDbLine
 10
1066.933705787794
 20
611.6262452036147
 30
0.0
 11
1064.113205787794
 21
609.9978287693655
 31
0.0
  0
ARC
  5
15FB
330
2
100
AcDbEntity
  8
Layer3
100
AcDbCircle
 10
1068.443330787794
 20
603.6700863276109
 30
0.0
 40
7.667483741411323
100
AcDbArc
 50
55.61585005303348
 51
124.3841499469665
  0
ARC
  5
15FC
330
2
100
AcDbEntity
  8
Layer3
100
AcDbCircle
 10
1081.433705787794
 20
582.6772470528125
 30
0.0
 40
28.66032301620737
100
AcDbArc
 50
72.41209840558788
 51
107.5879015944121
  0
ARC
  5
15FD
330
2
100
AcDbEntity
  8
Layer3
100
AcDbCircle
 10
1094.424080787794
 20
603.6700863276116
 30
0.0
 40
7.667483741410854
100
AcDbArc
 50
55.61585005302732
 51
124.384149946969
  0
CIRCLE
  5
1601
330
2
100
AcDbEntity
  8
Layer3
100
AcDbCircle
 10
1231.433705787794
 20
651.5055504943058
 30
0.0
 40
15.5
  0
LINE
  5
1603
330
2
100
AcDbEntity
  8
Layer3
100
AcDbLine
 10
1246.933705787794
 20
607.8517839366535
 30
0.0
 11
1249.908914401862
 21
606.1340464424262
 31
0.0
  0
LINE
  5
1604
330
2
100
AcDbEntity
  8
Layer3
100
AcDbLine
 10
1215.933705787794
 20
607.8517839366535
 30
0.0
 11
1212.958497173726
 21
606.1340464424262
 31
0.0
  0
ARC
  5
160A
330
2
100
AcDbEntity
  8
Layer3
100
AcDbCircle
 10
1217.577299327243
 20
599.3844760071054
 30
0.0
 40
8.178632794953578
100
AcDbArc
 50
55.61575253195586
 51
124.3842474680441
  0
ARC
  5
160B
330
2
100
AcDbEntity
  8
Layer3
100
AcDbCircle
 10
1231.433705787794
 20
576.9921711616917
 30
0.0
 40
30.57093764036709
100
AcDbArc
 50
72.41204622600619
 51
107.5879537739938
  0
ARC
  5
160C
330
2
100
AcDbEntity
  8
Layer3
100
AcDbCircle
 10
1245.290112248345
 20
599.3844760071054
 30
0.0
 40
8.178632794953706
100
AcDbArc
 50
55.61575253195714
 51
124.3842474680454
  0
CIRCLE
  5
1610
330
2
100
AcDbEntity
  8
Layer3
100
AcDbCircle
 10
1381.433705672373
 20
651.5055504943058
 30
0.0
 40
17.0
  0
LINE
  5
1612
330
2
100
AcDbEntity
  8
Layer3
100
AcDbLine
 10
1398.433705672373
 20
604.5773226696922
 30
0.0
 11
1402.218305672373
 21
602.3922828409172
 31
0.0
  0
LINE
  5
1613
330
2
100
AcDbEntity
  8
Layer3
100
AcDbLine
 10
1364.433705672373
 20
604.5773226696923
 30
0.0
 11
1360.649105672373
 21
602.3922828409171
 31
0.0
  0
ARC
  5
1619
330
2
100
AcDbEntity
  8
Layer3
100
AcDbCircle
 10
1365.845256416757
 20
594.7989891235435
 30
0.0
 40
9.200983210324155
100
AcDbArc
 50
55.61586726320564
 51
124.3841439704056
  0
ARC
  5
161A
330
2
100
AcDbEntity
  8
Layer3
100
AcDbCircle
 10
1381.433705672373
 20
569.6075625801815
 30
0.0
 40
34.3924097536826
100
AcDbArc
 50
72.41211009425447
 51
107.5878899057448
  0
ARC
  5
161B
330
2
100
AcDbEntity
  8
Layer3
100
AcDbCircle
 10
1397.022154927989
 20
594.7989891235437
 30
0.0
 40
9.20098321032399
100
AcDbArc
 50
55.61585602959632
 51
124.384132736799
  0
CIRCLE
  5
161F
330
2
100
AcDbEntity
  8
Layer3
100
AcDbCircle
 10
1531.433705787794
 20
651.5055504943058
 30
0.0
 40
22.0
  0
LINE
  5
1621
330
2
100
AcDbEntity
  8
Layer3
100
AcDbLine
 10
1553.433705787794
 20
601.302861402731
 30
0.0
 11
1557.983705787794
 21
598.6759176779182
 31
0.0
  0
LINE
  5
1622
330
2
100
AcDbEntity
  8
Layer3
100
AcDbLine
 10
1509.433705787794
 20
601.302861402731
 30
0.0
 11
1504.883705787794
 21
598.6759176779182
 31
0.0
  0
ARC
  5
1628
330
2
100
AcDbEntity
  8
Layer3
100
AcDbCircle
 10
1511.519177692114
 20
588.9596889551634
 30
0.0
 40
11.76582287755076
100
AcDbArc
 50
55.66978831281961
 51
124.3302116871813
  0
ARC
  5
1629
330
2
100
AcDbEntity
  8
Layer3
100
AcDbCircle
 10
1531.433705787794
 20
556.6840535041339
 30
0.0
 40
44.04145762940751
100
AcDbArc
 50
72.45152149750396
 51
107.5484785024962
  0
ARC
  5
162A
330
2
100
AcDbEntity
  8
Layer3
100
AcDbCircle
 10
1551.348233883475
 20
588.9596889551639
 30
0.0
 40
11.76582287755033
100
AcDbArc
 50
55.66978831281801
 51
124.3302116871841
  0
CIRCLE
  5
162E
330
2
100
AcDbEntity
  8
Layer3
100
AcDbCircle
 10
1681.433705787794
 20
651.5055504943058
 30
0.0
 40
26.5
  0
LINE
  5
1630
330
2
100
AcDbEntity
  8
Layer3
100
AcDbLine
 10
1707.933705787795
 20
598.0284001357696
 30
0.0
 11
1713.187970593224
 21
594.9948489359612
 31
0.0
  0
LINE
  5
1631
330
2
100
AcDbEntity
  8
Layer3
100
AcDbLine
 10
1654.933705787794
 20
598.0284001357696
 30
0.0
 11
1649.679440982365
 21
594.9948489359611
 31
0.0
  0
ARC
  5
1637
330
2
100
AcDbEntity
  8
Layer3
100
AcDbCircle
 10
1657.618007183723
 20
583.3940247502543
 30
0.0
 40
14.05702511632599
100
AcDbArc
 50
55.61575253195395
 51
124.3842474680481
  0
ARC
  5
1638
330
2
100
AcDbEntity
  8
Layer3
100
AcDbCircle
 10
1681.433705787794
 20
544.9072507972066
 30
0.0
 40
52.54379906937362
100
AcDbArc
 50
72.41204622600355
 51
107.5879537739959
  0
ARC
  5
1639
330
2
100
AcDbEntity
  8
Layer3
100
AcDbCircle
 10
1705.249404391866
 20
583.3940247502551
 30
0.0
 40
14.05702511632527
100
AcDbArc
 50
55.6157525319521
 51
124.3842474680478
  0
CIRCLE
  5
163D
330
2
100
AcDbEntity
  8
Layer3
100
AcDbCircle
 10
1831.433705787794
 20
651.5055504943058
 30
0.0
 40
31.0
  0
LINE
  5
163F
330
2
100
AcDbEntity
  8
Layer3
100
AcDbLine
 10
1862.433705787794
 20
594.7539388688084
 30
0.0
 11
1868.933705787794
 21
591.0011621190752
 31
0.0
  0
LINE
  5
1642
330
2
100
AcDbEntity
  8
Layer3
100
AcDbLine
 10
1800.433705787795
 20
594.7539388688085
 30
0.0
 11
1793.933705787794
 21
591.0011621190752
 31
0.0
  0
ARC
  5
1647
330
2
100
AcDbEntity
  8
Layer3
100
AcDbCircle
 10
1803.301763913463
 20
577.2440044294167
 30
0.0
 40
16.64391482626728
100
AcDbArc
 50
55.74674800005371
 51
124.2532519999469
  0
ARC
  5
1648
330
2
100
AcDbEntity
  8
Layer3
100
AcDbCircle
 10
1831.433705787794
 20
531.4619156089038
 30
0.0
 40
62.42599785611997
100
AcDbArc
 50
72.50767547488734
 51
107.4923245251124
  0
ARC
  5
1649
330
2
100
AcDbEntity
  8
Layer3
100
AcDbCircle
 10
1859.565647662126
 20
577.2440044294164
 30
0.0
 40
16.6439148262675
100
AcDbArc
 50
55.74674800005331
 51
124.2532519999473
  0
CIRCLE
  5
164C
330
2
100
AcDbEntity
  8
Layer3
100
AcDbCircle
 10
1981.433705787794
 20
651.5055504943059
 30
0.0
 40
36.0
  0
LINE
  5
164F
330
2
100
AcDbEntity
  8
Layer3
100
AcDbLine
 10
2017.433705787794
 20
591.4794776018474
 30
0.0
 11
2024.734975977017
 21
587.2640872926734
 31
0.0
  0
LINE
  5
1650
330
2
100
AcDbEntity
  8
Layer3
100
AcDbLine
 10
1945.433705787795
 20
591.4794776018474
 30
0.0
 11
1938.132435598572
 21
587.2640872926734
 31
0.0
  0
ARC
  5
1656
330
2
100
AcDbEntity
  8
Layer3
100
AcDbCircle
 10
1948.957753145878
 20
571.444781584891
 30
0.0
 40
19.16867061317172
100
AcDbArc
 50
55.61575253195482
 51
124.3842474680451
  0
ARC
  5
1657
330
2
100
AcDbEntity
  8
Layer3
100
AcDbCircle
 10
1981.433705787795
 20
518.9628171034613
 30
0.0
 40
71.65063509460155
100
AcDbArc
 50
72.41204622600452
 51
107.5879537739966
  0
ARC
  5
1658
330
2
100
AcDbEntity
  8
Layer3
100
AcDbCircle
 10
2013.90965842971
 20
571.444781584889
 30
0.0
 40
19.16867061317359
100
AcDbArc
 50
55.61575253195467
 51
124.3842474680414
  0
CIRCLE
  5
165C
330
2
100
AcDbEntity
  8
Layer3
100
AcDbCircle
 10
2131.433705787794
 20
651.5055504943059
 30
0.0
 40
41.0
  0
LINE
  5
165E
330
2
100
AcDbEntity
  8
Layer3
100
AcDbLine
 10
2172.433705787794
 20
588.2050163348859
 30
0.0
 11
2180.508478668914
 21
583.5430440383261
 31
0.0
  0
LINE
  5
165F
330
2
100
AcDbEntity
  8
Layer3
100
AcDbLine
 10
2090.433705787794
 20
588.2050163348859
 30
0.0
 11
2082.358932906677
 21
583.5430440383275
 31
0.0
  0
ARC
  5
1665
330
2
100
AcDbEntity
  8
Layer3
100
AcDbCircle
 10
2094.627626126956
 20
565.614497569504
 30
0.0
 40
21.72449336159757
100
AcDbArc
 50
55.61575253195898
 51
124.3842474680407
  0
ARC
  5
1666
330
2
100
AcDbEntity
  8
Layer3
100
AcDbCircle
 10
2131.433705787795
 20
506.1349378238807
 30
0.0
 40
81.20405310722105
100
AcDbArc
 50
72.41204622600571
 51
107.5879537739948
  0
ARC
  5
1667
330
2
100
AcDbEntity
  8
Layer3
100
AcDbCircle
 10
2168.239785448633
 20
565.6144975695043
 30
0.0
 40
21.72449336159703
100
AcDbArc
 50
55.61575253195299
 51
124.3842474680403
  0
CIRCLE
  5
166A
330
2
100
AcDbEntity
  8
Layer3
100
AcDbCircle
 10
2281.433705787794
 20
651.5055504943059
 30
0.0
 40
46.0
  0
LINE
  5
166C
330
2
100
AcDbEntity
  8
Layer3
100
AcDbLine
 10
2327.433705787794
 20
588.2050163348858
 30
0.0
 11
2336.281981360808
 21
583.0964620509424
 31
0.0
  0
LINE
  5
166D
330
2
100
AcDbEntity
  8
Layer3
100
AcDbLine
 10
2235.433705787794
 20
588.2050163348858
 30
0.0
 11
2226.58543021478
 21
583.0964620509424
 31
0.0
  0
ARC
  5
1673
330
2
100
AcDbEntity
  8
Layer3
100
AcDbCircle
 10
2240.297499108034
 20
563.0586748210823
 30
0.0
 40
24.28031611001939
100
AcDbArc
 50
55.61575253195819
 51
124.3842474680417
  0
ARC
  5
1674
330
2
100
AcDbEntity
  8
Layer3
100
AcDbCircle
 10
2281.433705787794
 20
496.5815198112582
 30
0.0
 40
90.75747111984334
100
AcDbArc
 50
72.41204622600666
 51
107.5879537739933
  0
ARC
  5
1675
330
2
100
AcDbEntity
  8
Layer3
100
AcDbCircle
 10
2322.569912467555
 20
563.0586748210817
 30
0.0
 40
24.28031611001992
100
AcDbArc
 50
55.61575253195994
 51
124.3842474680421
  0
ENDSEC
  0
SECTION
  2
OBJECTS
  0
DICTIONARY
  5
1B
330
0
100
AcDbDictionary
281
     1
  3
ACAD_GROUP
350
19
  3
ACAD_LAYOUT
350
2E
  3
ACAD_MLINESTYLE
350
1A
  3
ACAD_PLOTSETTINGS
350
2F
  3
ACAD_PLOTSTYLENAME
350
2C
  0
DICTIONARY
  5
807
330
2
100
AcDbDictionary
280
     1
281
     1
  3
ACAD_LAYOUTSELFREF
360
9D6
  0
DICTIONARY
  5
809
330
8
100
AcDbDictionary
280
     1
281
     1
  3
ACAD_LAYOUTSELFREF
360
9D7
  0
DICTIONARY
  5
19
102
{ACAD_REACTORS
330
1B
102
}
330
1B
100
AcDbDictionary
281
     1
  0
DICTIONARY
  5
2E
102
{ACAD_REACTORS
330
1B
102
}
330
1B
100
AcDbDictionary
281
     1
  3
Layout1
350
9DB
  3
Model
350
9DA
  0
DICTIONARY
  5
1A
102
{ACAD_REACTORS
330
1B
102
}
330
1B
100
AcDbDictionary
281
     1
  3
STANDARD
350
1C
  0
DICTIONARY
  5
2F
102
{ACAD_REACTORS
330
1B
102
}
330
1B
100
AcDbDictionary
281
     1
  0
ACDBDICTIONARYWDFLT
  5
2C
102
{ACAD_REACTORS
330
1B
102
}
330
1B
100
AcDbDictionary
281
     1
  3
Normal
350
2D
100
AcDbDictionaryWithDefault
340
2D
  0
XRECORD
  5
9D6
102
{ACAD_REACTORS
330
807
102
}
330
807
100
AcDbXrecord
280
     1
340
2
  0
XRECORD
  5
9D7
102
{ACAD_REACTORS
330
809
102
}
330
809
100
AcDbXrecord
280
     1
340
8
  0
LAYOUT
  5
9DB
102
{ACAD_REACTORS
330
2E
102
}
330
2E
100
AcDbPlotSettings
  1

  2
None
  4

  6

 40
0.0
 41
0.0
 42
0.0
 43
0.0
 44
0.0
 45
0.0
 46
0.0
 47
0.0
 48
0.0
 49
0.0
140
0.0
141
0.0
142
1.0
143
1.0
 70
   688
 72
     0
 73
     0
 74
     5
  7
monochrome.ctb
 75
    16
147
1.0
148
0.0
149
0.0
100
AcDbLayout
  1
Layout1
 70
     1
 71
     1
 10
0.0
 20
0.0
 11
420.0
 21
297.0
 12
0.0
 22
0.0
 32
0.0
 14
0.0
 24
0.0
 34
0.0
 15
420.0000000000001
 25
302.7225130890052
 35
0.0
146
0.0
 13
0.0
 23
0.0
 33
0.0
 16
1.0
 26
0.0
 36
0.0
 17
0.0
 27
1.0
 37
0.0
 76
     0
330
8
  0
LAYOUT
  5
9DA
102
{ACAD_REACTORS
330
2E
102
}
330
2E
100
AcDbPlotSettings
  1

  2
EPSON LP-9100
  4
A3
  6

 40
5.873749732971191
 41
5.873747825622558
 42
5.873748779296875
 43
5.873748779296875
 44
419.9466552734374
 45
297.0106506347656
 46
0.0
 47
73.36
 48
-418.8022567605612
 49
225.2259887293712
140
2446.239012639197
141
1197.651743537948
142
1.0
143
7.018733924225245
 70
 11956
 72
     1
 73
     0
 74
     4
  7
monochrome.ctb
 75
     0
147
0.1424758383486355
148
418.8022567605612
149
-225.2259887293712
100
AcDbLayout
  1
Model
 70
     1
 71
     0
 10
0.0
 20
0.0
 11
12.0
 21
9.0
 12
0.0
 22
0.0
 32
0.0
 14
0.0
 24
0.0
 34
0.0
 15
0.0
 25
0.0
 35
0.0
146
0.0
 13
0.0
 23
0.0
 33
0.0
 16
1.0
 26
0.0
 36
0.0
 17
0.0
 27
1.0
 37
0.0
 76
     0
330
2
  0
MLINESTYLE
  5
1C
102
{ACAD_REACTORS
330
1A
102
}
330
1A
100
AcDbMlineStyle
  2
STANDARD
 70
     0
  3

 62
     0
 51
90.0
 52
90.0
 71
     2
 49
0.5
 62
   256
  6
BYLAYER
 49
-0.5
 62
   256
  6
BYLAYER
  0
ACDBPLACEHOLDER
  5
2D
102
{ACAD_REACTORS
330
2C
102
}
330
2C
  0
ENDSEC
  0
EOF
