  0
SECTION
  2
HEADER
  9
$ACADVER
  1
AC1015
  9
$ACADMAINTVER
 70
     6
  9
$DWGCODEPAGE
  3
ANSI_932
  9
$INSBASE
 10
0.0
 20
0.0
 30
0.0
  9
$EXTMIN
 10
-966.9304992925514
 20
-804.1424794223612
 30
0.0
  9
$EXTMAX
 10
3683.069500707448
 20
1072.196255981609
 30
0.0
  9
$LIMMIN
 10
0.0
 20
0.0
  9
$LIMMAX
 10
420.0
 20
297.0
  9
$ORTHOMODE
 70
     1
  9
$REGENMODE
 70
     1
  9
$FILLMODE
 70
     1
  9
$QTEXTMODE
 70
     0
  9
$MIRRTEXT
 70
     1
  9
$LTSCALE
 40
1.0
  9
$ATTMODE
 70
     1
  9
$TEXTSIZE
 40
3.0
  9
$TRACEWID
 40
0.05
  9
$TEXTSTYLE
  7
STANDARD
  9
$CLAYER
  8
Layer3
  9
$CELTYPE
  6
BYLAYER
  9
$CECOLOR
 62
   256
  9
$CELTSCALE
 40
1.0
  9
$DISPSILH
 70
     0
  9
$DIMSCALE
 40
0.0
  9
$DIMASZ
 40
2.5
  9
$DIMEXO
 40
1.0
  9
$DIMDLI
 40
10.0
  9
$DIMRND
 40
0.0
  9
$DIMDLE
 40
0.0
  9
$DIMEXE
 40
1.0
  9
$DIMTP
 40
0.0
  9
$DIMTM
 40
0.0
  9
$DIMTXT
 40
3.0
  9
$DIMCEN
 40
0.0
  9
$DIMTSZ
 40
0.0
  9
$DIMTOL
 70
     0
  9
$DIMLIM
 70
     0
  9
$DIMTIH
 70
     0
  9
$DIMTOH
 70
     0
  9
$DIMSE1
 70
     0
  9
$DIMSE2
 70
     0
  9
$DIMTAD
 70
     3
  9
$DIMZIN
 70
     8
  9
$DIMBLK
  1
OPEN
  9
$DIMASO
 70
     1
  9
$DIMSHO
 70
     1
  9
$DIMPOST
  1

  9
$DIMAPOST
  1

  9
$DIMALT
 70
     0
  9
$DIMALTD
 70
     2
  9
$DIMALTF
 40
25.4
  9
$DIMLFAC
 40
1.0
  9
$DIMTOFL
 70
     1
  9
$DIMTVP
 40
0.0
  9
$DIMTIX
 70
     1
  9
$DIMSOXD
 70
     0
  9
$DIMSAH
 70
     0
  9
$DIMBLK1
  1

  9
$DIMBLK2
  1

  9
$DIMSTYLE
  2
STYLE1
  9
$DIMCLRD
 70
     0
  9
$DIMCLRE
 70
     0
  9
$DIMCLRT
 70
     0
  9
$DIMTFAC
 40
1.0
  9
$DIMGAP
 40
1.0
  9
$DIMJUST
 70
     0
  9
$DIMSD1
 70
     0
  9
$DIMSD2
 70
     0
  9
$DIMTOLJ
 70
     1
  9
$DIMTZIN
 70
     0
  9
$DIMALTZ
 70
     0
  9
$DIMALTTZ
 70
     0
  9
$DIMUPT
 70
     0
  9
$DIMDEC
 70
     3
  9
$DIMTDEC
 70
     3
  9
$DIMALTU
 70
     2
  9
$DIMALTTD
 70
     2
  9
$DIMTXSTY
  7
STANDARD
  9
$DIMAUNIT
 70
     0
  9
$DIMADEC
 70
     2
  9
$DIMALTRND
 40
0.0
  9
$DIMAZIN
 70
     2
  9
$DIMDSEP
 70
    46
  9
$DIMATFIT
 70
     3
  9
$DIMFRAC
 70
     0
  9
$DIMLDRBLK
  1
OPEN
  9
$DIMLUNIT
 70
     2
  9
$DIMLWD
 70
    -2
  9
$DIMLWE
 70
    -2
  9
$DIMTMOVE
 70
     0
  9
$LUNITS
 70
     2
  9
$LUPREC
 70
     3
  9
$SKETCHINC
 40
0.1
  9
$FILLETRAD
 40
0.0
  9
$AUNITS
 70
     0
  9
$AUPREC
 70
     2
  9
$MENU
  1
acad
  9
$ELEVATION
 40
0.0
  9
$PELEVATION
 40
0.0
  9
$THICKNESS
 40
0.0
  9
$LIMCHECK
 70
     0
  9
$CHAMFERA
 40
0.0
  9
$CHAMFERB
 40
0.0
  9
$CHAMFERC
 40
0.0
  9
$CHAMFERD
 40
0.0
  9
$SKPOLY
 70
     0
  9
$TDCREATE
 40
2449545.886377199
  9
$TDUCREATE
 40
2449545.511377199
  9
$TDUPDATE
 40
2453641.588004016
  9
$TDUUPDATE
 40
2453641.213004016
  9
$TDINDWG
 40
0.7469084144
  9
$TDUSRTIMER
 40
0.7469084144
  9
$USRTIMER
 70
     1
  9
$ANGBASE
 50
0.0
  9
$ANGDIR
 70
     0
  9
$PDMODE
 70
     0
  9
$PDSIZE
 40
0.0
  9
$PLINEWID
 40
0.0
  9
$SPLFRAME
 70
     0
  9
$SPLINETYPE
 70
     6
  9
$SPLINESEGS
 70
     8
  9
$HANDSEED
  5
22A8
  9
$SURFTAB1
 70
     6
  9
$SURFTAB2
 70
     6
  9
$SURFTYPE
 70
     6
  9
$SURFU
 70
     6
  9
$SURFV
 70
     6
  9
$UCSBASE
  2

  9
$UCSNAME
  2

  9
$UCSORG
 10
0.0
 20
0.0
 30
0.0
  9
$UCSXDIR
 10
1.0
 20
0.0
 30
0.0
  9
$UCSYDIR
 10
0.0
 20
1.0
 30
0.0
  9
$UCSORTHOREF
  2

  9
$UCSORTHOVIEW
 70
     0
  9
$UCSORGTOP
 10
0.0
 20
0.0
 30
0.0
  9
$UCSORGBOTTOM
 10
0.0
 20
0.0
 30
0.0
  9
$UCSORGLEFT
 10
0.0
 20
0.0
 30
0.0
  9
$UCSORGRIGHT
 10
0.0
 20
0.0
 30
0.0
  9
$UCSORGFRONT
 10
0.0
 20
0.0
 30
0.0
  9
$UCSORGBACK
 10
0.0
 20
0.0
 30
0.0
  9
$PUCSBASE
  2

  9
$PUCSNAME
  2

  9
$PUCSORG
 10
0.0
 20
0.0
 30
0.0
  9
$PUCSXDIR
 10
1.0
 20
0.0
 30
0.0
  9
$PUCSYDIR
 10
0.0
 20
1.0
 30
0.0
  9
$PUCSORTHOREF
  2

  9
$PUCSORTHOVIEW
 70
     0
  9
$PUCSORGTOP
 10
0.0
 20
0.0
 30
0.0
  9
$PUCSORGBOTTOM
 10
0.0
 20
0.0
 30
0.0
  9
$PUCSORGLEFT
 10
0.0
 20
0.0
 30
0.0
  9
$PUCSORGRIGHT
 10
0.0
 20
0.0
 30
0.0
  9
$PUCSORGFRONT
 10
0.0
 20
0.0
 30
0.0
  9
$PUCSORGBACK
 10
0.0
 20
0.0
 30
0.0
  9
$USERI1
 70
     0
  9
$USERI2
 70
     0
  9
$USERI3
 70
     0
  9
$USERI4
 70
     0
  9
$USERI5
 70
     0
  9
$USERR1
 40
0.0
  9
$USERR2
 40
0.0
  9
$USERR3
 40
0.0
  9
$USERR4
 40
0.0
  9
$USERR5
 40
0.0
  9
$WORLDVIEW
 70
     1
  9
$SHADEDGE
 70
     3
  9
$SHADEDIF
 70
    70
  9
$TILEMODE
 70
     1
  9
$MAXACTVP
 70
    16
  9
$PINSBASE
 10
0.0
 20
0.0
 30
0.0
  9
$PLIMCHECK
 70
     0
  9
$PEXTMIN
 10
0.0
 20
0.0
 30
0.0
  9
$PEXTMAX
 10
420.0000000000001
 20
302.7225130890052
 30
0.0
  9
$PLIMMIN
 10
0.0
 20
0.0
  9
$PLIMMAX
 10
420.0
 20
297.0
  9
$UNITMODE
 70
     0
  9
$VISRETAIN
 70
     0
  9
$PLINEGEN
 70
     0
  9
$PSLTSCALE
 70
     1
  9
$TREEDEPTH
 70
  3020
  9
$CMLSTYLE
  2
STANDARD
  9
$CMLJUST
 70
     0
  9
$CMLSCALE
 40
1.0
  9
$PROXYGRAPHICS
 70
     1
  9
$MEASUREMENT
 70
     0
  9
$CELWEIGHT
370
    -1
  9
$ENDCAPS
280
     0
  9
$JOINSTYLE
280
     0
  9
$LWDISPLAY
290
     0
  9
$INSUNITS
 70
     0
  9
$HYPERLINKBASE
  1

  9
$STYLESHEET
  1
monochrome.ctb
  9
$XEDIT
290
     1
  9
$CEPSNTYPE
380
     0
  9
$PSTYLEMODE
290
     1
  9
$FINGERPRINTGUID
  2
{E5BFD884-1444-4908-A764-017D0946F674}
  9
$VERSIONGUID
  2
{170021E9-5002-4933-BA64-65268812C7A3}
  9
$EXTNAMES
290
     1
  9
$PSVPSCALE
 40
0.0
  9
$OLESTARTUP
290
     0
  0
ENDSEC
  0
SECTION
  2
CLASSES
  0
CLASS
  1
ACDBDICTIONARYWDFLT
  2
AcDbDictionaryWithDefault
  3
AutoCAD 2000
 90
        0
280
     0
281
     0
  0
CLASS
  1
ACDBPLACEHOLDER
  2
AcDbPlaceHolder
  3
AutoCAD 2000
 90
        0
280
     0
281
     0
  0
CLASS
  1
LAYOUT
  2
AcDbLayout
  3
AutoCAD 2000
 90
        0
280
     0
281
     0
  0
CLASS
  1
LONG_TRANSACTION
  2
AcDbLongTransaction
  3
AutoCAD 2000
 90
    32768
280
     0
281
     0
  0
CLASS
  1
LWPOLYLINE
  2
AcDbPolyline
  3
AutoCAD 2000
 90
    32768
280
     0
281
     1
  0
CLASS
  1
HATCH
  2
AcDbHatch
  3
AutoCAD 2000
 90
    32768
280
     0
281
     1
  0
CLASS
  1
XRECORD
  2
AcDbXrecord
  3
AutoCAD 2000
 90
    32768
280
     0
281
     0
  0
CLASS
  1
LONG_TRANSACTION
  2
AcDbLongTransaction
  3
AutoCAD 2000
 90
    32768
280
     0
281
     0
  0
CLASS
  1
LWPOLYLINE
  2
AcDbPolyline
  3
AutoCAD 2000
 90
    32768
280
     0
281
     1
  0
CLASS
  1
HATCH
  2
AcDbHatch
  3
AutoCAD 2000
 90
    32768
280
     0
281
     1
  0
CLASS
  1
XRECORD
  2
AcDbXrecord
  3
AutoCAD 2000
 90
    32768
280
     0
281
     0
  0
CLASS
  1
LONG_TRANSACTION
  2
AcDbLongTransaction
  3
AutoCAD 2000
 90
    32768
280
     0
281
     0
  0
CLASS
  1
LWPOLYLINE
  2
AcDbPolyline
  3
AutoCAD 2000
 90
    32768
280
     0
281
     1
  0
CLASS
  1
HATCH
  2
AcDbHatch
  3
AutoCAD 2000
 90
    32768
280
     0
281
     1
  0
CLASS
  1
XRECORD
  2
AcDbXrecord
  3
AutoCAD 2000
 90
    32768
280
     0
281
     0
  0
CLASS
  1
LONG_TRANSACTION
  2
AcDbLongTransaction
  3
AutoCAD 2000
 90
    32768
280
     0
281
     0
  0
CLASS
  1
LWPOLYLINE
  2
AcDbPolyline
  3
AutoCAD 2000
 90
    32768
280
     0
281
     1
  0
CLASS
  1
HATCH
  2
AcDbHatch
  3
AutoCAD 2000
 90
    32768
280
     0
281
     1
  0
CLASS
  1
XRECORD
  2
AcDbXrecord
  3
AutoCAD 2000
 90
    32768
280
     0
281
     0
  0
CLASS
  1
LONG_TRANSACTION
  2
AcDbLongTransaction
  3
AutoCAD 2000
 90
    32768
280
     0
281
     0
  0
CLASS
  1
LWPOLYLINE
  2
AcDbPolyline
  3
AutoCAD 2000
 90
    32768
280
     0
281
     1
  0
CLASS
  1
HATCH
  2
AcDbHatch
  3
AutoCAD 2000
 90
    32768
280
     0
281
     1
  0
CLASS
  1
XRECORD
  2
AcDbXrecord
  3
AutoCAD 2000
 90
    32768
280
     0
281
     0
  0
CLASS
  1
LONG_TRANSACTION
  2
AcDbLongTransaction
  3
AutoCAD 2000
 90
    32768
280
     0
281
     0
  0
CLASS
  1
LWPOLYLINE
  2
AcDbPolyline
  3
AutoCAD 2000
 90
    32768
280
     0
281
     1
  0
CLASS
  1
HATCH
  2
AcDbHatch
  3
AutoCAD 2000
 90
    32768
280
     0
281
     1
  0
CLASS
  1
XRECORD
  2
AcDbXrecord
  3
AutoCAD 2000
 90
    32768
280
     0
281
     0
  0
CLASS
  1
LONG_TRANSACTION
  2
AcDbLongTransaction
  3
AutoCAD 2000
 90
    32768
280
     0
281
     0
  0
CLASS
  1
LWPOLYLINE
  2
AcDbPolyline
  3
AutoCAD 2000
 90
    32768
280
     0
281
     1
  0
CLASS
  1
HATCH
  2
AcDbHatch
  3
AutoCAD 2000
 90
    32768
280
     0
281
     1
  0
CLASS
  1
XRECORD
  2
AcDbXrecord
  3
AutoCAD 2000
 90
    32768
280
     0
281
     0
  0
CLASS
  1
LONG_TRANSACTION
  2
AcDbLongTransaction
  3
AutoCAD 2000
 90
    32768
280
     0
281
     0
  0
CLASS
  1
LWPOLYLINE
  2
AcDbPolyline
  3
AutoCAD 2000
 90
    32768
280
     0
281
     1
  0
CLASS
  1
HATCH
  2
AcDbHatch
  3
AutoCAD 2000
 90
    32768
280
     0
281
     1
  0
CLASS
  1
XRECORD
  2
AcDbXrecord
  3
AutoCAD 2000
 90
    32768
280
     0
281
     0
  0
CLASS
  1
LONG_TRANSACTION
  2
AcDbLongTransaction
  3
AutoCAD 2000
 90
    32768
280
     0
281
     0
  0
CLASS
  1
LWPOLYLINE
  2
AcDbPolyline
  3
AutoCAD 2000
 90
    32768
280
     0
281
     1
  0
CLASS
  1
HATCH
  2
AcDbHatch
  3
AutoCAD 2000
 90
    32768
280
     0
281
     1
  0
CLASS
  1
XRECORD
  2
AcDbXrecord
  3
AutoCAD 2000
 90
    32768
280
     0
281
     0
  0
ENDSEC
  0
SECTION
  2
TABLES
  0
TABLE
  2
VPORT
  5
13
330
0
100
AcDbSymbolTable
 70
     2
  0
VPORT
  5
22A7
330
13
100
AcDbSymbolTableRecord
100
AcDbViewportTableRecord
  2
*Active
 70
     0
 10
0.0
 20
0.0
 11
1.0
 21
1.0
 12
1358.186110950747
 22
134.0137100616072
 13
0.0
 23
0.0
 14
0.1
 24
0.1
 15
10.0
 25
10.0
 16
0.0
 26
0.0
 36
1.0
 17
0.0
 27
0.0
 37
0.0
 40
2699.060332371672
 41
1.732888146911518
 42
50.0
 43
0.0
 44
0.0
 50
0.0
 51
0.0
 71
     0
 72
   100
 73
     1
 74
     0
 75
     0
 76
     0
 77
     0
 78
     1
281
     0
 65
     1
110
0.0
120
0.0
130
0.0
111
1.0
121
0.0
131
0.0
112
0.0
122
1.0
132
0.0
 79
     0
146
0.0
  0
ENDTAB
  0
TABLE
  2
LTYPE
  5
F
330
0
100
AcDbSymbolTable
 70
     1
  0
LTYPE
  5
10
330
F
100
AcDbSymbolTableRecord
100
AcDbLinetypeTableRecord
  2
BYBLOCK
 70
     0
  3

 72
    65
 73
     0
 40
0.0
  0
LTYPE
  5
6
330
F
100
AcDbSymbolTableRecord
100
AcDbLinetypeTableRecord
  2
BYLAYER
 70
     0
  3

 72
    65
 73
     0
 40
0.0
  0
LTYPE
  5
5
330
F
100
AcDbSymbolTableRecord
100
AcDbLinetypeTableRecord
  2
CONTINUOUS
 70
     0
  3
Solid line
 72
    65
 73
     0
 40
0.0
  0
ENDTAB
  0
TABLE
  2
LAYER
  5
B
330
0
100
AcDbSymbolTable
 70
     5
  0
LAYER
  5
C
330
B
100
AcDbSymbolTableRecord
100
AcDbLayerTableRecord
  2
0
 70
     0
 62
     7
  6
CONTINUOUS
370
    -3
390
2D
  0
LAYER
  5
10EB
330
B
100
AcDbSymbolTableRecord
100
AcDbLayerTableRecord
  2
DEFPOINTS
 70
     0
 62
     7
  6
CONTINUOUS
290
     0
370
    -3
390
2D
  0
LAYER
  5
1515
330
B
100
AcDbSymbolTableRecord
100
AcDbLayerTableRecord
  2
Layer1
 70
     0
 62
     5
  6
CONTINUOUS
370
    -3
390
2D
  0
LAYER
  5
1516
330
B
100
AcDbSymbolTableRecord
100
AcDbLayerTableRecord
  2
Layer3
 70
     0
 62
     4
  6
CONTINUOUS
370
    -3
390
2D
  0
LAYER
  5
1517
330
B
100
AcDbSymbolTableRecord
100
AcDbLayerTableRecord
  2
Layer4
 70
     0
 62
     6
  6
CONTINUOUS
370
    -3
390
2D
  0
ENDTAB
  0
TABLE
  2
STYLE
  5
D
330
0
100
AcDbSymbolTable
 70
     1
  0
STYLE
  5
E
330
D
100
AcDbSymbolTableRecord
100
AcDbTextStyleTableRecord
  2
STANDARD
 70
     0
 40
0.0
 41
1.0
 50
0.0
 71
     0
 42
3.0
  3
txt
  4
bigfont
  0
ENDTAB
  0
TABLE
  2
VIEW
  5
11
330
0
100
AcDbSymbolTable
 70
     0
  0
ENDTAB
  0
TABLE
  2
UCS
  5
12
330
0
100
AcDbSymbolTable
 70
     0
  0
ENDTAB
  0
TABLE
  2
APPID
  5
15
330
0
100
AcDbSymbolTable
 70
     2
  0
APPID
  5
16
330
15
100
AcDbSymbolTableRecord
100
AcDbRegAppTableRecord
  2
ACAD
 70
     0
  0
APPID
  5
BC3
330
15
100
AcDbSymbolTableRecord
100
AcDbRegAppTableRecord
  2
CONTENTBLOCKICON
 70
     0
  0
ENDTAB
  0
TABLE
  2
DIMSTYLE
  5
17
330
0
100
AcDbSymbolTable
 70
     2
100
AcDbDimStyleTable
 71
     0
  0
DIMSTYLE
105
38
330
17
100
AcDbSymbolTableRecord
100
AcDbDimStyleTableRecord
  2
STYLE1
 70
     0
 40
0.0
 41
2.5
 42
1.0
 43
10.0
 44
1.0
 73
     0
 74
     0
 77
     3
 78
     8
140
3.0
141
0.0
147
1.0
172
     1
174
     1
271
     3
272
     3
340
E
341
3EC
342
3EC
  0
DIMSTYLE
105
558
330
17
100
AcDbSymbolTableRecord
100
AcDbDimStyleTableRecord
  2
STANDARD
 70
     0
340
E
  0
ENDTAB
  0
TABLE
  2
BLOCK_RECORD
  5
1
330
0
100
AcDbSymbolTable
 70
     1
  0
BLOCK_RECORD
  5
2
102
{ACAD_XDICTIONARY
360
3A6
102
}
330
1
100
AcDbSymbolTableRecord
100
AcDbBlockTableRecord
  2
*MODEL_SPACE
340
150C
  0
BLOCK_RECORD
  5
8
102
{ACAD_XDICTIONARY
360
3A8
102
}
330
1
100
AcDbSymbolTableRecord
100
AcDbBlockTableRecord
  2
*PAPER_SPACE
340
150D
  0
BLOCK_RECORD
  5
3EC
330
1
100
AcDbSymbolTableRecord
100
AcDbBlockTableRecord
  2
_OPEN
340
0
  0
ENDTAB
  0
ENDSEC
  0
SECTION
  2
BLOCKS
  0
BLOCK
  5
3
330
2
100
AcDbEntity
  8
0
100
AcDbBlockBegin
  2
*MODEL_SPACE
 70
     0
 10
0.0
 20
0.0
 30
0.0
  3
*MODEL_SPACE
  1

  0
ENDBLK
  5
7
330
2
100
AcDbEntity
  8
0
100
AcDbBlockEnd
  0
BLOCK
  5
9
330
8
100
AcDbEntity
 67
     1
  8
0
100
AcDbBlockBegin
  2
*PAPER_SPACE
 70
     0
 10
0.0
 20
0.0
 30
0.0
  3
*PAPER_SPACE
  1

  0
ENDBLK
  5
A
330
8
100
AcDbEntity
 67
     1
  8
0
100
AcDbBlockEnd
  0
BLOCK
  5
3F0
330
3EC
100
AcDbEntity
  8
0
100
AcDbBlockBegin
  2
_OPEN
 70
     0
 10
0.0
 20
0.0
 30
0.0
  3
_OPEN
  1

  0
LINE
  5
3ED
330
3EC
100
AcDbEntity
  8
0
  6
ByBlock
 62
     0
100
AcDbLine
 10
-1.0
 20
0.1666666666666666
 30
0.0
 11
0.0
 21
0.0
 31
0.0
  0
LINE
  5
3EE
330
3EC
100
AcDbEntity
  8
0
  6
ByBlock
 62
     0
100
AcDbLine
 10
-1.0
 20
-0.1666666666666666
 30
0.0
 11
0.0
 21
0.0
 31
0.0
  0
LINE
  5
3EF
330
3EC
100
AcDbEntity
  8
0
  6
ByBlock
 62
     0
100
AcDbLine
 10
0.0
 20
0.0
 30
0.0
 11
-1.0
 21
0.0
 31
0.0
  0
ENDBLK
  5
3F1
330
3EC
100
AcDbEntity
  8
0
100
AcDbBlockEnd
  0
ENDSEC
  0
SECTION
  2
ENTITIES
  0
LINE
  5
F2C
330
2
100
AcDbEntity
  8
Layer3
100
AcDbLine
 10
1341.069500707448
 20
749.2757331239945
 30
0.0
 11
1375.069500707448
 21
749.2757331239945
 31
0.0
  0
LINE
  5
F2D
330
2
100
AcDbEntity
  8
Layer3
100
AcDbLine
 10
1341.069500707448
 20
752.2757331239945
 30
0.0
 11
1375.069500707448
 21
752.2757331239945
 31
0.0
  0
LINE
  5
F31
330
2
100
AcDbEntity
  8
Layer3
100
AcDbLine
 10
599.0695007074489
 20
763.2296614412966
 30
0.0
 11
617.0695007074489
 21
763.2296614412966
 31
0.0
  0
LINE
  5
F32
330
2
100
AcDbEntity
  8
Layer3
100
AcDbLine
 10
599.0695007074489
 20
761.2296614412967
 30
0.0
 11
617.0695007074489
 21
761.2296614412967
 31
0.0
  0
LINE
  5
F37
330
2
100
AcDbEntity
  8
Layer3
100
AcDbLine
 10
-138.9304992925513
 20
769.9275742342508
 30
0.0
 11
-144.9304992925513
 21
769.9275742342508
 31
0.0
  0
LINE
  5
F38
330
2
100
AcDbEntity
  8
Layer3
100
AcDbLine
 10
-144.9304992925513
 20
769.4275742342508
 30
0.0
 11
-138.9304992925513
 21
769.4275742342508
 31
0.0
  0
LINE
  5
F39
330
2
100
AcDbEntity
  8
Layer3
100
AcDbLine
 10
-138.9304992925513
 20
769.4275742342508
 30
0.0
 11
-138.9304992925513
 21
769.9275742342508
 31
0.0
  0
LINE
  5
F3A
330
2
100
AcDbEntity
  8
Layer3
100
AcDbLine
 10
-138.9304992925513
 20
769.4275742342508
 30
0.0
 11
-138.9304992925513
 21
769.4275742342508
 31
0.0
  0
LINE
  5
F3B
330
2
100
AcDbEntity
  8
Layer3
100
AcDbLine
 10
-144.9304992925513
 20
769.9275742342508
 30
0.0
 11
-144.9304992925513
 21
769.4275742342508
 31
0.0
  0
CIRCLE
  5
F3D
330
2
100
AcDbEntity
  8
Layer3
100
AcDbCircle
 10
158.0695007074491
 20
776.3383868666606
 30
0.0
 40
5.0
  0
LINE
  5
F3F
330
2
100
AcDbEntity
  8
Layer3
100
AcDbLine
 10
302.3195007074491
 20
767.8775742342507
 30
0.0
 11
313.8195007074491
 21
767.8775742342507
 31
0.0
  0
LINE
  5
F40
330
2
100
AcDbEntity
  8
Layer3
100
AcDbLine
 10
313.8195007074491
 20
766.2775742342508
 30
0.0
 11
302.3195007074491
 21
766.2775742342508
 31
0.0
  0
LINE
  5
F41
330
2
100
AcDbEntity
  8
Layer3
100
AcDbLine
 10
313.8195007074491
 20
767.8775742342507
 30
0.0
 11
313.8195007074491
 21
766.2775742342508
 31
0.0
  0
LINE
  5
F42
330
2
100
AcDbEntity
  8
Layer3
100
AcDbLine
 10
302.3195007074491
 20
766.2775742342508
 30
0.0
 11
302.3195007074491
 21
767.8775742342507
 31
0.0
  0
LINE
  5
F43
330
2
100
AcDbEntity
  8
Layer3
100
AcDbLine
 10
4.069500707449151
 20
768.5775742342509
 30
0.0
 11
4.069500707449151
 21
769.3775742342509
 31
0.0
1001
ACAD
1000
ASC_BOUNDS
1002
{
1070
    19
1002
}
  0
LINE
  5
F44
330
2
100
AcDbEntity
  8
Layer3
100
AcDbLine
 10
12.06950070744869
 20
768.5775742342509
 30
0.0
 11
4.069500707449151
 21
768.5775742342509
 31
0.0
1001
ACAD
1000
ASC_BOUNDS
1002
{
1070
    19
1002
}
  0
LINE
  5
F45
330
2
100
AcDbEntity
  8
Layer3
100
AcDbLine
 10
4.069500707449151
 20
769.3775742342509
 30
0.0
 11
12.06950070744869
 21
769.3775742342509
 31
0.0
1001
ACAD
1000
ASC_BOUNDS
1002
{
1070
    19
1002
}
  0
LINE
  5
F46
330
2
100
AcDbEntity
  8
Layer3
100
AcDbLine
 10
12.06950070744869
 20
769.3775742342509
 30
0.0
 11
12.06950070744869
 21
768.5775742342509
 31
0.0
1001
ACAD
1000
ASC_BOUNDS
1002
{
1070
    19
1002
}
  0
LINE
  5
F47
330
2
100
AcDbEntity
  8
Layer3
100
AcDbLine
 10
153.0695007074491
 20
768.7775742342507
 30
0.0
 11
163.0695007074487
 21
768.7775742342507
 31
0.0
  0
LINE
  5
F48
330
2
100
AcDbEntity
  8
Layer3
100
AcDbLine
 10
163.0695007074487
 20
767.7775742342507
 30
0.0
 11
153.0695007074491
 21
767.7775742342507
 31
0.0
  0
LINE
  5
F49
330
2
100
AcDbEntity
  8
Layer3
100
AcDbLine
 10
163.0695007074487
 20
768.7775742342507
 30
0.0
 11
163.0695007074487
 21
767.7775742342507
 31
0.0
  0
LINE
  5
F4A
330
2
100
AcDbEntity
  8
Layer3
100
AcDbLine
 10
153.0695007074491
 20
767.7775742342507
 30
0.0
 11
153.0695007074491
 21
768.7775742342507
 31
0.0
  0
LINE
  5
F4B
330
2
100
AcDbEntity
  8
Layer3
100
AcDbLine
 10
450.3195007074491
 20
764.3296614412963
 30
0.0
 11
465.8195007074491
 21
764.3296614412963
 31
0.0
  0
LINE
  5
F4C
330
2
100
AcDbEntity
  8
Layer3
100
AcDbLine
 10
465.8195007074491
 20
762.7296614412964
 30
0.0
 11
450.3195007074491
 21
762.7296614412964
 31
0.0
  0
LINE
  5
F51
330
2
100
AcDbEntity
  8
Layer3
100
AcDbLine
 10
896.0695007074489
 20
758.3736450963047
 30
0.0
 11
920.0695007074489
 21
758.3736450963047
 31
0.0
  0
LINE
  5
F52
330
2
100
AcDbEntity
  8
Layer3
100
AcDbLine
 10
896.0695007074489
 20
755.8736450963047
 30
0.0
 11
920.0695007074489
 21
755.8736450963047
 31
0.0
  0
LINE
  5
F55
330
2
100
AcDbEntity
  8
Layer3
100
AcDbLine
 10
747.5695007074489
 20
759.1926838585411
 30
0.0
 11
768.5695007074489
 21
759.1926838585411
 31
0.0
  0
LINE
  5
F56
330
2
100
AcDbEntity
  8
Layer3
100
AcDbLine
 10
747.5695007074489
 20
761.6926838585412
 30
0.0
 11
768.5695007074489
 21
761.6926838585412
 31
0.0
  0
LINE
  5
F5A
330
2
100
AcDbEntity
  8
Layer3
100
AcDbLine
 10
1044.069500707448
 20
757.123654040382
 30
0.0
 11
1072.069500707448
 21
757.123654040382
 31
0.0
  0
LINE
  5
F5B
330
2
100
AcDbEntity
  8
Layer3
100
AcDbLine
 10
1044.069500707448
 20
754.1236540403819
 30
0.0
 11
1072.069500707448
 21
754.1236540403819
 31
0.0
  0
LINE
  5
F5F
330
2
100
AcDbEntity
  8
Layer3
100
AcDbLine
 10
1638.569500707449
 20
745.168059942016
 30
0.0
 11
1677.569500707448
 21
745.168059942016
 31
0.0
  0
LINE
  5
F60
330
2
100
AcDbEntity
  8
Layer3
100
AcDbLine
 10
1638.569500707449
 20
749.168059942016
 30
0.0
 11
1677.569500707448
 21
749.168059942016
 31
0.0
  0
LINE
  5
FA8
330
2
100
AcDbEntity
  8
Layer3
100
AcDbLine
 10
1489.569500707449
 20
748.6490203323787
 30
0.0
 11
1526.569500707449
 21
748.6490203323787
 31
0.0
  0
LINE
  5
FA9
330
2
100
AcDbEntity
  8
Layer3
100
AcDbLine
 10
1489.569500707449
 20
751.6490203323788
 30
0.0
 11
1526.569500707449
 21
751.6490203323788
 31
0.0
  0
LINE
  5
FB4
330
2
100
AcDbEntity
  8
Layer3
100
AcDbLine
 10
1193.069500707449
 20
749.2821589005047
 30
0.0
 11
1223.069500707449
 21
749.2821589005047
 31
0.0
  0
LINE
  5
FB6
330
2
100
AcDbEntity
  8
Layer3
100
AcDbLine
 10
1193.069500707449
 20
752.2821589005047
 30
0.0
 11
1223.069500707449
 21
752.2821589005047
 31
0.0
  0
LINE
  5
1036
330
2
100
AcDbEntity
  8
Layer3
100
AcDbLine
 10
-439.7804992925507
 20
769.7275742342508
 30
0.0
 11
-444.0804992925509
 21
769.7275742342508
 31
0.0
  0
LINE
  5
1037
330
2
100
AcDbEntity
  8
Layer3
100
AcDbLine
 10
-439.7804992925507
 20
769.4275742342508
 30
0.0
 11
-444.0804992925509
 21
769.4275742342508
 31
0.0
  0
LINE
  5
1038
330
2
100
AcDbEntity
  8
Layer3
100
AcDbLine
 10
-444.0804992925509
 20
769.4275742342508
 30
0.0
 11
-444.0804992925509
 21
769.7275742342508
 31
0.0
  0
LINE
  5
1039
330
2
100
AcDbEntity
  8
Layer3
100
AcDbLine
 10
-439.7804992925512
 20
769.4275742342508
 30
0.0
 11
-439.7804992925512
 21
769.7275742342508
 31
0.0
  0
LINE
  5
1045
330
2
100
AcDbEntity
  8
Layer3
100
AcDbLine
 10
-289.4304992925508
 20
769.4275742342508
 30
0.0
 11
-289.4304992925508
 21
769.9275742342508
 31
0.0
  0
LINE
  5
1046
330
2
100
AcDbEntity
  8
Layer3
100
AcDbLine
 10
-294.4304992925508
 20
769.4275742342508
 30
0.0
 11
-294.4304992925508
 21
769.9275742342508
 31
0.0
  0
LINE
  5
1047
330
2
100
AcDbEntity
  8
Layer3
100
AcDbLine
 10
-289.4304992925508
 20
769.9275742342508
 30
0.0
 11
-294.4304992925508
 21
769.9275742342508
 31
0.0
  0
LINE
  5
1048
330
2
100
AcDbEntity
  8
Layer3
100
AcDbLine
 10
-289.4304992925508
 20
769.4275742342508
 30
0.0
 11
-294.4304992925508
 21
769.4275742342508
 31
0.0
  0
LINE
  5
10E6
330
2
100
AcDbEntity
  8
Layer3
100
AcDbLine
 10
1786.069500707448
 20
742.1737082571278
 30
0.0
 11
1830.069500707449
 21
742.1737082571278
 31
0.0
  0
LINE
  5
10E9
330
2
100
AcDbEntity
  8
Layer3
100
AcDbLine
 10
1786.069500707448
 20
746.1737082571278
 30
0.0
 11
1830.069500707449
 21
746.1737082571278
 31
0.0
  0
LINE
  5
10FB
330
2
100
AcDbEntity
  8
Layer3
100
AcDbLine
 10
1933.069500707448
 20
740.3770966981357
 30
0.0
 11
1983.069500707449
 21
740.3770966981357
 31
0.0
  0
LINE
  5
10FC
330
2
100
AcDbEntity
  8
Layer3
100
AcDbLine
 10
1933.069500707448
 20
744.3770966981357
 30
0.0
 11
1983.069500707449
 21
744.3770966981357
 31
0.0
  0
LINE
  5
1114
330
2
100
AcDbEntity
  8
Layer3
100
AcDbLine
 10
2080.069500707449
 20
734.3054372834515
 30
0.0
 11
2136.069500707449
 21
734.3054372834515
 31
0.0
  0
LINE
  5
111A
330
2
100
AcDbEntity
  8
Layer3
100
AcDbLine
 10
2080.069500707449
 20
739.3054372834515
 30
0.0
 11
2136.069500707449
 21
739.3054372834515
 31
0.0
  0
LINE
  5
111E
330
2
100
AcDbEntity
  8
Layer3
100
AcDbLine
 10
2228.069500707449
 20
734.3054372834515
 30
0.0
 11
2288.069500707449
 21
734.3054372834515
 31
0.0
  0
LINE
  5
1120
330
2
100
AcDbEntity
  8
Layer3
100
AcDbLine
 10
2228.069500707449
 20
739.3054372834515
 30
0.0
 11
2288.069500707449
 21
739.3054372834515
 31
0.0
  0
LINE
  5
1126
330
2
100
AcDbEntity
  8
Layer3
100
AcDbLine
 10
2375.069500707449
 20
727.6496967226094
 30
0.0
 11
2441.069500707449
 21
727.6496967226094
 31
0.0
  0
LINE
  5
112E
330
2
100
AcDbEntity
  8
Layer3
100
AcDbLine
 10
2375.069500707449
 20
733.6496967226094
 30
0.0
 11
2441.069500707449
 21
733.6496967226094
 31
0.0
  0
CIRCLE
  5
137F
330
2
100
AcDbEntity
  8
Layer3
100
AcDbCircle
 10
-441.9304992925508
 20
776.3383868666606
 30
0.0
 40
2.150000000000055
  0
CIRCLE
  5
1391
330
2
100
AcDbEntity
  8
Layer3
100
AcDbCircle
 10
-291.9304992925508
 20
776.3383868666606
 30
0.0
 40
2.5
  0
CIRCLE
  5
1394
330
2
100
AcDbEntity
  8
Layer3
100
AcDbCircle
 10
-141.9304992925512
 20
776.3383868666606
 30
0.0
 40
3.0
  0
CIRCLE
  5
13A6
330
2
100
AcDbEntity
  8
Layer3
100
AcDbCircle
 10
8.069500707449151
 20
776.3383868666606
 30
0.0
 40
4.0
  0
CIRCLE
  5
13A9
330
2
100
AcDbEntity
  8
Layer3
100
AcDbCircle
 10
308.0695007074491
 20
776.3383868666606
 30
0.0
 40
5.75
  0
CIRCLE
  5
13AC
330
2
100
AcDbEntity
  8
Layer3
100
AcDbCircle
 10
458.0695007074491
 20
776.3383868666606
 30
0.0
 40
7.75
  0
LINE
  5
13AD
330
2
100
AcDbEntity
  8
Layer3
100
AcDbLine
 10
450.3195007074491
 20
764.3296614412963
 30
0.0
 11
450.3195007074491
 21
762.7296614412964
 31
0.0
  0
LINE
  5
13AE
330
2
100
AcDbEntity
  8
Layer3
100
AcDbLine
 10
465.8195007074491
 20
764.3296614412963
 30
0.0
 11
465.8195007074491
 21
762.7296614412964
 31
0.0
  0
CIRCLE
  5
13AF
330
2
100
AcDbEntity
  8
Layer3
100
AcDbCircle
 10
608.0695007074488
 20
776.3383868666606
 30
0.0
 40
9.0
  0
LINE
  5
13B0
330
2
100
AcDbEntity
  8
Layer3
100
AcDbLine
 10
599.0695007074489
 20
763.2296614412966
 30
0.0
 11
599.0695007074489
 21
761.2296614412967
 31
0.0
  0
LINE
  5
13B1
330
2
100
AcDbEntity
  8
Layer3
100
AcDbLine
 10
617.0695007074489
 20
763.2296614412966
 30
0.0
 11
617.0695007074489
 21
761.2296614412967
 31
0.0
  0
CIRCLE
  5
13B2
330
2
100
AcDbEntity
  8
Layer3
100
AcDbCircle
 10
758.0695007074488
 20
776.3383868666606
 30
0.0
 40
10.5
  0
LINE
  5
13B3
330
2
100
AcDbEntity
  8
Layer3
100
AcDbLine
 10
747.5695007074489
 20
761.6926838585412
 30
0.0
 11
747.5695007074489
 21
759.1926838585411
 31
0.0
  0
LINE
  5
13B4
330
2
100
AcDbEntity
  8
Layer3
100
AcDbLine
 10
768.5695007074489
 20
761.6926838585412
 30
0.0
 11
768.5695007074489
 21
759.1926838585411
 31
0.0
  0
CIRCLE
  5
13B5
330
2
100
AcDbEntity
  8
Layer3
100
AcDbCircle
 10
908.0695007074488
 20
776.3383868666606
 30
0.0
 40
12.0
  0
LINE
  5
13B6
330
2
100
AcDbEntity
  8
Layer3
100
AcDbLine
 10
896.0695007074489
 20
758.3736450963047
 30
0.0
 11
896.0695007074489
 21
755.8736450963047
 31
0.0
  0
LINE
  5
13B7
330
2
100
AcDbEntity
  8
Layer3
100
AcDbLine
 10
920.0695007074489
 20
758.3736450963047
 30
0.0
 11
920.0695007074489
 21
755.8736450963047
 31
0.0
  0
CIRCLE
  5
13B8
330
2
100
AcDbEntity
  8
Layer3
100
AcDbCircle
 10
1058.069500707448
 20
776.3383868666606
 30
0.0
 40
14.0
  0
LINE
  5
13B9
330
2
100
AcDbEntity
  8
Layer3
100
AcDbLine
 10
1044.069500707448
 20
757.123654040382
 30
0.0
 11
1044.069500707448
 21
754.1236540403819
 31
0.0
  0
LINE
  5
13BA
330
2
100
AcDbEntity
  8
Layer3
100
AcDbLine
 10
1072.069500707448
 20
757.123654040382
 30
0.0
 11
1072.069500707448
 21
754.1236540403819
 31
0.0
  0
CIRCLE
  5
13BB
330
2
100
AcDbEntity
  8
Layer3
100
AcDbCircle
 10
1208.069500707449
 20
776.3383868666606
 30
0.0
 40
15.0
  0
LINE
  5
13BC
330
2
100
AcDbEntity
  8
Layer3
100
AcDbLine
 10
1193.069500707449
 20
752.2821589005047
 30
0.0
 11
1193.069500707449
 21
749.2821589005047
 31
0.0
  0
LINE
  5
13BD
330
2
100
AcDbEntity
  8
Layer3
100
AcDbLine
 10
1223.069500707449
 20
752.2821589005047
 30
0.0
 11
1223.069500707449
 21
749.2821589005047
 31
0.0
  0
CIRCLE
  5
13BE
330
2
100
AcDbEntity
  8
Layer3
100
AcDbCircle
 10
1358.069500707449
 20
776.3383868666606
 30
0.0
 40
17.0
  0
LINE
  5
13BF
330
2
100
AcDbEntity
  8
Layer3
100
AcDbLine
 10
1341.069500707448
 20
749.2757331239945
 30
0.0
 11
1341.069500707448
 21
752.2757331239945
 31
0.0
  0
LINE
  5
13C0
330
2
100
AcDbEntity
  8
Layer3
100
AcDbLine
 10
1375.069500707448
 20
752.2757331239945
 30
0.0
 11
1375.069500707448
 21
749.2757331239945
 31
0.0
  0
CIRCLE
  5
13C1
330
2
100
AcDbEntity
  8
Layer3
100
AcDbCircle
 10
1508.069500707448
 20
776.3383868666606
 30
0.0
 40
18.5
  0
LINE
  5
13C2
330
2
100
AcDbEntity
  8
Layer3
100
AcDbLine
 10
1489.569500707449
 20
748.6490203323787
 30
0.0
 11
1489.569500707449
 21
751.6490203323788
 31
0.0
  0
LINE
  5
13C3
330
2
100
AcDbEntity
  8
Layer3
100
AcDbLine
 10
1526.569500707449
 20
751.6490203323788
 30
0.0
 11
1526.569500707449
 21
748.6490203323787
 31
0.0
  0
CIRCLE
  5
13C4
330
2
100
AcDbEntity
  8
Layer3
100
AcDbCircle
 10
1658.069500707449
 20
776.3383868666606
 30
0.0
 40
19.5
  0
LINE
  5
13C5
330
2
100
AcDbEntity
  8
Layer3
100
AcDbLine
 10
1677.569500707448
 20
749.168059942016
 30
0.0
 11
1677.569500707448
 21
745.168059942016
 31
0.0
  0
LINE
  5
13C6
330
2
100
AcDbEntity
  8
Layer3
100
AcDbLine
 10
1638.569500707449
 20
745.168059942016
 30
0.0
 11
1638.569500707449
 21
749.168059942016
 31
0.0
  0
CIRCLE
  5
13C7
330
2
100
AcDbEntity
  8
Layer3
100
AcDbCircle
 10
1808.069500707448
 20
776.3383868666606
 30
0.0
 40
22.0
  0
LINE
  5
13C8
330
2
100
AcDbEntity
  8
Layer3
100
AcDbLine
 10
1786.069500707448
 20
746.1737082571278
 30
0.0
 11
1786.069500707448
 21
742.1737082571278
 31
0.0
  0
LINE
  5
13C9
330
2
100
AcDbEntity
  8
Layer3
100
AcDbLine
 10
1830.069500707449
 20
746.1737082571276
 30
0.0
 11
1830.069500707449
 21
742.1737082571276
 31
0.0
  0
CIRCLE
  5
13CA
330
2
100
AcDbEntity
  8
Layer3
100
AcDbCircle
 10
1958.069500707448
 20
776.3383868666606
 30
0.0
 40
25.0
  0
LINE
  5
13CB
330
2
100
AcDbEntity
  8
Layer3
100
AcDbLine
 10
1983.069500707449
 20
744.3770966981357
 30
0.0
 11
1983.069500707449
 21
740.3770966981357
 31
0.0
  0
LINE
  5
13CC
330
2
100
AcDbEntity
  8
Layer3
100
AcDbLine
 10
1933.069500707448
 20
744.3770966981356
 30
0.0
 11
1933.069500707448
 21
740.3770966981357
 31
0.0
  0
CIRCLE
  5
13CD
330
2
100
AcDbEntity
  8
Layer3
100
AcDbCircle
 10
2108.069500707449
 20
776.3383868666606
 30
0.0
 40
28.0
  0
LINE
  5
13CE
330
2
100
AcDbEntity
  8
Layer3
100
AcDbLine
 10
2136.069500707449
 20
739.3054372834515
 30
0.0
 11
2136.069500707449
 21
734.3054372834515
 31
0.0
  0
LINE
  5
13CF
330
2
100
AcDbEntity
  8
Layer3
100
AcDbLine
 10
2080.069500707449
 20
739.3054372834515
 30
0.0
 11
2080.069500707449
 21
734.3054372834515
 31
0.0
  0
CIRCLE
  5
13D0
330
2
100
AcDbEntity
  8
Layer3
100
AcDbCircle
 10
2258.069500707449
 20
776.3383868666606
 30
0.0
 40
30.0
  0
LINE
  5
13D1
330
2
100
AcDbEntity
  8
Layer3
100
AcDbLine
 10
2288.069500707449
 20
739.3054372834515
 30
0.0
 11
2288.069500707449
 21
734.3054372834515
 31
0.0
  0
LINE
  5
13D2
330
2
100
AcDbEntity
  8
Layer3
100
AcDbLine
 10
2228.069500707449
 20
739.3054372834515
 30
0.0
 11
2228.069500707449
 21
734.3054372834515
 31
0.0
  0
CIRCLE
  5
13D3
330
2
100
AcDbEntity
  8
Layer3
100
AcDbCircle
 10
2408.069500707449
 20
776.3383868666606
 30
0.0
 40
33.0
  0
LINE
  5
13D4
330
2
100
AcDbEntity
  8
Layer3
100
AcDbLine
 10
2375.069500707449
 20
733.6496967226094
 30
0.0
 11
2375.069500707449
 21
727.6496967226094
 31
0.0
  0
LINE
  5
13D5
330
2
100
AcDbEntity
  8
Layer3
100
AcDbLine
 10
2441.069500707449
 20
733.6496967226091
 30
0.0
 11
2441.069500707449
 21
727.6496967226091
 31
0.0
  0
LINE
  5
18A5
330
2
100
AcDbEntity
  8
Layer1
100
AcDbLine
 10
3683.069500707448
 20
150.0816423384095
 30
0.0
 11
-966.9304992925514
 21
150.0816423384077
 31
0.0
  0
LINE
  5
18A6
330
2
100
AcDbEntity
  8
Layer1
100
AcDbLine
 10
3683.069500707448
 20
361.0608021708614
 30
0.0
 11
-966.9304992925514
 21
361.0608021708596
 31
0.0
  0
LINE
  5
18A7
330
2
100
AcDbEntity
  8
Layer1
100
AcDbLine
 10
3683.069500707448
 20
406.0608021708598
 30
0.0
 11
-966.9304992925512
 21
406.060802170862
 31
0.0
  0
LINE
  5
18A8
330
2
100
AcDbEntity
  8
Layer1
100
AcDbLine
 10
2483.069500707449
 20
907.5649237304645
 30
0.0
 11
-966.9304992925512
 21
907.5649237304659
 31
0.0
  0
LINE
  5
18A9
330
2
100
AcDbEntity
  8
Layer1
100
AcDbLine
 10
2483.069500707449
 20
862.5649237304646
 30
0.0
 11
-966.9304992925514
 21
862.5649237304633
 31
0.0
  0
LINE
  5
18AA
330
2
100
AcDbEntity
  8
Layer1
100
AcDbLine
 10
2483.069500707449
 20
651.5857638980126
 30
0.0
 11
-966.9304992925514
 21
651.5857638980114
 31
0.0
  0
LINE
  5
18AB
330
2
100
AcDbEntity
  8
Layer1
100
AcDbLine
 10
233.0695007074491
 20
150.0816423384082
 30
0.0
 11
233.0695007074487
 21
406.0608021708624
 31
0.0
  0
LINE
  5
18AC
330
2
100
AcDbEntity
  8
Layer1
100
AcDbLine
 10
383.0695007074491
 20
150.0816423384083
 30
0.0
 11
383.0695007074487
 21
406.0608021708624
 31
0.0
  0
LINE
  5
18AD
330
2
100
AcDbEntity
  8
Layer1
100
AcDbLine
 10
-516.9304992925512
 20
150.0816423384079
 30
0.0
 11
-516.9304992925511
 21
406.0608021708624
 31
0.0
  0
LINE
  5
18AE
330
2
100
AcDbEntity
  8
Layer1
100
AcDbLine
 10
-366.9304992925511
 20
150.081642338408
 30
0.0
 11
-366.9304992925511
 21
406.0608021708624
 31
0.0
  0
LINE
  5
18AF
330
2
100
AcDbEntity
  8
Layer1
100
AcDbLine
 10
-216.9304992925511
 20
150.081642338408
 30
0.0
 11
-216.9304992925511
 21
406.0608021708624
 31
0.0
  0
LINE
  5
18B0
330
2
100
AcDbEntity
  8
Layer1
100
AcDbLine
 10
-66.93049929255119
 20
150.081642338408
 30
0.0
 11
-66.93049929255119
 21
406.0608021708624
 31
0.0
  0
LINE
  5
18B1
330
2
100
AcDbEntity
  8
Layer1
100
AcDbLine
 10
83.0695007074487
 20
150.0816423384081
 30
0.0
 11
83.0695007074487
 21
406.0608021708624
 31
0.0
  0
LINE
  5
18B2
330
2
100
AcDbEntity
  8
Layer1
100
AcDbLine
 10
-966.9304992925512
 20
150.0816423384077
 30
0.0
 11
-966.9304992925512
 21
406.0608021708624
 31
0.0
  0
LINE
  5
18B3
330
2
100
AcDbEntity
  8
Layer1
100
AcDbLine
 10
-816.9304992925512
 20
150.0816423384078
 30
0.0
 11
-816.9304992925512
 21
406.0608021708624
 31
0.0
  0
LINE
  5
18B4
330
2
100
AcDbEntity
  8
Layer1
100
AcDbLine
 10
-666.9304992925512
 20
150.0816423384079
 30
0.0
 11
-666.9304992925511
 21
406.0608021708624
 31
0.0
  0
MTEXT
  5
19A8
330
2
100
AcDbEntity
  8
Layer4
100
AcDbMText
 10
-963.430419689395
 20
1011.035142419146
 30
0.0
 40
50.0
 41
2280.513
 71
     1
 72
     5
  1
Plain Washers (JIS B 1256) 1978
 73
     1
 44
1.0
  0
LINE
  5
19AF
330
2
100
AcDbEntity
  8
Layer1
100
AcDbLine
 10
-66.93049929255113
 20
651.5857638980117
 30
0.0
 11
-66.93049929255107
 21
907.5649237304663
 31
0.0
  0
LINE
  5
19B0
330
2
100
AcDbEntity
  8
Layer1
100
AcDbLine
 10
-216.9304992925511
 20
651.5857638980117
 30
0.0
 11
-216.930499292551
 21
907.5649237304663
 31
0.0
  0
LINE
  5
19B1
330
2
100
AcDbEntity
  8
Layer1
100
AcDbLine
 10
-366.9304992925511
 20
651.5857638980115
 30
0.0
 11
-366.9304992925511
 21
907.5649237304663
 31
0.0
  0
LINE
  5
19B2
330
2
100
AcDbEntity
  8
Layer1
100
AcDbLine
 10
-516.9304992925511
 20
651.5857638980115
 30
0.0
 11
-516.9304992925511
 21
907.5649237304663
 31
0.0
  0
MTEXT
  5
19B4
330
2
100
AcDbEntity
  8
Layer4
100
AcDbMText
 10
-932.3552508148154
 20
400.9625979400673
 30
0.0
 40
30.0
 41
81.69299999999999
 71
     1
 72
     5
  1
M2
 73
     1
 44
1.0
  0
MTEXT
  5
19C5
330
2
100
AcDbEntity
  8
Layer4
100
AcDbMText
 10
-782.3552508148154
 20
400.9625979400673
 30
0.0
 40
30.0
 41
81.69299999999999
 71
     1
 72
     5
  1
M2.5
 73
     1
 44
1.0
  0
MTEXT
  5
19C6
330
2
100
AcDbEntity
  8
Layer4
100
AcDbMText
 10
-632.3552508148154
 20
400.9625979400673
 30
0.0
 40
30.0
 41
81.69299999999999
 71
     1
 72
     5
  1
M3
 73
     1
 44
1.0
  0
MTEXT
  5
19C7
330
2
100
AcDbEntity
  8
Layer4
100
AcDbMText
 10
-482.3552508148153
 20
400.9625979400673
 30
0.0
 40
30.0
 41
81.69299999999999
 71
     1
 72
     5
  1
M4
 73
     1
 44
1.0
  0
MTEXT
  5
19F7
330
2
100
AcDbEntity
  8
Layer4
100
AcDbMText
 10
-963.430419689395
 20
1072.196255981609
 30
0.0
 40
50.0
 41
1144.726
 71
     1
 72
     5
  1
平座金 （小形丸）\P　　
 73
     1
 44
1.0
  0
MTEXT
  5
19F8
330
2
100
AcDbEntity
  8
Layer4
100
AcDbMText
 10
-482.3552508148152
 20
902.4667194996711
 30
0.0
 40
30.0
 41
81.69299999999999
 71
     1
 72
     5
  1
M2
 73
     1
 44
1.0
  0
MTEXT
  5
19F9
330
2
100
AcDbEntity
  8
Layer4
100
AcDbMText
 10
-332.3552508148152
 20
902.4667194996711
 30
0.0
 40
30.0
 41
81.69299999999999
 71
     1
 72
     5
  1
M2.5
 73
     1
 44
1.0
  0
MTEXT
  5
19FB
330
2
100
AcDbEntity
  8
Layer4
100
AcDbMText
 10
-182.3552508148152
 20
902.4667194996711
 30
0.0
 40
30.0
 41
81.69299999999999
 71
     1
 72
     5
  1
M3
 73
     1
 44
1.0
  0
MTEXT
  5
19FD
330
2
100
AcDbEntity
  8
Layer4
100
AcDbMText
 10
-32.35525081481523
 20
902.4667194996711
 30
0.0
 40
30.0
 41
81.69299999999999
 71
     1
 72
     5
  1
M4
 73
     1
 44
1.0
  0
LINE
  5
1A19
330
2
100
AcDbEntity
  8
Layer1
100
AcDbLine
 10
833.0695007074492
 20
651.585763898012
 30
0.0
 11
833.0695007074488
 21
907.5649237304663
 31
0.0
  0
LINE
  5
1A1A
330
2
100
AcDbEntity
  8
Layer1
100
AcDbLine
 10
683.0695007074491
 20
651.585763898012
 30
0.0
 11
683.0695007074488
 21
907.5649237304663
 31
0.0
  0
LINE
  5
1A1B
330
2
100
AcDbEntity
  8
Layer1
100
AcDbLine
 10
533.0695007074488
 20
651.585763898012
 30
0.0
 11
533.0695007074488
 21
907.5649237304663
 31
0.0
  0
LINE
  5
1A1C
330
2
100
AcDbEntity
  8
Layer1
100
AcDbLine
 10
383.0695007074489
 20
651.5857638980119
 30
0.0
 11
383.0695007074489
 21
907.5649237304663
 31
0.0
  0
LINE
  5
1A1D
330
2
100
AcDbEntity
  8
Layer1
100
AcDbLine
 10
233.0695007074489
 20
651.5857638980118
 30
0.0
 11
233.0695007074489
 21
907.5649237304663
 31
0.0
  0
LINE
  5
1A1E
330
2
100
AcDbEntity
  8
Layer1
100
AcDbLine
 10
83.0695007074488
 20
651.5857638980118
 30
0.0
 11
83.06950070744893
 21
907.5649237304663
 31
0.0
  0
MTEXT
  5
1A1F
330
2
100
AcDbEntity
  8
Layer4
100
AcDbMText
 10
-182.3552508148153
 20
400.9625979400673
 30
0.0
 40
30.0
 41
81.69299999999999
 71
     1
 72
     5
  1
M6
 73
     1
 44
1.0
  0
MTEXT
  5
1A20
330
2
100
AcDbEntity
  8
Layer4
100
AcDbMText
 10
-332.3552508148153
 20
400.9625979400673
 30
0.0
 40
30.0
 41
81.69299999999999
 71
     1
 72
     5
  1
M5
 73
     1
 44
1.0
  0
MTEXT
  5
1A21
330
2
100
AcDbEntity
  8
Layer4
100
AcDbMText
 10
-32.35525081481535
 20
400.9625979400673
 30
0.0
 40
30.0
 41
81.69299999999999
 71
     1
 72
     5
  1
M8
 73
     1
 44
1.0
  0
MTEXT
  5
1A4F
330
2
100
AcDbEntity
  8
Layer4
100
AcDbMText
 10
267.6447491851846
 20
400.9625979400673
 30
0.0
 40
30.0
 41
81.69299999999999
 71
     1
 72
     5
  1
M12
 73
     1
 44
1.0
  0
MTEXT
  5
1A50
330
2
100
AcDbEntity
  8
Layer4
100
AcDbMText
 10
117.6447491851846
 20
400.9625979400673
 30
0.0
 40
30.0
 41
81.69299999999999
 71
     1
 72
     5
  1
M10
 73
     1
 44
1.0
  0
MTEXT
  5
1A51
330
2
100
AcDbEntity
  8
Layer4
100
AcDbMText
 10
394.5999258374719
 20
400.9625979400673
 30
0.0
 40
30.0
 41
81.69299999999999
 71
     1
 72
     5
  1
(M14)
 73
     1
 44
1.0
  0
MTEXT
  5
1A7C
330
2
100
AcDbEntity
  8
Layer4
100
AcDbMText
 10
267.6447491851847
 20
902.4667194996711
 30
0.0
 40
30.0
 41
81.69299999999999
 71
     1
 72
     5
  1
M6
 73
     1
 44
1.0
  0
MTEXT
  5
1A7D
330
2
100
AcDbEntity
  8
Layer4
100
AcDbMText
 10
117.6447491851847
 20
902.4667194996711
 30
0.0
 40
30.0
 41
81.69299999999999
 71
     1
 72
     5
  1
M5
 73
     1
 44
1.0
  0
MTEXT
  5
1A81
330
2
100
AcDbEntity
  8
Layer4
100
AcDbMText
 10
417.6447491851847
 20
902.4667194996711
 30
0.0
 40
30.0
 41
81.69299999999999
 71
     1
 72
     5
  1
M8
 73
     1
 44
1.0
  0
MTEXT
  5
1A82
330
2
100
AcDbEntity
  8
Layer4
100
AcDbMText
 10
717.6447491851847
 20
902.4667194996711
 30
0.0
 40
30.0
 41
81.69299999999999
 71
     1
 72
     5
  1
M12
 73
     1
 44
1.0
  0
MTEXT
  5
1A83
330
2
100
AcDbEntity
  8
Layer4
100
AcDbMText
 10
567.6447491851847
 20
902.4667194996711
 30
0.0
 40
30.0
 41
81.69299999999999
 71
     1
 72
     5
  1
M10
 73
     1
 44
1.0
  0
MTEXT
  5
1A87
330
2
100
AcDbEntity
  8
Layer4
100
AcDbMText
 10
847.8551032282119
 20
901.0934060049024
 30
0.0
 40
30.0
 41
81.69299999999999
 71
     1
 72
     5
  1
(M14)
 73
     1
 44
1.0
  0
LINE
  5
1A88
330
2
100
AcDbEntity
  8
Layer1
100
AcDbLine
 10
1433.069500707448
 20
150.0816423384087
 30
0.0
 11
1433.069500707448
 21
406.0608021708636
 31
0.0
  0
LINE
  5
1A89
330
2
100
AcDbEntity
  8
Layer1
100
AcDbLine
 10
1583.069500707448
 20
150.0816423384087
 30
0.0
 11
1583.069500707448
 21
406.0608021708636
 31
0.0
  0
LINE
  5
1A8A
330
2
100
AcDbEntity
  8
Layer1
100
AcDbLine
 10
1733.069500707449
 20
150.0816423384088
 30
0.0
 11
1733.069500707449
 21
406.0608021708636
 31
0.0
  0
LINE
  5
1A8B
330
2
100
AcDbEntity
  8
Layer1
100
AcDbLine
 10
1883.069500707448
 20
150.0816423384088
 30
0.0
 11
1883.069500707448
 21
406.0608021708636
 31
0.0
  0
LINE
  5
1A8C
330
2
100
AcDbEntity
  8
Layer1
100
AcDbLine
 10
2033.069500707449
 20
150.0816423384089
 30
0.0
 11
2033.069500707449
 21
406.0608021708636
 31
0.0
  0
LINE
  5
1A8D
330
2
100
AcDbEntity
  8
Layer1
100
AcDbLine
 10
1283.069500707449
 20
150.0816423384086
 30
0.0
 11
1283.069500707448
 21
406.0608021708636
 31
0.0
  0
LINE
  5
1A8E
330
2
100
AcDbEntity
  8
Layer1
100
AcDbLine
 10
833.0695007074487
 20
150.0816423384084
 30
0.0
 11
833.0695007074487
 21
406.0608021708624
 31
0.0
  0
LINE
  5
1A8F
330
2
100
AcDbEntity
  8
Layer1
100
AcDbLine
 10
983.0695007074487
 20
150.0816423384085
 30
0.0
 11
983.0695007074487
 21
406.0608021708624
 31
0.0
  0
LINE
  5
1A90
330
2
100
AcDbEntity
  8
Layer1
100
AcDbLine
 10
1133.069500707448
 20
150.0816423384085
 30
0.0
 11
1133.069500707448
 21
406.0608021708624
 31
0.0
  0
LINE
  5
1A91
330
2
100
AcDbEntity
  8
Layer1
100
AcDbLine
 10
533.0695007074487
 20
150.0816423384083
 30
0.0
 11
533.0695007074487
 21
406.0608021708624
 31
0.0
  0
LINE
  5
1A92
330
2
100
AcDbEntity
  8
Layer1
100
AcDbLine
 10
683.0695007074487
 20
150.0816423384084
 30
0.0
 11
683.0695007074487
 21
406.0608021708624
 31
0.0
  0
MTEXT
  5
1B6E
330
2
100
AcDbEntity
  8
Layer4
100
AcDbMText
 10
2067.644749185185
 20
400.9625979400669
 30
0.0
 40
30.0
 41
81.69299999999999
 71
     1
 72
     5
  1
M42
 73
     1
 44
1.0
  0
MTEXT
  5
1B6F
330
2
100
AcDbEntity
  8
Layer4
100
AcDbMText
 10
1917.644749185184
 20
902.4667194996709
 30
0.0
 40
30.0
 41
81.69299999999999
 71
     1
 72
     5
  1
M30
 73
     1
 44
1.0
  0
LINE
  5
1B78
330
2
100
AcDbEntity
  8
Layer1
100
AcDbLine
 10
1883.069500707448
 20
651.5857638980123
 30
0.0
 11
1883.069500707448
 21
907.5649237304663
 31
0.0
  0
LINE
  5
1B79
330
2
100
AcDbEntity
  8
Layer1
100
AcDbLine
 10
1733.069500707449
 20
651.5857638980123
 30
0.0
 11
1733.069500707449
 21
907.5649237304663
 31
0.0
  0
LINE
  5
1B8D
330
2
100
AcDbEntity
  8
Layer1
100
AcDbLine
 10
1583.069500707448
 20
651.5857638980122
 30
0.0
 11
1583.069500707448
 21
907.5649237304663
 31
0.0
  0
LINE
  5
1B8E
330
2
100
AcDbEntity
  8
Layer1
100
AcDbLine
 10
1433.069500707448
 20
651.5857638980122
 30
0.0
 11
1433.069500707448
 21
907.5649237304663
 31
0.0
  0
LINE
  5
1B8F
330
2
100
AcDbEntity
  8
Layer1
100
AcDbLine
 10
1283.069500707449
 20
651.5857638980121
 30
0.0
 11
1283.069500707449
 21
907.5649237304663
 31
0.0
  0
LINE
  5
1B90
330
2
100
AcDbEntity
  8
Layer1
100
AcDbLine
 10
1133.069500707448
 20
651.5857638980121
 30
0.0
 11
1133.069500707448
 21
907.5649237304663
 31
0.0
  0
LINE
  5
1B91
330
2
100
AcDbEntity
  8
Layer1
100
AcDbLine
 10
983.0695007074488
 20
651.585763898012
 30
0.0
 11
983.0695007074488
 21
907.5649237304663
 31
0.0
  0
MTEXT
  5
1B92
330
2
100
AcDbEntity
  8
Layer4
100
AcDbMText
 10
867.6447491851849
 20
400.962597940066
 30
0.0
 40
30.0
 41
81.69299999999999
 71
     1
 72
     5
  1
M20
 73
     1
 44
1.0
  0
MTEXT
  5
1B93
330
2
100
AcDbEntity
  8
Layer4
100
AcDbMText
 10
567.6447491851846
 20
400.9625979400663
 30
0.0
 40
30.0
 41
81.69299999999999
 71
     1
 72
     5
  1
M16
 73
     1
 44
1.0
  0
MTEXT
  5
1B94
330
2
100
AcDbEntity
  8
Layer4
100
AcDbMText
 10
997.2938420716817
 20
400.9625979400672
 30
0.0
 40
30.0
 41
81.69299999999999
 71
     1
 72
     5
  1
(M22)
 73
     1
 44
1.0
  0
MTEXT
  5
1BBC
330
2
100
AcDbEntity
  8
Layer4
100
AcDbMText
 10
1467.644749185184
 20
400.9625979400683
 30
0.0
 40
30.0
 41
81.69299999999999
 71
     1
 72
     5
  1
M30
 73
     1
 44
1.0
  0
MTEXT
  5
1BBD
330
2
100
AcDbEntity
  8
Layer4
100
AcDbMText
 10
1167.644749185184
 20
400.9625979400672
 30
0.0
 40
30.0
 41
81.69299999999999
 71
     1
 72
     5
  1
M24
 73
     1
 44
1.0
  0
MTEXT
  5
1BBE
330
2
100
AcDbEntity
  8
Layer4
100
AcDbMText
 10
1767.644749185184
 20
400.9625979400667
 30
0.0
 40
30.0
 41
81.69299999999999
 71
     1
 72
     5
  1
M36
 73
     1
 44
1.0
  0
MTEXT
  5
1BE4
330
2
100
AcDbEntity
  8
Layer4
100
AcDbMText
 10
1317.644749185184
 20
902.46671949967
 30
0.0
 40
30.0
 41
81.69299999999999
 71
     1
 72
     5
  1
M20
 73
     1
 44
1.0
  0
MTEXT
  5
1BE6
330
2
100
AcDbEntity
  8
Layer4
100
AcDbMText
 10
1017.644749185184
 20
902.4667194996702
 30
0.0
 40
30.0
 41
81.69299999999999
 71
     1
 72
     5
  1
M16
 73
     1
 44
1.0
  0
MTEXT
  5
1BE8
330
2
100
AcDbEntity
  8
Layer4
100
AcDbMText
 10
1446.741032788509
 20
901.5172207958968
 30
0.0
 40
30.0
 41
81.69299999999999
 71
     1
 72
     5
  1
(M22)
 73
     1
 44
1.0
  0
MTEXT
  5
1BEB
330
2
100
AcDbEntity
  8
Layer4
100
AcDbMText
 10
1617.644749185184
 20
902.4667194996711
 30
0.0
 40
30.0
 41
81.69299999999999
 71
     1
 72
     5
  1
M24
 73
     1
 44
1.0
  0
MTEXT
  5
1BEC
330
2
100
AcDbEntity
  8
Layer4
100
AcDbMText
 10
1742.348366231349
 20
900.2999887800015
 30
0.0
 40
30.0
 41
81.69299999999999
 71
     1
 72
     5
  1
(M27)
 73
     1
 44
1.0
  0
LINE
  5
1BFC
330
2
100
AcDbEntity
  8
Layer1
100
AcDbLine
 10
2483.069500707449
 20
651.5857638980126
 30
0.0
 11
2483.069500707449
 21
907.5649237304663
 31
0.0
  0
LINE
  5
1BFD
330
2
100
AcDbEntity
  8
Layer1
100
AcDbLine
 10
2333.069500707448
 20
651.5857638980126
 30
0.0
 11
2333.069500707448
 21
907.5649237304663
 31
0.0
  0
LINE
  5
1BFE
330
2
100
AcDbEntity
  8
Layer1
100
AcDbLine
 10
2183.069500707448
 20
651.5857638980125
 30
0.0
 11
2183.069500707448
 21
907.5649237304663
 31
0.0
  0
LINE
  5
1BFF
330
2
100
AcDbEntity
  8
Layer1
100
AcDbLine
 10
2033.069500707449
 20
651.5857638980125
 30
0.0
 11
2033.069500707449
 21
907.5649237304663
 31
0.0
  0
MTEXT
  5
1C03
330
2
100
AcDbEntity
  8
Layer4
100
AcDbMText
 10
2967.644749185184
 20
400.9625979400686
 30
0.0
 40
30.0
 41
81.69299999999999
 71
     1
 72
     5
  1
M64
 73
     1
 44
1.0
  0
MTEXT
  5
1C04
330
2
100
AcDbEntity
  8
Layer4
100
AcDbMText
 10
2367.644749185184
 20
400.9625979400651
 30
0.0
 40
30.0
 41
81.69299999999999
 71
     1
 72
     5
  1
M48
 73
     1
 44
1.0
  0
MTEXT
  5
1C05
330
2
100
AcDbEntity
  8
Layer4
100
AcDbMText
 10
2667.644749185185
 20
400.9625979400686
 30
0.0
 40
30.0
 41
81.69299999999999
 71
     1
 72
     5
  1
M56
 73
     1
 44
1.0
  0
MTEXT
  5
1C2B
330
2
100
AcDbEntity
  8
Layer4
100
AcDbMText
 10
2341.942774533785
 20
900.955904785717
 30
0.0
 40
30.0
 41
81.69299999999999
 71
     1
 72
     5
  1
(M39)
 73
     1
 44
1.0
  0
MTEXT
  5
1C2C
330
2
100
AcDbEntity
  8
Layer4
100
AcDbMText
 10
2040.222136132187
 20
901.0792123568213
 30
0.0
 40
30.0
 41
81.69299999999999
 71
     1
 72
     5
  1
(M33)
 73
     1
 44
1.0
  0
MTEXT
  5
1C2D
330
2
100
AcDbEntity
  8
Layer4
100
AcDbMText
 10
2217.644749185184
 20
902.4667194996723
 30
0.0
 40
30.0
 41
81.69299999999999
 71
     1
 72
     5
  1
M36
 73
     1
 44
1.0
  0
MTEXT
  5
1C2F
330
2
100
AcDbEntity
  8
Layer4
100
AcDbMText
 10
-963.4304196893948
 20
570.6921344220059
 30
0.0
 40
50.0
 41
1144.726
 71
     1
 72
     5
  1
平座金 （みがき丸）\P　　
 73
     1
 44
1.0
  0
MTEXT
  5
1C30
330
2
100
AcDbEntity
  8
Layer4
100
AcDbMText
 10
-963.4304196893948
 20
509.5310208595434
 30
0.0
 40
50.0
 41
2280.513
 71
     1
 72
     5
  1
Plain Washers (JIS B 1256) 1978
 73
     1
 44
1.0
  0
MTEXT
  5
1C34
330
2
100
AcDbEntity
  8
Layer4
100
AcDbMText
 10
-963.4304196893948
 20
8.026899299939714
 30
0.0
 40
50.0
 41
2280.513
 71
     1
 72
     5
  1
Plain Washers (JIS B 1256) 1978
 73
     1
 44
1.0
  0
MTEXT
  5
1C39
330
2
100
AcDbEntity
  8
Layer4
100
AcDbMText
 10
-963.4304196893948
 20
69.18801286240228
 30
0.0
 40
50.0
 41
1144.726
 71
     1
 72
     5
  1
平座金 （並丸）\P　　
 73
     1
 44
1.0
  0
MTEXT
  5
1E3E
330
2
100
AcDbEntity
  8
Layer4
100
AcDbMText
 10
1145.785975763945
 20
900.4189016311601
 30
0.0
 40
30.0
 41
81.69299999999999
 71
     1
 72
     5
  1
(M18)
 73
     1
 44
1.0
  0
LINE
  5
1E3F
330
2
100
AcDbEntity
  8
Layer1
100
AcDbLine
 10
-966.9304992925514
 20
651.5857638980112
 30
0.0
 11
-966.9304992925512
 21
907.5649237304659
 31
0.0
  0
MTEXT
  5
1E47
330
2
100
AcDbEntity
  8
Layer4
100
AcDbMText
 10
-932.3552508148154
 20
902.4667194996707
 30
0.0
 40
30.0
 41
81.69299999999999
 71
     1
 72
     5
  1
M1
 73
     1
 44
1.0
  0
LINE
  5
1E4A
330
2
100
AcDbEntity
  8
Layer1
100
AcDbLine
 10
-816.9304992925514
 20
651.5857638980112
 30
0.0
 11
-816.9304992925512
 21
907.5649237304659
 31
0.0
  0
LINE
  5
1E4B
330
2
100
AcDbEntity
  8
Layer1
100
AcDbLine
 10
-666.9304992925512
 20
651.5857638980113
 30
0.0
 11
-666.9304992925512
 21
907.5649237304659
 31
0.0
  0
MTEXT
  5
1E59
330
2
100
AcDbEntity
  8
Layer4
100
AcDbMText
 10
-782.3552508148154
 20
902.4667194996707
 30
0.0
 40
30.0
 41
81.69299999999999
 71
     1
 72
     5
  1
M1.2
 73
     1
 44
1.0
  0
MTEXT
  5
1E5A
330
2
100
AcDbEntity
  8
Layer4
100
AcDbMText
 10
-632.3552508148154
 20
902.4667194996707
 30
0.0
 40
30.0
 41
81.69299999999999
 71
     1
 72
     5
  1
M1.6
 73
     1
 44
1.0
  0
CIRCLE
  5
1E5B
330
2
100
AcDbEntity
  8
Layer3
100
AcDbCircle
 10
-441.9304992925508
 20
776.3383868666606
 30
0.0
 40
1.1
  0
CIRCLE
  5
1E5D
330
2
100
AcDbEntity
  8
Layer3
100
AcDbCircle
 10
-291.9304992925508
 20
776.3383868666606
 30
0.0
 40
1.35
  0
CIRCLE
  5
1E5E
330
2
100
AcDbEntity
  8
Layer3
100
AcDbCircle
 10
-141.9304992925508
 20
776.3383868666606
 30
0.0
 40
1.6
  0
CIRCLE
  5
1E5F
330
2
100
AcDbEntity
  8
Layer3
100
AcDbCircle
 10
8.069500707449151
 20
776.3383868666606
 30
0.0
 40
2.149999999999999
  0
CIRCLE
  5
1E60
330
2
100
AcDbEntity
  8
Layer3
100
AcDbCircle
 10
158.0695007074491
 20
776.3383868666606
 30
0.0
 40
2.649999999999999
  0
CIRCLE
  5
1E61
330
2
100
AcDbEntity
  8
Layer3
100
AcDbCircle
 10
308.0695007074491
 20
776.3383868666606
 30
0.0
 40
3.2
  0
CIRCLE
  5
1E62
330
2
100
AcDbEntity
  8
Layer3
100
AcDbCircle
 10
458.0695007074491
 20
776.3383868666606
 30
0.0
 40
4.2
  0
CIRCLE
  5
1E63
330
2
100
AcDbEntity
  8
Layer3
100
AcDbCircle
 10
608.0695007074488
 20
776.3383868666606
 30
0.0
 40
5.25
  0
CIRCLE
  5
1E64
330
2
100
AcDbEntity
  8
Layer3
100
AcDbCircle
 10
758.0695007074488
 20
776.3383868666606
 30
0.0
 40
6.5
  0
CIRCLE
  5
1E65
330
2
100
AcDbEntity
  8
Layer3
100
AcDbCircle
 10
908.0695007074488
 20
776.3383868666606
 30
0.0
 40
7.5
  0
CIRCLE
  5
1E66
330
2
100
AcDbEntity
  8
Layer3
100
AcDbCircle
 10
1058.069500707448
 20
776.3383868666606
 30
0.0
 40
8.5
  0
CIRCLE
  5
1E67
330
2
100
AcDbEntity
  8
Layer3
100
AcDbCircle
 10
1208.069500707449
 20
776.3383868666606
 30
0.0
 40
9.5
  0
CIRCLE
  5
1E68
330
2
100
AcDbEntity
  8
Layer3
100
AcDbCircle
 10
1358.069500707449
 20
776.3383868666606
 30
0.0
 40
10.5
  0
CIRCLE
  5
1E69
330
2
100
AcDbEntity
  8
Layer3
100
AcDbCircle
 10
1508.069500707448
 20
776.3383868666606
 30
0.0
 40
11.5
  0
CIRCLE
  5
1E6A
330
2
100
AcDbEntity
  8
Layer3
100
AcDbCircle
 10
1658.069500707449
 20
776.3383868666606
 30
0.0
 40
12.5
  0
CIRCLE
  5
1E6B
330
2
100
AcDbEntity
  8
Layer3
100
AcDbCircle
 10
1808.069500707448
 20
776.3383868666606
 30
0.0
 40
14.0
  0
CIRCLE
  5
1E6C
330
2
100
AcDbEntity
  8
Layer3
100
AcDbCircle
 10
1958.069500707448
 20
776.3383868666606
 30
0.0
 40
15.5
  0
CIRCLE
  5
1E6D
330
2
100
AcDbEntity
  8
Layer3
100
AcDbCircle
 10
2108.069500707449
 20
776.3383868666606
 30
0.0
 40
17.0
  0
CIRCLE
  5
1E6E
330
2
100
AcDbEntity
  8
Layer3
100
AcDbCircle
 10
2258.069500707449
 20
776.3383868666606
 30
0.0
 40
18.5
  0
CIRCLE
  5
1E6F
330
2
100
AcDbEntity
  8
Layer3
100
AcDbCircle
 10
2408.069500707449
 20
776.3383868666606
 30
0.0
 40
20.0
  0
CIRCLE
  5
1E70
330
2
100
AcDbEntity
  8
Layer3
100
AcDbCircle
 10
-891.9304992925512
 20
776.3383868666606
 30
0.0
 40
0.55
  0
CIRCLE
  5
1E71
330
2
100
AcDbEntity
  8
Layer3
100
AcDbCircle
 10
-891.9304992925512
 20
776.3383868666606
 30
0.0
 40
1.25
  0
LINE
  5
1E72
330
2
100
AcDbEntity
  8
Layer3
100
AcDbLine
 10
-890.6804992925513
 20
769.7275742342508
 30
0.0
 11
-893.1804992925513
 21
769.7275742342508
 31
0.0
  0
LINE
  5
1E73
330
2
100
AcDbEntity
  8
Layer3
100
AcDbLine
 10
-890.6804992925513
 20
769.427574234251
 30
0.0
 11
-893.1804992925513
 21
769.427574234251
 31
0.0
  0
LINE
  5
1E74
330
2
100
AcDbEntity
  8
Layer3
100
AcDbLine
 10
-893.1804992925513
 20
769.7275742342508
 30
0.0
 11
-893.1804992925513
 21
769.427574234251
 31
0.0
  0
LINE
  5
1E75
330
2
100
AcDbEntity
  8
Layer3
100
AcDbLine
 10
-890.6804992925513
 20
769.7275742342508
 30
0.0
 11
-890.6804992925513
 21
769.427574234251
 31
0.0
  0
LINE
  5
1E7B
330
2
100
AcDbEntity
  8
Layer3
100
AcDbLine
 10
-740.5304992925512
 20
769.7275742342508
 30
0.0
 11
-740.5304992925512
 21
769.427574234251
 31
0.0
  0
LINE
  5
1E7C
330
2
100
AcDbEntity
  8
Layer3
100
AcDbLine
 10
-743.3304992925513
 20
769.7275742342508
 30
0.0
 11
-743.3304992925513
 21
769.427574234251
 31
0.0
  0
LINE
  5
1E7D
330
2
100
AcDbEntity
  8
Layer3
100
AcDbLine
 10
-740.5304992925512
 20
769.7275742342508
 30
0.0
 11
-743.3304992925513
 21
769.7275742342508
 31
0.0
  0
LINE
  5
1E7E
330
2
100
AcDbEntity
  8
Layer3
100
AcDbLine
 10
-740.5304992925512
 20
769.427574234251
 30
0.0
 11
-743.3304992925513
 21
769.427574234251
 31
0.0
  0
CIRCLE
  5
1E7F
330
2
100
AcDbEntity
  8
Layer3
100
AcDbCircle
 10
-741.9304992925512
 20
776.3383868666606
 30
0.0
 40
0.65
  0
CIRCLE
  5
1E80
330
2
100
AcDbEntity
  8
Layer3
100
AcDbCircle
 10
-741.9304992925512
 20
776.3383868666606
 30
0.0
 40
1.399999999999999
  0
LINE
  5
1E83
330
2
100
AcDbEntity
  8
Layer3
100
AcDbLine
 10
-593.8304992925513
 20
769.7275742342508
 30
0.0
 11
-590.0304992925511
 21
769.7275742342506
 31
0.0
  0
CIRCLE
  5
1E84
330
2
100
AcDbEntity
  8
Layer3
100
AcDbCircle
 10
-591.9304992925512
 20
776.3383868666606
 30
0.0
 40
0.85
  0
CIRCLE
  5
1E85
330
2
100
AcDbEntity
  8
Layer3
100
AcDbCircle
 10
-591.9304992925512
 20
776.3383868666606
 30
0.0
 40
1.9
  0
LINE
  5
1E86
330
2
100
AcDbEntity
  8
Layer3
100
AcDbLine
 10
-593.8304992925513
 20
769.4275742342508
 30
0.0
 11
-590.0304992925511
 21
769.4275742342508
 31
0.0
  0
LINE
  5
1E87
330
2
100
AcDbEntity
  8
Layer3
100
AcDbLine
 10
-593.8304992925513
 20
769.7275742342508
 30
0.0
 11
-593.8304992925513
 21
769.4275742342508
 31
0.0
  0
LINE
  5
1E88
330
2
100
AcDbEntity
  8
Layer3
100
AcDbLine
 10
-590.0304992925511
 20
769.7275742342506
 30
0.0
 11
-590.0304992925511
 21
769.4275742342508
 31
0.0
  0
LINE
  5
1F3B
330
2
100
AcDbEntity
  8
Layer3
100
AcDbLine
 10
-446.4304992925508
 20
272.2500452792459
 30
0.0
 11
-437.4304992925508
 21
272.2500452792459
 31
0.0
1001
ACAD
1000
ASC_BOUNDS
1002
{
1070
    19
1002
}
  0
LINE
  5
1F3C
330
2
100
AcDbEntity
  8
Layer3
100
AcDbLine
 10
-437.4304992925508
 20
271.4500452792459
 30
0.0
 11
-446.4304992925508
 21
271.4500452792459
 31
0.0
1001
ACAD
1000
ASC_BOUNDS
1002
{
1070
    19
1002
}
  0
CIRCLE
  5
1F3D
330
2
100
AcDbEntity
  8
Layer3
100
AcDbCircle
 10
-441.9304992925508
 20
279.2108579116557
 30
0.0
 40
4.5
  0
LINE
  5
1F3E
330
2
100
AcDbEntity
  8
Layer3
100
AcDbLine
 10
-738.6804992925508
 20
272.3000452792459
 30
0.0
 11
-745.1804992925509
 21
272.3000452792459
 31
0.0
  0
LINE
  5
1F3F
330
2
100
AcDbEntity
  8
Layer3
100
AcDbLine
 10
-738.6804992925508
 20
272.8000452792458
 30
0.0
 11
-745.1804992925509
 21
272.8000452792458
 31
0.0
  0
LINE
  5
1F42
330
2
100
AcDbEntity
  8
Layer3
100
AcDbLine
 10
-889.4304992925508
 20
272.3000452792459
 30
0.0
 11
-894.4304992925507
 21
272.3000452792459
 31
0.0
  0
LINE
  5
1F43
330
2
100
AcDbEntity
  8
Layer3
100
AcDbLine
 10
-889.4304992925508
 20
272.6000452792458
 30
0.0
 11
-894.4304992925507
 21
272.6000452792458
 31
0.0
  0
LINE
  5
1F44
330
2
100
AcDbEntity
  8
Layer3
100
AcDbLine
 10
-894.4304992925507
 20
272.3000452792459
 30
0.0
 11
-894.4304992925507
 21
272.6000452792458
 31
0.0
  0
LINE
  5
1F45
330
2
100
AcDbEntity
  8
Layer3
100
AcDbLine
 10
-745.1804992925509
 20
272.3000452792459
 30
0.0
 11
-745.1804992925509
 21
272.8000452792458
 31
0.0
  0
LINE
  5
1F46
330
2
100
AcDbEntity
  8
Layer3
100
AcDbLine
 10
-889.4304992925508
 20
272.3000452792459
 30
0.0
 11
-889.4304992925508
 21
272.6000452792458
 31
0.0
  0
LINE
  5
1F49
330
2
100
AcDbEntity
  8
Layer3
100
AcDbLine
 10
-738.6804992925508
 20
272.3000452792459
 30
0.0
 11
-738.6804992925508
 21
272.8000452792458
 31
0.0
  0
LINE
  5
1F4A
330
2
100
AcDbEntity
  8
Layer3
100
AcDbLine
 10
-595.4304992925508
 20
272.8000452792458
 30
0.0
 11
-595.4304992925508
 21
272.3000452792459
 31
0.0
  0
LINE
  5
1F4B
330
2
100
AcDbEntity
  8
Layer3
100
AcDbLine
 10
-588.4304992925508
 20
272.3000452792459
 30
0.0
 11
-588.4304992925508
 21
272.3000452792459
 31
0.0
  0
LINE
  5
1F4C
330
2
100
AcDbEntity
  8
Layer3
100
AcDbLine
 10
-588.4304992925508
 20
272.3000452792459
 30
0.0
 11
-588.4304992925508
 21
272.8000452792458
 31
0.0
  0
LINE
  5
1F4D
330
2
100
AcDbEntity
  8
Layer3
100
AcDbLine
 10
-595.4304992925508
 20
272.3000452792459
 30
0.0
 11
-588.4304992925508
 21
272.3000452792459
 31
0.0
  0
LINE
  5
1F4E
330
2
100
AcDbEntity
  8
Layer3
100
AcDbLine
 10
-588.4304992925508
 20
272.8000452792458
 30
0.0
 11
-595.4304992925508
 21
272.8000452792458
 31
0.0
  0
LINE
  5
1F4F
330
2
100
AcDbEntity
  8
Layer3
100
AcDbLine
 10
-446.4304992925508
 20
271.4500452792459
 30
0.0
 11
-446.4304992925508
 21
272.2500452792459
 31
0.0
1001
ACAD
1000
ASC_BOUNDS
1002
{
1070
    19
1002
}
  0
CIRCLE
  5
1F52
330
2
100
AcDbEntity
  8
Layer3
100
AcDbCircle
 10
-741.9304992925508
 20
279.2108579116557
 30
0.0
 40
3.25
  0
CIRCLE
  5
1F53
330
2
100
AcDbEntity
  8
Layer3
100
AcDbCircle
 10
-891.9304992925509
 20
279.2108579116557
 30
0.0
 40
2.500000000000055
  0
CIRCLE
  5
1F54
330
2
100
AcDbEntity
  8
Layer3
100
AcDbCircle
 10
-591.9304992925508
 20
279.2108579116557
 30
0.0
 40
3.5
  0
LINE
  5
1F55
330
2
100
AcDbEntity
  8
Layer3
100
AcDbLine
 10
296.0695007074495
 20
264.5651549035361
 30
0.0
 11
320.0695007074496
 21
264.5651549035361
 31
0.0
  0
LINE
  5
1F56
330
2
100
AcDbEntity
  8
Layer3
100
AcDbLine
 10
296.0695007074495
 20
262.0651549035361
 30
0.0
 11
320.0695007074496
 21
262.0651549035361
 31
0.0
  0
LINE
  5
1F58
330
2
100
AcDbEntity
  8
Layer3
100
AcDbLine
 10
16.5695007074496
 20
265.6021324862916
 30
0.0
 11
-0.4304992925503939
 21
265.6021324862916
 31
0.0
  0
LINE
  5
1F59
330
2
100
AcDbEntity
  8
Layer3
100
AcDbLine
 10
-0.4304992925503939
 20
267.2021324862916
 30
0.0
 11
16.5695007074496
 21
267.2021324862916
 31
0.0
  0
LINE
  5
1F5B
330
2
100
AcDbEntity
  8
Layer3
100
AcDbLine
 10
-135.6804992925508
 20
269.1500452792459
 30
0.0
 11
-148.1804992925508
 21
269.1500452792459
 31
0.0
  0
LINE
  5
1F5C
330
2
100
AcDbEntity
  8
Layer3
100
AcDbLine
 10
-148.1804992925508
 20
270.7500452792458
 30
0.0
 11
-135.6804992925508
 21
270.7500452792458
 31
0.0
  0
LINE
  5
1F5E
330
2
100
AcDbEntity
  8
Layer3
100
AcDbLine
 10
-286.9304992925504
 20
270.6500452792458
 30
0.0
 11
-296.9304992925504
 21
270.6500452792458
 31
0.0
  0
LINE
  5
1F5F
330
2
100
AcDbEntity
  8
Layer3
100
AcDbLine
 10
-296.9304992925504
 20
271.6500452792458
 30
0.0
 11
-286.9304992925504
 21
271.6500452792458
 31
0.0
  0
LINE
  5
1F60
330
2
100
AcDbEntity
  8
Layer3
100
AcDbLine
 10
-296.9304992925504
 20
270.6500452792458
 30
0.0
 11
-296.9304992925504
 21
271.6500452792458
 31
0.0
  0
LINE
  5
1F61
330
2
100
AcDbEntity
  8
Layer3
100
AcDbLine
 10
-437.4304992925508
 20
272.2500452792459
 30
0.0
 11
-437.4304992925508
 21
271.4500452792459
 31
0.0
1001
ACAD
1000
ASC_BOUNDS
1002
{
1070
    19
1002
}
  0
LINE
  5
1F62
330
2
100
AcDbEntity
  8
Layer3
100
AcDbLine
 10
-286.9304992925504
 20
271.6500452792458
 30
0.0
 11
-286.9304992925504
 21
270.6500452792458
 31
0.0
  0
LINE
  5
1F63
330
2
100
AcDbEntity
  8
Layer3
100
AcDbLine
 10
-148.1804992925508
 20
269.1500452792459
 30
0.0
 11
-148.1804992925508
 21
270.7500452792458
 31
0.0
  0
LINE
  5
1F65
330
2
100
AcDbEntity
  8
Layer3
100
AcDbLine
 10
-135.6804992925508
 20
270.7500452792458
 30
0.0
 11
-135.6804992925508
 21
269.1500452792459
 31
0.0
  0
LINE
  5
1F66
330
2
100
AcDbEntity
  8
Layer3
100
AcDbLine
 10
-0.4304992925503939
 20
265.6021324862916
 30
0.0
 11
-0.4304992925503939
 21
267.2021324862916
 31
0.0
  0
LINE
  5
1F67
330
2
100
AcDbEntity
  8
Layer3
100
AcDbLine
 10
147.5695007074491
 20
264.1021324862916
 30
0.0
 11
168.5695007074491
 21
264.1021324862916
 31
0.0
  0
LINE
  5
1F68
330
2
100
AcDbEntity
  8
Layer3
100
AcDbLine
 10
147.5695007074491
 20
266.1021324862916
 30
0.0
 11
168.5695007074491
 21
266.1021324862916
 31
0.0
  0
LINE
  5
1F6A
330
2
100
AcDbEntity
  8
Layer3
100
AcDbLine
 10
16.5695007074496
 20
267.2021324862916
 30
0.0
 11
16.5695007074496
 21
265.6021324862916
 31
0.0
  0
LINE
  5
1F6B
330
2
100
AcDbEntity
  8
Layer3
100
AcDbLine
 10
147.5695007074491
 20
264.1021324862916
 30
0.0
 11
147.5695007074491
 21
266.1021324862916
 31
0.0
  0
LINE
  5
1F6C
330
2
100
AcDbEntity
  8
Layer3
100
AcDbLine
 10
168.5695007074491
 20
266.1021324862916
 30
0.0
 11
168.5695007074491
 21
264.1021324862916
 31
0.0
  0
LINE
  5
1F6D
330
2
100
AcDbEntity
  8
Layer3
100
AcDbLine
 10
296.0695007074495
 20
262.0651549035361
 30
0.0
 11
296.0695007074495
 21
264.5651549035361
 31
0.0
  0
LINE
  5
1F6E
330
2
100
AcDbEntity
  8
Layer3
100
AcDbLine
 10
320.0695007074496
 20
264.5651549035361
 30
0.0
 11
320.0695007074496
 21
262.0651549035361
 31
0.0
  0
LINE
  5
1F70
330
2
100
AcDbEntity
  8
Layer3
100
AcDbLine
 10
444.0695007074496
 20
258.7461161412998
 30
0.0
 11
472.0695007074495
 21
258.7461161412998
 31
0.0
  0
LINE
  5
1F71
330
2
100
AcDbEntity
  8
Layer3
100
AcDbLine
 10
444.0695007074496
 20
261.2461161412998
 30
0.0
 11
472.0695007074495
 21
261.2461161412998
 31
0.0
  0
LINE
  5
1F72
330
2
100
AcDbEntity
  8
Layer3
100
AcDbLine
 10
444.0695007074496
 20
258.7461161412998
 30
0.0
 11
444.0695007074496
 21
261.2461161412998
 31
0.0
  0
LINE
  5
1F73
330
2
100
AcDbEntity
  8
Layer3
100
AcDbLine
 10
472.0695007074495
 20
261.2461161412998
 30
0.0
 11
472.0695007074495
 21
258.7461161412998
 31
0.0
  0
LINE
  5
1F74
330
2
100
AcDbEntity
  8
Layer3
100
AcDbLine
 10
593.0695007074491
 20
256.9961250853769
 30
0.0
 11
623.0695007074491
 21
256.9961250853769
 31
0.0
  0
LINE
  5
1F75
330
2
100
AcDbEntity
  8
Layer3
100
AcDbLine
 10
593.0695007074491
 20
259.996125085377
 30
0.0
 11
623.0695007074491
 21
259.9961250853769
 31
0.0
  0
LINE
  5
1F77
330
2
100
AcDbEntity
  8
Layer3
100
AcDbLine
 10
593.0695007074491
 20
256.9961250853769
 30
0.0
 11
593.0695007074491
 21
259.996125085377
 31
0.0
  0
LINE
  5
1F78
330
2
100
AcDbEntity
  8
Layer3
100
AcDbLine
 10
623.0695007074491
 20
259.9961250853769
 30
0.0
 11
623.0695007074491
 21
256.9961250853769
 31
0.0
  0
CIRCLE
  5
1F79
330
2
100
AcDbEntity
  8
Layer3
100
AcDbCircle
 10
308.0695007074496
 20
279.2108579116557
 30
0.0
 40
12.0
  0
CIRCLE
  5
1F7A
330
2
100
AcDbEntity
  8
Layer3
100
AcDbCircle
 10
8.069500707449606
 20
279.2108579116557
 30
0.0
 40
8.5
  0
CIRCLE
  5
1F7B
330
2
100
AcDbEntity
  8
Layer3
100
AcDbCircle
 10
-141.9304992925508
 20
279.2108579116557
 30
0.0
 40
6.25
  0
CIRCLE
  5
1F7C
330
2
100
AcDbEntity
  8
Layer3
100
AcDbCircle
 10
-291.9304992925503
 20
279.2108579116557
 30
0.0
 40
5.0
  0
CIRCLE
  5
1F7D
330
2
100
AcDbEntity
  8
Layer3
100
AcDbCircle
 10
158.0695007074491
 20
279.2108579116557
 30
0.0
 40
10.5
  0
CIRCLE
  5
1F7E
330
2
100
AcDbEntity
  8
Layer3
100
AcDbCircle
 10
608.0695007074491
 20
279.2108579116557
 30
0.0
 40
15.0
  0
CIRCLE
  5
1F7F
330
2
100
AcDbEntity
  8
Layer3
100
AcDbCircle
 10
458.0695007074496
 20
279.2108579116557
 30
0.0
 40
14.0
  0
CIRCLE
  5
1F80
330
2
100
AcDbEntity
  8
Layer3
100
AcDbCircle
 10
1958.069500707449
 20
279.2108579116557
 30
0.0
 40
36.0
  0
CIRCLE
  5
1F81
330
2
100
AcDbEntity
  8
Layer3
100
AcDbCircle
 10
1808.069500707449
 20
279.2108579116556
 30
0.0
 40
33.0
  0
CIRCLE
  5
1F82
330
2
100
AcDbEntity
  8
Layer3
100
AcDbCircle
 10
1658.069500707449
 20
279.2108579116556
 30
0.0
 40
30.0
  0
CIRCLE
  5
1F83
330
2
100
AcDbEntity
  8
Layer3
100
AcDbCircle
 10
1508.069500707449
 20
279.2108579116556
 30
0.0
 40
28.0
  0
LINE
  5
1F88
330
2
100
AcDbEntity
  8
Layer3
100
AcDbLine
 10
1186.069500707449
 20
248.0405309870111
 30
0.0
 11
1186.069500707449
 21
252.0405309870111
 31
0.0
  0
LINE
  5
1F89
330
2
100
AcDbEntity
  8
Layer3
100
AcDbLine
 10
1230.069500707449
 20
252.0405309870111
 30
0.0
 11
1230.069500707449
 21
248.0405309870111
 31
0.0
  0
LINE
  5
1F8A
330
2
100
AcDbEntity
  8
Layer3
100
AcDbLine
 10
1038.569500707449
 20
254.5214913773738
 30
0.0
 11
1077.569500707449
 21
254.5214913773738
 31
0.0
  0
LINE
  5
1F8B
330
2
100
AcDbEntity
  8
Layer3
100
AcDbLine
 10
1038.569500707449
 20
251.5214913773738
 30
0.0
 11
1077.569500707449
 21
251.5214913773737
 31
0.0
  0
LINE
  5
1F8C
330
2
100
AcDbEntity
  8
Layer3
100
AcDbLine
 10
741.0695007074491
 20
255.1546299454997
 30
0.0
 11
775.0695007074491
 21
255.1546299454997
 31
0.0
  0
LINE
  5
1F8D
330
2
100
AcDbEntity
  8
Layer3
100
AcDbLine
 10
741.0695007074491
 20
252.1546299454997
 30
0.0
 11
775.0695007074491
 21
252.1546299454997
 31
0.0
  0
LINE
  5
1F8F
330
2
100
AcDbEntity
  8
Layer3
100
AcDbLine
 10
741.0695007074491
 20
255.1546299454997
 30
0.0
 11
741.0695007074491
 21
252.1546299454997
 31
0.0
  0
LINE
  5
1F90
330
2
100
AcDbEntity
  8
Layer3
100
AcDbLine
 10
775.0695007074491
 20
255.1546299454997
 30
0.0
 11
775.0695007074491
 21
252.1546299454997
 31
0.0
  0
LINE
  5
1F92
330
2
100
AcDbEntity
  8
Layer3
100
AcDbLine
 10
889.5695007074492
 20
255.1482041689896
 30
0.0
 11
926.5695007074491
 21
255.1482041689896
 31
0.0
  0
LINE
  5
1F93
330
2
100
AcDbEntity
  8
Layer3
100
AcDbLine
 10
889.5695007074492
 20
252.1482041689896
 30
0.0
 11
926.5695007074491
 21
252.1482041689896
 31
0.0
  0
LINE
  5
1F94
330
2
100
AcDbEntity
  8
Layer3
100
AcDbLine
 10
889.5695007074492
 20
252.1482041689896
 30
0.0
 11
889.5695007074492
 21
255.1482041689896
 31
0.0
  0
LINE
  5
1F95
330
2
100
AcDbEntity
  8
Layer3
100
AcDbLine
 10
926.5695007074491
 20
255.1482041689896
 30
0.0
 11
926.5695007074491
 21
252.1482041689896
 31
0.0
  0
LINE
  5
1F96
330
2
100
AcDbEntity
  8
Layer3
100
AcDbLine
 10
1038.569500707449
 20
251.5214913773738
 30
0.0
 11
1038.569500707449
 21
254.5214913773738
 31
0.0
  0
LINE
  5
1F97
330
2
100
AcDbEntity
  8
Layer3
100
AcDbLine
 10
1186.069500707449
 20
248.0405309870111
 30
0.0
 11
1230.069500707449
 21
248.0405309870111
 31
0.0
  0
LINE
  5
1F9A
330
2
100
AcDbEntity
  8
Layer3
100
AcDbLine
 10
1077.569500707449
 20
254.5214913773737
 30
0.0
 11
1077.569500707449
 21
251.5214913773737
 31
0.0
  0
CIRCLE
  5
1F9C
330
2
100
AcDbEntity
  8
Layer3
100
AcDbCircle
 10
1058.069500707449
 20
279.2108579116557
 30
0.0
 40
19.5
  0
CIRCLE
  5
1F9D
330
2
100
AcDbEntity
  8
Layer3
100
AcDbCircle
 10
758.0695007074491
 20
279.2108579116557
 30
0.0
 40
17.0
  0
CIRCLE
  5
1F9E
330
2
100
AcDbEntity
  8
Layer3
100
AcDbCircle
 10
908.0695007074492
 20
279.2108579116557
 30
0.0
 40
18.5
  0
CIRCLE
  5
1F9F
330
2
100
AcDbEntity
  8
Layer3
100
AcDbCircle
 10
1208.069500707449
 20
279.2108579116557
 30
0.0
 40
22.0
  0
LINE
  5
1FA0
330
2
100
AcDbEntity
  8
Layer3
100
AcDbLine
 10
1186.069500707449
 20
252.0405309870111
 30
0.0
 11
1230.069500707449
 21
252.0405309870111
 31
0.0
  0
LINE
  5
1FA1
330
2
100
AcDbEntity
  8
Layer3
100
AcDbLine
 10
1994.069500707449
 20
236.5221677676045
 30
0.0
 11
1994.069500707449
 21
230.5221677676045
 31
0.0
  0
LINE
  5
1FA2
330
2
100
AcDbEntity
  8
Layer3
100
AcDbLine
 10
1922.069500707449
 20
236.5221677676045
 30
0.0
 11
1922.069500707449
 21
230.5221677676045
 31
0.0
  0
LINE
  5
1FA3
330
2
100
AcDbEntity
  8
Layer3
100
AcDbLine
 10
1841.069500707449
 20
242.1779083284464
 30
0.0
 11
1841.069500707449
 21
237.1779083284463
 31
0.0
  0
LINE
  5
1FA4
330
2
100
AcDbEntity
  8
Layer3
100
AcDbLine
 10
1775.069500707448
 20
242.1779083284465
 30
0.0
 11
1775.069500707448
 21
237.1779083284465
 31
0.0
  0
LINE
  5
1FA5
330
2
100
AcDbEntity
  8
Layer3
100
AcDbLine
 10
1688.069500707448
 20
242.1779083284464
 30
0.0
 11
1688.069500707448
 21
237.1779083284463
 31
0.0
  0
LINE
  5
1FA6
330
2
100
AcDbEntity
  8
Layer3
100
AcDbLine
 10
1628.069500707449
 20
242.1779083284464
 30
0.0
 11
1628.069500707449
 21
237.1779083284465
 31
0.0
  0
LINE
  5
1FA7
330
2
100
AcDbEntity
  8
Layer3
100
AcDbLine
 10
1536.069500707449
 20
247.2495677431307
 30
0.0
 11
1536.069500707449
 21
243.2495677431308
 31
0.0
  0
LINE
  5
1FA8
330
2
100
AcDbEntity
  8
Layer3
100
AcDbLine
 10
1480.069500707449
 20
247.2495677431308
 30
0.0
 11
1480.069500707449
 21
243.2495677431308
 31
0.0
  0
LINE
  5
1FAA
330
2
100
AcDbEntity
  8
Layer3
100
AcDbLine
 10
1480.069500707449
 20
243.2495677431308
 30
0.0
 11
1536.069500707449
 21
243.2495677431308
 31
0.0
  0
LINE
  5
1FAD
330
2
100
AcDbEntity
  8
Layer3
100
AcDbLine
 10
1628.069500707449
 20
237.1779083284464
 30
0.0
 11
1688.069500707449
 21
237.1779083284463
 31
0.0
  0
LINE
  5
1FAF
330
2
100
AcDbEntity
  8
Layer3
100
AcDbLine
 10
1775.069500707449
 20
237.1779083284464
 30
0.0
 11
1841.069500707449
 21
237.1779083284463
 31
0.0
  0
LINE
  5
1FB1
330
2
100
AcDbEntity
  8
Layer3
100
AcDbLine
 10
1922.069500707449
 20
230.5221677676045
 30
0.0
 11
1994.069500707449
 21
230.5221677676045
 31
0.0
  0
LINE
  5
1FB2
330
2
100
AcDbEntity
  8
Layer3
100
AcDbLine
 10
1480.069500707449
 20
247.2495677431308
 30
0.0
 11
1536.069500707449
 21
247.2495677431307
 31
0.0
  0
LINE
  5
1FB3
330
2
100
AcDbEntity
  8
Layer3
100
AcDbLine
 10
1628.069500707449
 20
242.1779083284464
 30
0.0
 11
1688.069500707449
 21
242.1779083284464
 31
0.0
  0
LINE
  5
1FB4
330
2
100
AcDbEntity
  8
Layer3
100
AcDbLine
 10
1775.069500707449
 20
242.1779083284465
 30
0.0
 11
1841.069500707449
 21
242.1779083284464
 31
0.0
  0
LINE
  5
1FB5
330
2
100
AcDbEntity
  8
Layer3
100
AcDbLine
 10
1922.069500707449
 20
236.5221677676045
 30
0.0
 11
1994.069500707449
 21
236.5221677676045
 31
0.0
  0
CIRCLE
  5
1FB6
330
2
100
AcDbEntity
  8
Layer3
100
AcDbCircle
 10
2858.069500707449
 20
279.2108579116557
 30
0.0
 40
55.0
  0
LINE
  5
1FB7
330
2
100
AcDbEntity
  8
Layer3
100
AcDbLine
 10
2803.069500707449
 20
211.6745511317498
 30
0.0
 11
2913.069500707449
 21
211.6745511317498
 31
0.0
  0
LINE
  5
1FB8
330
2
100
AcDbEntity
  8
Layer3
100
AcDbLine
 10
2803.069500707449
 20
202.6745511317498
 30
0.0
 11
2913.069500707449
 21
202.6745511317498
 31
0.0
  0
CIRCLE
  5
1FB9
330
2
100
AcDbEntity
  8
Layer3
100
AcDbCircle
 10
2708.069500707449
 20
279.2108579116557
 30
0.0
 40
52.5
  0
CIRCLE
  5
1FBA
330
2
100
AcDbEntity
  8
Layer3
100
AcDbCircle
 10
2559.684249217031
 20
279.2108579116557
 30
0.0
 40
49.0
  0
CIRCLE
  5
1FBB
330
2
100
AcDbEntity
  8
Layer3
100
AcDbCircle
 10
2408.069500707449
 20
279.2108579116557
 30
0.0
 40
46.0
  0
CIRCLE
  5
1FBC
330
2
100
AcDbEntity
  8
Layer3
100
AcDbCircle
 10
2258.069500707449
 20
279.2108579116557
 30
0.0
 40
42.5
  0
CIRCLE
  5
1FBD
330
2
100
AcDbEntity
  8
Layer3
100
AcDbCircle
 10
2108.069500707448
 20
279.2108579116557
 30
0.0
 40
39.0
  0
LINE
  5
1FBE
330
2
100
AcDbEntity
  8
Layer3
100
AcDbLine
 10
2454.069500707449
 20
223.4801947577724
 30
0.0
 11
2454.069500707449
 21
215.4801947577724
 31
0.0
  0
LINE
  5
1FBF
330
2
100
AcDbEntity
  8
Layer3
100
AcDbLine
 10
2362.06950070745
 20
223.4801947577724
 30
0.0
 11
2362.069500707449
 21
215.4801947577724
 31
0.0
  0
LINE
  5
1FC0
330
2
100
AcDbEntity
  8
Layer3
100
AcDbLine
 10
2215.569500707448
 20
222.4801947577724
 30
0.0
 11
2215.569500707448
 21
215.4801947577724
 31
0.0
  0
LINE
  5
1FC1
330
2
100
AcDbEntity
  8
Layer3
100
AcDbLine
 10
2147.069500707448
 20
229.8680663966657
 30
0.0
 11
2147.069500707448
 21
222.8680663966657
 31
0.0
  0
LINE
  5
1FC2
330
2
100
AcDbEntity
  8
Layer3
100
AcDbLine
 10
2069.069500707449
 20
229.8680663966658
 30
0.0
 11
2069.069500707449
 21
222.8680663966657
 31
0.0
  0
LINE
  5
1FC3
330
2
100
AcDbEntity
  8
Layer3
100
AcDbLine
 10
2300.569500707448
 20
222.4801947577724
 30
0.0
 11
2300.569500707449
 21
215.4801947577724
 31
0.0
  0
LINE
  5
1FC5
330
2
100
AcDbEntity
  8
Layer3
100
AcDbLine
 10
2215.569500707449
 20
215.4801947577724
 30
0.0
 11
2300.569500707449
 21
215.4801947577724
 31
0.0
  0
LINE
  5
1FC6
330
2
100
AcDbEntity
  8
Layer3
100
AcDbLine
 10
2069.069500707449
 20
222.8680663966657
 30
0.0
 11
2147.069500707448
 21
222.8680663966657
 31
0.0
  0
LINE
  5
1FC8
330
2
100
AcDbEntity
  8
Layer3
100
AcDbLine
 10
2362.06950070745
 20
215.4801947577724
 30
0.0
 11
2454.069500707449
 21
215.4801947577724
 31
0.0
  0
LINE
  5
1FCA
330
2
100
AcDbEntity
  8
Layer3
100
AcDbLine
 10
2215.569500707448
 20
222.4801947577724
 30
0.0
 11
2300.569500707449
 21
222.4801947577724
 31
0.0
  0
LINE
  5
1FCB
330
2
100
AcDbEntity
  8
Layer3
100
AcDbLine
 10
2069.069500707449
 20
229.8680663966658
 30
0.0
 11
2147.069500707448
 21
229.8680663966657
 31
0.0
  0
LINE
  5
1FCC
330
2
100
AcDbEntity
  8
Layer3
100
AcDbLine
 10
2362.069500707449
 20
223.4801947577725
 30
0.0
 11
2454.069500707449
 21
223.4801947577724
 31
0.0
  0
LINE
  5
1FCD
330
2
100
AcDbEntity
  8
Layer3
100
AcDbLine
 10
2803.069500707449
 20
211.6745511317498
 30
0.0
 11
2803.069500707449
 21
202.6745511317498
 31
0.0
  0
LINE
  5
1FCE
330
2
100
AcDbEntity
  8
Layer3
100
AcDbLine
 10
2760.569500707449
 20
215.6147486084142
 30
0.0
 11
2760.569500707449
 21
206.6147486084141
 31
0.0
  0
LINE
  5
1FCF
330
2
100
AcDbEntity
  8
Layer3
100
AcDbLine
 10
2655.569500707449
 20
215.6147486084142
 30
0.0
 11
2655.569500707449
 21
206.6147486084142
 31
0.0
  0
LINE
  5
1FD0
330
2
100
AcDbEntity
  8
Layer3
100
AcDbLine
 10
2608.684249217031
 20
223.4801947577724
 30
0.0
 11
2608.684249217031
 21
215.4801947577724
 31
0.0
  0
LINE
  5
1FD1
330
2
100
AcDbEntity
  8
Layer3
100
AcDbLine
 10
2510.684249217031
 20
223.4801947577724
 30
0.0
 11
2510.684249217031
 21
215.4801947577725
 31
0.0
  0
LINE
  5
1FD2
330
2
100
AcDbEntity
  8
Layer3
100
AcDbLine
 10
2655.569500707449
 20
206.6147486084142
 30
0.0
 11
2760.569500707449
 21
206.6147486084141
 31
0.0
  0
LINE
  5
1FD3
330
2
100
AcDbEntity
  8
Layer3
100
AcDbLine
 10
2510.684249217031
 20
215.4801947577724
 30
0.0
 11
2608.684249217031
 21
215.4801947577724
 31
0.0
  0
LINE
  5
1FD6
330
2
100
AcDbEntity
  8
Layer3
100
AcDbLine
 10
2655.569500707449
 20
215.6147486084142
 30
0.0
 11
2760.569500707449
 21
215.6147486084142
 31
0.0
  0
LINE
  5
1FD7
330
2
100
AcDbEntity
  8
Layer3
100
AcDbLine
 10
2510.684249217031
 20
223.4801947577724
 30
0.0
 11
2608.684249217031
 21
223.4801947577724
 31
0.0
  0
CIRCLE
  5
1FD8
330
2
100
AcDbEntity
  8
Layer3
100
AcDbCircle
 10
3158.069500707449
 20
279.2108579116557
 30
0.0
 40
60.0
  0
CIRCLE
  5
1FD9
330
2
100
AcDbEntity
  8
Layer3
100
AcDbCircle
 10
3008.069500707449
 20
279.2108579116557
 30
0.0
 40
57.5
  0
LINE
  5
1FDA
330
2
100
AcDbEntity
  8
Layer3
100
AcDbLine
 10
3098.069500707449
 20
199.8689078031256
 30
0.0
 11
3218.06950070745
 21
199.8689078031256
 31
0.0
  0
LINE
  5
1FDB
330
2
100
AcDbEntity
  8
Layer3
100
AcDbLine
 10
3098.069500707449
 20
189.8689078031256
 30
0.0
 11
3218.06950070745
 21
189.8689078031255
 31
0.0
  0
LINE
  5
1FDC
330
2
100
AcDbEntity
  8
Layer3
100
AcDbLine
 10
3098.069500707449
 20
199.8689078031256
 30
0.0
 11
3098.069500707449
 21
189.8689078031256
 31
0.0
  0
LINE
  5
1FDD
330
2
100
AcDbEntity
  8
Layer3
100
AcDbLine
 10
3065.569500707448
 20
211.6745511317498
 30
0.0
 11
3065.569500707448
 21
202.6745511317498
 31
0.0
  0
LINE
  5
1FDE
330
2
100
AcDbEntity
  8
Layer3
100
AcDbLine
 10
2950.569500707448
 20
211.6745511317498
 30
0.0
 11
2950.569500707448
 21
202.6745511317498
 31
0.0
  0
LINE
  5
1FDF
330
2
100
AcDbEntity
  8
Layer3
100
AcDbLine
 10
2913.069500707449
 20
211.6745511317498
 30
0.0
 11
2913.069500707449
 21
202.6745511317498
 31
0.0
  0
LINE
  5
1FE1
330
2
100
AcDbEntity
  8
Layer3
100
AcDbLine
 10
2950.569500707448
 20
202.6745511317498
 30
0.0
 11
3065.569500707448
 21
202.6745511317498
 31
0.0
  0
LINE
  5
1FE3
330
2
100
AcDbEntity
  8
Layer3
100
AcDbLine
 10
2950.569500707448
 20
211.6745511317498
 30
0.0
 11
3065.569500707448
 21
211.6745511317498
 31
0.0
  0
LINE
  5
1FE4
330
2
100
AcDbEntity
  8
Layer3
100
AcDbLine
 10
3218.06950070745
 20
199.8689078031256
 30
0.0
 11
3218.069500707449
 21
189.8689078031255
 31
0.0
  0
CIRCLE
  5
2076
330
2
100
AcDbEntity
  8
Layer3
100
AcDbCircle
 10
1358.069500707449
 20
-221.4433193887437
 30
0.0
 40
39.0
  0
LINE
  5
2077
330
2
100
AcDbEntity
  8
Layer3
100
AcDbLine
 10
1319.069500707449
 20
-270.7861109037336
 30
0.0
 11
1397.069500707449
 21
-270.7861109037336
 31
0.0
  0
LINE
  5
2078
330
2
100
AcDbEntity
  8
Layer3
100
AcDbLine
 10
1319.069500707449
 20
-277.7861109037337
 30
0.0
 11
1397.069500707449
 21
-277.7861109037337
 31
0.0
  0
LINE
  5
2079
330
2
100
AcDbEntity
  8
Layer3
100
AcDbLine
 10
139.5695007074489
 20
-245.3059731314097
 30
0.0
 11
176.5695007074489
 21
-245.3059731314097
 31
0.0
  0
LINE
  5
207A
330
2
100
AcDbEntity
  8
Layer3
100
AcDbLine
 10
139.5695007074489
 20
-248.5059731314098
 30
0.0
 11
176.5695007074489
 21
-248.5059731314098
 31
0.0
  0
CIRCLE
  5
207B
330
2
100
AcDbEntity
  8
Layer3
100
AcDbCircle
 10
158.0695007074489
 20
-221.4433193887437
 30
0.0
 40
18.5
  0
LINE
  5
207D
330
2
100
AcDbEntity
  8
Layer3
100
AcDbLine
 10
-885.6804992925512
 20
-231.5041320211535
 30
0.0
 11
-898.1804992925512
 21
-231.5041320211535
 31
0.0
  0
LINE
  5
207E
330
2
100
AcDbEntity
  8
Layer3
100
AcDbLine
 10
-898.1804992925512
 20
-229.9041320211535
 30
0.0
 11
-885.6804992925512
 21
-229.9041320211535
 31
0.0
  0
LINE
  5
207F
330
2
100
AcDbEntity
  8
Layer3
100
AcDbLine
 10
-898.1804992925512
 20
-231.5041320211535
 30
0.0
 11
-898.1804992925512
 21
-229.9041320211535
 31
0.0
  0
LINE
  5
2080
330
2
100
AcDbEntity
  8
Layer3
100
AcDbLine
 10
-885.6804992925512
 20
-229.9041320211535
 30
0.0
 11
-885.6804992925512
 21
-231.5041320211535
 31
0.0
  0
LINE
  5
2082
330
2
100
AcDbEntity
  8
Layer3
100
AcDbLine
 10
-733.4304992925507
 20
-235.0520448141075
 30
0.0
 11
-750.4304992925507
 21
-235.0520448141075
 31
0.0
  0
LINE
  5
2083
330
2
100
AcDbEntity
  8
Layer3
100
AcDbLine
 10
-750.4304992925507
 20
-233.4520448141075
 30
0.0
 11
-733.4304992925507
 21
-233.4520448141075
 31
0.0
  0
LINE
  5
2084
330
2
100
AcDbEntity
  8
Layer3
100
AcDbLine
 10
-750.4304992925507
 20
-235.0520448141075
 30
0.0
 11
-750.4304992925507
 21
-233.4520448141075
 31
0.0
  0
LINE
  5
2085
330
2
100
AcDbEntity
  8
Layer3
100
AcDbLine
 10
-733.4304992925507
 20
-233.4520448141075
 30
0.0
 11
-733.4304992925507
 21
-235.0520448141075
 31
0.0
  0
CIRCLE
  5
2088
330
2
100
AcDbEntity
  8
Layer3
100
AcDbCircle
 10
-741.9304992925507
 20
-221.4433193887434
 30
0.0
 40
8.5
  0
CIRCLE
  5
2089
330
2
100
AcDbEntity
  8
Layer3
100
AcDbCircle
 10
-891.9304992925512
 20
-221.4433193887437
 30
0.0
 40
6.25
  0
LINE
  5
208A
330
2
100
AcDbEntity
  8
Layer3
100
AcDbLine
 10
-8.930499292550962
 20
-245.2995473548996
 30
0.0
 11
-8.930499292550962
 21
-248.4995473548996
 31
0.0
  0
LINE
  5
208B
330
2
100
AcDbEntity
  8
Layer3
100
AcDbLine
 10
25.06950070744903
 20
-245.2995473548996
 30
0.0
 11
25.06950070744903
 21
-248.4995473548996
 31
0.0
  0
LINE
  5
208C
330
2
100
AcDbEntity
  8
Layer3
100
AcDbLine
 10
-156.9304992925509
 20
-243.6580522150221
 30
0.0
 11
-156.9304992925509
 21
-240.458052215022
 31
0.0
  0
LINE
  5
208D
330
2
100
AcDbEntity
  8
Layer3
100
AcDbLine
 10
-126.9304992925509
 20
-240.458052215022
 30
0.0
 11
-126.9304992925509
 21
-243.6580522150221
 31
0.0
  0
LINE
  5
208E
330
2
100
AcDbEntity
  8
Layer3
100
AcDbLine
 10
-305.9304992925504
 20
-241.9080611590993
 30
0.0
 11
-305.9304992925504
 21
-238.7080611590992
 31
0.0
  0
LINE
  5
208F
330
2
100
AcDbEntity
  8
Layer3
100
AcDbLine
 10
-277.9304992925505
 20
-238.7080611590992
 30
0.0
 11
-277.9304992925505
 21
-241.9080611590993
 31
0.0
  0
LINE
  5
2090
330
2
100
AcDbEntity
  8
Layer3
100
AcDbLine
 10
139.5695007074489
 20
-248.5059731314098
 30
0.0
 11
139.5695007074489
 21
-245.3059731314097
 31
0.0
  0
LINE
  5
2092
330
2
100
AcDbEntity
  8
Layer3
100
AcDbLine
 10
-602.4304992925509
 20
-236.5520448141075
 30
0.0
 11
-581.4304992925509
 21
-236.5520448141075
 31
0.0
  0
LINE
  5
2093
330
2
100
AcDbEntity
  8
Layer3
100
AcDbLine
 10
-602.4304992925509
 20
-234.5520448141075
 30
0.0
 11
-581.4304992925509
 21
-234.5520448141075
 31
0.0
  0
LINE
  5
2094
330
2
100
AcDbEntity
  8
Layer3
100
AcDbLine
 10
-602.4304992925509
 20
-236.5520448141075
 30
0.0
 11
-602.4304992925509
 21
-234.5520448141075
 31
0.0
  0
LINE
  5
2095
330
2
100
AcDbEntity
  8
Layer3
100
AcDbLine
 10
-581.4304992925509
 20
-234.5520448141075
 30
0.0
 11
-581.4304992925509
 21
-236.5520448141075
 31
0.0
  0
LINE
  5
2097
330
2
100
AcDbEntity
  8
Layer3
100
AcDbLine
 10
-453.9304992925504
 20
-236.2890223968631
 30
0.0
 11
-429.9304992925505
 21
-236.2890223968631
 31
0.0
  0
LINE
  5
2098
330
2
100
AcDbEntity
  8
Layer3
100
AcDbLine
 10
-453.9304992925504
 20
-238.589022396863
 30
0.0
 11
-429.9304992925505
 21
-238.589022396863
 31
0.0
  0
LINE
  5
2099
330
2
100
AcDbEntity
  8
Layer3
100
AcDbLine
 10
-453.9304992925504
 20
-238.589022396863
 30
0.0
 11
-453.9304992925504
 21
-236.2890223968631
 31
0.0
  0
LINE
  5
209A
330
2
100
AcDbEntity
  8
Layer3
100
AcDbLine
 10
-429.9304992925505
 20
-236.2890223968631
 30
0.0
 11
-429.9304992925505
 21
-238.589022396863
 31
0.0
  0
LINE
  5
209B
330
2
100
AcDbEntity
  8
Layer3
100
AcDbLine
 10
-305.9304992925504
 20
-241.9080611590993
 30
0.0
 11
-277.9304992925505
 21
-241.9080611590993
 31
0.0
  0
LINE
  5
209D
330
2
100
AcDbEntity
  8
Layer3
100
AcDbLine
 10
-156.9304992925509
 20
-243.6580522150221
 30
0.0
 11
-126.9304992925509
 21
-243.6580522150221
 31
0.0
  0
LINE
  5
20A0
330
2
100
AcDbEntity
  8
Layer3
100
AcDbLine
 10
-8.930499292550962
 20
-248.4995473548996
 30
0.0
 11
25.06950070744903
 21
-248.4995473548996
 31
0.0
  0
CIRCLE
  5
20A1
330
2
100
AcDbEntity
  8
Layer3
100
AcDbCircle
 10
-291.9304992925505
 20
-221.4433193887434
 30
0.0
 40
14.0
  0
CIRCLE
  5
20A2
330
2
100
AcDbEntity
  8
Layer3
100
AcDbCircle
 10
-441.9304992925504
 20
-221.4433193887434
 30
0.0
 40
12.0
  0
CIRCLE
  5
20A3
330
2
100
AcDbEntity
  8
Layer3
100
AcDbCircle
 10
-591.930499292551
 20
-221.4433193887434
 30
0.0
 40
10.5
  0
LINE
  5
20A4
330
2
100
AcDbEntity
  8
Layer3
100
AcDbLine
 10
-305.9304992925504
 20
-238.7080611590992
 30
0.0
 11
-277.9304992925505
 21
-238.7080611590992
 31
0.0
  0
CIRCLE
  5
20A5
330
2
100
AcDbEntity
  8
Layer3
100
AcDbCircle
 10
8.069500707449037
 20
-221.4433193887437
 30
0.0
 40
17.0
  0
CIRCLE
  5
20A6
330
2
100
AcDbEntity
  8
Layer3
100
AcDbCircle
 10
-141.9304992925509
 20
-221.4433193887434
 30
0.0
 40
15.0
  0
LINE
  5
20A7
330
2
100
AcDbEntity
  8
Layer3
100
AcDbLine
 10
-156.9304992925509
 20
-240.458052215022
 30
0.0
 11
-126.9304992925509
 21
-240.458052215022
 31
0.0
  0
LINE
  5
20A8
330
2
100
AcDbEntity
  8
Layer3
100
AcDbLine
 10
-8.930499292550962
 20
-245.2995473548996
 30
0.0
 11
25.06950070744903
 21
-245.2995473548996
 31
0.0
  0
CIRCLE
  5
20A9
330
2
100
AcDbEntity
  8
Layer3
100
AcDbCircle
 10
1208.069500707448
 20
-221.4433193887437
 30
0.0
 40
36.0
  0
CIRCLE
  5
20AA
330
2
100
AcDbEntity
  8
Layer3
100
AcDbCircle
 10
1058.069500707448
 20
-221.4433193887437
 30
0.0
 40
33.0
  0
CIRCLE
  5
20AB
330
2
100
AcDbEntity
  8
Layer3
100
AcDbCircle
 10
908.0695007074488
 20
-221.4433193887437
 30
0.0
 40
30.0
  0
CIRCLE
  5
20AC
330
2
100
AcDbEntity
  8
Layer3
100
AcDbCircle
 10
758.0695007074491
 20
-221.4433193887437
 30
0.0
 40
28.0
  0
CIRCLE
  5
20AD
330
2
100
AcDbEntity
  8
Layer3
100
AcDbCircle
 10
608.0695007074488
 20
-221.4433193887437
 30
0.0
 40
25.0
  0
LINE
  5
20AE
330
2
100
AcDbEntity
  8
Layer3
100
AcDbLine
 10
730.0695007074491
 20
-252.9046095572685
 30
0.0
 11
786.0695007074491
 21
-252.9046095572685
 31
0.0
  0
LINE
  5
20AF
330
2
100
AcDbEntity
  8
Layer3
100
AcDbLine
 10
730.0695007074491
 20
-257.4046095572685
 30
0.0
 11
786.0695007074491
 21
-257.4046095572685
 31
0.0
  0
LINE
  5
20B0
330
2
100
AcDbEntity
  8
Layer3
100
AcDbLine
 10
730.0695007074491
 20
-252.9046095572685
 30
0.0
 11
730.0695007074491
 21
-257.4046095572685
 31
0.0
  0
LINE
  5
20B1
330
2
100
AcDbEntity
  8
Layer3
100
AcDbLine
 10
633.0695007074488
 20
-251.1079979982765
 30
0.0
 11
633.0695007074488
 21
-255.6079979982765
 31
0.0
  0
LINE
  5
20B2
330
2
100
AcDbEntity
  8
Layer3
100
AcDbLine
 10
583.0695007074488
 20
-251.1079979982765
 30
0.0
 11
583.0695007074488
 21
-255.6079979982765
 31
0.0
  0
LINE
  5
20B3
330
2
100
AcDbEntity
  8
Layer3
100
AcDbLine
 10
327.5695007074493
 20
-245.9326859230256
 30
0.0
 11
327.5695007074493
 21
-249.1326859230257
 31
0.0
  0
LINE
  5
20B4
330
2
100
AcDbEntity
  8
Layer3
100
AcDbLine
 10
288.5695007074494
 20
-249.1326859230257
 30
0.0
 11
288.5695007074494
 21
-245.9326859230256
 31
0.0
  0
LINE
  5
20B5
330
2
100
AcDbEntity
  8
Layer3
100
AcDbLine
 10
436.0695007074493
 20
-252.6136463133882
 30
0.0
 11
436.0695007074493
 21
-248.1136463133883
 31
0.0
  0
LINE
  5
20B6
330
2
100
AcDbEntity
  8
Layer3
100
AcDbLine
 10
480.0695007074494
 20
-248.1136463133883
 30
0.0
 11
480.0695007074494
 21
-252.6136463133882
 31
0.0
  0
LINE
  5
20B7
330
2
100
AcDbEntity
  8
Layer3
100
AcDbLine
 10
176.5695007074489
 20
-245.3059731314097
 30
0.0
 11
176.5695007074489
 21
-248.5059731314098
 31
0.0
  0
LINE
  5
20B8
330
2
100
AcDbEntity
  8
Layer3
100
AcDbLine
 10
436.0695007074493
 20
-252.6136463133882
 30
0.0
 11
480.0695007074494
 21
-252.6136463133882
 31
0.0
  0
LINE
  5
20B9
330
2
100
AcDbEntity
  8
Layer3
100
AcDbLine
 10
288.5695007074494
 20
-249.1326859230257
 30
0.0
 11
327.5695007074493
 21
-249.1326859230257
 31
0.0
  0
LINE
  5
20BC
330
2
100
AcDbEntity
  8
Layer3
100
AcDbLine
 10
583.0695007074488
 20
-255.6079979982765
 30
0.0
 11
633.0695007074488
 21
-255.6079979982765
 31
0.0
  0
LINE
  5
20C0
330
2
100
AcDbEntity
  8
Layer3
100
AcDbLine
 10
436.0695007074493
 20
-248.1136463133883
 30
0.0
 11
480.0695007074494
 21
-248.1136463133883
 31
0.0
  0
CIRCLE
  5
20C1
330
2
100
AcDbEntity
  8
Layer3
100
AcDbCircle
 10
458.0695007074494
 20
-221.4433193887437
 30
0.0
 40
22.0
  0
CIRCLE
  5
20C2
330
2
100
AcDbEntity
  8
Layer3
100
AcDbCircle
 10
308.0695007074493
 20
-221.4433193887437
 30
0.0
 40
19.5
  0
LINE
  5
20C3
330
2
100
AcDbEntity
  8
Layer3
100
AcDbLine
 10
288.5695007074494
 20
-245.9326859230256
 30
0.0
 11
327.5695007074493
 21
-245.9326859230256
 31
0.0
  0
LINE
  5
20C4
330
2
100
AcDbEntity
  8
Layer3
100
AcDbLine
 10
583.0695007074488
 20
-251.1079979982765
 30
0.0
 11
633.0695007074488
 21
-251.1079979982765
 31
0.0
  0
LINE
  5
20C5
330
2
100
AcDbEntity
  8
Layer3
100
AcDbLine
 10
1319.069500707449
 20
-270.7861109037336
 30
0.0
 11
1319.069500707449
 21
-277.7861109037337
 31
0.0
  0
LINE
  5
20C6
330
2
100
AcDbEntity
  8
Layer3
100
AcDbLine
 10
1244.069500707448
 20
-264.1320095327949
 30
0.0
 11
1244.069500707448
 21
-270.1320095327949
 31
0.0
  0
LINE
  5
20C7
330
2
100
AcDbEntity
  8
Layer3
100
AcDbLine
 10
1172.069500707448
 20
-264.1320095327949
 30
0.0
 11
1172.069500707448
 21
-270.1320095327949
 31
0.0
  0
LINE
  5
20C8
330
2
100
AcDbEntity
  8
Layer3
100
AcDbLine
 10
1091.069500707448
 20
-257.4762689719529
 30
0.0
 11
1091.069500707448
 21
-263.4762689719529
 31
0.0
  0
LINE
  5
20C9
330
2
100
AcDbEntity
  8
Layer3
100
AcDbLine
 10
1025.069500707448
 20
-257.4762689719529
 30
0.0
 11
1025.069500707448
 21
-263.4762689719529
 31
0.0
  0
LINE
  5
20CA
330
2
100
AcDbEntity
  8
Layer3
100
AcDbLine
 10
938.0695007074484
 20
-257.4762689719529
 30
0.0
 11
938.0695007074484
 21
-263.4762689719529
 31
0.0
  0
LINE
  5
20CB
330
2
100
AcDbEntity
  8
Layer3
100
AcDbLine
 10
878.069500707449
 20
-257.4762689719529
 30
0.0
 11
878.069500707449
 21
-263.4762689719529
 31
0.0
  0
LINE
  5
20CC
330
2
100
AcDbEntity
  8
Layer3
100
AcDbLine
 10
786.0695007074491
 20
-252.9046095572685
 30
0.0
 11
786.0695007074491
 21
-257.4046095572685
 31
0.0
  0
LINE
  5
20CD
330
2
100
AcDbEntity
  8
Layer3
100
AcDbLine
 10
1025.069500707448
 20
-263.4762689719529
 30
0.0
 11
1091.069500707448
 21
-263.4762689719529
 31
0.0
  0
LINE
  5
20CE
330
2
100
AcDbEntity
  8
Layer3
100
AcDbLine
 10
878.069500707449
 20
-263.4762689719529
 30
0.0
 11
938.0695007074489
 21
-263.4762689719529
 31
0.0
  0
LINE
  5
20D1
330
2
100
AcDbEntity
  8
Layer3
100
AcDbLine
 10
1172.069500707448
 20
-270.1320095327949
 30
0.0
 11
1244.069500707448
 21
-270.1320095327949
 31
0.0
  0
LINE
  5
20D3
330
2
100
AcDbEntity
  8
Layer3
100
AcDbLine
 10
1025.069500707448
 20
-257.4762689719529
 30
0.0
 11
1091.069500707448
 21
-257.4762689719529
 31
0.0
  0
LINE
  5
20D4
330
2
100
AcDbEntity
  8
Layer3
100
AcDbLine
 10
878.069500707449
 20
-257.4762689719529
 30
0.0
 11
938.0695007074489
 21
-257.4762689719529
 31
0.0
  0
LINE
  5
20D5
330
2
100
AcDbEntity
  8
Layer3
100
AcDbLine
 10
1172.069500707448
 20
-264.1320095327949
 30
0.0
 11
1244.069500707448
 21
-264.1320095327949
 31
0.0
  0
CIRCLE
  5
20D6
330
2
100
AcDbEntity
  8
Layer3
100
AcDbCircle
 10
2108.069500707448
 20
-221.4433193887436
 30
0.0
 40
55.0
  0
LINE
  5
20D8
330
2
100
AcDbEntity
  8
Layer3
100
AcDbLine
 10
2053.069500707449
 20
-288.9796261686496
 30
0.0
 11
2163.069500707448
 21
-288.9796261686496
 31
0.0
  0
LINE
  5
20D9
330
2
100
AcDbEntity
  8
Layer3
100
AcDbLine
 10
2053.069500707449
 20
-297.9796261686495
 30
0.0
 11
2163.069500707448
 21
-297.9796261686495
 31
0.0
  0
CIRCLE
  5
20DA
330
2
100
AcDbEntity
  8
Layer3
100
AcDbCircle
 10
1958.069500707448
 20
-221.4433193887437
 30
0.0
 40
52.5
  0
CIRCLE
  5
20DB
330
2
100
AcDbEntity
  8
Layer3
100
AcDbCircle
 10
1808.069500707448
 20
-221.4433193887437
 30
0.0
 40
49.0
  0
CIRCLE
  5
20DC
330
2
100
AcDbEntity
  8
Layer3
100
AcDbCircle
 10
1658.069500707449
 20
-221.4433193887437
 30
0.0
 40
46.0
  0
CIRCLE
  5
20DD
330
2
100
AcDbEntity
  8
Layer3
100
AcDbCircle
 10
1508.069500707448
 20
-221.4433193887437
 30
0.0
 40
42.5
  0
LINE
  5
20DE
330
2
100
AcDbEntity
  8
Layer3
100
AcDbLine
 10
1759.069500707448
 20
-285.173982542627
 30
0.0
 11
1857.069500707448
 21
-285.173982542627
 31
0.0
  0
LINE
  5
20DF
330
2
100
AcDbEntity
  8
Layer3
100
AcDbLine
 10
1759.069500707448
 20
-277.173982542627
 30
0.0
 11
1857.069500707448
 21
-277.173982542627
 31
0.0
  0
LINE
  5
20E0
330
2
100
AcDbEntity
  8
Layer3
100
AcDbLine
 10
1759.069500707448
 20
-277.173982542627
 30
0.0
 11
1759.069500707448
 21
-285.173982542627
 31
0.0
  0
LINE
  5
20E1
330
2
100
AcDbEntity
  8
Layer3
100
AcDbLine
 10
1704.069500707448
 20
-277.173982542627
 30
0.0
 11
1704.069500707448
 21
-285.173982542627
 31
0.0
  0
LINE
  5
20E2
330
2
100
AcDbEntity
  8
Layer3
100
AcDbLine
 10
1612.069500707449
 20
-277.173982542627
 30
0.0
 11
1612.069500707448
 21
-285.173982542627
 31
0.0
  0
LINE
  5
20E3
330
2
100
AcDbEntity
  8
Layer3
100
AcDbLine
 10
1465.569500707448
 20
-278.173982542627
 30
0.0
 11
1465.569500707448
 21
-285.173982542627
 31
0.0
  0
LINE
  5
20E4
330
2
100
AcDbEntity
  8
Layer3
100
AcDbLine
 10
1397.069500707449
 20
-270.7861109037336
 30
0.0
 11
1397.069500707449
 21
-277.7861109037337
 31
0.0
  0
LINE
  5
20E5
330
2
100
AcDbEntity
  8
Layer3
100
AcDbLine
 10
1550.569500707448
 20
-278.173982542627
 30
0.0
 11
1550.569500707448
 21
-285.173982542627
 31
0.0
  0
LINE
  5
20E6
330
2
100
AcDbEntity
  8
Layer3
100
AcDbLine
 10
1465.569500707448
 20
-285.173982542627
 30
0.0
 11
1550.569500707448
 21
-285.173982542627
 31
0.0
  0
LINE
  5
20E9
330
2
100
AcDbEntity
  8
Layer3
100
AcDbLine
 10
1612.069500707449
 20
-285.173982542627
 30
0.0
 11
1704.069500707448
 21
-285.173982542627
 31
0.0
  0
LINE
  5
20EB
330
2
100
AcDbEntity
  8
Layer3
100
AcDbLine
 10
1465.569500707448
 20
-278.173982542627
 30
0.0
 11
1550.569500707448
 21
-278.173982542627
 31
0.0
  0
LINE
  5
20EC
330
2
100
AcDbEntity
  8
Layer3
100
AcDbLine
 10
1612.069500707448
 20
-277.173982542627
 30
0.0
 11
1704.069500707448
 21
-277.173982542627
 31
0.0
  0
LINE
  5
20ED
330
2
100
AcDbEntity
  8
Layer3
100
AcDbLine
 10
2053.069500707449
 20
-288.9796261686496
 30
0.0
 11
2053.069500707449
 21
-297.9796261686495
 31
0.0
  0
LINE
  5
20EE
330
2
100
AcDbEntity
  8
Layer3
100
AcDbLine
 10
2010.569500707448
 20
-285.0394286919852
 30
0.0
 11
2010.569500707448
 21
-294.0394286919852
 31
0.0
  0
LINE
  5
20EF
330
2
100
AcDbEntity
  8
Layer3
100
AcDbLine
 10
1905.569500707448
 20
-285.0394286919852
 30
0.0
 11
1905.569500707448
 21
-294.0394286919852
 31
0.0
  0
LINE
  5
20F0
330
2
100
AcDbEntity
  8
Layer3
100
AcDbLine
 10
1857.069500707448
 20
-277.173982542627
 30
0.0
 11
1857.069500707448
 21
-285.173982542627
 31
0.0
  0
LINE
  5
20F1
330
2
100
AcDbEntity
  8
Layer3
100
AcDbLine
 10
1905.569500707448
 20
-294.0394286919852
 30
0.0
 11
2010.569500707448
 21
-294.0394286919852
 31
0.0
  0
LINE
  5
20F4
330
2
100
AcDbEntity
  8
Layer3
100
AcDbLine
 10
1905.569500707448
 20
-285.0394286919852
 30
0.0
 11
2010.569500707448
 21
-285.0394286919852
 31
0.0
  0
CIRCLE
  5
20F5
330
2
100
AcDbEntity
  8
Layer3
100
AcDbCircle
 10
2408.069500707449
 20
-221.4433193887436
 30
0.0
 40
60.0
  0
CIRCLE
  5
20F6
330
2
100
AcDbEntity
  8
Layer3
100
AcDbCircle
 10
2258.069500707449
 20
-221.4433193887436
 30
0.0
 40
57.5
  0
LINE
  5
20F7
330
2
100
AcDbEntity
  8
Layer3
100
AcDbLine
 10
2348.069500707449
 20
-300.7852694972738
 30
0.0
 11
2468.06950070745
 21
-300.7852694972738
 31
0.0
  0
LINE
  5
20F9
330
2
100
AcDbEntity
  8
Layer3
100
AcDbLine
 10
2348.069500707449
 20
-310.7852694972738
 30
0.0
 11
2468.06950070745
 21
-310.7852694972738
 31
0.0
  0
LINE
  5
20FA
330
2
100
AcDbEntity
  8
Layer3
100
AcDbLine
 10
2348.069500707449
 20
-300.7852694972738
 30
0.0
 11
2348.069500707449
 21
-310.7852694972738
 31
0.0
  0
LINE
  5
20FB
330
2
100
AcDbEntity
  8
Layer3
100
AcDbLine
 10
2315.569500707449
 20
-288.9796261686496
 30
0.0
 11
2315.569500707449
 21
-297.9796261686495
 31
0.0
  0
LINE
  5
20FC
330
2
100
AcDbEntity
  8
Layer3
100
AcDbLine
 10
2200.569500707449
 20
-288.9796261686496
 30
0.0
 11
2200.569500707449
 21
-297.9796261686495
 31
0.0
  0
LINE
  5
20FD
330
2
100
AcDbEntity
  8
Layer3
100
AcDbLine
 10
2163.069500707448
 20
-288.9796261686496
 30
0.0
 11
2163.069500707448
 21
-297.9796261686495
 31
0.0
  0
LINE
  5
20FE
330
2
100
AcDbEntity
  8
Layer3
100
AcDbLine
 10
2200.569500707449
 20
-297.9796261686495
 30
0.0
 11
2315.569500707449
 21
-297.9796261686495
 31
0.0
  0
LINE
  5
2100
330
2
100
AcDbEntity
  8
Layer3
100
AcDbLine
 10
2200.569500707449
 20
-288.9796261686496
 30
0.0
 11
2315.569500707449
 21
-288.9796261686496
 31
0.0
  0
LINE
  5
2101
330
2
100
AcDbEntity
  8
Layer3
100
AcDbLine
 10
2468.06950070745
 20
-300.7852694972738
 30
0.0
 11
2468.069500707448
 21
-310.7852694972738
 31
0.0
  0
LINE
  5
211E
330
2
100
AcDbEntity
  8
Layer1
100
AcDbLine
 10
2933.069500707448
 20
-95.44331938874307
 30
0.0
 11
-966.9304992925512
 21
-95.44331938874131
 31
0.0
  0
LINE
  5
211F
330
2
100
AcDbEntity
  8
Layer1
100
AcDbLine
 10
2933.069500707448
 20
-140.4433193887423
 30
0.0
 11
-966.9304992925514
 21
-140.4433193887437
 31
0.0
  0
LINE
  5
2120
330
2
100
AcDbEntity
  8
Layer1
100
AcDbLine
 10
2933.069500707448
 20
-351.4224792211942
 30
0.0
 11
-966.9304992925514
 21
-351.4224792211956
 31
0.0
  0
LINE
  5
2125
330
2
100
AcDbEntity
  8
Layer1
100
AcDbLine
 10
-666.9304992925512
 20
-351.4224792211954
 30
0.0
 11
-666.9304992925511
 21
-95.44331938874098
 31
0.0
  0
LINE
  5
2126
330
2
100
AcDbEntity
  8
Layer1
100
AcDbLine
 10
-816.9304992925512
 20
-351.4224792211955
 30
0.0
 11
-816.9304992925512
 21
-95.44331938874098
 31
0.0
  0
LINE
  5
2127
330
2
100
AcDbEntity
  8
Layer1
100
AcDbLine
 10
-966.9304992925512
 20
-351.4224792211956
 30
0.0
 11
-966.9304992925512
 21
-95.44331938874098
 31
0.0
  0
LINE
  5
2128
330
2
100
AcDbEntity
  8
Layer1
100
AcDbLine
 10
-366.9304992925511
 20
-351.4224792211953
 30
0.0
 11
-366.9304992925511
 21
-95.44331938874098
 31
0.0
  0
LINE
  5
2129
330
2
100
AcDbEntity
  8
Layer1
100
AcDbLine
 10
-516.9304992925512
 20
-351.4224792211954
 30
0.0
 11
-516.9304992925511
 21
-95.44331938874098
 31
0.0
  0
LINE
  5
213E
330
2
100
AcDbEntity
  8
Layer1
100
AcDbLine
 10
683.0695007074488
 20
-351.4224792211949
 30
0.0
 11
683.0695007074488
 21
-95.44331938874098
 31
0.0
  0
LINE
  5
213F
330
2
100
AcDbEntity
  8
Layer1
100
AcDbLine
 10
533.0695007074488
 20
-351.422479221195
 30
0.0
 11
533.0695007074488
 21
-95.44331938874098
 31
0.0
  0
LINE
  5
2140
330
2
100
AcDbEntity
  8
Layer1
100
AcDbLine
 10
1133.069500707448
 20
-351.4224792211948
 30
0.0
 11
1133.069500707448
 21
-95.44331938874098
 31
0.0
  0
LINE
  5
2141
330
2
100
AcDbEntity
  8
Layer1
100
AcDbLine
 10
983.0695007074488
 20
-351.4224792211948
 30
0.0
 11
983.0695007074488
 21
-95.44331938874098
 31
0.0
  0
LINE
  5
2142
330
2
100
AcDbEntity
  8
Layer1
100
AcDbLine
 10
833.0695007074488
 20
-351.4224792211949
 30
0.0
 11
833.0695007074488
 21
-95.44331938874098
 31
0.0
  0
LINE
  5
2143
330
2
100
AcDbEntity
  8
Layer1
100
AcDbLine
 10
1283.069500707449
 20
-351.4224792211947
 30
0.0
 11
1283.069500707448
 21
-95.44331938873972
 31
0.0
  0
LINE
  5
2144
330
2
100
AcDbEntity
  8
Layer1
100
AcDbLine
 10
2033.069500707449
 20
-351.4224792211944
 30
0.0
 11
2033.069500707449
 21
-95.44331938873972
 31
0.0
  0
LINE
  5
2145
330
2
100
AcDbEntity
  8
Layer1
100
AcDbLine
 10
1883.069500707448
 20
-351.4224792211945
 30
0.0
 11
1883.069500707448
 21
-95.44331938873972
 31
0.0
  0
LINE
  5
2146
330
2
100
AcDbEntity
  8
Layer1
100
AcDbLine
 10
1733.069500707449
 20
-351.4224792211945
 30
0.0
 11
1733.069500707449
 21
-95.44331938873972
 31
0.0
  0
LINE
  5
2147
330
2
100
AcDbEntity
  8
Layer1
100
AcDbLine
 10
1583.069500707448
 20
-351.4224792211946
 30
0.0
 11
1583.069500707448
 21
-95.44331938873972
 31
0.0
  0
LINE
  5
2148
330
2
100
AcDbEntity
  8
Layer1
100
AcDbLine
 10
1433.069500707448
 20
-351.4224792211947
 30
0.0
 11
1433.069500707448
 21
-95.44331938873972
 31
0.0
  0
LINE
  5
2149
330
2
100
AcDbEntity
  8
Layer1
100
AcDbLine
 10
83.0695007074488
 20
-351.4224792211952
 30
0.0
 11
83.0695007074488
 21
-95.44331938874098
 31
0.0
  0
LINE
  5
214A
330
2
100
AcDbEntity
  8
Layer1
100
AcDbLine
 10
-66.93049929255119
 20
-351.4224792211953
 30
0.0
 11
-66.93049929255119
 21
-95.44331938874098
 31
0.0
  0
LINE
  5
214B
330
2
100
AcDbEntity
  8
Layer1
100
AcDbLine
 10
-216.9304992925511
 20
-351.4224792211953
 30
0.0
 11
-216.9304992925511
 21
-95.44331938874098
 31
0.0
  0
LINE
  5
214C
330
2
100
AcDbEntity
  8
Layer1
100
AcDbLine
 10
383.0695007074492
 20
-351.4224792211951
 30
0.0
 11
383.0695007074488
 21
-95.44331938874098
 31
0.0
  0
LINE
  5
214D
330
2
100
AcDbEntity
  8
Layer1
100
AcDbLine
 10
233.0695007074492
 20
-351.4224792211951
 30
0.0
 11
233.0695007074488
 21
-95.44331938874098
 31
0.0
  0
MTEXT
  5
214E
330
2
100
AcDbEntity
  8
Layer4
100
AcDbMText
 10
-932.3552508148152
 20
-100.5415236195357
 30
0.0
 40
30.0
 41
81.69299999999999
 71
     1
 72
     5
  1
M6
 73
     1
 44
1.0
  0
MTEXT
  5
2150
330
2
100
AcDbEntity
  8
Layer4
100
AcDbMText
 10
-782.3552508148152
 20
-100.5415236195357
 30
0.0
 40
30.0
 41
81.69299999999999
 71
     1
 72
     5
  1
M8
 73
     1
 44
1.0
  0
MTEXT
  5
2151
330
2
100
AcDbEntity
  8
Layer4
100
AcDbMText
 10
-482.3552508148152
 20
-100.5415236195357
 30
0.0
 40
30.0
 41
81.69299999999999
 71
     1
 72
     5
  1
M12
 73
     1
 44
1.0
  0
MTEXT
  5
2152
330
2
100
AcDbEntity
  8
Layer4
100
AcDbMText
 10
-632.3552508148152
 20
-100.5415236195357
 30
0.0
 40
30.0
 41
81.69299999999999
 71
     1
 72
     5
  1
M10
 73
     1
 44
1.0
  0
MTEXT
  5
2153
330
2
100
AcDbEntity
  8
Layer4
100
AcDbMText
 10
-332.3552508148152
 20
-100.5415236195357
 30
0.0
 40
30.0
 41
81.69299999999999
 71
     1
 72
     5
  1
M14
 73
     1
 44
1.0
  0
MTEXT
  5
2155
330
2
100
AcDbEntity
  8
Layer4
100
AcDbMText
 10
-182.3552508148152
 20
-100.5415236195367
 30
0.0
 40
30.0
 41
81.69299999999999
 71
     1
 72
     5
  1
M16
 73
     1
 44
1.0
  0
LINE
  5
2161
330
2
100
AcDbEntity
  8
Layer1
100
AcDbLine
 10
2183.069500707448
 20
150.081642338409
 30
0.0
 11
2183.069500707448
 21
406.0608021708637
 31
0.0
  0
LINE
  5
2162
330
2
100
AcDbEntity
  8
Layer1
100
AcDbLine
 10
2033.069500707449
 20
150.0816423384089
 30
0.0
 11
2033.069500707449
 21
406.0608021708637
 31
0.0
  0
LINE
  5
2165
330
2
100
AcDbEntity
  8
Layer1
100
AcDbLine
 10
2333.069500707448
 20
150.0816423384091
 30
0.0
 11
2333.069500707448
 21
406.0608021708638
 31
0.0
  0
LINE
  5
2166
330
2
100
AcDbEntity
  8
Layer1
100
AcDbLine
 10
2183.069500707448
 20
150.0816423384091
 30
0.0
 11
2183.069500707448
 21
406.0608021708638
 31
0.0
  0
LINE
  5
2169
330
2
100
AcDbEntity
  8
Layer1
100
AcDbLine
 10
2483.069500707449
 20
150.0816423384092
 30
0.0
 11
2483.069500707449
 21
406.060802170864
 31
0.0
  0
LINE
  5
216A
330
2
100
AcDbEntity
  8
Layer1
100
AcDbLine
 10
2333.069500707448
 20
150.0816423384092
 30
0.0
 11
2333.069500707448
 21
406.060802170864
 31
0.0
  0
MTEXT
  5
216C
330
2
100
AcDbEntity
  8
Layer4
100
AcDbMText
 10
1298.920906827125
 20
400.9625979400645
 30
0.0
 40
30.0
 41
81.69299999999999
 71
     1
 72
     5
  1
(M27)
 73
     1
 44
1.0
  0
LINE
  5
216D
330
2
100
AcDbEntity
  8
Layer1
100
AcDbLine
 10
2483.069500707449
 20
150.0816423384092
 30
0.0
 11
2483.069500707449
 21
406.060802170864
 31
0.0
  0
LINE
  5
216E
330
2
100
AcDbEntity
  8
Layer1
100
AcDbLine
 10
2633.069500707449
 20
150.0816423384093
 30
0.0
 11
2633.069500707449
 21
406.060802170864
 31
0.0
  0
LINE
  5
216F
330
2
100
AcDbEntity
  8
Layer1
100
AcDbLine
 10
2633.069500707449
 20
150.0816423384093
 30
0.0
 11
2633.069500707449
 21
406.0608021708641
 31
0.0
  0
LINE
  5
2170
330
2
100
AcDbEntity
  8
Layer1
100
AcDbLine
 10
2783.069500707449
 20
150.0816423384093
 30
0.0
 11
2783.069500707449
 21
406.0608021708641
 31
0.0
  0
LINE
  5
2171
330
2
100
AcDbEntity
  8
Layer1
100
AcDbLine
 10
2783.069500707449
 20
150.0816423384093
 30
0.0
 11
2783.069500707449
 21
406.0608021708642
 31
0.0
  0
LINE
  5
2172
330
2
100
AcDbEntity
  8
Layer1
100
AcDbLine
 10
2933.069500707448
 20
150.0816423384094
 30
0.0
 11
2933.069500707448
 21
406.0608021708642
 31
0.0
  0
LINE
  5
2173
330
2
100
AcDbEntity
  8
Layer1
100
AcDbLine
 10
2933.069500707448
 20
150.0816423384094
 30
0.0
 11
2933.069500707448
 21
406.0608021708642
 31
0.0
  0
LINE
  5
2174
330
2
100
AcDbEntity
  8
Layer1
100
AcDbLine
 10
3083.069500707448
 20
150.0816423384095
 30
0.0
 11
3083.069500707448
 21
406.0608021708642
 31
0.0
  0
LINE
  5
2175
330
2
100
AcDbEntity
  8
Layer1
100
AcDbLine
 10
3083.069500707448
 20
150.0816423384095
 30
0.0
 11
3083.069500707448
 21
406.0608021708643
 31
0.0
  0
LINE
  5
2176
330
2
100
AcDbEntity
  8
Layer1
100
AcDbLine
 10
3233.069500707449
 20
150.0816423384095
 30
0.0
 11
3233.069500707449
 21
406.0608021708643
 31
0.0
  0
MTEXT
  5
217D
330
2
100
AcDbEntity
  8
Layer4
100
AcDbMText
 10
694.5999258374719
 20
400.9625979400673
 30
0.0
 40
30.0
 41
81.69299999999999
 71
     1
 72
     5
  1
(M18)
 73
     1
 44
1.0
  0
MTEXT
  5
217E
330
2
100
AcDbEntity
  8
Layer4
100
AcDbMText
 10
1598.920906827125
 20
400.9625979400617
 30
0.0
 40
30.0
 41
81.69299999999999
 71
     1
 72
     5
  1
(M33)
 73
     1
 44
1.0
  0
MTEXT
  5
217F
330
2
100
AcDbEntity
  8
Layer4
100
AcDbMText
 10
1898.920906827124
 20
400.9625979400588
 30
0.0
 40
30.0
 41
81.69299999999999
 71
     1
 72
     5
  1
(M39)
 73
     1
 44
1.0
  0
MTEXT
  5
2180
330
2
100
AcDbEntity
  8
Layer4
100
AcDbMText
 10
2198.920906827124
 20
400.9625979400621
 30
0.0
 40
30.0
 41
81.69299999999999
 71
     1
 72
     5
  1
(M45)
 73
     1
 44
1.0
  0
MTEXT
  5
2181
330
2
100
AcDbEntity
  8
Layer4
100
AcDbMText
 10
2498.920906827124
 20
400.9625979400586
 30
0.0
 40
30.0
 41
81.69299999999999
 71
     1
 72
     5
  1
(M52)
 73
     1
 44
1.0
  0
MTEXT
  5
2182
330
2
100
AcDbEntity
  8
Layer4
100
AcDbMText
 10
2798.920906827124
 20
400.9625979400623
 30
0.0
 40
30.0
 41
81.69299999999999
 71
     1
 72
     5
  1
(M60)
 73
     1
 44
1.0
  0
MTEXT
  5
2183
330
2
100
AcDbEntity
  8
Layer4
100
AcDbMText
 10
3098.920906827125
 20
400.9625979400582
 30
0.0
 40
30.0
 41
81.69299999999999
 71
     1
 72
     5
  1
(M68)
 73
     1
 44
1.0
  0
CIRCLE
  5
2184
330
2
100
AcDbEntity
  8
Layer3
100
AcDbCircle
 10
1358.069500707449
 20
279.2108579116557
 30
0.0
 40
25.0
  0
LINE
  5
2185
330
2
100
AcDbEntity
  8
Layer3
100
AcDbLine
 10
1333.069500707449
 20
250.2495677431308
 30
0.0
 11
1383.069500707449
 21
250.2495677431308
 31
0.0
  0
LINE
  5
2187
330
2
100
AcDbEntity
  8
Layer3
100
AcDbLine
 10
1333.069500707449
 20
250.2495677431308
 30
0.0
 11
1333.069500707449
 21
246.2495677431309
 31
0.0
  0
LINE
  5
2188
330
2
100
AcDbEntity
  8
Layer3
100
AcDbLine
 10
1383.069500707449
 20
250.2495677431308
 30
0.0
 11
1383.069500707449
 21
246.2495677431308
 31
0.0
  0
LINE
  5
218B
330
2
100
AcDbEntity
  8
Layer3
100
AcDbLine
 10
1333.069500707449
 20
246.2495677431309
 30
0.0
 11
1383.069500707449
 21
246.2495677431308
 31
0.0
  0
CIRCLE
  5
218E
330
2
100
AcDbEntity
  8
Layer3
100
AcDbCircle
 10
-891.9304992925509
 20
279.2108579116557
 30
0.0
 40
1.1
  0
CIRCLE
  5
218F
330
2
100
AcDbEntity
  8
Layer3
100
AcDbCircle
 10
-741.9304992925508
 20
279.2108579116557
 30
0.0
 40
1.35
  0
CIRCLE
  5
2190
330
2
100
AcDbEntity
  8
Layer3
100
AcDbCircle
 10
-591.9304992925508
 20
279.2108579116557
 30
0.0
 40
1.6
  0
CIRCLE
  5
2191
330
2
100
AcDbEntity
  8
Layer3
100
AcDbCircle
 10
-441.9304992925508
 20
279.2108579116557
 30
0.0
 40
2.149999999999999
  0
CIRCLE
  5
2192
330
2
100
AcDbEntity
  8
Layer3
100
AcDbCircle
 10
-291.9304992925503
 20
279.2108579116557
 30
0.0
 40
2.649999999999999
  0
CIRCLE
  5
2193
330
2
100
AcDbEntity
  8
Layer3
100
AcDbCircle
 10
-141.9304992925508
 20
279.2108579116557
 30
0.0
 40
3.2
  0
CIRCLE
  5
2194
330
2
100
AcDbEntity
  8
Layer3
100
AcDbCircle
 10
8.069500707449606
 20
279.2108579116557
 30
0.0
 40
4.2
  0
CIRCLE
  5
2195
330
2
100
AcDbEntity
  8
Layer3
100
AcDbCircle
 10
158.0695007074491
 20
279.2108579116557
 30
0.0
 40
5.25
  0
CIRCLE
  5
2196
330
2
100
AcDbEntity
  8
Layer3
100
AcDbCircle
 10
308.0695007074496
 20
279.2108579116557
 30
0.0
 40
6.5
  0
CIRCLE
  5
2197
330
2
100
AcDbEntity
  8
Layer3
100
AcDbCircle
 10
458.0695007074496
 20
279.2108579116557
 30
0.0
 40
7.5
  0
CIRCLE
  5
2198
330
2
100
AcDbEntity
  8
Layer3
100
AcDbCircle
 10
608.0695007074491
 20
279.2108579116557
 30
0.0
 40
8.5
  0
CIRCLE
  5
2199
330
2
100
AcDbEntity
  8
Layer3
100
AcDbCircle
 10
758.0695007074491
 20
279.2108579116557
 30
0.0
 40
9.5
  0
CIRCLE
  5
219A
330
2
100
AcDbEntity
  8
Layer3
100
AcDbCircle
 10
908.0695007074492
 20
279.2108579116557
 30
0.0
 40
10.5
  0
CIRCLE
  5
219B
330
2
100
AcDbEntity
  8
Layer3
100
AcDbCircle
 10
1058.069500707449
 20
279.2108579116557
 30
0.0
 40
11.5
  0
CIRCLE
  5
219C
330
2
100
AcDbEntity
  8
Layer3
100
AcDbCircle
 10
1208.069500707449
 20
279.2108579116557
 30
0.0
 40
12.5
  0
CIRCLE
  5
219D
330
2
100
AcDbEntity
  8
Layer3
100
AcDbCircle
 10
1358.069500707449
 20
279.2108579116557
 30
0.0
 40
14.0
  0
CIRCLE
  5
219E
330
2
100
AcDbEntity
  8
Layer3
100
AcDbCircle
 10
1508.069500707449
 20
279.2108579116556
 30
0.0
 40
15.5
  0
CIRCLE
  5
219F
330
2
100
AcDbEntity
  8
Layer3
100
AcDbCircle
 10
1658.069500707449
 20
279.2108579116556
 30
0.0
 40
17.0
  0
CIRCLE
  5
21A0
330
2
100
AcDbEntity
  8
Layer3
100
AcDbCircle
 10
1808.069500707449
 20
279.2108579116556
 30
0.0
 40
18.5
  0
CIRCLE
  5
21A1
330
2
100
AcDbEntity
  8
Layer3
100
AcDbCircle
 10
1958.069500707449
 20
279.2108579116557
 30
0.0
 40
20.0
  0
CIRCLE
  5
21A2
330
2
100
AcDbEntity
  8
Layer3
100
AcDbCircle
 10
2108.069500707448
 20
279.2108579116557
 30
0.0
 40
21.49999999999999
  0
CIRCLE
  5
21A3
330
2
100
AcDbEntity
  8
Layer3
100
AcDbCircle
 10
2258.069500707449
 20
279.2108579116557
 30
0.0
 40
23.0
  0
CIRCLE
  5
21A4
330
2
100
AcDbEntity
  8
Layer3
100
AcDbCircle
 10
2408.069500707449
 20
279.2108579116557
 30
0.0
 40
25.0
  0
CIRCLE
  5
21A5
330
2
100
AcDbEntity
  8
Layer3
100
AcDbCircle
 10
2559.684249217031
 20
279.2108579116557
 30
0.0
 40
27.0
  0
CIRCLE
  5
21A6
330
2
100
AcDbEntity
  8
Layer3
100
AcDbCircle
 10
2708.069500707449
 20
279.2108579116557
 30
0.0
 40
29.0
  0
CIRCLE
  5
21A7
330
2
100
AcDbEntity
  8
Layer3
100
AcDbCircle
 10
2858.069500707449
 20
279.2108579116557
 30
0.0
 40
31.0
  0
CIRCLE
  5
21A8
330
2
100
AcDbEntity
  8
Layer3
100
AcDbCircle
 10
3008.069500707449
 20
279.2108579116557
 30
0.0
 40
33.0
  0
CIRCLE
  5
21A9
330
2
100
AcDbEntity
  8
Layer3
100
AcDbCircle
 10
3158.069500707449
 20
279.2108579116557
 30
0.0
 40
35.0
  0
LINE
  5
21AB
330
2
100
AcDbEntity
  8
Layer1
100
AcDbLine
 10
3683.069500707448
 20
150.0816423384097
 30
0.0
 11
3683.069500707448
 21
406.0608021708644
 31
0.0
  0
LINE
  5
21AC
330
2
100
AcDbEntity
  8
Layer1
100
AcDbLine
 10
3683.069500707448
 20
150.0816423384097
 30
0.0
 11
3683.069500707448
 21
406.0608021708644
 31
0.0
  0
LINE
  5
21AD
330
2
100
AcDbEntity
  8
Layer1
100
AcDbLine
 10
3533.069500707449
 20
150.0816423384096
 30
0.0
 11
3533.069500707449
 21
406.0608021708644
 31
0.0
  0
LINE
  5
21AE
330
2
100
AcDbEntity
  8
Layer1
100
AcDbLine
 10
3533.069500707449
 20
150.0816423384096
 30
0.0
 11
3533.069500707449
 21
406.0608021708643
 31
0.0
  0
LINE
  5
21AF
330
2
100
AcDbEntity
  8
Layer1
100
AcDbLine
 10
3383.069500707449
 20
150.0816423384096
 30
0.0
 11
3383.069500707449
 21
406.0608021708643
 31
0.0
  0
LINE
  5
21B0
330
2
100
AcDbEntity
  8
Layer1
100
AcDbLine
 10
3383.069500707449
 20
150.0816423384096
 30
0.0
 11
3383.069500707449
 21
406.0608021708643
 31
0.0
  0
MTEXT
  5
21B1
330
2
100
AcDbEntity
  8
Layer4
100
AcDbMText
 10
3267.644749185185
 20
400.9625979400645
 30
0.0
 40
30.0
 41
81.69299999999999
 71
     1
 72
     5
  1
M72
 73
     1
 44
1.0
  0
MTEXT
  5
21B2
330
2
100
AcDbEntity
  8
Layer4
100
AcDbMText
 10
3567.644749185185
 20
400.9625979400646
 30
0.0
 40
30.0
 41
81.69299999999999
 71
     1
 72
     5
  1
M80
 73
     1
 44
1.0
  0
MTEXT
  5
21B3
330
2
100
AcDbEntity
  8
Layer4
100
AcDbMText
 10
3398.920906827125
 20
400.9625979400583
 30
0.0
 40
30.0
 41
81.69299999999999
 71
     1
 72
     5
  1
(M76)
 73
     1
 44
1.0
  0
CIRCLE
  5
21B8
330
2
100
AcDbEntity
  8
Layer3
100
AcDbCircle
 10
3308.069500707448
 20
279.2108579116557
 30
0.0
 40
62.5
  0
CIRCLE
  5
21B9
330
2
100
AcDbEntity
  8
Layer3
100
AcDbCircle
 10
3308.069500707448
 20
279.2108579116557
 30
0.0
 40
37.0
  0
LINE
  5
21BA
330
2
100
AcDbEntity
  8
Layer3
100
AcDbLine
 10
3245.569500707448
 20
197.3689078031256
 30
0.0
 11
3370.569500707448
 21
197.3689078031256
 31
0.0
  0
LINE
  5
21BB
330
2
100
AcDbEntity
  8
Layer3
100
AcDbLine
 10
3245.569500707448
 20
187.3689078031256
 30
0.0
 11
3370.569500707448
 21
187.3689078031256
 31
0.0
  0
LINE
  5
21BC
330
2
100
AcDbEntity
  8
Layer3
100
AcDbLine
 10
3245.569500707448
 20
197.3689078031256
 30
0.0
 11
3245.569500707448
 21
187.3689078031256
 31
0.0
  0
LINE
  5
21BD
330
2
100
AcDbEntity
  8
Layer3
100
AcDbLine
 10
3370.569500707448
 20
197.3689078031256
 30
0.0
 11
3370.569500707448
 21
187.3689078031256
 31
0.0
  0
CIRCLE
  5
21BE
330
2
100
AcDbEntity
  8
Layer3
100
AcDbCircle
 10
3458.069500707448
 20
279.2108579116557
 30
0.0
 40
67.5
  0
CIRCLE
  5
21BF
330
2
100
AcDbEntity
  8
Layer3
100
AcDbCircle
 10
3458.069500707448
 20
279.2108579116557
 30
0.0
 40
39.0
  0
LINE
  5
21C0
330
2
100
AcDbEntity
  8
Layer3
100
AcDbLine
 10
3390.569500707448
 20
192.3689078031255
 30
0.0
 11
3525.569500707448
 21
192.3689078031255
 31
0.0
  0
LINE
  5
21C1
330
2
100
AcDbEntity
  8
Layer3
100
AcDbLine
 10
3390.569500707448
 20
182.3689078031255
 30
0.0
 11
3525.569500707448
 21
182.3689078031255
 31
0.0
  0
LINE
  5
21C2
330
2
100
AcDbEntity
  8
Layer3
100
AcDbLine
 10
3390.569500707448
 20
192.3689078031255
 30
0.0
 11
3390.569500707448
 21
182.3689078031256
 31
0.0
  0
LINE
  5
21C3
330
2
100
AcDbEntity
  8
Layer3
100
AcDbLine
 10
3525.569500707448
 20
192.3689078031255
 30
0.0
 11
3525.569500707448
 21
182.3689078031256
 31
0.0
  0
CIRCLE
  5
21C6
330
2
100
AcDbEntity
  8
Layer3
100
AcDbCircle
 10
3608.069500707449
 20
279.2108579116557
 30
0.0
 40
70.0
  0
CIRCLE
  5
21C7
330
2
100
AcDbEntity
  8
Layer3
100
AcDbCircle
 10
3608.069500707449
 20
279.2108579116557
 30
0.0
 40
41.0
  0
LINE
  5
21C8
330
2
100
AcDbEntity
  8
Layer3
100
AcDbLine
 10
3538.069500707448
 20
189.8689078031255
 30
0.0
 11
3678.069500707448
 21
189.8689078031255
 31
0.0
  0
LINE
  5
21C9
330
2
100
AcDbEntity
  8
Layer3
100
AcDbLine
 10
3538.069500707448
 20
177.8689078031255
 30
0.0
 11
3678.069500707448
 21
177.8689078031255
 31
0.0
  0
LINE
  5
21CA
330
2
100
AcDbEntity
  8
Layer3
100
AcDbLine
 10
3538.069500707448
 20
189.8689078031255
 30
0.0
 11
3538.069500707448
 21
177.8689078031255
 31
0.0
  0
LINE
  5
21CB
330
2
100
AcDbEntity
  8
Layer3
100
AcDbLine
 10
3678.069500707448
 20
189.8689078031255
 30
0.0
 11
3678.069500707448
 21
177.8689078031255
 31
0.0
  0
MTEXT
  5
21CF
330
2
100
AcDbEntity
  8
Layer4
100
AcDbMText
 10
2348.920906827124
 20
-100.5415236195458
 30
0.0
 40
30.0
 41
81.69299999999999
 71
     1
 72
     5
  1
(M68)
 73
     1
 44
1.0
  0
MTEXT
  5
21D0
330
2
100
AcDbEntity
  8
Layer4
100
AcDbMText
 10
548.9209068271247
 20
-100.5415236195395
 30
0.0
 40
30.0
 41
81.69299999999999
 71
     1
 72
     5
  1
(M27)
 73
     1
 44
1.0
  0
MTEXT
  5
21D1
330
2
100
AcDbEntity
  8
Layer4
100
AcDbMText
 10
-55.40007416252809
 20
-100.5415236195368
 30
0.0
 40
30.0
 41
81.69299999999999
 71
     1
 72
     5
  1
(M18)
 73
     1
 44
1.0
  0
MTEXT
  5
21D2
330
2
100
AcDbEntity
  8
Layer4
100
AcDbMText
 10
117.6447491851848
 20
-100.541523619538
 30
0.0
 40
30.0
 41
81.69299999999999
 71
     1
 72
     5
  1
M20
 73
     1
 44
1.0
  0
MTEXT
  5
21D3
330
2
100
AcDbEntity
  8
Layer4
100
AcDbMText
 10
417.644749185185
 20
-100.5415236195369
 30
0.0
 40
30.0
 41
81.69299999999999
 71
     1
 72
     5
  1
M24
 73
     1
 44
1.0
  0
MTEXT
  5
21D4
330
2
100
AcDbEntity
  8
Layer4
100
AcDbMText
 10
247.2938420716817
 20
-100.5415236195369
 30
0.0
 40
30.0
 41
81.69299999999999
 71
     1
 72
     5
  1
(M22)
 73
     1
 44
1.0
  0
MTEXT
  5
21D5
330
2
100
AcDbEntity
  8
Layer4
100
AcDbMText
 10
1448.920906827124
 20
-100.5415236195419
 30
0.0
 40
30.0
 41
81.69299999999999
 71
     1
 72
     5
  1
(M45)
 73
     1
 44
1.0
  0
MTEXT
  5
21D6
330
2
100
AcDbEntity
  8
Layer4
100
AcDbMText
 10
848.9209068271247
 20
-100.5415236195423
 30
0.0
 40
30.0
 41
81.69299999999999
 71
     1
 72
     5
  1
(M33)
 73
     1
 44
1.0
  0
MTEXT
  5
21D7
330
2
100
AcDbEntity
  8
Layer4
100
AcDbMText
 10
717.6447491851847
 20
-100.5415236195357
 30
0.0
 40
30.0
 41
81.69299999999999
 71
     1
 72
     5
  1
M30
 73
     1
 44
1.0
  0
MTEXT
  5
21D8
330
2
100
AcDbEntity
  8
Layer4
100
AcDbMText
 10
1017.644749185184
 20
-100.5415236195373
 30
0.0
 40
30.0
 41
81.69299999999999
 71
     1
 72
     5
  1
M36
 73
     1
 44
1.0
  0
MTEXT
  5
21D9
330
2
100
AcDbEntity
  8
Layer4
100
AcDbMText
 10
1317.644749185185
 20
-100.5415236195372
 30
0.0
 40
30.0
 41
81.69299999999999
 71
     1
 72
     5
  1
M42
 73
     1
 44
1.0
  0
MTEXT
  5
21DA
330
2
100
AcDbEntity
  8
Layer4
100
AcDbMText
 10
1148.920906827124
 20
-100.5415236195452
 30
0.0
 40
30.0
 41
81.69299999999999
 71
     1
 72
     5
  1
(M39)
 73
     1
 44
1.0
  0
MTEXT
  5
21DB
330
2
100
AcDbEntity
  8
Layer4
100
AcDbMText
 10
1748.920906827124
 20
-100.5415236195455
 30
0.0
 40
30.0
 41
81.69299999999999
 71
     1
 72
     5
  1
(M52)
 73
     1
 44
1.0
  0
MTEXT
  5
21DC
330
2
100
AcDbEntity
  8
Layer4
100
AcDbMText
 10
1617.644749185185
 20
-100.541523619539
 30
0.0
 40
30.0
 41
81.69299999999999
 71
     1
 72
     5
  1
M48
 73
     1
 44
1.0
  0
MTEXT
  5
21DD
330
2
100
AcDbEntity
  8
Layer4
100
AcDbMText
 10
1917.644749185185
 20
-100.5415236195354
 30
0.0
 40
30.0
 41
81.69299999999999
 71
     1
 72
     5
  1
M56
 73
     1
 44
1.0
  0
MTEXT
  5
21DE
330
2
100
AcDbEntity
  8
Layer4
100
AcDbMText
 10
2217.644749185184
 20
-100.5415236195354
 30
0.0
 40
30.0
 41
81.69299999999999
 71
     1
 72
     5
  1
M64
 73
     1
 44
1.0
  0
MTEXT
  5
21DF
330
2
100
AcDbEntity
  8
Layer4
100
AcDbMText
 10
2048.920906827124
 20
-100.5415236195417
 30
0.0
 40
30.0
 41
81.69299999999999
 71
     1
 72
     5
  1
(M60)
 73
     1
 44
1.0
  0
MTEXT
  5
21E0
330
2
100
AcDbEntity
  8
Layer4
100
AcDbMText
 10
2817.644749185184
 20
-100.5415236195394
 30
0.0
 40
30.0
 41
81.69299999999999
 71
     1
 72
     5
  1
M80
 73
     1
 44
1.0
  0
MTEXT
  5
21E1
330
2
100
AcDbEntity
  8
Layer4
100
AcDbMText
 10
2648.920906827124
 20
-100.5415236195457
 30
0.0
 40
30.0
 41
81.69299999999999
 71
     1
 72
     5
  1
(M76)
 73
     1
 44
1.0
  0
MTEXT
  5
21E2
330
2
100
AcDbEntity
  8
Layer4
100
AcDbMText
 10
2517.644749185185
 20
-100.5415236195395
 30
0.0
 40
30.0
 41
81.69299999999999
 71
     1
 72
     5
  1
M72
 73
     1
 44
1.0
  0
LINE
  5
21E3
330
2
100
AcDbEntity
  8
Layer1
100
AcDbLine
 10
2183.069500707449
 20
-351.4224792211943
 30
0.0
 11
2183.069500707448
 21
-95.44331938873932
 31
0.0
  0
LINE
  5
21E6
330
2
100
AcDbEntity
  8
Layer1
100
AcDbLine
 10
2333.069500707448
 20
-351.4224792211943
 30
0.0
 11
2333.069500707448
 21
-95.44331938873932
 31
0.0
  0
LINE
  5
21E7
330
2
100
AcDbEntity
  8
Layer1
100
AcDbLine
 10
2483.069500707449
 20
-351.4224792211942
 30
0.0
 11
2483.069500707449
 21
-95.44331938873932
 31
0.0
  0
LINE
  5
21E8
330
2
100
AcDbEntity
  8
Layer1
100
AcDbLine
 10
2633.069500707449
 20
-351.4224792211941
 30
0.0
 11
2633.069500707449
 21
-95.44331938873932
 31
0.0
  0
LINE
  5
21E9
330
2
100
AcDbEntity
  8
Layer1
100
AcDbLine
 10
2783.069500707449
 20
-351.4224792211941
 30
0.0
 11
2783.069500707449
 21
-95.44331938873932
 31
0.0
  0
LINE
  5
21EA
330
2
100
AcDbEntity
  8
Layer1
100
AcDbLine
 10
2933.069500707448
 20
-351.422479221194
 30
0.0
 11
2933.069500707448
 21
-95.44331938873932
 31
0.0
  0
CIRCLE
  5
21F2
330
2
100
AcDbEntity
  8
Layer3
100
AcDbCircle
 10
2558.069500707448
 20
-221.4433193887437
 30
0.0
 40
62.5
  0
CIRCLE
  5
21F3
330
2
100
AcDbEntity
  8
Layer3
100
AcDbCircle
 10
2558.069500707448
 20
-221.4433193887437
 30
0.0
 40
39.0
  0
LINE
  5
21F4
330
2
100
AcDbEntity
  8
Layer3
100
AcDbLine
 10
2495.569500707449
 20
-313.2852694972738
 30
0.0
 11
2620.569500707448
 21
-313.2852694972738
 31
0.0
  0
LINE
  5
21F5
330
2
100
AcDbEntity
  8
Layer3
100
AcDbLine
 10
2495.569500707449
 20
-303.2852694972739
 30
0.0
 11
2620.569500707448
 21
-303.2852694972738
 31
0.0
  0
LINE
  5
21F6
330
2
100
AcDbEntity
  8
Layer3
100
AcDbLine
 10
2495.569500707449
 20
-303.2852694972739
 30
0.0
 11
2495.569500707449
 21
-313.2852694972738
 31
0.0
  0
LINE
  5
21F7
330
2
100
AcDbEntity
  8
Layer3
100
AcDbLine
 10
2620.569500707448
 20
-303.2852694972738
 30
0.0
 11
2620.569500707448
 21
-313.2852694972738
 31
0.0
  0
CIRCLE
  5
21F8
330
2
100
AcDbEntity
  8
Layer3
100
AcDbCircle
 10
2708.069500707448
 20
-221.4433193887437
 30
0.0
 40
67.5
  0
CIRCLE
  5
21F9
330
2
100
AcDbEntity
  8
Layer3
100
AcDbCircle
 10
2708.069500707448
 20
-221.4433193887437
 30
0.0
 40
41.0
  0
LINE
  5
21FA
330
2
100
AcDbEntity
  8
Layer3
100
AcDbLine
 10
2640.569500707449
 20
-318.2852694972738
 30
0.0
 11
2775.569500707448
 21
-318.2852694972738
 31
0.0
  0
LINE
  5
21FB
330
2
100
AcDbEntity
  8
Layer3
100
AcDbLine
 10
2640.569500707449
 20
-308.2852694972738
 30
0.0
 11
2775.569500707448
 21
-308.2852694972738
 31
0.0
  0
LINE
  5
21FC
330
2
100
AcDbEntity
  8
Layer3
100
AcDbLine
 10
2640.569500707449
 20
-308.2852694972738
 30
0.0
 11
2640.569500707449
 21
-318.2852694972738
 31
0.0
  0
LINE
  5
21FD
330
2
100
AcDbEntity
  8
Layer3
100
AcDbLine
 10
2775.569500707448
 20
-308.2852694972738
 30
0.0
 11
2775.569500707448
 21
-318.2852694972738
 31
0.0
  0
CIRCLE
  5
21FE
330
2
100
AcDbEntity
  8
Layer3
100
AcDbCircle
 10
2858.069500707449
 20
-221.4433193887437
 30
0.0
 40
70.0
  0
CIRCLE
  5
21FF
330
2
100
AcDbEntity
  8
Layer3
100
AcDbCircle
 10
2858.069500707449
 20
-221.4433193887437
 30
0.0
 40
43.0
  0
LINE
  5
2200
330
2
100
AcDbEntity
  8
Layer3
100
AcDbLine
 10
2788.069500707448
 20
-310.7852694972738
 30
0.0
 11
2928.069500707449
 21
-310.7852694972739
 31
0.0
  0
LINE
  5
2201
330
2
100
AcDbEntity
  8
Layer3
100
AcDbLine
 10
2788.069500707448
 20
-322.7852694972738
 30
0.0
 11
2928.069500707448
 21
-322.7852694972738
 31
0.0
  0
LINE
  5
2202
330
2
100
AcDbEntity
  8
Layer3
100
AcDbLine
 10
2788.069500707448
 20
-310.7852694972738
 30
0.0
 11
2788.069500707448
 21
-322.7852694972738
 31
0.0
  0
LINE
  5
2204
330
2
100
AcDbEntity
  8
Layer3
100
AcDbLine
 10
2928.069500707449
 20
-310.7852694972739
 30
0.0
 11
2928.069500707448
 21
-322.7852694972738
 31
0.0
  0
LINE
  5
2206
330
2
100
AcDbEntity
  8
Layer1
100
AcDbLine
 10
2633.069500707449
 20
-408.7721159085274
 30
0.0
 11
-966.9304992925512
 21
-408.7721159085258
 31
0.0
  0
LINE
  5
2207
330
2
100
AcDbEntity
  8
Layer1
100
AcDbLine
 10
2633.069500707449
 20
-453.772115908527
 30
0.0
 11
-966.9304992925514
 21
-453.7721159085283
 31
0.0
  0
LINE
  5
2208
330
2
100
AcDbEntity
  8
Layer1
100
AcDbLine
 10
2633.069500707449
 20
-804.1424794223599
 30
0.0
 11
-966.9304992925512
 21
-804.1424794223612
 31
0.0
  0
LINE
  5
2209
330
2
100
AcDbEntity
  8
Layer1
100
AcDbLine
 10
-966.9304992925512
 20
-804.1424794223612
 30
0.0
 11
-966.9304992925512
 21
-408.7721159085255
 31
0.0
  0
LINE
  5
2212
330
2
100
AcDbEntity
  8
Layer1
100
AcDbLine
 10
-666.9304992925512
 20
-804.1424794223612
 30
0.0
 11
-666.9304992925511
 21
-408.772115908526
 31
0.0
  0
LINE
  5
2215
330
2
100
AcDbEntity
  8
Layer1
100
AcDbLine
 10
-366.9304992925513
 20
-804.142479422361
 30
0.0
 11
-366.9304992925511
 21
-408.7721159085258
 31
0.0
  0
LINE
  5
2217
330
2
100
AcDbEntity
  8
Layer1
100
AcDbLine
 10
-66.9304992925513
 20
-804.1424794223608
 30
0.0
 11
-66.93049929255119
 21
-408.7721159085258
 31
0.0
  0
LINE
  5
2219
330
2
100
AcDbEntity
  8
Layer1
100
AcDbLine
 10
233.0695007074487
 20
-804.1424794223608
 30
0.0
 11
233.0695007074488
 21
-408.7721159085257
 31
0.0
  0
LINE
  5
221B
330
2
100
AcDbEntity
  8
Layer1
100
AcDbLine
 10
533.0695007074487
 20
-804.1424794223607
 30
0.0
 11
533.0695007074488
 21
-408.7721159085255
 31
0.0
  0
LINE
  5
221D
330
2
100
AcDbEntity
  8
Layer1
100
AcDbLine
 10
833.0695007074487
 20
-804.1424794223605
 30
0.0
 11
833.0695007074488
 21
-408.7721159085254
 31
0.0
  0
LINE
  5
221F
330
2
100
AcDbEntity
  8
Layer1
100
AcDbLine
 10
1133.069500707448
 20
-804.1424794223605
 30
0.0
 11
1133.069500707448
 21
-408.7721159085253
 31
0.0
  0
LINE
  5
2221
330
2
100
AcDbEntity
  8
Layer1
100
AcDbLine
 10
1433.069500707448
 20
-804.1424794223603
 30
0.0
 11
1433.069500707448
 21
-408.7721159085252
 31
0.0
  0
LINE
  5
2223
330
2
100
AcDbEntity
  8
Layer1
100
AcDbLine
 10
1733.069500707449
 20
-804.1424794223603
 30
0.0
 11
1733.069500707449
 21
-408.7721159085252
 31
0.0
  0
LINE
  5
2225
330
2
100
AcDbEntity
  8
Layer1
100
AcDbLine
 10
2033.069500707449
 20
-804.1424794223601
 30
0.0
 11
2033.069500707449
 21
-408.772115908525
 31
0.0
  0
LINE
  5
2227
330
2
100
AcDbEntity
  8
Layer1
100
AcDbLine
 10
2333.069500707448
 20
-804.1424794223601
 30
0.0
 11
2333.069500707448
 21
-408.772115908525
 31
0.0
  0
LINE
  5
2229
330
2
100
AcDbEntity
  8
Layer1
100
AcDbLine
 10
2633.069500707449
 20
-804.1424794223599
 30
0.0
 11
2633.069500707449
 21
-408.7721159085249
 31
0.0
  0
MTEXT
  5
222A
330
2
100
AcDbEntity
  8
Layer4
100
AcDbMText
 10
-872.0247470612813
 20
-413.8703201393274
 30
0.0
 40
30.0
 41
81.69299999999999
 71
     1
 72
     5
  1
(M85)
 73
     1
 44
1.0
  0
MTEXT
  5
222B
330
2
100
AcDbEntity
  8
Layer4
100
AcDbMText
 10
-553.2181821593312
 20
-413.8703201393211
 30
0.0
 40
30.0
 41
81.69299999999999
 71
     1
 72
     5
  1
M90
 73
     1
 44
1.0
  0
MTEXT
  5
222C
330
2
100
AcDbEntity
  8
Layer4
100
AcDbMText
 10
-272.0247470612811
 20
-413.8703201393273
 30
0.0
 40
30.0
 41
81.69299999999999
 71
     1
 72
     5
  1
(M95)
 73
     1
 44
1.0
  0
MTEXT
  5
222D
330
2
100
AcDbEntity
  8
Layer4
100
AcDbMText
 10
46.78181784066885
 20
-413.8703201393208
 30
0.0
 40
30.0
 41
81.69299999999999
 71
     1
 72
     5
  1
M100
 73
     1
 44
1.0
  0
MTEXT
  5
222E
330
2
100
AcDbEntity
  8
Layer4
100
AcDbMText
 10
327.9752529387187
 20
-413.8703201393271
 30
0.0
 40
30.0
 41
81.69299999999999
 71
     1
 72
     5
  1
(M105)
 73
     1
 44
1.0
  0
MTEXT
  5
222F
330
2
100
AcDbEntity
  8
Layer4
100
AcDbMText
 10
646.7818178406687
 20
-413.8703201393206
 30
0.0
 40
30.0
 41
81.69299999999999
 71
     1
 72
     5
  1
M110
 73
     1
 44
1.0
  0
MTEXT
  5
2230
330
2
100
AcDbEntity
  8
Layer4
100
AcDbMText
 10
927.9752529387188
 20
-413.8703201393268
 30
0.0
 40
30.0
 41
81.69299999999999
 71
     1
 72
     5
  1
(M115)
 73
     1
 44
1.0
  0
MTEXT
  5
2231
330
2
100
AcDbEntity
  8
Layer4
100
AcDbMText
 10
1246.781817840668
 20
-413.8703201393203
 30
0.0
 40
30.0
 41
81.69299999999999
 71
     1
 72
     5
  1
(M120)
 73
     1
 44
1.0
  0
MTEXT
  5
2233
330
2
100
AcDbEntity
  8
Layer4
100
AcDbMText
 10
1546.781817840668
 20
-413.8703201393201
 30
0.0
 40
30.0
 41
81.69299999999999
 71
     1
 72
     5
  1
M125
 73
     1
 44
1.0
  0
MTEXT
  5
2234
330
2
100
AcDbEntity
  8
Layer4
100
AcDbMText
 10
1827.975252938719
 20
-413.8703201393264
 30
0.0
 40
30.0
 41
81.69299999999999
 71
     1
 72
     5
  1
(M130)
 73
     1
 44
1.0
  0
MTEXT
  5
2235
330
2
100
AcDbEntity
  8
Layer4
100
AcDbMText
 10
2146.781817840668
 20
-413.8703201393199
 30
0.0
 40
30.0
 41
81.69299999999999
 71
     1
 72
     5
  1
M140
 73
     1
 44
1.0
  0
MTEXT
  5
2236
330
2
100
AcDbEntity
  8
Layer4
100
AcDbMText
 10
2427.975252938718
 20
-413.8703201393261
 30
0.0
 40
30.0
 41
81.69299999999999
 71
     1
 72
     5
  1
(M150)
 73
     1
 44
1.0
  0
CIRCLE
  5
223F
330
2
100
AcDbEntity
  8
Layer3
100
AcDbCircle
 10
-891.9304992925512
 20
-221.4433193887437
 30
0.0
 40
3.299999999999999
  0
CIRCLE
  5
2240
330
2
100
AcDbEntity
  8
Layer3
100
AcDbCircle
 10
-741.9304992925512
 20
-221.4433193887437
 30
0.0
 40
4.5
  0
CIRCLE
  5
2241
330
2
100
AcDbEntity
  8
Layer3
100
AcDbCircle
 10
-591.9304992925512
 20
-221.4433193887437
 30
0.0
 40
5.5
  0
CIRCLE
  5
2242
330
2
100
AcDbEntity
  8
Layer3
100
AcDbCircle
 10
-441.9304992925504
 20
-221.4433193887434
 30
0.0
 40
7.0
  0
CIRCLE
  5
2243
330
2
100
AcDbEntity
  8
Layer3
100
AcDbCircle
 10
-291.930499292551
 20
-221.4433193887437
 30
0.0
 40
8.0
  0
CIRCLE
  5
2244
330
2
100
AcDbEntity
  8
Layer3
100
AcDbCircle
 10
-141.9304992925511
 20
-221.4433193887437
 30
0.0
 40
9.0
  0
CIRCLE
  5
2245
330
2
100
AcDbEntity
  8
Layer3
100
AcDbCircle
 10
8.069500707449037
 20
-221.4433193887437
 30
0.0
 40
10.0
  0
CIRCLE
  5
2246
330
2
100
AcDbEntity
  8
Layer3
100
AcDbCircle
 10
158.0695007074489
 20
-221.4433193887437
 30
0.0
 40
11.0
  0
CIRCLE
  5
2247
330
2
100
AcDbEntity
  8
Layer3
100
AcDbCircle
 10
308.0695007074493
 20
-221.4433193887437
 30
0.0
 40
12.0
  0
CIRCLE
  5
2248
330
2
100
AcDbEntity
  8
Layer3
100
AcDbCircle
 10
458.0695007074494
 20
-221.4433193887437
 30
0.0
 40
13.0
  0
CIRCLE
  5
2249
330
2
100
AcDbEntity
  8
Layer3
100
AcDbCircle
 10
608.0695007074488
 20
-221.4433193887437
 30
0.0
 40
15.0
  0
CIRCLE
  5
224A
330
2
100
AcDbEntity
  8
Layer3
100
AcDbCircle
 10
758.0695007074488
 20
-221.4433193887437
 30
0.0
 40
16.5
  0
CIRCLE
  5
224B
330
2
100
AcDbEntity
  8
Layer3
100
AcDbCircle
 10
908.0695007074488
 20
-221.4433193887437
 30
0.0
 40
18.0
  0
CIRCLE
  5
224C
330
2
100
AcDbEntity
  8
Layer3
100
AcDbCircle
 10
1058.069500707448
 20
-221.4433193887437
 30
0.0
 40
19.5
  0
CIRCLE
  5
224D
330
2
100
AcDbEntity
  8
Layer3
100
AcDbCircle
 10
1208.069500707448
 20
-221.4433193887437
 30
0.0
 40
21.0
  0
CIRCLE
  5
224E
330
2
100
AcDbEntity
  8
Layer3
100
AcDbCircle
 10
1358.069500707449
 20
-221.4433193887437
 30
0.0
 40
22.5
  0
CIRCLE
  5
224F
330
2
100
AcDbEntity
  8
Layer3
100
AcDbCircle
 10
1508.069500707448
 20
-221.4433193887437
 30
0.0
 40
24.0
  0
CIRCLE
  5
2250
330
2
100
AcDbEntity
  8
Layer3
100
AcDbCircle
 10
1658.069500707449
 20
-221.4433193887437
 30
0.0
 40
26.0
  0
CIRCLE
  5
2251
330
2
100
AcDbEntity
  8
Layer3
100
AcDbCircle
 10
1808.069500707448
 20
-221.4433193887437
 30
0.0
 40
28.0
  0
CIRCLE
  5
2252
330
2
100
AcDbEntity
  8
Layer3
100
AcDbCircle
 10
1958.069500707448
 20
-221.4433193887437
 30
0.0
 40
31.0
  0
CIRCLE
  5
2253
330
2
100
AcDbEntity
  8
Layer3
100
AcDbCircle
 10
2108.069500707448
 20
-221.4433193887437
 30
0.0
 40
33.0
  0
CIRCLE
  5
2254
330
2
100
AcDbEntity
  8
Layer3
100
AcDbCircle
 10
2258.069500707449
 20
-221.4433193887436
 30
0.0
 40
35.0
  0
CIRCLE
  5
2255
330
2
100
AcDbEntity
  8
Layer3
100
AcDbCircle
 10
2408.069500707449
 20
-221.4433193887437
 30
0.0
 40
37.0
  0
CIRCLE
  5
2256
330
2
100
AcDbEntity
  8
Layer3
100
AcDbCircle
 10
-816.9304992925512
 20
-603.8771270438692
 30
0.0
 40
45.49999999999999
  0
CIRCLE
  5
2257
330
2
100
AcDbEntity
  8
Layer3
100
AcDbCircle
 10
-816.9304992925512
 20
-603.8771270438692
 30
0.0
 40
72.5
  0
LINE
  5
2258
330
2
100
AcDbEntity
  8
Layer3
100
AcDbLine
 10
-889.4304992925514
 20
-695.7190771523993
 30
0.0
 11
-744.4304992925513
 21
-695.7190771523994
 31
0.0
  0
LINE
  5
2259
330
2
100
AcDbEntity
  8
Layer3
100
AcDbLine
 10
-889.4304992925516
 20
-707.7190771523994
 30
0.0
 11
-744.4304992925513
 21
-707.7190771523993
 31
0.0
  0
LINE
  5
225A
330
2
100
AcDbEntity
  8
Layer3
100
AcDbLine
 10
-889.4304992925514
 20
-695.7190771523993
 30
0.0
 11
-889.4304992925516
 21
-707.7190771523994
 31
0.0
  0
LINE
  5
225B
330
2
100
AcDbEntity
  8
Layer3
100
AcDbLine
 10
-744.4304992925513
 20
-695.7190771523994
 30
0.0
 11
-744.4304992925513
 21
-707.7190771523993
 31
0.0
  0
CIRCLE
  5
225C
330
2
100
AcDbEntity
  8
Layer3
100
AcDbCircle
 10
-516.9304992925512
 20
-603.8771270438692
 30
0.0
 40
80.0
  0
CIRCLE
  5
225D
330
2
100
AcDbEntity
  8
Layer3
100
AcDbCircle
 10
-516.9304992925512
 20
-603.8771270438692
 30
0.0
 40
48.0
  0
LINE
  5
225E
330
2
100
AcDbEntity
  8
Layer3
100
AcDbLine
 10
-596.9304992925514
 20
-715.2190771523994
 30
0.0
 11
-436.9304992925513
 21
-715.2190771523993
 31
0.0
  0
LINE
  5
225F
330
2
100
AcDbEntity
  8
Layer3
100
AcDbLine
 10
-596.9304992925513
 20
-703.2190771523993
 30
0.0
 11
-436.9304992925513
 21
-703.2190771523994
 31
0.0
  0
LINE
  5
2260
330
2
100
AcDbEntity
  8
Layer3
100
AcDbLine
 10
-596.9304992925513
 20
-703.2190771523993
 30
0.0
 11
-596.9304992925514
 21
-715.2190771523994
 31
0.0
  0
LINE
  5
2261
330
2
100
AcDbEntity
  8
Layer3
100
AcDbLine
 10
-436.9304992925513
 20
-703.2190771523994
 30
0.0
 11
-436.9304992925513
 21
-715.2190771523993
 31
0.0
  0
CIRCLE
  5
2264
330
2
100
AcDbEntity
  8
Layer3
100
AcDbCircle
 10
-216.9304992925513
 20
-603.8771270438692
 30
0.0
 40
82.5
  0
CIRCLE
  5
2265
330
2
100
AcDbEntity
  8
Layer3
100
AcDbCircle
 10
-216.9304992925513
 20
-603.8771270438692
 30
0.0
 40
50.5
  0
LINE
  5
2266
330
2
100
AcDbEntity
  8
Layer3
100
AcDbLine
 10
-299.4304992925512
 20
-705.7190771523993
 30
0.0
 11
-134.4304992925513
 21
-705.7190771523993
 31
0.0
  0
LINE
  5
2267
330
2
100
AcDbEntity
  8
Layer3
100
AcDbLine
 10
-299.4304992925512
 20
-717.7190771523994
 30
0.0
 11
-134.4304992925512
 21
-717.7190771523993
 31
0.0
  0
LINE
  5
2268
330
2
100
AcDbEntity
  8
Layer3
100
AcDbLine
 10
-299.4304992925512
 20
-705.7190771523993
 30
0.0
 11
-299.4304992925512
 21
-717.7190771523994
 31
0.0
  0
LINE
  5
2269
330
2
100
AcDbEntity
  8
Layer3
100
AcDbLine
 10
-134.4304992925513
 20
-705.7190771523993
 30
0.0
 11
-134.4304992925512
 21
-717.7190771523993
 31
0.0
  0
CIRCLE
  5
226A
330
2
100
AcDbEntity
  8
Layer3
100
AcDbCircle
 10
83.0695007074487
 20
-603.8771270438692
 30
0.0
 40
87.5
  0
CIRCLE
  5
226B
330
2
100
AcDbEntity
  8
Layer3
100
AcDbCircle
 10
83.0695007074487
 20
-603.8771270438692
 30
0.0
 40
53.5
  0
LINE
  5
226C
330
2
100
AcDbEntity
  8
Layer3
100
AcDbLine
 10
-4.430499292551303
 20
-710.7190771523993
 30
0.0
 11
170.5695007074487
 21
-710.7190771523993
 31
0.0
  0
LINE
  5
226D
330
2
100
AcDbEntity
  8
Layer3
100
AcDbLine
 10
-4.430499292551303
 20
-724.7190771523993
 30
0.0
 11
170.5695007074487
 21
-724.7190771523993
 31
0.0
  0
LINE
  5
226E
330
2
100
AcDbEntity
  8
Layer3
100
AcDbLine
 10
-4.430499292551303
 20
-710.7190771523993
 30
0.0
 11
-4.430499292551303
 21
-724.7190771523993
 31
0.0
  0
LINE
  5
226F
330
2
100
AcDbEntity
  8
Layer3
100
AcDbLine
 10
170.5695007074487
 20
-710.7190771523993
 30
0.0
 11
170.5695007074487
 21
-724.7190771523993
 31
0.0
  0
CIRCLE
  5
2270
330
2
100
AcDbEntity
  8
Layer3
100
AcDbCircle
 10
383.0695007074487
 20
-603.8771270438692
 30
0.0
 40
56.0
  0
CIRCLE
  5
2271
330
2
100
AcDbEntity
  8
Layer3
100
AcDbCircle
 10
383.0695007074487
 20
-603.8771270438692
 30
0.0
 40
90.0
  0
LINE
  5
2272
330
2
100
AcDbEntity
  8
Layer3
100
AcDbLine
 10
293.0695007074486
 20
-727.2190771523993
 30
0.0
 11
473.0695007074486
 21
-727.2190771523993
 31
0.0
  0
LINE
  5
2273
330
2
100
AcDbEntity
  8
Layer3
100
AcDbLine
 10
293.0695007074486
 20
-713.2190771523994
 30
0.0
 11
473.0695007074487
 21
-713.2190771523992
 31
0.0
  0
LINE
  5
2274
330
2
100
AcDbEntity
  8
Layer3
100
AcDbLine
 10
293.0695007074486
 20
-713.2190771523994
 30
0.0
 11
293.0695007074486
 21
-727.2190771523993
 31
0.0
  0
LINE
  5
2275
330
2
100
AcDbEntity
  8
Layer3
100
AcDbLine
 10
473.0695007074487
 20
-713.2190771523992
 30
0.0
 11
473.0695007074486
 21
-727.2190771523993
 31
0.0
  0
CIRCLE
  5
2276
330
2
100
AcDbEntity
  8
Layer3
100
AcDbCircle
 10
683.0695007074487
 20
-603.8771270438692
 30
0.0
 40
58.5
  0
CIRCLE
  5
2277
330
2
100
AcDbEntity
  8
Layer3
100
AcDbCircle
 10
683.0695007074487
 20
-603.8771270438692
 30
0.0
 40
92.5
  0
LINE
  5
2278
330
2
100
AcDbEntity
  8
Layer3
100
AcDbLine
 10
590.5695007074487
 20
-729.7190771523994
 30
0.0
 11
775.5695007074487
 21
-729.7190771523993
 31
0.0
  0
LINE
  5
2279
330
2
100
AcDbEntity
  8
Layer3
100
AcDbLine
 10
590.5695007074487
 20
-715.7190771523994
 30
0.0
 11
775.5695007074487
 21
-715.7190771523993
 31
0.0
  0
LINE
  5
227A
330
2
100
AcDbEntity
  8
Layer3
100
AcDbLine
 10
590.5695007074487
 20
-715.7190771523994
 30
0.0
 11
590.5695007074487
 21
-729.7190771523994
 31
0.0
  0
LINE
  5
227B
330
2
100
AcDbEntity
  8
Layer3
100
AcDbLine
 10
775.5695007074487
 20
-715.7190771523993
 30
0.0
 11
775.5695007074487
 21
-729.7190771523993
 31
0.0
  0
CIRCLE
  5
227C
330
2
100
AcDbEntity
  8
Layer3
100
AcDbCircle
 10
983.0695007074485
 20
-603.8771270438691
 30
0.0
 40
61.0
  0
CIRCLE
  5
227D
330
2
100
AcDbEntity
  8
Layer3
100
AcDbCircle
 10
983.0695007074485
 20
-603.8771270438691
 30
0.0
 40
100.0
  0
LINE
  5
227E
330
2
100
AcDbEntity
  8
Layer3
100
AcDbLine
 10
883.0695007074485
 20
-737.2190771523993
 30
0.0
 11
1083.069500707448
 21
-737.2190771523992
 31
0.0
  0
LINE
  5
227F
330
2
100
AcDbEntity
  8
Layer3
100
AcDbLine
 10
883.0695007074485
 20
-723.2190771523992
 30
0.0
 11
1083.069500707448
 21
-723.2190771523992
 31
0.0
  0
LINE
  5
2280
330
2
100
AcDbEntity
  8
Layer3
100
AcDbLine
 10
883.0695007074485
 20
-723.2190771523992
 30
0.0
 11
883.0695007074485
 21
-737.2190771523993
 31
0.0
  0
LINE
  5
2281
330
2
100
AcDbEntity
  8
Layer3
100
AcDbLine
 10
1083.069500707448
 20
-723.2190771523992
 30
0.0
 11
1083.069500707448
 21
-737.2190771523992
 31
0.0
  0
CIRCLE
  5
2282
330
2
100
AcDbEntity
  8
Layer3
100
AcDbCircle
 10
1283.069500707448
 20
-603.8771270438691
 30
0.0
 40
63.5
  0
CIRCLE
  5
2283
330
2
100
AcDbEntity
  8
Layer3
100
AcDbCircle
 10
1283.069500707448
 20
-603.8771270438691
 30
0.0
 40
105.0
  0
LINE
  5
2284
330
2
100
AcDbEntity
  8
Layer3
100
AcDbLine
 10
1178.069500707449
 20
-728.2190771523992
 30
0.0
 11
1388.069500707448
 21
-728.2190771523992
 31
0.0
  0
LINE
  5
2285
330
2
100
AcDbEntity
  8
Layer3
100
AcDbLine
 10
1178.069500707449
 20
-744.2190771523993
 30
0.0
 11
1388.069500707448
 21
-744.2190771523992
 31
0.0
  0
LINE
  5
2286
330
2
100
AcDbEntity
  8
Layer3
100
AcDbLine
 10
1178.069500707449
 20
-728.2190771523992
 30
0.0
 11
1178.069500707449
 21
-744.2190771523993
 31
0.0
  0
LINE
  5
2287
330
2
100
AcDbEntity
  8
Layer3
100
AcDbLine
 10
1388.069500707448
 20
-728.2190771523992
 30
0.0
 11
1388.069500707448
 21
-744.2190771523992
 31
0.0
  0
CIRCLE
  5
2288
330
2
100
AcDbEntity
  8
Layer3
100
AcDbCircle
 10
1583.069500707448
 20
-603.8771270438691
 30
0.0
 40
66.0
  0
CIRCLE
  5
2289
330
2
100
AcDbEntity
  8
Layer3
100
AcDbCircle
 10
1583.069500707448
 20
-603.8771270438691
 30
0.0
 40
110.0
  0
LINE
  5
228A
330
2
100
AcDbEntity
  8
Layer3
100
AcDbLine
 10
1473.069500707448
 20
-749.2190771523992
 30
0.0
 11
1693.069500707448
 21
-749.2190771523992
 31
0.0
  0
LINE
  5
228B
330
2
100
AcDbEntity
  8
Layer3
100
AcDbLine
 10
1473.069500707448
 20
-733.2190771523991
 30
0.0
 11
1693.069500707448
 21
-733.2190771523991
 31
0.0
  0
LINE
  5
228C
330
2
100
AcDbEntity
  8
Layer3
100
AcDbLine
 10
1473.069500707448
 20
-733.2190771523991
 30
0.0
 11
1473.069500707448
 21
-749.2190771523992
 31
0.0
  0
LINE
  5
228D
330
2
100
AcDbEntity
  8
Layer3
100
AcDbLine
 10
1693.069500707448
 20
-733.2190771523991
 30
0.0
 11
1693.069500707448
 21
-749.2190771523992
 31
0.0
  0
CIRCLE
  5
228E
330
2
100
AcDbEntity
  8
Layer3
100
AcDbCircle
 10
1883.069500707448
 20
-603.8771270438691
 30
0.0
 40
68.5
  0
CIRCLE
  5
228F
330
2
100
AcDbEntity
  8
Layer3
100
AcDbCircle
 10
1883.069500707448
 20
-603.8771270438691
 30
0.0
 40
115.0
  0
LINE
  5
2290
330
2
100
AcDbEntity
  8
Layer3
100
AcDbLine
 10
1768.069500707448
 20
-754.2190771523991
 30
0.0
 11
1998.069500707448
 21
-754.2190771523991
 31
0.0
  0
LINE
  5
2291
330
2
100
AcDbEntity
  8
Layer3
100
AcDbLine
 10
1768.069500707448
 20
-738.219077152399
 30
0.0
 11
1998.069500707448
 21
-738.219077152399
 31
0.0
  0
LINE
  5
2292
330
2
100
AcDbEntity
  8
Layer3
100
AcDbLine
 10
1768.069500707448
 20
-738.219077152399
 30
0.0
 11
1768.069500707448
 21
-754.2190771523991
 31
0.0
  0
LINE
  5
2293
330
2
100
AcDbEntity
  8
Layer3
100
AcDbLine
 10
1998.069500707448
 20
-738.219077152399
 30
0.0
 11
1998.069500707448
 21
-754.2190771523991
 31
0.0
  0
CIRCLE
  5
2294
330
2
100
AcDbEntity
  8
Layer3
100
AcDbCircle
 10
2183.069500707448
 20
-603.8771270438691
 30
0.0
 40
73.5
  0
CIRCLE
  5
2295
330
2
100
AcDbEntity
  8
Layer3
100
AcDbCircle
 10
2183.069500707448
 20
-603.8771270438691
 30
0.0
 40
120.0
  0
LINE
  5
2296
330
2
100
AcDbEntity
  8
Layer3
100
AcDbLine
 10
2063.069500707448
 20
-743.2190771523991
 30
0.0
 11
2303.069500707449
 21
-743.2190771523991
 31
0.0
  0
LINE
  5
2297
330
2
100
AcDbEntity
  8
Layer3
100
AcDbLine
 10
2063.069500707448
 20
-761.219077152399
 30
0.0
 11
2303.069500707449
 21
-761.2190771523992
 31
0.0
  0
LINE
  5
2298
330
2
100
AcDbEntity
  8
Layer3
100
AcDbLine
 10
2063.069500707448
 20
-743.2190771523991
 30
0.0
 11
2063.069500707448
 21
-761.219077152399
 31
0.0
  0
LINE
  5
2299
330
2
100
AcDbEntity
  8
Layer3
100
AcDbLine
 10
2303.069500707449
 20
-743.2190771523991
 30
0.0
 11
2303.069500707449
 21
-761.2190771523992
 31
0.0
  0
CIRCLE
  5
229A
330
2
100
AcDbEntity
  8
Layer3
100
AcDbCircle
 10
2483.069500707449
 20
-603.8771270438691
 30
0.0
 40
79.0
  0
CIRCLE
  5
229B
330
2
100
AcDbEntity
  8
Layer3
100
AcDbCircle
 10
2483.069500707449
 20
-603.8771270438691
 30
0.0
 40
125.0
  0
LINE
  5
229C
330
2
100
AcDbEntity
  8
Layer3
100
AcDbLine
 10
2358.069500707448
 20
-766.2190771523988
 30
0.0
 11
2608.069500707449
 21
-766.2190771523993
 31
0.0
  0
LINE
  5
229D
330
2
100
AcDbEntity
  8
Layer3
100
AcDbLine
 10
2358.069500707448
 20
-748.2190771523991
 30
0.0
 11
2608.069500707448
 21
-748.2190771523991
 31
0.0
  0
LINE
  5
229E
330
2
100
AcDbEntity
  8
Layer3
100
AcDbLine
 10
2358.069500707448
 20
-748.2190771523991
 30
0.0
 11
2358.069500707448
 21
-766.2190771523988
 31
0.0
  0
LINE
  5
229F
330
2
100
AcDbEntity
  8
Layer3
100
AcDbLine
 10
2608.069500707448
 20
-748.2190771523991
 30
0.0
 11
2608.069500707449
 21
-766.2190771523993
 31
0.0
  0
ENDSEC
  0
SECTION
  2
OBJECTS
  0
DICTIONARY
  5
1B
330
0
100
AcDbDictionary
281
     1
  3
ACAD_GROUP
350
19
  3
ACAD_LAYOUT
350
2E
  3
ACAD_MLINESTYLE
350
1A
  3
ACAD_PLOTSETTINGS
350
2F
  3
ACAD_PLOTSTYLENAME
350
2C
  0
DICTIONARY
  5
3A6
330
2
100
AcDbDictionary
280
     1
281
     1
  3
ACAD_LAYOUTSELFREF
360
1506
  0
DICTIONARY
  5
3A8
330
8
100
AcDbDictionary
280
     1
281
     1
  3
ACAD_LAYOUTSELFREF
360
1507
  0
DICTIONARY
  5
19
102
{ACAD_REACTORS
330
1B
102
}
330
1B
100
AcDbDictionary
281
     1
  0
DICTIONARY
  5
2E
102
{ACAD_REACTORS
330
1B
102
}
330
1B
100
AcDbDictionary
281
     1
  3
Layout1
350
150D
  3
Model
350
150C
  0
DICTIONARY
  5
1A
102
{ACAD_REACTORS
330
1B
102
}
330
1B
100
AcDbDictionary
281
     1
  3
STANDARD
350
1C
  0
DICTIONARY
  5
2F
102
{ACAD_REACTORS
330
1B
102
}
330
1B
100
AcDbDictionary
281
     1
  0
ACDBDICTIONARYWDFLT
  5
2C
102
{ACAD_REACTORS
330
1B
102
}
330
1B
100
AcDbDictionary
281
     1
  3
Normal
350
2D
100
AcDbDictionaryWithDefault
340
2D
  0
XRECORD
  5
1506
102
{ACAD_REACTORS
330
3A6
102
}
330
3A6
100
AcDbXrecord
280
     1
340
2
  0
XRECORD
  5
1507
102
{ACAD_REACTORS
330
3A8
102
}
330
3A8
100
AcDbXrecord
280
     1
340
8
  0
LAYOUT
  5
150D
102
{ACAD_REACTORS
330
2E
102
}
330
2E
100
AcDbPlotSettings
  1

  2
None
  4

  6

 40
0.0
 41
0.0
 42
0.0
 43
0.0
 44
0.0
 45
0.0
 46
0.0
 47
0.0
 48
0.0
 49
0.0
140
0.0
141
0.0
142
1.0
143
1.0
 70
   688
 72
     0
 73
     0
 74
     5
  7
monochrome.ctb
 75
    16
147
1.0
148
0.0
149
0.0
100
AcDbLayout
  1
Layout1
 70
     1
 71
     1
 10
0.0
 20
0.0
 11
420.0
 21
297.0
 12
0.0
 22
0.0
 32
0.0
 14
0.0
 24
0.0
 34
0.0
 15
420.0000000000001
 25
302.7225130890052
 35
0.0
146
0.0
 13
0.0
 23
0.0
 33
0.0
 16
1.0
 26
0.0
 36
0.0
 17
0.0
 27
1.0
 37
0.0
 76
     0
330
8
  0
LAYOUT
  5
150C
102
{ACAD_REACTORS
330
2E
102
}
330
2E
100
AcDbPlotSettings
  1

  2
EPSON LP-9100
  4
A3
  6

 40
5.873749732971191
 41
5.873747825622558
 42
5.873748779296875
 43
5.873748779296875
 44
419.9466552734374
 45
297.0106506347656
 46
0.0
 47
0.0
 48
-636.3403812252673
 49
-424.5231982785312
140
2593.566480477476
141
1156.830087078293
142
1.0
143
7.912576026198183
 70
 11952
 72
     1
 73
     0
 74
     4
  7
monochrome.ctb
 75
     0
147
0.126381092161269
148
636.3403812252673
149
424.5231982785312
100
AcDbLayout
  1
Model
 70
     1
 71
     0
 10
0.0
 20
0.0
 11
12.0
 21
9.0
 12
0.0
 22
0.0
 32
0.0
 14
0.0
 24
0.0
 34
0.0
 15
0.0
 25
0.0
 35
0.0
146
0.0
 13
0.0
 23
0.0
 33
0.0
 16
1.0
 26
0.0
 36
0.0
 17
0.0
 27
1.0
 37
0.0
 76
     0
330
2
  0
MLINESTYLE
  5
1C
102
{ACAD_REACTORS
330
1A
102
}
330
1A
100
AcDbMlineStyle
  2
STANDARD
 70
     0
  3

 62
     0
 51
90.0
 52
90.0
 71
     2
 49
0.5
 62
   256
  6
BYLAYER
 49
-0.5
 62
   256
  6
BYLAYER
  0
ACDBPLACEHOLDER
  5
2D
102
{ACAD_REACTORS
330
2C
102
}
330
2C
  0
ENDSEC
  0
EOF
