  0
SECTION
  2
HEADER
  9
$ACADVER
  1
AC1009
  9
$INSBASE
 10
0.0
 20
0.0
 30
0.0
  9
$EXTMIN
 10
227.16403362988959
 20
139.63256949981741
 30
-0.0000000349181948
  9
$EXTMAX
 10
369.73635976451482
 20
278.7332161454637
 30
0.0000000814935746
  9
$LIMMIN
 10
0.0
 20
0.0
  9
$LIMMAX
 10
594.0
 20
420.0
  9
$ORTHOMODE
 70
     0
  9
$REGENMODE
 70
     1
  9
$FILLMODE
 70
     1
  9
$QTEXTMODE
 70
     0
  9
$MIRRTEXT
 70
     1
  9
$DRAGMODE
 70
     2
  9
$LTSCALE
 40
1.0
  9
$OSMODE
 70
    37
  9
$ATTMODE
 70
     1
  9
$TEXTSIZE
 40
0.2
  9
$TRACEWID
 40
0.05
  9
$TEXTSTYLE
  7
KANJI
  9
$CLAYER
  8
0
  9
$CELTYPE
  6
BYLAYER
  9
$CECOLOR
 62
   256
  9
$DIMSCALE
 40
1.0
  9
$DIMASZ
 40
2.0
  9
$DIMEXO
 40
1.0
  9
$DIMDLI
 40
8.0
  9
$DIMRND
 40
0.0
  9
$DIMDLE
 40
0.0
  9
$DIMEXE
 40
1.0
  9
$DIMTP
 40
0.0
  9
$DIMTM
 40
0.0
  9
$DIMTXT
 40
3.2000000000000002
  9
$DIMCEN
 40
0.09
  9
$DIMTSZ
 40
0.0
  9
$DIMTOL
 70
     0
  9
$DIMLIM
 70
     0
  9
$DIMTIH
 70
     0
  9
$DIMTOH
 70
     0
  9
$DIMSE1
 70
     0
  9
$DIMSE2
 70
     0
  9
$DIMTAD
 70
     1
  9
$DIMZIN
 70
     0
  9
$DIMBLK
  1

  9
$DIMASO
 70
     1
  9
$DIMSHO
 70
     0
  9
$DIMPOST
  1

  9
$DIMAPOST
  1

  9
$DIMALT
 70
     0
  9
$DIMALTD
 70
     2
  9
$DIMALTF
 40
25.399999999999999
  9
$DIMLFAC
 40
1.0
  9
$DIMTOFL
 70
     0
  9
$DIMTVP
 40
0.0
  9
$DIMTIX
 70
     0
  9
$DIMSOXD
 70
     0
  9
$DIMSAH
 70
     0
  9
$DIMBLK1
  1

  9
$DIMBLK2
  1

  9
$DIMSTYLE
  2
STANDARD
  9
$DIMCLRD
 70
     0
  9
$DIMCLRE
 70
     0
  9
$DIMCLRT
 70
     0
  9
$DIMTFAC
 40
1.0
  9
$DIMGAP
 40
0.09
  9
$LUNITS
 70
     2
  9
$LUPREC
 70
     2
  9
$SKETCHINC
 40
0.1
  9
$FILLETRAD
 40
0.0
  9
$AUNITS
 70
     1
  9
$AUPREC
 70
     2
  9
$MENU
  1
ACAD
  9
$ELEVATION
 40
0.0
  9
$PELEVATION
 40
0.0
  9
$THICKNESS
 40
0.0
  9
$LIMCHECK
 70
     0
  9
$BLIPMODE
 70
     0
  9
$CHAMFERA
 40
0.0
  9
$CHAMFERB
 40
0.0
  9
$SKPOLY
 70
     0
  9
$TDCREATE
 40
2452436.3791950229
  9
$TDUPDATE
 40
2452800.5280584488
  9
$TDINDWG
 40
0.3046502083
  9
$TDUSRTIMER
 40
0.3046502083
  9
$USRTIMER
 70
     1
  9
$ANGBASE
 50
0.0
  9
$ANGDIR
 70
     0
  9
$PDMODE
 70
     0
  9
$PDSIZE
 40
0.0
  9
$PLINEWID
 40
0.0
  9
$COORDS
 70
     1
  9
$SPLFRAME
 70
     0
  9
$SPLINETYPE
 70
     6
  9
$SPLINESEGS
 70
     8
  9
$ATTDIA
 70
     0
  9
$ATTREQ
 70
     1
  9
$HANDLING
 70
 10241
  9
$HANDSEED
  5
326
  9
$SURFTAB1
 70
     6
  9
$SURFTAB2
 70
     6
  9
$SURFTYPE
 70
     6
  9
$SURFU
 70
     6
  9
$SURFV
 70
     6
  9
$UCSNAME
  2

  9
$UCSORG
 10
0.0
 20
0.0
 30
0.0
  9
$UCSXDIR
 10
1.0
 20
0.0
 30
0.0
  9
$UCSYDIR
 10
0.0
 20
1.0
 30
0.0
  9
$PUCSNAME
  2

  9
$PUCSORG
 10
0.0
 20
0.0
 30
0.0
  9
$PUCSXDIR
 10
1.0
 20
0.0
 30
0.0
  9
$PUCSYDIR
 10
0.0
 20
1.0
 30
0.0
  9
$USERI1
 70
     0
  9
$USERI2
 70
     0
  9
$USERI3
 70
     0
  9
$USERI4
 70
     0
  9
$USERI5
 70
     0
  9
$USERR1
 40
0.0
  9
$USERR2
 40
0.0
  9
$USERR3
 40
0.0
  9
$USERR4
 40
0.0
  9
$USERR5
 40
0.0
  9
$WORLDVIEW
 70
     1
  9
$SHADEDGE
 70
     3
  9
$SHADEDIF
 70
    70
  9
$TILEMODE
 70
     1
  9
$MAXACTVP
 70
    48
  9
$PLIMCHECK
 70
     0
  9
$PEXTMIN
 10
1.0000000000000000E+020
 20
1.0000000000000000E+020
 30
1.0000000000000000E+020
  9
$PEXTMAX
 10
-1.0000000000000000E+020
 20
-1.0000000000000000E+020
 30
-1.0000000000000000E+020
  9
$PLIMMIN
 10
0.0
 20
0.0
  9
$PLIMMAX
 10
12.0
 20
9.0
  9
$UNITMODE
 70
     0
  9
$VISRETAIN
 70
     1
  9
$PLINEGEN
 70
     0
  9
$PSLTSCALE
 70
     1
  0
ENDSEC
  0
SECTION
  2
TABLES
  0
TABLE
  2
VPORT
 70
     3
  0
VPORT
  2
*ACTIVE
 70
     0
 10
0.0
 20
0.0
 11
1.0
 21
1.0
 12
303.49283722281751
 22
230.0515860869464
 13
0.0
 23
0.0
 14
1.0
 24
1.0
 15
0.0
 25
0.0
 16
0.0
 26
0.0
 36
1.0
 17
0.0
 27
0.0
 37
0.0
 40
240.9380870397155
 41
1.40034965034965
 42
50.0
 43
0.0
 44
0.0
 50
0.0
 51
0.0
 71
     0
 72
   100
 73
     1
 74
     1
 75
     0
 76
     0
 77
     0
 78
     0
  0
ENDTAB
  0
TABLE
  2
LTYPE
 70
     2
  0
LTYPE
  2
CONTINUOUS
 70
     0
  3
Solid line
 72
    65
 73
     0
 40
0.0
  0
LTYPE
  2
CENTER
 70
     0
  3
____ _ ____ _ ____ _ ____ _ ____ _ ____ _ ____
 72
    65
 73
     4
 40
2.0
 49
1.25
 49
-0.25
 49
0.25
 49
-0.25
  0
ENDTAB
  0
TABLE
  2
LAYER
 70
     4
  0
LAYER
  2
0
 70
     0
 62
     7
  6
CONTINUOUS
  0
LAYER
  2
LINE
 70
     0
 62
     7
  6
CONTINUOUS
  0
LAYER
  2
SUNPOU
 70
     0
 62
     7
  6
CONTINUOUS
  0
LAYER
  2
CENTER
 70
     0
 62
     7
  6
CONTINUOUS
  0
ENDTAB
  0
TABLE
  2
STYLE
 70
     2
  0
STYLE
  2
STANDARD
 70
     0
 40
0.0
 41
1.0
 50
0.0
 71
     0
 42
0.2
  3
TXT
  4
BIGFONT
  0
STYLE
  2
KANJI
 70
     0
 40
4.5
 41
1.0
 50
0.0
 71
     0
 42
0.2
  3
TXT
  4
BIGFONT
  0
ENDTAB
  0
TABLE
  2
VIEW
 70
     0
  0
ENDTAB
  0
TABLE
  2
UCS
 70
     0
  0
ENDTAB
  0
TABLE
  2
APPID
 70
     1
  0
APPID
  2
ACAD
 70
     0
  0
ENDTAB
  0
TABLE
  2
DIMSTYLE
 70
     1
  0
DIMSTYLE
  2
STANDARD
 70
     0
  3

  4

  5

  6

  7

 40
1.0
 41
0.18
 42
0.0625
 43
0.38
 44
0.18
 45
0.0
 46
0.0
 47
0.0
 48
0.0
140
0.18
141
0.09
142
0.0
143
25.399999999999999
144
1.0
145
0.0
146
1.0
147
0.09
 71
     0
 72
     0
 73
     1
 74
     1
 75
     0
 76
     0
 77
     0
 78
     0
170
     0
171
     2
172
     0
173
     0
174
     0
175
     0
176
     0
177
     0
178
     0
  0
ENDTAB
  0
ENDSEC
  0
SECTION
  2
BLOCKS
  0
BLOCK
  8
0
  2
$MODEL_SPACE
 70
     0
 10
0.0
 20
0.0
 30
0.0
  3
$MODEL_SPACE
  1

  0
ENDBLK
  5
1A
  8
0
  0
BLOCK
 67
     1
  8
0
  2
$PAPER_SPACE
 70
     0
 10
0.0
 20
0.0
 30
0.0
  3
$PAPER_SPACE
  1

  0
ENDBLK
  5
17
 67
     1
  8
0
  0
BLOCK
  8
0
  2
*X0
 70
     1
 10
0.0
 20
0.0
 30
0.0
  3
*X0
  1

  0
LINE
  5
2FD
  8
0
 62
     0
 10
360.03053359994777
 20
239.8223807982348
 30
0.0
 11
361.96614077379991
 21
241.7579879720868
 31
0.0
  0
LINE
  5
2FE
  8
0
 62
     0
 10
359.00326577585918
 20
239.6789964506292
 30
0.0
 11
361.77935415360218
 21
242.45508482837221
 31
0.0
  0
LINE
  5
2FF
  8
0
 62
     0
 10
358.81647919622043
 20
240.37609334747361
 30
0.0
 11
361.59256753340441
 21
243.15218168465771
 31
0.0
  0
LINE
  5
300
  8
0
 62
     0
 10
358.43794729172231
 20
240.8814449194588
 30
0.0
 11
361.40578091320663
 21
243.84927854094309
 31
0.0
  0
LINE
  5
301
  8
0
 62
     0
 10
356.2635886469393
 20
238.70708627467579
 30
0.0
 11
356.39999999999998
 21
238.84349762773641
 31
0.0
  0
LINE
  5
302
  8
0
 62
     0
 10
357.168570179526
 20
240.4959512837456
 30
0.0
 11
361.2189942930089
 21
244.5463753972285
 31
0.0
  0
LINE
  5
303
  8
0
 62
     0
 10
355.294282874972
 20
238.62166397919151
 30
0.0
 11
356.39999999999998
 21
239.7273811042196
 31
0.0
  0
LINE
  5
304
  8
0
 62
     0
 10
354.69999999999999
 20
238.91126458070281
 30
0.0
 11
361.02664581032701
 21
245.2379103910298
 31
0.0
  0
LINE
  5
305
  8
0
 62
     0
 10
354.39970080343659
 20
238.6109653841394
 30
0.0
 11
354.69999999999999
 21
238.91126458070281
 31
0.0
  0
LINE
  5
306
  8
0
 62
     0
 10
354.69999999999999
 20
239.795148057186
 30
0.0
 11
360.68048912864231
 21
245.77563718582829
 31
0.0
  0
LINE
  5
307
  8
0
 62
     0
 10
353.56466116977907
 20
238.65980922696519
 30
0.0
 11
354.69999999999999
 21
239.795148057186
 31
0.0
  0
LINE
  5
308
  8
0
 62
     0
 10
354.69999999999999
 20
240.6790315336691
 30
0.0
 11
360.14141750905389
 21
246.12044904272301
 31
0.0
  0
LINE
  5
309
  8
0
 62
     0
 10
353.0
 20
238.9790315336692
 30
0.0
 11
354.69999999999999
 21
240.6790315336691
 31
0.0
  0
LINE
  5
30A
  8
0
 62
     0
 10
354.69999999999999
 20
241.5629150101523
 30
0.0
 11
359.32003080661292
 21
246.1829458167652
 31
0.0
  0
LINE
  5
30B
  8
0
 62
     0
 10
353.0
 20
239.86291501015231
 30
0.0
 11
354.69999999999999
 21
241.5629150101523
 31
0.0
  0
LINE
  5
30C
  8
0
 62
     0
 10
354.69999999999999
 20
242.44679848663549
 30
0.0
 11
357.87938820197797
 21
245.62618668861359
 31
0.0
  0
LINE
  5
30D
  8
0
 62
     0
 10
352.6572937953444
 20
240.4040922819799
 30
0.0
 11
354.69999999999999
 21
242.44679848663549
 31
0.0
  0
LINE
  5
30E
  8
0
 62
     0
 10
354.69999999999999
 20
243.33068196311871
 30
0.0
 11
356.67323217286838
 21
245.3039141359871
 31
0.0
  0
LINE
  5
30F
  8
0
 62
     0
 10
351.93897889098179
 20
240.5696608541005
 30
0.0
 11
354.69999999999999
 21
243.33068196311871
 31
0.0
  0
LINE
  5
310
  8
0
 62
     0
 10
351.26058536813002
 20
240.7751508077319
 30
0.0
 11
354.69999999999999
 21
244.21456543960181
 31
0.0
  0
LINE
  5
311
  8
0
 62
     0
 10
354.69999999999999
 20
244.21456543960181
 30
0.0
 11
355.63670061788241
 21
245.15126605748421
 31
0.0
  0
LINE
  5
312
  8
0
 62
     0
 10
350.01848851926479
 20
239.5330539588667
 30
0.0
 11
350.48176311960611
 21
239.99632855920791
 31
0.0
  0
LINE
  5
313
  8
0
 62
     0
 10
354.69999999999999
 20
245.09844891608509
 30
0.0
 11
354.70885400358469
 21
245.10730291966979
 31
0.0
  0
LINE
  5
314
  8
0
 62
     0
 10
349.4062962813407
 20
239.80474519742589
 30
0.0
 11
354.69999999999999
 21
245.09844891608509
 31
0.0
  0
LINE
  5
315
  8
0
 62
     0
 10
348.82095011257411
 20
240.10328250514229
 30
0.0
 11
353.86028503788788
 21
245.1426174304562
 31
0.0
  0
LINE
  5
316
  8
0
 62
     0
 10
348.26108462178161
 20
240.42730049083301
 30
0.0
 11
353.0741394557017
 21
245.2403553247531
 31
0.0
  0
LINE
  5
317
  8
0
 62
     0
 10
347.7256458003796
 20
240.7757451459143
 30
0.0
 11
352.33973376553831
 21
245.38983311107299
 31
0.0
  0
LINE
  5
318
  8
0
 62
     0
 10
347.29105582279959
 20
241.22503864481749
 30
0.0
 11
351.64984296406737
 21
245.58382578608521
 31
0.0
  0
LINE
  5
319
  8
0
 62
     0
 10
347.61457981966612
 20
242.43244611816709
 30
0.0
 11
350.99936720548772
 21
245.8172335039886
 31
0.0
  0
LINE
  5
31A
  8
0
 62
     0
 10
348.40807752616161
 20
244.1098273011458
 30
0.0
 11
350.38414569743128
 21
246.08589547241539
 31
0.0
  0
LINE
  5
31B
  8
0
 62
     0
 10
347.93810381653259
 20
243.6398535915167
 30
0.0
 11
348.40807752616121
 21
244.1098273011454
 31
0.0
  0
LINE
  5
31C
  8
0
 62
     0
 10
348.261627813399
 20
244.8472610648663
 30
0.0
 11
349.61939396777052
 21
246.20502721923791
 31
0.0
  0
ENDBLK
  5
31E
  8
0
  0
BLOCK
  8
0
  2
*X1
 70
     1
 10
0.0
 20
0.0
 30
0.0
  3
*X1
  1

  0
LINE
  5
320
  8
0
 62
     0
 10
254.43765810021421
 20
239.41163900000001
 30
0.0
 11
254.5
 21
239.4739808997858
 31
0.0
  0
LINE
  5
321
  8
0
 62
     0
 10
253.5537746237309
 20
239.41163899999989
 30
0.0
 11
254.5
 21
240.35786437626899
 31
0.0
  0
LINE
  5
322
  8
0
 62
     0
 10
253.30000000000001
 20
240.0417478527522
 30
0.0
 11
254.3702551472478
 21
241.1120029999999
 31
0.0
  0
LINE
  5
323
  8
0
 62
     0
 10
253.30000000000001
 20
240.9256313292353
 30
0.0
 11
253.4863716707645
 21
241.1120029999999
 31
0.0
  0
ENDBLK
  5
325
  8
0
  0
ENDSEC
  0
SECTION
  2
ENTITIES
  0
TEXT
  5
145
  8
SUNPOU
 10
332.60797845514543
 20
139.30945433258029
 30
0.0
 40
5.0
  1
ÇqÇuÇQÇSÇxÇm
  0
LINE
  5
14A
  8
0
  6
CENTER
 10
344.69999999999999
 20
248.29495
 30
0.0
 11
344.69999999999999
 21
253.573386
 31
0.0
  0
LINE
  5
14B
  8
LINE
  6
CONTINUOUS
 10
255.5
 20
239.41163900000001
 30
0.0
 11
253.30000000000001
 21
239.41163900000001
 31
0.0
1001
ACAD
1000
ASC_BOUNDS
1002
{
1070
    19
1005
2C8
1002
}
  0
LINE
  5
14C
  8
LINE
  6
CONTINUOUS
 10
255.5
 20
241.1120029999999
 30
0.0
 11
253.0
 21
241.1120029999999
 31
0.0
1001
ACAD
1000
ASC_BOUNDS
1002
{
1070
    19
1005
2C8
1002
}
  0
LINE
  5
14D
  8
LINE
  6
CONTINUOUS
 10
253.0
 20
234.58328499999999
 30
0.0
 11
253.30000000000001
 21
234.58328499999999
 31
0.0
  0
LINE
  5
14E
  8
LINE
  6
CONTINUOUS
 10
253.0
 20
237.43938299999999
 30
0.0
 11
253.30000000000001
 21
237.43938299999999
 31
0.0
  0
ARC
  5
14F
  8
SUNPOU
  6
CONTINUOUS
 10
354.69999999999999
 20
250.90729899999999
 30
0.0
 40
19.0
 50
224.0342609999999
 51
245.24930099999989
  0
LINE
  5
150
  8
CENTER
  6
CENTER
 10
339.69999999999987
 20
250.90729899999999
 30
0.0
 11
369.69999999999999
 21
250.90729899999999
 31
0.0
  0
LINE
  5
151
  8
LINE
  6
CONTINUOUS
 10
253.0
 20
232.58442400000001
 30
0.0
 11
253.30000000000001
 21
232.58442400000001
 31
0.0
  0
LINE
  5
152
  8
0
  6
CONTINUOUS
 10
275.0
 20
253.90729899999999
 30
0.0
 11
265.5
 21
253.90729899999999
 31
0.0
  0
LINE
  5
153
  8
LINE
  6
CONTINUOUS
 10
253.0
 20
233.431118
 30
0.0
 11
253.30000000000001
 21
233.431118
 31
0.0
  0
LINE
  5
154
  8
LINE
  6
CONTINUOUS
 10
253.0
 20
231.90729899999999
 30
0.0
 11
253.30000000000001
 21
231.90729899999999
 31
0.0
  0
ARC
  5
155
  8
0
  6
CONTINUOUS
 10
354.69999999999999
 20
250.90729899999999
 30
0.0
 40
2.5
 50
191.536959
 51
348.46304099999998
  0
ARC
  5
156
  8
SUNPOU
  6
CONTINUOUS
 10
354.69999999999999
 20
250.90729899999999
 30
0.0
 40
12.300000000000001
 50
262.99527399999988
 51
277.00472600000001
1001
ACAD
1000
ASC_BOUNDS
1002
{
1070
    19
1005
2C2
1005
2C2
1002
}
  0
ARC
  5
157
  8
SUNPOU
  6
CONTINUOUS
 10
354.69999999999999
 20
250.90729899999999
 30
0.0
 40
12.300000000000001
 50
291.77264300000002
 51
306.21276599999987
1001
ACAD
1000
ASC_BOUNDS
1002
{
1070
    19
1005
2C2
1002
}
  0
ARC
  5
158
  8
SUNPOU
  6
CONTINUOUS
 10
354.69999999999999
 20
250.90729899999999
 30
0.0
 40
12.300000000000001
 50
233.7872339999999
 51
248.2273569999999
1001
ACAD
1000
ASC_BOUNDS
1002
{
1070
    19
1005
2C2
1002
}
  0
LINE
  5
159
  8
LINE
  6
CONTINUOUS
 10
253.30000000000001
 20
231.90729899999999
 30
0.0
 11
253.30000000000001
 21
241.1120029999999
 31
0.0
1001
ACAD
1000
ASC_BOUNDS
1002
{
1070
    19
1005
2C8
1002
}
  0
ARC
  5
15A
  8
LINE
  6
CONTINUOUS
 10
354.69999999999999
 20
250.90729899999999
 30
0.0
 40
10.699999999999999
 50
279.14180699999991
 51
291.71164700000003
1001
ACAD
1000
ASC_BOUNDS
1002
{
1070
    19
1005
2C2
1002
}
  0
ARC
  5
15B
  8
LINE
  6
CONTINUOUS
 10
354.69999999999999
 20
250.90729899999999
 30
0.0
 40
12.300000000000001
 50
277.00472600000001
 51
291.77264300000002
1001
ACAD
1000
ASC_BOUNDS
1002
{
1070
    19
1005
2C2
1002
}
  0
ARC
  5
15C
  8
LINE
  6
CONTINUOUS
 10
354.69999999999999
 20
250.90729899999999
 30
0.0
 40
12.300000000000001
 50
248.2273569999999
 51
262.99527399999988
1001
ACAD
1000
ASC_BOUNDS
1002
{
1070
    19
1005
2C2
1002
}
  0
LINE
  5
15D
  8
LINE
  6
CONTINUOUS
 10
346.93203499999993
 20
239.112416
 30
0.0
 11
347.43333899999988
 21
240.98330599999991
 31
0.0
  0
LINE
  5
15E
  8
LINE
  6
CONTINUOUS
 10
349.829813
 20
238.33595899999989
 30
0.0
 11
350.137629
 21
239.48474399999989
 31
0.0
  0
ARC
  5
15F
  8
LINE
  6
CONTINUOUS
 10
350.0886319999999
 20
237.37003300000001
 30
0.0
 40
1.0
 50
105.0
 51
225.0
  0
ARC
  5
160
  8
LINE
  6
CONTINUOUS
 10
346.22492899999997
 20
238.40530899999999
 30
0.0
 40
1.0
 50
285.0
 51
45.0
  0
LINE
  5
161
  8
LINE
  6
CONTINUOUS
 10
346.48374799999988
 20
237.43938299999999
 30
0.0
 11
345.71845799999988
 21
234.58328499999999
 31
0.0
  0
LINE
  5
162
  8
LINE
  6
CONTINUOUS
 10
346.61409600000002
 20
235.0280709999999
 30
0.0
 11
346.956481
 21
236.30587
 31
0.0
  0
ARC
  5
163
  8
LINE
  6
CONTINUOUS
 10
347.50973299999998
 20
235.47285600000001
 30
0.0
 40
1.0
 50
26.409621999999999
 51
123.590378
  0
LINE
  5
164
  8
LINE
  6
CONTINUOUS
 10
348.06298399999991
 20
234.6398419999999
 30
0.0
 11
348.40537
 21
235.917642
 31
0.0
  0
LINE
  5
165
  8
0
  6
CONTINUOUS
 10
351.74196000000001
 20
250.40729899999999
 30
0.0
 11
357.65803999999991
 21
250.40729899999999
 31
0.0
  0
ARC
  5
166
  8
LINE
  6
CONTINUOUS
 10
347.50973299999998
 20
235.47285600000001
 30
0.0
 40
1.0
 50
206.4096219999999
 51
303.59037799999987
  0
LINE
  5
167
  8
0
  6
CONTINUOUS
 10
351.74196000000001
 20
251.40729899999999
 30
0.0
 11
357.65803999999991
 21
251.40729899999999
 31
0.0
  0
LINE
  5
168
  8
LINE
  6
CONTINUOUS
 10
349.38152500000001
 20
236.66292599999991
 30
0.0
 11
348.61623600000001
 21
233.80682799999991
 31
0.0
  0
ARC
  5
169
  8
LINE
  6
CONTINUOUS
 10
347.50973299999998
 20
235.47285600000001
 30
0.0
 40
2.0
 50
206.4096219999999
 51
303.59037799999987
  0
ARC
  5
16A
  8
0
  6
CONTINUOUS
 10
354.69999999999999
 20
250.90729899999999
 30
0.0
 40
2.5
 50
11.536958999999991
 51
168.463041
  0
LINE
  5
16B
  8
0
  6
CONTINUOUS
 10
275.49999999999989
 20
248.40729899999999
 30
0.0
 11
275.49999999999989
 21
250.40729899999999
 31
0.0
  0
CIRCLE
  5
16D
  8
0
  6
CONTINUOUS
 10
354.69999999999999
 20
250.90729899999999
 30
0.0
 40
3.0
  0
LINE
  5
171
  8
LINE
  6
CONTINUOUS
 10
353.19999999999999
 20
237.273325
 30
0.0
 11
353.19999999999999
 21
238.69910499999989
 31
0.0
  0
LINE
  5
173
  8
LINE
  6
CONTINUOUS
 10
356.19999999999987
 20
237.273325
 30
0.0
 11
356.19999999999987
 21
238.69910499999989
 31
0.0
  0
CIRCLE
  5
174
  8
LINE
  6
CONTINUOUS
 10
354.69999999999999
 20
250.90729899999999
 30
0.0
 40
4.0
  0
LINE
  5
176
  8
LINE
  6
CONTINUOUS
 10
362.91625199999987
 20
237.43938299999999
 30
0.0
 11
363.68154199999998
 21
234.58328499999999
 31
0.0
  0
LINE
  5
177
  8
LINE
  6
CONTINUOUS
 10
256.44999999999987
 20
246.40729899999999
 30
0.0
 11
256.44999999999987
 21
249.48104900000001
 31
0.0
  0
LINE
  5
178
  8
LINE
  6
CONTINUOUS
 10
264.5
 20
246.40729899999999
 30
0.0
 11
265.5
 21
246.90729899999999
 31
0.0
  0
LINE
  5
179
  8
LINE
  6
CONTINUOUS
 10
264.5
 20
255.40729899999999
 30
0.0
 11
265.5
 21
254.90729899999999
 31
0.0
  0
LINE
  5
17A
  8
SUNPOU
  6
CONTINUOUS
 10
265.5
 20
247.307299
 30
0.0
 11
256.44999999999987
 21
247.307299
 31
0.0
  0
LINE
  5
17B
  8
SUNPOU
  6
CONTINUOUS
 10
265.5
 20
254.50729899999999
 30
0.0
 11
256.44999999999987
 21
254.50729899999999
 31
0.0
  0
LINE
  5
17C
  8
LINE
  6
CONTINUOUS
 10
264.5
 20
246.40729899999999
 30
0.0
 11
255.5
 21
246.40729899999999
 31
0.0
  0
LINE
  5
17D
  8
LINE
  6
CONTINUOUS
 10
264.5
 20
255.40729899999999
 30
0.0
 11
255.5
 21
255.40729899999999
 31
0.0
  0
LINE
  5
17E
  8
LINE
  6
CONTINUOUS
 10
264.5
 20
255.40729899999999
 30
0.0
 11
264.5
 21
246.40729899999999
 31
0.0
  0
LINE
  5
17F
  8
LINE
  6
CONTINUOUS
 10
253.0
 20
231.90729899999999
 30
0.0
 11
253.0
 21
241.1120029999999
 31
0.0
  0
LINE
  5
180
  8
LINE
  6
CONTINUOUS
 10
265.5
 20
254.90729899999999
 30
0.0
 11
265.5
 21
246.90729899999999
 31
0.0
  0
CIRCLE
  5
182
  8
LINE
  6
CONTINUOUS
 10
346.70137799999992
 20
246.801739
 30
0.0
 40
1.5
  0
ARC
  5
183
  8
LINE
  6
CONTINUOUS
 10
363.17507099999989
 20
238.40530899999999
 30
0.0
 40
1.0
 50
135.0
 51
255.0
  0
CIRCLE
  5
184
  8
LINE
  6
CONTINUOUS
 10
354.69999999999999
 20
250.90729899999999
 30
0.0
 40
4.5
  0
LINE
  5
186
  8
LINE
  6
CONTINUOUS
 10
360.01847500000002
 20
236.66292599999991
 30
0.0
 11
360.78376400000002
 21
233.80682799999991
 31
0.0
  0
ARC
  5
187
  8
LINE
  6
CONTINUOUS
 10
359.31136800000002
 20
237.37003300000001
 30
0.0
 40
1.0
 50
315.0
 51
75.000000000000057
  0
ARC
  5
188
  8
LINE
  6
CONTINUOUS
 10
361.89026699999999
 20
235.47285600000001
 30
0.0
 40
1.0
 50
236.40962200000001
 51
333.59037799999987
  0
LINE
  5
189
  8
LINE
  6
CONTINUOUS
 10
362.78590400000002
 20
235.0280709999999
 30
0.0
 11
362.44351899999992
 21
236.30587
 31
0.0
  0
LINE
  5
18A
  8
LINE
  6
CONTINUOUS
 10
361.33701600000001
 20
234.6398419999999
 30
0.0
 11
360.99462999999992
 21
235.917642
 31
0.0
  0
ARC
  5
18B
  8
LINE
  6
CONTINUOUS
 10
361.89026699999999
 20
235.47285600000001
 30
0.0
 40
1.0
 50
56.409621999999999
 51
153.59037799999999
  0
ARC
  5
18C
  8
LINE
  6
CONTINUOUS
 10
361.89026699999999
 20
235.47285600000001
 30
0.0
 40
2.0
 50
236.40962200000001
 51
333.59037799999987
  0
ARC
  5
18D
  8
LINE
  6
CONTINUOUS
 10
356.69999999999999
 20
236.40729899999999
 30
0.0
 40
1.0
 50
119.9999999999999
 51
239.99999999999989
  0
ARC
  5
18E
  8
LINE
  6
CONTINUOUS
 10
352.69999999999999
 20
236.40729899999999
 30
0.0
 40
1.0
 50
300.0
 51
60.000000000000021
  0
LINE
  5
18F
  8
LINE
  6
CONTINUOUS
 10
353.19999999999999
 20
235.54127399999999
 30
0.0
 11
353.19999999999999
 21
232.58442400000001
 31
0.0
  0
LINE
  5
190
  8
LINE
  6
CONTINUOUS
 10
353.94999999999987
 20
233.24586099999991
 30
0.0
 11
353.94999999999987
 21
234.56873699999991
 31
0.0
  0
ARC
  5
191
  8
LINE
  6
CONTINUOUS
 10
354.69999999999999
 20
233.90729899999999
 30
0.0
 40
1.0
 50
41.409621999999992
 51
138.59037799999999
  0
LINE
  5
192
  8
LINE
  6
CONTINUOUS
 10
362.46796499999999
 20
239.112416
 30
0.0
 11
361.96666099999987
 21
240.98330599999991
 31
0.0
  0
LINE
  5
193
  8
LINE
  6
CONTINUOUS
 10
359.57018699999998
 20
238.33595899999989
 30
0.0
 11
359.26237099999992
 21
239.48474399999989
 31
0.0
  0
LINE
  5
194
  8
LINE
  6
CONTINUOUS
 10
355.44999999999987
 20
233.24586099999991
 30
0.0
 11
355.44999999999987
 21
234.56873699999991
 31
0.0
  0
ARC
  5
195
  8
LINE
  6
CONTINUOUS
 10
354.69999999999999
 20
233.90729899999999
 30
0.0
 40
1.0
 50
221.40962200000001
 51
318.59037799999987
  0
LINE
  5
196
  8
LINE
  6
CONTINUOUS
 10
356.19999999999987
 20
235.54127399999999
 30
0.0
 11
356.19999999999987
 21
232.58442400000001
 31
0.0
  0
LINE
  5
197
  8
LINE
  6
CONTINUOUS
 10
353.0
 20
238.725345
 30
0.0
 11
353.0
 21
240.34320899999989
 31
0.0
1001
ACAD
1000
ASC_BOUNDS
1002
{
1070
    19
1005
2C2
1002
}
  0
LINE
  5
198
  8
LINE
  6
CONTINUOUS
 10
356.39999999999998
 20
238.725345
 30
0.0
 11
356.39999999999998
 21
240.34320899999989
 31
0.0
1001
ACAD
1000
ASC_BOUNDS
1002
{
1070
    19
1005
2C2
1002
}
  0
LINE
  5
199
  8
LINE
  6
CONTINUOUS
 10
350.32509599999992
 20
239.41163900000001
 30
0.0
 11
350.74168900000001
 21
240.966385
 31
0.0
1001
ACAD
1000
ASC_BOUNDS
1002
{
1070
    19
1005
2C2
1002
}
  0
LINE
  5
19A
  8
SUNPOU
  6
CONTINUOUS
 10
348.32981499999988
 20
245.10173900000001
 30
0.0
 11
347.26076799999998
 21
241.1120029999999
 31
0.0
1001
ACAD
1000
ASC_BOUNDS
1002
{
1070
    19
1005
2C2
1005
2C2
1002
}
  0
ARC
  5
19B
  8
SUNPOU
  6
CONTINUOUS
 10
349.77870300000001
 20
244.71351100000001
 30
0.0
 40
1.5
 50
64.663174999999995
 51
165.0
1001
ACAD
1000
ASC_BOUNDS
1002
{
1070
    19
1005
2C2
1005
2C2
1002
}
  0
ARC
  5
19C
  8
SUNPOU
  6
CONTINUOUS
 10
354.69999999999999
 20
255.10729900000001
 30
0.0
 40
10.0
 50
244.66317499999991
 51
270.0
1001
ACAD
1000
ASC_BOUNDS
1002
{
1070
    19
1005
2C2
1002
}
  0
ARC
  5
19D
  8
LINE
  6
CONTINUOUS
 10
354.69999999999999
 20
233.90729899999999
 30
0.0
 40
2.0
 50
221.40962200000001
 51
318.59037799999987
  0
LINE
  5
19F
  8
LINE
  6
CONTINUOUS
 10
359.07490399999989
 20
239.41163900000001
 30
0.0
 11
358.65831099999991
 21
240.966385
 31
0.0
1001
ACAD
1000
ASC_BOUNDS
1002
{
1070
    19
1005
2C2
1002
}
  0
LINE
  5
1A0
  8
SUNPOU
  6
CONTINUOUS
 10
361.07018499999998
 20
245.10173900000001
 30
0.0
 11
362.13923199999988
 21
241.1120029999999
 31
0.0
1001
ACAD
1000
ASC_BOUNDS
1002
{
1070
    19
1005
2C2
1002
}
  0
ARC
  5
1A1
  8
SUNPOU
  6
CONTINUOUS
 10
359.62129700000003
 20
244.71351100000001
 30
0.0
 40
1.5
 50
15.0
 51
115.336825
1001
ACAD
1000
ASC_BOUNDS
1002
{
1070
    19
1005
2C2
1002
}
  0
LINE
  5
1A2
  8
LINE
  6
CONTINUOUS
 10
253.30000000000001
 20
238.60729900000001
 30
0.0
 11
255.0
 21
238.60729900000001
 31
0.0
  0
LINE
  5
1A3
  8
SUNPOU
  6
CONTINUOUS
 10
355.60000000000002
 20
262.90729900000002
 30
0.0
 11
355.84548000000001
 21
262.90729900000002
 31
0.0
  0
LINE
  5
1A4
  8
SUNPOU
  6
CONTINUOUS
 10
365.542305
 20
245.686722
 30
0.0
 11
365.66504500000002
 21
245.899314
 31
0.0
  0
LINE
  5
1A5
  8
0
  6
CONTINUOUS
 10
364.26561299999992
 20
244.34536
 30
0.0
 11
364.873559
 21
243.994362
 31
0.0
  0
LINE
  5
1A6
  8
0
  6
CONTINUOUS
 10
365.16561300000001
 20
245.90420499999991
 30
0.0
 11
365.77355899999992
 21
245.55320800000001
 31
0.0
  0
ARC
  5
1A7
  8
0
  6
CONTINUOUS
 10
354.69999999999999
 20
250.90729899999999
 30
0.0
 40
11.599999999999991
 50
325.55016599999999
 51
334.44983400000001
  0
LINE
  5
1A8
  8
0
  6
CONTINUOUS
 10
355.60000000000002
 20
262.47233299999999
 30
0.0
 11
355.60000000000002
 21
263.174328
 31
0.0
  0
LINE
  5
1A9
  8
0
  6
CONTINUOUS
 10
353.80000000000001
 20
262.47233299999999
 30
0.0
 11
353.80000000000001
 21
263.174328
 31
0.0
  0
ARC
  5
1AA
  8
0
  6
CONTINUOUS
 10
354.69999999999999
 20
250.90729899999999
 30
0.0
 40
11.599999999999991
 50
85.550166000000004
 51
94.449833999999996
  0
LINE
  5
1AB
  8
SUNPOU
  6
CONTINUOUS
 10
344.75769500000001
 20
244.1278759999999
 30
0.0
 11
344.88043499999998
 21
243.9152839999999
 31
0.0
  0
ARC
  5
1AC
  8
0
  6
CONTINUOUS
 10
354.69999999999999
 20
250.90729899999999
 30
0.0
 40
11.599999999999991
 50
205.55016599999999
 51
214.4498339999999
  0
LINE
  5
1AD
  8
0
  6
CONTINUOUS
 10
345.134387
 20
244.34536
 30
0.0
 11
344.52644099999998
 21
243.994362
 31
0.0
  0
LINE
  5
1AE
  8
0
  6
CONTINUOUS
 10
344.23438700000003
 20
245.90420499999991
 30
0.0
 11
343.626441
 21
245.55320800000001
 31
0.0
  0
LINE
  5
1AF
  8
0
  6
CONTINUOUS
 10
249.21217599999989
 20
245.82586800000001
 30
0.0
 11
249.21217599999989
 21
244.36324599999989
 31
0.0
  0
LINE
  5
1B0
  8
SUNPOU
  6
CONTINUOUS
 10
255.5
 20
246.09529699999999
 30
0.0
 11
249.5
 21
246.09529699999999
 31
0.0
  0
LINE
  5
1B1
  8
LINE
  6
CONTINUOUS
 10
255.5
 20
245.82586800000001
 30
0.0
 11
249.5
 21
245.82586800000001
 31
0.0
  0
LINE
  5
1B2
  8
LINE
  6
CONTINUOUS
 10
255.5
 20
244.36324599999989
 30
0.0
 11
249.5
 21
244.36324599999989
 31
0.0
  0
LINE
  5
1B3
  8
LINE
  6
CONTINUOUS
 10
255.5
 20
243.7474069999999
 30
0.0
 11
249.5
 21
243.7474069999999
 31
0.0
  0
LINE
  5
1B4
  8
LINE
  6
CONTINUOUS
 10
249.5
 20
245.82586800000001
 30
0.0
 11
249.5
 21
263.20729899999998
 31
0.0
  0
LINE
  5
1B5
  8
0
  6
CONTINUOUS
 10
249.5
 20
245.82586800000001
 30
0.0
 11
248.7999999999999
 21
245.82586800000001
 31
0.0
  0
LINE
  5
1B6
  8
LINE
  6
CONTINUOUS
 10
256.44999999999987
 20
252.333549
 30
0.0
 11
256.44999999999987
 21
255.40729899999999
 31
0.0
  0
LINE
  5
1B7
  8
0
  6
CONTINUOUS
 10
249.5
 20
244.36324599999989
 30
0.0
 11
248.7999999999999
 21
244.36324599999989
 31
0.0
  0
LINE
  5
1B8
  8
LINE
  6
CONTINUOUS
 10
249.5
 20
238.60729900000001
 30
0.0
 11
249.5
 21
244.36324599999989
 31
0.0
  0
LINE
  5
1B9
  8
LINE
  6
CONTINUOUS
 10
257.20749799999999
 20
249.499987
 30
0.0
 11
255.6950019999999
 21
249.462174
 31
0.0
  0
LINE
  5
1BA
  8
LINE
  6
CONTINUOUS
 10
257.20749799999999
 20
252.31461200000001
 30
0.0
 11
255.6950019999999
 21
252.3524239999999
 31
0.0
  0
ARC
  5
1BB
  8
LINE
  6
CONTINUOUS
 10
255.6999999999999
 20
252.55236199999999
 30
0.0
 40
0.2
 50
180.0
 51
268.567904
  0
ARC
  5
1BC
  8
LINE
  6
CONTINUOUS
 10
255.6999999999999
 20
249.26223699999991
 30
0.0
 40
0.2
 50
91.432095999999973
 51
180.0
  0
LINE
  5
1BD
  8
0
  6
CONTINUOUS
 10
248.49999999999989
 20
245.525868
 30
0.0
 11
248.49999999999989
 21
244.66324599999999
 31
0.0
  0
ARC
  5
1BE
  8
LINE
  6
CONTINUOUS
 10
257.19999999999999
 20
249.799893
 30
0.0
 40
0.3
 50
271.432096
 51
0.0
  0
CIRCLE
  5
1BF
  8
LINE
  6
CONTINUOUS
 10
344.69999999999999
 20
250.90729899999999
 30
0.0
 40
1.399999999999999
  0
ARC
  5
1C0
  8
SUNPOU
  6
CONTINUOUS
 10
354.69999999999999
 20
250.90729899999999
 30
0.0
 40
11.4
 50
84.967586999999995
 51
95.03241300000002
  0
LINE
  5
1C1
  8
0
  6
CONTINUOUS
 10
249.5
 20
238.65729899999999
 30
0.0
 11
242.90000000000001
 21
238.65729899999999
 31
0.0
  0
CIRCLE
  5
1C2
  8
LINE
  6
CONTINUOUS
 10
354.69999999999999
 20
250.90729899999999
 30
0.0
 40
5.25
  0
LINE
  5
1C3
  8
0
  6
CONTINUOUS
 10
249.5
 20
263.15729900000002
 30
0.0
 11
242.90000000000001
 21
263.15729900000002
 31
0.0
  0
LINE
  5
1C4
  8
0
  6
CONTINUOUS
 10
242.0
 20
262.25729899999999
 30
0.0
 11
242.0
 21
239.557299
 31
0.0
  0
ARC
  5
1C5
  8
0
  6
CONTINUOUS
 10
242.90000000000001
 20
239.557299
 30
0.0
 40
0.9
 50
180.0
 51
270.0
  0
ARC
  5
1C6
  8
SUNPOU
  6
CONTINUOUS
 10
354.69999999999999
 20
250.90729899999999
 30
0.0
 40
11.4
 50
324.96758699999998
 51
335.03241299999991
  0
ARC
  5
1C7
  8
0
  6
CONTINUOUS
 10
242.90000000000001
 20
262.25729899999999
 30
0.0
 40
0.9
 50
90.0
 51
180.0
  0
LINE
  5
1C8
  8
SUNPOU
  6
CONTINUOUS
 10
364.519565
 20
243.9152839999999
 30
0.0
 11
364.64230499999991
 21
244.1278759999999
 31
0.0
  0
LINE
  5
1C9
  8
SUNPOU
  6
CONTINUOUS
 10
365.03463299999999
 20
246.09529699999999
 30
0.0
 11
365.901297
 21
245.82586800000001
 31
0.0
  0
LINE
  5
1CA
  8
SUNPOU
  6
CONTINUOUS
 10
364.03463299999993
 20
244.36324599999989
 30
0.0
 11
364.70129700000001
 21
243.7474069999999
 31
0.0
  0
LINE
  5
1CB
  8
SUNPOU
  6
CONTINUOUS
 10
343.7349549999999
 20
245.899314
 30
0.0
 11
343.85769499999998
 21
245.686722
 31
0.0
  0
LINE
  5
1CC
  8
SUNPOU
  6
CONTINUOUS
 10
355.69999999999987
 20
262.26335499999988
 30
0.0
 11
355.89999999999992
 21
263.14862299999987
 31
0.0
  0
LINE
  5
1CD
  8
SUNPOU
  6
CONTINUOUS
 10
353.69999999999987
 20
262.26335499999988
 30
0.0
 11
353.5
 21
263.14862299999987
 31
0.0
  0
LINE
  5
1CE
  8
SUNPOU
  6
CONTINUOUS
 10
345.36536699999999
 20
244.36324599999989
 30
0.0
 11
344.69870299999991
 21
243.7474069999999
 31
0.0
  0
LINE
  5
1CF
  8
SUNPOU
  6
CONTINUOUS
 10
344.36536699999988
 20
246.09529699999999
 30
0.0
 11
343.49870299999992
 21
245.82586800000001
 31
0.0
  0
TEXT
  5
1D0
  8
SUNPOU
 10
363.40540199999992
 20
245.76366899999999
 30
0.0
 40
2.399999999999999
  1
ÇR
 50
62.999986675843111
 41
0.6250001739984669
 72
     5
 11
363.95019100000002
 21
246.83287699999991
 31
0.0
  0
ARC
  5
1D1
  8
LINE
  6
CONTINUOUS
 10
354.69999999999999
 20
250.90729899999999
 30
0.0
 40
12.300000000000001
 50
306.21276599999987
 51
233.7872340000001
1001
ACAD
1000
ASC_BOUNDS
1002
{
1070
    19
1005
2C2
1005
2C2
1002
}
  0
TEXT
  5
1D2
  8
SUNPOU
 10
345.4498089999999
 20
246.83287699999991
 30
0.0
 40
2.399999999999999
  1
ÇP
 50
297.00001332415678
 41
0.9375002609977002
 72
     5
 11
345.994598
 21
245.76366899999999
 31
0.0
  0
LINE
  5
1D3
  8
SUNPOU
  6
CONTINUOUS
 10
353.55452000000002
 20
262.90729900000002
 30
0.0
 11
353.80000000000001
 21
262.90729900000002
 31
0.0
  0
CIRCLE
  5
1D4
  8
LINE
  6
CONTINUOUS
 10
362.698622
 20
246.801739
 30
0.0
 40
1.5
  0
ARC
  5
1D5
  8
SUNPOU
  6
CONTINUOUS
 10
354.69999999999999
 20
255.10729900000001
 30
0.0
 40
10.0
 50
270.0
 51
295.33682499999998
1001
ACAD
1000
ASC_BOUNDS
1002
{
1070
    19
1005
2C2
1002
}
  0
ARC
  5
1D6
  8
SUNPOU
  6
CONTINUOUS
 10
354.69999999999999
 20
250.90729899999999
 30
0.0
 40
11.4
 50
204.96758700000001
 51
215.03241299999991
  0
ARC
  5
1D7
  8
LINE
  6
CONTINUOUS
 10
354.69999999999999
 20
250.90729899999999
 30
0.0
 40
10.699999999999999
 50
248.28835299999989
 51
260.85819300000003
1001
ACAD
1000
ASC_BOUNDS
1002
{
1070
    19
1005
2C2
1002
}
  0
LINE
  5
1D8
  8
0
  6
CONTINUOUS
 10
275.0
 20
247.90729899999999
 30
0.0
 11
265.5
 21
247.90729899999999
 31
0.0
  0
LINE
  5
1D9
  8
0
  6
CONTINUOUS
 10
275.0
 20
253.90729899999999
 30
0.0
 11
275.49999999999989
 21
253.40729899999999
 31
0.0
  0
LINE
  5
1DA
  8
0
  6
CONTINUOUS
 10
275.49999999999989
 20
248.40729899999999
 30
0.0
 11
275.0
 21
247.90729899999999
 31
0.0
  0
LINE
  5
1DB
  8
0
  6
CONTINUOUS
 10
275.49999999999989
 20
251.40729899999999
 30
0.0
 11
273.89999999999992
 21
251.40729899999999
 31
0.0
  0
LINE
  5
1DC
  8
0
  6
CONTINUOUS
 10
275.49999999999989
 20
250.40729899999999
 30
0.0
 11
273.89999999999992
 21
250.40729899999999
 31
0.0
  0
LINE
  5
1DD
  8
0
  6
CONTINUOUS
 10
273.89999999999992
 20
250.40729899999999
 30
0.0
 11
273.89999999999992
 21
251.40729899999999
 31
0.0
  0
LINE
  5
1DE
  8
0
  6
CONTINUOUS
 10
275.0
 20
253.90729899999999
 30
0.0
 11
275.0
 21
251.40729899999999
 31
0.0
  0
LINE
  5
1DF
  8
0
  6
CONTINUOUS
 10
275.0
 20
247.90729899999999
 30
0.0
 11
275.0
 21
250.40729899999999
 31
0.0
  0
LINE
  5
1E0
  8
0
  6
CONTINUOUS
 10
275.49999999999989
 20
251.40729899999999
 30
0.0
 11
275.49999999999989
 21
253.40729899999999
 31
0.0
  0
LINE
  5
1E1
  8
CENTER
  6
CENTER
 10
354.69999999999999
 20
265.90729900000002
 30
0.0
 11
354.69999999999999
 21
229.00742199999999
 31
0.0
1001
ACAD
1000
ASC_BOUNDS
1002
{
1070
    19
1005
2C2
1005
2C2
1002
}
  0
LINE
  5
1E2
  8
CENTER
  6
CENTER
 10
278.5
 20
250.90729899999999
 30
0.0
 11
239.0
 21
250.90729899999999
 31
0.0
  0
ARC
  5
1E3
  8
LINE
  6
CONTINUOUS
 10
257.19999999999999
 20
252.01470599999999
 30
0.0
 40
0.3
 50
0.0
 51
88.567903999999984
  0
LINE
  5
1E4
  8
LINE
  6
CONTINUOUS
 10
257.5
 20
252.01470599999999
 30
0.0
 11
257.5
 21
249.799893
 31
0.0
  0
ARC
  5
1E5
  8
LINE
  6
CONTINUOUS
 10
255.0
 20
239.10729900000001
 30
0.0
 40
0.5
 50
270.0
 51
0.0
  0
ARC
  5
1E6
  8
0
  6
CONTINUOUS
 10
255.0
 20
262.70729899999998
 30
0.0
 40
0.5
 50
0.0
 51
90.0
  0
LINE
  5
1E7
  8
LINE
  6
CONTINUOUS
 10
255.5
 20
262.70729899999998
 30
0.0
 11
255.5
 21
239.10729900000001
 31
0.0
  0
LINE
  5
1E9
  8
LINE
  6
CONTINUOUS
 10
249.5
 20
238.60729900000001
 30
0.0
 11
253.0
 21
238.60729900000001
 31
0.0
  0
LINE
  5
1EA
  8
LINE
  6
CONTINUOUS
 10
255.0
 20
263.20729899999998
 30
0.0
 11
249.5
 21
263.20729899999998
 31
0.0
  0
LINE
  5
1EB
  8
LINE
  6
CONTINUOUS
 10
254.49999999999989
 20
241.1120029999999
 30
0.0
 11
254.49999999999989
 21
239.41163900000001
 31
0.0
1001
ACAD
1000
ASC_BOUNDS
1002
{
1070
    19
1005
2C8
1002
}
  0
ARC
  5
1ED
  8
0
  6
CONTINUOUS
 10
248.7999999999999
 20
244.66324599999999
 30
0.0
 40
0.3
 50
180.0
 51
270.0
  0
ARC
  5
1EF
  8
0
  6
CONTINUOUS
 10
248.7999999999999
 20
245.525868
 30
0.0
 40
0.3
 50
90.0
 51
180.0
  0
LINE
  5
1F1
  8
LINE
  6
CONTINUOUS
 10
255.6999999999999
 20
246.40729899999999
 30
0.0
 11
256.44999999999987
 21
247.307299
 31
0.0
  0
LINE
  5
1F2
  8
LINE
  6
CONTINUOUS
 10
255.6999999999999
 20
255.40729899999999
 30
0.0
 11
256.44999999999987
 21
254.50729899999999
 31
0.0
  0
LINE
  5
1F4
  8
SUNPOU
  6
CONTINUOUS
 10
255.5
 20
217.90729899999999
 30
0.0
 11
275.49999999999989
 21
217.90729899999999
 31
0.0
  0
SOLID
  5
1F5
  8
SUNPOU
 10
257.43174799999991
 20
218.4253249999999
 30
0.0
 11
257.43174799999991
 21
217.389274
 31
0.0
 12
255.5
 22
217.90729899999999
 32
0.0
 13
255.5
 23
217.90729899999999
 33
0.0
  0
SOLID
  5
1F6
  8
SUNPOU
 10
273.56825199999997
 20
217.389274
 30
0.0
 11
273.56825199999997
 21
218.4253249999999
 31
0.0
 12
275.49999999999989
 22
217.90729899999999
 32
0.0
 13
275.49999999999989
 23
217.90729899999999
 33
0.0
  0
LINE
  5
1F7
  8
0
  6
CONTINUOUS
 10
255.5
 20
238.10729900000001
 30
0.0
 11
255.5
 21
216.90729899999999
 31
0.0
  0
LINE
  5
1F8
  8
SUNPOU
  6
CONTINUOUS
 10
275.49999999999989
 20
247.40729899999999
 30
0.0
 11
275.49999999999989
 21
216.90729899999999
 31
0.0
  0
LINE
  5
1FB
  8
SUNPOU
  6
CONTINUOUS
 10
255.5
 20
274.90729900000002
 30
0.0
 11
257.5
 21
274.90729900000002
 31
0.0
  0
LINE
  5
1FC
  8
SUNPOU
  6
CONTINUOUS
 10
255.5
 20
263.70729899999998
 30
0.0
 11
255.5
 21
275.90729900000002
 31
0.0
  0
LINE
  5
1FD
  8
SUNPOU
  6
CONTINUOUS
 10
257.5
 20
253.01470599999999
 30
0.0
 11
257.5
 21
275.90729900000002
 31
0.0
  0
LINE
  5
1FF
  8
SUNPOU
  6
CONTINUOUS
 10
257.5
 20
274.90729900000002
 30
0.0
 11
267.55577799999992
 21
274.90729900000002
 31
0.0
  0
SOLID
  5
200
  8
SUNPOU
 10
259.43174799999991
 20
275.42532499999999
 30
0.0
 11
259.43174799999991
 21
274.389274
 31
0.0
 12
257.5
 22
274.90729900000002
 32
0.0
 13
257.5
 23
274.90729900000002
 33
0.0
  0
LINE
  5
201
  8
SUNPOU
  6
CONTINUOUS
 10
255.5
 20
274.90729900000002
 30
0.0
 11
250.49999999999989
 21
274.90729900000002
 31
0.0
  0
SOLID
  5
202
  8
SUNPOU
 10
253.56825199999989
 20
274.389274
 30
0.0
 11
253.56825199999989
 21
275.42532499999999
 31
0.0
 12
255.5
 22
274.90729900000002
 32
0.0
 13
255.5
 23
274.90729900000002
 33
0.0
  0
LINE
  5
204
  8
SUNPOU
  6
CONTINUOUS
 10
255.5
 20
217.90729899999999
 30
0.0
 11
242.0
 21
217.90729899999999
 31
0.0
  0
SOLID
  5
205
  8
SUNPOU
 10
253.56825199999989
 20
217.389274
 30
0.0
 11
253.56825199999989
 21
218.4253249999999
 31
0.0
 12
255.5
 22
217.90729899999999
 32
0.0
 13
255.5
 23
217.90729899999999
 33
0.0
  0
SOLID
  5
206
  8
SUNPOU
 10
243.931748
 20
218.4253249999999
 30
0.0
 11
243.931748
 21
217.389274
 31
0.0
 12
242.0
 22
217.90729899999999
 32
0.0
 13
242.0
 23
217.90729899999999
 33
0.0
  0
LINE
  5
207
  8
SUNPOU
  6
CONTINUOUS
 10
255.5
 20
238.10729900000001
 30
0.0
 11
255.5
 21
216.90729899999999
 31
0.0
  0
LINE
  5
208
  8
SUNPOU
  6
CONTINUOUS
 10
242.0
 20
238.557299
 30
0.0
 11
242.0
 21
216.90729899999999
 31
0.0
  0
LINE
  5
20B
  8
SUNPOU
  6
CONTINUOUS
 10
253.30000000000001
 20
224.40729899999999
 30
0.0
 11
255.5
 21
224.40729899999999
 31
0.0
  0
LINE
  5
20C
  8
SUNPOU
  6
CONTINUOUS
 10
253.30000000000001
 20
230.90729899999999
 30
0.0
 11
253.30000000000001
 21
223.40729899999999
 31
0.0
  0
TEXT
  5
20D
  8
SUNPOU
 10
246.38036500000001
 20
225.20729900000001
 30
0.0
 40
2.399999999999999
  1
2.3
 41
0.833333541666672
 72
     5
 11
250.3803659999999
 21
225.20729900000001
 31
0.0
  0
LINE
  5
20E
  8
SUNPOU
  6
CONTINUOUS
 10
253.30000000000001
 20
224.40729899999999
 30
0.0
 11
245.51532999999989
 21
224.40729899999999
 31
0.0
  0
SOLID
  5
20F
  8
SUNPOU
 10
251.36825200000001
 20
223.889274
 30
0.0
 11
251.36825200000001
 21
224.9253249999999
 31
0.0
 12
253.30000000000001
 22
224.40729899999999
 32
0.0
 13
253.30000000000001
 23
224.40729899999999
 33
0.0
  0
LINE
  5
210
  8
0
  6
CONTINUOUS
 10
255.5
 20
224.40729899999999
 30
0.0
 11
260.49999999999989
 21
224.40729899999999
 31
0.0
  0
SOLID
  5
211
  8
0
 10
257.43174799999991
 20
224.9253249999999
 30
0.0
 11
257.43174799999991
 21
223.889274
 31
0.0
 12
255.5
 22
224.40729899999999
 32
0.0
 13
255.5
 23
224.40729899999999
 33
0.0
  0
LINE
  5
212
  8
SUNPOU
  6
CONTINUOUS
 10
231.09999999999991
 20
263.15729900000002
 30
0.0
 11
231.09999999999991
 21
238.65729899999999
 31
0.0
  0
SOLID
  5
213
  8
SUNPOU
 10
231.6180259999999
 20
261.22555199999999
 30
0.0
 11
230.581974
 21
261.22555199999999
 31
0.0
 12
231.09999999999991
 22
263.15729900000002
 32
0.0
 13
231.09999999999991
 23
263.15729900000002
 33
0.0
  0
SOLID
  5
214
  8
SUNPOU
 10
230.581974
 20
240.58904699999999
 30
0.0
 11
231.6180259999999
 21
240.58904699999999
 31
0.0
 12
231.09999999999991
 22
238.65729899999999
 32
0.0
 13
231.09999999999991
 23
238.65729899999999
 33
0.0
  0
LINE
  5
215
  8
SUNPOU
  6
CONTINUOUS
 10
241.90000000000001
 20
263.15729900000002
 30
0.0
 11
230.09999999999999
 21
263.15729900000002
 31
0.0
  0
LINE
  5
216
  8
SUNPOU
  6
CONTINUOUS
 10
241.90000000000001
 20
238.65729899999999
 30
0.0
 11
230.09999999999999
 21
238.65729899999999
 31
0.0
  0
LINE
  5
219
  8
SUNPOU
  6
CONTINUOUS
 10
255.5
 20
224.40729899999999
 30
0.0
 11
265.5
 21
224.40729899999999
 31
0.0
  0
SOLID
  5
21A
  8
SUNPOU
 10
257.43174799999991
 20
224.9253249999999
 30
0.0
 11
257.43174799999991
 21
223.889274
 31
0.0
 12
255.5
 22
224.40729899999999
 32
0.0
 13
255.5
 23
224.40729899999999
 33
0.0
  0
SOLID
  5
21B
  8
SUNPOU
 10
263.56825199999997
 20
223.889274
 30
0.0
 11
263.56825199999997
 21
224.9253249999999
 31
0.0
 12
265.5
 22
224.40729899999999
 32
0.0
 13
265.5
 23
224.40729899999999
 33
0.0
  0
LINE
  5
21C
  8
SUNPOU
  6
CONTINUOUS
 10
255.5
 20
238.10729900000001
 30
0.0
 11
255.5
 21
223.40729899999999
 31
0.0
  0
LINE
  5
21D
  8
SUNPOU
  6
CONTINUOUS
 10
265.5
 20
245.90729899999999
 30
0.0
 11
265.5
 21
223.40729899999999
 31
0.0
  0
LINE
  5
220
  8
SUNPOU
  6
CONTINUOUS
 10
273.89999999999992
 20
230.90729899999999
 30
0.0
 11
275.49999999999989
 21
230.90729899999999
 31
0.0
  0
LINE
  5
221
  8
SUNPOU
  6
CONTINUOUS
 10
273.89999999999992
 20
249.40729899999999
 30
0.0
 11
273.89999999999992
 21
229.90729899999999
 31
0.0
  0
LINE
  5
222
  8
SUNPOU
  6
CONTINUOUS
 10
275.49999999999989
 20
247.40729899999999
 30
0.0
 11
275.49999999999989
 21
229.90729899999999
 31
0.0
  0
LINE
  5
224
  8
SUNPOU
  6
CONTINUOUS
 10
275.49999999999989
 20
230.90729899999999
 30
0.0
 11
288.619395
 21
230.90729899999999
 31
0.0
  0
SOLID
  5
225
  8
SUNPOU
 10
277.43174799999991
 20
231.4253249999999
 30
0.0
 11
277.43174799999991
 21
230.389274
 31
0.0
 12
275.49999999999989
 22
230.90729899999999
 32
0.0
 13
275.49999999999989
 23
230.90729899999999
 33
0.0
  0
LINE
  5
226
  8
SUNPOU
  6
CONTINUOUS
 10
273.89999999999992
 20
230.90729899999999
 30
0.0
 11
268.89999999999992
 21
230.90729899999999
 31
0.0
  0
SOLID
  5
227
  8
SUNPOU
 10
271.96825200000001
 20
230.389274
 30
0.0
 11
271.96825200000001
 21
231.4253249999999
 31
0.0
 12
273.89999999999992
 22
230.90729899999999
 32
0.0
 13
273.89999999999992
 23
230.90729899999999
 33
0.0
  0
TEXT
  5
22D
  8
SUNPOU
 10
262.69999999999987
 20
258.73425200000003
 30
0.0
 40
2.399999999999999
  1
M9 P0.75
 50
90.0
 41
0.7124352979274573
 72
     5
 11
262.69999999999987
 21
269.73425299999991
 31
0.0
  0
LINE
  5
22E
  8
SUNPOU
  6
CONTINUOUS
 10
263.5
 20
255.40729899999999
 30
0.0
 11
263.5
 21
270.02680600000002
 31
0.0
  0
SOLID
  5
22F
  8
SUNPOU
 10
262.98197399999998
 20
257.33904699999999
 30
0.0
 11
264.01802599999991
 21
257.33904699999999
 31
0.0
 12
263.5
 22
255.40729899999999
 32
0.0
 13
263.5
 23
255.40729899999999
 33
0.0
  0
LINE
  5
230
  8
SUNPOU
  6
CONTINUOUS
 10
282.0
 20
250.40729899999999
 30
0.0
 11
282.0
 21
251.40729899999999
 31
0.0
  0
LINE
  5
231
  8
SUNPOU
  6
CONTINUOUS
 10
276.5
 20
251.40729899999999
 30
0.0
 11
283.0
 21
251.40729899999999
 31
0.0
  0
LINE
  5
232
  8
SUNPOU
  6
CONTINUOUS
 10
276.5
 20
250.40729899999999
 30
0.0
 11
283.0
 21
250.40729899999999
 31
0.0
  0
LINE
  5
234
  8
SUNPOU
  6
CONTINUOUS
 10
282.0
 20
251.40729899999999
 30
0.0
 11
282.0
 21
265.638508
 31
0.0
  0
SOLID
  5
235
  8
SUNPOU
 10
281.48197399999998
 20
253.33904699999999
 30
0.0
 11
282.51802599999991
 21
253.33904699999999
 31
0.0
 12
282.0
 22
251.40729899999999
 32
0.0
 13
282.0
 23
251.40729899999999
 33
0.0
  0
LINE
  5
236
  8
SUNPOU
  6
CONTINUOUS
 10
282.0
 20
250.40729899999999
 30
0.0
 11
282.0
 21
245.40729899999999
 31
0.0
  0
SOLID
  5
237
  8
SUNPOU
 10
282.51802599999991
 20
248.47555199999991
 30
0.0
 11
281.48197399999998
 21
248.47555199999991
 31
0.0
 12
282.0
 22
250.40729899999999
 32
0.0
 13
282.0
 23
250.40729899999999
 33
0.0
  0
LINE
  5
239
  8
SUNPOU
  6
CONTINUOUS
 10
288.5
 20
247.90729899999999
 30
0.0
 11
288.5
 21
253.90729899999999
 31
0.0
  0
LINE
  5
23A
  8
SUNPOU
  6
CONTINUOUS
 10
276.0
 20
253.90729899999999
 30
0.0
 11
289.49999999999989
 21
253.90729899999999
 31
0.0
  0
LINE
  5
23B
  8
SUNPOU
  6
CONTINUOUS
 10
276.0
 20
247.90729899999999
 30
0.0
 11
289.49999999999989
 21
247.90729899999999
 31
0.0
  0
TEXT
  5
23C
  8
SUNPOU
 10
287.7027320306475
 20
256.43047583859362
 30
0.0
 40
2.399999999999999
  1
É”6
 50
90.0
  0
LINE
  5
23D
  8
SUNPOU
  6
CONTINUOUS
 10
288.5
 20
253.90729899999999
 30
0.0
 11
288.5
 21
265.37520999999992
 31
0.0
  0
SOLID
  5
23E
  8
SUNPOU
 10
287.98197399999998
 20
255.83904699999999
 30
0.0
 11
289.01802599999991
 21
255.83904699999999
 31
0.0
 12
288.5
 22
253.90729899999999
 32
0.0
 13
288.5
 23
253.90729899999999
 33
0.0
  0
LINE
  5
23F
  8
SUNPOU
  6
CONTINUOUS
 10
288.5
 20
247.90729899999999
 30
0.0
 11
288.5
 21
242.90729899999999
 31
0.0
  0
SOLID
  5
240
  8
SUNPOU
 10
289.01802599999991
 20
245.97555199999991
 30
0.0
 11
287.98197399999998
 21
245.97555199999991
 31
0.0
 12
288.5
 22
247.90729899999999
 32
0.0
 13
288.5
 23
247.90729899999999
 33
0.0
  0
TEXT
  5
241
  8
SUNPOU
 10
285.86000000000001
 20
262.3398556916448
 30
0.0
 40
1.6000000000000001
  1
 0
 50
90.0
 41
0.9848482954545547
 72
     5
 11
285.86000000000001
 21
264.07318869164482
 31
0.0
  0
TEXT
  5
242
  8
SUNPOU
 10
287.69999999999987
 20
261.74595499999992
 30
0.0
 40
1.6000000000000001
  1
-0.1
 50
90.0
 41
0.9000000000000055
 72
     5
 11
287.69999999999987
 21
265.345955
 31
0.0
  0
LINE
  5
243
  8
SUNPOU
  6
CONTINUOUS
 10
354.69999999999999
 20
274.90729900000002
 30
0.0
 11
344.69999999999999
 21
274.90729900000002
 31
0.0
  0
SOLID
  5
244
  8
0
 10
352.76825200000002
 20
274.389274
 30
0.0
 11
352.76825200000002
 21
275.42532499999999
 31
0.0
 12
354.69999999999999
 22
274.90729900000002
 32
0.0
 13
354.69999999999999
 23
274.90729900000002
 33
0.0
  0
SOLID
  5
245
  8
0
 10
346.63174800000002
 20
275.42532499999999
 30
0.0
 11
346.63174800000002
 21
274.389274
 31
0.0
 12
344.69999999999999
 22
274.90729900000002
 32
0.0
 13
344.69999999999999
 23
274.90729900000002
 33
0.0
  0
LINE
  5
246
  8
SUNPOU
  6
CONTINUOUS
 10
354.69999999999999
 20
275.90729900000002
 30
0.0
 11
354.69999999999999
 21
266.74751099999992
 31
0.0
  0
LINE
  5
247
  8
SUNPOU
  6
CONTINUOUS
 10
344.69999999999999
 20
254.57338599999991
 30
0.0
 11
344.69999999999999
 21
275.90729900000002
 31
0.0
  0
LINE
  5
24A
  8
SUNPOU
  6
CONTINUOUS
 10
333.94999999999999
 20
249.50729899999999
 30
0.0
 11
333.94999999999999
 21
252.307299
 31
0.0
  0
LINE
  5
24B
  8
SUNPOU
  6
CONTINUOUS
 10
343.69999999999987
 20
249.50729899999999
 30
0.0
 11
332.94999999999987
 21
249.50729899999999
 31
0.0
  0
LINE
  5
24C
  8
SUNPOU
  6
CONTINUOUS
 10
343.69999999999987
 20
252.307299
 30
0.0
 11
332.94999999999987
 21
252.307299
 31
0.0
  0
LINE
  5
24E
  8
SUNPOU
  6
CONTINUOUS
 10
333.94999999999999
 20
252.307299
 30
0.0
 11
333.94999999999999
 21
272.22962135191079
 31
0.0
  0
SOLID
  5
24F
  8
0
 10
333.43197400000003
 20
254.239047
 30
0.0
 11
334.4680259999999
 21
254.239047
 31
0.0
 12
333.94999999999999
 22
252.307299
 32
0.0
 13
333.94999999999999
 23
252.307299
 33
0.0
  0
LINE
  5
250
  8
SUNPOU
  6
CONTINUOUS
 10
333.94999999999999
 20
249.50729899999999
 30
0.0
 11
333.94999999999999
 21
244.50729899999999
 31
0.0
  0
SOLID
  5
251
  8
0
 10
334.4680259999999
 20
247.57555199999999
 30
0.0
 11
333.43197400000003
 21
247.57555199999999
 31
0.0
 12
333.94999999999999
 22
249.50729899999999
 32
0.0
 13
333.94999999999999
 23
249.50729899999999
 33
0.0
  0
LINE
  5
253
  8
SUNPOU
  6
CONTINUOUS
 10
341.79349300000001
 20
236.96376799999999
 30
0.0
 11
354.69999999999999
 21
250.90729899999999
 31
0.0
1001
ACAD
1000
ASC_BOUNDS
1002
{
1070
    19
1005
2C2
1005
2C2
1002
}
  0
TEXT
  5
254
  8
SUNPOU
 10
332.76137115958602
 20
228.1824451858987
 30
0.0
 40
2.399999999999999
  1
R19Å}1
 50
49.121443860148993
 11
330.9467348473645
 21
229.7531440922354
 31
0.0
 73
     3
  0
LINE
  5
255
  8
SUNPOU
  6
CONTINUOUS
 10
341.79349300000001
 20
236.96376799999999
 30
0.0
 11
333.93589400000002
 21
228.474819
 31
0.0
  0
SOLID
  5
256
  8
0
 10
340.86144000000002
 20
235.1942259999999
 30
0.0
 11
340.101113
 21
235.8980049999999
 31
0.0
 12
341.79349300000001
 22
236.96376799999999
 32
0.0
 13
341.79349300000001
 23
236.96376799999999
 33
0.0
  0
LINE
  5
275
  8
SUNPOU
  6
CONTINUOUS
 10
345.71845799999988
 20
217.90729899999999
 30
0.0
 11
363.68154199999998
 21
217.90729899999999
 31
0.0
  0
SOLID
  5
276
  8
0
 10
347.65020600000003
 20
218.4253249999999
 30
0.0
 11
347.65020600000003
 21
217.389274
 31
0.0
 12
345.71845799999988
 22
217.90729899999999
 32
0.0
 13
345.71845799999988
 23
217.90729899999999
 33
0.0
  0
SOLID
  5
277
  8
0
 10
361.74979400000001
 20
217.389274
 30
0.0
 11
361.74979400000001
 21
218.4253249999999
 31
0.0
 12
363.68154199999998
 22
217.90729899999999
 32
0.0
 13
363.68154199999998
 23
217.90729899999999
 33
0.0
  0
LINE
  5
278
  8
SUNPOU
  6
CONTINUOUS
 10
345.71845799999988
 20
233.58328499999999
 30
0.0
 11
345.71845799999988
 21
216.90729899999999
 31
0.0
  0
LINE
  5
279
  8
SUNPOU
  6
CONTINUOUS
 10
363.68154199999998
 20
233.58328499999999
 30
0.0
 11
363.68154199999998
 21
216.90729899999999
 31
0.0
  0
TEXT
  5
27A
  8
SUNPOU
 10
350.39999999999998
 20
218.70729900000001
 30
0.0
 40
2.399999999999999
  1
18.5Å}1
  0
INSERT
  5
2C2
  8
0
  6
CONTINUOUS
  2
*X0
 10
0.0
 20
0.0
 30
0.0
1001
ACAD
1000
HATCH
1002
{
1070
    19
1000
ANSI31
1040
5.0
1040
0.0
1000
ASC_BOUNDS
1070
     3
1070
     1
1070
    11
1005
1A0
1005
1D1
1005
157
1005
19F
1005
15A
1005
198
1005
15B
1005
156
1005
1E1
1005
1D5
1005
1A1
1070
     1
1070
     3
1005
253
1005
19A
1005
19B
1070
     1
1070
    12
1005
1E1
1005
156
1005
197
1005
1D7
1005
199
1005
15C
1005
158
1005
1D1
1005
19A
1005
253
1005
19B
1005
19C
1000
ASC_SEEDPOINT
1011
353.28116297646352
1021
0.0
1031
0.0
1021
243.8924453367716
1031
0.0
1000
R14_HATCH_DATA
1000
2C2
1011
1.0
1021
0.0
1031
0.0
1021
0.0
1031
0.0
1011
0.0
1021
0.0
1031
0.0
1021
1.0
1031
0.0
1011
0.0
1021
0.0
1031
0.0
1021
0.0
1031
1.0
1040
0.0
1010
0.0
1020
0.0
1030
1.0
1000
ANSI31
1070
     0
1070
     1
1071
        3
1071
        7
1070
     1
1070
     1
1071
       13
1040
350.41981462445068
1040
246.0695994502841
1040
0.0258261712035052
1040
350.27658797294231
1040
246.12847055903981
1040
0.0
1040
347.92386318605571
1040
243.586706857953
1040
0.0
1040
347.2607679599671
1040
241.11200285059499
1040
0.0043756062965345
1040
347.43333895561898
1040
240.98330598982119
1040
0.0630904317755756
1040
350.1376290268185
1040
239.48474363339881
1040
0.0040898398586793
1040
350.32509582914429
1040
239.4116383623581
1040
0.0
1040
350.7416889650267
1040
240.96638486947811
1040
0.0549013329920963
1040
353.0
1040
240.34320888300459
1040
0.0
1040
353.0
1040
238.7253451337271
1040
0.0040999490143136
1040
353.20000008716312
1040
238.6991050196649
1040
0.0305734036258816
1040
354.69999999999999
1040
238.60729900000001
1040
0.0
1040
354.69999999999999
1040
245.1072989999999
1040
-0.1110276717902032
1071
       12
1005
19C
1005
19B
1005
253
1005
19A
1005
1D1
1005
158
1005
15C
1005
199
1005
1D7
1005
197
1005
156
1005
1E1
1071
        7
1070
     1
1070
     1
1071
        3
1040
348.33023113897201
1040
245.10329205111719
1040
0.0
1040
347.92386318605571
1040
243.58670685795309
1040
0.0
1040
350.27658797294231
1040
246.12847055903981
1040
0.4364952029955982
1071
        3
1005
19B
1005
19A
1005
253
1071
        7
1070
     1
1070
     1
1071
       12
1040
354.69999999999999
1040
245.1072989999999
1040
0.0
1040
354.69999999999999
1040
238.60729900000001
1040
0.0305734036258816
1040
356.1999999128368
1040
238.6991050196649
1040
0.0040999490143137
1040
356.39999999999998
1040
238.7253451337271
1040
0.0
1040
356.39999999999998
1040
240.34320888300459
1040
0.0549013329920952
1040
358.65831103497311
1040
240.96638486947811
1040
0.0
1040
359.07490417085558
1040
239.4116383623581
1040
0.0040898398586793
1040
359.26237097318142
1040
239.48474363339881
1040
0.0630904317755757
1040
361.96666104438083
1040
240.98330598982119
1040
0.0043756062965357
1040
362.13923204003288
1040
241.11200285059499
1040
0.0
1040
361.06976886102802
1040
245.10329205111711
1040
0.467592544891721
1040
358.98018537551388
1040
246.0695994502673
1040
-0.1110276717892132
1071
       11
1005
1A1
1005
1D5
1005
1E1
1005
156
1005
15B
1005
198
1005
15A
1005
19F
1005
157
1005
1D1
1005
1A0
1070
     0
1070
     1
1040
0.0
1040
5.0
1070
     0
1070
     1
1040
0.7853981633974483
1040
0.0
1040
0.0
1040
-0.4419417382415922
1040
0.4419417382415923
1070
     0
1040
0.0253500597594418
1071
        3
1040
353.28116297646352
1040
243.8924453367716
1040
0.0
1040
348.99326891807448
1040
245.41344886423849
1040
0.0
1040
356.60491231859407
1040
243.7656952083999
1040
0.0
1002
}
  0
INSERT
  5
2C8
  8
SUNPOU
  6
CONTINUOUS
  2
*X1
 10
0.0
 20
0.0
 30
0.0
1001
ACAD
1000
HATCH
1002
{
1070
    19
1000
ANSI31
1040
5.0
1040
0.0
1000
ASC_BOUNDS
1070
     1
1070
     1
1070
     4
1005
1EB
1005
14B
1005
159
1005
14C
1000
ASC_SEEDPOINT
1011
253.7719967612247
1021
0.0
1031
0.0
1021
240.1962413467655
1031
0.0
1000
R14_HATCH_DATA
1000
2C8
1011
1.0
1021
0.0
1031
0.0
1021
0.0
1031
0.0
1011
0.0
1021
0.0
1031
0.0
1021
1.0
1031
0.0
1011
0.0
1021
0.0
1031
0.0
1021
0.0
1031
1.0
1040
0.0
1010
0.0
1020
0.0
1030
1.0
1000
ANSI31
1070
     0
1070
     1
1071
        1
1071
        7
1070
     0
1070
     1
1071
        4
1040
253.2999999999999
1040
239.41163900000001
1040
254.5
1040
239.41163900000001
1040
254.5
1040
241.1120029999999
1040
253.30000000000001
1040
241.1120029999999
1071
        4
1005
14C
1005
159
1005
14B
1005
1EB
1070
     0
1070
     1
1040
0.0
1040
5.0
1070
     0
1070
     1
1040
0.7853981633974483
1040
0.0
1040
0.0
1040
-0.4419417382415922
1040
0.4419417382415923
1070
     0
1040
0.0085062997062242
1071
        1
1040
253.7719967612247
1040
240.1962413467655
1040
0.0
1002
}
  0
TEXT
  5
2DC
  8
SUNPOU
 10
343.61658273299719
 20
276.3239084708535
 30
0.0
 40
2.399999999999999
  1
10Å}0.4
  0
TEXT
  5
2DD
  8
SUNPOU
 10
333.1920996169859
 20
256.0538583604415
 30
0.0
 40
2.399999999999999
  1
É”2.8Å}0.2
 50
90.0
  0
TEXT
  5
2DE
  8
SUNPOU
 10
262.69622653176617
 20
218.460171412829
 30
0.0
 40
2.399999999999999
  1
LÅ}1
  0
TEXT
  5
2DF
  8
SUNPOU
 10
243.91179053368211
 20
218.63081262767341
 30
0.0
 40
2.399999999999999
  1
13.5Å}1
  0
TEXT
  5
2E0
  8
SUNPOU
 10
256.89012907929788
 20
225.71245366404949
 30
0.0
 40
2.399999999999999
  1
10Å}1
  0
TEXT
  5
2E1
  8
SUNPOU
 10
277.46762220780897
 20
231.5995997501291
 30
0.0
 40
2.399999999999999
  1
1.6Å}0.2
  0
TEXT
  5
2E3
  8
SUNPOU
 10
258.63144037176022
 20
276.0085190257567
 30
0.0
 40
2.399999999999999
  1
2Å}0.5
  0
TEXT
  5
2E4
  8
SUNPOU
 10
281.0678505692818
 20
256.71737199978691
 30
0.0
 40
2.399999999999999
  1
1Å}0.1
 50
90.0
  0
TEXT
  5
2E5
  8
SUNPOU
 10
229.6076051631581
 20
242.61768782454109
 30
0.0
 40
2.399999999999999
  1
É”24.6Å}0.5
 50
90.0
  0
ENDSEC
  0
EOF
