  0
SECTION
  2
HEADER
  9
$ACADVER
  1
AC1015
  9
$ACADMAINTVER
 70
     6
  9
$DWGCODEPAGE
  3
ANSI_932
  9
$INSBASE
 10
0.0
 20
0.0
 30
0.0
  9
$EXTMIN
 10
-343.5662942122048
 20
-434.988127347935
 30
0.0
  9
$EXTMAX
 10
1606.433705787795
 20
134.71785507815
 30
0.0
  9
$LIMMIN
 10
0.0
 20
0.0
  9
$LIMMAX
 10
420.0
 20
297.0
  9
$ORTHOMODE
 70
     1
  9
$REGENMODE
 70
     1
  9
$FILLMODE
 70
     1
  9
$QTEXTMODE
 70
     0
  9
$MIRRTEXT
 70
     1
  9
$LTSCALE
 40
1.0
  9
$ATTMODE
 70
     1
  9
$TEXTSIZE
 40
3.0
  9
$TRACEWID
 40
0.05
  9
$TEXTSTYLE
  7
STANDARD
  9
$CLAYER
  8
Layer3
  9
$CELTYPE
  6
BYLAYER
  9
$CECOLOR
 62
   256
  9
$CELTSCALE
 40
1.0
  9
$DISPSILH
 70
     0
  9
$DIMSCALE
 40
1.0
  9
$DIMASZ
 40
2.0
  9
$DIMEXO
 40
1.0
  9
$DIMDLI
 40
7.0
  9
$DIMRND
 40
0.0
  9
$DIMDLE
 40
0.0
  9
$DIMEXE
 40
1.0
  9
$DIMTP
 40
0.0
  9
$DIMTM
 40
0.0
  9
$DIMTXT
 40
10.0
  9
$DIMCEN
 40
0.0
  9
$DIMTSZ
 40
0.0
  9
$DIMTOL
 70
     0
  9
$DIMLIM
 70
     0
  9
$DIMTIH
 70
     0
  9
$DIMTOH
 70
     0
  9
$DIMSE1
 70
     0
  9
$DIMSE2
 70
     0
  9
$DIMTAD
 70
     0
  9
$DIMZIN
 70
     8
  9
$DIMBLK
  1

  9
$DIMASO
 70
     1
  9
$DIMSHO
 70
     1
  9
$DIMPOST
  1

  9
$DIMAPOST
  1

  9
$DIMALT
 70
     0
  9
$DIMALTD
 70
     2
  9
$DIMALTF
 40
25.4
  9
$DIMLFAC
 40
1.0
  9
$DIMTOFL
 70
     1
  9
$DIMTVP
 40
1.0
  9
$DIMTIX
 70
     0
  9
$DIMSOXD
 70
     0
  9
$DIMSAH
 70
     0
  9
$DIMBLK1
  1

  9
$DIMBLK2
  1

  9
$DIMSTYLE
  2
STYLE1
  9
$DIMCLRD
 70
     0
  9
$DIMCLRE
 70
     0
  9
$DIMCLRT
 70
     0
  9
$DIMTFAC
 40
1.0
  9
$DIMGAP
 40
0.0
  9
$DIMJUST
 70
     0
  9
$DIMSD1
 70
     0
  9
$DIMSD2
 70
     0
  9
$DIMTOLJ
 70
     1
  9
$DIMTZIN
 70
     8
  9
$DIMALTZ
 70
     8
  9
$DIMALTTZ
 70
     8
  9
$DIMUPT
 70
     0
  9
$DIMDEC
 70
     3
  9
$DIMTDEC
 70
     3
  9
$DIMALTU
 70
     2
  9
$DIMALTTD
 70
     2
  9
$DIMTXSTY
  7
STANDARD
  9
$DIMAUNIT
 70
     0
  9
$DIMADEC
 70
     0
  9
$DIMALTRND
 40
0.0
  9
$DIMAZIN
 70
     0
  9
$DIMDSEP
 70
    46
  9
$DIMATFIT
 70
     3
  9
$DIMFRAC
 70
     0
  9
$DIMLDRBLK
  1

  9
$DIMLUNIT
 70
     2
  9
$DIMLWD
 70
    -2
  9
$DIMLWE
 70
    -2
  9
$DIMTMOVE
 70
     0
  9
$LUNITS
 70
     2
  9
$LUPREC
 70
     3
  9
$SKETCHINC
 40
0.1
  9
$FILLETRAD
 40
0.3
  9
$AUNITS
 70
     0
  9
$AUPREC
 70
     2
  9
$MENU
  1
acad
  9
$ELEVATION
 40
0.0
  9
$PELEVATION
 40
0.0
  9
$THICKNESS
 40
0.0
  9
$LIMCHECK
 70
     0
  9
$CHAMFERA
 40
0.0
  9
$CHAMFERB
 40
0.0
  9
$CHAMFERC
 40
0.0
  9
$CHAMFERD
 40
0.0
  9
$SKPOLY
 70
     0
  9
$TDCREATE
 40
2449545.886377199
  9
$TDUCREATE
 40
2449545.511377199
  9
$TDUPDATE
 40
2453647.635130011
  9
$TDUUPDATE
 40
2453647.260130011
  9
$TDINDWG
 40
1.0920237963
  9
$TDUSRTIMER
 40
1.0920237963
  9
$USRTIMER
 70
     1
  9
$ANGBASE
 50
0.0
  9
$ANGDIR
 70
     0
  9
$PDMODE
 70
     0
  9
$PDSIZE
 40
0.0
  9
$PLINEWID
 40
0.0
  9
$SPLFRAME
 70
     0
  9
$SPLINETYPE
 70
     6
  9
$SPLINESEGS
 70
     8
  9
$HANDSEED
  5
18A0
  9
$SURFTAB1
 70
     6
  9
$SURFTAB2
 70
     6
  9
$SURFTYPE
 70
     6
  9
$SURFU
 70
     6
  9
$SURFV
 70
     6
  9
$UCSBASE
  2

  9
$UCSNAME
  2

  9
$UCSORG
 10
0.0
 20
0.0
 30
0.0
  9
$UCSXDIR
 10
1.0
 20
0.0
 30
0.0
  9
$UCSYDIR
 10
0.0
 20
1.0
 30
0.0
  9
$UCSORTHOREF
  2

  9
$UCSORTHOVIEW
 70
     0
  9
$UCSORGTOP
 10
0.0
 20
0.0
 30
0.0
  9
$UCSORGBOTTOM
 10
0.0
 20
0.0
 30
0.0
  9
$UCSORGLEFT
 10
0.0
 20
0.0
 30
0.0
  9
$UCSORGRIGHT
 10
0.0
 20
0.0
 30
0.0
  9
$UCSORGFRONT
 10
0.0
 20
0.0
 30
0.0
  9
$UCSORGBACK
 10
0.0
 20
0.0
 30
0.0
  9
$PUCSBASE
  2

  9
$PUCSNAME
  2

  9
$PUCSORG
 10
0.0
 20
0.0
 30
0.0
  9
$PUCSXDIR
 10
1.0
 20
0.0
 30
0.0
  9
$PUCSYDIR
 10
0.0
 20
1.0
 30
0.0
  9
$PUCSORTHOREF
  2

  9
$PUCSORTHOVIEW
 70
     0
  9
$PUCSORGTOP
 10
0.0
 20
0.0
 30
0.0
  9
$PUCSORGBOTTOM
 10
0.0
 20
0.0
 30
0.0
  9
$PUCSORGLEFT
 10
0.0
 20
0.0
 30
0.0
  9
$PUCSORGRIGHT
 10
0.0
 20
0.0
 30
0.0
  9
$PUCSORGFRONT
 10
0.0
 20
0.0
 30
0.0
  9
$PUCSORGBACK
 10
0.0
 20
0.0
 30
0.0
  9
$USERI1
 70
     0
  9
$USERI2
 70
     0
  9
$USERI3
 70
     0
  9
$USERI4
 70
     0
  9
$USERI5
 70
     0
  9
$USERR1
 40
0.0
  9
$USERR2
 40
0.0
  9
$USERR3
 40
0.0
  9
$USERR4
 40
0.0
  9
$USERR5
 40
0.0
  9
$WORLDVIEW
 70
     1
  9
$SHADEDGE
 70
     3
  9
$SHADEDIF
 70
    70
  9
$TILEMODE
 70
     1
  9
$MAXACTVP
 70
    16
  9
$PINSBASE
 10
0.0
 20
0.0
 30
0.0
  9
$PLIMCHECK
 70
     0
  9
$PEXTMIN
 10
0.0
 20
0.0
 30
0.0
  9
$PEXTMAX
 10
420.0000000000001
 20
302.7225130890052
 30
0.0
  9
$PLIMMIN
 10
0.0
 20
0.0
  9
$PLIMMAX
 10
420.0
 20
297.0
  9
$UNITMODE
 70
     0
  9
$VISRETAIN
 70
     0
  9
$PLINEGEN
 70
     0
  9
$PSLTSCALE
 70
     1
  9
$TREEDEPTH
 70
  3020
  9
$CMLSTYLE
  2
STANDARD
  9
$CMLJUST
 70
     0
  9
$CMLSCALE
 40
1.0
  9
$PROXYGRAPHICS
 70
     1
  9
$MEASUREMENT
 70
     0
  9
$CELWEIGHT
370
    -1
  9
$ENDCAPS
280
     0
  9
$JOINSTYLE
280
     0
  9
$LWDISPLAY
290
     0
  9
$INSUNITS
 70
     0
  9
$HYPERLINKBASE
  1

  9
$STYLESHEET
  1
monochrome.ctb
  9
$XEDIT
290
     1
  9
$CEPSNTYPE
380
     0
  9
$PSTYLEMODE
290
     1
  9
$FINGERPRINTGUID
  2
{E5BFD884-1444-4908-A764-017D0946F674}
  9
$VERSIONGUID
  2
{21DA8B69-43EE-4B61-8C99-7854075E4D76}
  9
$EXTNAMES
290
     1
  9
$PSVPSCALE
 40
0.0
  9
$OLESTARTUP
290
     0
  0
ENDSEC
  0
SECTION
  2
CLASSES
  0
CLASS
  1
ACDBDICTIONARYWDFLT
  2
AcDbDictionaryWithDefault
  3
AutoCAD 2000
 90
        0
280
     0
281
     0
  0
CLASS
  1
ACDBPLACEHOLDER
  2
AcDbPlaceHolder
  3
AutoCAD 2000
 90
        0
280
     0
281
     0
  0
CLASS
  1
LAYOUT
  2
AcDbLayout
  3
AutoCAD 2000
 90
        0
280
     0
281
     0
  0
CLASS
  1
LONG_TRANSACTION
  2
AcDbLongTransaction
  3
AutoCAD 2000
 90
    32768
280
     0
281
     0
  0
CLASS
  1
LWPOLYLINE
  2
AcDbPolyline
  3
AutoCAD 2000
 90
    32768
280
     0
281
     1
  0
CLASS
  1
HATCH
  2
AcDbHatch
  3
AutoCAD 2000
 90
    32768
280
     0
281
     1
  0
CLASS
  1
XRECORD
  2
AcDbXrecord
  3
AutoCAD 2000
 90
    32768
280
     0
281
     0
  0
CLASS
  1
LONG_TRANSACTION
  2
AcDbLongTransaction
  3
AutoCAD 2000
 90
    32768
280
     0
281
     0
  0
CLASS
  1
LWPOLYLINE
  2
AcDbPolyline
  3
AutoCAD 2000
 90
    32768
280
     0
281
     1
  0
CLASS
  1
HATCH
  2
AcDbHatch
  3
AutoCAD 2000
 90
    32768
280
     0
281
     1
  0
CLASS
  1
XRECORD
  2
AcDbXrecord
  3
AutoCAD 2000
 90
    32768
280
     0
281
     0
  0
CLASS
  1
LONG_TRANSACTION
  2
AcDbLongTransaction
  3
AutoCAD 2000
 90
    32768
280
     0
281
     0
  0
CLASS
  1
LWPOLYLINE
  2
AcDbPolyline
  3
AutoCAD 2000
 90
    32768
280
     0
281
     1
  0
CLASS
  1
HATCH
  2
AcDbHatch
  3
AutoCAD 2000
 90
    32768
280
     0
281
     1
  0
CLASS
  1
XRECORD
  2
AcDbXrecord
  3
AutoCAD 2000
 90
    32768
280
     0
281
     0
  0
CLASS
  1
LONG_TRANSACTION
  2
AcDbLongTransaction
  3
AutoCAD 2000
 90
    32768
280
     0
281
     0
  0
CLASS
  1
LWPOLYLINE
  2
AcDbPolyline
  3
AutoCAD 2000
 90
    32768
280
     0
281
     1
  0
CLASS
  1
HATCH
  2
AcDbHatch
  3
AutoCAD 2000
 90
    32768
280
     0
281
     1
  0
CLASS
  1
XRECORD
  2
AcDbXrecord
  3
AutoCAD 2000
 90
    32768
280
     0
281
     0
  0
CLASS
  1
LONG_TRANSACTION
  2
AcDbLongTransaction
  3
AutoCAD 2000
 90
    32768
280
     0
281
     0
  0
CLASS
  1
LWPOLYLINE
  2
AcDbPolyline
  3
AutoCAD 2000
 90
    32768
280
     0
281
     1
  0
CLASS
  1
HATCH
  2
AcDbHatch
  3
AutoCAD 2000
 90
    32768
280
     0
281
     1
  0
CLASS
  1
XRECORD
  2
AcDbXrecord
  3
AutoCAD 2000
 90
    32768
280
     0
281
     0
  0
CLASS
  1
LONG_TRANSACTION
  2
AcDbLongTransaction
  3
AutoCAD 2000
 90
    32768
280
     0
281
     0
  0
CLASS
  1
LWPOLYLINE
  2
AcDbPolyline
  3
AutoCAD 2000
 90
    32768
280
     0
281
     1
  0
CLASS
  1
HATCH
  2
AcDbHatch
  3
AutoCAD 2000
 90
    32768
280
     0
281
     1
  0
CLASS
  1
XRECORD
  2
AcDbXrecord
  3
AutoCAD 2000
 90
    32768
280
     0
281
     0
  0
ENDSEC
  0
SECTION
  2
TABLES
  0
TABLE
  2
VPORT
  5
13
330
0
100
AcDbSymbolTable
 70
     2
  0
VPORT
  5
189F
330
13
100
AcDbSymbolTableRecord
100
AcDbViewportTableRecord
  2
*Active
 70
     0
 10
0.0
 20
0.0
 11
1.0
 21
1.0
 12
631.4447838786791
 22
-150.1479043683864
 13
0.0
 23
0.0
 14
0.1
 24
0.1
 15
10.0
 25
10.0
 16
0.0
 26
0.0
 36
1.0
 17
0.0
 27
0.0
 37
0.0
 40
1131.924646910173
 41
1.732888146911519
 42
50.0
 43
0.0
 44
0.0
 50
0.0
 51
0.0
 71
     0
 72
   100
 73
     1
 74
     0
 75
     0
 76
     0
 77
     0
 78
     1
281
     0
 65
     1
110
0.0
120
0.0
130
0.0
111
1.0
121
0.0
131
0.0
112
0.0
122
1.0
132
0.0
 79
     0
146
0.0
  0
ENDTAB
  0
TABLE
  2
LTYPE
  5
F
330
0
100
AcDbSymbolTable
 70
     1
  0
LTYPE
  5
10
330
F
100
AcDbSymbolTableRecord
100
AcDbLinetypeTableRecord
  2
BYBLOCK
 70
     0
  3

 72
    65
 73
     0
 40
0.0
  0
LTYPE
  5
6
330
F
100
AcDbSymbolTableRecord
100
AcDbLinetypeTableRecord
  2
BYLAYER
 70
     0
  3

 72
    65
 73
     0
 40
0.0
  0
LTYPE
  5
5
330
F
100
AcDbSymbolTableRecord
100
AcDbLinetypeTableRecord
  2
CONTINUOUS
 70
     0
  3
Solid line
 72
    65
 73
     0
 40
0.0
  0
ENDTAB
  0
TABLE
  2
LAYER
  5
B
330
0
100
AcDbSymbolTable
 70
     5
  0
LAYER
  5
C
330
B
100
AcDbSymbolTableRecord
100
AcDbLayerTableRecord
  2
0
 70
     0
 62
     7
  6
CONTINUOUS
370
    -3
390
2D
  0
LAYER
  5
A93
330
B
100
AcDbSymbolTableRecord
100
AcDbLayerTableRecord
  2
Layer1
 70
     0
 62
     5
  6
CONTINUOUS
370
    -3
390
2D
  0
LAYER
  5
A94
330
B
100
AcDbSymbolTableRecord
100
AcDbLayerTableRecord
  2
Layer2
 70
     0
 62
     3
  6
CONTINUOUS
370
    -3
390
2D
  0
LAYER
  5
A95
330
B
100
AcDbSymbolTableRecord
100
AcDbLayerTableRecord
  2
Layer3
 70
     0
 62
     4
  6
CONTINUOUS
370
    -3
390
2D
  0
LAYER
  5
A96
330
B
100
AcDbSymbolTableRecord
100
AcDbLayerTableRecord
  2
Layer4
 70
     0
 62
     6
  6
CONTINUOUS
370
    -3
390
2D
  0
ENDTAB
  0
TABLE
  2
STYLE
  5
D
330
0
100
AcDbSymbolTable
 70
     1
  0
STYLE
  5
E
330
D
100
AcDbSymbolTableRecord
100
AcDbTextStyleTableRecord
  2
STANDARD
 70
     0
 40
0.0
 41
1.0
 50
0.0
 71
     0
 42
3.0
  3
txt
  4
bigfont
  0
ENDTAB
  0
TABLE
  2
VIEW
  5
11
330
0
100
AcDbSymbolTable
 70
     0
  0
ENDTAB
  0
TABLE
  2
UCS
  5
12
330
0
100
AcDbSymbolTable
 70
     0
  0
ENDTAB
  0
TABLE
  2
APPID
  5
15
330
0
100
AcDbSymbolTable
 70
     1
  0
APPID
  5
16
330
15
100
AcDbSymbolTableRecord
100
AcDbRegAppTableRecord
  2
ACAD
 70
     0
  0
ENDTAB
  0
TABLE
  2
DIMSTYLE
  5
17
330
0
100
AcDbSymbolTable
 70
     3
100
AcDbDimStyleTable
 71
     0
  0
DIMSTYLE
105
3DF
330
17
100
AcDbSymbolTableRecord
100
AcDbDimStyleTableRecord
  2
STYLE1
 70
     0
 41
2.0
 42
1.0
 43
7.0
 44
1.0
 73
     0
 74
     0
 78
     8
140
10.0
141
0.0
145
1.0
147
0.0
172
     1
271
     3
272
     3
284
     8
285
     8
286
     8
340
E
  0
DIMSTYLE
105
405
330
17
100
AcDbSymbolTableRecord
100
AcDbDimStyleTableRecord
  2
STANDARD
 70
     0
340
E
  0
DIMSTYLE
105
A97
330
17
100
AcDbSymbolTableRecord
100
AcDbDimStyleTableRecord
  2
ISO-25
 70
     0
 41
2.5
 42
0.625
 43
3.75
 44
1.25
 73
     0
 74
     0
 77
     1
 78
     8
140
2.5
141
2.5
143
0.03937007874016
147
0.625
171
     3
172
     1
271
     2
272
     2
274
     3
283
     0
284
     8
340
E
  0
ENDTAB
  0
TABLE
  2
BLOCK_RECORD
  5
1
330
0
100
AcDbSymbolTable
 70
     1
  0
BLOCK_RECORD
  5
2
102
{ACAD_XDICTIONARY
360
807
102
}
330
1
100
AcDbSymbolTableRecord
100
AcDbBlockTableRecord
  2
*MODEL_SPACE
340
9DA
  0
BLOCK_RECORD
  5
8
102
{ACAD_XDICTIONARY
360
809
102
}
330
1
100
AcDbSymbolTableRecord
100
AcDbBlockTableRecord
  2
*PAPER_SPACE
340
9DB
  0
BLOCK_RECORD
  5
8D2
330
1
100
AcDbSymbolTableRecord
100
AcDbBlockTableRecord
  2
_OPEN
340
0
  0
ENDTAB
  0
ENDSEC
  0
SECTION
  2
BLOCKS
  0
BLOCK
  5
3
330
2
100
AcDbEntity
  8
0
100
AcDbBlockBegin
  2
*MODEL_SPACE
 70
     0
 10
0.0
 20
0.0
 30
0.0
  3
*MODEL_SPACE
  1

  0
ENDBLK
  5
7
330
2
100
AcDbEntity
  8
0
100
AcDbBlockEnd
  0
BLOCK
  5
9
330
8
100
AcDbEntity
 67
     1
  8
0
100
AcDbBlockBegin
  2
*PAPER_SPACE
 70
     0
 10
0.0
 20
0.0
 30
0.0
  3
*PAPER_SPACE
  1

  0
ENDBLK
  5
A
330
8
100
AcDbEntity
 67
     1
  8
0
100
AcDbBlockEnd
  0
BLOCK
  5
8D6
330
8D2
100
AcDbEntity
  8
0
100
AcDbBlockBegin
  2
_OPEN
 70
     0
 10
0.0
 20
0.0
 30
0.0
  3
_OPEN
  1

  0
LINE
  5
8D3
330
8D2
100
AcDbEntity
  8
0
  6
ByBlock
 62
     0
100
AcDbLine
 10
-1.0
 20
0.1666666666666666
 30
0.0
 11
0.0
 21
0.0
 31
0.0
  0
LINE
  5
8D4
330
8D2
100
AcDbEntity
  8
0
  6
ByBlock
 62
     0
100
AcDbLine
 10
-1.0
 20
-0.1666666666666666
 30
0.0
 11
0.0
 21
0.0
 31
0.0
  0
LINE
  5
8D5
330
8D2
100
AcDbEntity
  8
0
  6
ByBlock
 62
     0
100
AcDbLine
 10
0.0
 20
0.0
 30
0.0
 11
-1.0
 21
0.0
 31
0.0
  0
ENDBLK
  5
8D7
330
8D2
100
AcDbEntity
  8
0
100
AcDbBlockEnd
  0
ENDSEC
  0
SECTION
  2
ENTITIES
  0
MTEXT
  5
EAE
330
2
100
AcDbEntity
  8
Layer4
100
AcDbMText
 10
-340.6975520378581
 20
134.71785507815
 30
0.0
 40
50.0
 41
1594.507
 71
     1
 72
     5
  1
òZäpåäïtÉ{ÉãÉg{\Ftxt.shx;(JIS B }1176{\Ftxt.shx;)}Å@1988
 73
     1
 44
1.0
  0
MTEXT
  5
EAF
330
2
100
AcDbEntity
  8
Layer4
100
AcDbMText
 10
-340.6975520378581
 20
66.5198032835533
 30
0.0
 40
30.0
 41
2653.405
 71
     1
 72
     5
  1
Hexagon Socket head cap screws (JIS B 1176) 1988
 73
     1
 44
1.0
  0
MTEXT
  5
EB2
330
2
100
AcDbEntity
  8
Layer4
100
AcDbMText
 10
411.6343138950542
 20
-406.5580891024021
 30
0.0
 40
12.0
 41
2653.405
 71
     1
 72
     5
  1
L=16-100mm
 73
     1
 44
1.0
  0
LINE
  5
EB3
330
2
100
AcDbEntity
  8
Layer1
100
AcDbLine
 10
1606.433705787795
 20
-393.7219004398302
 30
0.0
 11
-343.5662942122041
 21
-393.7219004398302
 31
0.0
  0
LINE
  5
EB4
330
2
100
AcDbEntity
  8
Layer1
100
AcDbLine
 10
1606.433705787795
 20
-434.988127347935
 30
0.0
 11
-343.5662942122043
 21
-434.988127347935
 31
0.0
  0
LINE
  5
EB5
330
2
100
AcDbEntity
  8
Layer1
100
AcDbLine
 10
1606.433705787795
 20
-132.3021369184808
 30
0.0
 11
-343.5662942122047
 21
-132.3021369184816
 31
0.0
  0
LINE
  5
EB6
330
2
100
AcDbEntity
  8
Layer1
100
AcDbLine
 10
1606.433705787795
 20
-32.30213691848144
 30
0.0
 11
-343.5662942122047
 21
-32.30213691848189
 31
0.0
  0
LINE
  5
EB7
330
2
100
AcDbEntity
  8
Layer1
100
AcDbLine
 10
856.4337057877953
 20
-434.988127347935
 30
0.0
 11
856.4337057877949
 21
-32.30213691848166
 31
0.0
  0
LINE
  5
EB8
330
2
100
AcDbEntity
  8
Layer1
100
AcDbLine
 10
706.4337057877954
 20
-434.988127347935
 30
0.0
 11
706.4337057877949
 21
-32.30213691848166
 31
0.0
  0
LINE
  5
EB9
330
2
100
AcDbEntity
  8
Layer1
100
AcDbLine
 10
556.4337057877954
 20
-434.988127347935
 30
0.0
 11
556.433705787795
 21
-32.30213691848166
 31
0.0
  0
LINE
  5
EBA
330
2
100
AcDbEntity
  8
Layer1
100
AcDbLine
 10
406.4337057877955
 20
-434.988127347935
 30
0.0
 11
406.4337057877951
 21
-32.30213691848166
 31
0.0
  0
LINE
  5
EBB
330
2
100
AcDbEntity
  8
Layer1
100
AcDbLine
 10
256.4337057877955
 20
-434.988127347935
 30
0.0
 11
256.4337057877951
 21
-32.30213691848166
 31
0.0
  0
LINE
  5
EBC
330
2
100
AcDbEntity
  8
Layer1
100
AcDbLine
 10
106.4337057877955
 20
-434.988127347935
 30
0.0
 11
106.4337057877951
 21
-32.30213691848166
 31
0.0
  0
LINE
  5
EBD
330
2
100
AcDbEntity
  8
Layer1
100
AcDbLine
 10
-43.56629421220441
 20
-434.988127347935
 30
0.0
 11
-43.56629421220486
 21
-32.30213691848166
 31
0.0
  0
LINE
  5
EBE
330
2
100
AcDbEntity
  8
Layer1
100
AcDbLine
 10
-193.5662942122044
 20
-434.988127347935
 30
0.0
 11
-193.5662942122048
 21
-32.30213691848166
 31
0.0
  0
LINE
  5
EBF
330
2
100
AcDbEntity
  8
Layer1
100
AcDbLine
 10
-343.5662942122043
 20
-434.988127347935
 30
0.0
 11
-343.5662942122048
 21
-32.30213691848166
 31
0.0
  0
MTEXT
  5
F05
330
2
100
AcDbEntity
  8
Layer4
100
AcDbMText
 10
-38.36568610494509
 20
-406.5580891024021
 30
0.0
 40
12.0
 41
2653.405
 71
     1
 72
     5
  1
L=8-50mm
 73
     1
 44
1.0
  0
MTEXT
  5
F06
330
2
100
AcDbEntity
  8
Layer4
100
AcDbMText
 10
-188.3656861049455
 20
-406.5580891024021
 30
0.0
 40
12.0
 41
2653.405
 71
     1
 72
     5
  1
L=6-40mm
 73
     1
 44
1.0
  0
MTEXT
  5
F07
330
2
100
AcDbEntity
  8
Layer4
100
AcDbMText
 10
-338.3656861049455
 20
-406.5580891024021
 30
0.0
 40
12.0
 41
2653.405
 71
     1
 72
     5
  1
L=5-30mm
 73
     1
 44
1.0
  0
MTEXT
  5
F34
330
2
100
AcDbEntity
  8
Layer4
100
AcDbMText
 10
111.6343138950544
 20
-406.5580891024021
 30
0.0
 40
12.0
 41
2653.405
 71
     1
 72
     5
  1
L=10-60mm
 73
     1
 44
1.0
  0
MTEXT
  5
F35
330
2
100
AcDbEntity
  8
Layer4
100
AcDbMText
 10
261.6343138950546
 20
-406.5580891024021
 30
0.0
 40
12.0
 41
2653.405
 71
     1
 72
     5
  1
L=12-80mm
 73
     1
 44
1.0
  0
MTEXT
  5
F7B
330
2
100
AcDbEntity
  8
Layer4
100
AcDbMText
 10
-5.714559030075861
 20
-65.60380401873288
 30
0.0
 40
30.0
 41
75.03399999999999
 71
     1
 72
     5
  1
M5
 73
     1
 44
1.0
  0
MTEXT
  5
F7C
330
2
100
AcDbEntity
  8
Layer4
100
AcDbMText
 10
-305.7145590300756
 20
-65.603804018733
 30
0.0
 40
30.0
 41
75.03399999999999
 71
     1
 72
     5
  1
M3
 73
     1
 44
1.0
  0
MTEXT
  5
F7D
330
2
100
AcDbEntity
  8
Layer4
100
AcDbMText
 10
-155.7145590300756
 20
-65.603804018733
 30
0.0
 40
30.0
 41
75.03399999999999
 71
     1
 72
     5
  1
M4
 73
     1
 44
1.0
  0
MTEXT
  5
F7E
330
2
100
AcDbEntity
  8
Layer4
100
AcDbMText
 10
144.2854409699241
 20
-65.60380401873288
 30
0.0
 40
30.0
 41
75.03399999999999
 71
     1
 72
     5
  1
M6
 73
     1
 44
1.0
  0
MTEXT
  5
F7F
330
2
100
AcDbEntity
  8
Layer4
100
AcDbMText
 10
294.2854409699241
 20
-65.60380401873288
 30
0.0
 40
30.0
 41
75.03399999999999
 71
     1
 72
     5
  1
M8
 73
     1
 44
1.0
  0
LINE
  5
F80
330
2
100
AcDbEntity
  8
Layer1
100
AcDbLine
 10
1606.433705787795
 20
-434.988127347935
 30
0.0
 11
1606.433705787795
 21
-32.30213691848166
 31
0.0
  0
LINE
  5
F81
330
2
100
AcDbEntity
  8
Layer1
100
AcDbLine
 10
1456.433705787795
 20
-434.988127347935
 30
0.0
 11
1456.433705787794
 21
-32.30213691848166
 31
0.0
  0
LINE
  5
F82
330
2
100
AcDbEntity
  8
Layer1
100
AcDbLine
 10
1306.433705787795
 20
-434.988127347935
 30
0.0
 11
1306.433705787795
 21
-32.30213691848166
 31
0.0
  0
LINE
  5
F83
330
2
100
AcDbEntity
  8
Layer1
100
AcDbLine
 10
1156.433705787795
 20
-434.988127347935
 30
0.0
 11
1156.433705787794
 21
-32.30213691848166
 31
0.0
  0
LINE
  5
F84
330
2
100
AcDbEntity
  8
Layer1
100
AcDbLine
 10
1006.433705787795
 20
-434.988127347935
 30
0.0
 11
1006.433705787795
 21
-32.30213691848166
 31
0.0
  0
MTEXT
  5
F85
330
2
100
AcDbEntity
  8
Layer4
100
AcDbMText
 10
561.6343138950544
 20
-406.5580891024021
 30
0.0
 40
12.0
 41
2653.405
 71
     1
 72
     5
  1
L=20-120mm
 73
     1
 44
1.0
  0
MTEXT
  5
F86
330
2
100
AcDbEntity
  8
Layer4
100
AcDbMText
 10
861.6343138950544
 20
-406.5580891024014
 30
0.0
 40
12.0
 41
2653.405
 71
     1
 72
     5
  1
L=25-160mm
 73
     1
 44
1.0
  0
MTEXT
  5
FCB
330
2
100
AcDbEntity
  8
Layer4
100
AcDbMText
 10
1161.634313895054
 20
-406.5580891024016
 30
0.0
 40
12.0
 41
2653.405
 71
     1
 72
     5
  1
L=30-200mm
 73
     1
 44
1.0
  0
MTEXT
  5
FE2
330
2
100
AcDbEntity
  8
Layer4
100
AcDbMText
 10
594.2854409699241
 20
-65.60380401873278
 30
0.0
 40
30.0
 41
75.03399999999999
 71
     1
 72
     5
  1
M12
 73
     1
 44
1.0
  0
MTEXT
  5
FE3
330
2
100
AcDbEntity
  8
Layer4
100
AcDbMText
 10
444.2854409699241
 20
-65.60380401873288
 30
0.0
 40
30.0
 41
75.03399999999999
 71
     1
 72
     5
  1
M10
 73
     1
 44
1.0
  0
MTEXT
  5
FE4
330
2
100
AcDbEntity
  8
Layer4
100
AcDbMText
 10
894.2854409699242
 20
-65.60380401873209
 30
0.0
 40
30.0
 41
75.03399999999999
 71
     1
 72
     5
  1
M16
 73
     1
 44
1.0
  0
MTEXT
  5
FE5
330
2
100
AcDbEntity
  8
Layer4
100
AcDbMText
 10
1194.285440969924
 20
-65.60380401873243
 30
0.0
 40
30.0
 41
75.03399999999999
 71
     1
 72
     5
  1
M20
 73
     1
 44
1.0
  0
MTEXT
  5
FE6
330
2
100
AcDbEntity
  8
Layer4
100
AcDbMText
 10
1494.285440969924
 20
-65.60380401873249
 30
0.0
 40
30.0
 41
75.03399999999999
 71
     1
 72
     5
  1
M24
 73
     1
 44
1.0
  0
MTEXT
  5
FE7
330
2
100
AcDbEntity
  8
Layer4
100
AcDbMText
 10
1461.634313895054
 20
-406.5580891024015
 30
0.0
 40
12.0
 41
2653.405
 71
     1
 72
     5
  1
L=40-200mm
 73
     1
 44
1.0
  0
LINE
  5
1706
330
2
100
AcDbEntity
  8
Layer3
100
AcDbLine
 10
1246.433705787795
 20
-193.3695150383096
 30
0.0
 11
1216.433705787795
 21
-193.3695150383096
 31
0.0
  0
LINE
  5
1707
330
2
100
AcDbEntity
  8
Layer3
100
AcDbLine
 10
1244.701654172657
 20
-192.3695150383096
 30
0.0
 11
1218.165757402933
 21
-192.3695150383096
 31
0.0
  0
LINE
  5
1708
330
2
100
AcDbEntity
  8
Layer3
100
AcDbLine
 10
1246.433705787795
 20
-212.3695150383096
 30
0.0
 11
1216.433705787795
 21
-212.3695150383096
 31
0.0
  0
CIRCLE
  5
1709
330
2
100
AcDbEntity
  8
Layer3
100
AcDbCircle
 10
1231.433705787795
 20
-168.8823761287885
 30
0.0
 40
13.26794838486186
  0
CIRCLE
  5
170A
330
2
100
AcDbEntity
  8
Layer3
100
AcDbCircle
 10
1231.433705787795
 20
-168.8823761287885
 30
0.0
 40
15.0
  0
LINE
  5
170B
330
2
100
AcDbEntity
  8
Layer3
100
AcDbLine
 10
477.2457057877955
 20
-197.854147540457
 30
0.0
 11
476.4337057877956
 21
-196.4477222847111
 31
0.0
  0
LINE
  5
170C
330
2
100
AcDbEntity
  8
Layer3
100
AcDbLine
 10
473.4337057877955
 20
-184.454147540457
 30
0.0
 11
489.4337057877955
 21
-184.454147540457
 31
0.0
  0
LINE
  5
170D
330
2
100
AcDbEntity
  8
Layer3
100
AcDbLine
 10
476.4337057877956
 20
-197.854147540457
 30
0.0
 11
486.4337057877955
 21
-197.854147540457
 31
0.0
  0
LINE
  5
170E
330
2
100
AcDbEntity
  8
Layer3
100
AcDbLine
 10
477.9337057877955
 20
-243.854147540457
 30
0.0
 11
476.4337057877956
 21
-242.354147540457
 31
0.0
  0
LINE
  5
170F
330
2
100
AcDbEntity
  8
Layer3
100
AcDbLine
 10
476.4337057877956
 20
-242.354147540457
 30
0.0
 11
485.6217057877955
 21
-242.354147540457
 31
0.0
  0
LINE
  5
1710
330
2
100
AcDbEntity
  8
Layer3
100
AcDbLine
 10
474.4729362723369
 20
-183.854147540457
 30
0.0
 11
488.3944753032542
 21
-183.854147540457
 31
0.0
  0
LINE
  5
1711
330
2
100
AcDbEntity
  8
Layer3
100
AcDbLine
 10
473.4337057877955
 20
-193.854147540457
 30
0.0
 11
489.4337057877955
 21
-193.854147540457
 31
0.0
  0
CIRCLE
  5
1712
330
2
100
AcDbEntity
  8
Layer3
100
AcDbCircle
 10
481.4337057877955
 20
-168.8823761287885
 30
0.0
 40
6.960769030917121
  0
CIRCLE
  5
1713
330
2
100
AcDbEntity
  8
Layer3
100
AcDbCircle
 10
481.4337057877955
 20
-168.8823761287885
 30
0.0
 40
8.0
  0
LINE
  5
1714
330
2
100
AcDbEntity
  8
Layer3
100
AcDbLine
 10
476.4337057877956
 20
-193.854147540457
 30
0.0
 11
476.4337057877956
 21
-242.354147540457
 31
0.0
  0
LINE
  5
1715
330
2
100
AcDbEntity
  8
Layer3
100
AcDbLine
 10
328.1837057877956
 20
-193.0923474493708
 30
0.0
 11
328.1837057877956
 21
-229.6423474493708
 31
0.0
  0
LINE
  5
1716
330
2
100
AcDbEntity
  8
Layer3
100
AcDbLine
 10
327.4337057877955
 20
-190.0923474493708
 30
0.0
 11
327.4337057877955
 21
-228.8923474493708
 31
0.0
  0
LINE
  5
1717
330
2
100
AcDbEntity
  8
Layer3
100
AcDbLine
 10
334.6837057877956
 20
-193.0923474493708
 30
0.0
 11
334.6837057877956
 21
-229.6423474493708
 31
0.0
  0
LINE
  5
1718
330
2
100
AcDbEntity
  8
Layer3
100
AcDbLine
 10
335.4337057877955
 20
-190.0923474493708
 30
0.0
 11
335.4337057877955
 21
-228.8923474493708
 31
0.0
  0
LINE
  5
1719
330
2
100
AcDbEntity
  8
Layer3
100
AcDbLine
 10
334.6837057877956
 20
-228.8923474493708
 30
0.0
 11
327.4337057877955
 21
-228.8923474493708
 31
0.0
  0
LINE
  5
171A
330
2
100
AcDbEntity
  8
Layer3
100
AcDbLine
 10
334.2337057877955
 20
-230.0923474493708
 30
0.0
 11
328.6337057877955
 21
-230.0923474493708
 31
0.0
  0
LINE
  5
171B
330
2
100
AcDbEntity
  8
Layer3
100
AcDbLine
 10
327.4337057877955
 20
-228.8923474493708
 30
0.0
 11
328.6337057877955
 21
-230.0923474493708
 31
0.0
  0
LINE
  5
171C
330
2
100
AcDbEntity
  8
Layer3
100
AcDbLine
 10
335.4337057877955
 20
-228.8923474493708
 30
0.0
 11
334.2337057877955
 21
-230.0923474493708
 31
0.0
  0
LINE
  5
1720
330
2
100
AcDbEntity
  8
Layer3
100
AcDbLine
 10
-270.0662942122048
 20
-181.1327460331646
 30
0.0
 11
-270.0662942122048
 21
-200.5327460331646
 31
0.0
  0
LINE
  5
1721
330
2
100
AcDbEntity
  8
Layer3
100
AcDbLine
 10
-267.0662942122048
 20
-181.1327460331646
 30
0.0
 11
-267.0662942122048
 21
-200.5327460331646
 31
0.0
  0
LINE
  5
1722
330
2
100
AcDbEntity
  8
Layer3
100
AcDbLine
 10
-269.7957942122048
 20
-183.1327460331646
 30
0.0
 11
-269.7957942122048
 21
-200.8032460331646
 31
0.0
  0
LINE
  5
1723
330
2
100
AcDbEntity
  8
Layer3
100
AcDbLine
 10
-267.3367942122048
 20
-183.1327460331646
 30
0.0
 11
-267.3367942122048
 21
-200.8032460331646
 31
0.0
  0
LINE
  5
1724
330
2
100
AcDbEntity
  8
Layer3
100
AcDbLine
 10
-267.6662942122049
 20
-201.1327460331646
 30
0.0
 11
-269.4662942122048
 21
-201.1327460331647
 31
0.0
  0
LINE
  5
1725
330
2
100
AcDbEntity
  8
Layer3
100
AcDbLine
 10
-267.0662942122048
 20
-200.5327460331646
 30
0.0
 11
-270.0662942122048
 21
-200.5327460331646
 31
0.0
  0
LINE
  5
1726
330
2
100
AcDbEntity
  8
Layer3
100
AcDbLine
 10
-270.0662942122048
 20
-200.5327460331646
 30
0.0
 11
-269.4662942122048
 21
-201.1327460331647
 31
0.0
  0
LINE
  5
1727
330
2
100
AcDbEntity
  8
Layer3
100
AcDbLine
 10
-267.0662942122048
 20
-200.5327460331646
 30
0.0
 11
-267.6662942122049
 21
-201.1327460331646
 31
0.0
  0
LINE
  5
1728
330
2
100
AcDbEntity
  8
Layer3
100
AcDbLine
 10
-265.8162942122048
 20
-178.3327460331646
 30
0.0
 11
-271.3162942122048
 21
-178.3327460331646
 31
0.0
  0
LINE
  5
1729
330
2
100
AcDbEntity
  8
Layer3
100
AcDbLine
 10
-266.1627043737186
 20
-178.1327460331646
 30
0.0
 11
-270.9698840506911
 21
-178.1327460331646
 31
0.0
  0
LINE
  5
172A
330
2
100
AcDbEntity
  8
Layer3
100
AcDbLine
 10
-267.0662942122048
 20
-183.1327460331646
 30
0.0
 11
-270.0662942122048
 21
-183.1327460331646
 31
0.0
  0
LINE
  5
172B
330
2
100
AcDbEntity
  8
Layer3
100
AcDbLine
 10
-265.8162942122048
 20
-181.1327460331646
 30
0.0
 11
-271.3162942122048
 21
-181.1327460331646
 31
0.0
  0
LINE
  5
172C
330
2
100
AcDbEntity
  8
Layer3
100
AcDbLine
 10
-269.7957942122048
 20
-183.1327460331646
 30
0.0
 11
-270.0662942122048
 21
-182.6642262897173
 31
0.0
  0
LINE
  5
172D
330
2
100
AcDbEntity
  8
Layer3
100
AcDbLine
 10
-271.3162942122048
 20
-178.3327460331646
 30
0.0
 11
-270.9698840506911
 21
-178.1327460331646
 31
0.0
  0
LINE
  5
172E
330
2
100
AcDbEntity
  8
Layer3
100
AcDbLine
 10
-271.3162942122048
 20
-178.3327460331647
 30
0.0
 11
-271.3162942122048
 21
-181.1327460331646
 31
0.0
  0
LINE
  5
172F
330
2
100
AcDbEntity
  8
Layer3
100
AcDbLine
 10
-267.3367942122048
 20
-183.1327460331646
 30
0.0
 11
-267.0662942122048
 21
-182.6642262897173
 31
0.0
  0
LINE
  5
1730
330
2
100
AcDbEntity
  8
Layer3
100
AcDbLine
 10
-265.8162942122048
 20
-178.3327460331646
 30
0.0
 11
-266.1627043737186
 21
-178.1327460331646
 31
0.0
  0
LINE
  5
1731
330
2
100
AcDbEntity
  8
Layer3
100
AcDbLine
 10
-265.8162942122048
 20
-178.3327460331646
 30
0.0
 11
-265.8162942122048
 21
-181.1327460331646
 31
0.0
  0
LINE
  5
1732
330
2
100
AcDbEntity
  8
Layer3
100
AcDbLine
 10
-269.2879817122047
 20
-170.1323755459758
 30
0.0
 11
-267.8446067122048
 21
-170.1323755459758
 31
0.0
  0
LINE
  5
1733
330
2
100
AcDbEntity
  8
Layer3
100
AcDbLine
 10
-267.8446067122048
 20
-167.6323767116011
 30
0.0
 11
-269.2879817122047
 21
-167.6323767116011
 31
0.0
  0
CIRCLE
  5
1734
330
2
100
AcDbEntity
  8
Layer3
100
AcDbCircle
 10
-268.5662942122048
 20
-168.8823761287885
 30
0.0
 40
2.403589676972373
  0
CIRCLE
  5
1735
330
2
100
AcDbEntity
  8
Layer3
100
AcDbCircle
 10
-268.5662942122048
 20
-168.8823761287885
 30
0.0
 40
2.75
  0
LINE
  5
1736
330
2
100
AcDbEntity
  8
Layer3
100
AcDbLine
 10
-270.0096692122049
 20
-168.8823761287885
 30
0.0
 11
-269.2879817122047
 21
-170.1323755459758
 31
0.0
  0
LINE
  5
1737
330
2
100
AcDbEntity
  8
Layer3
100
AcDbLine
 10
-269.2879817122047
 20
-167.6323767116011
 30
0.0
 11
-270.0096692122049
 21
-168.8823761287885
 31
0.0
  0
LINE
  5
1738
330
2
100
AcDbEntity
  8
Layer3
100
AcDbLine
 10
-267.8446067122048
 20
-170.1323755459758
 30
0.0
 11
-267.1229192122047
 21
-168.8823761287885
 31
0.0
  0
LINE
  5
1739
330
2
100
AcDbEntity
  8
Layer3
100
AcDbLine
 10
-267.1229192122047
 20
-168.8823761287885
 30
0.0
 11
-267.8446067122048
 21
-167.6323767116011
 31
0.0
  0
LINE
  5
173A
330
2
100
AcDbEntity
  8
Layer3
100
AcDbLine
 10
186.4337057877955
 20
-180.5837304885594
 30
0.0
 11
176.4337057877956
 21
-180.5837304885594
 31
0.0
  0
LINE
  5
173B
330
2
100
AcDbEntity
  8
Layer3
100
AcDbLine
 10
185.7408854647679
 20
-180.1837304885594
 30
0.0
 11
177.1265261108232
 21
-180.1837304885594
 31
0.0
  0
LINE
  5
173C
330
2
100
AcDbEntity
  8
Layer3
100
AcDbLine
 10
186.4337057877955
 20
-186.1837304885595
 30
0.0
 11
176.4337057877956
 21
-186.1837304885595
 31
0.0
  0
CIRCLE
  5
173E
330
2
100
AcDbEntity
  8
Layer3
100
AcDbCircle
 10
181.4337057877955
 20
-168.8823761287885
 30
0.0
 40
4.307179353944746
  0
CIRCLE
  5
173F
330
2
100
AcDbEntity
  8
Layer3
100
AcDbCircle
 10
181.4337057877955
 20
-168.8823761287885
 30
0.0
 40
5.0
  0
LINE
  5
1741
330
2
100
AcDbEntity
  8
Layer3
100
AcDbLine
 10
-116.9422942122043
 20
-184.4219301368491
 30
0.0
 11
-116.9422942122043
 21
-201.9979301368491
 31
0.0
  0
LINE
  5
1742
330
2
100
AcDbEntity
  8
Layer3
100
AcDbLine
 10
-120.1902942122044
 20
-184.4219301368491
 30
0.0
 11
-120.1902942122044
 21
-201.9979301368491
 31
0.0
  0
LINE
  5
1743
330
2
100
AcDbEntity
  8
Layer3
100
AcDbLine
 10
-116.5662942122044
 20
-182.4219301368492
 30
0.0
 11
-116.5662942122044
 21
-201.6219301368491
 31
0.0
  0
LINE
  5
1744
330
2
100
AcDbEntity
  8
Layer3
100
AcDbLine
 10
-120.5662942122044
 20
-182.4219301368492
 30
0.0
 11
-120.5662942122044
 21
-201.6219301368491
 31
0.0
  0
LINE
  5
1745
330
2
100
AcDbEntity
  8
Layer3
100
AcDbLine
 10
-116.5662942122044
 20
-201.6219301368491
 30
0.0
 11
-120.5662942122044
 21
-201.6219301368491
 31
0.0
  0
LINE
  5
1746
330
2
100
AcDbEntity
  8
Layer3
100
AcDbLine
 10
-116.5662942122044
 20
-201.6219301368491
 30
0.0
 11
-117.3662942122043
 21
-202.4219301368491
 31
0.0
  0
LINE
  5
1747
330
2
100
AcDbEntity
  8
Layer3
100
AcDbLine
 10
-117.3662942122043
 20
-202.4219301368491
 30
0.0
 11
-119.7662942122044
 21
-202.4219301368491
 31
0.0
  0
LINE
  5
1748
330
2
100
AcDbEntity
  8
Layer3
100
AcDbLine
 10
-120.5662942122044
 20
-201.6219301368491
 30
0.0
 11
-119.7662942122044
 21
-202.4219301368491
 31
0.0
  0
LINE
  5
1749
330
2
100
AcDbEntity
  8
Layer3
100
AcDbLine
 10
-116.9422942122043
 20
-184.4219301368491
 30
0.0
 11
-116.5662942122044
 21
-183.7706790332033
 31
0.0
  0
LINE
  5
174A
330
2
100
AcDbEntity
  8
Layer3
100
AcDbLine
 10
-116.5662942122044
 20
-184.4219301368491
 30
0.0
 11
-120.5662942122044
 21
-184.4219301368491
 31
0.0
  0
LINE
  5
174B
330
2
100
AcDbEntity
  8
Layer3
100
AcDbLine
 10
-115.0662942122044
 20
-178.7219301368492
 30
0.0
 11
-122.0662942122044
 21
-178.7219301368492
 31
0.0
  0
LINE
  5
174C
330
2
100
AcDbEntity
  8
Layer3
100
AcDbLine
 10
-115.0662942122044
 20
-182.4219301368492
 30
0.0
 11
-122.0662942122044
 21
-182.4219301368492
 31
0.0
  0
LINE
  5
174D
330
2
100
AcDbEntity
  8
Layer3
100
AcDbLine
 10
-115.585909454475
 20
-178.4219301368491
 30
0.0
 11
-121.5466789699337
 21
-178.4219301368491
 31
0.0
  0
LINE
  5
174E
330
2
100
AcDbEntity
  8
Layer3
100
AcDbLine
 10
-122.0662942122044
 20
-178.7219301368492
 30
0.0
 11
-122.0662942122044
 21
-182.4219301368492
 31
0.0
  0
LINE
  5
174F
330
2
100
AcDbEntity
  8
Layer3
100
AcDbLine
 10
-120.1902942122044
 20
-184.4219301368491
 30
0.0
 11
-120.5662942122044
 21
-183.7706790332032
 31
0.0
  0
LINE
  5
1750
330
2
100
AcDbEntity
  8
Layer3
100
AcDbLine
 10
-122.0662942122044
 20
-178.7219301368492
 30
0.0
 11
-121.5466789699337
 21
-178.4219301368491
 31
0.0
  0
LINE
  5
1751
330
2
100
AcDbEntity
  8
Layer3
100
AcDbLine
 10
-115.0662942122044
 20
-178.7219301368492
 30
0.0
 11
-115.0662942122044
 21
-182.4219301368492
 31
0.0
  0
LINE
  5
1752
330
2
100
AcDbEntity
  8
Layer3
100
AcDbLine
 10
-115.0662942122044
 20
-178.7219301368492
 30
0.0
 11
-115.585909454475
 21
-178.4219301368491
 31
0.0
  0
LINE
  5
1753
330
2
100
AcDbEntity
  8
Layer3
100
AcDbLine
 10
28.93370578779558
 20
-184.4496469218054
 30
0.0
 11
28.9337057877956
 21
-213.5496469218054
 31
0.0
  0
LINE
  5
1754
330
2
100
AcDbEntity
  8
Layer3
100
AcDbLine
 10
33.93370578779558
 20
-184.4496469218054
 30
0.0
 11
33.9337057877956
 21
-213.5496469218054
 31
0.0
  0
LINE
  5
1755
330
2
100
AcDbEntity
  8
Layer3
100
AcDbLine
 10
29.36670578779558
 20
-188.4496469218054
 30
0.0
 11
29.36670578779559
 21
-213.9826469218054
 31
0.0
  0
LINE
  5
1756
330
2
100
AcDbEntity
  8
Layer3
100
AcDbLine
 10
33.50070578779559
 20
-188.4496469218054
 30
0.0
 11
33.50070578779561
 21
-213.9826469218054
 31
0.0
  0
LINE
  5
1757
330
2
100
AcDbEntity
  8
Layer3
100
AcDbLine
 10
33.9337057877956
 20
-213.5496469218054
 30
0.0
 11
28.9337057877956
 21
-213.5496469218054
 31
0.0
  0
LINE
  5
1758
330
2
100
AcDbEntity
  8
Layer3
100
AcDbLine
 10
33.03370578779562
 20
-214.4496469218054
 30
0.0
 11
29.83370578779558
 21
-214.4496469218054
 31
0.0
  0
LINE
  5
1759
330
2
100
AcDbEntity
  8
Layer3
100
AcDbLine
 10
29.83370578779558
 20
-214.4496469218054
 30
0.0
 11
28.9337057877956
 21
-213.5496469218054
 31
0.0
  0
LINE
  5
175A
330
2
100
AcDbEntity
  8
Layer3
100
AcDbLine
 10
33.9337057877956
 20
-213.5496469218054
 30
0.0
 11
33.03370578779562
 21
-214.4496469218054
 31
0.0
  0
LINE
  5
175B
330
2
100
AcDbEntity
  8
Layer3
100
AcDbLine
 10
35.68370578779559
 20
-179.7496469218055
 30
0.0
 11
27.18370578779559
 21
-179.7496469218055
 31
0.0
  0
LINE
  5
175C
330
2
100
AcDbEntity
  8
Layer3
100
AcDbLine
 10
35.68370578779559
 20
-184.4496469218054
 30
0.0
 11
27.18370578779559
 21
-184.4496469218054
 31
0.0
  0
LINE
  5
175D
330
2
100
AcDbEntity
  8
Layer3
100
AcDbLine
 10
35.16409054552491
 20
-179.4496469218054
 30
0.0
 11
27.70332103006626
 21
-179.4496469218054
 31
0.0
  0
LINE
  5
175F
330
2
100
AcDbEntity
  8
Layer3
100
AcDbLine
 10
27.18370578779559
 20
-179.7496469218055
 30
0.0
 11
27.18370578779559
 21
-184.4496469218054
 31
0.0
  0
LINE
  5
1760
330
2
100
AcDbEntity
  8
Layer3
100
AcDbLine
 10
33.93370578779558
 20
-188.4496469218054
 30
0.0
 11
28.93370578779558
 21
-188.4496469218054
 31
0.0
  0
LINE
  5
1761
330
2
100
AcDbEntity
  8
Layer3
100
AcDbLine
 10
29.36670578779558
 20
-188.4496469218054
 30
0.0
 11
28.93370578779558
 21
-187.6996689221281
 31
0.0
  0
LINE
  5
1762
330
2
100
AcDbEntity
  8
Layer3
100
AcDbLine
 10
33.50070578779559
 20
-188.4496469218054
 30
0.0
 11
33.93370578779558
 21
-187.6996689221281
 31
0.0
  0
LINE
  5
1763
330
2
100
AcDbEntity
  8
Layer3
100
AcDbLine
 10
27.18370578779559
 20
-179.7496469218055
 30
0.0
 11
27.70332103006626
 21
-179.4496469218054
 31
0.0
  0
LINE
  5
1764
330
2
100
AcDbEntity
  8
Layer3
100
AcDbLine
 10
176.4337057877956
 20
-180.5837304885595
 30
0.0
 11
176.4337057877956
 21
-186.1837304885595
 31
0.0
  0
LINE
  5
1765
330
2
100
AcDbEntity
  8
Layer3
100
AcDbLine
 10
35.68370578779559
 20
-179.7496469218055
 30
0.0
 11
35.68370578779559
 21
-184.4496469218054
 31
0.0
  0
LINE
  5
1766
330
2
100
AcDbEntity
  8
Layer3
100
AcDbLine
 10
35.68370578779559
 20
-179.7496469218055
 30
0.0
 11
35.16409054552491
 21
-179.4496469218054
 31
0.0
  0
LINE
  5
1767
330
2
100
AcDbEntity
  8
Layer3
100
AcDbLine
 10
176.4337057877956
 20
-180.5837304885594
 30
0.0
 11
177.1265261108232
 21
-180.1837304885594
 31
0.0
  0
CIRCLE
  5
1768
330
2
100
AcDbEntity
  8
Layer3
100
AcDbCircle
 10
-118.5662942122044
 20
-168.8823761287885
 30
0.0
 40
2.980384515458561
  0
CIRCLE
  5
1769
330
2
100
AcDbEntity
  8
Layer3
100
AcDbCircle
 10
-118.5662942122044
 20
-168.8823761287885
 30
0.0
 40
3.5
  0
LINE
  5
176A
330
2
100
AcDbEntity
  8
Layer3
100
AcDbLine
 10
-117.7002692122043
 20
-167.3823768281636
 30
0.0
 11
-119.4323192122044
 21
-167.3823768281636
 31
0.0
  0
LINE
  5
176B
330
2
100
AcDbEntity
  8
Layer3
100
AcDbLine
 10
-119.4323192122044
 20
-167.3823768281636
 30
0.0
 11
-120.2983442122043
 21
-168.8823761287885
 31
0.0
  0
LINE
  5
176C
330
2
100
AcDbEntity
  8
Layer3
100
AcDbLine
 10
-119.4323192122044
 20
-170.3823754294133
 30
0.0
 11
-117.7002692122043
 21
-170.3823754294133
 31
0.0
  0
LINE
  5
176D
330
2
100
AcDbEntity
  8
Layer3
100
AcDbLine
 10
-120.2983442122043
 20
-168.8823761287885
 30
0.0
 11
-119.4323192122044
 21
-170.3823754294133
 31
0.0
  0
LINE
  5
176E
330
2
100
AcDbEntity
  8
Layer3
100
AcDbLine
 10
-116.8342442122044
 20
-168.8823761287885
 30
0.0
 11
-117.7002692122043
 21
-167.3823768281636
 31
0.0
  0
LINE
  5
176F
330
2
100
AcDbEntity
  8
Layer3
100
AcDbLine
 10
-117.7002692122043
 20
-170.3823754294133
 30
0.0
 11
-116.8342442122044
 21
-168.8823761287885
 31
0.0
  0
CIRCLE
  5
1770
330
2
100
AcDbEntity
  8
Layer3
100
AcDbCircle
 10
31.43370578779558
 20
-168.8823761287885
 30
0.0
 40
3.730384515458561
  0
CIRCLE
  5
1771
330
2
100
AcDbEntity
  8
Layer3
100
AcDbCircle
 10
31.43370578779558
 20
-168.8823761287885
 30
0.0
 40
4.25
  0
LINE
  5
1772
330
2
100
AcDbEntity
  8
Layer3
100
AcDbLine
 10
30.27900578779554
 20
-170.8823751962883
 30
0.0
 11
32.58840578779564
 21
-170.8823751962883
 31
0.0
  0
LINE
  5
1773
330
2
100
AcDbEntity
  8
Layer3
100
AcDbLine
 10
32.58840578779564
 20
-166.8823770612887
 30
0.0
 11
30.27900578779554
 21
-166.8823770612887
 31
0.0
  0
LINE
  5
1774
330
2
100
AcDbEntity
  8
Layer3
100
AcDbLine
 10
30.27900578779554
 20
-166.8823770612887
 30
0.0
 11
29.1243057877956
 21
-168.8823761287885
 31
0.0
  0
LINE
  5
1775
330
2
100
AcDbEntity
  8
Layer3
100
AcDbLine
 10
29.1243057877956
 20
-168.8823761287885
 30
0.0
 11
30.27900578779554
 21
-170.8823751962883
 31
0.0
  0
LINE
  5
1776
330
2
100
AcDbEntity
  8
Layer3
100
AcDbLine
 10
33.74310578779557
 20
-168.8823761287885
 30
0.0
 11
32.58840578779564
 21
-166.8823770612887
 31
0.0
  0
LINE
  5
1777
330
2
100
AcDbEntity
  8
Layer3
100
AcDbLine
 10
32.58840578779564
 20
-170.8823751962883
 30
0.0
 11
33.74310578779557
 21
-168.8823761287885
 31
0.0
  0
CIRCLE
  5
1778
330
2
100
AcDbEntity
  8
Layer3
100
AcDbCircle
 10
331.4337057877955
 20
-168.8823761287885
 30
0.0
 40
5.633974192430932
  0
CIRCLE
  5
1779
330
2
100
AcDbEntity
  8
Layer3
100
AcDbCircle
 10
331.4337057877955
 20
-168.8823761287885
 30
0.0
 40
6.5
  0
LINE
  5
177A
330
2
100
AcDbEntity
  8
Layer3
100
AcDbLine
 10
337.9337057877954
 20
-182.5923474493709
 30
0.0
 11
324.9337057877955
 21
-182.5923474493709
 31
0.0
  0
LINE
  5
177B
330
2
100
AcDbEntity
  8
Layer3
100
AcDbLine
 10
337.9337057877954
 20
-190.0923474493708
 30
0.0
 11
324.9337057877955
 21
-190.0923474493708
 31
0.0
  0
LINE
  5
177C
330
2
100
AcDbEntity
  8
Layer3
100
AcDbLine
 10
337.0676799802265
 20
-182.0923474493709
 30
0.0
 11
325.7997315953646
 21
-182.0923474493709
 31
0.0
  0
LINE
  5
177D
330
2
100
AcDbEntity
  8
Layer3
100
AcDbLine
 10
335.4337057877955
 20
-193.0923474493708
 30
0.0
 11
327.4337057877955
 21
-193.0923474493708
 31
0.0
  0
LINE
  5
177F
330
2
100
AcDbEntity
  8
Layer3
100
AcDbLine
 10
178.9752057877956
 20
-188.1837304885594
 30
0.0
 11
178.9752057877956
 21
-215.7252304885595
 31
0.0
  0
LINE
  5
1780
330
2
100
AcDbEntity
  8
Layer3
100
AcDbLine
 10
183.8922057877955
 20
-188.1837304885594
 30
0.0
 11
183.8922057877955
 21
-215.7252304885595
 31
0.0
  0
LINE
  5
1781
330
2
100
AcDbEntity
  8
Layer3
100
AcDbLine
 10
184.4337057877955
 20
-186.1837304885595
 30
0.0
 11
184.4337057877955
 21
-215.1837304885594
 31
0.0
  0
LINE
  5
1782
330
2
100
AcDbEntity
  8
Layer3
100
AcDbLine
 10
178.4337057877955
 20
-186.1837304885595
 30
0.0
 11
178.4337057877955
 21
-215.1837304885594
 31
0.0
  0
LINE
  5
1783
330
2
100
AcDbEntity
  8
Layer3
100
AcDbLine
 10
183.8922057877955
 20
-215.1837304885594
 30
0.0
 11
178.4337057877955
 21
-215.1837304885594
 31
0.0
  0
LINE
  5
1784
330
2
100
AcDbEntity
  8
Layer3
100
AcDbLine
 10
183.4337057877955
 20
-216.1837304885594
 30
0.0
 11
179.4337057877955
 21
-216.1837304885594
 31
0.0
  0
LINE
  5
1785
330
2
100
AcDbEntity
  8
Layer3
100
AcDbLine
 10
178.4337057877955
 20
-215.1837304885594
 30
0.0
 11
179.4337057877955
 21
-216.1837304885594
 31
0.0
  0
LINE
  5
1786
330
2
100
AcDbEntity
  8
Layer3
100
AcDbLine
 10
184.4337057877955
 20
-215.1837304885594
 30
0.0
 11
183.4337057877955
 21
-216.1837304885594
 31
0.0
  0
LINE
  5
1787
330
2
100
AcDbEntity
  8
Layer3
100
AcDbLine
 10
328.1837057877956
 20
-193.0923474493708
 30
0.0
 11
327.4337057877955
 21
-191.7933093436942
 31
0.0
  0
LINE
  5
1788
330
2
100
AcDbEntity
  8
Layer3
100
AcDbLine
 10
186.4337057877955
 20
-180.5837304885594
 30
0.0
 11
186.4337057877955
 21
-186.1837304885595
 31
0.0
  0
LINE
  5
1789
330
2
100
AcDbEntity
  8
Layer3
100
AcDbLine
 10
184.4337057877955
 20
-188.1837304885594
 30
0.0
 11
178.4337057877955
 21
-188.1837304885594
 31
0.0
  0
LINE
  5
178A
330
2
100
AcDbEntity
  8
Layer3
100
AcDbLine
 10
178.9752057877955
 20
-188.1837304885594
 30
0.0
 11
178.4337057877955
 21
-187.2458249762608
 31
0.0
  0
LINE
  5
178B
330
2
100
AcDbEntity
  8
Layer3
100
AcDbLine
 10
183.8922057877956
 20
-188.1837304885594
 30
0.0
 11
184.4337057877955
 21
-187.2458249762609
 31
0.0
  0
LINE
  5
178C
330
2
100
AcDbEntity
  8
Layer3
100
AcDbLine
 10
186.4337057877955
 20
-180.5837304885594
 30
0.0
 11
185.7408854647679
 21
-180.1837304885594
 31
0.0
  0
LINE
  5
178D
330
2
100
AcDbEntity
  8
Layer3
100
AcDbLine
 10
324.9337057877955
 20
-182.5923474493709
 30
0.0
 11
325.7997315953646
 21
-182.0923474493709
 31
0.0
  0
LINE
  5
178E
330
2
100
AcDbEntity
  8
Layer3
100
AcDbLine
 10
324.9337057877955
 20
-190.0923474493708
 30
0.0
 11
324.9337057877955
 21
-182.5923474493709
 31
0.0
  0
LINE
  5
178F
330
2
100
AcDbEntity
  8
Layer3
100
AcDbLine
 10
473.4337057877955
 20
-184.454147540457
 30
0.0
 11
473.4337057877955
 21
-193.854147540457
 31
0.0
  0
LINE
  5
1790
330
2
100
AcDbEntity
  8
Layer3
100
AcDbLine
 10
334.6837057877956
 20
-193.0923474493708
 30
0.0
 11
335.4337057877955
 21
-191.7933093436942
 31
0.0
  0
LINE
  5
1791
330
2
100
AcDbEntity
  8
Layer3
100
AcDbLine
 10
337.9337057877954
 20
-182.5923474493709
 30
0.0
 11
337.0676799802265
 21
-182.0923474493709
 31
0.0
  0
LINE
  5
1792
330
2
100
AcDbEntity
  8
Layer3
100
AcDbLine
 10
337.9337057877954
 20
-190.0923474493708
 30
0.0
 11
337.9337057877954
 21
-182.5923474493709
 31
0.0
  0
LINE
  5
1793
330
2
100
AcDbEntity
  8
Layer3
100
AcDbLine
 10
473.4337057877955
 20
-184.454147540457
 30
0.0
 11
474.4729362723369
 21
-183.854147540457
 31
0.0
  0
LINE
  5
1794
330
2
100
AcDbEntity
  8
Layer3
100
AcDbLine
 10
333.1657557877956
 20
-165.8823775275388
 30
0.0
 11
329.7016557877956
 21
-165.8823775275388
 31
0.0
  0
LINE
  5
1795
330
2
100
AcDbEntity
  8
Layer3
100
AcDbLine
 10
329.7016557877956
 20
-171.8823747300382
 30
0.0
 11
333.1657557877956
 21
-171.8823747300382
 31
0.0
  0
LINE
  5
1796
330
2
100
AcDbEntity
  8
Layer3
100
AcDbLine
 10
179.9903307877955
 20
-171.3823749631632
 30
0.0
 11
182.8770807877955
 21
-171.3823749631632
 31
0.0
  0
LINE
  5
1797
330
2
100
AcDbEntity
  8
Layer3
100
AcDbLine
 10
182.8770807877956
 20
-166.3823772944137
 30
0.0
 11
179.9903307877955
 21
-166.3823772944137
 31
0.0
  0
LINE
  5
1798
330
2
100
AcDbEntity
  8
Layer3
100
AcDbLine
 10
179.9903307877955
 20
-166.3823772944137
 30
0.0
 11
178.5469557877955
 21
-168.8823761287885
 31
0.0
  0
LINE
  5
1799
330
2
100
AcDbEntity
  8
Layer3
100
AcDbLine
 10
178.5469557877955
 20
-168.8823761287885
 30
0.0
 11
179.9903307877955
 21
-171.3823749631632
 31
0.0
  0
LINE
  5
179A
330
2
100
AcDbEntity
  8
Layer3
100
AcDbLine
 10
184.3204557877955
 20
-168.8823761287885
 30
0.0
 11
182.8770807877956
 21
-166.3823772944137
 31
0.0
  0
LINE
  5
179B
330
2
100
AcDbEntity
  8
Layer3
100
AcDbLine
 10
182.8770807877955
 20
-171.3823749631632
 30
0.0
 11
184.3204557877955
 21
-168.8823761287885
 31
0.0
  0
LINE
  5
179C
330
2
100
AcDbEntity
  8
Layer3
100
AcDbLine
 10
329.7016557877956
 20
-165.8823775275388
 30
0.0
 11
327.9696057877955
 21
-168.8823761287885
 31
0.0
  0
LINE
  5
179D
330
2
100
AcDbEntity
  8
Layer3
100
AcDbLine
 10
327.9696057877955
 20
-168.8823761287885
 30
0.0
 11
329.7016557877956
 21
-171.8823747300382
 31
0.0
  0
LINE
  5
179E
330
2
100
AcDbEntity
  8
Layer3
100
AcDbLine
 10
334.8978057877956
 20
-168.8823761287885
 30
0.0
 11
333.1657557877956
 21
-165.8823775275388
 31
0.0
  0
LINE
  5
179F
330
2
100
AcDbEntity
  8
Layer3
100
AcDbLine
 10
333.1657557877956
 20
-171.8823747300382
 30
0.0
 11
334.8978057877956
 21
-168.8823761287885
 31
0.0
  0
LINE
  5
17A0
330
2
100
AcDbEntity
  8
Layer3
100
AcDbLine
 10
1216.433705787795
 20
-212.3695150383096
 30
0.0
 11
1216.433705787795
 21
-193.3695150383096
 31
0.0
  0
LINE
  5
17A1
330
2
100
AcDbEntity
  8
Layer3
100
AcDbLine
 10
1094.933705787795
 20
-207.7013129609031
 30
0.0
 11
1094.933705787795
 21
-190.7013129609031
 31
0.0
  0
LINE
  5
17A2
330
2
100
AcDbEntity
  8
Layer3
100
AcDbLine
 10
1067.933705787795
 20
-207.7013129609031
 30
0.0
 11
1067.933705787795
 21
-190.7013129609031
 31
0.0
  0
LINE
  5
17A3
330
2
100
AcDbEntity
  8
Layer3
100
AcDbLine
 10
939.4337057877953
 20
-203.8174638930077
 30
0.0
 11
939.4337057877953
 21
-281.8174638930078
 31
0.0
  0
LINE
  5
17A4
330
2
100
AcDbEntity
  8
Layer3
100
AcDbLine
 10
923.4337057877953
 20
-203.8174638930077
 30
0.0
 11
923.4337057877953
 21
-281.8174638930078
 31
0.0
  0
LINE
  5
17A5
330
2
100
AcDbEntity
  8
Layer3
100
AcDbLine
 10
787.2337057877953
 20
-206.7669904515441
 30
0.0
 11
788.4337057877953
 21
-204.6885294824614
 31
0.0
  0
LINE
  5
17A6
330
2
100
AcDbEntity
  8
Layer3
100
AcDbLine
 10
788.4337057877953
 20
-200.7669904515441
 30
0.0
 11
788.4337057877953
 21
-268.7669904515441
 31
0.0
  0
LINE
  5
17A7
330
2
100
AcDbEntity
  8
Layer3
100
AcDbLine
 10
775.6337057877953
 20
-206.7669904515441
 30
0.0
 11
774.4337057877953
 21
-204.6885294824614
 31
0.0
  0
LINE
  5
17A8
330
2
100
AcDbEntity
  8
Layer3
100
AcDbLine
 10
774.4337057877953
 20
-200.7669904515441
 30
0.0
 11
774.4337057877953
 21
-268.7669904515441
 31
0.0
  0
LINE
  5
17A9
330
2
100
AcDbEntity
  8
Layer3
100
AcDbLine
 10
636.4337057877955
 20
-202.7221687602902
 30
0.0
 11
636.4337057877957
 21
-256.7221687602903
 31
0.0
  0
LINE
  5
17AA
330
2
100
AcDbEntity
  8
Layer3
100
AcDbLine
 10
626.4337057877956
 20
-202.7221687602902
 30
0.0
 11
626.4337057877956
 21
-256.7221687602903
 31
0.0
  0
LINE
  5
17AB
330
2
100
AcDbEntity
  8
Layer3
100
AcDbLine
 10
637.4337057877956
 20
-197.7221687602902
 30
0.0
 11
637.4337057877957
 21
-255.7221687602902
 31
0.0
  0
LINE
  5
17AC
330
2
100
AcDbEntity
  8
Layer3
100
AcDbLine
 10
625.4337057877956
 20
-197.7221687602902
 30
0.0
 11
625.4337057877957
 21
-255.7221687602902
 31
0.0
  0
LINE
  5
17AD
330
2
100
AcDbEntity
  8
Layer3
100
AcDbLine
 10
477.2457057877955
 20
-197.854147540457
 30
0.0
 11
477.2457057877955
 21
-243.166147540457
 31
0.0
  0
LINE
  5
17AE
330
2
100
AcDbEntity
  8
Layer3
100
AcDbLine
 10
485.6217057877955
 20
-197.854147540457
 30
0.0
 11
485.6217057877955
 21
-243.166147540457
 31
0.0
  0
LINE
  5
17AF
330
2
100
AcDbEntity
  8
Layer3
100
AcDbLine
 10
486.4337057877955
 20
-193.854147540457
 30
0.0
 11
486.4337057877955
 21
-242.354147540457
 31
0.0
  0
LINE
  5
17B0
330
2
100
AcDbEntity
  8
Layer3
100
AcDbLine
 10
486.4337057877955
 20
-242.354147540457
 30
0.0
 11
484.9337057877955
 21
-243.854147540457
 31
0.0
  0
LINE
  5
17B1
330
2
100
AcDbEntity
  8
Layer3
100
AcDbLine
 10
477.9337057877955
 20
-243.854147540457
 30
0.0
 11
484.9337057877955
 21
-243.854147540457
 31
0.0
  0
LINE
  5
17B2
330
2
100
AcDbEntity
  8
Layer3
100
AcDbLine
 10
636.4337057877957
 20
-255.7221687602902
 30
0.0
 11
625.4337057877957
 21
-255.7221687602902
 31
0.0
  0
LINE
  5
17B3
330
2
100
AcDbEntity
  8
Layer3
100
AcDbLine
 10
635.4337057877956
 20
-257.7221687602902
 30
0.0
 11
627.4337057877957
 21
-257.7221687602902
 31
0.0
  0
LINE
  5
17B4
330
2
100
AcDbEntity
  8
Layer3
100
AcDbLine
 10
625.4337057877957
 20
-255.7221687602902
 30
0.0
 11
627.4337057877957
 21
-257.7221687602902
 31
0.0
  0
LINE
  5
17B5
330
2
100
AcDbEntity
  8
Layer3
100
AcDbLine
 10
637.4337057877957
 20
-255.7221687602902
 30
0.0
 11
635.4337057877956
 21
-257.7221687602902
 31
0.0
  0
LINE
  5
17B6
330
2
100
AcDbEntity
  8
Layer3
100
AcDbLine
 10
787.2337057877953
 20
-206.7669904515441
 30
0.0
 11
787.2337057877953
 21
-269.9669904515442
 31
0.0
  0
LINE
  5
17B7
330
2
100
AcDbEntity
  8
Layer3
100
AcDbLine
 10
775.6337057877953
 20
-206.7669904515441
 30
0.0
 11
775.6337057877953
 21
-269.9669904515442
 31
0.0
  0
LINE
  5
17B8
330
2
100
AcDbEntity
  8
Layer3
100
AcDbLine
 10
788.4337057877953
 20
-268.7669904515441
 30
0.0
 11
774.4337057877953
 21
-268.7669904515441
 31
0.0
  0
LINE
  5
17B9
330
2
100
AcDbEntity
  8
Layer3
100
AcDbLine
 10
786.4337057877953
 20
-270.7669904515441
 30
0.0
 11
776.4337057877953
 21
-270.7669904515441
 31
0.0
  0
LINE
  5
17BA
330
2
100
AcDbEntity
  8
Layer3
100
AcDbLine
 10
774.4337057877953
 20
-268.7669904515441
 30
0.0
 11
776.4337057877953
 21
-270.7669904515441
 31
0.0
  0
LINE
  5
17BB
330
2
100
AcDbEntity
  8
Layer3
100
AcDbLine
 10
788.4337057877953
 20
-268.7669904515441
 30
0.0
 11
786.4337057877953
 21
-270.7669904515441
 31
0.0
  0
LINE
  5
17BC
330
2
100
AcDbEntity
  8
Layer3
100
AcDbLine
 10
788.4337057877953
 20
-206.7669904515441
 30
0.0
 11
774.4337057877953
 21
-206.7669904515441
 31
0.0
  0
LINE
  5
17BD
330
2
100
AcDbEntity
  8
Layer3
100
AcDbLine
 10
1094.933705787795
 20
-207.7013129609031
 30
0.0
 11
1067.933705787795
 21
-207.7013129609031
 31
0.0
  0
LINE
  5
17BE
330
2
100
AcDbEntity
  8
Layer3
100
AcDbLine
 10
938.2337057877952
 20
-210.8174638930077
 30
0.0
 11
938.2337057877952
 21
-283.0174638930078
 31
0.0
  0
LINE
  5
17BF
330
2
100
AcDbEntity
  8
Layer3
100
AcDbLine
 10
924.6337057877953
 20
-210.8174638930077
 30
0.0
 11
924.6337057877953
 21
-283.0174638930078
 31
0.0
  0
LINE
  5
17C0
330
2
100
AcDbEntity
  8
Layer3
100
AcDbLine
 10
939.4337057877953
 20
-281.8174638930078
 30
0.0
 11
923.4337057877953
 21
-281.8174638930078
 31
0.0
  0
LINE
  5
17C1
330
2
100
AcDbEntity
  8
Layer3
100
AcDbLine
 10
937.4337057877953
 20
-283.8174638930078
 30
0.0
 11
925.4337057877954
 21
-283.8174638930078
 31
0.0
  0
LINE
  5
17C2
330
2
100
AcDbEntity
  8
Layer3
100
AcDbLine
 10
923.4337057877953
 20
-281.8174638930078
 30
0.0
 11
925.4337057877954
 21
-283.8174638930078
 31
0.0
  0
LINE
  5
17C3
330
2
100
AcDbEntity
  8
Layer3
100
AcDbLine
 10
939.4337057877953
 20
-281.8174638930078
 30
0.0
 11
937.4337057877953
 21
-283.8174638930078
 31
0.0
  0
LINE
  5
17C4
330
2
100
AcDbEntity
  8
Layer3
100
AcDbLine
 10
939.4337057877953
 20
-210.8174638930077
 30
0.0
 11
923.4337057877953
 21
-210.8174638930077
 31
0.0
  0
LINE
  5
17C5
330
2
100
AcDbEntity
  8
Layer3
100
AcDbLine
 10
924.6337057877953
 20
-210.8174638930076
 30
0.0
 11
923.4337057877953
 21
-208.739002923925
 31
0.0
  0
LINE
  5
17C6
330
2
100
AcDbEntity
  8
Layer3
100
AcDbLine
 10
938.2337057877952
 20
-210.8174638930076
 30
0.0
 11
939.4337057877953
 21
-208.7390029239251
 31
0.0
  0
LINE
  5
17C7
330
2
100
AcDbEntity
  8
Layer3
100
AcDbLine
 10
1088.933705787795
 20
-215.7013129609031
 30
0.0
 11
1088.933705787795
 21
-296.7013129609031
 31
0.0
  0
LINE
  5
17C8
330
2
100
AcDbEntity
  8
Layer3
100
AcDbLine
 10
1090.433705787795
 20
-207.7013129609031
 30
0.0
 11
1090.433705787795
 21
-295.2013129609031
 31
0.0
  0
LINE
  5
17C9
330
2
100
AcDbEntity
  8
Layer3
100
AcDbLine
 10
1073.933705787795
 20
-215.7013129609031
 30
0.0
 11
1073.933705787795
 21
-296.7013129609031
 31
0.0
  0
LINE
  5
17CA
330
2
100
AcDbEntity
  8
Layer3
100
AcDbLine
 10
1072.433705787795
 20
-207.7013129609031
 30
0.0
 11
1072.433705787795
 21
-295.2013129609031
 31
0.0
  0
LINE
  5
17CB
330
2
100
AcDbEntity
  8
Layer3
100
AcDbLine
 10
1087.933705787795
 20
-297.7013129609031
 30
0.0
 11
1074.933705787795
 21
-297.7013129609031
 31
0.0
  0
LINE
  5
17CC
330
2
100
AcDbEntity
  8
Layer3
100
AcDbLine
 10
1090.433705787795
 20
-295.2013129609031
 30
0.0
 11
1072.433705787795
 21
-295.2013129609031
 31
0.0
  0
LINE
  5
17CD
330
2
100
AcDbEntity
  8
Layer3
100
AcDbLine
 10
1072.433705787795
 20
-295.2013129609031
 30
0.0
 11
1074.933705787795
 21
-297.7013129609031
 31
0.0
  0
LINE
  5
17CE
330
2
100
AcDbEntity
  8
Layer3
100
AcDbLine
 10
1090.433705787795
 20
-295.2013129609031
 30
0.0
 11
1087.933705787795
 21
-297.7013129609031
 31
0.0
  0
LINE
  5
17CF
330
2
100
AcDbEntity
  8
Layer3
100
AcDbLine
 10
1090.433705787795
 20
-215.7013129609031
 30
0.0
 11
1072.433705787795
 21
-215.7013129609031
 31
0.0
  0
LINE
  5
17D0
330
2
100
AcDbEntity
  8
Layer3
100
AcDbLine
 10
1073.933705787795
 20
-215.7013129609031
 30
0.0
 11
1072.433705787795
 21
-213.1032367495497
 31
0.0
  0
LINE
  5
17D1
330
2
100
AcDbEntity
  8
Layer3
100
AcDbLine
 10
1088.933705787795
 20
-215.7013129609031
 30
0.0
 11
1090.433705787795
 21
-213.1032367495497
 31
0.0
  0
LINE
  5
17D2
330
2
100
AcDbEntity
  8
Layer3
100
AcDbLine
 10
640.4337057877955
 20
-186.4221687602902
 30
0.0
 11
639.2212696571989
 21
-185.7221687602902
 31
0.0
  0
LINE
  5
17D3
330
2
100
AcDbEntity
  8
Layer3
100
AcDbLine
 10
640.4337057877955
 20
-186.4221687602902
 30
0.0
 11
622.4337057877955
 21
-186.4221687602902
 31
0.0
  0
LINE
  5
17D4
330
2
100
AcDbEntity
  8
Layer3
100
AcDbLine
 10
640.4337057877955
 20
-197.7221687602902
 30
0.0
 11
622.4337057877955
 21
-197.7221687602902
 31
0.0
  0
CIRCLE
  5
17D5
330
2
100
AcDbEntity
  8
Layer3
100
AcDbCircle
 10
631.4337057877955
 20
-168.8823761287885
 30
0.0
 40
9.0
  0
CIRCLE
  5
17D6
330
2
100
AcDbEntity
  8
Layer3
100
AcDbCircle
 10
631.4337057877955
 20
-168.8823761287885
 30
0.0
 40
7.787563869403307
  0
LINE
  5
17D7
330
2
100
AcDbEntity
  8
Layer3
100
AcDbLine
 10
622.4337057877955
 20
-186.4221687602902
 30
0.0
 11
623.6461419183922
 21
-185.7221687602902
 31
0.0
  0
LINE
  5
17D8
330
2
100
AcDbEntity
  8
Layer3
100
AcDbLine
 10
622.4337057877955
 20
-197.7221687602902
 30
0.0
 11
622.4337057877955
 21
-186.4221687602902
 31
0.0
  0
LINE
  5
17D9
330
2
100
AcDbEntity
  8
Layer3
100
AcDbLine
 10
489.4337057877955
 20
-184.454147540457
 30
0.0
 11
489.4337057877955
 21
-193.854147540457
 31
0.0
  0
LINE
  5
17DA
330
2
100
AcDbEntity
  8
Layer3
100
AcDbLine
 10
485.6217057877955
 20
-197.8541475404569
 30
0.0
 11
486.4337057877955
 21
-196.447722284711
 31
0.0
  0
LINE
  5
17DC
330
2
100
AcDbEntity
  8
Layer3
100
AcDbLine
 10
489.4337057877955
 20
-184.454147540457
 30
0.0
 11
488.3944753032542
 21
-183.854147540457
 31
0.0
  0
LINE
  5
17DD
330
2
100
AcDbEntity
  8
Layer3
100
AcDbLine
 10
637.4337057877956
 20
-202.7221687602902
 30
0.0
 11
625.4337057877956
 21
-202.7221687602902
 31
0.0
  0
LINE
  5
17DE
330
2
100
AcDbEntity
  8
Layer3
100
AcDbLine
 10
626.4337057877956
 20
-202.7221687602902
 30
0.0
 11
625.4337057877956
 21
-200.9901179527213
 31
0.0
  0
LINE
  5
17DF
330
2
100
AcDbEntity
  8
Layer3
100
AcDbLine
 10
636.4337057877955
 20
-202.7221687602901
 30
0.0
 11
637.4337057877954
 21
-200.9901179527213
 31
0.0
  0
LINE
  5
17E0
330
2
100
AcDbEntity
  8
Layer3
100
AcDbLine
 10
639.2212696571989
 20
-185.7221687602902
 30
0.0
 11
623.6461419183922
 21
-185.7221687602902
 31
0.0
  0
LINE
  5
17E2
330
2
100
AcDbEntity
  8
Layer3
100
AcDbLine
 10
483.7431057877956
 20
-172.8823742637881
 30
0.0
 11
486.0525057877955
 21
-168.8823761287886
 31
0.0
  0
LINE
  5
17E3
330
2
100
AcDbEntity
  8
Layer3
100
AcDbLine
 10
486.0525057877955
 20
-168.8823761287885
 30
0.0
 11
483.7431057877956
 21
-164.882377993789
 31
0.0
  0
LINE
  5
17E4
330
2
100
AcDbEntity
  8
Layer3
100
AcDbLine
 10
479.1243057877956
 20
-164.882377993789
 30
0.0
 11
476.8149057877955
 21
-168.8823761287885
 31
0.0
  0
LINE
  5
17E5
330
2
100
AcDbEntity
  8
Layer3
100
AcDbLine
 10
479.1243057877956
 20
-172.8823742637881
 30
0.0
 11
483.7431057877956
 21
-172.8823742637881
 31
0.0
  0
LINE
  5
17E6
330
2
100
AcDbEntity
  8
Layer3
100
AcDbLine
 10
476.8149057877955
 20
-168.8823761287885
 30
0.0
 11
479.1243057877956
 21
-172.8823742637881
 31
0.0
  0
LINE
  5
17E7
330
2
100
AcDbEntity
  8
Layer3
100
AcDbLine
 10
483.7431057877956
 20
-164.882377993789
 30
0.0
 11
479.1243057877956
 21
-164.882377993789
 31
0.0
  0
LINE
  5
17E8
330
2
100
AcDbEntity
  8
Layer3
100
AcDbLine
 10
634.3204557877956
 20
-163.882378460039
 30
0.0
 11
628.5469557877956
 21
-163.882378460039
 31
0.0
  0
LINE
  5
17E9
330
2
100
AcDbEntity
  8
Layer3
100
AcDbLine
 10
628.5469557877956
 20
-173.8823737975379
 30
0.0
 11
634.3204557877956
 21
-173.882373797538
 31
0.0
  0
LINE
  5
17EA
330
2
100
AcDbEntity
  8
Layer3
100
AcDbLine
 10
628.5469557877956
 20
-163.882378460039
 30
0.0
 11
625.6602057877955
 21
-168.8823761287885
 31
0.0
  0
LINE
  5
17EB
330
2
100
AcDbEntity
  8
Layer3
100
AcDbLine
 10
625.6602057877955
 20
-168.8823761287885
 30
0.0
 11
628.5469557877956
 21
-173.8823737975379
 31
0.0
  0
LINE
  5
17EC
330
2
100
AcDbEntity
  8
Layer3
100
AcDbLine
 10
637.2072057877955
 20
-168.8823761287885
 30
0.0
 11
634.3204557877956
 21
-163.882378460039
 31
0.0
  0
LINE
  5
17ED
330
2
100
AcDbEntity
  8
Layer3
100
AcDbLine
 10
634.3204557877956
 20
-173.882373797538
 30
0.0
 11
637.2072057877955
 21
-168.8823761287885
 31
0.0
  0
LINE
  5
17EE
330
2
100
AcDbEntity
  8
Layer3
100
AcDbLine
 10
784.8978057877953
 20
-174.8823733312878
 30
0.0
 11
788.3619057877954
 21
-168.8823761287885
 31
0.0
  0
LINE
  5
17EF
330
2
100
AcDbEntity
  8
Layer3
100
AcDbLine
 10
774.5055057877952
 20
-168.8823761287885
 30
0.0
 11
777.9696057877953
 21
-174.8823733312878
 31
0.0
  0
CIRCLE
  5
17F0
330
2
100
AcDbEntity
  8
Layer3
100
AcDbCircle
 10
781.4337057877954
 20
-168.8823761287885
 30
0.0
 40
9.114358707889492
  0
CIRCLE
  5
17F1
330
2
100
AcDbEntity
  8
Layer3
100
AcDbCircle
 10
781.4337057877954
 20
-168.8823761287885
 30
0.0
 40
10.5
  0
LINE
  5
17F2
330
2
100
AcDbEntity
  8
Layer3
100
AcDbLine
 10
791.9337057877952
 20
-187.5669904515441
 30
0.0
 11
770.9337057877953
 21
-187.5669904515441
 31
0.0
  0
LINE
  5
17F3
330
2
100
AcDbEntity
  8
Layer3
100
AcDbLine
 10
790.7212696571987
 20
-186.7669904515441
 30
0.0
 11
772.146141918392
 21
-186.7669904515441
 31
0.0
  0
LINE
  5
17F4
330
2
100
AcDbEntity
  8
Layer3
100
AcDbLine
 10
791.9337057877952
 20
-200.7669904515441
 30
0.0
 11
770.9337057877953
 21
-200.7669904515441
 31
0.0
  0
LINE
  5
17F6
330
2
100
AcDbEntity
  8
Layer3
100
AcDbLine
 10
777.9696057877953
 20
-174.8823733312878
 30
0.0
 11
784.8978057877953
 21
-174.8823733312878
 31
0.0
  0
LINE
  5
17F7
330
2
100
AcDbEntity
  8
Layer3
100
AcDbLine
 10
770.9337057877953
 20
-200.7669904515441
 30
0.0
 11
770.9337057877953
 21
-187.5669904515441
 31
0.0
  0
LINE
  5
17F8
330
2
100
AcDbEntity
  8
Layer3
100
AcDbLine
 10
640.4337057877955
 20
-197.7221687602902
 30
0.0
 11
640.4337057877955
 21
-186.4221687602902
 31
0.0
  0
LINE
  5
17F9
330
2
100
AcDbEntity
  8
Layer3
100
AcDbLine
 10
770.9337057877954
 20
-187.5669904515441
 30
0.0
 11
772.3193464338504
 21
-186.7669904515441
 31
0.0
  0
LINE
  5
17FA
330
2
100
AcDbEntity
  8
Layer3
100
AcDbLine
 10
791.9337057877952
 20
-200.7669904515441
 30
0.0
 11
791.9337057877952
 21
-187.5669904515441
 31
0.0
  0
LINE
  5
17FB
330
2
100
AcDbEntity
  8
Layer3
100
AcDbLine
 10
791.9337057877951
 20
-187.5669904515441
 30
0.0
 11
790.5480651417401
 21
-186.7669904515441
 31
0.0
  0
LINE
  5
17FC
330
2
100
AcDbEntity
  8
Layer3
100
AcDbLine
 10
784.8978057877953
 20
-162.8823789262892
 30
0.0
 11
777.9696057877953
 21
-162.8823789262892
 31
0.0
  0
LINE
  5
17FD
330
2
100
AcDbEntity
  8
Layer3
100
AcDbLine
 10
777.9696057877953
 20
-162.8823789262892
 30
0.0
 11
774.5055057877952
 21
-168.8823761287885
 31
0.0
  0
LINE
  5
17FE
330
2
100
AcDbEntity
  8
Layer3
100
AcDbLine
 10
788.3619057877954
 20
-168.8823761287885
 30
0.0
 11
784.8978057877953
 21
-162.8823789262892
 31
0.0
  0
LINE
  5
17FF
330
2
100
AcDbEntity
  8
Layer3
100
AcDbLine
 10
1094.933705787795
 20
-190.7013129609031
 30
0.0
 11
1067.933705787795
 21
-190.7013129609031
 31
0.0
  0
LINE
  5
1800
330
2
100
AcDbEntity
  8
Layer3
100
AcDbLine
 10
1093.201654172657
 20
-189.7013129609031
 30
0.0
 11
1069.665757402933
 21
-189.7013129609031
 31
0.0
  0
CIRCLE
  5
1801
330
2
100
AcDbEntity
  8
Layer3
100
AcDbCircle
 10
1081.433705787795
 20
-168.8823761287885
 30
0.0
 40
13.5
  0
CIRCLE
  5
1802
330
2
100
AcDbEntity
  8
Layer3
100
AcDbCircle
 10
1081.433705787795
 20
-168.8823761287885
 30
0.0
 40
11.76794838486187
  0
LINE
  5
1803
330
2
100
AcDbEntity
  8
Layer3
100
AcDbLine
 10
935.4751557877953
 20
-175.8823728650377
 30
0.0
 11
939.5166057877954
 21
-168.8823761287885
 31
0.0
  0
LINE
  5
1804
330
2
100
AcDbEntity
  8
Layer3
100
AcDbLine
 10
923.3508057877953
 20
-168.8823761287885
 30
0.0
 11
927.3922557877952
 21
-175.8823728650377
 31
0.0
  0
CIRCLE
  5
1805
330
2
100
AcDbEntity
  8
Layer3
100
AcDbCircle
 10
931.4337057877953
 20
-168.8823761287885
 30
0.0
 40
12.0
  0
CIRCLE
  5
1806
330
2
100
AcDbEntity
  8
Layer3
100
AcDbCircle
 10
931.4337057877953
 20
-168.8823761287885
 30
0.0
 40
10.26794838486185
  0
LINE
  5
1807
330
2
100
AcDbEntity
  8
Layer3
100
AcDbLine
 10
943.4337057877954
 20
-188.8174638930077
 30
0.0
 11
919.4337057877953
 21
-188.8174638930077
 31
0.0
  0
LINE
  5
1808
330
2
100
AcDbEntity
  8
Layer3
100
AcDbLine
 10
943.4337057877954
 20
-203.8174638930077
 30
0.0
 11
919.4337057877953
 21
-203.8174638930077
 31
0.0
  0
LINE
  5
1809
330
2
100
AcDbEntity
  8
Layer3
100
AcDbLine
 10
941.7016541726571
 20
-187.8174638930077
 30
0.0
 11
921.1657574029334
 21
-187.8174638930077
 31
0.0
  0
LINE
  5
180B
330
2
100
AcDbEntity
  8
Layer3
100
AcDbLine
 10
927.3922557877952
 20
-175.8823728650377
 30
0.0
 11
935.4751557877953
 21
-175.8823728650377
 31
0.0
  0
LINE
  5
180C
330
2
100
AcDbEntity
  8
Layer3
100
AcDbLine
 10
919.4337057877953
 20
-203.8174638930077
 30
0.0
 11
919.4337057877953
 21
-188.8174638930077
 31
0.0
  0
LINE
  5
180D
330
2
100
AcDbEntity
  8
Layer3
100
AcDbLine
 10
919.4337057877953
 20
-188.8174638930077
 30
0.0
 11
921.1657574029334
 21
-187.8174638930077
 31
0.0
  0
LINE
  5
180E
330
2
100
AcDbEntity
  8
Layer3
100
AcDbLine
 10
1067.933705787795
 20
-190.7013129609031
 30
0.0
 11
1069.665757402933
 21
-189.7013129609031
 31
0.0
  0
LINE
  5
180F
330
2
100
AcDbEntity
  8
Layer3
100
AcDbLine
 10
943.4337057877954
 20
-203.8174638930077
 30
0.0
 11
943.4337057877954
 21
-188.8174638930077
 31
0.0
  0
LINE
  5
1810
330
2
100
AcDbEntity
  8
Layer3
100
AcDbLine
 10
943.4337057877954
 20
-188.8174638930077
 30
0.0
 11
941.7016541726571
 21
-187.8174638930077
 31
0.0
  0
LINE
  5
1811
330
2
100
AcDbEntity
  8
Layer3
100
AcDbLine
 10
935.4751557877953
 20
-161.8823793925392
 30
0.0
 11
927.3922557877954
 21
-161.8823793925392
 31
0.0
  0
LINE
  5
1812
330
2
100
AcDbEntity
  8
Layer3
100
AcDbLine
 10
927.3922557877954
 20
-161.8823793925392
 30
0.0
 11
923.3508057877953
 21
-168.8823761287885
 31
0.0
  0
LINE
  5
1813
330
2
100
AcDbEntity
  8
Layer3
100
AcDbLine
 10
939.5166057877954
 20
-168.8823761287885
 30
0.0
 11
935.4751557877953
 21
-161.8823793925392
 31
0.0
  0
LINE
  5
1814
330
2
100
AcDbEntity
  8
Layer3
100
AcDbLine
 10
1085.475155787795
 20
-175.8823728650377
 30
0.0
 11
1089.516605787795
 21
-168.8823761287885
 31
0.0
  0
LINE
  5
1815
330
2
100
AcDbEntity
  8
Layer3
100
AcDbLine
 10
1073.350805787795
 20
-168.8823761287884
 30
0.0
 11
1077.392255787795
 21
-175.8823728650377
 31
0.0
  0
LINE
  5
1817
330
2
100
AcDbEntity
  8
Layer3
100
AcDbLine
 10
1077.392255787795
 20
-175.8823728650377
 30
0.0
 11
1085.475155787795
 21
-175.8823728650377
 31
0.0
  0
LINE
  5
1818
330
2
100
AcDbEntity
  8
Layer3
100
AcDbLine
 10
1094.933705787795
 20
-190.7013129609031
 30
0.0
 11
1093.201654172657
 21
-189.7013129609031
 31
0.0
  0
LINE
  5
1819
330
2
100
AcDbEntity
  8
Layer3
100
AcDbLine
 10
1216.433705787795
 20
-193.3695150383096
 30
0.0
 11
1218.165757402933
 21
-192.3695150383096
 31
0.0
  0
LINE
  5
181A
330
2
100
AcDbEntity
  8
Layer3
100
AcDbLine
 10
1089.516605787795
 20
-168.8823761287885
 30
0.0
 11
1085.475155787795
 21
-161.8823793925392
 31
0.0
  0
LINE
  5
181B
330
2
100
AcDbEntity
  8
Layer3
100
AcDbLine
 10
1085.475155787795
 20
-161.8823793925392
 30
0.0
 11
1077.392255787795
 21
-161.8823793925392
 31
0.0
  0
LINE
  5
181C
330
2
100
AcDbEntity
  8
Layer3
100
AcDbLine
 10
1077.392255787795
 20
-161.8823793925392
 30
0.0
 11
1073.350805787795
 21
-168.8823761287884
 31
0.0
  0
LINE
  5
181D
330
2
100
AcDbEntity
  8
Layer3
100
AcDbLine
 10
1549.433705787795
 20
-218.7542127936898
 30
0.0
 11
1549.433705787795
 21
-195.7542127936897
 31
0.0
  0
LINE
  5
181E
330
2
100
AcDbEntity
  8
Layer3
100
AcDbLine
 10
1513.433705787795
 20
-218.7542127936898
 30
0.0
 11
1513.433705787795
 21
-195.7542127936897
 31
0.0
  0
LINE
  5
181F
330
2
100
AcDbEntity
  8
Layer3
100
AcDbLine
 10
1364.933705787795
 20
-215.7036160770129
 30
0.0
 11
1364.933705787795
 21
-194.7036160770129
 31
0.0
  0
LINE
  5
1820
330
2
100
AcDbEntity
  8
Layer3
100
AcDbLine
 10
1397.933705787795
 20
-215.7036160770129
 30
0.0
 11
1397.933705787795
 21
-194.7036160770129
 31
0.0
  0
LINE
  5
1821
330
2
100
AcDbEntity
  8
Layer3
100
AcDbLine
 10
1246.433705787795
 20
-212.3695150383096
 30
0.0
 11
1246.433705787795
 21
-193.3695150383096
 31
0.0
  0
LINE
  5
1822
330
2
100
AcDbEntity
  8
Layer3
100
AcDbLine
 10
1397.933705787795
 20
-215.7036160770129
 30
0.0
 11
1364.933705787795
 21
-215.7036160770129
 31
0.0
  0
LINE
  5
1823
330
2
100
AcDbEntity
  8
Layer3
100
AcDbLine
 10
1391.083705787795
 20
-225.7036160770129
 30
0.0
 11
1391.083705787795
 21
-337.0717384472551
 31
0.0
  0
LINE
  5
1824
330
2
100
AcDbEntity
  8
Layer3
100
AcDbLine
 10
1392.433705787795
 20
-215.7036160770129
 30
0.0
 11
1392.433705787795
 21
-335.7217384472549
 31
0.0
  0
LINE
  5
1825
330
2
100
AcDbEntity
  8
Layer3
100
AcDbLine
 10
1371.783705787795
 20
-225.7036160770129
 30
0.0
 11
1371.783705787795
 21
-337.0717384472551
 31
0.0
  0
LINE
  5
1826
330
2
100
AcDbEntity
  8
Layer3
100
AcDbLine
 10
1370.433705787795
 20
-215.7036160770129
 30
0.0
 11
1370.433705787795
 21
-335.7217384472549
 31
0.0
  0
LINE
  5
1827
330
2
100
AcDbEntity
  8
Layer3
100
AcDbLine
 10
1392.433705787795
 20
-335.7217384472549
 30
0.0
 11
1370.433705787795
 21
-335.7217384472549
 31
0.0
  0
LINE
  5
1828
330
2
100
AcDbEntity
  8
Layer3
100
AcDbLine
 10
1389.733705787795
 20
-338.4217384472549
 30
0.0
 11
1373.133705787795
 21
-338.4217384472549
 31
0.0
  0
LINE
  5
1829
330
2
100
AcDbEntity
  8
Layer3
100
AcDbLine
 10
1370.433705787795
 20
-335.7217384472549
 30
0.0
 11
1373.133705787795
 21
-338.4217384472549
 31
0.0
  0
LINE
  5
182A
330
2
100
AcDbEntity
  8
Layer3
100
AcDbLine
 10
1392.433705787795
 20
-335.7217384472549
 30
0.0
 11
1389.733705787795
 21
-338.4217384472549
 31
0.0
  0
LINE
  5
182B
330
2
100
AcDbEntity
  8
Layer3
100
AcDbLine
 10
1241.433705787795
 20
-212.3695150383096
 30
0.0
 11
1241.433705787795
 21
-309.8695150383097
 31
0.0
  0
LINE
  5
182C
330
2
100
AcDbEntity
  8
Layer3
100
AcDbLine
 10
1239.933705787795
 20
-221.3695150383096
 30
0.0
 11
1239.933705787795
 21
-311.3695150383097
 31
0.0
  0
LINE
  5
182D
330
2
100
AcDbEntity
  8
Layer3
100
AcDbLine
 10
1221.433705787795
 20
-212.3695150383096
 30
0.0
 11
1221.433705787795
 21
-309.8695150383097
 31
0.0
  0
LINE
  5
182E
330
2
100
AcDbEntity
  8
Layer3
100
AcDbLine
 10
1222.933705787795
 20
-221.3695150383097
 30
0.0
 11
1222.933705787795
 21
-311.3695150383097
 31
0.0
  0
LINE
  5
182F
330
2
100
AcDbEntity
  8
Layer3
100
AcDbLine
 10
1241.433705787795
 20
-309.8695150383097
 30
0.0
 11
1221.433705787795
 21
-309.8695150383097
 31
0.0
  0
LINE
  5
1830
330
2
100
AcDbEntity
  8
Layer3
100
AcDbLine
 10
1238.933705787795
 20
-312.3695150383097
 30
0.0
 11
1223.933705787795
 21
-312.3695150383097
 31
0.0
  0
LINE
  5
1831
330
2
100
AcDbEntity
  8
Layer3
100
AcDbLine
 10
1221.433705787795
 20
-309.8695150383097
 30
0.0
 11
1223.933705787795
 21
-312.3695150383097
 31
0.0
  0
LINE
  5
1832
330
2
100
AcDbEntity
  8
Layer3
100
AcDbLine
 10
1241.433705787795
 20
-309.8695150383097
 30
0.0
 11
1238.933705787795
 21
-312.3695150383097
 31
0.0
  0
LINE
  5
1833
330
2
100
AcDbEntity
  8
Layer3
100
AcDbLine
 10
1241.433705787795
 20
-221.3695150383096
 30
0.0
 11
1221.433705787795
 21
-221.3695150383097
 31
0.0
  0
LINE
  5
1834
330
2
100
AcDbEntity
  8
Layer3
100
AcDbLine
 10
1222.933705787795
 20
-221.3695150383095
 30
0.0
 11
1221.433705787795
 21
-218.7714388269561
 31
0.0
  0
LINE
  5
1835
330
2
100
AcDbEntity
  8
Layer3
100
AcDbLine
 10
1239.933705787795
 20
-221.3695150383095
 30
0.0
 11
1241.433705787795
 21
-218.7714388269561
 31
0.0
  0
LINE
  5
1836
330
2
100
AcDbEntity
  8
Layer3
100
AcDbLine
 10
1392.433705787795
 20
-225.7036160770129
 30
0.0
 11
1370.433705787795
 21
-225.7036160770129
 31
0.0
  0
LINE
  5
1837
330
2
100
AcDbEntity
  8
Layer3
100
AcDbLine
 10
1371.783705787795
 20
-225.7036160770128
 30
0.0
 11
1370.433705787795
 21
-223.3653474867945
 31
0.0
  0
LINE
  5
1838
330
2
100
AcDbEntity
  8
Layer3
100
AcDbLine
 10
1391.083705787795
 20
-225.7036160770128
 30
0.0
 11
1392.433705787795
 21
-223.3653474867945
 31
0.0
  0
LINE
  5
1839
330
2
100
AcDbEntity
  8
Layer3
100
AcDbLine
 10
1543.433705787795
 20
-218.7542127936898
 30
0.0
 11
1543.433705787795
 21
-345.4542127936899
 31
0.0
  0
LINE
  5
183A
330
2
100
AcDbEntity
  8
Layer3
100
AcDbLine
 10
1541.783705787795
 20
-229.7542127936898
 30
0.0
 11
1541.783705787795
 21
-347.1042127936899
 31
0.0
  0
LINE
  5
183B
330
2
100
AcDbEntity
  8
Layer3
100
AcDbLine
 10
1521.083705787795
 20
-229.7542127936898
 30
0.0
 11
1521.083705787796
 21
-347.1042127936899
 31
0.0
  0
LINE
  5
183C
330
2
100
AcDbEntity
  8
Layer3
100
AcDbLine
 10
1519.433705787795
 20
-218.7542127936898
 30
0.0
 11
1519.433705787796
 21
-345.4542127936899
 31
0.0
  0
LINE
  5
183D
330
2
100
AcDbEntity
  8
Layer3
100
AcDbLine
 10
1540.133705787795
 20
-348.7542127936898
 30
0.0
 11
1522.733705787795
 21
-348.7542127936898
 31
0.0
  0
LINE
  5
183E
330
2
100
AcDbEntity
  8
Layer3
100
AcDbLine
 10
1543.433705787795
 20
-345.4542127936899
 30
0.0
 11
1519.433705787796
 21
-345.4542127936899
 31
0.0
  0
LINE
  5
183F
330
2
100
AcDbEntity
  8
Layer3
100
AcDbLine
 10
1519.433705787796
 20
-345.4542127936899
 30
0.0
 11
1522.733705787795
 21
-348.7542127936898
 31
0.0
  0
LINE
  5
1840
330
2
100
AcDbEntity
  8
Layer3
100
AcDbLine
 10
1543.433705787795
 20
-345.4542127936899
 30
0.0
 11
1540.133705787795
 21
-348.7542127936898
 31
0.0
  0
LINE
  5
1841
330
2
100
AcDbEntity
  8
Layer3
100
AcDbLine
 10
1549.433705787795
 20
-218.7542127936898
 30
0.0
 11
1513.433705787795
 21
-218.7542127936898
 31
0.0
  0
LINE
  5
1842
330
2
100
AcDbEntity
  8
Layer3
100
AcDbLine
 10
1543.433705787795
 20
-229.7542127936898
 30
0.0
 11
1519.433705787795
 21
-229.7542127936898
 31
0.0
  0
LINE
  5
1843
330
2
100
AcDbEntity
  8
Layer3
100
AcDbLine
 10
1521.083705787795
 20
-229.7542127936897
 30
0.0
 11
1519.433705787795
 21
-226.8963289612013
 31
0.0
  0
LINE
  5
1844
330
2
100
AcDbEntity
  8
Layer3
100
AcDbLine
 10
1541.783705787795
 20
-229.7542127936897
 30
0.0
 11
1543.433705787794
 21
-226.8963289612013
 31
0.0
  0
LINE
  5
1845
330
2
100
AcDbEntity
  8
Layer3
100
AcDbLine
 10
1397.933705787795
 20
-194.7036160770129
 30
0.0
 11
1364.933705787795
 21
-194.7036160770129
 31
0.0
  0
LINE
  5
1846
330
2
100
AcDbEntity
  8
Layer3
100
AcDbLine
 10
1396.201654172657
 20
-193.7036160770129
 30
0.0
 11
1366.665757402933
 21
-193.7036160770129
 31
0.0
  0
CIRCLE
  5
1847
330
2
100
AcDbEntity
  8
Layer3
100
AcDbCircle
 10
1381.433705787795
 20
-168.8823761287885
 30
0.0
 40
14.76794838486187
  0
CIRCLE
  5
1848
330
2
100
AcDbEntity
  8
Layer3
100
AcDbCircle
 10
1381.433705787795
 20
-168.8823761287885
 30
0.0
 40
16.5
  0
LINE
  5
1849
330
2
100
AcDbEntity
  8
Layer3
100
AcDbLine
 10
1236.341180787795
 20
-177.3823721656625
 30
0.0
 11
1241.248655787795
 21
-168.8823761287885
 31
0.0
  0
LINE
  5
184A
330
2
100
AcDbEntity
  8
Layer3
100
AcDbLine
 10
1221.618755787795
 20
-168.8823761287885
 30
0.0
 11
1226.526230787795
 21
-177.3823721656625
 31
0.0
  0
LINE
  5
184B
330
2
100
AcDbEntity
  8
Layer3
100
AcDbLine
 10
1226.526230787795
 20
-177.3823721656625
 30
0.0
 11
1236.341180787795
 21
-177.3823721656625
 31
0.0
  0
LINE
  5
184D
330
2
100
AcDbEntity
  8
Layer3
100
AcDbLine
 10
1246.433705787795
 20
-193.3695150383096
 30
0.0
 11
1244.701654172657
 21
-192.3695150383096
 31
0.0
  0
LINE
  5
184E
330
2
100
AcDbEntity
  8
Layer3
100
AcDbLine
 10
1236.341180787795
 20
-160.3823800919144
 30
0.0
 11
1226.526230787795
 21
-160.3823800919144
 31
0.0
  0
LINE
  5
184F
330
2
100
AcDbEntity
  8
Layer3
100
AcDbLine
 10
1226.526230787795
 20
-160.3823800919144
 30
0.0
 11
1221.618755787795
 21
-168.8823761287885
 31
0.0
  0
LINE
  5
1850
330
2
100
AcDbEntity
  8
Layer3
100
AcDbLine
 10
1241.248655787795
 20
-168.8823761287885
 30
0.0
 11
1236.341180787795
 21
-160.3823800919144
 31
0.0
  0
LINE
  5
1851
330
2
100
AcDbEntity
  8
Layer3
100
AcDbLine
 10
1386.341180787795
 20
-177.3823721656625
 30
0.0
 11
1391.248655787795
 21
-168.8823761287885
 31
0.0
  0
LINE
  5
1852
330
2
100
AcDbEntity
  8
Layer3
100
AcDbLine
 10
1371.618755787795
 20
-168.8823761287885
 30
0.0
 11
1376.526230787795
 21
-177.3823721656625
 31
0.0
  0
LINE
  5
1854
330
2
100
AcDbEntity
  8
Layer3
100
AcDbLine
 10
1376.526230787795
 20
-177.3823721656625
 30
0.0
 11
1386.341180787795
 21
-177.3823721656625
 31
0.0
  0
LINE
  5
1855
330
2
100
AcDbEntity
  8
Layer3
100
AcDbLine
 10
1364.933705787795
 20
-194.7036160770129
 30
0.0
 11
1366.665757402933
 21
-193.7036160770129
 31
0.0
  0
LINE
  5
1856
330
2
100
AcDbEntity
  8
Layer3
100
AcDbLine
 10
1386.341180787795
 20
-160.3823800919144
 30
0.0
 11
1376.526230787795
 21
-160.3823800919144
 31
0.0
  0
LINE
  5
1857
330
2
100
AcDbEntity
  8
Layer3
100
AcDbLine
 10
1376.526230787795
 20
-160.3823800919144
 30
0.0
 11
1371.618755787795
 21
-168.8823761287885
 31
0.0
  0
LINE
  5
1858
330
2
100
AcDbEntity
  8
Layer3
100
AcDbLine
 10
1391.248655787795
 20
-168.8823761287885
 30
0.0
 11
1386.341180787795
 21
-160.3823800919144
 31
0.0
  0
LINE
  5
1859
330
2
100
AcDbEntity
  8
Layer3
100
AcDbLine
 10
1549.433705787795
 20
-195.7542127936897
 30
0.0
 11
1513.433705787795
 21
-195.7542127936897
 31
0.0
  0
LINE
  5
185A
330
2
100
AcDbEntity
  8
Layer3
100
AcDbLine
 10
1547.701654172657
 20
-194.7542127936897
 30
0.0
 11
1515.165757402933
 21
-194.7542127936897
 31
0.0
  0
CIRCLE
  5
185C
330
2
100
AcDbEntity
  8
Layer3
100
AcDbCircle
 10
1531.433705787795
 20
-168.8823761287885
 30
0.0
 40
16.26794838486187
  0
CIRCLE
  5
185D
330
2
100
AcDbEntity
  8
Layer3
100
AcDbCircle
 10
1531.433705787795
 20
-168.8823761287885
 30
0.0
 40
18.0
  0
LINE
  5
185E
330
2
100
AcDbEntity
  8
Layer3
100
AcDbLine
 10
1525.948880787795
 20
-178.3823716994124
 30
0.0
 11
1536.918530787795
 21
-178.3823716994124
 31
0.0
  0
LINE
  5
185F
330
2
100
AcDbEntity
  8
Layer3
100
AcDbLine
 10
1536.918530787795
 20
-159.3823805581645
 30
0.0
 11
1525.948880787795
 21
-159.3823805581645
 31
0.0
  0
LINE
  5
1860
330
2
100
AcDbEntity
  8
Layer3
100
AcDbLine
 10
1520.464055787795
 20
-168.8823761287885
 30
0.0
 11
1525.948880787795
 21
-178.3823716994124
 31
0.0
  0
LINE
  5
1861
330
2
100
AcDbEntity
  8
Layer3
100
AcDbLine
 10
1397.933705787795
 20
-194.7036160770129
 30
0.0
 11
1396.201654172657
 21
-193.7036160770129
 31
0.0
  0
LINE
  5
1862
330
2
100
AcDbEntity
  8
Layer3
100
AcDbLine
 10
1513.433705787795
 20
-195.7542127936897
 30
0.0
 11
1515.165757402933
 21
-194.7542127936897
 31
0.0
  0
LINE
  5
1863
330
2
100
AcDbEntity
  8
Layer3
100
AcDbLine
 10
1525.948880787795
 20
-159.3823805581645
 30
0.0
 11
1520.464055787795
 21
-168.8823761287885
 31
0.0
  0
LINE
  5
1864
330
2
100
AcDbEntity
  8
Layer3
100
AcDbLine
 10
1536.918530787795
 20
-178.3823716994124
 30
0.0
 11
1542.403355787795
 21
-168.8823761287885
 31
0.0
  0
LINE
  5
1865
330
2
100
AcDbEntity
  8
Layer3
100
AcDbLine
 10
1549.433705787795
 20
-195.7542127936897
 30
0.0
 11
1547.701654172657
 21
-194.7542127936897
 31
0.0
  0
LINE
  5
1866
330
2
100
AcDbEntity
  8
Layer3
100
AcDbLine
 10
1542.403355787795
 20
-168.8823761287885
 30
0.0
 11
1536.918530787795
 21
-159.3823805581645
 31
0.0
  0
MTEXT
  5
186E
330
2
100
AcDbEntity
  8
Layer4
100
AcDbMText
 10
728.6723405570212
 20
-65.6038040187326
 30
0.0
 40
30.0
 41
75.03399999999999
 71
     1
 72
     5
  1
(M14)
 73
     1
 44
1.0
  0
MTEXT
  5
1871
330
2
100
AcDbEntity
  8
Layer4
100
AcDbMText
 10
1028.672340557021
 20
-65.60380401873226
 30
0.0
 40
30.0
 41
75.03399999999999
 71
     1
 72
     5
  1
(M18)
 73
     1
 44
1.0
  0
MTEXT
  5
1872
330
2
100
AcDbEntity
  8
Layer4
100
AcDbMText
 10
1328.672340557021
 20
-65.60380401873262
 30
0.0
 40
30.0
 41
75.03399999999999
 71
     1
 72
     5
  1
(M22)
 73
     1
 44
1.0
  0
MTEXT
  5
1873
330
2
100
AcDbEntity
  8
Layer4
100
AcDbMText
 10
711.6343138950543
 20
-406.5580891024019
 30
0.0
 40
12.0
 41
2653.405
 71
     1
 72
     5
  1
L=25-140mm
 73
     1
 44
1.0
  0
MTEXT
  5
1874
330
2
100
AcDbEntity
  8
Layer4
100
AcDbMText
 10
1011.634313895054
 20
-406.5580891024016
 30
0.0
 40
12.0
 41
2653.405
 71
     1
 72
     5
  1
L=30-180mm
 73
     1
 44
1.0
  0
MTEXT
  5
1875
330
2
100
AcDbEntity
  8
Layer4
100
AcDbMText
 10
1311.634313895054
 20
-406.5580891024021
 30
0.0
 40
12.0
 41
2653.405
 71
     1
 72
     5
  1
L=40-200mm
 73
     1
 44
1.0
  0
ENDSEC
  0
SECTION
  2
OBJECTS
  0
DICTIONARY
  5
1B
330
0
100
AcDbDictionary
281
     1
  3
ACAD_GROUP
350
19
  3
ACAD_LAYOUT
350
2E
  3
ACAD_MLINESTYLE
350
1A
  3
ACAD_PLOTSETTINGS
350
2F
  3
ACAD_PLOTSTYLENAME
350
2C
  0
DICTIONARY
  5
807
330
2
100
AcDbDictionary
280
     1
281
     1
  3
ACAD_LAYOUTSELFREF
360
9D6
  0
DICTIONARY
  5
809
330
8
100
AcDbDictionary
280
     1
281
     1
  3
ACAD_LAYOUTSELFREF
360
9D7
  0
DICTIONARY
  5
19
102
{ACAD_REACTORS
330
1B
102
}
330
1B
100
AcDbDictionary
281
     1
  0
DICTIONARY
  5
2E
102
{ACAD_REACTORS
330
1B
102
}
330
1B
100
AcDbDictionary
281
     1
  3
Layout1
350
9DB
  3
Model
350
9DA
  0
DICTIONARY
  5
1A
102
{ACAD_REACTORS
330
1B
102
}
330
1B
100
AcDbDictionary
281
     1
  3
STANDARD
350
1C
  0
DICTIONARY
  5
2F
102
{ACAD_REACTORS
330
1B
102
}
330
1B
100
AcDbDictionary
281
     1
  0
ACDBDICTIONARYWDFLT
  5
2C
102
{ACAD_REACTORS
330
1B
102
}
330
1B
100
AcDbDictionary
281
     1
  3
Normal
350
2D
100
AcDbDictionaryWithDefault
340
2D
  0
XRECORD
  5
9D6
102
{ACAD_REACTORS
330
807
102
}
330
807
100
AcDbXrecord
280
     1
340
2
  0
XRECORD
  5
9D7
102
{ACAD_REACTORS
330
809
102
}
330
809
100
AcDbXrecord
280
     1
340
8
  0
LAYOUT
  5
9DB
102
{ACAD_REACTORS
330
2E
102
}
330
2E
100
AcDbPlotSettings
  1

  2
None
  4

  6

 40
0.0
 41
0.0
 42
0.0
 43
0.0
 44
0.0
 45
0.0
 46
0.0
 47
0.0
 48
0.0
 49
0.0
140
0.0
141
0.0
142
1.0
143
1.0
 70
   688
 72
     0
 73
     0
 74
     5
  7
monochrome.ctb
 75
    16
147
1.0
148
0.0
149
0.0
100
AcDbLayout
  1
Layout1
 70
     1
 71
     1
 10
0.0
 20
0.0
 11
420.0
 21
297.0
 12
0.0
 22
0.0
 32
0.0
 14
0.0
 24
0.0
 34
0.0
 15
420.0000000000001
 25
302.7225130890052
 35
0.0
146
0.0
 13
0.0
 23
0.0
 33
0.0
 16
1.0
 26
0.0
 36
0.0
 17
0.0
 27
1.0
 37
0.0
 76
     0
330
8
  0
LAYOUT
  5
9DA
102
{ACAD_REACTORS
330
2E
102
}
330
2E
100
AcDbPlotSettings
  1

  2
EPSON LP-9100
  4
A3
  6

 40
5.873749732971191
 41
5.873747825622558
 42
5.873748779296875
 43
5.873748779296875
 44
419.9466552734374
 45
297.0106506347656
 46
0.0
 47
77.45
 48
-396.547333082678
 49
-477.3953595852104
140
1661.687057327479
141
179.8756976786894
142
1.0
143
5.042230872648264
 70
 11956
 72
     1
 73
     0
 74
     4
  7
monochrome.ctb
 75
     0
147
0.1983249131697897
148
396.547333082678
149
477.3953595852104
100
AcDbLayout
  1
Model
 70
     1
 71
     0
 10
0.0
 20
0.0
 11
12.0
 21
9.0
 12
0.0
 22
0.0
 32
0.0
 14
0.0
 24
0.0
 34
0.0
 15
0.0
 25
0.0
 35
0.0
146
0.0
 13
0.0
 23
0.0
 33
0.0
 16
1.0
 26
0.0
 36
0.0
 17
0.0
 27
1.0
 37
0.0
 76
     0
330
2
  0
MLINESTYLE
  5
1C
102
{ACAD_REACTORS
330
1A
102
}
330
1A
100
AcDbMlineStyle
  2
STANDARD
 70
     0
  3

 62
     0
 51
90.0
 52
90.0
 71
     2
 49
0.5
 62
   256
  6
BYLAYER
 49
-0.5
 62
   256
  6
BYLAYER
  0
ACDBPLACEHOLDER
  5
2D
102
{ACAD_REACTORS
330
2C
102
}
330
2C
  0
ENDSEC
  0
EOF
