  0
SECTION
  2
HEADER
  9
$ACADVER
  1
AC1015
  9
$ACADMAINTVER
 70
     6
  9
$DWGCODEPAGE
  3
ANSI_932
  9
$INSBASE
 10
0.0
 20
0.0
 30
0.0
  9
$EXTMIN
 10
-966.9304992925514
 20
-351.4224792211956
 30
0.0
  9
$EXTMAX
 10
2033.069500707449
 20
570.6921344220062
 30
0.0
  9
$LIMMIN
 10
0.0
 20
0.0
  9
$LIMMAX
 10
420.0
 20
297.0
  9
$ORTHOMODE
 70
     1
  9
$REGENMODE
 70
     1
  9
$FILLMODE
 70
     1
  9
$QTEXTMODE
 70
     0
  9
$MIRRTEXT
 70
     1
  9
$LTSCALE
 40
1.0
  9
$ATTMODE
 70
     1
  9
$TEXTSIZE
 40
3.0
  9
$TRACEWID
 40
0.05
  9
$TEXTSTYLE
  7
STANDARD
  9
$CLAYER
  8
Layer3
  9
$CELTYPE
  6
BYLAYER
  9
$CECOLOR
 62
   256
  9
$CELTSCALE
 40
1.0
  9
$DISPSILH
 70
     0
  9
$DIMSCALE
 40
0.0
  9
$DIMASZ
 40
2.5
  9
$DIMEXO
 40
1.0
  9
$DIMDLI
 40
10.0
  9
$DIMRND
 40
0.0
  9
$DIMDLE
 40
0.0
  9
$DIMEXE
 40
1.0
  9
$DIMTP
 40
0.0
  9
$DIMTM
 40
0.0
  9
$DIMTXT
 40
3.0
  9
$DIMCEN
 40
0.0
  9
$DIMTSZ
 40
0.0
  9
$DIMTOL
 70
     0
  9
$DIMLIM
 70
     0
  9
$DIMTIH
 70
     0
  9
$DIMTOH
 70
     0
  9
$DIMSE1
 70
     0
  9
$DIMSE2
 70
     0
  9
$DIMTAD
 70
     3
  9
$DIMZIN
 70
     8
  9
$DIMBLK
  1
OPEN
  9
$DIMASO
 70
     1
  9
$DIMSHO
 70
     1
  9
$DIMPOST
  1

  9
$DIMAPOST
  1

  9
$DIMALT
 70
     0
  9
$DIMALTD
 70
     2
  9
$DIMALTF
 40
25.4
  9
$DIMLFAC
 40
1.0
  9
$DIMTOFL
 70
     1
  9
$DIMTVP
 40
0.0
  9
$DIMTIX
 70
     1
  9
$DIMSOXD
 70
     0
  9
$DIMSAH
 70
     0
  9
$DIMBLK1
  1

  9
$DIMBLK2
  1

  9
$DIMSTYLE
  2
STYLE1
  9
$DIMCLRD
 70
     0
  9
$DIMCLRE
 70
     0
  9
$DIMCLRT
 70
     0
  9
$DIMTFAC
 40
1.0
  9
$DIMGAP
 40
1.0
  9
$DIMJUST
 70
     0
  9
$DIMSD1
 70
     0
  9
$DIMSD2
 70
     0
  9
$DIMTOLJ
 70
     1
  9
$DIMTZIN
 70
     0
  9
$DIMALTZ
 70
     0
  9
$DIMALTTZ
 70
     0
  9
$DIMUPT
 70
     0
  9
$DIMDEC
 70
     3
  9
$DIMTDEC
 70
     3
  9
$DIMALTU
 70
     2
  9
$DIMALTTD
 70
     2
  9
$DIMTXSTY
  7
STANDARD
  9
$DIMAUNIT
 70
     0
  9
$DIMADEC
 70
     2
  9
$DIMALTRND
 40
0.0
  9
$DIMAZIN
 70
     2
  9
$DIMDSEP
 70
    46
  9
$DIMATFIT
 70
     3
  9
$DIMFRAC
 70
     0
  9
$DIMLDRBLK
  1
OPEN
  9
$DIMLUNIT
 70
     2
  9
$DIMLWD
 70
    -2
  9
$DIMLWE
 70
    -2
  9
$DIMTMOVE
 70
     0
  9
$LUNITS
 70
     2
  9
$LUPREC
 70
     3
  9
$SKETCHINC
 40
0.1
  9
$FILLETRAD
 40
0.0
  9
$AUNITS
 70
     0
  9
$AUPREC
 70
     2
  9
$MENU
  1
acad
  9
$ELEVATION
 40
0.0
  9
$PELEVATION
 40
0.0
  9
$THICKNESS
 40
0.0
  9
$LIMCHECK
 70
     0
  9
$CHAMFERA
 40
0.0
  9
$CHAMFERB
 40
0.0
  9
$CHAMFERC
 40
0.0
  9
$CHAMFERD
 40
0.0
  9
$SKPOLY
 70
     0
  9
$TDCREATE
 40
2449545.886377199
  9
$TDUCREATE
 40
2449545.511377199
  9
$TDUPDATE
 40
2453641.588387557
  9
$TDUUPDATE
 40
2453641.213387558
  9
$TDINDWG
 40
0.9006366551
  9
$TDUSRTIMER
 40
0.9006366551
  9
$USRTIMER
 70
     1
  9
$ANGBASE
 50
0.0
  9
$ANGDIR
 70
     0
  9
$PDMODE
 70
     0
  9
$PDSIZE
 40
0.0
  9
$PLINEWID
 40
0.0
  9
$SPLFRAME
 70
     0
  9
$SPLINETYPE
 70
     6
  9
$SPLINESEGS
 70
     8
  9
$HANDSEED
  5
24C7
  9
$SURFTAB1
 70
     6
  9
$SURFTAB2
 70
     6
  9
$SURFTYPE
 70
     6
  9
$SURFU
 70
     6
  9
$SURFV
 70
     6
  9
$UCSBASE
  2

  9
$UCSNAME
  2

  9
$UCSORG
 10
0.0
 20
0.0
 30
0.0
  9
$UCSXDIR
 10
1.0
 20
0.0
 30
0.0
  9
$UCSYDIR
 10
0.0
 20
1.0
 30
0.0
  9
$UCSORTHOREF
  2

  9
$UCSORTHOVIEW
 70
     0
  9
$UCSORGTOP
 10
0.0
 20
0.0
 30
0.0
  9
$UCSORGBOTTOM
 10
0.0
 20
0.0
 30
0.0
  9
$UCSORGLEFT
 10
0.0
 20
0.0
 30
0.0
  9
$UCSORGRIGHT
 10
0.0
 20
0.0
 30
0.0
  9
$UCSORGFRONT
 10
0.0
 20
0.0
 30
0.0
  9
$UCSORGBACK
 10
0.0
 20
0.0
 30
0.0
  9
$PUCSBASE
  2

  9
$PUCSNAME
  2

  9
$PUCSORG
 10
0.0
 20
0.0
 30
0.0
  9
$PUCSXDIR
 10
1.0
 20
0.0
 30
0.0
  9
$PUCSYDIR
 10
0.0
 20
1.0
 30
0.0
  9
$PUCSORTHOREF
  2

  9
$PUCSORTHOVIEW
 70
     0
  9
$PUCSORGTOP
 10
0.0
 20
0.0
 30
0.0
  9
$PUCSORGBOTTOM
 10
0.0
 20
0.0
 30
0.0
  9
$PUCSORGLEFT
 10
0.0
 20
0.0
 30
0.0
  9
$PUCSORGRIGHT
 10
0.0
 20
0.0
 30
0.0
  9
$PUCSORGFRONT
 10
0.0
 20
0.0
 30
0.0
  9
$PUCSORGBACK
 10
0.0
 20
0.0
 30
0.0
  9
$USERI1
 70
     0
  9
$USERI2
 70
     0
  9
$USERI3
 70
     0
  9
$USERI4
 70
     0
  9
$USERI5
 70
     0
  9
$USERR1
 40
0.0
  9
$USERR2
 40
0.0
  9
$USERR3
 40
0.0
  9
$USERR4
 40
0.0
  9
$USERR5
 40
0.0
  9
$WORLDVIEW
 70
     1
  9
$SHADEDGE
 70
     3
  9
$SHADEDIF
 70
    70
  9
$TILEMODE
 70
     1
  9
$MAXACTVP
 70
    16
  9
$PINSBASE
 10
0.0
 20
0.0
 30
0.0
  9
$PLIMCHECK
 70
     0
  9
$PEXTMIN
 10
0.0
 20
0.0
 30
0.0
  9
$PEXTMAX
 10
420.0000000000001
 20
302.7225130890052
 30
0.0
  9
$PLIMMIN
 10
0.0
 20
0.0
  9
$PLIMMAX
 10
420.0
 20
297.0
  9
$UNITMODE
 70
     0
  9
$VISRETAIN
 70
     0
  9
$PLINEGEN
 70
     0
  9
$PSLTSCALE
 70
     1
  9
$TREEDEPTH
 70
  3020
  9
$CMLSTYLE
  2
STANDARD
  9
$CMLJUST
 70
     0
  9
$CMLSCALE
 40
1.0
  9
$PROXYGRAPHICS
 70
     1
  9
$MEASUREMENT
 70
     0
  9
$CELWEIGHT
370
    -1
  9
$ENDCAPS
280
     0
  9
$JOINSTYLE
280
     0
  9
$LWDISPLAY
290
     0
  9
$INSUNITS
 70
     0
  9
$HYPERLINKBASE
  1

  9
$STYLESHEET
  1
monochrome.ctb
  9
$XEDIT
290
     1
  9
$CEPSNTYPE
380
     0
  9
$PSTYLEMODE
290
     1
  9
$FINGERPRINTGUID
  2
{E5BFD884-1444-4908-A764-017D0946F674}
  9
$VERSIONGUID
  2
{D3D47957-84B8-4CFF-86F8-0B283AB619C5}
  9
$EXTNAMES
290
     1
  9
$PSVPSCALE
 40
0.0
  9
$OLESTARTUP
290
     0
  0
ENDSEC
  0
SECTION
  2
CLASSES
  0
CLASS
  1
ACDBDICTIONARYWDFLT
  2
AcDbDictionaryWithDefault
  3
AutoCAD 2000
 90
        0
280
     0
281
     0
  0
CLASS
  1
ACDBPLACEHOLDER
  2
AcDbPlaceHolder
  3
AutoCAD 2000
 90
        0
280
     0
281
     0
  0
CLASS
  1
LAYOUT
  2
AcDbLayout
  3
AutoCAD 2000
 90
        0
280
     0
281
     0
  0
CLASS
  1
LONG_TRANSACTION
  2
AcDbLongTransaction
  3
AutoCAD 2000
 90
    32768
280
     0
281
     0
  0
CLASS
  1
LWPOLYLINE
  2
AcDbPolyline
  3
AutoCAD 2000
 90
    32768
280
     0
281
     1
  0
CLASS
  1
HATCH
  2
AcDbHatch
  3
AutoCAD 2000
 90
    32768
280
     0
281
     1
  0
CLASS
  1
XRECORD
  2
AcDbXrecord
  3
AutoCAD 2000
 90
    32768
280
     0
281
     0
  0
CLASS
  1
LONG_TRANSACTION
  2
AcDbLongTransaction
  3
AutoCAD 2000
 90
    32768
280
     0
281
     0
  0
CLASS
  1
LWPOLYLINE
  2
AcDbPolyline
  3
AutoCAD 2000
 90
    32768
280
     0
281
     1
  0
CLASS
  1
HATCH
  2
AcDbHatch
  3
AutoCAD 2000
 90
    32768
280
     0
281
     1
  0
CLASS
  1
XRECORD
  2
AcDbXrecord
  3
AutoCAD 2000
 90
    32768
280
     0
281
     0
  0
CLASS
  1
LONG_TRANSACTION
  2
AcDbLongTransaction
  3
AutoCAD 2000
 90
    32768
280
     0
281
     0
  0
CLASS
  1
LWPOLYLINE
  2
AcDbPolyline
  3
AutoCAD 2000
 90
    32768
280
     0
281
     1
  0
CLASS
  1
HATCH
  2
AcDbHatch
  3
AutoCAD 2000
 90
    32768
280
     0
281
     1
  0
CLASS
  1
XRECORD
  2
AcDbXrecord
  3
AutoCAD 2000
 90
    32768
280
     0
281
     0
  0
CLASS
  1
LONG_TRANSACTION
  2
AcDbLongTransaction
  3
AutoCAD 2000
 90
    32768
280
     0
281
     0
  0
CLASS
  1
LWPOLYLINE
  2
AcDbPolyline
  3
AutoCAD 2000
 90
    32768
280
     0
281
     1
  0
CLASS
  1
HATCH
  2
AcDbHatch
  3
AutoCAD 2000
 90
    32768
280
     0
281
     1
  0
CLASS
  1
XRECORD
  2
AcDbXrecord
  3
AutoCAD 2000
 90
    32768
280
     0
281
     0
  0
CLASS
  1
LONG_TRANSACTION
  2
AcDbLongTransaction
  3
AutoCAD 2000
 90
    32768
280
     0
281
     0
  0
CLASS
  1
LWPOLYLINE
  2
AcDbPolyline
  3
AutoCAD 2000
 90
    32768
280
     0
281
     1
  0
CLASS
  1
HATCH
  2
AcDbHatch
  3
AutoCAD 2000
 90
    32768
280
     0
281
     1
  0
CLASS
  1
XRECORD
  2
AcDbXrecord
  3
AutoCAD 2000
 90
    32768
280
     0
281
     0
  0
CLASS
  1
LONG_TRANSACTION
  2
AcDbLongTransaction
  3
AutoCAD 2000
 90
    32768
280
     0
281
     0
  0
CLASS
  1
LWPOLYLINE
  2
AcDbPolyline
  3
AutoCAD 2000
 90
    32768
280
     0
281
     1
  0
CLASS
  1
HATCH
  2
AcDbHatch
  3
AutoCAD 2000
 90
    32768
280
     0
281
     1
  0
CLASS
  1
XRECORD
  2
AcDbXrecord
  3
AutoCAD 2000
 90
    32768
280
     0
281
     0
  0
CLASS
  1
LONG_TRANSACTION
  2
AcDbLongTransaction
  3
AutoCAD 2000
 90
    32768
280
     0
281
     0
  0
CLASS
  1
LWPOLYLINE
  2
AcDbPolyline
  3
AutoCAD 2000
 90
    32768
280
     0
281
     1
  0
CLASS
  1
HATCH
  2
AcDbHatch
  3
AutoCAD 2000
 90
    32768
280
     0
281
     1
  0
CLASS
  1
XRECORD
  2
AcDbXrecord
  3
AutoCAD 2000
 90
    32768
280
     0
281
     0
  0
CLASS
  1
LONG_TRANSACTION
  2
AcDbLongTransaction
  3
AutoCAD 2000
 90
    32768
280
     0
281
     0
  0
CLASS
  1
LWPOLYLINE
  2
AcDbPolyline
  3
AutoCAD 2000
 90
    32768
280
     0
281
     1
  0
CLASS
  1
HATCH
  2
AcDbHatch
  3
AutoCAD 2000
 90
    32768
280
     0
281
     1
  0
CLASS
  1
XRECORD
  2
AcDbXrecord
  3
AutoCAD 2000
 90
    32768
280
     0
281
     0
  0
CLASS
  1
LONG_TRANSACTION
  2
AcDbLongTransaction
  3
AutoCAD 2000
 90
    32768
280
     0
281
     0
  0
CLASS
  1
LWPOLYLINE
  2
AcDbPolyline
  3
AutoCAD 2000
 90
    32768
280
     0
281
     1
  0
CLASS
  1
HATCH
  2
AcDbHatch
  3
AutoCAD 2000
 90
    32768
280
     0
281
     1
  0
CLASS
  1
XRECORD
  2
AcDbXrecord
  3
AutoCAD 2000
 90
    32768
280
     0
281
     0
  0
ENDSEC
  0
SECTION
  2
TABLES
  0
TABLE
  2
VPORT
  5
13
330
0
100
AcDbSymbolTable
 70
     2
  0
VPORT
  5
24C6
330
13
100
AcDbSymbolTableRecord
100
AcDbViewportTableRecord
  2
*Active
 70
     0
 10
0.0
 20
0.0
 11
1.0
 21
1.0
 12
532.9971210646696
 22
109.6406510772641
 13
0.0
 23
0.0
 14
0.1
 24
0.1
 15
10.0
 25
10.0
 16
0.0
 26
0.0
 36
1.0
 17
0.0
 27
0.0
 37
0.0
 40
1741.305099135339
 41
1.732888146911519
 42
50.0
 43
0.0
 44
0.0
 50
0.0
 51
0.0
 71
     0
 72
   100
 73
     1
 74
     0
 75
     0
 76
     0
 77
     0
 78
     1
281
     0
 65
     1
110
0.0
120
0.0
130
0.0
111
1.0
121
0.0
131
0.0
112
0.0
122
1.0
132
0.0
 79
     0
146
0.0
  0
ENDTAB
  0
TABLE
  2
LTYPE
  5
F
330
0
100
AcDbSymbolTable
 70
     1
  0
LTYPE
  5
10
330
F
100
AcDbSymbolTableRecord
100
AcDbLinetypeTableRecord
  2
BYBLOCK
 70
     0
  3

 72
    65
 73
     0
 40
0.0
  0
LTYPE
  5
6
330
F
100
AcDbSymbolTableRecord
100
AcDbLinetypeTableRecord
  2
BYLAYER
 70
     0
  3

 72
    65
 73
     0
 40
0.0
  0
LTYPE
  5
5
330
F
100
AcDbSymbolTableRecord
100
AcDbLinetypeTableRecord
  2
CONTINUOUS
 70
     0
  3
Solid line
 72
    65
 73
     0
 40
0.0
  0
ENDTAB
  0
TABLE
  2
LAYER
  5
B
330
0
100
AcDbSymbolTable
 70
     5
  0
LAYER
  5
C
330
B
100
AcDbSymbolTableRecord
100
AcDbLayerTableRecord
  2
0
 70
     0
 62
     7
  6
CONTINUOUS
370
    -3
390
2D
  0
LAYER
  5
10EB
330
B
100
AcDbSymbolTableRecord
100
AcDbLayerTableRecord
  2
DEFPOINTS
 70
     0
 62
     7
  6
CONTINUOUS
290
     0
370
    -3
390
2D
  0
LAYER
  5
1515
330
B
100
AcDbSymbolTableRecord
100
AcDbLayerTableRecord
  2
Layer1
 70
     0
 62
     5
  6
CONTINUOUS
370
    -3
390
2D
  0
LAYER
  5
1516
330
B
100
AcDbSymbolTableRecord
100
AcDbLayerTableRecord
  2
Layer3
 70
     0
 62
     4
  6
CONTINUOUS
370
    -3
390
2D
  0
LAYER
  5
1517
330
B
100
AcDbSymbolTableRecord
100
AcDbLayerTableRecord
  2
Layer4
 70
     0
 62
     6
  6
CONTINUOUS
370
    -3
390
2D
  0
ENDTAB
  0
TABLE
  2
STYLE
  5
D
330
0
100
AcDbSymbolTable
 70
     1
  0
STYLE
  5
E
330
D
100
AcDbSymbolTableRecord
100
AcDbTextStyleTableRecord
  2
STANDARD
 70
     0
 40
0.0
 41
1.0
 50
0.0
 71
     0
 42
3.0
  3
txt
  4
bigfont
  0
ENDTAB
  0
TABLE
  2
VIEW
  5
11
330
0
100
AcDbSymbolTable
 70
     0
  0
ENDTAB
  0
TABLE
  2
UCS
  5
12
330
0
100
AcDbSymbolTable
 70
     0
  0
ENDTAB
  0
TABLE
  2
APPID
  5
15
330
0
100
AcDbSymbolTable
 70
     2
  0
APPID
  5
16
330
15
100
AcDbSymbolTableRecord
100
AcDbRegAppTableRecord
  2
ACAD
 70
     0
  0
APPID
  5
BC3
330
15
100
AcDbSymbolTableRecord
100
AcDbRegAppTableRecord
  2
CONTENTBLOCKICON
 70
     0
  0
ENDTAB
  0
TABLE
  2
DIMSTYLE
  5
17
330
0
100
AcDbSymbolTable
 70
     2
100
AcDbDimStyleTable
 71
     0
  0
DIMSTYLE
105
38
330
17
100
AcDbSymbolTableRecord
100
AcDbDimStyleTableRecord
  2
STYLE1
 70
     0
 40
0.0
 41
2.5
 42
1.0
 43
10.0
 44
1.0
 73
     0
 74
     0
 77
     3
 78
     8
140
3.0
141
0.0
147
1.0
172
     1
174
     1
271
     3
272
     3
340
E
341
3EC
342
3EC
  0
DIMSTYLE
105
558
330
17
100
AcDbSymbolTableRecord
100
AcDbDimStyleTableRecord
  2
STANDARD
 70
     0
340
E
  0
ENDTAB
  0
TABLE
  2
BLOCK_RECORD
  5
1
330
0
100
AcDbSymbolTable
 70
     1
  0
BLOCK_RECORD
  5
2
102
{ACAD_XDICTIONARY
360
3A6
102
}
330
1
100
AcDbSymbolTableRecord
100
AcDbBlockTableRecord
  2
*MODEL_SPACE
340
150C
  0
BLOCK_RECORD
  5
8
102
{ACAD_XDICTIONARY
360
3A8
102
}
330
1
100
AcDbSymbolTableRecord
100
AcDbBlockTableRecord
  2
*PAPER_SPACE
340
150D
  0
BLOCK_RECORD
  5
3EC
330
1
100
AcDbSymbolTableRecord
100
AcDbBlockTableRecord
  2
_OPEN
340
0
  0
ENDTAB
  0
ENDSEC
  0
SECTION
  2
BLOCKS
  0
BLOCK
  5
3
330
2
100
AcDbEntity
  8
0
100
AcDbBlockBegin
  2
*MODEL_SPACE
 70
     0
 10
0.0
 20
0.0
 30
0.0
  3
*MODEL_SPACE
  1

  0
ENDBLK
  5
7
330
2
100
AcDbEntity
  8
0
100
AcDbBlockEnd
  0
BLOCK
  5
9
330
8
100
AcDbEntity
 67
     1
  8
0
100
AcDbBlockBegin
  2
*PAPER_SPACE
 70
     0
 10
0.0
 20
0.0
 30
0.0
  3
*PAPER_SPACE
  1

  0
ENDBLK
  5
A
330
8
100
AcDbEntity
 67
     1
  8
0
100
AcDbBlockEnd
  0
BLOCK
  5
3F0
330
3EC
100
AcDbEntity
  8
0
100
AcDbBlockBegin
  2
_OPEN
 70
     0
 10
0.0
 20
0.0
 30
0.0
  3
_OPEN
  1

  0
LINE
  5
3ED
330
3EC
100
AcDbEntity
  8
0
  6
ByBlock
 62
     0
100
AcDbLine
 10
-1.0
 20
0.1666666666666666
 30
0.0
 11
0.0
 21
0.0
 31
0.0
  0
LINE
  5
3EE
330
3EC
100
AcDbEntity
  8
0
  6
ByBlock
 62
     0
100
AcDbLine
 10
-1.0
 20
-0.1666666666666666
 30
0.0
 11
0.0
 21
0.0
 31
0.0
  0
LINE
  5
3EF
330
3EC
100
AcDbEntity
  8
0
  6
ByBlock
 62
     0
100
AcDbLine
 10
0.0
 20
0.0
 30
0.0
 11
-1.0
 21
0.0
 31
0.0
  0
ENDBLK
  5
3F1
330
3EC
100
AcDbEntity
  8
0
100
AcDbBlockEnd
  0
ENDSEC
  0
SECTION
  2
ENTITIES
  0
LINE
  5
18A5
330
2
100
AcDbEntity
  8
Layer1
100
AcDbLine
 10
2033.069500707449
 20
150.0816423384089
 30
0.0
 11
-966.9304992925514
 21
150.0816423384077
 31
0.0
  0
LINE
  5
18A6
330
2
100
AcDbEntity
  8
Layer1
100
AcDbLine
 10
2033.069500707449
 20
361.0608021708607
 30
0.0
 11
-966.9304992925514
 21
361.0608021708596
 31
0.0
  0
LINE
  5
18A7
330
2
100
AcDbEntity
  8
Layer1
100
AcDbLine
 10
2033.069500707449
 20
406.0608021708606
 30
0.0
 11
-966.9304992925512
 21
406.060802170862
 31
0.0
  0
LINE
  5
18AB
330
2
100
AcDbEntity
  8
Layer1
100
AcDbLine
 10
233.0695007074491
 20
150.0816423384082
 30
0.0
 11
233.0695007074487
 21
406.0608021708624
 31
0.0
  0
LINE
  5
18AC
330
2
100
AcDbEntity
  8
Layer1
100
AcDbLine
 10
383.0695007074491
 20
150.0816423384083
 30
0.0
 11
383.0695007074487
 21
406.0608021708624
 31
0.0
  0
LINE
  5
18AD
330
2
100
AcDbEntity
  8
Layer1
100
AcDbLine
 10
-516.9304992925512
 20
150.0816423384079
 30
0.0
 11
-516.9304992925511
 21
406.0608021708624
 31
0.0
  0
LINE
  5
18AE
330
2
100
AcDbEntity
  8
Layer1
100
AcDbLine
 10
-366.9304992925511
 20
150.081642338408
 30
0.0
 11
-366.9304992925511
 21
406.0608021708624
 31
0.0
  0
LINE
  5
18AF
330
2
100
AcDbEntity
  8
Layer1
100
AcDbLine
 10
-216.9304992925511
 20
150.081642338408
 30
0.0
 11
-216.9304992925511
 21
406.0608021708624
 31
0.0
  0
LINE
  5
18B0
330
2
100
AcDbEntity
  8
Layer1
100
AcDbLine
 10
-66.93049929255119
 20
150.081642338408
 30
0.0
 11
-66.93049929255119
 21
406.0608021708624
 31
0.0
  0
LINE
  5
18B1
330
2
100
AcDbEntity
  8
Layer1
100
AcDbLine
 10
83.0695007074487
 20
150.0816423384081
 30
0.0
 11
83.0695007074487
 21
406.0608021708624
 31
0.0
  0
LINE
  5
18B2
330
2
100
AcDbEntity
  8
Layer1
100
AcDbLine
 10
-966.9304992925512
 20
150.0816423384077
 30
0.0
 11
-966.9304992925512
 21
406.0608021708624
 31
0.0
  0
LINE
  5
18B3
330
2
100
AcDbEntity
  8
Layer1
100
AcDbLine
 10
-816.9304992925512
 20
150.0816423384078
 30
0.0
 11
-816.9304992925512
 21
406.0608021708624
 31
0.0
  0
LINE
  5
18B4
330
2
100
AcDbEntity
  8
Layer1
100
AcDbLine
 10
-666.9304992925512
 20
150.0816423384079
 30
0.0
 11
-666.9304992925511
 21
406.0608021708624
 31
0.0
  0
MTEXT
  5
19B4
330
2
100
AcDbEntity
  8
Layer4
100
AcDbMText
 10
-932.3552508148154
 20
400.9625979400673
 30
0.0
 40
30.0
 41
81.69299999999999
 71
     1
 72
     5
  1
M2
 73
     1
 44
1.0
  0
MTEXT
  5
19C5
330
2
100
AcDbEntity
  8
Layer4
100
AcDbMText
 10
-782.3552508148154
 20
400.9625979400673
 30
0.0
 40
30.0
 41
81.69299999999999
 71
     1
 72
     5
  1
M2.5
 73
     1
 44
1.0
  0
MTEXT
  5
19C6
330
2
100
AcDbEntity
  8
Layer4
100
AcDbMText
 10
-632.3552508148154
 20
400.9625979400673
 30
0.0
 40
30.0
 41
81.69299999999999
 71
     1
 72
     5
  1
M3
 73
     1
 44
1.0
  0
MTEXT
  5
19C7
330
2
100
AcDbEntity
  8
Layer4
100
AcDbMText
 10
-482.3552508148153
 20
400.9625979400673
 30
0.0
 40
30.0
 41
81.69299999999999
 71
     1
 72
     5
  1
M4
 73
     1
 44
1.0
  0
MTEXT
  5
1A1F
330
2
100
AcDbEntity
  8
Layer4
100
AcDbMText
 10
-182.3552508148153
 20
400.9625979400673
 30
0.0
 40
30.0
 41
81.69299999999999
 71
     1
 72
     5
  1
M6
 73
     1
 44
1.0
  0
MTEXT
  5
1A20
330
2
100
AcDbEntity
  8
Layer4
100
AcDbMText
 10
-332.3552508148153
 20
400.9625979400673
 30
0.0
 40
30.0
 41
81.69299999999999
 71
     1
 72
     5
  1
M5
 73
     1
 44
1.0
  0
MTEXT
  5
1A21
330
2
100
AcDbEntity
  8
Layer4
100
AcDbMText
 10
-32.35525081481535
 20
400.9625979400673
 30
0.0
 40
30.0
 41
81.69299999999999
 71
     1
 72
     5
  1
M8
 73
     1
 44
1.0
  0
MTEXT
  5
1A4F
330
2
100
AcDbEntity
  8
Layer4
100
AcDbMText
 10
267.6447491851846
 20
400.9625979400673
 30
0.0
 40
30.0
 41
81.69299999999999
 71
     1
 72
     5
  1
M12
 73
     1
 44
1.0
  0
MTEXT
  5
1A50
330
2
100
AcDbEntity
  8
Layer4
100
AcDbMText
 10
117.6447491851846
 20
400.9625979400673
 30
0.0
 40
30.0
 41
81.69299999999999
 71
     1
 72
     5
  1
M10
 73
     1
 44
1.0
  0
MTEXT
  5
1A51
330
2
100
AcDbEntity
  8
Layer4
100
AcDbMText
 10
394.5999258374719
 20
400.9625979400673
 30
0.0
 40
30.0
 41
81.69299999999999
 71
     1
 72
     5
  1
(M14)
 73
     1
 44
1.0
  0
LINE
  5
1A88
330
2
100
AcDbEntity
  8
Layer1
100
AcDbLine
 10
1433.069500707448
 20
150.0816423384087
 30
0.0
 11
1433.069500707448
 21
406.0608021708636
 31
0.0
  0
LINE
  5
1A89
330
2
100
AcDbEntity
  8
Layer1
100
AcDbLine
 10
1583.069500707448
 20
150.0816423384087
 30
0.0
 11
1583.069500707448
 21
406.0608021708636
 31
0.0
  0
LINE
  5
1A8A
330
2
100
AcDbEntity
  8
Layer1
100
AcDbLine
 10
1733.069500707449
 20
150.0816423384088
 30
0.0
 11
1733.069500707449
 21
406.0608021708636
 31
0.0
  0
LINE
  5
1A8B
330
2
100
AcDbEntity
  8
Layer1
100
AcDbLine
 10
1883.069500707448
 20
150.0816423384088
 30
0.0
 11
1883.069500707448
 21
406.0608021708636
 31
0.0
  0
LINE
  5
1A8C
330
2
100
AcDbEntity
  8
Layer1
100
AcDbLine
 10
2033.069500707449
 20
150.0816423384089
 30
0.0
 11
2033.069500707449
 21
406.0608021708636
 31
0.0
  0
LINE
  5
1A8D
330
2
100
AcDbEntity
  8
Layer1
100
AcDbLine
 10
1283.069500707449
 20
150.0816423384086
 30
0.0
 11
1283.069500707448
 21
406.0608021708636
 31
0.0
  0
LINE
  5
1A8E
330
2
100
AcDbEntity
  8
Layer1
100
AcDbLine
 10
833.0695007074487
 20
150.0816423384084
 30
0.0
 11
833.0695007074487
 21
406.0608021708624
 31
0.0
  0
LINE
  5
1A8F
330
2
100
AcDbEntity
  8
Layer1
100
AcDbLine
 10
983.0695007074487
 20
150.0816423384085
 30
0.0
 11
983.0695007074487
 21
406.0608021708624
 31
0.0
  0
LINE
  5
1A90
330
2
100
AcDbEntity
  8
Layer1
100
AcDbLine
 10
1133.069500707448
 20
150.0816423384085
 30
0.0
 11
1133.069500707448
 21
406.0608021708624
 31
0.0
  0
LINE
  5
1A91
330
2
100
AcDbEntity
  8
Layer1
100
AcDbLine
 10
533.0695007074487
 20
150.0816423384083
 30
0.0
 11
533.0695007074487
 21
406.0608021708624
 31
0.0
  0
LINE
  5
1A92
330
2
100
AcDbEntity
  8
Layer1
100
AcDbLine
 10
683.0695007074487
 20
150.0816423384084
 30
0.0
 11
683.0695007074487
 21
406.0608021708624
 31
0.0
  0
MTEXT
  5
1B92
330
2
100
AcDbEntity
  8
Layer4
100
AcDbMText
 10
867.6447491851849
 20
400.962597940066
 30
0.0
 40
30.0
 41
81.69299999999999
 71
     1
 72
     5
  1
M20
 73
     1
 44
1.0
  0
MTEXT
  5
1B93
330
2
100
AcDbEntity
  8
Layer4
100
AcDbMText
 10
567.6447491851846
 20
400.9625979400663
 30
0.0
 40
30.0
 41
81.69299999999999
 71
     1
 72
     5
  1
M16
 73
     1
 44
1.0
  0
MTEXT
  5
1B94
330
2
100
AcDbEntity
  8
Layer4
100
AcDbMText
 10
997.2938420716817
 20
400.9625979400672
 30
0.0
 40
30.0
 41
81.69299999999999
 71
     1
 72
     5
  1
(M22)
 73
     1
 44
1.0
  0
MTEXT
  5
1BBC
330
2
100
AcDbEntity
  8
Layer4
100
AcDbMText
 10
1467.644749185184
 20
400.9625979400683
 30
0.0
 40
30.0
 41
81.69299999999999
 71
     1
 72
     5
  1
M30
 73
     1
 44
1.0
  0
MTEXT
  5
1BBD
330
2
100
AcDbEntity
  8
Layer4
100
AcDbMText
 10
1167.644749185184
 20
400.9625979400672
 30
0.0
 40
30.0
 41
81.69299999999999
 71
     1
 72
     5
  1
M24
 73
     1
 44
1.0
  0
MTEXT
  5
1BBE
330
2
100
AcDbEntity
  8
Layer4
100
AcDbMText
 10
1767.644749185184
 20
400.9625979400667
 30
0.0
 40
30.0
 41
81.69299999999999
 71
     1
 72
     5
  1
M36
 73
     1
 44
1.0
  0
MTEXT
  5
1C2F
330
2
100
AcDbEntity
  8
Layer4
100
AcDbMText
 10
-963.4304196893948
 20
570.6921344220059
 30
0.0
 40
50.0
 41
1144.726
 71
     1
 72
     5
  1
ばね座金 （2号）\P　　
 73
     1
 44
1.0
  0
MTEXT
  5
1C30
330
2
100
AcDbEntity
  8
Layer4
100
AcDbMText
 10
-963.4304196893948
 20
509.5310208595434
 30
0.0
 40
50.0
 41
2280.513
 71
     1
 72
     5
  1
Spring Lock Washers (JIS B 1251) 1984
 73
     1
 44
1.0
  0
LINE
  5
1F43
330
2
100
AcDbEntity
  8
Layer3
100
AcDbLine
 10
-889.730499292551
 20
272.6000452792458
 30
0.0
 11
-894.1304992925513
 21
272.6000452792458
 31
0.0
  0
LINE
  5
211E
330
2
100
AcDbEntity
  8
Layer1
100
AcDbLine
 10
683.0695007074488
 20
-95.44331938874206
 30
0.0
 11
-966.9304992925512
 21
-95.44331938874131
 31
0.0
  0
LINE
  5
211F
330
2
100
AcDbEntity
  8
Layer1
100
AcDbLine
 10
683.0695007074488
 20
-140.4433193887431
 30
0.0
 11
-966.9304992925514
 21
-140.4433193887437
 31
0.0
  0
LINE
  5
2120
330
2
100
AcDbEntity
  8
Layer1
100
AcDbLine
 10
683.0695007074488
 20
-351.4224792211951
 30
0.0
 11
-966.9304992925514
 21
-351.4224792211956
 31
0.0
  0
LINE
  5
2125
330
2
100
AcDbEntity
  8
Layer1
100
AcDbLine
 10
-666.9304992925512
 20
-351.4224792211954
 30
0.0
 11
-666.9304992925511
 21
-95.44331938874098
 31
0.0
  0
LINE
  5
2126
330
2
100
AcDbEntity
  8
Layer1
100
AcDbLine
 10
-816.9304992925512
 20
-351.4224792211955
 30
0.0
 11
-816.9304992925512
 21
-95.44331938874098
 31
0.0
  0
LINE
  5
2127
330
2
100
AcDbEntity
  8
Layer1
100
AcDbLine
 10
-966.9304992925512
 20
-351.4224792211956
 30
0.0
 11
-966.9304992925512
 21
-95.44331938874098
 31
0.0
  0
LINE
  5
2128
330
2
100
AcDbEntity
  8
Layer1
100
AcDbLine
 10
-366.9304992925511
 20
-351.4224792211953
 30
0.0
 11
-366.9304992925511
 21
-95.44331938874098
 31
0.0
  0
LINE
  5
2129
330
2
100
AcDbEntity
  8
Layer1
100
AcDbLine
 10
-516.9304992925512
 20
-351.4224792211954
 30
0.0
 11
-516.9304992925511
 21
-95.44331938874098
 31
0.0
  0
LINE
  5
213E
330
2
100
AcDbEntity
  8
Layer1
100
AcDbLine
 10
683.0695007074488
 20
-351.4224792211949
 30
0.0
 11
683.0695007074488
 21
-95.44331938874098
 31
0.0
  0
LINE
  5
213F
330
2
100
AcDbEntity
  8
Layer1
100
AcDbLine
 10
533.0695007074488
 20
-351.422479221195
 30
0.0
 11
533.0695007074488
 21
-95.44331938874098
 31
0.0
  0
LINE
  5
2149
330
2
100
AcDbEntity
  8
Layer1
100
AcDbLine
 10
83.0695007074488
 20
-351.4224792211952
 30
0.0
 11
83.0695007074488
 21
-95.44331938874098
 31
0.0
  0
LINE
  5
214A
330
2
100
AcDbEntity
  8
Layer1
100
AcDbLine
 10
-66.93049929255119
 20
-351.4224792211953
 30
0.0
 11
-66.93049929255119
 21
-95.44331938874098
 31
0.0
  0
LINE
  5
214B
330
2
100
AcDbEntity
  8
Layer1
100
AcDbLine
 10
-216.9304992925511
 20
-351.4224792211953
 30
0.0
 11
-216.9304992925511
 21
-95.44331938874098
 31
0.0
  0
LINE
  5
214C
330
2
100
AcDbEntity
  8
Layer1
100
AcDbLine
 10
383.0695007074492
 20
-351.4224792211951
 30
0.0
 11
383.0695007074488
 21
-95.44331938874098
 31
0.0
  0
LINE
  5
214D
330
2
100
AcDbEntity
  8
Layer1
100
AcDbLine
 10
233.0695007074492
 20
-351.4224792211951
 30
0.0
 11
233.0695007074488
 21
-95.44331938874098
 31
0.0
  0
MTEXT
  5
214E
330
2
100
AcDbEntity
  8
Layer4
100
AcDbMText
 10
-932.3552508148152
 20
-100.5415236195357
 30
0.0
 40
30.0
 41
81.69299999999999
 71
     1
 72
     5
  1
M6
 73
     1
 44
1.0
  0
MTEXT
  5
2150
330
2
100
AcDbEntity
  8
Layer4
100
AcDbMText
 10
-782.3552508148152
 20
-100.5415236195357
 30
0.0
 40
30.0
 41
81.69299999999999
 71
     1
 72
     5
  1
M8
 73
     1
 44
1.0
  0
MTEXT
  5
2151
330
2
100
AcDbEntity
  8
Layer4
100
AcDbMText
 10
-482.3552508148152
 20
-100.5415236195357
 30
0.0
 40
30.0
 41
81.69299999999999
 71
     1
 72
     5
  1
M12
 73
     1
 44
1.0
  0
MTEXT
  5
2152
330
2
100
AcDbEntity
  8
Layer4
100
AcDbMText
 10
-632.3552508148152
 20
-100.5415236195357
 30
0.0
 40
30.0
 41
81.69299999999999
 71
     1
 72
     5
  1
M10
 73
     1
 44
1.0
  0
MTEXT
  5
2153
330
2
100
AcDbEntity
  8
Layer4
100
AcDbMText
 10
-332.3552508148152
 20
-100.5415236195357
 30
0.0
 40
30.0
 41
81.69299999999999
 71
     1
 72
     5
  1
M14
 73
     1
 44
1.0
  0
MTEXT
  5
2155
330
2
100
AcDbEntity
  8
Layer4
100
AcDbMText
 10
-182.3552508148152
 20
-100.5415236195367
 30
0.0
 40
30.0
 41
81.69299999999999
 71
     1
 72
     5
  1
M16
 73
     1
 44
1.0
  0
LINE
  5
2162
330
2
100
AcDbEntity
  8
Layer1
100
AcDbLine
 10
2033.069500707449
 20
150.0816423384089
 30
0.0
 11
2033.069500707449
 21
406.0608021708637
 31
0.0
  0
MTEXT
  5
216C
330
2
100
AcDbEntity
  8
Layer4
100
AcDbMText
 10
1298.920906827125
 20
400.9625979400645
 30
0.0
 40
30.0
 41
81.69299999999999
 71
     1
 72
     5
  1
(M27)
 73
     1
 44
1.0
  0
MTEXT
  5
217D
330
2
100
AcDbEntity
  8
Layer4
100
AcDbMText
 10
694.5999258374719
 20
400.9625979400673
 30
0.0
 40
30.0
 41
81.69299999999999
 71
     1
 72
     5
  1
(M18)
 73
     1
 44
1.0
  0
MTEXT
  5
217E
330
2
100
AcDbEntity
  8
Layer4
100
AcDbMText
 10
1598.920906827125
 20
400.9625979400617
 30
0.0
 40
30.0
 41
81.69299999999999
 71
     1
 72
     5
  1
(M33)
 73
     1
 44
1.0
  0
MTEXT
  5
217F
330
2
100
AcDbEntity
  8
Layer4
100
AcDbMText
 10
1898.920906827124
 20
400.9625979400588
 30
0.0
 40
30.0
 41
81.69299999999999
 71
     1
 72
     5
  1
(M39)
 73
     1
 44
1.0
  0
MTEXT
  5
21D0
330
2
100
AcDbEntity
  8
Layer4
100
AcDbMText
 10
548.9209068271247
 20
-100.5415236195395
 30
0.0
 40
30.0
 41
81.69299999999999
 71
     1
 72
     5
  1
(M27)
 73
     1
 44
1.0
  0
MTEXT
  5
21D1
330
2
100
AcDbEntity
  8
Layer4
100
AcDbMText
 10
-55.40007416252809
 20
-100.5415236195368
 30
0.0
 40
30.0
 41
81.69299999999999
 71
     1
 72
     5
  1
(M18)
 73
     1
 44
1.0
  0
MTEXT
  5
21D2
330
2
100
AcDbEntity
  8
Layer4
100
AcDbMText
 10
117.6447491851848
 20
-100.541523619538
 30
0.0
 40
30.0
 41
81.69299999999999
 71
     1
 72
     5
  1
M20
 73
     1
 44
1.0
  0
MTEXT
  5
21D3
330
2
100
AcDbEntity
  8
Layer4
100
AcDbMText
 10
417.644749185185
 20
-100.5415236195369
 30
0.0
 40
30.0
 41
81.69299999999999
 71
     1
 72
     5
  1
M24
 73
     1
 44
1.0
  0
MTEXT
  5
21D4
330
2
100
AcDbEntity
  8
Layer4
100
AcDbMText
 10
247.2938420716817
 20
-100.5415236195369
 30
0.0
 40
30.0
 41
81.69299999999999
 71
     1
 72
     5
  1
(M22)
 73
     1
 44
1.0
  0
MTEXT
  5
22A5
330
2
100
AcDbEntity
  8
Layer4
100
AcDbMText
 10
-963.430419689395
 20
8.026899299940055
 30
0.0
 40
50.0
 41
2280.513
 71
     1
 72
     5
  1
Spring Lock Washers (JIS B 1251) 1984
 73
     1
 44
1.0
  0
MTEXT
  5
22A6
330
2
100
AcDbEntity
  8
Layer4
100
AcDbMText
 10
-963.430419689395
 20
69.18801286240261
 30
0.0
 40
50.0
 41
1144.726
 71
     1
 72
     5
  1
ばね座金 （3号）\P　　
 73
     1
 44
1.0
  0
CIRCLE
  5
22C9
330
2
100
AcDbEntity
  8
Layer3
100
AcDbCircle
 10
-891.9304992925512
 20
279.2108579116557
 30
0.0
 40
2.2
  0
CIRCLE
  5
22CA
330
2
100
AcDbEntity
  8
Layer3
100
AcDbCircle
 10
-891.9304992925512
 20
279.2108579116557
 30
0.0
 40
1.05
  0
LINE
  5
22CC
330
2
100
AcDbEntity
  8
Layer3
100
AcDbLine
 10
-889.7304992925512
 20
272.1000452792458
 30
0.0
 11
-894.1304992925513
 21
272.1000452792458
 31
0.0
  0
LINE
  5
22CD
330
2
100
AcDbEntity
  8
Layer3
100
AcDbLine
 10
-894.1304992925513
 20
272.6000452792458
 30
0.0
 11
-894.1304992925513
 21
272.1000452792458
 31
0.0
  0
LINE
  5
22CE
330
2
100
AcDbEntity
  8
Layer3
100
AcDbLine
 10
-889.730499292551
 20
272.6000452792458
 30
0.0
 11
-889.7304992925512
 21
272.1000452792458
 31
0.0
  0
CIRCLE
  5
22CF
330
2
100
AcDbEntity
  8
Layer3
100
AcDbCircle
 10
-741.9304992925518
 20
279.2108579116557
 30
0.0
 40
2.6
  0
CIRCLE
  5
22D0
330
2
100
AcDbEntity
  8
Layer3
100
AcDbCircle
 10
-741.9304992925518
 20
279.2108579116557
 30
0.0
 40
1.3
  0
LINE
  5
22D1
330
2
100
AcDbEntity
  8
Layer3
100
AcDbLine
 10
-739.3304992925518
 20
272.2000452792458
 30
0.0
 11
-744.5304992925517
 21
272.2000452792457
 31
0.0
  0
LINE
  5
22D2
330
2
100
AcDbEntity
  8
Layer3
100
AcDbLine
 10
-739.3304992925518
 20
271.6000452792458
 30
0.0
 11
-744.5304992925518
 21
271.6000452792458
 31
0.0
  0
LINE
  5
22D3
330
2
100
AcDbEntity
  8
Layer3
100
AcDbLine
 10
-744.5304992925517
 20
272.2000452792457
 30
0.0
 11
-744.5304992925518
 21
271.6000452792458
 31
0.0
  0
LINE
  5
22D4
330
2
100
AcDbEntity
  8
Layer3
100
AcDbLine
 10
-739.3304992925518
 20
272.2000452792458
 30
0.0
 11
-739.3304992925518
 21
271.6000452792458
 31
0.0
  0
CIRCLE
  5
22D5
330
2
100
AcDbEntity
  8
Layer3
100
AcDbCircle
 10
-591.9304992925512
 20
279.2108579116557
 30
0.0
 40
1.55
  0
CIRCLE
  5
22D6
330
2
100
AcDbEntity
  8
Layer3
100
AcDbCircle
 10
-591.9304992925512
 20
279.2108579116557
 30
0.0
 40
2.95
  0
LINE
  5
22D7
330
2
100
AcDbEntity
  8
Layer3
100
AcDbLine
 10
-588.9804992925512
 20
271.8500452792458
 30
0.0
 11
-594.8804992925513
 21
271.8500452792458
 31
0.0
  0
LINE
  5
22D8
330
2
100
AcDbEntity
  8
Layer3
100
AcDbLine
 10
-588.9804992925512
 20
271.1500452792459
 30
0.0
 11
-594.8804992925512
 21
271.1500452792457
 31
0.0
  0
LINE
  5
22D9
330
2
100
AcDbEntity
  8
Layer3
100
AcDbLine
 10
-594.8804992925513
 20
271.8500452792458
 30
0.0
 11
-594.8804992925512
 21
271.1500452792457
 31
0.0
  0
LINE
  5
22DA
330
2
100
AcDbEntity
  8
Layer3
100
AcDbLine
 10
-588.9804992925512
 20
271.8500452792458
 30
0.0
 11
-588.9804992925512
 21
271.1500452792459
 31
0.0
  0
CIRCLE
  5
22DB
330
2
100
AcDbEntity
  8
Layer3
100
AcDbCircle
 10
-441.9304992925512
 20
279.2108579116557
 30
0.0
 40
2.049999999999999
  0
CIRCLE
  5
22DC
330
2
100
AcDbEntity
  8
Layer3
100
AcDbCircle
 10
-441.9304992925512
 20
279.2108579116557
 30
0.0
 40
3.799999999999999
  0
LINE
  5
22DD
330
2
100
AcDbEntity
  8
Layer3
100
AcDbLine
 10
-438.1304992925512
 20
271.0000452792458
 30
0.0
 11
-445.7304992925513
 21
271.0000452792458
 31
0.0
  0
LINE
  5
22DE
330
2
100
AcDbEntity
  8
Layer3
100
AcDbLine
 10
-438.1304992925512
 20
270.0000452792458
 30
0.0
 11
-445.7304992925513
 21
270.0000452792457
 31
0.0
  0
LINE
  5
22DF
330
2
100
AcDbEntity
  8
Layer3
100
AcDbLine
 10
-445.7304992925513
 20
271.0000452792458
 30
0.0
 11
-445.7304992925513
 21
270.0000452792457
 31
0.0
  0
LINE
  5
22E0
330
2
100
AcDbEntity
  8
Layer3
100
AcDbLine
 10
-438.1304992925512
 20
271.0000452792458
 30
0.0
 11
-438.1304992925512
 21
270.0000452792458
 31
0.0
  0
CIRCLE
  5
22E1
330
2
100
AcDbEntity
  8
Layer3
100
AcDbCircle
 10
-291.9304992925513
 20
279.2108579116557
 30
0.0
 40
2.549999999999999
  0
CIRCLE
  5
22E2
330
2
100
AcDbEntity
  8
Layer3
100
AcDbCircle
 10
-291.9304992925513
 20
279.2108579116557
 30
0.0
 40
4.599999999999999
  0
LINE
  5
22E3
330
2
100
AcDbEntity
  8
Layer3
100
AcDbLine
 10
-287.3304992925513
 20
270.2000452792459
 30
0.0
 11
-296.5304992925513
 21
270.2000452792457
 31
0.0
  0
LINE
  5
22E4
330
2
100
AcDbEntity
  8
Layer3
100
AcDbLine
 10
-287.3304992925513
 20
268.9000452792459
 30
0.0
 11
-296.5304992925513
 21
268.9000452792457
 31
0.0
  0
LINE
  5
22E5
330
2
100
AcDbEntity
  8
Layer3
100
AcDbLine
 10
-296.5304992925513
 20
270.2000452792457
 30
0.0
 11
-296.5304992925513
 21
268.9000452792457
 31
0.0
  0
LINE
  5
22E6
330
2
100
AcDbEntity
  8
Layer3
100
AcDbLine
 10
-287.3304992925513
 20
270.2000452792459
 30
0.0
 11
-287.3304992925513
 21
268.9000452792459
 31
0.0
  0
CIRCLE
  5
22E7
330
2
100
AcDbEntity
  8
Layer3
100
AcDbCircle
 10
-141.9304992925512
 20
279.2108579116557
 30
0.0
 40
3.049999999999999
  0
CIRCLE
  5
22E8
330
2
100
AcDbEntity
  8
Layer3
100
AcDbCircle
 10
-141.9304992925512
 20
279.2108579116557
 30
0.0
 40
6.099999999999999
  0
LINE
  5
22E9
330
2
100
AcDbEntity
  8
Layer3
100
AcDbLine
 10
-135.8304992925513
 20
268.7000452792458
 30
0.0
 11
-148.0304992925513
 21
268.7000452792457
 31
0.0
  0
LINE
  5
22EA
330
2
100
AcDbEntity
  8
Layer3
100
AcDbLine
 10
-135.8304992925513
 20
267.2000452792459
 30
0.0
 11
-148.0304992925513
 21
267.2000452792457
 31
0.0
  0
LINE
  5
22EB
330
2
100
AcDbEntity
  8
Layer3
100
AcDbLine
 10
-148.0304992925513
 20
268.7000452792457
 30
0.0
 11
-148.0304992925513
 21
267.2000452792457
 31
0.0
  0
LINE
  5
22EC
330
2
100
AcDbEntity
  8
Layer3
100
AcDbLine
 10
-135.8304992925513
 20
268.7000452792458
 30
0.0
 11
-135.8304992925513
 21
267.2000452792459
 31
0.0
  0
CIRCLE
  5
22EF
330
2
100
AcDbEntity
  8
Layer3
100
AcDbCircle
 10
8.069500707448696
 20
279.2108579116557
 30
0.0
 40
4.099999999999999
  0
CIRCLE
  5
22F0
330
2
100
AcDbEntity
  8
Layer3
100
AcDbCircle
 10
8.069500707448696
 20
279.2108579116557
 30
0.0
 40
7.7
  0
LINE
  5
22F1
330
2
100
AcDbEntity
  8
Layer3
100
AcDbLine
 10
15.76950070744869
 20
267.1000452792459
 30
0.0
 11
0.3695007074486964
 21
267.1000452792457
 31
0.0
  0
LINE
  5
22F2
330
2
100
AcDbEntity
  8
Layer3
100
AcDbLine
 10
15.76950070744869
 20
265.1000452792459
 30
0.0
 11
0.3695007074486964
 21
265.1000452792457
 31
0.0
  0
LINE
  5
22F3
330
2
100
AcDbEntity
  8
Layer3
100
AcDbLine
 10
0.3695007074486964
 20
267.1000452792457
 30
0.0
 11
0.3695007074486964
 21
265.1000452792457
 31
0.0
  0
LINE
  5
22F4
330
2
100
AcDbEntity
  8
Layer3
100
AcDbLine
 10
15.76950070744869
 20
267.1000452792459
 30
0.0
 11
15.76950070744869
 21
265.1000452792459
 31
0.0
  0
CIRCLE
  5
22FB
330
2
100
AcDbEntity
  8
Layer3
100
AcDbCircle
 10
158.0695007074487
 20
279.2108579116557
 30
0.0
 40
5.099999999999999
  0
CIRCLE
  5
22FC
330
2
100
AcDbEntity
  8
Layer3
100
AcDbCircle
 10
158.0695007074487
 20
279.2108579116557
 30
0.0
 40
9.199999999999999
  0
LINE
  5
22FD
330
2
100
AcDbEntity
  8
Layer3
100
AcDbLine
 10
167.2695007074486
 20
265.600045279246
 30
0.0
 11
148.8695007074486
 21
265.6000452792457
 31
0.0
  0
LINE
  5
22FE
330
2
100
AcDbEntity
  8
Layer3
100
AcDbLine
 10
167.2695007074486
 20
263.100045279246
 30
0.0
 11
148.8695007074486
 21
263.1000452792457
 31
0.0
  0
LINE
  5
22FF
330
2
100
AcDbEntity
  8
Layer3
100
AcDbLine
 10
148.8695007074486
 20
265.6000452792457
 30
0.0
 11
148.8695007074486
 21
263.1000452792457
 31
0.0
  0
LINE
  5
2300
330
2
100
AcDbEntity
  8
Layer3
100
AcDbLine
 10
167.2695007074486
 20
265.600045279246
 30
0.0
 11
167.2695007074486
 21
263.100045279246
 31
0.0
  0
CIRCLE
  5
2301
330
2
100
AcDbEntity
  8
Layer3
100
AcDbCircle
 10
308.0695007074489
 20
279.2108579116557
 30
0.0
 40
6.099999999999999
  0
CIRCLE
  5
2302
330
2
100
AcDbEntity
  8
Layer3
100
AcDbCircle
 10
308.0695007074489
 20
279.2108579116557
 30
0.0
 40
10.74999999999999
  0
LINE
  5
2303
330
2
100
AcDbEntity
  8
Layer3
100
AcDbLine
 10
318.8195007074488
 20
264.050045279246
 30
0.0
 11
297.3195007074489
 21
264.0500452792456
 31
0.0
  0
LINE
  5
2304
330
2
100
AcDbEntity
  8
Layer3
100
AcDbLine
 10
318.8195007074488
 20
261.050045279246
 30
0.0
 11
297.3195007074489
 21
261.0500452792456
 31
0.0
  0
LINE
  5
2305
330
2
100
AcDbEntity
  8
Layer3
100
AcDbLine
 10
297.3195007074489
 20
264.0500452792456
 30
0.0
 11
297.3195007074489
 21
261.0500452792456
 31
0.0
  0
LINE
  5
2306
330
2
100
AcDbEntity
  8
Layer3
100
AcDbLine
 10
318.8195007074488
 20
264.050045279246
 30
0.0
 11
318.8195007074488
 21
261.050045279246
 31
0.0
  0
CIRCLE
  5
2307
330
2
100
AcDbEntity
  8
Layer3
100
AcDbCircle
 10
458.0695007074487
 20
279.2108579116557
 30
0.0
 40
7.099999999999999
  0
CIRCLE
  5
2308
330
2
100
AcDbEntity
  8
Layer3
100
AcDbCircle
 10
458.0695007074487
 20
279.2108579116557
 30
0.0
 40
12.25
  0
LINE
  5
2309
330
2
100
AcDbEntity
  8
Layer3
100
AcDbLine
 10
470.3195007074487
 20
262.550045279246
 30
0.0
 11
445.8195007074486
 21
262.5500452792455
 31
0.0
  0
LINE
  5
230A
330
2
100
AcDbEntity
  8
Layer3
100
AcDbLine
 10
470.3195007074488
 20
259.050045279246
 30
0.0
 11
445.8195007074486
 21
259.0500452792455
 31
0.0
  0
LINE
  5
230B
330
2
100
AcDbEntity
  8
Layer3
100
AcDbLine
 10
445.8195007074486
 20
262.5500452792455
 30
0.0
 11
445.8195007074486
 21
259.0500452792455
 31
0.0
  0
LINE
  5
230C
330
2
100
AcDbEntity
  8
Layer3
100
AcDbLine
 10
470.3195007074487
 20
262.550045279246
 30
0.0
 11
470.3195007074488
 21
259.050045279246
 31
0.0
  0
CIRCLE
  5
230D
330
2
100
AcDbEntity
  8
Layer3
100
AcDbCircle
 10
608.0695007074484
 20
279.2108579116557
 30
0.0
 40
8.099999999999999
  0
CIRCLE
  5
230E
330
2
100
AcDbEntity
  8
Layer3
100
AcDbCircle
 10
608.0695007074484
 20
279.2108579116557
 30
0.0
 40
14.0
  0
LINE
  5
230F
330
2
100
AcDbEntity
  8
Layer3
100
AcDbLine
 10
622.0695007074485
 20
260.800045279246
 30
0.0
 11
594.0695007074485
 21
260.8000452792456
 31
0.0
  0
LINE
  5
2310
330
2
100
AcDbEntity
  8
Layer3
100
AcDbLine
 10
622.0695007074485
 20
256.800045279246
 30
0.0
 11
594.0695007074484
 21
256.8000452792456
 31
0.0
  0
LINE
  5
2311
330
2
100
AcDbEntity
  8
Layer3
100
AcDbLine
 10
594.0695007074485
 20
260.8000452792456
 30
0.0
 11
594.0695007074484
 21
256.8000452792456
 31
0.0
  0
LINE
  5
2312
330
2
100
AcDbEntity
  8
Layer3
100
AcDbLine
 10
622.0695007074485
 20
260.800045279246
 30
0.0
 11
622.0695007074485
 21
256.800045279246
 31
0.0
  0
CIRCLE
  5
2313
330
2
100
AcDbEntity
  8
Layer3
100
AcDbCircle
 10
758.0695007074484
 20
279.2108579116557
 30
0.0
 40
9.099999999999999
  0
CIRCLE
  5
2314
330
2
100
AcDbEntity
  8
Layer3
100
AcDbCircle
 10
758.0695007074484
 20
279.2108579116557
 30
0.0
 40
15.5
  0
LINE
  5
2315
330
2
100
AcDbEntity
  8
Layer3
100
AcDbLine
 10
773.5695007074484
 20
259.3000452792461
 30
0.0
 11
742.5695007074486
 21
259.3000452792455
 31
0.0
  0
LINE
  5
2316
330
2
100
AcDbEntity
  8
Layer3
100
AcDbLine
 10
773.5695007074484
 20
254.7000452792461
 30
0.0
 11
742.5695007074486
 21
254.7000452792455
 31
0.0
  0
LINE
  5
2317
330
2
100
AcDbEntity
  8
Layer3
100
AcDbLine
 10
742.5695007074486
 20
259.3000452792455
 30
0.0
 11
742.5695007074486
 21
254.7000452792455
 31
0.0
  0
LINE
  5
2318
330
2
100
AcDbEntity
  8
Layer3
100
AcDbLine
 10
773.5695007074484
 20
259.3000452792461
 30
0.0
 11
773.5695007074484
 21
254.7000452792461
 31
0.0
  0
CIRCLE
  5
231A
330
2
100
AcDbEntity
  8
Layer3
100
AcDbCircle
 10
908.0695007074485
 20
279.2108579116557
 30
0.0
 40
10.1
  0
CIRCLE
  5
231B
330
2
100
AcDbEntity
  8
Layer3
100
AcDbCircle
 10
908.0695007074485
 20
279.2108579116557
 30
0.0
 40
16.89999999999999
  0
LWPOLYLINE
  5
2320
330
2
100
AcDbEntity
  8
Layer3
100
AcDbPolyline
 90
        4
 70
     1
 43
0.0
 10
891.1695007074484
 20
252.8000452792457
 10
924.9695007074484
 20
252.8000452792457
 10
924.9695007074484
 20
257.900045279246
 10
891.1695007074484
 20
257.900045279246
  0
CIRCLE
  5
2321
330
2
100
AcDbEntity
  8
Layer3
100
AcDbCircle
 10
1058.069500707448
 20
279.2108579116557
 30
0.0
 40
11.25
  0
CIRCLE
  5
2322
330
2
100
AcDbEntity
  8
Layer3
100
AcDbCircle
 10
1058.069500707448
 20
279.2108579116557
 30
0.0
 40
18.85
  0
LWPOLYLINE
  5
232B
330
2
100
AcDbEntity
  8
Layer3
100
AcDbPolyline
 90
        4
 70
     1
 43
0.0
 10
1039.219500707448
 20
250.3500452792459
 10
1076.919500707448
 20
250.3500452792459
 10
1076.919500707448
 20
255.9500452792459
 10
1039.219500707448
 20
255.9500452792459
  0
CIRCLE
  5
232C
330
2
100
AcDbEntity
  8
Layer3
100
AcDbCircle
 10
1208.069500707448
 20
279.2108579116557
 30
0.0
 40
12.25
  0
CIRCLE
  5
232D
330
2
100
AcDbEntity
  8
Layer3
100
AcDbCircle
 10
1208.069500707448
 20
279.2108579116557
 30
0.0
 40
20.15
  0
LWPOLYLINE
  5
2332
330
2
100
AcDbEntity
  8
Layer3
100
AcDbPolyline
 90
        4
 70
     1
 43
0.0
 10
1187.919500707448
 20
245.1746487499427
 10
1228.219500707449
 20
245.1746487499427
 10
1228.219500707449
 20
251.0746487499427
 10
1187.919500707448
 20
251.0746487499427
  0
CIRCLE
  5
2333
330
2
100
AcDbEntity
  8
Layer3
100
AcDbCircle
 10
1358.069500707449
 20
279.2108579116557
 30
0.0
 40
13.75
  0
CIRCLE
  5
2334
330
2
100
AcDbEntity
  8
Layer3
100
AcDbCircle
 10
1358.069500707449
 20
279.2108579116557
 30
0.0
 40
22.65
  0
LWPOLYLINE
  5
233A
330
2
100
AcDbEntity
  8
Layer3
100
AcDbPolyline
 90
        4
 70
     1
 43
0.0
 10
1335.419500707449
 20
241.7746487499427
 10
1380.719500707449
 20
241.7746487499427
 10
1380.719500707449
 20
248.5746487499427
 10
1335.419500707449
 20
248.5746487499427
  0
CIRCLE
  5
233B
330
2
100
AcDbEntity
  8
Layer3
100
AcDbCircle
 10
1508.069500707448
 20
279.2108579116557
 30
0.0
 40
15.25
  0
CIRCLE
  5
233C
330
2
100
AcDbEntity
  8
Layer3
100
AcDbCircle
 10
1508.069500707448
 20
279.2108579116557
 30
0.0
 40
24.95
  0
LWPOLYLINE
  5
2345
330
2
100
AcDbEntity
  8
Layer3
100
AcDbPolyline
 90
        4
 70
     1
 43
0.0
 10
1483.119500707448
 20
238.7746487499427
 10
1533.019500707449
 20
238.7746487499427
 10
1533.019500707449
 20
246.2746487499427
 10
1483.119500707448
 20
246.2746487499427
  0
CIRCLE
  5
2346
330
2
100
AcDbEntity
  8
Layer3
100
AcDbCircle
 10
1658.069500707449
 20
279.2108579116557
 30
0.0
 40
16.75
  0
CIRCLE
  5
2347
330
2
100
AcDbEntity
  8
Layer3
100
AcDbCircle
 10
1658.069500707449
 20
279.2108579116557
 30
0.0
 40
27.35
  0
LWPOLYLINE
  5
234C
330
2
100
AcDbEntity
  8
Layer3
100
AcDbPolyline
 90
        4
 70
     1
 43
0.0
 10
1630.719500707448
 20
233.8505849125092
 10
1685.419500707448
 20
233.8505849125092
 10
1685.419500707448
 20
242.0505849125092
 10
1630.719500707448
 20
242.0505849125092
  0
CIRCLE
  5
234D
330
2
100
AcDbEntity
  8
Layer3
100
AcDbCircle
 10
1808.069500707448
 20
279.2108579116557
 30
0.0
 40
18.25
  0
CIRCLE
  5
234E
330
2
100
AcDbEntity
  8
Layer3
100
AcDbCircle
 10
1808.069500707448
 20
279.2108579116557
 30
0.0
 40
29.55
  0
LWPOLYLINE
  5
2353
330
2
100
AcDbEntity
  8
Layer3
100
AcDbPolyline
 90
        4
 70
     1
 43
0.0
 10
1778.519500707449
 20
229.4950919728189
 10
1837.619500707448
 20
229.4950919728189
 10
1837.619500707448
 20
238.4950919728189
 10
1778.519500707449
 20
238.4950919728189
  0
CIRCLE
  5
2354
330
2
100
AcDbEntity
  8
Layer3
100
AcDbCircle
 10
1958.069500707448
 20
279.2108579116557
 30
0.0
 40
19.75
  0
CIRCLE
  5
2355
330
2
100
AcDbEntity
  8
Layer3
100
AcDbCircle
 10
1958.069500707448
 20
279.2108579116557
 30
0.0
 40
31.55
  0
LWPOLYLINE
  5
235A
330
2
100
AcDbEntity
  8
Layer3
100
AcDbPolyline
 90
        4
 70
     1
 43
0.0
 10
1926.519500707448
 20
227.7920752107766
 10
1989.619500707448
 20
227.7920752107766
 10
1989.619500707448
 20
237.2920752107765
 10
1926.519500707448
 20
237.2920752107765
  0
CIRCLE
  5
2360
330
2
100
AcDbEntity
  8
Layer3
100
AcDbCircle
 10
-891.9304992925518
 20
-221.4433193887437
 30
0.0
 40
6.099999999999999
  0
CIRCLE
  5
2361
330
2
100
AcDbEntity
  8
Layer3
100
AcDbCircle
 10
-891.9304992925518
 20
-221.4433193887437
 30
0.0
 40
3.049999999999999
  0
LWPOLYLINE
  5
2363
330
2
100
AcDbEntity
  8
Layer3
100
AcDbPolyline
 90
        4
 70
     1
 43
0.0
 10
-898.0304992925518
 20
-233.8541320211537
 10
-885.8304992925518
 20
-233.8541320211537
 10
-885.8304992925518
 20
-231.9541320211535
 10
-898.0304992925518
 20
-231.9541320211535
  0
CIRCLE
  5
2369
330
2
100
AcDbEntity
  8
Layer3
100
AcDbCircle
 10
-741.9304992925512
 20
-221.4433193887437
 30
0.0
 40
4.099999999999999
  0
CIRCLE
  5
236A
330
2
100
AcDbEntity
  8
Layer3
100
AcDbCircle
 10
-741.9304992925512
 20
-221.4433193887437
 30
0.0
 40
7.799999999999999
  0
LWPOLYLINE
  5
236E
330
2
100
AcDbEntity
  8
Layer3
100
AcDbPolyline
 90
        4
 70
     1
 43
0.0
 10
-749.7304992925513
 20
-236.0541320211536
 10
-734.1304992925513
 20
-236.0541320211536
 10
-734.1304992925513
 20
-233.5541320211535
 10
-749.7304992925513
 20
-233.5541320211535
  0
CIRCLE
  5
2371
330
2
100
AcDbEntity
  8
Layer3
100
AcDbCircle
 10
-591.9304992925512
 20
-221.4433193887437
 30
0.0
 40
5.099999999999999
  0
CIRCLE
  5
2373
330
2
100
AcDbEntity
  8
Layer3
100
AcDbCircle
 10
-591.9304992925512
 20
-221.4433193887437
 30
0.0
 40
9.4
  0
LWPOLYLINE
  5
2377
330
2
100
AcDbEntity
  8
Layer3
100
AcDbPolyline
 90
        4
 70
     1
 43
0.0
 10
-601.3304992925513
 20
-238.0541320211536
 10
-582.5304992925513
 20
-238.0541320211536
 10
-582.5304992925513
 20
-235.0541320211535
 10
-601.3304992925513
 20
-235.0541320211535
  0
CIRCLE
  5
2379
330
2
100
AcDbEntity
  8
Layer3
100
AcDbCircle
 10
-441.9304992925515
 20
-221.4433193887437
 30
0.0
 40
6.099999999999999
  0
CIRCLE
  5
237A
330
2
100
AcDbEntity
  8
Layer3
100
AcDbCircle
 10
-441.9304992925515
 20
-221.4433193887437
 30
0.0
 40
10.94999999999999
  0
LWPOLYLINE
  5
237E
330
2
100
AcDbEntity
  8
Layer3
100
AcDbPolyline
 90
        4
 70
     1
 43
0.0
 10
-452.8804992925515
 20
-240.2041320211536
 10
-430.9804992925515
 20
-240.2041320211536
 10
-430.9804992925515
 20
-236.6041320211536
 10
-452.8804992925515
 20
-236.6041320211536
  0
CIRCLE
  5
237F
330
2
100
AcDbEntity
  8
Layer3
100
AcDbCircle
 10
-291.9304992925513
 20
-221.4433193887437
 30
0.0
 40
7.099999999999999
  0
CIRCLE
  5
2381
330
2
100
AcDbEntity
  8
Layer3
100
AcDbCircle
 10
-291.9304992925513
 20
-221.4433193887437
 30
0.0
 40
12.35
  0
LINE
  5
2382
330
2
100
AcDbEntity
  8
Layer3
100
AcDbLine
 10
-279.6804992925511
 20
-242.3041320211534
 30
0.0
 11
-304.1804992925512
 21
-242.3041320211538
 31
0.0
  0
LWPOLYLINE
  5
2386
330
2
100
AcDbEntity
  8
Layer3
100
AcDbPolyline
 90
        4
 70
     1
 43
0.0
 10
-304.2804992925513
 20
-242.3041320211536
 10
-279.5804992925512
 20
-242.3041320211536
 10
-279.5804992925512
 20
-238.1041320211536
 10
-304.2804992925513
 20
-238.1041320211536
  0
CIRCLE
  5
2387
330
2
100
AcDbEntity
  8
Layer3
100
AcDbCircle
 10
-141.9304992925512
 20
-221.4433193887437
 30
0.0
 40
8.099999999999999
  0
CIRCLE
  5
2389
330
2
100
AcDbEntity
  8
Layer3
100
AcDbCircle
 10
-141.9304992925512
 20
-221.4433193887437
 30
0.0
 40
14.1
  0
LWPOLYLINE
  5
238D
330
2
100
AcDbEntity
  8
Layer3
100
AcDbPolyline
 90
        4
 70
     1
 43
0.0
 10
-156.0304992925513
 20
-244.6541320211537
 10
-127.8304992925513
 20
-244.6541320211537
 10
-127.8304992925513
 20
-239.8541320211534
 10
-156.0304992925513
 20
-239.8541320211534
  0
CIRCLE
  5
238F
330
2
100
AcDbEntity
  8
Layer3
100
AcDbCircle
 10
8.069500707448696
 20
-221.4433193887437
 30
0.0
 40
9.099999999999999
  0
CIRCLE
  5
2390
330
2
100
AcDbEntity
  8
Layer3
100
AcDbCircle
 10
8.069500707448696
 20
-221.4433193887437
 30
0.0
 40
15.7
  0
LWPOLYLINE
  5
2394
330
2
100
AcDbEntity
  8
Layer3
100
AcDbPolyline
 90
        4
 70
     1
 43
0.0
 10
-7.630499292551302
 20
-246.7541320211537
 10
23.76950070744869
 20
-246.7541320211537
 10
23.76950070744869
 20
-241.3541320211535
 10
-7.630499292551302
 20
-241.3541320211535
  0
CIRCLE
  5
2396
330
2
100
AcDbEntity
  8
Layer3
100
AcDbCircle
 10
158.0695007074487
 20
-221.4433193887437
 30
0.0
 40
10.1
  0
LWPOLYLINE
  5
239E
330
2
100
AcDbEntity
  8
Layer3
100
AcDbPolyline
 90
        4
 70
     1
 43
0.0
 10
140.8695007074487
 20
-248.7541320211534
 10
175.2695007074486
 20
-248.7541320211534
 10
175.2695007074486
 20
-242.7541320211534
 10
140.8695007074487
 20
-242.7541320211534
  0
CIRCLE
  5
239F
330
2
100
AcDbEntity
  8
Layer3
100
AcDbCircle
 10
308.069500707449
 20
-221.4433193887437
 30
0.0
 40
11.25
  0
CIRCLE
  5
23A0
330
2
100
AcDbEntity
  8
Layer3
100
AcDbCircle
 10
158.0695007074487
 20
-221.4433193887437
 30
0.0
 40
17.19999999999999
  0
CIRCLE
  5
23A3
330
2
100
AcDbEntity
  8
Layer3
100
AcDbCircle
 10
308.069500707449
 20
-221.4433193887437
 30
0.0
 40
19.15
  0
LWPOLYLINE
  5
23A8
330
2
100
AcDbEntity
  8
Layer3
100
AcDbPolyline
 90
        4
 70
     1
 43
0.0
 10
288.919500707449
 20
-257.2654282630708
 10
327.219500707449
 20
-257.2654282630708
 10
327.219500707449
 20
-250.4654282630708
 10
288.919500707449
 20
-250.4654282630708
  0
CIRCLE
  5
23A9
330
2
100
AcDbEntity
  8
Layer3
100
AcDbCircle
 10
458.0695007074489
 20
-221.4433193887437
 30
0.0
 40
12.25
  0
CIRCLE
  5
23AA
330
2
100
AcDbEntity
  8
Layer3
100
AcDbCircle
 10
458.0695007074489
 20
-221.4433193887437
 30
0.0
 40
20.64999999999999
  0
LWPOLYLINE
  5
23B1
330
2
100
AcDbEntity
  8
Layer3
100
AcDbPolyline
 90
        4
 70
     1
 43
0.0
 10
437.4195007074489
 20
-259.1654282630708
 10
478.7195007074489
 20
-259.1654282630708
 10
478.7195007074489
 20
-251.9654282630708
 10
437.4195007074489
 20
-251.9654282630708
  0
CIRCLE
  5
23B2
330
2
100
AcDbEntity
  8
Layer3
100
AcDbCircle
 10
608.0695007074484
 20
-221.4433193887437
 30
0.0
 40
13.75
  0
CIRCLE
  5
23B3
330
2
100
AcDbEntity
  8
Layer3
100
AcDbCircle
 10
608.0695007074484
 20
-221.4433193887437
 30
0.0
 40
23.35
  0
LWPOLYLINE
  5
23B9
330
2
100
AcDbEntity
  8
Layer3
100
AcDbPolyline
 90
        4
 70
     1
 43
0.0
 10
584.7195007074484
 20
-262.9654282630708
 10
631.4195007074484
 20
-262.9654282630708
 10
631.4195007074484
 20
-254.6654282630708
 10
584.7195007074484
 20
-254.6654282630708
  0
LINE
  5
23DE
330
2
100
AcDbEntity
  8
Layer3
100
AcDbLine
 10
-891.8850510253614
 20
-231.9541320211535
 30
0.0
 11
-891.3759475597423
 21
-233.8541320211537
 31
0.0
  0
LINE
  5
23DF
330
2
100
AcDbEntity
  8
Layer3
100
AcDbLine
 10
-892.4850510253614
 20
-231.9541320211535
 30
0.0
 11
-891.9759475597421
 21
-233.8541320211537
 31
0.0
  0
LINE
  5
23E0
330
2
100
AcDbEntity
  8
Layer3
100
AcDbLine
 10
-741.8654357830902
 20
-233.5541320211535
 30
0.0
 11
-741.1955628020123
 21
-236.0541320211536
 31
0.0
  0
LINE
  5
23EB
330
2
100
AcDbEntity
  8
Layer3
100
AcDbLine
 10
-742.6654357830901
 20
-233.5541320211535
 30
0.0
 11
-741.9955628020122
 21
-236.0541320211536
 31
0.0
  0
LINE
  5
23EC
330
2
100
AcDbEntity
  8
Layer3
100
AcDbLine
 10
-592.832423081198
 20
-235.0541320211535
 30
0.0
 11
-592.0285755039045
 21
-238.0541320211536
 31
0.0
  0
LINE
  5
23ED
330
2
100
AcDbEntity
  8
Layer3
100
AcDbLine
 10
-591.832423081198
 20
-235.0541320211535
 30
0.0
 11
-591.0285755039045
 21
-238.0541320211536
 31
0.0
  0
LINE
  5
23F6
330
2
100
AcDbEntity
  8
Layer3
100
AcDbLine
 10
-441.8128078389275
 20
-236.6041320211536
 30
0.0
 11
-440.8481907461754
 21
-240.2041320211536
 31
0.0
  0
LINE
  5
23F7
330
2
100
AcDbEntity
  8
Layer3
100
AcDbLine
 10
-443.0128078389276
 20
-236.6041320211536
 30
0.0
 11
-442.0481907461755
 21
-240.2041320211536
 31
0.0
  0
LINE
  5
23FD
330
2
100
AcDbEntity
  8
Layer3
100
AcDbLine
 10
-293.1931925966566
 20
-238.1041320211536
 30
0.0
 11
-292.0678059884459
 21
-242.3041320211536
 31
0.0
  0
LINE
  5
23FE
330
2
100
AcDbEntity
  8
Layer3
100
AcDbLine
 10
-291.7931925966566
 20
-238.1041320211536
 30
0.0
 11
-290.6678059884459
 21
-242.3041320211536
 31
0.0
  0
LINE
  5
2404
330
2
100
AcDbEntity
  8
Layer3
100
AcDbLine
 10
-143.373577354386
 20
-239.8541320211534
 30
0.0
 11
-142.0874212307165
 21
-244.6541320211537
 31
0.0
  0
LINE
  5
2405
330
2
100
AcDbEntity
  8
Layer3
100
AcDbLine
 10
-141.773577354386
 20
-239.8541320211534
 30
0.0
 11
-140.4874212307165
 21
-244.6541320211537
 31
0.0
  0
LINE
  5
240B
330
2
100
AcDbEntity
  8
Layer3
100
AcDbLine
 10
6.446037887884619
 20
-241.3541320211535
 30
0.0
 11
7.892963527012772
 21
-246.7541320211537
 31
0.0
  0
LINE
  5
240C
330
2
100
AcDbEntity
  8
Layer3
100
AcDbLine
 10
8.24603788788462
 20
-241.3541320211535
 30
0.0
 11
9.692963527012771
 21
-246.7541320211537
 31
0.0
  0
LINE
  5
2412
330
2
100
AcDbEntity
  8
Layer3
100
AcDbLine
 10
156.2656531301553
 20
-242.7541320211534
 30
0.0
 11
157.873348284742
 21
-248.7541320211534
 31
0.0
  0
LINE
  5
2413
330
2
100
AcDbEntity
  8
Layer3
100
AcDbLine
 10
158.2656531301553
 20
-242.7541320211534
 30
0.0
 11
159.873348284742
 21
-248.7541320211534
 31
0.0
  0
LINE
  5
2419
330
2
100
AcDbEntity
  8
Layer3
100
AcDbLine
 10
308.2584734531832
 20
-250.4654282630708
 30
0.0
 11
310.0805279617149
 21
-257.2654282630708
 31
0.0
  0
LINE
  5
241A
330
2
100
AcDbEntity
  8
Layer3
100
AcDbLine
 10
306.0584734531831
 20
-250.4654282630708
 30
0.0
 11
307.8805279617149
 21
-257.2654282630708
 31
0.0
  0
LINE
  5
2421
330
2
100
AcDbEntity
  8
Layer3
100
AcDbLine
 10
458.3048836146969
 20
-251.9654282630708
 30
0.0
 11
460.2341178002011
 21
-259.1654282630708
 31
0.0
  0
LINE
  5
2422
330
2
100
AcDbEntity
  8
Layer3
100
AcDbLine
 10
455.9048836146969
 20
-251.9654282630708
 30
0.0
 11
457.8341178002011
 21
-259.1654282630708
 31
0.0
  0
LINE
  5
2427
330
2
100
AcDbEntity
  8
Layer3
100
AcDbLine
 10
608.2575115588593
 20
-254.6654282630708
 30
0.0
 11
610.4814898560377
 21
-262.9654282630708
 31
0.0
  0
LINE
  5
2428
330
2
100
AcDbEntity
  8
Layer3
100
AcDbLine
 10
605.6575115588593
 20
-254.6654282630708
 30
0.0
 11
607.8814898560377
 21
-262.9654282630708
 31
0.0
  0
LINE
  5
242F
330
2
100
AcDbEntity
  8
Layer3
100
AcDbLine
 10
-891.8974865906589
 20
272.6000452792458
 30
0.0
 11
-891.7635119944433
 21
272.1000452792458
 31
0.0
  0
LINE
  5
2430
330
2
100
AcDbEntity
  8
Layer3
100
AcDbLine
 10
-892.097486590659
 20
272.6000452792458
 30
0.0
 11
-891.9635119944434
 21
272.1000452792458
 31
0.0
  0
LINE
  5
2436
330
2
100
AcDbEntity
  8
Layer3
100
AcDbLine
 10
-742.1108840502812
 20
272.2000452792457
 30
0.0
 11
-741.9501145348225
 21
271.6000452792458
 31
0.0
  0
LINE
  5
2437
330
2
100
AcDbEntity
  8
Layer3
100
AcDbLine
 10
-741.9108840502811
 20
272.2000452792457
 30
0.0
 11
-741.7501145348225
 21
271.6000452792458
 31
0.0
  0
LINE
  5
244E
330
2
100
AcDbEntity
  8
Layer3
100
AcDbLine
 10
-592.1242815099023
 20
271.8500452792458
 30
0.0
 11
-591.9367170752003
 21
271.1500452792459
 31
0.0
  0
LINE
  5
244F
330
2
100
AcDbEntity
  8
Layer3
100
AcDbLine
 10
-591.9242815099022
 20
271.8500452792458
 30
0.0
 11
-591.7367170752003
 21
271.1500452792459
 31
0.0
  0
LINE
  5
2455
330
2
100
AcDbEntity
  8
Layer3
100
AcDbLine
 10
-442.2244738887669
 20
271.0000452792458
 30
0.0
 11
-441.9565246963356
 21
270.0000452792458
 31
0.0
  0
LINE
  5
2456
330
2
100
AcDbEntity
  8
Layer3
100
AcDbLine
 10
-441.9044738887668
 20
271.0000452792458
 30
0.0
 11
-441.6365246963356
 21
270.0000452792458
 31
0.0
  0
LINE
  5
245B
330
2
100
AcDbEntity
  8
Layer3
100
AcDbLine
 10
-292.3046662676316
 20
270.2000452792457
 30
0.0
 11
-291.956332317471
 21
268.9000452792457
 31
0.0
  0
LINE
  5
245C
330
2
100
AcDbEntity
  8
Layer3
100
AcDbLine
 10
-291.9046662676316
 20
270.2000452792457
 30
0.0
 11
-291.556332317471
 21
268.9000452792457
 31
0.0
  0
LINE
  5
2461
330
2
100
AcDbEntity
  8
Layer3
100
AcDbLine
 10
-141.8814611868747
 20
268.7000452792458
 30
0.0
 11
-141.4795373982279
 21
267.2000452792459
 31
0.0
  0
LINE
  5
2462
330
2
100
AcDbEntity
  8
Layer3
100
AcDbLine
 10
-142.3814611868747
 20
268.7000452792458
 30
0.0
 11
-141.9795373982279
 21
267.2000452792459
 31
0.0
  0
LINE
  5
2467
330
2
100
AcDbEntity
  8
Layer3
100
AcDbLine
 10
8.131551515017473
 20
267.1000452792458
 30
0.0
 11
8.667449899879864
 21
265.1000452792458
 31
0.0
  0
LINE
  5
2468
330
2
100
AcDbEntity
  8
Layer3
100
AcDbLine
 10
7.471551515017472
 20
267.1000452792458
 30
0.0
 11
8.007449899879862
 21
265.1000452792458
 31
0.0
  0
LINE
  5
246D
330
2
100
AcDbEntity
  8
Layer3
100
AcDbLine
 10
158.1345642169097
 20
265.6000452792458
 30
0.0
 11
158.8044371979876
 21
263.1000452792458
 31
0.0
  0
LINE
  5
246E
330
2
100
AcDbEntity
  8
Layer3
100
AcDbLine
 10
157.3345642169096
 20
265.6000452792458
 30
0.0
 11
158.0044371979876
 21
263.1000452792458
 31
0.0
  0
LINE
  5
2474
330
2
100
AcDbEntity
  8
Layer3
100
AcDbLine
 10
307.1675769188021
 20
264.0500452792456
 30
0.0
 11
307.9714244960956
 21
261.0500452792456
 31
0.0
  0
LINE
  5
2475
330
2
100
AcDbEntity
  8
Layer3
100
AcDbLine
 10
308.1675769188021
 20
264.0500452792456
 30
0.0
 11
308.9714244960956
 21
261.0500452792456
 31
0.0
  0
LINE
  5
247A
330
2
100
AcDbEntity
  8
Layer3
100
AcDbLine
 10
458.180589620694
 20
262.5500452792457
 30
0.0
 11
459.1184117942031
 21
259.0500452792458
 31
0.0
  0
LINE
  5
247B
330
2
100
AcDbEntity
  8
Layer3
100
AcDbLine
 10
457.0205896206941
 20
262.5500452792457
 30
0.0
 11
457.9584117942031
 21
259.0500452792458
 31
0.0
  0
LINE
  5
2480
330
2
100
AcDbEntity
  8
Layer3
100
AcDbLine
 10
606.873602322586
 20
260.8000452792458
 30
0.0
 11
607.9453990923107
 21
256.8000452792458
 31
0.0
  0
LINE
  5
2481
330
2
100
AcDbEntity
  8
Layer3
100
AcDbLine
 10
608.193602322586
 20
260.8000452792458
 30
0.0
 11
609.2653990923106
 21
256.8000452792458
 31
0.0
  0
LINE
  5
248A
330
2
100
AcDbEntity
  8
Layer3
100
AcDbLine
 10
756.7532175648566
 20
259.3000452792458
 30
0.0
 11
757.98578385004
 21
254.7000452792458
 31
0.0
  0
LINE
  5
248B
330
2
100
AcDbEntity
  8
Layer3
100
AcDbLine
 10
758.1532175648567
 20
259.3000452792458
 30
0.0
 11
759.38578385004
 21
254.7000452792458
 31
0.0
  0
LINE
  5
2490
330
2
100
AcDbEntity
  8
Layer3
100
AcDbLine
 10
906.5362302667489
 20
257.9000452792462
 30
0.0
 11
907.9027711481479
 21
252.8000452792457
 31
0.0
  0
LINE
  5
2491
330
2
100
AcDbEntity
  8
Layer3
100
AcDbLine
 10
908.2362302667489
 20
257.9000452792462
 30
0.0
 11
909.6027711481481
 21
252.8000452792457
 31
0.0
  0
LINE
  5
2496
330
2
100
AcDbEntity
  8
Layer3
100
AcDbLine
 10
1056.419242968641
 20
255.9500452792462
 30
0.0
 11
1057.919758446255
 21
250.3500452792459
 31
0.0
  0
LINE
  5
2497
330
2
100
AcDbEntity
  8
Layer3
100
AcDbLine
 10
1058.219242968641
 20
255.9500452792462
 30
0.0
 11
1059.719758446256
 21
250.3500452792459
 31
0.0
  0
LINE
  5
249C
330
2
100
AcDbEntity
  8
Layer3
100
AcDbLine
 10
1206.379050589776
 20
251.0746487499427
 30
0.0
 11
1207.95995082512
 21
245.1746487499427
 31
0.0
  0
LINE
  5
249D
330
2
100
AcDbEntity
  8
Layer3
100
AcDbLine
 10
1208.179050589776
 20
251.0746487499427
 30
0.0
 11
1209.75995082512
 21
245.1746487499427
 31
0.0
  0
LINE
  5
24A2
330
2
100
AcDbEntity
  8
Layer3
100
AcDbLine
 10
1358.258473453183
 20
248.5746487499427
 30
0.0
 11
1360.080527961715
 21
241.7746487499427
 31
0.0
  0
LINE
  5
24A3
330
2
100
AcDbEntity
  8
Layer3
100
AcDbLine
 10
1356.058473453183
 20
248.5746487499427
 30
0.0
 11
1357.880527961715
 21
241.7746487499427
 31
0.0
  0
LINE
  5
24A8
330
2
100
AcDbEntity
  8
Layer3
100
AcDbLine
 10
1508.314691235832
 20
246.2746487499427
 30
0.0
 11
1510.324310179065
 21
238.7746487499426
 31
0.0
  0
LINE
  5
24A9
330
2
100
AcDbEntity
  8
Layer3
100
AcDbLine
 10
1505.814691235832
 20
246.2746487499427
 30
0.0
 11
1507.824310179065
 21
238.7746487499426
 31
0.0
  0
LINE
  5
24AE
330
2
100
AcDbEntity
  8
Layer3
100
AcDbLine
 10
1655.670909018481
 20
242.0505849125092
 30
0.0
 11
1657.868092396416
 21
233.8505849125092
 31
0.0
  0
LINE
  5
24AF
330
2
100
AcDbEntity
  8
Layer3
100
AcDbLine
 10
1658.270909018481
 20
242.0505849125092
 30
0.0
 11
1660.468092396416
 21
233.8505849125092
 31
0.0
  0
LINE
  5
24B4
330
2
100
AcDbEntity
  8
Layer3
100
AcDbLine
 10
1808.363729341508
 20
238.4950919728189
 30
0.0
 11
1810.775272073388
 21
229.4950919728189
 31
0.0
  0
LINE
  5
24B5
330
2
100
AcDbEntity
  8
Layer3
100
AcDbLine
 10
1805.363729341508
 20
238.4950919728189
 30
0.0
 11
1807.775272073388
 21
229.4950919728189
 31
0.0
  0
LINE
  5
24BA
330
2
100
AcDbEntity
  8
Layer3
100
AcDbLine
 10
1958.2967420434
 20
237.2920752107765
 30
0.0
 11
1960.842259371496
 21
227.7920752107766
 31
0.0
  0
LINE
  5
24BB
330
2
100
AcDbEntity
  8
Layer3
100
AcDbLine
 10
1955.2967420434
 20
237.2920752107765
 30
0.0
 11
1957.842259371496
 21
227.7920752107766
 31
0.0
  0
ENDSEC
  0
SECTION
  2
OBJECTS
  0
DICTIONARY
  5
1B
330
0
100
AcDbDictionary
281
     1
  3
ACAD_GROUP
350
19
  3
ACAD_LAYOUT
350
2E
  3
ACAD_MLINESTYLE
350
1A
  3
ACAD_PLOTSETTINGS
350
2F
  3
ACAD_PLOTSTYLENAME
350
2C
  0
DICTIONARY
  5
3A6
330
2
100
AcDbDictionary
280
     1
281
     1
  3
ACAD_LAYOUTSELFREF
360
1506
  0
DICTIONARY
  5
3A8
330
8
100
AcDbDictionary
280
     1
281
     1
  3
ACAD_LAYOUTSELFREF
360
1507
  0
DICTIONARY
  5
19
102
{ACAD_REACTORS
330
1B
102
}
330
1B
100
AcDbDictionary
281
     1
  0
DICTIONARY
  5
2E
102
{ACAD_REACTORS
330
1B
102
}
330
1B
100
AcDbDictionary
281
     1
  3
Layout1
350
150D
  3
Model
350
150C
  0
DICTIONARY
  5
1A
102
{ACAD_REACTORS
330
1B
102
}
330
1B
100
AcDbDictionary
281
     1
  3
STANDARD
350
1C
  0
DICTIONARY
  5
2F
102
{ACAD_REACTORS
330
1B
102
}
330
1B
100
AcDbDictionary
281
     1
  0
ACDBDICTIONARYWDFLT
  5
2C
102
{ACAD_REACTORS
330
1B
102
}
330
1B
100
AcDbDictionary
281
     1
  3
Normal
350
2D
100
AcDbDictionaryWithDefault
340
2D
  0
XRECORD
  5
1506
102
{ACAD_REACTORS
330
3A6
102
}
330
3A6
100
AcDbXrecord
280
     1
340
2
  0
XRECORD
  5
1507
102
{ACAD_REACTORS
330
3A8
102
}
330
3A8
100
AcDbXrecord
280
     1
340
8
  0
LAYOUT
  5
150D
102
{ACAD_REACTORS
330
2E
102
}
330
2E
100
AcDbPlotSettings
  1

  2
None
  4

  6

 40
0.0
 41
0.0
 42
0.0
 43
0.0
 44
0.0
 45
0.0
 46
0.0
 47
0.0
 48
0.0
 49
0.0
140
0.0
141
0.0
142
1.0
143
1.0
 70
   688
 72
     0
 73
     0
 74
     5
  7
monochrome.ctb
 75
    16
147
1.0
148
0.0
149
0.0
100
AcDbLayout
  1
Layout1
 70
     1
 71
     1
 10
0.0
 20
0.0
 11
420.0
 21
297.0
 12
0.0
 22
0.0
 32
0.0
 14
0.0
 24
0.0
 34
0.0
 15
420.0000000000001
 25
302.7225130890052
 35
0.0
146
0.0
 13
0.0
 23
0.0
 33
0.0
 16
1.0
 26
0.0
 36
0.0
 17
0.0
 27
1.0
 37
0.0
 76
     0
330
8
  0
LAYOUT
  5
150C
102
{ACAD_REACTORS
330
2E
102
}
330
2E
100
AcDbPlotSettings
  1

  2
EPSON LP-9100
  4
A3
  6

 40
5.87375
 41
5.873747999999999
 42
5.873749
 43
5.873749
 44
419.946655
 45
297.0106509999999
 46
0.0
 47
0.0
 48
-1074.341900158757
 49
-437.7056503311701
140
2110.991228794875
141
692.9271561253053
142
1.0
143
7.803379997565777
 70
 11952
 72
     1
 73
     0
 74
     4
  7
monochrome.ctb
 75
     0
147
0.1281495967531947
148
1074.341900158757
149
437.7056503311701
100
AcDbLayout
  1
Model
 70
     1
 71
     0
 10
0.0
 20
0.0
 11
12.0
 21
9.0
 12
0.0
 22
0.0
 32
0.0
 14
0.0
 24
0.0
 34
0.0
 15
0.0
 25
0.0
 35
0.0
146
0.0
 13
0.0
 23
0.0
 33
0.0
 16
1.0
 26
0.0
 36
0.0
 17
0.0
 27
1.0
 37
0.0
 76
     0
330
2
  0
MLINESTYLE
  5
1C
102
{ACAD_REACTORS
330
1A
102
}
330
1A
100
AcDbMlineStyle
  2
STANDARD
 70
     0
  3

 62
     0
 51
90.0
 52
90.0
 71
     2
 49
0.5
 62
   256
  6
BYLAYER
 49
-0.5
 62
   256
  6
BYLAYER
  0
ACDBPLACEHOLDER
  5
2D
102
{ACAD_REACTORS
330
2C
102
}
330
2C
  0
ENDSEC
  0
EOF
